<svg width="79" height="79" viewBox="0 0 79 79" fill="none" xmlns="http://www.w3.org/2000/svg">
<g clip-path="url(#clip0_1117_33421)">
<path d="M77.9822 62.7054L45.5777 8.96505C44.301 6.84794 41.9722 5.53271 39.4999 5.53271C37.0276 5.53271 34.6988 6.84794 33.422 8.9652L1.01766 62.7054C-0.301737 64.8937 -0.340774 67.6352 0.915666 69.8602C2.17241 72.0851 4.54025 73.4673 7.09541 73.4673H71.9044C74.4596 73.4673 76.8276 72.0851 78.0843 69.86C79.3408 67.6349 79.3017 64.8933 77.9822 62.7054ZM73.6057 67.3309C73.2598 67.9433 72.6079 68.324 71.9044 68.324H7.09541C6.39197 68.324 5.74007 67.9435 5.39429 67.3311C5.04835 66.7185 5.05915 65.9637 5.42221 65.3615L37.8269 11.6211C38.1784 11.0383 38.8195 10.6762 39.5001 10.6762C40.1805 10.6762 40.8216 11.0383 41.1731 11.6211L73.5775 65.3615C73.9408 65.9639 73.9516 66.7185 73.6057 67.3309Z" fill="#ECA320"/>
<path d="M39.5237 26.6941C37.5672 26.6941 36.0403 27.7439 36.0403 29.6051C36.0403 35.2835 36.7082 43.4433 36.7082 49.1219C36.7084 50.6012 37.9969 51.2214 39.5238 51.2214C40.669 51.2214 42.2915 50.6012 42.2915 49.1219C42.2915 43.4435 42.9594 35.2836 42.9594 29.6051C42.9594 27.7441 41.3848 26.6941 39.5237 26.6941Z" fill="#ECA320"/>
<path d="M39.5716 54.5139C37.4721 54.5139 35.8972 56.184 35.8972 58.1883C35.8972 60.1448 37.472 61.8628 39.5716 61.8628C41.5281 61.8628 43.1984 60.1448 43.1984 58.1883C43.1984 56.184 41.528 54.5139 39.5716 54.5139Z" fill="#ECA320"/>
</g>
<defs>
<clipPath id="clip0_1117_33421">
<rect width="79" height="79" fill="white"/>
</clipPath>
</defs>
</svg>
