<svg fill="none" height="207" viewBox="0 0 782 207" width="782" xmlns="http://www.w3.org/2000/svg" xmlns:xlink="http://www.w3.org/1999/xlink"><linearGradient id="a"><stop offset=".18" stop-color="#fff"/><stop offset="1" stop-color="#dde2f8"/></linearGradient><linearGradient id="b" gradientUnits="userSpaceOnUse" x1="617.675" x2="617.675" xlink:href="#a" y1="152.463" y2="8.95312"/><linearGradient id="c"><stop offset=".18" stop-color="#fff"/><stop offset="1" stop-color="#ced3f8"/></linearGradient><linearGradient id="d" gradientUnits="userSpaceOnUse" x1="651.826" x2="651.826" xlink:href="#c" y1="8.95313" y2="8.95313"/><linearGradient id="e" gradientUnits="userSpaceOnUse" x1="696.881" x2="696.881" xlink:href="#a" y1="201.292" y2="57.781"/><linearGradient id="f" gradientUnits="userSpaceOnUse" x1="572.62" x2="572.62" xlink:href="#c" y1="57.781" y2="57.781"/><linearGradient id="g" gradientUnits="userSpaceOnUse" x1="559.542" x2="559.542" xlink:href="#a" y1="156.221" y2="49.0551"/><linearGradient id="h" gradientUnits="userSpaceOnUse" x1="724.205" x2="724.205" xlink:href="#c" y1="49.0551" y2="49.0551"/><linearGradient id="i" gradientUnits="userSpaceOnUse" x1="168.399" x2="168.399" xlink:href="#a" y1="156.001" y2="8.84381"/><linearGradient id="j" gradientUnits="userSpaceOnUse" x1="133.38" x2="133.38" xlink:href="#c" y1="8.84381" y2="8.84381"/><linearGradient id="k" gradientUnits="userSpaceOnUse" x1="87.1791" x2="87.1791" xlink:href="#a" y1="206.064" y2="58.906"/><linearGradient id="l" gradientUnits="userSpaceOnUse" x1="214.598" x2="214.598" xlink:href="#c" y1="58.906" y2="58.906"/><linearGradient id="m" gradientUnits="userSpaceOnUse" x1="228.01" x2="228.01" xlink:href="#a" y1="159.85" y2="49.9609"/><linearGradient id="n" gradientUnits="userSpaceOnUse" x1="59.161" x2="59.161" xlink:href="#c" y1="49.9609" y2="49.9609"/><path d="m645.852.460876-56.354 8.492104 56.354 8.49202 56.351-8.49202z" fill="#f6f6fb"/><path d="m589.498 143.971 56.354 8.492v-135.0179l-56.354-8.49198z" fill="url(#b)"/><path d="m702.204 143.971-56.351 8.492v-135.0179l56.351-8.49198z" fill="url(#d)"/><path d="m725.058 49.2891-56.354 8.492 56.354 8.494 56.352-8.494z" fill="#f6f6fb"/><path d="m668.704 192.8 56.354 8.492v-135.016l-56.354-8.495z" fill="url(#e)"/><path d="m781.41 192.8-56.352 8.493v-135.017l56.352-8.495z" fill="url(#f)"/><path d="m580.583 42.7109-42.083 6.343 42.083 6.341 42.081-6.341z" fill="#f6f6fb"/><path d="m538.5 149.88 42.083 6.341v-100.8259l-42.083-6.34z" fill="url(#g)"/><path d="m622.664 149.88-42.081 6.341v-100.8259l42.081-6.34z" fill="url(#h)"/><path d="m139.506.132812 57.786 8.707898-57.786 8.70779-57.7841-8.70779z" fill="#f6f6fb"/><path d="m197.292 147.293-57.786 8.708v-138.4494l57.786-8.70779z" fill="url(#i)"/><path d="m81.7209 147.293 57.7841 8.708v-138.4494l-57.7841-8.70779z" fill="url(#j)"/><path d="m58.286 50.203 57.786 8.708-57.786 8.71-57.786-8.71z" fill="#f6f6fb"/><path d="m116.072 197.356-57.7859 8.708v-138.448l57.7859-8.71z" fill="url(#k)"/><path d="m.5 197.356 57.786 8.71v-138.45l-57.786-8.71z" fill="url(#l)"/><path d="m206.433 43.4609 43.153 6.504-43.153 6.502-43.15-6.502z" fill="#f6f6fb"/><path d="m249.586 153.349-43.153 6.501v-103.3871l43.153-6.502z" fill="url(#m)"/><path d="m163.282 153.349 43.151 6.501v-103.3871l-43.151-6.502z" fill="url(#n)"/><g fill="#ffd03e"><path d="m336.558 17.8585c-5.707-.657-6.954-5.5276-7.429-8.46788 1.73.32311 8.652 2.01038 7.429 8.46788z"/><path d="m361.696 59.021c-.11 0-.217-.035-.303-.097-.086-.063-.147-.151-.173-.249-2.793-10.527-10.955-26.8155-25.496-40.9788-.09-.0874-.139-.2042-.136-.3248.003-.1205.058-.235.153-.3182s.222-.1282.352-.1253c.131.0029.255.0537.346.141 14.672 14.2857 22.916 30.7461 25.735 41.3861.016.058.019.118.009.177-.01.058-.032.115-.066.166-.033.051-.077.095-.129.13-.053.035-.112.06-.175.074-.038.011-.077.018-.117.019zm.134-8.138c1.784-10.579 10.293-11.194 16.762-11.901-.811 3.201-2.698 14.552-16.762 11.901zm-3.903-9.608c-.905-8.5546 5.576-10.5979 10.453-12.3385.063 2.636 1.061 11.8095-10.453 12.3385zm-6.418-9.4766c-2.624-6.9798 2.346-9.8902 6.042-12.2471.626 2.1906 3.464 9.6706-6.042 12.2471zm-6.992-8.6718c-2.877-3.7478-.457-6.2725 1.306-8.275.786 1.209 3.886 5.2203-1.306 8.275zm11.358 28.8054c-6.784-7.082-13.425-3.811-18.597-1.501 2.254 2.023 9.508 9.644 18.597 1.501z"/><path d="m351.419 41.562c-4.749-6.873-10.89-4.909-15.63-3.58 1.626 2.002 6.699 9.388 15.63 3.58zm-7.245-11.479c-4.53-3.6867-8.156-1.3282-10.997.3716 1.477 1.0303 6.323 4.9974 10.997-.3716zm-5.474-7.4188c-2.166-2.5577-4.516-1.5682-6.342-.8703.727.737 3.041 3.4859 6.342.8703z"/></g><path d="m382.791 58.615c9.869-8.491 6.976-19.824-5.379-29.0447-7.241 9.3037-8.308 23.9597 5.379 29.0447z" fill="#5652cc"/><path d="m385.379 56.944c16.675 4.568 28.451-5.793 31.495-24.4773-15.941-1.3455-34.301 7.1323-31.495 24.4773z" fill="#807dfb"/><path d="m385.378 57.395c-.099.001-.196-.026-.278-.077-.083-.051-.146-.123-.183-.208s-.045-.178-.023-.267c.021-.089.071-.17.144-.232 2.428-2.117 6.806-5.332 11.432-8.728 5.596-4.109 11.94-8.765 16.359-12.586.047-.041.102-.074.163-.095.06-.021.125-.032.19-.03s.129.015.188.039c.06.025.113.06.158.103.045.044.08.095.103.151s.034.115.032.175c-.001.06-.016.119-.042.173-.027.055-.065.104-.112.146-4.448 3.845-10.808 8.515-16.42 12.634-4.612 3.386-8.972 6.586-11.369 8.677-.092.081-.215.126-.342.125z" fill="#6b67e9"/><path d="m299.988 149.403c-9.358-4.681-17.832.14-22.228 10.96 9.358 2.669 21.519-.256 22.228-10.96z" fill="#fcba06"/><path d="m304.405 141.561c-8.807-15.159-26.258-15.611-44.009-3.648 10.916 12.214 31.782 18.713 44.009 3.648z" fill="#ffd03e"/><path d="m304.408 142.021h-.015c-3.584-.107-9.539-.756-15.845-1.443-7.621-.83-16.26-1.772-22.754-1.991-.065-.002-.129-.016-.188-.04-.06-.025-.113-.06-.157-.104-.045-.043-.08-.095-.102-.151-.023-.056-.034-.115-.031-.175.002-.06.017-.119.044-.173.028-.055.066-.104.114-.144.048-.041.104-.072.165-.093.061-.02.125-.03.19-.027 6.536.221 15.195 1.165 22.835 1.998 6.283.684 12.22 1.331 15.759 1.436.065.001.129.014.188.038.059.023.113.057.158.1s.08.093.104.149c.024.055.035.114.034.174-.001.059-.014.118-.04.172-.026.055-.063.105-.109.146s-.101.074-.161.096-.124.033-.189.032z" fill="#fcba06"/><path d="m419.259 123.816c.873 14.168 13.76 20.11 31.549 16.859-3.559-12.642-16.719-24.204-31.549-16.859z" fill="#6b67e9"/><path d="m438.608 123.801c-2.634-5.645.17-15.551 5.835-18.589 5.664-3.037 10.124.974 12.697-1.457 2.572-2.43 2.462-9.6721 7.172-11.2901 8.368-2.867 10.962 10.4831 17.355 8.9521 6.393-1.5301 4.441-8.8821 10.18-11.1761 5.74-2.294 7.189 8.838 14.817 8.752s23.874 2.4601 21.152 10.9161c-2.146 6.685-9.493 1.011-12.122 2.794-3 2.039-.655 5.851-4.492 7.425-5.424 2.227-10.098-3.606-14.221-1.097s-1.692 8.08-8.205 8.154c-8.063.091-7.597-11.634-16.966-7.071-9.368 4.563 1.344 12.37-4.009 15.939-5.841 3.895-12.295-6.524-15.483-3.085-4.344 4.678-9.624-.409-13.71-9.167z" fill="#5652cc"/><path d="m438.045 122.697c-.107 0-.211-.032-.296-.092-.085-.059-.147-.143-.176-.238s-.024-.196.015-.287c.039-.092.109-.17.2-.222.41-.232.94-.749 1.552-1.348 1.463-1.429 3.47-3.389 6.003-3.417 1.292-.011 2.603.157 3.869.313 2.054.265 4.178.538 6.318.04 4.424-1.031 6.893-3.529 9.078-5.73 1.671-1.686 3.25-3.279 5.421-3.888 2.026-.571 3.251.203 4.551 1.023 1.183.745 2.406 1.515 4.509 1.515h.097c2.073-.024 2.893-.615 3.831-1.3 1.085-.785 2.317-1.686 5.497-1.725 2.702-.021 4.026.806 5.287 1.616 1.206.775 2.344 1.507 4.812 1.586 4.8.144 7.691-1.695 9.797-3.047 1.373-.881 2.445-1.568 3.652-1.534 2.71.097 3.52 1.912 3.552 1.989.044.11.038.232-.014.339-.053.108-.148.192-.267.235-.119.044-.251.043-.369-.002s-.213-.13-.263-.238c-.024-.052-.63-1.343-2.677-1.412-.851-.011-1.829.588-3.051 1.372-2.222 1.424-5.247 3.378-10.394 3.209-2.759-.088-4.13-.969-5.341-1.747-1.191-.762-2.306-1.482-4.714-1.455-2.843.031-3.842.757-4.898 1.525-.994.722-2.02 1.468-4.424 1.495-2.471.045-3.972-.916-5.175-1.673-1.24-.784-2.133-1.346-3.709-.904-1.912.538-3.335 1.972-4.98 3.632-2.277 2.298-4.86 4.901-9.563 5.998-2.326.543-4.548.256-6.695-.02-1.231-.184-2.475-.289-3.722-.314-2.116.024-3.881 1.747-5.298 3.137-.662.646-1.232 1.204-1.754 1.499-.078.045-.169.069-.261.07z" fill="#423eaf"/><path d="m318.164 140.691c-2.35 1.917-31.405-3.024-30.743-8.208.51-4.036 5.172-3.622 6.852-3.35 2.642.429 8.928 1.845 8.963-.009.063-3.354-16.334-5.063-20.294-5.706-3.959-.643-11.478-2.886-13.19-6.676s-1.936-5.507 4.935-4.027c6.87 1.48 20.009 5.959 17.588 1.756-2.421-4.202-13.496-5.488-19.55-8.366-6.054-2.877-16.505-10.268-12.003-12.48 4.034-1.979 20.418 8.797 21.021 5.604.488-2.553-5.149-3.908-12.712-8.353-7.564-4.446-14.652-8.713-12.2-13.097 1.97-3.522 6.159.266 10.27 2.617s9.971 5.421 9.746 2.898c-.224-2.523-21.529-12.222-19.724-18.562 1.191-4.196 5.025-.795 9.975 1.69 4.949 2.486 6.893 3.021 7.095 1.957.203-1.063-5.884-5.416-9.295-7.726-3.412-2.31-7.446-6.696-5.222-9.699s7.275 1.217 8.749 3.176c1.473 1.958 3.781 3.246 4.41 2.837.63-.41-3.743-7.19.407-8.711 4.15-1.522 7.63 5.331 6.857 9.377-.772 4.046-1.664 9.533-.063 9.791 1.601.259 2.495-4.422 3.201-8.112.706-3.689 1.899-5.007 2.967-4.834 3.558.579 5.641 5.865 5.125 8.562-.515 2.697-5.537 17.463-3.173 17.845 2.363.383 3.614-5.331 4.184-8.311.57-2.979 1.897-9.932 5.862-9.289 3.964.642 4.311 10.349 2.846 15.969-1.465 5.621-4.594 14.545-2.756 14.841 1.837.297 5.639-6.473 6.329-10.091.691-3.617-.057-10.396 4.823-9.606s4.817 6.478 3.459 13.583c-.567 2.968-2.042 10.303-5.52 13.85-3.951 4.036-5.2 6.645-4.227 7.538 1.94 1.778 4.902-2.196 6.316-5.489s5.137-13.724 10.249-10.846c5.111 2.877-.213 10.573-2.02 13.863s-9.272 14.371-6.653 15.892 4.861-5.283 5.802-7.325 4.351-5.695 5.636-3.986c1.284 1.709-.13 25.793-4.322 29.213z" fill="#ced3f8"/><path d="m498.92 183.056c0-2.55-23.8-4.618-53.156-4.618s-53.156 2.068-53.156 4.618c0 2.549 23.8 4.618 53.156 4.618s53.156-2.067 53.156-4.618z" fill="#e9edf7"/><path d="m427.994 188.988c0-1.529-14.264-2.768-31.857-2.768-17.594 0-31.858 1.239-31.858 2.768s14.264 2.768 31.858 2.768c17.593 0 31.857-1.239 31.857-2.768zm-71.833.735c0-1.935-22.132-3.503-49.431-3.503s-49.429 1.568-49.429 3.503 22.13 3.502 49.429 3.502 49.431-1.568 49.431-3.502zm184.722-19.736c0-1.805-16.845-3.268-37.603-3.268-20.759 0-37.604 1.463-37.604 3.268s16.845 3.266 37.604 3.266c20.758 0 37.603-1.461 37.603-3.266z" fill="#e9edf7"/><path d="m313.604 55.016c1.794 28.955 5.735 55.063 8.355 55.063 6.832 0 2.928-35.978 8.668-35.978h94.58c-.59-6.031-1.109-12.485-1.519-19.085z" fill="#e9edf7"/><path d="m330.636 74.1021c-5.739 0-1.836 35.9769-8.667 35.9769h18.014c-2.148-20.251-5.447-35.9769-9.347-35.9769z" fill="#bbc0e6"/><path d="m440.721 74.1021h-110.088c3.903 0 7.202 15.7259 9.35 35.9769 1.788 16.858 2.78 36.851 2.656 53.519 0 12.815 7.316 47.226 13.905 0h96.187c.267-36.693-4.863-89.4959-12.01-89.4959z" fill="#f6f6fb"/><path d="m459.682 163.597h-103.138c-2.462 17.628-5.023 23.881-7.267 24.127v.009h110.405v-.084c2.168-.785 4.606-7.244 6.952-24.052zm-107.693-9.464c.012.764.021 1.521.028 2.277h81.417c-.008-.754-.018-1.515-.03-2.277zm-.144-6.433c.022.763.043 1.522.061 2.279h92.5c-.02-.757-.04-1.516-.061-2.279zm-.227-6.432c.031.761.061 1.52.091 2.278h92.499c-.029-.758-.059-1.517-.09-2.278zm-.306-6.431c.041.759.081 1.518.119 2.277h92.498c-.037-.759-.076-1.518-.117-2.277zm9.442-51.458c.188.724.374 1.484.558 2.278h76.813c-.183-.795-.369-1.555-.558-2.278zm-13.146 12.865c.116.745.228 1.505.34 2.277h92.5c-.111-.773-.225-1.531-.34-2.277zm-1.103-6.433c.143.737.281 1.501.419 2.279h92.498c-.136-.78-.276-1.54-.419-2.279zm2.008 12.865c.095.748.189 1.51.283 2.277h92.499c-.093-.768-.188-1.526-.284-2.277zm.759 6.431c.034.325.07.645.104.971.046.431.09.873.134 1.308h92.502c-.08-.766-.16-1.525-.242-2.279zm1.657 19.298c.049.756.097 1.515.145 2.276h92.5c-.046-.761-.093-1.52-.143-2.276zm-.464-6.433c.059.757.117 1.515.17 2.277h92.501c-.056-.762-.113-1.521-.17-2.277zm-.55-6.432c.07.755.139 1.515.206 2.278h92.5c-.067-.764-.135-1.524-.204-2.278zm-25.756-44.808h91.243c-.327-3.571-.627-7.262-.892-11.029h-91.242c.265 3.765.563 7.46.891 11.029z" fill="#dde2f8"/><path d="m331.456 174.961h-49.451c-1.125.002-2.204.415-2.999 1.148-.796.733-1.244 1.727-1.246 2.764v10.593c0 .762 12.979 1.39 28.973 1.39 15.995 0 28.972-.628 28.972-1.387v-10.592c-.001-1.039-.449-2.034-1.246-2.768-.796-.734-1.876-1.147-3.003-1.148z" fill="#bbc0e6"/><path d="m277.76 178.873v10.593c0 .435 4.172.822 10.701 1.076v-11.669c.002-1.037.45-2.031 1.246-2.764.795-.733 1.874-1.146 2.999-1.148h-10.701c-1.125.002-2.204.415-2.999 1.148-.796.733-1.244 1.727-1.246 2.764z" fill="#dde2f8"/><path d="m335.704 178.873v10.593c0 .435-4.173.822-10.702 1.076v-11.669c-.002-1.038-.452-2.033-1.249-2.767-.798-.733-1.878-1.145-3.005-1.145h10.703c1.126 0 2.207.412 3.005 1.145.797.734 1.246 1.729 1.248 2.767z" fill="#a3a9d0"/><path d="m283.626 171.047v3.92c0 .612 10.344 1.098 23.103 1.098 12.76 0 23.104-.494 23.104-1.098v-3.92z" fill="#5652cc"/><path d="m294.706 175.9v-4.861h-11.08v3.92c0 .397 4.436.748 11.08.941z" fill="#6b67e9"/><path d="m318.755 175.9v-4.861h11.08v3.92c0 .397-4.436.748-11.08.941z" fill="#423eaf"/><path d="m283.626 171.051c0-.61 10.344-1.098 23.103-1.098 12.76 0 23.104.496 23.104 1.098s-10.344 1.098-23.104 1.098c-12.759 0-23.103-.487-23.103-1.098z" fill="#807dfb"/><path d="m258.203 157.016-8.618-1.443c-.213-.036-.433-.019-.637.048s-.385.183-.524.335c-.14.153-.234.336-.273.533-.038.196-.02.399.054.586l2.956 7.6c.072.187.198.354.363.483s.364.215.576.251c.213.036.432.019.636-.048.204-.068.384-.183.524-.335l5.659-6.16c.14-.152.234-.335.273-.53.038-.196.02-.398-.052-.585-.073-.188-.197-.354-.362-.483-.164-.129-.363-.216-.575-.252z" fill="#807dfb"/></svg>