<svg fill="none" height="92" viewBox="0 0 491 92" width="491" xmlns="http://www.w3.org/2000/svg"><g fill="#fff"><path d="m81.7388 33.136c-.192.128-.4534.272-.784.432-.3307.16-.72.2933-1.168.4-.4374.1067-.9174.16-1.44.16-.896-.0107-1.7067-.1707-2.432-.48-.7147-.3093-1.3227-.7307-1.824-1.264-.5014-.5333-.8907-1.1467-1.168-1.84-.2667-.704-.4-1.4507-.4-2.24 0-.864.1386-1.6587.416-2.384.288-.736.688-1.3707 1.2-1.904.512-.544 1.1146-.9653 1.808-1.264.704-.2987 1.472-.448 2.304-.448.6933 0 1.3226.096 1.888.288.5653.1813 1.0506.4 1.456.656l-.624 1.44c-.32-.2133-.7094-.416-1.168-.608-.448-.192-.9494-.288-1.504-.288-.5654 0-1.0987.112-1.6.336-.5014.224-.944.5387-1.328.944s-.688.88-.912 1.424c-.2134.5333-.32 1.1093-.32 1.728 0 .6293.096 1.216.288 1.76.2026.5333.4853.9973.848 1.392.3733.3947.8213.704 1.344.928.5226.224 1.1093.336 1.76.336.5866 0 1.1093-.0907 1.568-.272.4586-.1813.8373-.384 1.136-.608zm3.0453-3.232c0 .5227.1227.992.368 1.408.256.4053.592.7253 1.008.96s.8854.352 1.408.352c.544 0 1.0294-.1173 1.456-.352.4267-.2347.7627-.5547 1.008-.96.2454-.416.368-.8853.368-1.408v-7.472h1.52v7.52c0 .8427-.1973 1.5787-.592 2.208-.384.6293-.9066 1.1147-1.568 1.456-.6506.3413-1.3813.512-2.192.512-.8106 0-1.5413-.1707-2.192-.512-.6506-.3413-1.168-.8267-1.552-1.456s-.576-1.3653-.576-2.208v-7.52h1.536zm15.3349-5.408c-.3944-.2027-.8264-.3787-1.2957-.528-.4694-.1493-.928-.224-1.376-.224-.6187 0-1.1147.144-1.488.432-.3627.288-.544.672-.544 1.152 0 .3627.1173.672.352.928.2346.2453.544.4587.928.64s.784.352 1.2.512c.3626.1387.72.2933 1.072.464s.6666.384.944.64c.2877.256.5117.5707.6717.944.171.3733.256.8373.256 1.392 0 .608-.154 1.1627-.464 1.664-.298.5013-.7304.896-1.2957 1.184-.5654.288-1.2374.432-2.016.432-.512 0-1.0027-.0587-1.472-.176-.4587-.1173-.8854-.2667-1.28-.448-.3947-.192-.7467-.3893-1.056-.592l.688-1.216c.256.1813.5493.3573.88.528.3306.16.6773.2933 1.04.4.3626.096.7146.144 1.056.144.3626 0 .72-.064 1.072-.192.3626-.1387.6613-.3467.896-.624.2346-.2773.352-.6453.352-1.104 0-.3947-.1067-.72-.32-.976-.2027-.2667-.4747-.4907-.816-.672-.3414-.192-.704-.3627-1.088-.512-.3627-.1387-.7307-.288-1.104-.448-.3734-.1707-.72-.3733-1.04-.608-.32-.2453-.576-.544-.768-.896s-.288-.7787-.288-1.28c0-.608.144-1.136.432-1.584.2986-.4587.704-.816 1.216-1.072.512-.2667 1.0986-.4107 1.76-.432.7466 0 1.4026.0907 1.968.272.576.1813 1.0827.4053 1.5197.672zm1.443-2.064h7.68v1.488h-3.104v10.08h-1.552v-10.08h-3.024zm7.98 5.792c0-.8.149-1.552.448-2.256.309-.7147.736-1.344 1.28-1.888.544-.5547 1.168-.9867 1.872-1.296.715-.32 1.483-.48 2.304-.48.811 0 1.568.16 2.272.48.715.3093 1.344.7413 1.888 1.296.555.544.987 1.1733 1.296 1.888.309.704.464 1.456.464 2.256 0 .8213-.155 1.5893-.464 2.304s-.741 1.344-1.296 1.888c-.544.5333-1.173.9547-1.888 1.264-.704.2987-1.461.448-2.272.448-.821 0-1.589-.1493-2.304-.448-.704-.2987-1.328-.7147-1.872-1.248s-.971-1.1573-1.28-1.872c-.299-.7147-.448-1.4933-.448-2.336zm1.6.016c0 .608.112 1.1787.336 1.712.224.5227.533.9867.928 1.392s.853.7253 1.376.96c.523.224 1.088.336 1.696.336.597 0 1.157-.112 1.68-.336.523-.2347.976-.5547 1.36-.96s.688-.8693.912-1.392c.224-.5333.336-1.1093.336-1.728 0-.608-.112-1.1787-.336-1.712-.224-.544-.533-1.0187-.928-1.424s-.853-.72-1.376-.944c-.523-.2347-1.083-.352-1.68-.352-.608 0-1.173.1173-1.696.352s-.981.5547-1.376.96-.699.88-.912 1.424c-.213.5333-.32 1.104-.32 1.712zm11.879 5.76v-11.568h3.152c1.141 0 2.112.176 2.912.528.811.352 1.461.816 1.952 1.392s.848 1.216 1.072 1.92c.235.6933.352 1.3867.352 2.08 0 .8747-.155 1.6587-.464 2.352-.299.6933-.715 1.2853-1.248 1.776s-1.147.8693-1.84 1.136c-.683.256-1.408.384-2.176.384zm1.552-1.488h1.856c.64 0 1.227-.096 1.76-.288.544-.192 1.013-.4693 1.408-.832.405-.3627.72-.8053.944-1.328.224-.5333.336-1.136.336-1.808 0-.7147-.117-1.3387-.352-1.872-.235-.544-.555-.9973-.96-1.36s-.864-.6347-1.376-.816c-.512-.192-1.051-.288-1.616-.288h-2zm9.535-10.08h1.552v11.568h-1.552zm2.763 11.568 5.056-12.048h.096l5.04 12.048h-1.776l-3.776-9.616 1.104-.72-4.224 10.336zm2.96-4.384h4.304l.512 1.344h-5.264zm18.466 4.752-8.944-9.072.448.112.032 8.592h-1.552v-11.92h.08l8.848 9.104-.368-.08-.032-8.672h1.536v11.936zm5.798-6.144c0-.8.149-1.552.448-2.256.309-.7147.736-1.344 1.28-1.888.544-.5547 1.168-.9867 1.872-1.296.714-.32 1.482-.48 2.304-.48.81 0 1.568.16 2.272.48.714.3093 1.344.7413 1.888 1.296.554.544.986 1.1733 1.296 1.888.309.704.464 1.456.464 2.256 0 .8213-.155 1.5893-.464 2.304-.31.7147-.742 1.344-1.296 1.888-.544.5333-1.174.9547-1.888 1.264-.704.2987-1.462.448-2.272.448-.822 0-1.59-.1493-2.304-.448-.704-.2987-1.328-.7147-1.872-1.248s-.971-1.1573-1.28-1.872c-.299-.7147-.448-1.4933-.448-2.336zm1.6.016c0 .608.112 1.1787.336 1.712.224.5227.533.9867.928 1.392.394.4053.853.7253 1.376.96.522.224 1.088.336 1.696.336.597 0 1.157-.112 1.68-.336.522-.2347.976-.5547 1.36-.96s.688-.8693.912-1.392c.224-.5333.336-1.1093.336-1.728 0-.608-.112-1.1787-.336-1.712-.224-.544-.534-1.0187-.928-1.424-.395-.4053-.854-.72-1.376-.944-.523-.2347-1.083-.352-1.68-.352-.608 0-1.174.1173-1.696.352-.523.2347-.982.5547-1.376.96-.395.4053-.699.88-.912 1.424-.214.5333-.32 1.104-.32 1.712zm11.878-5.808h6.864v1.488h-5.312v3.696h4.656v1.472h-4.656v4.912h-1.552zm11.717 0h7.68v1.488h-3.104v10.08h-1.552v-10.08h-3.024zm18.337 0v11.568h-1.536v-5.072h-6.064v5.072h-1.552v-11.568h1.552v5.024h6.064v-5.024zm2.372 0h7.52v1.488h-5.968v3.52h5.328v1.488h-5.328v3.584h6.192v1.488h-7.744zm12.732 0h7.68v1.488h-3.104v10.08h-1.552v-10.08h-3.024zm8.177.064h1.792l3.136 8.832-.272-.112 2.288-5.92.72 2.096-3.056 7.136zm5.552 0h1.552l3.392 8.704-.32-.064 2.992-8.64h1.648l-4.544 12.016zm9.057 5.728c0-.8.149-1.552.448-2.256.309-.7147.736-1.344 1.28-1.888.544-.5547 1.168-.9867 1.872-1.296.715-.32 1.483-.48 2.304-.48.811 0 1.568.16 2.272.48.715.3093 1.344.7413 1.888 1.296.555.544.987 1.1733 1.296 1.888.309.704.464 1.456.464 2.256 0 .8213-.155 1.5893-.464 2.304s-.741 1.344-1.296 1.888c-.544.5333-1.173.9547-1.888 1.264-.704.2987-1.461.448-2.272.448-.821 0-1.589-.1493-2.304-.448-.704-.2987-1.328-.7147-1.872-1.248s-.971-1.1573-1.28-1.872c-.299-.7147-.448-1.4933-.448-2.336zm1.6.016c0 .608.112 1.1787.336 1.712.224.5227.533.9867.928 1.392s.853.7253 1.376.96c.523.224 1.088.336 1.696.336.597 0 1.157-.112 1.68-.336.523-.2347.976-.5547 1.36-.96s.688-.8693.912-1.392c.224-.5333.336-1.1093.336-1.728 0-.608-.112-1.1787-.336-1.712-.224-.544-.533-1.0187-.928-1.424s-.853-.72-1.376-.944c-.523-.2347-1.083-.352-1.68-.352-.608 0-1.173.1173-1.696.352s-.981.5547-1.376.96-.699.88-.912 1.424c-.213.5333-.32 1.104-.32 1.712zm25.133-5.808v11.568h-1.536v-5.072h-6.064v5.072h-1.552v-11.568h1.552v5.024h6.064v-5.024zm1.653 5.792c0-.8.149-1.552.448-2.256.309-.7147.736-1.344 1.28-1.888.544-.5547 1.168-.9867 1.872-1.296.714-.32 1.482-.48 2.304-.48.81 0 1.568.16 2.272.48.714.3093 1.344.7413 1.888 1.296.554.544.986 1.1733 1.296 1.888.309.704.464 1.456.464 2.256 0 .8213-.155 1.5893-.464 2.304-.31.7147-.742 1.344-1.296 1.888-.544.5333-1.174.9547-1.888 1.264-.704.2987-1.462.448-2.272.448-.822 0-1.59-.1493-2.304-.448-.704-.2987-1.328-.7147-1.872-1.248s-.971-1.1573-1.28-1.872c-.299-.7147-.448-1.4933-.448-2.336zm1.6.016c0 .608.112 1.1787.336 1.712.224.5227.533.9867.928 1.392.394.4053.853.7253 1.376.96.522.224 1.088.336 1.696.336.597 0 1.157-.112 1.68-.336.522-.2347.976-.5547 1.36-.96s.688-.8693.912-1.392c.224-.5333.336-1.1093.336-1.728 0-.608-.112-1.1787-.336-1.712-.224-.544-.534-1.0187-.928-1.424-.395-.4053-.854-.72-1.376-.944-.523-.2347-1.083-.352-1.68-.352-.608 0-1.174.1173-1.696.352-.523.2347-.982.5547-1.376.96-.395.4053-.699.88-.912 1.424-.214.5333-.32 1.104-.32 1.712zm11.878-5.808h1.552v10.08h5.872v1.488h-7.424zm10.831 7.712-4.288-7.712h1.904l3.44 6.384-.48.032 3.408-6.416h1.888l-4.32 7.712v3.856h-1.552zm11.133 3.856v-11.936h.016l6.064 8.608-.656-.128 6.048-8.48h.032v11.936h-1.536v-8.416l.096.784-4.368 6.176h-.032l-4.432-6.176.272-.72v8.352zm13.148-5.776c0-.8.15-1.552.448-2.256.31-.7147.736-1.344 1.28-1.888.544-.5547 1.168-.9867 1.872-1.296.715-.32 1.483-.48 2.304-.48.811 0 1.568.16 2.272.48.715.3093 1.344.7413 1.888 1.296.555.544.987 1.1733 1.296 1.888.31.704.464 1.456.464 2.256 0 .8213-.154 1.5893-.464 2.304-.309.7147-.741 1.344-1.296 1.888-.544.5333-1.173.9547-1.888 1.264-.704.2987-1.461.448-2.272.448-.821 0-1.589-.1493-2.304-.448-.704-.2987-1.328-.7147-1.872-1.248s-.97-1.1573-1.28-1.872c-.298-.7147-.448-1.4933-.448-2.336zm1.6.016c0 .608.112 1.1787.336 1.712.224.5227.534.9867.928 1.392.395.4053.854.7253 1.376.96.523.224 1.088.336 1.696.336.598 0 1.158-.112 1.68-.336.523-.2347.976-.5547 1.36-.96s.688-.8693.912-1.392c.224-.5333.336-1.1093.336-1.728 0-.608-.112-1.1787-.336-1.712-.224-.544-.533-1.0187-.928-1.424-.394-.4053-.853-.72-1.376-.944-.522-.2347-1.082-.352-1.68-.352-.608 0-1.173.1173-1.696.352-.522.2347-.981.5547-1.376.96-.394.4053-.698.88-.912 1.424-.213.5333-.32 1.104-.32 1.712zm17.863-3.744c-.395-.2027-.827-.3787-1.296-.528s-.928-.224-1.376-.224c-.619 0-1.115.144-1.488.432-.363.288-.544.672-.544 1.152 0 .3627.117.672.352.928.235.2453.544.4587.928.64s.784.352 1.2.512c.363.1387.72.2933 1.072.464s.667.384.944.64c.288.256.512.5707.672.944.171.3733.256.8373.256 1.392 0 .608-.155 1.1627-.464 1.664-.299.5013-.731.896-1.296 1.184s-1.237.432-2.016.432c-.512 0-1.003-.0587-1.472-.176-.459-.1173-.885-.2667-1.28-.448-.395-.192-.747-.3893-1.056-.592l.688-1.216c.256.1813.549.3573.88.528.331.16.677.2933 1.04.4.363.096.715.144 1.056.144.363 0 .72-.064 1.072-.192.363-.1387.661-.3467.896-.624s.352-.6453.352-1.104c0-.3947-.107-.72-.32-.976-.203-.2667-.475-.4907-.816-.672-.341-.192-.704-.3627-1.088-.512-.363-.1387-.731-.288-1.104-.448-.373-.1707-.72-.3733-1.04-.608-.32-.2453-.576-.544-.768-.896s-.288-.7787-.288-1.28c0-.608.144-1.136.432-1.584.299-.4587.704-.816 1.216-1.072.512-.2667 1.099-.4107 1.76-.432.747 0 1.403.0907 1.968.272.576.1813 1.083.4053 1.52.672zm9.985 8h3.968v1.504h-6.032zm-8.336-4.272c0-.8.149-1.552.448-2.256.309-.7147.736-1.344 1.28-1.888.544-.5547 1.168-.9867 1.872-1.296.714-.32 1.482-.48 2.304-.48.81 0 1.568.16 2.272.48.714.3093 1.344.7413 1.888 1.296.554.544.986 1.1733 1.296 1.888.309.704.464 1.456.464 2.256 0 .8213-.155 1.5893-.464 2.304-.31.7147-.742 1.344-1.296 1.888-.544.5333-1.174.9547-1.888 1.264-.704.2987-1.462.448-2.272.448-.822 0-1.59-.1493-2.304-.448-.704-.2987-1.328-.7147-1.872-1.248s-.971-1.1573-1.28-1.872c-.299-.7147-.448-1.4933-.448-2.336zm1.6.016c0 .608.112 1.1787.336 1.712.224.5227.533.9867.928 1.392.394.4053.853.72 1.376.944.522.224 1.088.336 1.696.336.597 0 1.157-.112 1.68-.336.522-.224.976-.5387 1.36-.944s.688-.8693.912-1.392c.224-.5333.336-1.1093.336-1.728 0-.5973-.112-1.1627-.336-1.696s-.534-.9973-.928-1.392c-.395-.4053-.854-.72-1.376-.944-.523-.2347-1.083-.352-1.68-.352-.608 0-1.174.1173-1.696.352-.523.224-.982.5387-1.376.944-.395.4053-.699.8747-.912 1.408-.214.5333-.32 1.0987-.32 1.696zm13.739 1.664c0 .5227.123.992.368 1.408.256.4053.592.7253 1.008.96s.885.352 1.408.352c.544 0 1.029-.1173 1.456-.352s.763-.5547 1.008-.96c.245-.416.368-.8853.368-1.408v-7.472h1.52v7.52c0 .8427-.197 1.5787-.592 2.208-.384.6293-.907 1.1147-1.568 1.456-.651.3413-1.381.512-2.192.512s-1.541-.1707-2.192-.512-1.168-.8267-1.552-1.456-.576-1.3653-.576-2.208v-7.52h1.536zm9.351-7.472h7.52v1.488h-5.968v3.52h5.328v1.488h-5.328v3.584h6.192v1.488h-7.744zm15.462 2.064c-.395-.2027-.827-.3787-1.296-.528-.47-.1493-.928-.224-1.376-.224-.619 0-1.115.144-1.488.432-.363.288-.544.672-.544 1.152 0 .3627.117.672.352.928.234.2453.544.4587.928.64s.784.352 1.2.512c.362.1387.72.2933 1.072.464s.666.384.944.64c.288.256.512.5707.672.944.17.3733.256.8373.256 1.392 0 .608-.155 1.1627-.464 1.664-.299.5013-.731.896-1.296 1.184-.566.288-1.238.432-2.016.432-.512 0-1.003-.0587-1.472-.176-.459-.1173-.886-.2667-1.28-.448-.395-.192-.747-.3893-1.056-.592l.688-1.216c.256.1813.549.3573.88.528.33.16.677.2933 1.04.4.362.096.714.144 1.056.144.362 0 .72-.064 1.072-.192.362-.1387.661-.3467.896-.624.234-.2773.352-.6453.352-1.104 0-.3947-.107-.72-.32-.976-.203-.2667-.475-.4907-.816-.672-.342-.192-.704-.3627-1.088-.512-.363-.1387-.731-.288-1.104-.448-.374-.1707-.72-.3733-1.04-.608-.32-.2453-.576-.544-.768-.896s-.288-.7787-.288-1.28c0-.608.144-1.136.432-1.584.298-.4587.704-.816 1.216-1.072.512-.2667 1.098-.4107 1.76-.432.746 0 1.402.0907 1.968.272.576.1813 1.082.4053 1.52.672z"/><path d="m2.71626 82v-.888l3.293-.74v-24.9565l-3.293-.703v-.888h10.69304v.888l-3.2375.703v12.8205l10.138-11.322c.2096-.2097.3576-.407.444-.592.0986-.1973.148-.37.148-.518 0-.3207-.2467-.5673-.74-.74-.481-.1727-1.2519-.2898-2.3125-.3515v-.888h9.7865v.888c-1.1224.185-2.0042.37-2.6455.555-.629.1727-1.1409.3885-1.5355.6475-.3947.259-.7894.6167-1.184 1.073l-7.141 8.103 11.6735 15.281 3.959.74v.888h-8.1955l-10.2305-13.7455-2.1645 2.4605v9.657l3.2375.74v.888zm24.20984 0v-.814l2.812-.5735v-15.0775l-2.7565-.9805v-.5735l6.142-1.7575h.407v18.389l2.775.5735v.814zm4.6805-23.6615c-.7523 0-1.3505-.2405-1.7945-.7215s-.666-1.0422-.666-1.6835c0-.703.222-1.295.666-1.776s1.0422-.7215 1.7945-.7215c.7647 0 1.369.2405 1.813.7215.4563.481.6845 1.073.6845 1.776 0 .6413-.2282 1.2025-.6845 1.6835-.444.481-1.0483.7215-1.813.7215zm14.5849 23.6615v-.814l2.701-.5365v-11.877c0-1.4677-.296-2.5592-.888-3.2745-.592-.7277-1.5478-1.0915-2.8675-1.0915-1.9363 0-3.5458.8818-4.8285 2.6455v-1.5355c1.036-1.036 2.1707-1.8438 3.404-2.4235 1.2334-.5797 2.4605-.8695 3.6815-.8695 3.515 0 5.2725 1.6588 5.2725 4.9765v13.4495l2.738.5365v.814zm-12.0435 0v-.814l2.775-.5735v-15.0405l-2.738-1.0175v-.5365l5.92-1.7945h.407v3.2745l.185.185v14.9295l2.7195.5735v.814zm31.5417-18.4075c.2096-.6043.4871-1.221.8325-1.85.3453-.6413.777-1.184 1.295-1.628s1.1285-.666 1.8315-.666c.5796 0 1.0853.1665 1.517.4995.4316.333.6475.7893.6475 1.369 0 .4933-.1665.9188-.4995 1.2765-.333.3453-.7462.518-1.2395.518-.3577 0-.6229-.0802-.7955-.2405-.1727-.1603-.333-.3207-.481-.481-.1357-.1603-.3577-.2405-.666-.2405-.333 0-.6352.2158-.9065.6475-.2714.4193-.4625.9003-.5735 1.443zm-3.9775 10.989c.9373 0 1.665-.3022 2.183-.9065.5303-.6043.9003-1.3505 1.11-2.2385.2096-.9003.3145-1.7698.3145-2.6085 0-.5303-.0494-1.1038-.148-1.7205-.0864-.629-.2529-1.221-.4995-1.776-.2344-.5673-.5797-1.0298-1.036-1.3875-.444-.37-1.0175-.555-1.7205-.555-.74 0-1.3444.1973-1.813.592-.4687.3823-.8325.8818-1.0915 1.4985-.259.6043-.4379 1.2395-.5365 1.9055-.0987.666-.148 1.2765-.148 1.8315 0 .703.0863 1.4738.259 2.3125.1726.8263.4995 1.5417.9805 2.146.4933.6043 1.2086.9065 2.146.9065zm.0185 1.221c-1.3074 0-2.3064.1542-2.997.4625-.6907.296-1.036.7585-1.036 1.3875 0 .444.3083.814.925 1.11.629.2837 1.8438.5612 3.6445.8325l2.6455.4625c2.146.333 3.7246.9003 4.736 1.702 1.0236.7893 1.5355 1.8623 1.5355 3.219 0 1.1223-.3145 2.0967-.9435 2.923s-1.4739 1.5047-2.5345 2.035c-1.0484.5427-2.22.9435-3.515 1.2025s-2.6085.3885-3.9405.3885c-.9744 0-1.9302-.0925-2.8675-.2775-.9374-.1727-1.7884-.4502-2.553-.8325-.7524-.3823-1.3567-.8757-1.813-1.48-.4564-.6043-.6845-1.3382-.6845-2.2015 0-1.0113.3761-1.924 1.1285-2.738.7523-.8017 2.0473-1.5725 3.885-2.3125l1.1285.4625c-.9374.3577-1.6712.9127-2.2015 1.665-.5304.7647-.7955 1.5848-.7955 2.4605 0 .9003.2528 1.6403.7585 2.22.5056.592 1.1778 1.0298 2.0165 1.3135.851.296 1.7698.444 2.7565.444 1.1963 0 2.3371-.1357 3.4225-.407 1.0976-.2713 1.9918-.6907 2.6825-1.258.703-.5673 1.0545-1.295 1.0545-2.183 0-.4563-.148-.8695-.444-1.2395s-.8695-.7215-1.7205-1.0545c-.8387-.3207-2.0782-.6352-3.7185-.9435l-3.0525-.5735c-1.6157-.3083-2.8305-.7893-3.6445-1.443-.8017-.6537-1.2025-1.4368-1.2025-2.3495 0-.4193.1295-.8695.3885-1.3505.2713-.481.7893-.9312 1.554-1.3505.7646-.4317 1.8931-.7523 3.3855-.962zm0 0c-1.443 0-2.7195-.2775-3.8295-.8325-1.11-.5673-1.9795-1.3567-2.6085-2.368-.629-1.0237-.9435-2.2138-.9435-3.5705 0-1.3073.3206-2.4728.962-3.4965.6536-1.0237 1.5416-1.8315 2.664-2.4235 1.1223-.592 2.3926-.888 3.811-.888 1.406 0 2.6763.2898 3.811.8695 1.1346.5673 2.035 1.3567 2.701 2.368s.999 2.1645.999 3.4595c0 1.221-.3145 2.3557-.9435 3.404-.629 1.036-1.5109 1.8747-2.6455 2.516-1.1347.6413-2.4605.962-3.9775.962zm22.753 6.5305c-1.0114 0-1.998-.148-2.96-.444-.9497-.296-1.9549-.7585-3.0155-1.3875l-1.4615 1.4985h-.7585l-.6845-9.3795.999-.2035c.74 2.8983 1.7143 5.0012 2.923 6.3085 1.221 1.3073 2.8305 1.961 4.8285 1.961 1.6773 0 3.0031-.4008 3.9775-1.2025.9743-.814 1.4615-1.9117 1.4615-3.293 0-1.0853-.3392-2.0535-1.0175-2.9045-.666-.8633-1.7637-1.7267-3.293-2.59l-2.8305-1.4985c-2.3064-1.2457-3.959-2.4852-4.958-3.7185s-1.4985-2.6702-1.4985-4.3105c0-1.48.3638-2.7997 1.0915-3.959.7276-1.1717 1.7205-2.0905 2.9785-2.7565 1.2703-.6783 2.6948-1.0175 4.2735-1.0175 2.1583 0 4.0391.7585 5.6425 2.2755l1.1285-1.924h.7955l.333 8.0845h-1.0545c-.5797-2.3063-1.4184-4.0083-2.516-5.106-1.0854-1.11-2.4729-1.665-4.1625-1.665-1.369 0-2.4544.3638-3.256 1.0915-.7894.7277-1.184 1.7267-1.184 2.997 0 1.147.3761 2.1707 1.1285 3.071.7646.9003 2.0473 1.8253 3.848 2.775l2.7565 1.48c1.887.999 3.2498 2.109 4.0885 3.33.851 1.221 1.2765 2.6208 1.2765 4.1995 0 1.5663-.3947 2.9785-1.184 4.2365-.777 1.2457-1.8377 2.2323-3.182 2.96-1.332.7277-2.8367 1.0915-4.514 1.0915zm12.9407.0555c-1.3197 0-2.3927-.4132-3.219-1.2395-.814-.8263-1.221-1.8993-1.221-3.219 0-1.0853.333-2.0227.999-2.812s1.739-1.48 3.219-2.072c1.4923-.6043 3.4596-1.1532 5.9016-1.6465v-3.4595c0-1.5663-.216-2.664-.648-3.293-.419-.629-1.147-.9435-2.183-.9435-1.0233 0-1.8373.2467-2.4416.74s-.9065 1.1593-.9065 1.998c0 .2343.0123.4687.037.703.037.222.0555.4378.0555.6475 0 .629-.1912 1.147-.5735 1.554-.37.407-.8448.6105-1.4245.6105-.5303 0-.962-.1727-1.295-.518-.3207-.3453-.481-.7955-.481-1.3505 0-.8017.3453-1.6218 1.036-2.4605.703-.851 1.628-1.5787 2.775-2.183 1.5293-.814 3.1886-1.221 4.9766-1.221 1.073 0 1.979.1665 2.719.4995.753.333 1.295.8078 1.628 1.4245.198.4193.327.9497.389 1.591.074.6413.111 1.7143.111 3.219v8.2695c0 1.1963.092 2.0103.277 2.442.198.4317.562.6475 1.092.6475.604 0 1.19-.3453 1.757-1.036l.666.629c-.604.8757-1.221 1.5108-1.85 1.9055-.616.3823-1.338.5735-2.164.5735-.999 0-1.776-.2713-2.331-.814s-.925-1.369-1.11-2.479h-.111c-.703 1.0113-1.554 1.813-2.553 2.405-.9991.592-2.0413.888-3.1266.888zm1.85-2.3495c.7646 0 1.4796-.1973 2.1456-.592.666-.407 1.228-.9682 1.684-1.6835v-5.217c-1.653.3207-2.954.6722-3.9036 1.0545-.9373.3823-1.6033.851-1.998 1.406-.3823.5427-.5735 1.2272-.5735 2.0535 0 .9497.222 1.6835.666 2.2015.4563.518 1.1162.777 1.9795.777zm8.2266 1.961v-.814l2.812-.5735v-25.715l-2.775-.9805v-.5735l6.161-1.739h.388v29.008l2.775.5735v.814zm7.229 0v-.814l2.757-.5735v-15.0405l-2.72-1.0175v-.5365l5.846-1.7945h.481v3.2005l.185.185v15.0035l2.72.5735v.814zm11.692 0v-.814l2.738-.5365v-11.3035c0-1.7513-.277-3.0093-.832-3.774-.543-.777-1.419-1.1655-2.627-1.1655-.938 0-1.832.2343-2.683.703-.839.4563-1.572 1.1162-2.201 1.9795v-1.554c1.036-1.0483 2.176-1.8623 3.422-2.442 1.258-.5797 2.491-.8695 3.7-.8695 1.69 0 2.942.444 3.756 1.332.814.8757 1.221 2.2447 1.221 4.107v12.987l2.738.5365v.814zm11.655 0v-.814l2.72-.5365v-11.4145c0-1.7513-.266-2.9908-.796-3.7185-.518-.74-1.4-1.11-2.645-1.11-.999 0-1.912.2343-2.738.703-.814.4563-1.53 1.1162-2.146 1.9795v-1.554c.949-1.0977 2.065-1.924 3.348-2.479s2.578-.8325 3.885-.8325c1.653 0 2.861.4502 3.626 1.3505s1.172 2.3187 1.221 4.255v12.8205l2.738.5365v.814zm12.068.3885c-1.32 0-2.393-.4132-3.219-1.2395-.814-.8263-1.221-1.8993-1.221-3.219 0-1.0853.333-2.0227.999-2.812s1.739-1.48 3.219-2.072c1.492-.6043 3.46-1.1532 5.902-1.6465v-3.4595c0-1.5663-.216-2.664-.648-3.293-.419-.629-1.147-.9435-2.183-.9435-1.024 0-1.838.2467-2.442.74s-.906 1.1593-.906 1.998c0 .2343.012.4687.037.703.037.222.055.4378.055.6475 0 .629-.191 1.147-.573 1.554-.37.407-.845.6105-1.425.6105-.53 0-.962-.1727-1.295-.518-.321-.3453-.481-.7955-.481-1.3505 0-.8017.345-1.6218 1.036-2.4605.703-.851 1.628-1.5787 2.775-2.183 1.529-.814 3.188-1.221 4.977-1.221 1.073 0 1.979.1665 2.719.4995.752.333 1.295.8078 1.628 1.4245.197.4193.327.9497.389 1.591.074.6413.111 1.7143.111 3.219v8.2695c0 1.1963.092 2.0103.277 2.442.197.4317.561.6475 1.092.6475.604 0 1.19-.3453 1.757-1.036l.666.629c-.604.8757-1.221 1.5108-1.85 1.9055-.617.3823-1.338.5735-2.164.5735-.999 0-1.776-.2713-2.331-.814s-.925-1.369-1.11-2.479h-.111c-.703 1.0113-1.554 1.813-2.553 2.405s-2.042.888-3.127.888zm1.85-2.3495c.765 0 1.48-.1973 2.146-.592.666-.407 1.227-.9682 1.684-1.6835v-5.217c-1.653.3207-2.954.6722-3.904 1.0545-.937.3823-1.603.851-1.998 1.406-.382.5427-.573 1.2272-.573 2.0535 0 .9497.222 1.6835.666 2.2015.456.518 1.116.777 1.979.777zm20.585 1.961v-.814l2.701-.5365v-11.877c0-1.4677-.296-2.5592-.888-3.2745-.592-.7277-1.548-1.0915-2.868-1.0915-1.936 0-3.546.8818-4.828 2.6455v-1.5355c1.036-1.036 2.17-1.8438 3.404-2.4235 1.233-.5797 2.46-.8695 3.681-.8695 3.515 0 5.273 1.6588 5.273 4.9765v13.4495l2.738.5365v.814zm-12.044 0v-.814l2.775-.5735v-15.0405l-2.738-1.0175v-.5365l5.92-1.7945h.407v3.2745l.185.185v14.9295l2.72.5735v.814zm25.496 0v-.888l3.145-.74v-24.938l-3.145-.7215v-.888h11.063c1.702 0 3.114.1233 4.237.37 1.134.2343 2.078.6043 2.83 1.11.876.6043 1.56 1.3752 2.054 2.3125.493.9373.74 1.9487.74 3.034 0 1.5787-.531 2.9107-1.591 3.996-1.049 1.0853-2.559 1.8253-4.533 2.22v.1295c1.48.1603 2.775.5858 3.885 1.2765 1.11.6783 1.967 1.554 2.572 2.627.616 1.073.925 2.2817.925 3.626 0 1.1223-.222 2.1707-.666 3.145s-1.055 1.776-1.832 2.405c-.851.6907-1.893 1.184-3.126 1.48-1.234.296-2.862.444-4.884.444zm10.49-1.4615c2.417 0 4.199-.5118 5.346-1.5355 1.16-1.036 1.739-2.6332 1.739-4.7915 0-2.2077-.598-3.8295-1.794-4.8655-1.197-1.0483-3.065-1.5725-5.606-1.5725h-2.867v10.582c0 .851.222 1.4307.666 1.739.456.296 1.295.444 2.516.444zm-3.182-14.282h2.035c.666 0 1.221-.0062 1.665-.0185.456-.0247.875-.0555 1.258-.0925 1.356-.148 2.399-.6968 3.126-1.6465.728-.962 1.092-2.2632 1.092-3.9035 0-.8757-.111-1.6095-.333-2.2015-.222-.6043-.574-1.1408-1.055-1.6095-.53-.5427-1.171-.9188-1.924-1.1285-.74-.222-1.757-.333-3.052-.333h-2.812zm13.684 15.7435v-.814l2.812-.5735v-15.0775l-2.757-.9805v-.5735l6.142-1.7575h.407v18.389l2.775.5735v.814zm4.68-23.6615c-.752 0-1.35-.2405-1.794-.7215s-.666-1.0422-.666-1.6835c0-.703.222-1.295.666-1.776s1.042-.7215 1.794-.7215c.765 0 1.369.2405 1.813.7215.456.481.685 1.073.685 1.776 0 .6413-.229 1.2025-.685 1.6835-.444.481-1.048.7215-1.813.7215zm14.585 23.6615v-.814l2.701-.5365v-11.877c0-1.4677-.296-2.5592-.888-3.2745-.592-.7277-1.548-1.0915-2.867-1.0915-1.937 0-3.546.8818-4.829 2.6455v-1.5355c1.036-1.036 2.171-1.8438 3.404-2.4235s2.461-.8695 3.682-.8695c3.515 0 5.272 1.6588 5.272 4.9765v13.4495l2.738.5365v.814zm-12.043 0v-.814l2.775-.5735v-15.0405l-2.738-1.0175v-.5365l5.92-1.7945h.407v3.2745l.185.185v14.9295l2.719.5735v.814zm21.424 0v-.888c1.27-.2097 2.226-.4625 2.867-.7585.642-.3083 1.123-.7215 1.443-1.2395.321-.5303.636-1.2272.944-2.0905l7.085-19.5915-1.036-2.3495 3.848-1.998 9.768 25.7705c.21.5673.438.999.685 1.295.259.296.623.5118 1.091.6475.469.1357 1.129.2405 1.98.3145v.888h-12.099v-.888c1.196-.074 2.09-.1603 2.682-.259.592-.111.932-.3515 1.018-.7215.086-.3823-.025-1.0052-.333-1.8685l-6.66-18.2595h-.111l-6.272 17.4455c-.271.7523-.345 1.369-.222 1.85.124.4687.488.8448 1.092 1.1285.604.2713 1.486.4995 2.645.6845v.888zm8.288-10.064v-1.554h10.138v1.554zm26.888 10.4525c-.925 0-1.825-.148-2.701-.444-.875-.3083-1.677-.7277-2.405-1.258h-.203l-1.869 1.3135h-.647v-27.084l-2.72-.999v-.518l6.087-1.7945h.425v13.1165c.777-.8263 1.641-1.4492 2.59-1.8685.95-.4193 1.974-.629 3.071-.629 1.604 0 3.01.3947 4.218 1.184 1.209.777 2.152 1.8623 2.831 3.256.69 1.3813 1.036 2.9908 1.036 4.8285 0 2.0597-.426 3.9158-1.277 5.5685-.851 1.6403-2.01 2.9415-3.478 3.9035-1.467.9497-3.12 1.4245-4.958 1.4245zm-.092-1.369c1.122 0 2.096-.3515 2.923-1.0545.838-.7153 1.486-1.7082 1.942-2.9785.469-1.2827.703-2.7688.703-4.4585 0-2.553-.493-4.5572-1.48-6.0125-.974-1.4553-2.318-2.183-4.033-2.183-.826 0-1.578.1727-2.257.518-.678.3453-1.258.814-1.739 1.406v10.1565c0 1.3813.358 2.4975 1.073 3.3485.716.8387 1.671 1.258 2.868 1.258zm16.743 1.369c-1.455 0-2.763-.4255-3.922-1.2765s-2.078-2.0103-2.757-3.478c-.666-1.48-.999-3.1512-.999-5.0135 0-2.0473.407-3.848 1.221-5.402.814-1.5663 1.949-2.7873 3.404-3.663 1.456-.888 3.139-1.332 5.051-1.332 1.357 0 2.689.2035 3.996.6105v-7.8625l-2.738-1.0545v-.518l6.049-1.7945h.426v27.454l2.534.5735v.444l-5.716 2.3125h-.296v-3.0525l-.167-.0555c-.764 1.0237-1.671 1.8007-2.719 2.331-1.036.518-2.158.777-3.367.777zm1.628-2.442c.913 0 1.757-.1912 2.534-.5735.79-.3823 1.4-.9003 1.832-1.554v-10.286c0-1.3197-.345-2.331-1.036-3.034-.678-.703-1.659-1.0545-2.942-1.0545-1.652 0-2.99.7832-4.014 2.3495-1.011 1.5663-1.517 3.6445-1.517 6.2345 0 2.442.456 4.3722 1.369 5.7905s2.171 2.1275 3.774 2.1275zm16.386 2.442c-1.85 0-3.2-.4255-4.051-1.2765-.851-.8633-1.277-2.109-1.277-3.737v-13.394l-2.738-.5735v-.814h6.512v13.3015c0 1.6157.284 2.7257.851 3.33.58.6043 1.493.9065 2.738.9065.851 0 1.684-.222 2.498-.666s1.566-1.1408 2.257-2.0905v1.48c-.938 1.147-1.992 2.0227-3.164 2.627-1.171.6043-2.38.9065-3.626.9065zm6.66 0v-3.6445l-.203-.074v-14.689l-2.72-.5735v-.814h6.494v16.5945l2.516.888v.4995l-5.772 1.813zm3.986-.3885v-.814l2.812-.5735v-25.715l-2.775-.9805v-.5735l6.16-1.739h.389v29.008l2.775.5735v.814zm12.279.3885c-1.32 0-2.393-.4132-3.219-1.2395-.814-.8263-1.221-1.8993-1.221-3.219 0-1.0853.333-2.0227.999-2.812s1.739-1.48 3.219-2.072c1.492-.6043 3.459-1.1532 5.901-1.6465v-3.4595c0-1.5663-.215-2.664-.647-3.293-.419-.629-1.147-.9435-2.183-.9435-1.024 0-1.838.2467-2.442.74s-.907 1.1593-.907 1.998c0 .2343.013.4687.037.703.037.222.056.4378.056.6475 0 .629-.191 1.147-.574 1.554-.37.407-.844.6105-1.424.6105-.53 0-.962-.1727-1.295-.518-.321-.3453-.481-.7955-.481-1.3505 0-.8017.345-1.6218 1.036-2.4605.703-.851 1.628-1.5787 2.775-2.183 1.529-.814 3.188-1.221 4.976-1.221 1.073 0 1.98.1665 2.72.4995.752.333 1.295.8078 1.628 1.4245.197.4193.327.9497.388 1.591.074.6413.111 1.7143.111 3.219v8.2695c0 1.1963.093 2.0103.278 2.442.197.4317.561.6475 1.091.6475.605 0 1.191-.3453 1.758-1.036l.666.629c-.604.8757-1.221 1.5108-1.85 1.9055-.617.3823-1.338.5735-2.165.5735-.999 0-1.776-.2713-2.331-.814s-.925-1.369-1.11-2.479h-.111c-.703 1.0113-1.554 1.813-2.553 2.405s-2.041.888-3.126.888zm1.85-2.3495c.765 0 1.48-.1973 2.146-.592.666-.407 1.227-.9682 1.683-1.6835v-5.217c-1.652.3207-2.953.6722-3.903 1.0545-.937.3823-1.603.851-1.998 1.406-.382.5427-.574 1.2272-.574 2.0535 0 .9497.222 1.6835.666 2.2015.457.518 1.117.777 1.98.777zm8.819 1.961v-1.036l11.359-17.1125h-7.863c-.617 1.6403-1.061 2.9107-1.332 3.811s-.469 1.6403-.592 2.22l-.851-.0925.463-7.1965h14.948v1.0175l-11.489 17.1495h8.307c.431-1.0607.807-2.1213 1.128-3.182.333-1.0607.574-1.9487.722-2.664l.851.074-.241 7.0115zm14.712 0v-.814l2.812-.5735v-15.0775l-2.757-.9805v-.5735l6.142-1.7575h.407v18.389l2.775.5735v.814zm4.68-23.6615c-.752 0-1.35-.2405-1.794-.7215s-.666-1.0422-.666-1.6835c0-.703.222-1.295.666-1.776s1.042-.7215 1.794-.7215c.765 0 1.369.2405 1.813.7215.457.481.685 1.073.685 1.776 0 .6413-.228 1.2025-.685 1.6835-.444.481-1.048.7215-1.813.7215zm2.819 23.6615v-1.036l11.359-17.1125h-7.862c-.617 1.6403-1.061 2.9107-1.332 3.811-.272.9003-.469 1.6403-.592 2.22l-.851-.0925.462-7.1965h14.948v1.0175l-11.488 17.1495h8.306c.432-1.0607.808-2.1213 1.129-3.182.333-1.0607.573-1.9487.721-2.664l.851.074-.24 7.0115zm17.064 0v-.888c1.27-.2097 2.226-.4625 2.868-.7585.641-.3083 1.122-.7215 1.443-1.2395.32-.5303.635-1.2272.943-2.0905l7.086-19.5915-1.036-2.3495 3.848-1.998 9.768 25.7705c.209.5673.437.999.684 1.295.259.296.623.5118 1.092.6475.468.1357 1.128.2405 1.979.3145v.888h-12.099v-.888c1.196-.074 2.091-.1603 2.683-.259.592-.111.931-.3515 1.017-.7215.086-.3823-.025-1.0052-.333-1.8685l-6.66-18.2595h-.111l-6.271 17.4455c-.272.7523-.346 1.369-.222 1.85.123.4687.487.8448 1.091 1.1285.604.2713 1.486.4995 2.646.6845v.888zm8.288-10.064v-1.554h10.138v1.554zm16.732 10.064v-.814l2.812-.5735v-25.715l-2.775-.9805v-.5735l6.16-1.739h.389v29.008l2.775.5735v.814zm23.032.333c-1.012 0-1.998-.148-2.96-.444-.95-.296-1.955-.7585-3.016-1.3875l-1.461 1.4985h-.759l-.684-9.3795.999-.2035c.74 2.8983 1.714 5.0012 2.923 6.3085 1.221 1.3073 2.83 1.961 4.828 1.961 1.677 0 3.003-.4008 3.978-1.2025.974-.814 1.461-1.9117 1.461-3.293 0-1.0853-.339-2.0535-1.017-2.9045-.666-.8633-1.764-1.7267-3.293-2.59l-2.831-1.4985c-2.306-1.2457-3.959-2.4852-4.958-3.7185s-1.498-2.6702-1.498-4.3105c0-1.48.363-2.7997 1.091-3.959.728-1.1717 1.721-2.0905 2.979-2.7565 1.27-.6783 2.694-1.0175 4.273-1.0175 2.158 0 4.039.7585 5.643 2.2755l1.128-1.924h.796l.333 8.0845h-1.055c-.58-2.3063-1.418-4.0083-2.516-5.106-1.085-1.11-2.473-1.665-4.162-1.665-1.369 0-2.455.3638-3.256 1.0915-.79.7277-1.184 1.7267-1.184 2.997 0 1.147.376 2.1707 1.128 3.071.765.9003 2.047 1.8253 3.848 2.775l2.757 1.48c1.887.999 3.249 2.109 4.088 3.33.851 1.221 1.277 2.6208 1.277 4.1995 0 1.5663-.395 2.9785-1.184 4.2365-.777 1.2457-1.838 2.2323-3.182 2.96-1.332.7277-2.837 1.0915-4.514 1.0915zm12.94.0555c-1.319 0-2.392-.4132-3.219-1.2395-.814-.8263-1.221-1.8993-1.221-3.219 0-1.0853.333-2.0227.999-2.812s1.739-1.48 3.219-2.072c1.493-.6043 3.46-1.1532 5.902-1.6465v-3.4595c0-1.5663-.216-2.664-.648-3.293-.419-.629-1.147-.9435-2.183-.9435-1.023 0-1.837.2467-2.442.74-.604.4933-.906 1.1593-.906 1.998 0 .2343.012.4687.037.703.037.222.055.4378.055.6475 0 .629-.191 1.147-.573 1.554-.37.407-.845.6105-1.425.6105-.53 0-.962-.1727-1.295-.518-.32-.3453-.481-.7955-.481-1.3505 0-.8017.346-1.6218 1.036-2.4605.703-.851 1.628-1.5787 2.775-2.183 1.53-.814 3.188-1.221 4.977-1.221 1.073 0 1.979.1665 2.719.4995.753.333 1.295.8078 1.628 1.4245.198.4193.327.9497.389 1.591.074.6413.111 1.7143.111 3.219v8.2695c0 1.1963.092 2.0103.277 2.442.198.4317.561.6475 1.092.6475.604 0 1.19-.3453 1.757-1.036l.666.629c-.604.8757-1.221 1.5108-1.85 1.9055-.616.3823-1.338.5735-2.164.5735-.999 0-1.776-.2713-2.331-.814s-.925-1.369-1.11-2.479h-.111c-.703 1.0113-1.554 1.813-2.553 2.405s-2.041.888-3.127.888zm1.85-2.3495c.765 0 1.48-.1973 2.146-.592.666-.407 1.227-.9682 1.684-1.6835v-5.217c-1.653.3207-2.954.6722-3.904 1.0545-.937.3823-1.603.851-1.998 1.406-.382.5427-.573 1.2272-.573 2.0535 0 .9497.222 1.6835.666 2.2015.456.518 1.116.777 1.979.777zm16.312 2.3495c-1.85 0-3.201-.4255-4.052-1.2765-.851-.8633-1.276-2.109-1.276-3.737v-13.394l-2.738-.5735v-.814h6.512v13.3015c0 1.6157.283 2.7257.851 3.33.579.6043 1.492.9065 2.738.9065.851 0 1.683-.222 2.497-.666s1.566-1.1408 2.257-2.0905v1.48c-.937 1.147-1.992 2.0227-3.163 2.627-1.172.6043-2.381.9065-3.626.9065zm6.66 0v-3.6445l-.204-.074v-14.689l-2.719-.5735v-.814h6.493v16.5945l2.516.888v.4995l-5.772 1.813zm12.532 0c-1.455 0-2.763-.4255-3.922-1.2765s-2.078-2.0103-2.757-3.478c-.666-1.48-.999-3.1512-.999-5.0135 0-2.0473.407-3.848 1.221-5.402.814-1.5663 1.949-2.7873 3.404-3.663 1.456-.888 3.139-1.332 5.051-1.332 1.357 0 2.689.2035 3.996.6105v-7.8625l-2.738-1.0545v-.518l6.049-1.7945h.426v27.454l2.534.5735v.444l-5.716 2.3125h-.296v-3.0525l-.167-.0555c-.764 1.0237-1.671 1.8007-2.719 2.331-1.036.518-2.158.777-3.367.777zm1.628-2.442c.913 0 1.757-.1912 2.534-.5735.79-.3823 1.4-.9003 1.832-1.554v-10.286c0-1.3197-.345-2.331-1.036-3.034-.678-.703-1.659-1.0545-2.942-1.0545-1.652 0-2.99.7832-4.014 2.3495-1.011 1.5663-1.517 3.6445-1.517 6.2345 0 2.442.456 4.3722 1.369 5.7905s2.171 2.1275 3.774 2.1275z"/></g></svg>