<svg fill="none" height="83" viewBox="0 0 458 83" width="458" xmlns="http://www.w3.org/2000/svg"><g fill="#fff"><path d="m124.757 22.432v11.568h-1.536v-5.072h-6.064v5.072h-1.552v-11.568h1.552v5.024h6.064v-5.024zm2.372 0h1.552v11.568h-1.552zm9.899 2.064c-.394-.2027-.826-.3787-1.296-.528-.469-.1493-.928-.224-1.376-.224-.618 0-1.114.144-1.488.432-.362.288-.544.672-.544 1.152 0 .3627.118.672.352.928.235.2453.544.4587.928.64s.784.352 1.2.512c.363.1387.72.2933 1.072.464s.667.384.944.64c.288.256.512.5707.672.944.171.3733.256.8373.256 1.392 0 .608-.154 1.1627-.464 1.664-.298.5013-.73.896-1.296 1.184-.565.288-1.237.432-2.016.432-.512 0-1.002-.0587-1.472-.176-.458-.1173-.885-.2667-1.28-.448-.394-.192-.746-.3893-1.056-.592l.688-1.216c.256.1813.55.3573.88.528.331.16.678.2933 1.04.4.363.096.715.144 1.056.144.363 0 .72-.064 1.072-.192.363-.1387.662-.3467.896-.624.235-.2773.352-.6453.352-1.104 0-.3947-.106-.72-.32-.976-.202-.2667-.474-.4907-.816-.672-.341-.192-.704-.3627-1.088-.512-.362-.1387-.73-.288-1.104-.448-.373-.1707-.72-.3733-1.04-.608-.32-.2453-.576-.544-.768-.896s-.288-.7787-.288-1.28c0-.608.144-1.136.432-1.584.299-.4587.704-.816 1.216-1.072.512-.2667 1.099-.4107 1.76-.432.747 0 1.403.0907 1.968.272.576.1813 1.083.4053 1.52.672zm9.543-2.064c.587 0 1.126.08 1.616.24.502.1493.934.3787 1.296.688.374.2987.662.672.864 1.12.214.4373.32.9493.32 1.536 0 .4587-.069.9067-.208 1.344-.128.4373-.346.8373-.656 1.2-.309.352-.714.64-1.216.864-.49.2133-1.098.32-1.824.32h-1.712v4.256h-1.552v-11.568zm.16 5.824c.459 0 .838-.0693 1.136-.208.31-.1387.55-.3147.72-.528.171-.224.294-.464.368-.72.075-.256.112-.496.112-.72 0-.2347-.042-.4747-.128-.72-.074-.256-.202-.4907-.384-.704-.17-.2133-.4-.3893-.688-.528-.277-.1387-.618-.208-1.024-.208h-1.792v4.336zm1.904.88 3.024 4.864h-1.792l-3.072-4.816zm3.481-.912c0-.8.15-1.552.448-2.256.31-.7147.736-1.344 1.28-1.888.544-.5547 1.168-.9867 1.872-1.296.715-.32 1.483-.48 2.304-.48.811 0 1.568.16 2.272.48.715.3093 1.344.7413 1.888 1.296.555.544.987 1.1733 1.296 1.888.31.704.464 1.456.464 2.256 0 .8213-.154 1.5893-.464 2.304-.309.7147-.741 1.344-1.296 1.888-.544.5333-1.173.9547-1.888 1.264-.704.2987-1.461.448-2.272.448-.821 0-1.589-.1493-2.304-.448-.704-.2987-1.328-.7147-1.872-1.248s-.97-1.1573-1.28-1.872c-.298-.7147-.448-1.4933-.448-2.336zm1.6.016c0 .608.112 1.1787.336 1.712.224.5227.534.9867.928 1.392.395.4053.854.7253 1.376.96.523.224 1.088.336 1.696.336.598 0 1.158-.112 1.68-.336.523-.2347.976-.5547 1.36-.96s.688-.8693.912-1.392c.224-.5333.336-1.1093.336-1.728 0-.608-.112-1.1787-.336-1.712-.224-.544-.533-1.0187-.928-1.424-.394-.4053-.853-.72-1.376-.944-.522-.2347-1.082-.352-1.68-.352-.608 0-1.173.1173-1.696.352-.522.2347-.981.5547-1.376.96-.394.4053-.698.88-.912 1.424-.213.5333-.32 1.104-.32 1.712zm14.013 1.904-4.288-7.712h1.904l3.44 6.384-.48.032 3.408-6.416h1.888l-4.32 7.712v3.856h-1.552zm4.332 3.856 5.056-12.048h.096l5.04 12.048h-1.776l-3.776-9.616 1.104-.72-4.224 10.336zm2.96-4.384h4.304l.512 1.344h-5.264zm8.451-7.184h1.552v10.08h5.872v1.488h-7.424zm22.247 0v11.568h-1.536v-5.072h-6.064v5.072h-1.552v-11.568h1.552v5.024h6.064v-5.024zm2.373 0h1.552v11.568h-1.552zm12.971 10.576c-.16.1387-.384.2773-.672.416-.288.128-.608.2453-.96.352-.342.1067-.699.192-1.072.256-.363.064-.704.096-1.024.096-.928 0-1.766-.144-2.512-.432-.736-.288-1.371-.688-1.904-1.2-.523-.512-.928-1.1147-1.216-1.808-.278-.6933-.416-1.4453-.416-2.256 0-.96.154-1.8187.464-2.576.32-.768.752-1.4133 1.296-1.936.554-.5333 1.189-.9333 1.904-1.2.714-.2773 1.472-.416 2.272-.416.672 0 1.296.08 1.872.24s1.082.3627 1.52.608l-.528 1.424c-.214-.128-.48-.2453-.8-.352-.31-.1067-.63-.192-.96-.256-.331-.0747-.64-.112-.928-.112-.683 0-1.302.1067-1.856.32-.555.2027-1.03.5013-1.424.896-.395.384-.699.8533-.912 1.408-.214.544-.32 1.1573-.32 1.84 0 .6293.106 1.2053.32 1.728.213.5227.517.976.912 1.36.394.3733.864.6667 1.408.88.554.2027 1.162.304 1.824.304.394 0 .784-.0373 1.168-.112.384-.0853.714-.2027.992-.352v-2.304h-2.304v-1.488h3.856zm11.151-10.576v11.568h-1.536v-5.072h-6.064v5.072h-1.552v-11.568h1.552v5.024h6.064v-5.024zm12.389 11.936-8.944-9.072.448.112.032 8.592h-1.552v-11.92h.08l8.848 9.104-.368-.08-.032-8.672h1.536v11.936zm2.414-11.936h7.52v1.488h-5.968v3.52h5.328v1.488h-5.328v3.584h6.192v1.488h-7.744zm15.462 2.064c-.395-.2027-.827-.3787-1.296-.528s-.928-.224-1.376-.224c-.619 0-1.115.144-1.488.432-.363.288-.544.672-.544 1.152 0 .3627.117.672.352.928.235.2453.544.4587.928.64s.784.352 1.2.512c.363.1387.72.2933 1.072.464s.667.384.944.64c.288.256.512.5707.672.944.171.3733.256.8373.256 1.392 0 .608-.155 1.1627-.464 1.664-.299.5013-.731.896-1.296 1.184s-1.237.432-2.016.432c-.512 0-1.003-.0587-1.472-.176-.459-.1173-.885-.2667-1.28-.448-.395-.192-.747-.3893-1.056-.592l.688-1.216c.256.1813.549.3573.88.528.331.16.677.2933 1.04.4.363.096.715.144 1.056.144.363 0 .72-.064 1.072-.192.363-.1387.661-.3467.896-.624s.352-.6453.352-1.104c0-.3947-.107-.72-.32-.976-.203-.2667-.475-.4907-.816-.672-.341-.192-.704-.3627-1.088-.512-.363-.1387-.731-.288-1.104-.448-.373-.1707-.72-.3733-1.04-.608-.32-.2453-.576-.544-.768-.896s-.288-.7787-.288-1.28c0-.608.144-1.136.432-1.584.299-.4587.704-.816 1.216-1.072.512-.2667 1.099-.4107 1.76-.432.747 0 1.403.0907 1.968.272.576.1813 1.083.4053 1.52.672zm8.352 0c-.394-.2027-.826-.3787-1.296-.528-.469-.1493-.928-.224-1.376-.224-.618 0-1.114.144-1.488.432-.362.288-.544.672-.544 1.152 0 .3627.118.672.352.928.235.2453.544.4587.928.64s.784.352 1.2.512c.363.1387.72.2933 1.072.464s.667.384.944.64c.288.256.512.5707.672.944.171.3733.256.8373.256 1.392 0 .608-.154 1.1627-.464 1.664-.298.5013-.73.896-1.296 1.184-.565.288-1.237.432-2.016.432-.512 0-1.002-.0587-1.472-.176-.458-.1173-.885-.2667-1.28-.448-.394-.192-.746-.3893-1.056-.592l.688-1.216c.256.1813.55.3573.88.528.331.16.678.2933 1.04.4.363.096.715.144 1.056.144.363 0 .72-.064 1.072-.192.363-.1387.662-.3467.896-.624.235-.2773.352-.6453.352-1.104 0-.3947-.106-.72-.32-.976-.202-.2667-.474-.4907-.816-.672-.341-.192-.704-.3627-1.088-.512-.362-.1387-.73-.288-1.104-.448-.373-.1707-.72-.3733-1.04-.608-.32-.2453-.576-.544-.768-.896s-.288-.7787-.288-1.28c0-.608.144-1.136.432-1.584.299-.4587.704-.816 1.216-1.072.512-.2667 1.099-.4107 1.76-.432.747 0 1.403.0907 1.968.272.576.1813 1.083.4053 1.52.672zm7.303-2.064 3.808 9.568-.88-.176 3.616-9.392h1.808l-5.104 12.096-5.088-12.096zm9.708 0h7.52v1.488h-5.968v3.52h5.328v1.488h-5.328v3.584h6.192v1.488h-7.744zm12.55 0c.587 0 1.125.08 1.616.24.501.1493.933.3787 1.296.688.373.2987.661.672.864 1.12.213.4373.32.9493.32 1.536 0 .4587-.069.9067-.208 1.344-.128.4373-.347.8373-.656 1.2-.309.352-.715.64-1.216.864-.491.2133-1.099.32-1.824.32h-1.712v4.256h-1.552v-11.568zm.16 5.824c.459 0 .837-.0693 1.136-.208.309-.1387.549-.3147.72-.528.171-.224.293-.464.368-.72s.112-.496.112-.72c0-.2347-.043-.4747-.128-.72-.075-.256-.203-.4907-.384-.704-.171-.2133-.4-.3893-.688-.528-.277-.1387-.619-.208-1.024-.208h-1.792v4.336zm1.904.88 3.024 4.864h-1.792l-3.072-4.816zm4.451-6.704h1.552v11.568h-1.552zm3.915 0h6.864v1.488h-5.312v3.696h4.656v1.472h-4.656v4.912h-1.552zm8.462 0h1.552v11.568h-1.552zm3.915 0h7.52v1.488h-5.968v3.52h5.328v1.488h-5.328v3.584h6.192v1.488h-7.744zm9.477 11.568v-11.568h3.152c1.142 0 2.112.176 2.912.528.811.352 1.462.816 1.952 1.392.491.576.848 1.216 1.072 1.92.235.6933.352 1.3867.352 2.08 0 .8747-.154 1.6587-.464 2.352-.298.6933-.714 1.2853-1.248 1.776-.533.4907-1.146.8693-1.84 1.136-.682.256-1.408.384-2.176.384zm1.552-1.488h1.856c.64 0 1.227-.096 1.76-.288.544-.192 1.014-.4693 1.408-.832.406-.3627.72-.8053.944-1.328.224-.5333.336-1.136.336-1.808 0-.7147-.117-1.3387-.352-1.872-.234-.544-.554-.9973-.96-1.36-.405-.3627-.864-.6347-1.376-.816-.512-.192-1.05-.288-1.616-.288h-2z"/><path d="m7.69115 82v-.888l3.14495-.74v-24.938l-3.14495-.7215v-.888h11.52545c1.9487 0 3.6692.3268 5.1615.9805 1.4924.6413 2.6579 1.5848 3.4965 2.8305.8387 1.2333 1.258 2.7503 1.258 4.551 0 2.516-.9373 4.44-2.812 5.772-1.8746 1.332-4.4338 1.998-7.6775 1.998h-3.6445v10.4155l4.218.74v.888zm7.30745-13.5235h2.4235c1.48 0 2.6579-.1665 3.5335-.4995.888-.3453 1.5972-.8202 2.1275-1.4245.555-.629.9374-1.3443 1.147-2.146.222-.814.333-1.6712.333-2.5715 0-1.517-.2713-2.7812-.814-3.7925-.5426-1.0113-1.3073-1.7328-2.294-2.1645-.7523-.37-1.887-.555-3.404-.555h-3.0525zm12.4563 13.5235v-.814l2.775-.5735v-15.0775l-2.701-1.0175v-.5365l5.92-1.776h.407v3.996l.148.185v14.2265l3.811.5735v.814zm6.2715-14.097-.074-1.517c.9127-1.3443 1.8192-2.3803 2.7195-3.108.9127-.7277 1.7637-1.0915 2.553-1.0915.6784 0 1.2519.2343 1.7205.703.4687.4563.703 1.0113.703 1.665 0 .6043-.2035 1.1162-.6105 1.5355-.407.407-.9126.6105-1.517.6105-.6166 0-1.0976-.2282-1.443-.6845-.2466-.2837-.4563-.4748-.629-.5735-.1726-.111-.37-.1665-.592-.1665-.3576 0-.8078.2405-1.3505.7215-.5303.4687-1.0236 1.1038-1.48 1.9055zm5.1948 14.097v-.814l2.812-.5735v-15.0775l-2.7565-.9805v-.5735l6.142-1.7575h.407v18.389l2.775.5735v.814zm4.6805-23.6615c-.7524 0-1.3505-.2405-1.7945-.7215s-.666-1.0422-.666-1.6835c0-.703.222-1.295.666-1.776s1.0421-.7215 1.7945-.7215c.7646 0 1.369.2405 1.813.7215.4563.481.6845 1.073.6845 1.776 0 .6413-.2282 1.2025-.6845 1.6835-.444.481-1.0484.7215-1.813.7215zm14.5849 23.6615v-.814l2.701-.5365v-11.877c0-1.4677-.296-2.5592-.888-3.2745-.592-.7277-1.5478-1.0915-2.8675-1.0915-1.9363 0-3.5458.8818-4.8285 2.6455v-1.5355c1.036-1.036 2.1707-1.8438 3.404-2.4235s2.4605-.8695 3.6815-.8695c3.515 0 5.2725 1.6588 5.2725 4.9765v13.4495l2.738.5365v.814zm-12.0435 0v-.814l2.775-.5735v-15.0405l-2.738-1.0175v-.5365l5.92-1.7945h.407v3.2745l.185.185v14.9295l2.7195.5735v.814zm28.2301.3885c-1.6773 0-3.1696-.407-4.477-1.221-1.295-.8263-2.3125-1.9672-3.0525-3.4225-.7276-1.4677-1.0915-3.1573-1.0915-5.069 0-2.0227.4009-3.8172 1.2025-5.3835.814-1.5787 1.9302-2.8182 3.3485-3.7185 1.4307-.9003 3.0649-1.3505 4.9025-1.3505 1.295 0 2.4544.2158 3.478.6475 1.0237.4193 1.8315.9805 2.4235 1.6835.6044.6907.9065 1.4492.9065 2.2755 0 .6783-.1726 1.2025-.518 1.5725-.3453.37-.814.555-1.406.555-.6413 0-1.1223-.1912-1.443-.5735-.3206-.3823-.5303-.9805-.629-1.7945-.1356-1.221-.4008-2.0412-.7955-2.4605-.3946-.4193-1.0298-.629-1.9055-.629-1.7513 0-3.1141.7523-4.0885 2.257-.962 1.4923-1.443 3.478-1.443 5.957 0 2.4913.5057 4.403 1.517 5.735 1.0114 1.332 2.4482 1.998 4.3105 1.998 1.2334 0 2.3372-.2282 3.3115-.6845.9744-.4563 1.8439-1.2148 2.6085-2.2755l.74.4255c-.6783 1.7513-1.6958 3.1018-3.0525 4.0515-1.3566.9497-2.9723 1.4245-4.847 1.4245zm15.7395 0c-1.7883 0-3.3608-.407-4.7175-1.221-1.3443-.8263-2.3927-1.9733-3.145-3.441-.74-1.48-1.11-3.1882-1.11-5.1245 0-2.0597.4132-3.8665 1.2395-5.4205.8387-1.554 2.0042-2.7688 3.4965-3.6445 1.5047-.8757 3.2437-1.3135 5.217-1.3135 2.442 0 4.3105.7092 5.6055 2.1275 1.3073 1.4183 1.9857 3.4965 2.035 6.2345l-.259.222h-14.3375v-1.073l10.36-.37c.0863-.3207.1295-.8078.1295-1.4615 0-2.96-1.3012-4.44-3.9035-4.44-1.7883 0-3.1697.703-4.144 2.109-.962 1.3937-1.443 3.3732-1.443 5.9385 0 5.365 2.0843 8.0475 6.253 8.0475 2.7133 0 4.7915-.9867 6.2345-2.96l.6845.4255c-.6413 1.702-1.6835 3.0217-3.1265 3.959-1.4307.9373-3.1203 1.406-5.069 1.406zm28.6263 0-10.175-24.383h-.148v22.3665l3.274.74v.888h-8.158v-.888l3.293-.74v-24.9565l-3.293-.703v-.888h8.158l8.899 21.312h.185l8.954-21.312h7.899v.888l-3.237.703v24.9565l3.237.74v.888h-10.693v-.888l3.275-.74v-22.1075h-.148l-10.212 24.124zm26.929 0c-1.899 0-3.583-.4378-5.05-1.3135-1.468-.888-2.621-2.0905-3.46-3.6075-.826-1.5293-1.239-3.2498-1.239-5.1615 0-1.924.413-3.6445 1.239-5.1615.839-1.517 1.992-2.7133 3.46-3.589 1.467-.888 3.151-1.332 5.05-1.332 1.9 0 3.577.444 5.032 1.332 1.468.8757 2.621 2.072 3.46 3.589.838 1.517 1.258 3.2375 1.258 5.1615 0 1.9117-.42 3.6322-1.258 5.1615-.839 1.517-1.992 2.7195-3.46 3.6075-1.455.8757-3.132 1.3135-5.032 1.3135zm-.037-1.702c.901 0 1.696-.1973 2.387-.592.69-.407 1.27-.9805 1.739-1.7205.481-.7523.845-1.6403 1.091-2.664.247-1.036.37-2.183.37-3.441 0-1.2457-.123-2.3803-.37-3.404-.234-1.0237-.586-1.9055-1.054-2.6455-.469-.74-1.049-1.3073-1.739-1.702-.691-.407-1.486-.6105-2.387-.6105-.9 0-1.696.2035-2.386.6105-.691.3947-1.271.962-1.739 1.702-.469.74-.827 1.628-1.073 2.664-.235 1.0237-.352 2.1645-.352 3.4225s.117 2.3988.352 3.4225c.246 1.0237.604 1.9055 1.073 2.6455.468.74 1.042 1.3135 1.72 1.7205.691.3947 1.48.592 2.368.592zm8.132 1.3135v-.814l2.794-.5735v-25.6965l-2.738-.999v-.555l6.068-1.7575h.425v29.008l2.72.5735v.814zm12.358 0v-.814l2.701-.5365v-11.877c0-1.4677-.296-2.5592-.888-3.2745-.592-.7277-1.548-1.0915-2.867-1.0915-.938 0-1.832.222-2.683.666s-1.653 1.0607-2.405 1.85v-1.4985c1.135-1.0483 2.337-1.8438 3.608-2.3865 1.27-.5427 2.516-.814 3.737-.814 3.515 0 5.272 1.6588 5.272 4.9765v13.4495l2.738.5365v.814zm12.098.3885c-1.319 0-2.392-.4132-3.219-1.2395-.814-.8263-1.221-1.8993-1.221-3.219 0-1.0853.333-2.0227.999-2.812s1.739-1.48 3.219-2.072c1.493-.6043 3.46-1.1532 5.902-1.6465v-3.4595c0-1.5663-.216-2.664-.648-3.293-.419-.629-1.147-.9435-2.183-.9435-1.023 0-1.837.2467-2.442.74-.604.4933-.906 1.1593-.906 1.998 0 .2343.012.4687.037.703.037.222.055.4378.055.6475 0 .629-.191 1.147-.573 1.554-.37.407-.845.6105-1.425.6105-.53 0-.962-.1727-1.295-.518-.32-.3453-.481-.7955-.481-1.3505 0-.8017.346-1.6218 1.036-2.4605.703-.851 1.628-1.5787 2.775-2.183 1.53-.814 3.188-1.221 4.977-1.221 1.073 0 1.979.1665 2.719.4995.753.333 1.295.8078 1.628 1.4245.198.4193.327.9497.389 1.591.074.6413.111 1.7143.111 3.219v8.2695c0 1.1963.092 2.0103.277 2.442.198.4317.561.6475 1.092.6475.604 0 1.19-.3453 1.757-1.036l.666.629c-.604.8757-1.221 1.5108-1.85 1.9055-.616.3823-1.338.5735-2.164.5735-.999 0-1.776-.2713-2.331-.814s-.925-1.369-1.11-2.479h-.111c-.703 1.0113-1.554 1.813-2.553 2.405s-2.041.888-3.127.888zm1.85-2.3495c.765 0 1.48-.1973 2.146-.592.666-.407 1.227-.9682 1.684-1.6835v-5.217c-1.653.3207-2.954.6722-3.904 1.0545-.937.3823-1.603.851-1.998 1.406-.382.5427-.573 1.2272-.573 2.0535 0 .9497.222 1.6835.666 2.2015.456.518 1.116.777 1.979.777zm8.541 1.961v-.814l2.757-.5735v-15.0405l-2.72-1.0175v-.5365l5.846-1.7945h.481v3.2005l.185.185v15.0035l2.72.5735v.814zm11.692 0v-.814l2.738-.5365v-11.3035c0-1.7513-.277-3.0093-.832-3.774-.543-.777-1.418-1.1655-2.627-1.1655-.937 0-1.832.2343-2.683.703-.838.4563-1.572 1.1162-2.201 1.9795v-1.554c1.036-1.0483 2.177-1.8623 3.422-2.442 1.258-.5797 2.492-.8695 3.7-.8695 1.69 0 2.942.444 3.756 1.332.814.8757 1.221 2.2447 1.221 4.107v12.987l2.738.5365v.814zm11.655 0v-.814l2.72-.5365v-11.4145c0-1.7513-.265-2.9908-.796-3.7185-.518-.74-1.399-1.11-2.645-1.11-.999 0-1.912.2343-2.738.703-.814.4563-1.529 1.1162-2.146 1.9795v-1.554c.95-1.0977 2.066-1.924 3.348-2.479 1.283-.555 2.578-.8325 3.885-.8325 1.653 0 2.862.4502 3.626 1.3505.765.9003 1.172 2.3187 1.221 4.255v12.8205l2.738.5365v.814zm7.018 0v-.814l2.757-.5735v-15.0405l-2.72-1.0175v-.5365l5.846-1.7945h.481v3.2005l.185.185v15.0035l2.72.5735v.814zm11.692 0v-.814l2.738-.5365v-11.3035c0-1.7513-.277-3.0093-.832-3.774-.543-.777-1.419-1.1655-2.627-1.1655-.938 0-1.832.2343-2.683.703-.839.4563-1.572 1.1162-2.201 1.9795v-1.554c1.036-1.0483 2.176-1.8623 3.422-2.442 1.258-.5797 2.491-.8695 3.7-.8695 1.69 0 2.942.444 3.756 1.332.814.8757 1.221 2.2447 1.221 4.107v12.987l2.738.5365v.814zm11.655 0v-.814l2.72-.5365v-11.4145c0-1.7513-.266-2.9908-.796-3.7185-.518-.74-1.4-1.11-2.645-1.11-.999 0-1.912.2343-2.738.703-.814.4563-1.53 1.1162-2.146 1.9795v-1.554c.949-1.0977 2.065-1.924 3.348-2.479s2.578-.8325 3.885-.8325c1.653 0 2.861.4502 3.626 1.3505s1.172 2.3187 1.221 4.255v12.8205l2.738.5365v.814zm16.527.3885c-1.789 0-3.361-.407-4.718-1.221-1.344-.8263-2.393-1.9733-3.145-3.441-.74-1.48-1.11-3.1882-1.11-5.1245 0-2.0597.413-3.8665 1.24-5.4205.838-1.554 2.004-2.7688 3.496-3.6445 1.505-.8757 3.244-1.3135 5.217-1.3135 2.442 0 4.311.7092 5.606 2.1275 1.307 1.4183 1.985 3.4965 2.035 6.2345l-.259.222h-14.338v-1.073l10.36-.37c.086-.3207.13-.8078.13-1.4615 0-2.96-1.302-4.44-3.904-4.44-1.788 0-3.17.703-4.144 2.109-.962 1.3937-1.443 3.3732-1.443 5.9385 0 5.365 2.084 8.0475 6.253 8.0475 2.713 0 4.792-.9867 6.235-2.96l.684.4255c-.641 1.702-1.683 3.0217-3.126 3.959-1.431.9373-3.121 1.406-5.069 1.406zm15.357 0c-1.455 0-2.762-.4255-3.922-1.2765-1.159-.851-2.078-2.0103-2.756-3.478-.666-1.48-.999-3.1512-.999-5.0135 0-2.0473.407-3.848 1.221-5.402.814-1.5663 1.948-2.7873 3.404-3.663 1.455-.888 3.139-1.332 5.05-1.332 1.357 0 2.689.2035 3.996.6105v-7.8625l-2.738-1.0545v-.518l6.05-1.7945h.425v27.454l2.535.5735v.444l-5.717 2.3125h-.296v-3.0525l-.166-.0555c-.765 1.0237-1.671 1.8007-2.72 2.331-1.036.518-2.158.777-3.367.777zm1.628-2.442c.913 0 1.758-.1912 2.535-.5735.789-.3823 1.4-.9003 1.831-1.554v-10.286c0-1.3197-.345-2.331-1.036-3.034-.678-.703-1.659-1.0545-2.941-1.0545-1.653 0-2.991.7832-4.015 2.3495-1.011 1.5663-1.517 3.6445-1.517 6.2345 0 2.442.457 4.3722 1.369 5.7905.913 1.4183 2.171 2.1275 3.774 2.1275zm15.021 2.0535v-.888l3.145-.74v-24.938l-3.145-.7215v-.888h11.063c1.702 0 3.115.1233 4.237.37 1.135.2343 2.078.6043 2.83 1.11.876.6043 1.561 1.3752 2.054 2.3125s.74 1.9487.74 3.034c0 1.5787-.53 2.9107-1.591 3.996-1.048 1.0853-2.559 1.8253-4.533 2.22v.1295c1.48.1603 2.775.5858 3.885 1.2765 1.11.6783 1.967 1.554 2.572 2.627.617 1.073.925 2.2817.925 3.626 0 1.1223-.222 2.1707-.666 3.145s-1.055 1.776-1.832 2.405c-.851.6907-1.893 1.184-3.126 1.48s-2.861.444-4.884.444zm10.49-1.4615c2.417 0 4.199-.5118 5.346-1.5355 1.16-1.036 1.739-2.6332 1.739-4.7915 0-2.2077-.598-3.8295-1.794-4.8655-1.196-1.0483-3.065-1.5725-5.606-1.5725h-2.867v10.582c0 .851.222 1.4307.666 1.739.456.296 1.295.444 2.516.444zm-3.182-14.282h2.035c.666 0 1.221-.0062 1.665-.0185.456-.0247.875-.0555 1.258-.0925 1.357-.148 2.399-.6968 3.126-1.6465.728-.962 1.092-2.2632 1.092-3.9035 0-.8757-.111-1.6095-.333-2.2015-.222-.6043-.574-1.1408-1.055-1.6095-.53-.5427-1.171-.9188-1.924-1.1285-.74-.222-1.757-.333-3.052-.333h-2.812zm13.684 15.7435v-.814l2.812-.5735v-15.0775l-2.757-.9805v-.5735l6.142-1.7575h.407v18.389l2.775.5735v.814zm4.68-23.6615c-.752 0-1.35-.2405-1.794-.7215s-.666-1.0422-.666-1.6835c0-.703.222-1.295.666-1.776s1.042-.7215 1.794-.7215c.765 0 1.369.2405 1.813.7215.457.481.685 1.073.685 1.776 0 .6413-.228 1.2025-.685 1.6835-.444.481-1.048.7215-1.813.7215zm14.585 23.6615v-.814l2.701-.5365v-11.877c0-1.4677-.296-2.5592-.888-3.2745-.592-.7277-1.548-1.0915-2.867-1.0915-1.937 0-3.546.8818-4.829 2.6455v-1.5355c1.036-1.036 2.171-1.8438 3.404-2.4235 1.234-.5797 2.461-.8695 3.682-.8695 3.515 0 5.272 1.6588 5.272 4.9765v13.4495l2.738.5365v.814zm-12.043 0v-.814l2.775-.5735v-15.0405l-2.738-1.0175v-.5365l5.92-1.7945h.407v3.2745l.185.185v14.9295l2.719.5735v.814zm34.894.333c-1.012 0-1.998-.148-2.96-.444-.95-.296-1.955-.7585-3.016-1.3875l-1.461 1.4985h-.759l-.684-9.3795.999-.2035c.74 2.8983 1.714 5.0012 2.923 6.3085 1.221 1.3073 2.83 1.961 4.828 1.961 1.677 0 3.003-.4008 3.978-1.2025.974-.814 1.461-1.9117 1.461-3.293 0-1.0853-.339-2.0535-1.017-2.9045-.666-.8633-1.764-1.7267-3.293-2.59l-2.831-1.4985c-2.306-1.2457-3.959-2.4852-4.958-3.7185s-1.498-2.6702-1.498-4.3105c0-1.48.363-2.7997 1.091-3.959.728-1.1717 1.721-2.0905 2.979-2.7565 1.27-.6783 2.694-1.0175 4.273-1.0175 2.158 0 4.039.7585 5.643 2.2755l1.128-1.924h.796l.333 8.0845h-1.055c-.58-2.3063-1.418-4.0083-2.516-5.106-1.085-1.11-2.473-1.665-4.162-1.665-1.369 0-2.455.3638-3.256 1.0915-.79.7277-1.184 1.7267-1.184 2.997 0 1.147.376 2.1707 1.128 3.071.765.9003 2.047 1.8253 3.848 2.775l2.757 1.48c1.887.999 3.249 2.109 4.088 3.33.851 1.221 1.277 2.6208 1.277 4.1995 0 1.5663-.395 2.9785-1.184 4.2365-.777 1.2457-1.838 2.2323-3.182 2.96-1.332.7277-2.837 1.0915-4.514 1.0915zm12.94.0555c-1.319 0-2.392-.4132-3.219-1.2395-.814-.8263-1.221-1.8993-1.221-3.219 0-1.0853.333-2.0227.999-2.812s1.739-1.48 3.219-2.072c1.493-.6043 3.46-1.1532 5.902-1.6465v-3.4595c0-1.5663-.216-2.664-.648-3.293-.419-.629-1.147-.9435-2.183-.9435-1.023 0-1.837.2467-2.442.74-.604.4933-.906 1.1593-.906 1.998 0 .2343.012.4687.037.703.037.222.055.4378.055.6475 0 .629-.191 1.147-.573 1.554-.37.407-.845.6105-1.425.6105-.53 0-.962-.1727-1.295-.518-.32-.3453-.481-.7955-.481-1.3505 0-.8017.346-1.6218 1.036-2.4605.703-.851 1.628-1.5787 2.775-2.183 1.53-.814 3.189-1.221 4.977-1.221 1.073 0 1.979.1665 2.719.4995.753.333 1.295.8078 1.628 1.4245.198.4193.327.9497.389 1.591.074.6413.111 1.7143.111 3.219v8.2695c0 1.1963.092 2.0103.277 2.442.198.4317.562.6475 1.092.6475.604 0 1.19-.3453 1.757-1.036l.666.629c-.604.8757-1.221 1.5108-1.85 1.9055-.616.3823-1.338.5735-2.164.5735-.999 0-1.776-.2713-2.331-.814s-.925-1.369-1.11-2.479h-.111c-.703 1.0113-1.554 1.813-2.553 2.405s-2.041.888-3.127.888zm1.85-2.3495c.765 0 1.48-.1973 2.146-.592.666-.407 1.228-.9682 1.684-1.6835v-5.217c-1.653.3207-2.954.6722-3.904 1.0545-.937.3823-1.603.851-1.998 1.406-.382.5427-.573 1.2272-.573 2.0535 0 .9497.222 1.6835.666 2.2015.456.518 1.116.777 1.979.777zm8.227 1.961v-.814l2.812-.5735v-25.715l-2.775-.9805v-.5735l6.161-1.739h.388v29.008l2.775.5735v.814zm7.229 0v-.814l2.756-.5735v-15.0405l-2.719-1.0175v-.5365l5.846-1.7945h.481v3.2005l.185.185v15.0035l2.719.5735v.814zm11.692 0v-.814l2.738-.5365v-11.3035c0-1.7513-.278-3.0093-.833-3.774-.542-.777-1.418-1.1655-2.627-1.1655-.937 0-1.831.2343-2.682.703-.839.4563-1.573 1.1162-2.202 1.9795v-1.554c1.036-1.0483 2.177-1.8623 3.423-2.442 1.258-.5797 2.491-.8695 3.7-.8695 1.69 0 2.941.444 3.755 1.332.814.8757 1.221 2.2447 1.221 4.107v12.987l2.738.5365v.814zm11.655 0v-.814l2.719-.5365v-11.4145c0-1.7513-.265-2.9908-.795-3.7185-.518-.74-1.4-1.11-2.646-1.11-.999 0-1.911.2343-2.738.703-.814.4563-1.529 1.1162-2.146 1.9795v-1.554c.95-1.0977 2.066-1.924 3.349-2.479s2.578-.8325 3.885-.8325c1.653 0 2.861.4502 3.626 1.3505s1.172 2.3187 1.221 4.255v12.8205l2.738.5365v.814zm12.068.3885c-1.32 0-2.393-.4132-3.219-1.2395-.814-.8263-1.221-1.8993-1.221-3.219 0-1.0853.333-2.0227.999-2.812s1.739-1.48 3.219-2.072c1.492-.6043 3.46-1.1532 5.902-1.6465v-3.4595c0-1.5663-.216-2.664-.648-3.293-.419-.629-1.147-.9435-2.183-.9435-1.024 0-1.838.2467-2.442.74s-.906 1.1593-.906 1.998c0 .2343.012.4687.037.703.037.222.055.4378.055.6475 0 .629-.191 1.147-.573 1.554-.37.407-.845.6105-1.425.6105-.53 0-.962-.1727-1.295-.518-.321-.3453-.481-.7955-.481-1.3505 0-.8017.345-1.6218 1.036-2.4605.703-.851 1.628-1.5787 2.775-2.183 1.529-.814 3.188-1.221 4.977-1.221 1.073 0 1.979.1665 2.719.4995.752.333 1.295.8078 1.628 1.4245.197.4193.327.9497.389 1.591.074.6413.111 1.7143.111 3.219v8.2695c0 1.1963.092 2.0103.277 2.442.197.4317.561.6475 1.092.6475.604 0 1.19-.3453 1.757-1.036l.666.629c-.604.8757-1.221 1.5108-1.85 1.9055-.617.3823-1.338.5735-2.164.5735-.999 0-1.776-.2713-2.331-.814s-.925-1.369-1.11-2.479h-.111c-.703 1.0113-1.554 1.813-2.553 2.405s-2.042.888-3.127.888zm1.85-2.3495c.765 0 1.48-.1973 2.146-.592.666-.407 1.227-.9682 1.684-1.6835v-5.217c-1.653.3207-2.954.6722-3.904 1.0545-.937.3823-1.603.851-1.998 1.406-.382.5427-.573 1.2272-.573 2.0535 0 .9497.222 1.6835.666 2.2015.456.518 1.116.777 1.979.777zm20.585 1.961v-.814l2.701-.5365v-11.877c0-1.4677-.296-2.5592-.888-3.2745-.592-.7277-1.548-1.0915-2.868-1.0915-1.936 0-3.546.8818-4.828 2.6455v-1.5355c1.036-1.036 2.17-1.8438 3.404-2.4235 1.233-.5797 2.46-.8695 3.681-.8695 3.515 0 5.273 1.6588 5.273 4.9765v13.4495l2.738.5365v.814zm-12.044 0v-.814l2.775-.5735v-15.0405l-2.738-1.0175v-.5365l5.92-1.7945h.407v3.2745l.185.185v14.9295l2.72.5735v.814z"/></g></svg>