<svg height="247.535" viewBox="0 0 780.91 247.535" width="780.91" xmlns="http://www.w3.org/2000/svg" xmlns:xlink="http://www.w3.org/1999/xlink"><linearGradient id="a" gradientUnits="objectBoundingBox" x1=".5" x2=".5" y1="1"><stop offset=".18" stop-color="#fff"/><stop offset="1" stop-color="#dde2f8"/></linearGradient><linearGradient id="b" gradientUnits="objectBoundingBox" x1=".106" x2=".106"><stop offset=".18" stop-color="#fff"/><stop offset="1" stop-color="#ced3f8"/></linearGradient><linearGradient id="c" x1="-2.705" x2="-2.705" xlink:href="#b" y1="0" y2="0"/><linearGradient id="d" x1="3.413" x2="3.413" xlink:href="#b" y1="0" y2="0"/><linearGradient id="e" x1=".894" x2=".894" xlink:href="#b" y1="0" y2="0"/><linearGradient id="f" x1="3.705" x2="3.705" xlink:href="#b" y1="0" y2="0"/><linearGradient id="g" x1="-2.413" x2="-2.413" xlink:href="#b" y1="0" y2="0"/><linearGradient id="h" x1=".106" x2=".106" xlink:href="#b" y1="1" y2="0"/><g transform="translate(-226 -47.999)"><path d="m871.352 73.356-56.352 9.176 56.354 9.176 56.346-9.176z" fill="#f6f6fb"/><path d="m815 228.431 56.354 9.176v-145.9l-56.354-9.176z" fill="url(#a)"/><path d="m927.7 228.431-56.351 9.176v-145.9l56.351-9.176z" fill="url(#b)"/><path d="m950.558 126.119-56.358 9.181 56.354 9.179 56.352-9.179z" fill="#f6f6fb"/><path d="m894.2 281.2 56.354 9.177v-145.9l-56.354-9.182z" fill="url(#a)"/><path d="m1006.91 281.2-56.352 9.178v-145.9l56.352-9.179z" fill="url(#c)"/><path d="m806.083 119.012-42.083 6.854 42.083 6.852 42.081-6.852z" fill="#f6f6fb"/><path d="m764 234.818 42.083 6.852v-108.951l-42.083-6.852z" fill="url(#a)"/><path d="m848.164 234.818-42.081 6.852v-108.951l42.081-6.852z" fill="url(#d)"/><path d="m365.006 73 57.786 9.41-57.786 9.41-57.784-9.41z" fill="#f6f6fb"/><path d="m422.792 232.018-57.786 9.41v-149.608l57.786-9.41z" fill="url(#a)"/><path d="m307.221 232.018 57.784 9.41v-149.608l-57.784-9.41z" fill="url(#e)"/><path d="m283.786 127.105 57.786 9.41-57.786 9.412-57.786-9.412z" fill="#f6f6fb"/><path d="m341.572 286.122-57.786 9.41v-149.606l57.786-9.412z" fill="url(#a)"/><path d="m226 286.122 57.786 9.412v-149.608l-57.786-9.412z" fill="url(#f)"/><path d="m431.933 119.816 43.153 7.029-43.153 7.026-43.15-7.026z" fill="#f6f6fb"/><path d="m475.086 238.566-43.153 7.026v-111.72l43.153-7.026z" fill="url(#a)"/><path d="m388.782 238.566 43.151 7.026v-111.72l-43.151-7.026z" fill="url(#g)"/><path d="m704.3 155.5c4.716 16.637 20.413 20.541 39.039 12.324-7.256-14.162-24.739-24.686-39.039-12.324z" fill="#6b67e9"/><path d="m703.456 152.936c19.986 10.388 37.721-1 46.573-26.006-19.905-5.774-45.516 1.408-46.573 26.006z" fill="#807dfb"/><path d="m703.455 153.426a.492.492 0 0 1 -.448-.655.5.5 0 0 1 .185-.24c3.646-2.325 10.06-5.667 16.85-9.213 8.215-4.293 17.533-9.155 24.172-13.341a.489.489 0 0 1 .695.14.491.491 0 0 1 -.173.688c-6.676 4.207-16.008 9.08-24.242 13.381-6.77 3.537-13.165 6.876-16.776 9.172a.5.5 0 0 1 -.263.068zm-160.79-39.857c-15.44 1.209-25-4.151-29.394-20.712 13.121-2.671 30.001 4.82 29.394 20.712z" fill="#6b67e9"/><path d="m541.338 112.2c-13.985-12.8-10.1-30.1 7.1-44.326 10.314 14.072 12.037 36.383-7.1 44.326z" fill="#807dfb"/><path d="m541.34 112.689a.492.492 0 0 1 -.479-.594c.771-3.514 1.564-9.532 2.4-15.9 1.021-7.751 2.177-16.537 3.578-23.032a.48.48 0 0 1 .389-.4.49.49 0 0 1 .568.61c-1.388 6.458-2.542 15.222-3.56 22.953-.843 6.394-1.637 12.431-2.417 15.986a.494.494 0 0 1 -.482.385z" fill="#6b67e9"/><path d="m612.681 70.38-41.076 6.7 41.076 6.7 41.074-6.7z" fill="#f6f6fb"/><path d="m571.6 183.628 41.076 6.7v-106.545l-41.076-6.7z" fill="url(#a)"/><path d="m653.754 183.628-41.073 6.7v-106.545l41.073-6.7z" fill="url(#h)"/><path d="m670.413 108.912-41.075 6.7 41.075 6.7 41.076-6.7z" fill="#f6f6fb"/><path d="m629.338 222.161 41.075 6.7v-106.545l-41.075-6.7z" fill="url(#a)"/><path d="m711.489 222.161-41.076 6.7v-106.545l41.076-6.7z" fill="url(#c)"/><path d="m565.108 103.723-30.673 5 30.673 5 30.672-5z" fill="#f6f6fb"/><path d="m534.435 188.292 30.673 5v-79.56l-30.673-5z" fill="url(#a)"/><path d="m595.779 188.292-30.672 5v-79.56l30.672-5z" fill="url(#d)"/><path d="m580.65 259.279-7.965-4.279a32.847 32.847 0 0 1 -13.374-44.49l12.932-24.045 63.378 30.535 2.455 4.868-12.932 24.043a32.858 32.858 0 0 1 -44.494 13.365z" fill="#bbc0e6"/><path d="m578.2 254.419-7.963-4.282a32.846 32.846 0 0 1 -13.374-44.491l12.929-24.046 65.838 35.4-12.93 24.047a32.858 32.858 0 0 1 -44.5 13.372z" fill="#e9edf7"/><path d="m631.114 214.579-5.767-3.1 2.986-5.546a22.749 22.749 0 0 0 -9.262-30.814l3.1-5.765a29.3 29.3 0 0 1 11.929 39.679z" fill="#5652cc"/><path d="m635.622 217-65.838-35.4-2.646 4.923 5.294 2.848-.219.406a1.822 1.822 0 0 0 -.141 1.394 1.848 1.848 0 0 0 .887 1.085l6.176 3.315a1.837 1.837 0 0 0 2.482-.744l.218-.408 36.447 19.6-.218.406a1.832 1.832 0 0 0 .746 2.481l6.17 3.319a1.832 1.832 0 0 0 2.482-.746l.218-.406 5.294 2.848 2.648-4.92z" fill="#ced3f8"/><path d="m576.226 189.538a1.918 1.918 0 1 1 .779 2.6 1.918 1.918 0 0 1 -.779-2.6z" fill="#e9edf7"/><path d="m595.979 225.137a6.311 6.311 0 1 0 -10.772.566l-6.262 9.035a.761.761 0 0 0 .265 1.1l5.966 3.209a.758.758 0 0 0 1.063-.385l4.09-10.2a6.31 6.31 0 0 0 5.65-3.328z" fill="#362e94"/><path d="m576.033 190.772h3.767a1.86 1.86 0 0 0 0-.649h-3.757a1.937 1.937 0 0 0 -.01.649z" fill="#dde2f8"/><path d="m622.072 214.192a1.919 1.919 0 1 1 .467 2.394 1.924 1.924 0 0 1 -.467-2.394z" fill="#e9edf7"/><path d="m621.885 215.43h3.757a1.924 1.924 0 0 0 0-.651h-3.757a1.872 1.872 0 0 0 0 .651z" fill="#dde2f8"/><path d="m722.772 264.493c-23.5-10-45.385-14.187-63.779-32.987-15.8-16.154-33.307-32.632-54.066-42.218-19-8.782-40.505-9.278-59.778-17.235-22.956-9.481-43.217-26.833-55.177-48.547 1.587-3.4 2.381-5.1 3.97-8.49 13.987 20.2 32.1 38.926 55.177 48.547 19.25 8.027 40.766 8.465 59.778 17.231 20.754 9.572 38.36 25.891 54.072 42.143 18.363 19 40.173 23.048 63.773 33.066z" fill="#e9edf7"/><path d="m639.467 200.714c-4.682.494-7.972.956-12.733 1.7q4.694 3.474 9.155 7.247c4.734-.462 8.094-.655 12.7-.9q-4.457-4.145-9.125-8.052zm28.561 27.013q-2.633-2.286-5.059-4.794-1.979-2.049-3.983-4.074c-4.938.027-7.464.092-12.47.315q4.351 4.12 8.574 8.372c.1.1.187.179.286.287 4.986-.047 7.872-.179 12.727-.038zm-45.668-39.574c-.81-.505-1.674-1.032-2.653-1.628q-.166-.1-.335-.2c-4.9 1.229-7.986 2.2-12.681 3.8q4.681 2.277 9.139 4.973c4.818-1.18 7.824-1.875 12.8-2.746q-3.078-2.181-6.267-4.2zm-22.812-11q-6.638 2.8-13.184 5.816c3.231.823 6.44 1.732 9.6 2.791 4.7-1.984 8.026-3.358 12.7-5.063a88.337 88.337 0 0 0 -9.115-3.544zm116.485 74.6c-5.16 2.091-7.457 3.055-12.687 5.227 3.808 1.252 5.368 2 9.114 3.343 5.167-2.089 7.75-3.114 12.729-4.962q-4.547-1.881-9.156-3.608zm-15.639-5.853q-2.065-.8-4.114-1.641l-.065-.023c-5.172 2.075-7.076 3.041-12.055 4.868l.213.1c.727.331 1.362.632 1.947.909 2.147.981 4.308 1.907 6.5 2.8 5.173-2.077 7.262-2.956 12.524-5.143-2.082-.678-3.487-1.262-4.949-1.875zm-20.316-9.521q-1.432-.844-2.831-1.744c-4.582 1.29-7.285 2.308-11.48 3.041q1.837 1.49 3.757 2.873c1.2.841 2.453 1.664 4.006 2.71l.053.033c4.62-1.319 7.065-2.147 11.987-3.888a55.5 55.5 0 0 1 -5.492-3.025zm-101.668-64.627c-5.081 2.42-8.382 4.07-13.3 6.385 3.245.758 6.509 1.459 9.768 2.17 5.03-2.4 8.243-3.965 13.345-6.337-3.263-.789-6.542-1.506-9.816-2.218zm-59.362-27.66c-5.135.64-7.827.894-12.912 1.293q3.791 3.964 7.956 7.544c4.577-.589 8.713-1.173 13.218-2.011q-4.279-3.23-8.262-6.826zm38.186 22.408c-5.188 2.252-7.777 3.329-12.8 5.248.24.1.478.208.716.306q3.132 1.286 6.349 2.346c.655.209 1.357.427 2.147.669 5.2-2.265 7.863-3.483 13.138-5.938-3.213-.782-6.403-1.642-9.55-2.631zm-15.88-6.619q-1.9-1.007-3.757-2.1c-4.788 1.328-8.149 2.133-13.084 3.12q4.413 3 9.082 5.574c4.712-1.309 8.131-2.352 12.851-4.084-2.076-.942-3.535-1.656-5.092-2.5zm-38.685-33.193c-4.4.105-7.369.11-10.855.01a103.571 103.571 0 0 0 5.98 8.877c4.259-.1 7.439-.218 12.1-.523q-3.753-4.061-7.229-8.364z" fill="#fcba06"/><path d="m585.271 189.926-5.766-3.1 2.986-5.546a29.3 29.3 0 0 1 39.682-11.926l-3.1 5.765a22.782 22.782 0 0 0 -30.822 9.256l-2.979 5.551z" fill="#5652cc"/><path d="m664.965 49.66 3.077 8.15a1.225 1.225 0 0 0 2.1.342l5.517-6.746a1.224 1.224 0 0 0 -.751-1.986l-8.6-1.406a1.227 1.227 0 0 0 -1.336 1.646z" fill="#fcba06"/></g></svg>