<svg fill="none" height="21" viewBox="0 0 22 21" width="22" xmlns="http://www.w3.org/2000/svg"><path d="m21.5 4.49993c0-.79565-.3161-1.55871-.8787-2.12132s-1.3257-.87868-2.1213-.87868h-.75v-.728905c0-.403593-.3103-.7499997-.7139-.77015595-.1014-.00488587-.2028.01086755-.2979.04630585s-.1821.0898241-.2556.1598601c-.0735.070037-.132.154267-.172.247586-.04.09332-.0606.193786-.0606.295311v.749998h-10.5v-.728905c0-.403593-.31031-.7499997-.71391-.77015595-.1014-.00488587-.20275.01086755-.29789.04630585-.09513.0354383-.18209.0898241-.25559.1598601-.0735.070037-.13201.154267-.17199.247586-.03999.09332-.06061.193786-.06062.295311v.749998h-.75c-.79565 0-1.55871.31607-2.12132.87868-.562609.56261-.87868 1.32567-.87868 2.12132v.5625c0 .04973.019754.09742.054918.13258.035163.03517.082854.05492.132582.05492h20.625c.0497 0 .0974-.01975.1326-.05492.0351-.03516.0549-.08285.0549-.13258zm-21 13.49997c0 .7957.316071 1.5587.87868 2.1214.56261.5626 1.32567.8786 2.12132.8786h15c.7956 0 1.5587-.316 2.1213-.8786.5626-.5627.8787-1.3257.8787-2.1214v-11.10934c0-.0373-.0148-.07307-.0412-.09944s-.0621-.04119-.0994-.04119h-20.718775c-.037296 0-.073065.01482-.099437.04119s-.041188.06214-.041188.09944zm16.125-9.74997c.2225 0 .44.06598.625.1896.185.12361.3292.29932.4144.50488.0851.20557.1074.43177.064.65s-.1506.41869-.3079.57599c-.1573.1574-.3578.2645-.576.3079-.2183.0434-.4445.0211-.65-.064-.2056-.0852-.3813-.2293-.5049-.41435-.1236-.18501-.1896-.40252-.1896-.62502 0-.29837.1185-.58452.3295-.79549.211-.21098.4971-.32951.7955-.32951zm0 3.74997c.2225 0 .44.066.625.1896s.3292.2993.4144.5049c.0851.2056.1074.4318.064.65s-.1506.4187-.3079.576c-.1573.1574-.3578.2645-.576.3079-.2183.0434-.4445.0211-.65-.064-.2056-.0852-.3813-.2293-.5049-.4144-.1236-.185-.1896-.4025-.1896-.625 0-.2983.1185-.5845.3295-.7955.211-.2109.4971-.3295.7955-.3295zm-3.75-3.74997c.2225 0 .44.06598.625.1896.185.12361.3292.29932.4144.50488.0851.20557.1074.43177.064.65s-.1506.41869-.3079.57599c-.1573.1574-.3578.2645-.576.3079-.2183.0434-.4445.0211-.65-.064-.2056-.0852-.3813-.2293-.5049-.41435-.1236-.18501-.1896-.40252-.1896-.62502 0-.29837.1185-.58452.3295-.79549.211-.21098.4971-.32951.7955-.32951zm0 3.74997c.2225 0 .44.066.625.1896s.3292.2993.4144.5049c.0851.2056.1074.4318.064.65s-.1506.4187-.3079.576c-.1573.1574-.3578.2645-.576.3079-.2183.0434-.4445.0211-.65-.064-.2056-.0852-.3813-.2293-.5049-.4144-.1236-.185-.1896-.4025-.1896-.625 0-.2983.1185-.5845.3295-.7955.211-.2109.4971-.3295.7955-.3295zm0 3.75c.2225 0 .44.066.625.1896s.3292.2993.4144.5049c.0851.2056.1074.4318.064.65s-.1506.4187-.3079.576c-.1573.1574-.3578.2645-.576.3079-.2183.0434-.4445.0211-.65-.064-.2056-.0852-.3813-.2293-.5049-.4144-.1236-.185-.1896-.4025-.1896-.625 0-.2983.1185-.5845.3295-.7955.211-.2109.4971-.3295.7955-.3295zm-3.75-3.75c.2225 0 .44001.066.62502.1896.185.1236.32918.2993.41438.5049.0851.2056.1074.4318.064.65s-.1506.4187-.3079.576c-.15734.1574-.35779.2645-.57602.3079s-.44443.0211-.65-.064c-.20557-.0852-.38127-.2293-.50488-.4144-.12362-.185-.1896-.4025-.1896-.625 0-.2983.11853-.5845.3295-.7955.21098-.2109.49713-.3295.7955-.3295zm0 3.75c.2225 0 .44001.066.62502.1896.185.1236.32918.2993.41438.5049.0851.2056.1074.4318.064.65s-.1506.4187-.3079.576c-.15734.1574-.35779.2645-.57602.3079s-.44443.0211-.65-.064c-.20557-.0852-.38127-.2293-.50488-.4144-.12362-.185-.1896-.4025-.1896-.625 0-.2983.11853-.5845.3295-.7955.21098-.2109.49713-.3295.7955-.3295zm-3.75-3.75c.2225 0 .44001.066.62502.1896.185.1236.3292.2993.41434.5049.08515.2056.10743.4318.06402.65-.0434.2182-.15055.4187-.30788.576-.15734.1574-.35779.2645-.57602.3079s-.44443.0211-.65-.064c-.20557-.0852-.38127-.2293-.50488-.4144-.12362-.185-.1896-.4025-.1896-.625 0-.2983.11853-.5845.3295-.7955.21098-.2109.49713-.3295.7955-.3295zm0 3.75c.2225 0 .44001.066.62502.1896.185.1236.3292.2993.41434.5049.08515.2056.10743.4318.06402.65-.0434.2182-.15055.4187-.30788.576-.15734.1574-.35779.2645-.57602.3079s-.44443.0211-.65-.064c-.20557-.0852-.38127-.2293-.50488-.4144-.12362-.185-.1896-.4025-.1896-.625 0-.2983.11853-.5845.3295-.7955.21098-.2109.49713-.3295.7955-.3295z" fill="#bdbdbd"/></svg>