<svg height="1014.891" viewBox="0 0 1098.829 1014.891" width="1098.829" xmlns="http://www.w3.org/2000/svg" xmlns:xlink="http://www.w3.org/1999/xlink"><linearGradient id="a" gradientUnits="objectBoundingBox" x1="-1.133" x2="3.383" y1="4.665" y2="-.426"><stop offset="0" stop-color="#6cf"/><stop offset=".5" stop-color="#6258a6"/><stop offset=".99" stop-color="#273470"/></linearGradient><linearGradient id="b" x1="-.835" x2="3.68" xlink:href="#a" y1="2.573" y2="-2.517"/><linearGradient id="c" x1="-1.182" x2="3.318" xlink:href="#a" y1="2.903" y2="-2.145"/><linearGradient id="d" x1="-3.753" x2=".749" xlink:href="#a" y1=".546" y2="-4.502"/><linearGradient id="e" x1="-2.862" x2="1.638" xlink:href="#a" y1="2.193" y2="-2.926"/><linearGradient id="f" x1="-2.085" x2="2.417" xlink:href="#a" y1="-.956" y2="-6.004"/><linearGradient id="g" x1="-.859" x2="3.643" xlink:href="#a" y1="-.588" y2="-5.707"/><linearGradient id="h" x1="-.819" x2="2.756" xlink:href="#a" y1="5.019" y2=".983"/><linearGradient id="i" x1="-.181" x2="3.432" xlink:href="#a" y1="5.83" y2="1.758"/><linearGradient id="j" x1=".097" x2="3.708" xlink:href="#a" y1="2.506" y2="-1.566"/><linearGradient id="k" x1=".011" x2="3.585" xlink:href="#a" y1="3.587" y2="-.448"/><linearGradient id="l" x1=".496" x2=".496" xlink:href="#a" y1="5.711" y2=".192"/><linearGradient id="m" x1=".501" x2=".501" xlink:href="#a" y1="5.086" y2="-.433"/><linearGradient id="n" x1=".497" x2=".497" xlink:href="#a" y1="5.086" y2="-.433"/><linearGradient id="o" x1=".501" x2=".501" xlink:href="#a" y1="4.461" y2="-1.058"/><linearGradient id="p" x1=".497" x2=".497" xlink:href="#a" y1="4.461" y2="-1.058"/><linearGradient id="q" x1=".499" x2=".499" xlink:href="#a" y1="3.836" y2="-1.683"/><linearGradient id="r" x1=".503" x2=".503" xlink:href="#a" y1="5.711" y2=".192"/><linearGradient id="s" x1=".501" x2=".501" xlink:href="#a" y1="3.836" y2="-1.683"/><linearGradient id="t" x1=".499" x2=".499" xlink:href="#a" y1="4.461" y2="-1.058"/><linearGradient id="u" x1=".496" x2=".496" xlink:href="#a" y1="5.086" y2="-.433"/><linearGradient id="v" x1=".501" x2=".501" xlink:href="#a" y1="1.039" y2="-4.432"/><linearGradient id="w" x1=".498" x2=".498" xlink:href="#a" y1="2.34" y2="-3.21"/><linearGradient id="x" x1=".506" x2=".506" xlink:href="#a" y1="1.9" y2="-3.572"/><linearGradient id="y" x1=".496" x2=".496" xlink:href="#a" y1="1.227" y2="-4.324"/><linearGradient id="z" x1=".503" x2=".503" xlink:href="#a" y1="2.941" y2="-2.61"/><linearGradient id="A" x1=".493" x2=".493" xlink:href="#a" y1="2.941" y2="-2.61"/><linearGradient id="B" x1=".496" x2=".496" xlink:href="#a" y1="4.536" y2="-1.014"/><linearGradient id="C" x1=".497" x2=".497" xlink:href="#a" y1="5.751" y2="1.335"/><linearGradient id="D" x1=".501" x2=".501" xlink:href="#a" y1="5.204" y2=".827"/><linearGradient id="E" x1=".499" x2=".499" xlink:href="#a" y1="5.204" y2=".828"/><linearGradient id="F" x1=".498" x2=".498" xlink:href="#a" y1="5.204" y2=".828"/><linearGradient id="G" x1=".5" x2=".5" xlink:href="#a" y1="4.708" y2=".332"/><linearGradient id="H" x1=".5" x2=".5" xlink:href="#a" y1="4.242" y2="-.174"/><linearGradient id="I" x1=".497" x2=".497" xlink:href="#a" y1="5.204" y2=".828"/><path d="m912.248 209.846-183.139-104.923-181.23-104.923-183.138 104.923-183.141 104.923-181.228 106.83v209.846l181.228-104.922 183.141-104.924 183.138-106.83 181.23 106.831 183.139 104.923 181.23 104.923v-209.847z" fill="#6cf" transform="translate(5.351)"/><path d="m182.1 22.967v167.876l-144.981-83.943z" fill="url(#a)" transform="translate(533.28 329.956)"/><path d="m13.408 29.794 144.984 83.938-144.984 83.939z" fill="url(#b)" transform="translate(192.623 428.05)"/><path d="m142.563 34.14v135.445l-116.369-66.769z" fill="url(#c)" transform="translate(376.328 490.475)"/><path d="m178.193 57.23v135.446l-116.369-68.676z" fill="url(#d)" transform="translate(888.206 822.215)"/><path d="m49.906 43.574 116.369 66.769-116.369 66.769z" fill="url(#e)" transform="translate(716.985 626.025)"/><path d="m16.884 53.382 116.369 66.769-116.369 68.677z" fill="url(#f)" transform="translate(242.562 766.924)"/><path d="m116.369 47.919v133.538l-116.369-66.769z" fill="url(#g)" transform="translate(0 688.449)"/><path d="m230.933 13.656v211.753l-183.133-104.923z" fill="url(#h)" transform="translate(686.665 196.19)"/><path d="m36 0 181.23 104.923-181.23 104.923z" fill="url(#i)" transform="translate(517.228)"/><path d="m.372 20.608 181.228 104.923-181.228 104.922z" fill="url(#j)" transform="translate(5.351 296.069)"/><path d="m12.166 13.656 183.134 106.83-183.134 104.923z" fill="url(#k)" transform="translate(174.787 196.19)"/><path d="m170.31 16.139v167.876l-144.985-83.938z" fill="url(#l)" transform="translate(363.843 231.861)"/><path d="m158.392 22.967v167.876l-144.984-83.943z" fill="url(#m)" transform="translate(192.623 329.956)"/><path d="m49.037 22.967 144.984 83.933-144.984 83.943z" fill="url(#n)" transform="translate(704.5 329.956)"/><path d="m148.382 29.794v167.877l-146.892-83.938z" fill="url(#o)" transform="translate(21.403 428.05)"/><path d="m194.021 29.794v167.877l-144.984-83.938z" fill="url(#p)" transform="translate(704.5 428.05)"/><path d="m207.723 36.622v167.878l-146.893-83.939z" fill="url(#q)" transform="translate(873.937 526.146)"/><path d="m37.119 16.139 144.981 83.938-144.981 83.938z" fill="url(#r)" transform="translate(533.28 231.861)"/><path d="m1.49 36.622 146.892 83.938-146.892 83.94z" fill="url(#s)" transform="translate(21.403 526.146)"/><path d="m60.83 29.794 146.892 83.938-146.892 83.939z" fill="url(#t)" transform="translate(873.937 428.05)"/><path d="m25.325 22.967 144.985 83.933-144.985 83.943z" fill="url(#u)" transform="translate(363.843 329.956)"/><path d="m2.483 57.23 116.369 66.77-116.369 68.676z" fill="url(#v)" transform="translate(35.671 822.215)"/><path d="m61.824 47.919 116.369 66.769-116.369 66.769z" fill="url(#w)" transform="translate(888.206 688.449)"/><path d="m166.275 50.9v135.445l-116.369-68.677z" fill="url(#x)" transform="translate(716.985 731.253)"/><path d="m154.481 55.989v133.538l-116.369-66.769z" fill="url(#y)" transform="translate(547.548 804.38)"/><path d="m26.194 43.574 116.369 66.769-116.369 66.769z" fill="url(#z)" transform="translate(376.328 626.025)"/><path d="m130.77 43.574v133.538l-116.37-66.769z" fill="url(#A)" transform="translate(206.891 626.025)"/><path d="m38.112 32.029 116.369 66.771-116.369 66.767z" fill="url(#B)" transform="translate(547.548 460.155)"/><path d="m207.222 0v209.846l-183.138-104.923z" fill="url(#C)" transform="translate(346.008)"/><path d="m195.3 6.828v211.753l-183.134-106.83z" fill="url(#D)" transform="translate(174.787 98.096)"/><path d="m47.8 6.828 183.133 104.923-183.133 106.83z" fill="url(#E)" transform="translate(686.665 98.096)"/><path d="m217.232 6.828v211.753l-181.232-106.83z" fill="url(#F)" transform="translate(517.228 98.096)"/><path d="m181.6 13.656v211.753l-181.228-104.923z" fill="url(#G)" transform="translate(5.351 196.19)"/><path d="m240.943 20.608v209.845l-181.23-104.922z" fill="url(#H)" transform="translate(857.885 296.069)"/><path d="m59.713 13.656v211.753l181.23-104.923z" fill="url(#G)" transform="translate(857.885 196.19)"/><path d="m24.084 6.828 183.138 104.923-183.138 106.83z" fill="url(#I)" transform="translate(346.008 98.096)"/></svg>