<svg fill="none" height="265" viewBox="0 0 261 265" width="261" xmlns="http://www.w3.org/2000/svg" xmlns:xlink="http://www.w3.org/1999/xlink"><linearGradient id="a"><stop offset="0" stop-color="#6cf"/><stop offset=".5" stop-color="#6258a6"/><stop offset=".99" stop-color="#273470"/></linearGradient><linearGradient id="b" gradientUnits="userSpaceOnUse" x1="205.617" x2="-204.798" xlink:href="#a" y1="329.866" y2="-3.06195"/><linearGradient id="c" gradientUnits="userSpaceOnUse" x1="131.953" x2="-197.177" xlink:href="#a" y1="345.263" y2="80.9694"/><linearGradient id="d" gradientUnits="userSpaceOnUse" x1="192.911" x2="-217.188" xlink:href="#a" y1="396.321" y2="62.6995"/><linearGradient id="e" gradientUnits="userSpaceOnUse" x1="33.4534" x2="33.4534" xlink:href="#a" y1="504.004" y2="-5.03329"/><linearGradient id="f" gradientUnits="userSpaceOnUse" x1="116.95" x2="116.95" xlink:href="#a" y1="503.999" y2="-5.03874"/><linearGradient id="g" gradientUnits="userSpaceOnUse" x1="200.348" x2="200.348" xlink:href="#a" y1="504.004" y2="-5.03693"/><linearGradient id="h" gradientUnits="userSpaceOnUse" x1="200.348" x2="200.348" xlink:href="#a" y1="504.008" y2="-5.03581"/><linearGradient id="i" gradientUnits="userSpaceOnUse" x1="35.4534" x2="35.4534" xlink:href="#a" y1="503.999" y2="-5.03874"/><linearGradient id="j" gradientUnits="userSpaceOnUse" x1="233.693" x2="233.693" xlink:href="#a" y1="77.2324" y2="-329.898"/><linearGradient id="k" gradientUnits="userSpaceOnUse" x1="42.1949" x2="42.1949" xlink:href="#a" y1="424.658" y2="17.3927"/><linearGradient id="l" gradientUnits="userSpaceOnUse" x1="125.688" x2="125.688" xlink:href="#a" y1="424.658" y2="17.3927"/><linearGradient id="m" gradientUnits="userSpaceOnUse" x1="125.669" x2="125.669" xlink:href="#a" y1="504.084" y2="-5.13807"/><linearGradient id="n" gradientUnits="userSpaceOnUse" x1="42.1679" x2="42.1679" xlink:href="#a" y1="504.084" y2="-5.02174"/><g opacity=".1"><path d="m150.2 92.5469-66.3677 46.1171 66.3677 46.117z" fill="url(#b)"/><path d="m15.7202 129.234v74.416l53.2691-36.684z" fill="url(#c)"/><path d="m193.833-20.9922-83.831 58.6941 83.831 57.6463z" fill="url(#d)"/><path d="m.00373077-22.7422v92.2337l66.36836923-46.1168z" fill="url(#e)"/><path d="m83.8323 34.8984v92.2336l66.3677-46.1195z" fill="url(#f)"/><path d="m166.795 92.5469v92.2341l67.241-46.117z" fill="url(#g)"/><path d="m234.036 150.195-67.241 46.117 67.241 46.118z" fill="url(#h)"/><path d="m68.3721 34.8984-66.36837 46.1141 66.36837 46.1195z" fill="url(#i)"/><path d="m207.005-.0859375 53.269 36.6844375-53.269 37.7317z" fill="url(#j)"/><path d="m68.9893 208.883-53.2691 36.684 53.2691 36.684z" fill="url(#k)"/><path d="m98.6807 208.883v73.368l53.2693-36.684z" fill="url(#l)"/><path d="m83.8375-101.352v116.3408l83.8315-58.694z" fill="url(#m)"/><path d="m83.833-101.352-83.83325177 57.6468 83.83325177 58.694z" fill="url(#n)"/></g></svg>