<svg fill="none" height="265" viewBox="0 0 261 265" width="261" xmlns="http://www.w3.org/2000/svg" xmlns:xlink="http://www.w3.org/1999/xlink"><linearGradient id="a"><stop offset="0" stop-color="#6cf"/><stop offset=".5" stop-color="#6258a6"/><stop offset=".99" stop-color="#273470"/></linearGradient><linearGradient id="b" gradientUnits="userSpaceOnUse" x1="54.657" x2="465.073" xlink:href="#a" y1="334.866" y2="1.93805"/><linearGradient id="c" gradientUnits="userSpaceOnUse" x1="128.321" x2="457.452" xlink:href="#a" y1="350.263" y2="85.9694"/><linearGradient id="d" gradientUnits="userSpaceOnUse" x1="67.3636" x2="477.462" xlink:href="#a" y1="401.321" y2="67.6995"/><linearGradient id="e" gradientUnits="userSpaceOnUse" x1="226.821" x2="226.821" xlink:href="#a" y1="509.004" y2="-.033292"/><linearGradient id="f" gradientUnits="userSpaceOnUse" x1="143.325" x2="143.325" xlink:href="#a" y1="508.999" y2="-.038739"/><linearGradient id="g" gradientUnits="userSpaceOnUse" x1="59.9262" x2="59.9262" xlink:href="#a" y1="509.004" y2="-.036931"/><linearGradient id="h" gradientUnits="userSpaceOnUse" x1="59.9262" x2="59.9262" xlink:href="#a" y1="509.008" y2="-.035814"/><linearGradient id="i" gradientUnits="userSpaceOnUse" x1="224.821" x2="224.821" xlink:href="#a" y1="508.999" y2="-.038739"/><linearGradient id="j" gradientUnits="userSpaceOnUse" x1="26.5817" x2="26.5817" xlink:href="#a" y1="82.2324" y2="-324.898"/><linearGradient id="k" gradientUnits="userSpaceOnUse" x1="218.079" x2="218.079" xlink:href="#a" y1="429.658" y2="22.3927"/><linearGradient id="l" gradientUnits="userSpaceOnUse" x1="134.586" x2="134.586" xlink:href="#a" y1="429.658" y2="22.3927"/><linearGradient id="m" gradientUnits="userSpaceOnUse" x1="134.605" x2="134.605" xlink:href="#a" y1="509.084" y2="-.138066"/><linearGradient id="n" gradientUnits="userSpaceOnUse" x1="218.107" x2="218.107" xlink:href="#a" y1="509.084" y2="-.021737"/><g opacity=".1"><path d="m110.074 97.5469 66.368 46.1171-66.368 46.117z" fill="url(#b)"/><path d="m244.554 134.234v74.416l-53.269-36.684z" fill="url(#c)"/><path d="m66.4414-15.9922 83.8316 58.6941-83.8316 57.6461z" fill="url(#d)"/><path d="m260.271-17.7422v92.2337l-66.369-46.1168z" fill="url(#e)"/><path d="m176.442 39.8984v92.2336l-66.368-46.1195z" fill="url(#f)"/><path d="m93.4796 97.5469v92.2341l-67.2413-46.117z" fill="url(#g)"/><path d="m26.2383 155.195 67.2413 46.117-67.2413 46.118z" fill="url(#h)"/><path d="m191.902 39.8984 66.369 46.1141-66.369 46.1195z" fill="url(#i)"/><path d="m53.2695 4.91406-53.26904987 36.68444 53.26904987 37.7317z" fill="url(#j)"/><path d="m191.285 213.883 53.269 36.684-53.269 36.684z" fill="url(#k)"/><path d="m161.594 213.883v73.368l-53.27-36.684z" fill="url(#l)"/><path d="m176.437-96.3516v116.3404l-83.8315-58.694z" fill="url(#m)"/><path d="m176.441-96.3516 83.834 57.6464-83.834 58.694z" fill="url(#n)"/></g></svg>