<svg height="593.1" viewBox="0 0 802.801 593.1" width="802.801" xmlns="http://www.w3.org/2000/svg"><path d="m239.4 305.776h-23.812v41.848h-57.67v-41.848h-86.21v-42.885l89.907-131.459h53.973v130.72h23.812zm-81.477-43.624v-25.138q0-7.1.517-19.152t.813-12.641h-1.627a156.257 156.257 0 0 1 -11.386 21.294l-23.96 35.637z" fill="#73c8f1" transform="translate(57.609 106.499)"/><path d="m328.606 241.219q0 57.377-19.224 84.068t-58.852 26.688q-38.745 0-58.411-27.873t-19.668-82.884q0-57.671 19.224-84.584t58.854-26.912q38.6 0 58.334 28.021t19.742 83.474m-98.04 0q0 36.675 4.585 50.425t15.38 13.758q10.94 0 15.451-14.2t4.51-49.982q0-35.931-4.583-50.351t-15.378-14.416q-10.8 0-15.379 13.9t-4.585 50.868" fill="#73c8f1" transform="translate(139.784 105.105)"/><path d="m434.856 305.776h-23.805v41.848h-57.672v-41.848h-86.21v-42.885l89.907-131.459h53.975v130.72h23.805zm-81.477-43.624v-25.138q0-7.1.517-19.152t.813-12.641h-1.627a156.064 156.064 0 0 1 -11.382 21.295l-23.954 35.636z" fill="#73c8f1" transform="translate(217.044 106.499)"/><path d="m42.667 285.902h87.4" fill="none" stroke="#000" stroke-linecap="round" stroke-linejoin="round" stroke-width="2.163"/><path d="m151.047 285.902h18.656" fill="none" stroke="#000" stroke-linecap="round" stroke-linejoin="round" stroke-width="2.163"/><path d="m26.839 261.302h156.467" fill="none" stroke="#000" stroke-linecap="round" stroke-linejoin="round" stroke-width="2.163"/><path d="m13.961 261.302h-12.879" fill="none" stroke="#000" stroke-linecap="round" stroke-linejoin="round" stroke-width="2.163"/><path d="m26.839 237.932h51.947" fill="none" stroke="#000" stroke-linecap="round" stroke-linejoin="round" stroke-width="2.163"/><path d="m92.694 237.932h109.097" fill="none" stroke="#000" stroke-linecap="round" stroke-linejoin="round" stroke-width="2.163"/><path d="m660.47 481.065h93.53" fill="none" stroke="#000" stroke-linecap="round" stroke-linejoin="round" stroke-width="2.163"/><path d="m769.212 481.065h13.529" fill="none" stroke="#000" stroke-linecap="round" stroke-linejoin="round" stroke-width="2.163"/><path d="m679.147 456.465h122.573" fill="none" stroke="#000" stroke-linecap="round" stroke-linejoin="round" stroke-width="2.163"/><path d="m669.808 456.465h-9.338" fill="none" stroke="#000" stroke-linecap="round" stroke-linejoin="round" stroke-width="2.163"/><path d="m660.47 433.095h56.344" fill="none" stroke="#000" stroke-linecap="round" stroke-linejoin="round" stroke-width="2.163"/><path d="m726.899 433.095h42.313" fill="none" stroke="#000" stroke-linecap="round" stroke-linejoin="round" stroke-width="2.163"/><path d="m245.561 305.322h-23.808v41.848h-57.67v-41.848h-86.21v-42.885l89.907-131.459h53.973v130.722h23.807zm-81.478-43.622v-25.14q0-7.095.517-19.15t.813-12.641h-1.627a156.256 156.256 0 0 1 -11.386 21.293l-23.955 35.638z" fill="none" stroke="#000" stroke-miterlimit="10" stroke-width="3.268" transform="translate(62.638 106.129)"/><path d="m334.769 240.764q0 57.377-19.224 84.068t-58.852 26.688q-38.742 0-58.409-27.873t-19.667-82.884q0-57.671 19.223-84.584t58.854-26.912q38.6 0 58.336 28.021t19.739 83.476zm-98.038 0q0 36.675 4.583 50.425t15.379 13.752q10.94 0 15.452-14.2t4.512-49.982q0-35.932-4.583-50.351t-15.381-14.408q-10.8 0-15.379 13.9t-4.582 50.864z" fill="none" stroke="#000" stroke-miterlimit="10" stroke-width="3.268" transform="translate(144.813 104.734)"/><path d="m441.021 305.322h-23.807v41.848h-57.67v-41.848h-86.21v-42.885l89.907-131.459h53.973v130.722h23.807zm-81.477-43.622v-25.14q0-7.095.517-19.15t.813-12.641h-1.627a156.056 156.056 0 0 1 -11.386 21.294l-23.953 35.637z" fill="none" stroke="#000" stroke-miterlimit="10" stroke-width="3.268" transform="translate(222.072 106.129)"/><path d="m21.582 0h-19.866v-4.752h4.818a9.286 9.286 0 0 1 -2.178-6.2 10.849 10.849 0 0 1 .825-4.389 8.946 8.946 0 0 1 2.178-3.1 9.232 9.232 0 0 1 3.1-1.848 10.582 10.582 0 0 1 3.6-.627 28.4 28.4 0 0 1 3.3.165 9.439 9.439 0 0 1 1.914.363v5.148a11.724 11.724 0 0 0 -4.686-.858 6.172 6.172 0 0 0 -2.541.462 5.17 5.17 0 0 0 -1.716 1.221 4.5 4.5 0 0 0 -.99 1.716 6.533 6.533 0 0 0 -.3 1.947 6.27 6.27 0 0 0 1.52 4.252q1.518 1.749 4.818 1.749h6.2zm20.46-2.838a3.074 3.074 0 0 1 -.627 2.244 2.859 2.859 0 0 1 -2.015.594h-1.714a16.209 16.209 0 0 1 -3.861-.429 7.012 7.012 0 0 1 -2.97-1.485 7.066 7.066 0 0 1 -1.914-2.805 12 12 0 0 1 -.693-4.389v-38.016h5.412v36.564a6.778 6.778 0 0 0 .858 3.927q.858 1.155 3.828 1.155h1.054a2.333 2.333 0 0 1 2.642 2.64zm-2.642 2.838a2.333 2.333 0 0 1 -2.64-2.64 3.074 3.074 0 0 1 .627-2.244 2.859 2.859 0 0 1 2.013-.594h7.46v-41.646h5.412v32.34a26.761 26.761 0 0 1 7.887-8.481 18.582 18.582 0 0 1 10.527-3q6.4 0 10 4.013t3.6 11.118v5.658h5.014a2.333 2.333 0 0 1 2.64 2.64 3.074 3.074 0 0 1 -.627 2.244 2.859 2.859 0 0 1 -2.013.592zm39.47-5.478v-4.422a18.985 18.985 0 0 0 -.462-4.257 8.8 8.8 0 0 0 -1.584-3.465 7.905 7.905 0 0 0 -2.937-2.31 10.38 10.38 0 0 0 -4.455-.858 12.229 12.229 0 0 0 -5.874 1.452 20.284 20.284 0 0 0 -4.884 3.663 25.931 25.931 0 0 0 -3.795 4.917 34.44 34.44 0 0 0 -2.607 5.28zm36.894 0a19.863 19.863 0 0 0 -1.122-7.128 12.676 12.676 0 0 0 -3.036-4.719 11.593 11.593 0 0 0 -4.455-2.64 17.53 17.53 0 0 0 -5.445-.825 24.37 24.37 0 0 0 -4.059.363 33.682 33.682 0 0 0 -3.531.759v-5.232q1.32-.391 3.5-.88a21.677 21.677 0 0 1 4.752-.489 20.112 20.112 0 0 1 8.646 1.712 16.25 16.25 0 0 1 5.94 4.641 19.24 19.24 0 0 1 3.4 6.846 30.716 30.716 0 0 1 1.089 8.263v4.807h-32.143a2.333 2.333 0 0 1 -2.64-2.64 3.074 3.074 0 0 1 .627-2.244 2.859 2.859 0 0 1 2.013-.594zm-16.364-30.954a3.371 3.371 0 0 1 1.023-2.475 3.371 3.371 0 0 1 2.475-1.023 3.371 3.371 0 0 1 2.475 1.023 3.371 3.371 0 0 1 1.023 2.475 3.371 3.371 0 0 1 -1.023 2.475 3.371 3.371 0 0 1 -2.475 1.023 3.371 3.371 0 0 1 -2.475-1.023 3.371 3.371 0 0 1 -1.023-2.475z" fill="#f16739" transform="translate(328.117 542.395)"/><g fill="none" stroke="#000"><path d="m701.01 280.57v-20.043" stroke-linecap="round" stroke-linejoin="round" stroke-width="2.163"/><path d="m687.018 286.365-14.173-14.173" stroke-linecap="round" stroke-linejoin="round" stroke-width="2.163"/><path d="m681.223 300.357h-20.043" stroke-linecap="round" stroke-linejoin="round" stroke-width="2.163"/><path d="m687.018 314.348-14.173 14.171" stroke-linecap="round" stroke-linejoin="round" stroke-width="2.163"/><path d="m701.01 320.144v20.043" stroke-linecap="round" stroke-linejoin="round" stroke-width="2.163"/><path d="m715.001 314.348 14.173 14.171" stroke-linecap="round" stroke-linejoin="round" stroke-width="2.163"/><path d="m720.796 300.357h20.043" stroke-linecap="round" stroke-linejoin="round" stroke-width="2.163"/><path d="m715.001 286.365 14.173-14.173" stroke-linecap="round" stroke-linejoin="round" stroke-width="2.163"/><path d="m72.369 380.372v-14.487" stroke-linecap="round" stroke-linejoin="round" stroke-width="2.163"/><path d="m62.256 384.561-10.244-10.244" stroke-linecap="round" stroke-linejoin="round" stroke-width="2.163"/><path d="m58.066 394.674h-14.487" stroke-linecap="round" stroke-linejoin="round" stroke-width="2.163"/><path d="m62.256 404.788-10.244 10.244" stroke-linecap="round" stroke-linejoin="round" stroke-width="2.163"/><path d="m72.369 408.977v14.487" stroke-linecap="round" stroke-linejoin="round" stroke-width="2.163"/><path d="m82.482 404.788 10.244 10.244" stroke-linecap="round" stroke-linejoin="round" stroke-width="2.163"/><path d="m86.672 394.674h14.487" stroke-linecap="round" stroke-linejoin="round" stroke-width="2.163"/><path d="m82.482 384.561 10.244-10.244" stroke-linecap="round" stroke-linejoin="round" stroke-width="2.163"/><path d="m464.414 81.124v-14.487" stroke-linecap="round" stroke-linejoin="round" stroke-width="2.163"/><path d="m454.301 85.313-10.244-10.244" stroke-linecap="round" stroke-linejoin="round" stroke-width="2.163"/><path d="m450.112 95.426h-14.487" stroke-linecap="round" stroke-linejoin="round" stroke-width="2.163"/><path d="m454.301 105.54-10.244 10.244" stroke-linecap="round" stroke-linejoin="round" stroke-width="2.163"/><path d="m464.414 109.729v14.487" stroke-linecap="round" stroke-linejoin="round" stroke-width="2.163"/><path d="m474.528 105.54 10.244 10.244" stroke-linecap="round" stroke-linejoin="round" stroke-width="2.163"/><path d="m478.717 95.426h14.487" stroke-linecap="round" stroke-linejoin="round" stroke-width="2.163"/><path d="m474.528 85.313 10.244-10.244" stroke-linecap="round" stroke-linejoin="round" stroke-width="2.163"/><path d="m144.292 483.553h497.064v78.252h-497.064z" stroke-linecap="round" stroke-linejoin="round" stroke-width="2.419"/><path d="m101.443 140.178v-62.692h325.9v139.3" stroke-linecap="round" stroke-linejoin="round" stroke-width="2.163" transform="translate(81.863 62.496)"/><path d="m217.671 52.947v78.492h216.116v35.713" stroke-linecap="round" stroke-linejoin="round" stroke-width="2.163" transform="translate(176.669 42.48)"/><path d="m112.714 119.791a7.777 7.777 0 1 1 -7.777-7.777 7.776 7.776 0 0 1 7.777 7.777z" stroke-linecap="round" stroke-linejoin="round" stroke-width="2.163" transform="translate(78.369 90.66)"/><circle cx="7.777" cy="7.777" r="7.777" stroke-linecap="round" stroke-linejoin="round" stroke-width="2.163" transform="matrix(.383 -.924 .924 .383 384.18 91.858)"/><circle cx="610.457" cy="218.228" r="7.777" stroke-linecap="round" stroke-linejoin="round" stroke-width="2.163"/><circle cx="509.21" cy="288.348" r="7.777" stroke-linecap="round" stroke-linejoin="round" stroke-width="2.163"/><path d="m132.625 444.097-18.4 18.4" stroke-linecap="round" stroke-linejoin="round" stroke-width="2.163"/><path d="m114.224 444.097 18.4 18.4" stroke-linecap="round" stroke-linejoin="round" stroke-width="2.163"/><path d="m141.825 176.895-18.4 18.4" stroke-linecap="round" stroke-linejoin="round" stroke-width="2.163"/><path d="m123.424 176.895 18.4 18.4" stroke-linecap="round" stroke-linejoin="round" stroke-width="2.163"/><path d="m738.651 385.474-18.4 18.4" stroke-linecap="round" stroke-linejoin="round" stroke-width="2.163"/><path d="m720.25 385.474 18.4 18.4" stroke-linecap="round" stroke-linejoin="round" stroke-width="2.163"/><path d="m165.635 47.376a23.9 23.9 0 0 0 -15.41 5.609 32.211 32.211 0 0 0 -62.332 4.741 19.2 19.2 0 1 0 -7.793 37.482v.18h85.531a24.006 24.006 0 1 0 0-48.012z" stroke-linecap="round" stroke-linejoin="round" stroke-width="2.261" transform="translate(50.829 24.501)"/><path d="m372.675 112.608a17.363 17.363 0 0 1 11.194 4.074 23.4 23.4 0 0 1 45.283 3.444 13.945 13.945 0 1 1 5.658 27.23v.133h-62.135a17.441 17.441 0 1 1 0-34.881z" stroke-linecap="round" stroke-linejoin="round" stroke-width="2.163" transform="translate(288.877 81.385)"/><path d="m440.008 293.437a14.569 14.569 0 0 0 -9.389 3.417 19.625 19.625 0 0 0 -37.977 2.889 11.695 11.695 0 1 0 -4.744 22.836v.111h52.11a14.626 14.626 0 1 0 0-29.253z" stroke-linecap="round" stroke-linejoin="round" stroke-width="2.163" transform="translate(307.216 230.459)"/><path d="m30.323 277.305a17.367 17.367 0 0 1 11.2 4.074 23.4 23.4 0 0 1 45.277 3.445 13.945 13.945 0 1 1 5.658 27.23v.133h-62.135a17.441 17.441 0 0 1 0-34.881z" stroke-linecap="round" stroke-linejoin="round" stroke-width="2.163" transform="translate(9.626 215.726)"/><path d="m132.927 60.187s109.74-89.471 258.844-48.252c156.629 43.298 187.981 154.981 187.981 154.981" stroke-dasharray="3.268 7.624" stroke-linecap="round" stroke-linejoin="round" stroke-width="2.163" transform="translate(107.544 .174)"/><path d="m61.138 176.856c-42.543 6.6-63.928 96.89-16.076 132.734" stroke-dasharray="3.047 7.109" stroke-linecap="round" stroke-linejoin="round" stroke-width="2.017" transform="translate(13.634 143.551)"/><path d="m336.7 326s72.878 31.858 104.823-12.588" stroke-dasharray="3.268 7.624" stroke-linecap="round" stroke-linejoin="round" stroke-width="2.163" transform="translate(273.757 254.935)"/><path d="m263.75 218.227v-46.02" stroke-linecap="round" stroke-linejoin="round" stroke-width="2.163"/><path d="m252.641 218.227v-22.932" stroke-linecap="round" stroke-linejoin="round" stroke-width="2.163"/><path d="m432.894 228.874v-33.656" stroke-linecap="round" stroke-linejoin="round" stroke-width="2.163"/><path d="m420.274 226.004v-13.959" stroke-linecap="round" stroke-linejoin="round" stroke-width="2.163"/><path d="m409.079 226.005v-23.332" stroke-linecap="round" stroke-linejoin="round" stroke-width="2.163"/><path d="m274.427 218.227v-23.01" stroke-linecap="round" stroke-linejoin="round" stroke-width="2.163"/><path d="m579.465 224.632v-10.293" stroke-linecap="round" stroke-linejoin="round" stroke-width="2.163"/><path d="m568.356 224.633v-25.075" stroke-linecap="round" stroke-linejoin="round" stroke-width="2.163"/><path d="m590.142 224.632v-17.91" stroke-linecap="round" stroke-linejoin="round" stroke-width="2.163"/></g></svg>