<svg height="593.1" viewBox="0 0 802.801 593.1" width="802.801" xmlns="http://www.w3.org/2000/svg"><path d="m239.4 305.776h-23.812v41.848h-57.67v-41.848h-86.21v-42.885l89.907-131.459h53.973v130.72h23.812zm-81.477-43.624v-25.138q0-7.1.517-19.152t.813-12.641h-1.627a156.257 156.257 0 0 1 -11.386 21.294l-23.96 35.637z" fill="#73c8f1" transform="translate(57.609 106.499)"/><path d="m328.606 241.219q0 57.377-19.224 84.068t-58.852 26.688q-38.745 0-58.411-27.873t-19.668-82.884q0-57.671 19.224-84.584t58.854-26.912q38.6 0 58.334 28.021t19.742 83.474m-98.04 0q0 36.675 4.585 50.425t15.38 13.758q10.94 0 15.451-14.2t4.51-49.982q0-35.931-4.583-50.351t-15.378-14.416q-10.8 0-15.379 13.9t-4.585 50.868" fill="#73c8f1" transform="translate(139.784 105.105)"/><path d="m434.856 305.776h-23.805v41.848h-57.672v-41.848h-86.21v-42.885l89.907-131.459h53.975v130.72h23.805zm-81.477-43.624v-25.138q0-7.1.517-19.152t.813-12.641h-1.627a156.064 156.064 0 0 1 -11.382 21.295l-23.954 35.636z" fill="#73c8f1" transform="translate(217.044 106.499)"/><path d="m42.667 285.902h87.4" fill="none" stroke="#000" stroke-linecap="round" stroke-linejoin="round" stroke-width="2.163"/><path d="m151.047 285.902h18.656" fill="none" stroke="#000" stroke-linecap="round" stroke-linejoin="round" stroke-width="2.163"/><path d="m26.839 261.302h156.467" fill="none" stroke="#000" stroke-linecap="round" stroke-linejoin="round" stroke-width="2.163"/><path d="m13.961 261.302h-12.879" fill="none" stroke="#000" stroke-linecap="round" stroke-linejoin="round" stroke-width="2.163"/><path d="m26.839 237.932h51.947" fill="none" stroke="#000" stroke-linecap="round" stroke-linejoin="round" stroke-width="2.163"/><path d="m92.694 237.932h109.097" fill="none" stroke="#000" stroke-linecap="round" stroke-linejoin="round" stroke-width="2.163"/><path d="m660.47 481.065h93.53" fill="none" stroke="#000" stroke-linecap="round" stroke-linejoin="round" stroke-width="2.163"/><path d="m769.212 481.065h13.529" fill="none" stroke="#000" stroke-linecap="round" stroke-linejoin="round" stroke-width="2.163"/><path d="m679.147 456.465h122.573" fill="none" stroke="#000" stroke-linecap="round" stroke-linejoin="round" stroke-width="2.163"/><path d="m669.808 456.465h-9.338" fill="none" stroke="#000" stroke-linecap="round" stroke-linejoin="round" stroke-width="2.163"/><path d="m660.47 433.095h56.344" fill="none" stroke="#000" stroke-linecap="round" stroke-linejoin="round" stroke-width="2.163"/><path d="m726.899 433.095h42.313" fill="none" stroke="#000" stroke-linecap="round" stroke-linejoin="round" stroke-width="2.163"/><path d="m245.561 305.322h-23.808v41.848h-57.67v-41.848h-86.21v-42.885l89.907-131.459h53.973v130.722h23.807zm-81.478-43.622v-25.14q0-7.095.517-19.15t.813-12.641h-1.627a156.256 156.256 0 0 1 -11.386 21.293l-23.955 35.638z" fill="none" stroke="#000" stroke-miterlimit="10" stroke-width="3.268" transform="translate(62.638 106.129)"/><path d="m334.769 240.764q0 57.377-19.224 84.068t-58.852 26.688q-38.742 0-58.409-27.873t-19.667-82.884q0-57.671 19.223-84.584t58.854-26.912q38.6 0 58.336 28.021t19.739 83.476zm-98.038 0q0 36.675 4.583 50.425t15.379 13.752q10.94 0 15.452-14.2t4.512-49.982q0-35.932-4.583-50.351t-15.381-14.408q-10.8 0-15.379 13.9t-4.582 50.864z" fill="none" stroke="#000" stroke-miterlimit="10" stroke-width="3.268" transform="translate(144.813 104.734)"/><path d="m441.021 305.322h-23.807v41.848h-57.67v-41.848h-86.21v-42.885l89.907-131.459h53.973v130.722h23.807zm-81.477-43.622v-25.14q0-7.095.517-19.15t.813-12.641h-1.627a156.056 156.056 0 0 1 -11.386 21.294l-23.953 35.637z" fill="none" stroke="#000" stroke-miterlimit="10" stroke-width="3.268" transform="translate(222.072 106.129)"/><path d="m-107.91-47.124h32.538v5.28h-26.268v14.982h24.486v5.28h-24.486v16.3h26.466v5.282h-32.736zm59.664 21.714a25.273 25.273 0 0 0 4.158-.33 9.072 9.072 0 0 0 3.465-1.287 7.049 7.049 0 0 0 2.376-2.573 8.645 8.645 0 0 0 .891-4.191 8.483 8.483 0 0 0 -1.98-5.775q-1.98-2.277-6.4-2.277h-15.578v16.433zm-19.338-21.714h22.176q6.666 0 10.494 3.333a11.335 11.335 0 0 1 3.828 9.009 14.3 14.3 0 0 1 -1.947 7.524 10.022 10.022 0 0 1 -6.237 4.422v.132a8.4 8.4 0 0 1 3.333 1.32 7.634 7.634 0 0 1 2.079 2.211 8.888 8.888 0 0 1 1.122 2.873q.33 1.584.528 3.3.132 1.716.231 3.531t.33 3.5a19.206 19.206 0 0 0 .726 3.234 8.055 8.055 0 0 0 1.485 2.735h-7a3.935 3.935 0 0 1 -.891-1.98 20.338 20.338 0 0 1 -.3-2.805q-.066-1.551-.132-3.333a23 23 0 0 0 -.4-3.5q-.264-1.716-.66-3.267a7.661 7.661 0 0 0 -1.254-2.706 6.123 6.123 0 0 0 -2.277-1.848 8.366 8.366 0 0 0 -3.65-.691h-15.314v20.13h-6.27zm64.548 21.714a25.273 25.273 0 0 0 4.158-.33 9.072 9.072 0 0 0 3.465-1.287 7.049 7.049 0 0 0 2.376-2.573 8.645 8.645 0 0 0 .891-4.191 8.483 8.483 0 0 0 -1.98-5.775q-1.98-2.277-6.4-2.277h-15.574v16.433zm-19.338-21.714h22.174q6.666 0 10.494 3.333a11.335 11.335 0 0 1 3.828 9.009 14.3 14.3 0 0 1 -1.947 7.524 10.022 10.022 0 0 1 -6.235 4.422v.132a8.4 8.4 0 0 1 3.333 1.32 7.634 7.634 0 0 1 2.079 2.211 8.888 8.888 0 0 1 1.122 2.873q.326 1.582.526 3.3.132 1.716.231 3.531t.33 3.5a19.206 19.206 0 0 0 .726 3.234 8.055 8.055 0 0 0 1.487 2.735h-7a3.935 3.935 0 0 1 -.891-1.98 20.338 20.338 0 0 1 -.3-2.805q-.066-1.551-.132-3.333a23 23 0 0 0 -.4-3.5q-.251-1.714-.651-3.265a7.661 7.661 0 0 0 -1.254-2.706 6.123 6.123 0 0 0 -2.277-1.848 8.366 8.366 0 0 0 -3.661-.693h-15.308v20.13h-6.27zm42.574 23.562a30.368 30.368 0 0 1 1.419-9.273 23.367 23.367 0 0 1 4.257-7.887 20.778 20.778 0 0 1 7.058-5.478 22.312 22.312 0 0 1 9.834-2.046 22.312 22.312 0 0 1 9.832 2.046 20.778 20.778 0 0 1 7.062 5.478 23.367 23.367 0 0 1 4.257 7.887 30.368 30.368 0 0 1 1.419 9.273 30.368 30.368 0 0 1 -1.419 9.273 23.367 23.367 0 0 1 -4.255 7.889 20.778 20.778 0 0 1 -7.064 5.476 22.312 22.312 0 0 1 -9.834 2.046 22.312 22.312 0 0 1 -9.832-2.046 20.778 20.778 0 0 1 -7.062-5.476 23.367 23.367 0 0 1 -4.257-7.887 30.368 30.368 0 0 1 -1.415-9.275zm6.27 0a27.166 27.166 0 0 0 .924 7.029 19.089 19.089 0 0 0 2.9 6.237 14.847 14.847 0 0 0 5.082 4.455 15.286 15.286 0 0 0 7.392 1.683 15.286 15.286 0 0 0 7.392-1.683 14.847 14.847 0 0 0 5.082-4.459 19.089 19.089 0 0 0 2.9-6.237 27.167 27.167 0 0 0 .924-7.029 27.167 27.167 0 0 0 -.924-7.029 19.089 19.089 0 0 0 -2.9-6.237 14.847 14.847 0 0 0 -5.082-4.455 15.286 15.286 0 0 0 -7.392-1.683 15.286 15.286 0 0 0 -7.392 1.683 14.847 14.847 0 0 0 -5.082 4.455 19.089 19.089 0 0 0 -2.9 6.237 27.166 27.166 0 0 0 -.928 7.033zm65.864-1.848a25.273 25.273 0 0 0 4.158-.33 9.072 9.072 0 0 0 3.465-1.287 7.049 7.049 0 0 0 2.376-2.574 8.645 8.645 0 0 0 .891-4.191 8.483 8.483 0 0 0 -1.98-5.775q-1.98-2.277-6.4-2.277h-15.578v16.434zm-19.334-21.714h22.172q6.666 0 10.494 3.333a11.335 11.335 0 0 1 3.828 9.009 14.3 14.3 0 0 1 -1.947 7.524 10.022 10.022 0 0 1 -6.237 4.422v.132a8.4 8.4 0 0 1 3.333 1.32 7.634 7.634 0 0 1 2.079 2.211 8.888 8.888 0 0 1 1.122 2.871q.33 1.584.528 3.3.132 1.716.231 3.531t.33 3.5a19.206 19.206 0 0 0 .726 3.234 8.055 8.055 0 0 0 1.485 2.737h-7a3.935 3.935 0 0 1 -.891-1.98 20.338 20.338 0 0 1 -.3-2.805q-.066-1.551-.132-3.333a23 23 0 0 0 -.4-3.5q-.264-1.716-.66-3.267a7.661 7.661 0 0 0 -1.254-2.706 6.123 6.123 0 0 0 -2.277-1.848 8.366 8.366 0 0 0 -3.663-.693h-15.301v20.132h-6.266z" fill="#f16739" transform="translate(390.751 546.538)"/><g fill="none" stroke="#000"><path d="m701.01 280.57v-20.043" stroke-linecap="round" stroke-linejoin="round" stroke-width="2.163"/><path d="m687.018 286.365-14.173-14.173" stroke-linecap="round" stroke-linejoin="round" stroke-width="2.163"/><path d="m681.223 300.357h-20.043" stroke-linecap="round" stroke-linejoin="round" stroke-width="2.163"/><path d="m687.018 314.348-14.173 14.171" stroke-linecap="round" stroke-linejoin="round" stroke-width="2.163"/><path d="m701.01 320.144v20.043" stroke-linecap="round" stroke-linejoin="round" stroke-width="2.163"/><path d="m715.001 314.348 14.173 14.171" stroke-linecap="round" stroke-linejoin="round" stroke-width="2.163"/><path d="m720.796 300.357h20.043" stroke-linecap="round" stroke-linejoin="round" stroke-width="2.163"/><path d="m715.001 286.365 14.173-14.173" stroke-linecap="round" stroke-linejoin="round" stroke-width="2.163"/><path d="m72.369 380.372v-14.487" stroke-linecap="round" stroke-linejoin="round" stroke-width="2.163"/><path d="m62.256 384.561-10.244-10.244" stroke-linecap="round" stroke-linejoin="round" stroke-width="2.163"/><path d="m58.066 394.674h-14.487" stroke-linecap="round" stroke-linejoin="round" stroke-width="2.163"/><path d="m62.256 404.788-10.244 10.244" stroke-linecap="round" stroke-linejoin="round" stroke-width="2.163"/><path d="m72.369 408.977v14.487" stroke-linecap="round" stroke-linejoin="round" stroke-width="2.163"/><path d="m82.482 404.788 10.244 10.244" stroke-linecap="round" stroke-linejoin="round" stroke-width="2.163"/><path d="m86.672 394.674h14.487" stroke-linecap="round" stroke-linejoin="round" stroke-width="2.163"/><path d="m82.482 384.561 10.244-10.244" stroke-linecap="round" stroke-linejoin="round" stroke-width="2.163"/><path d="m464.414 81.124v-14.487" stroke-linecap="round" stroke-linejoin="round" stroke-width="2.163"/><path d="m454.301 85.313-10.244-10.244" stroke-linecap="round" stroke-linejoin="round" stroke-width="2.163"/><path d="m450.112 95.426h-14.487" stroke-linecap="round" stroke-linejoin="round" stroke-width="2.163"/><path d="m454.301 105.54-10.244 10.244" stroke-linecap="round" stroke-linejoin="round" stroke-width="2.163"/><path d="m464.414 109.729v14.487" stroke-linecap="round" stroke-linejoin="round" stroke-width="2.163"/><path d="m474.528 105.54 10.244 10.244" stroke-linecap="round" stroke-linejoin="round" stroke-width="2.163"/><path d="m478.717 95.426h14.487" stroke-linecap="round" stroke-linejoin="round" stroke-width="2.163"/><path d="m474.528 85.313 10.244-10.244" stroke-linecap="round" stroke-linejoin="round" stroke-width="2.163"/><path d="m144.341 483.792h497.064v78.252h-497.064z" stroke-linecap="round" stroke-linejoin="round" stroke-width="2.419"/><path d="m101.443 140.178v-62.692h325.9v139.3" stroke-linecap="round" stroke-linejoin="round" stroke-width="2.163" transform="translate(81.863 62.496)"/><path d="m217.671 52.947v78.492h216.116v35.713" stroke-linecap="round" stroke-linejoin="round" stroke-width="2.163" transform="translate(176.669 42.48)"/><path d="m112.714 119.791a7.777 7.777 0 1 1 -7.777-7.777 7.776 7.776 0 0 1 7.777 7.777z" stroke-linecap="round" stroke-linejoin="round" stroke-width="2.163" transform="translate(78.369 90.66)"/><circle cx="7.777" cy="7.777" r="7.777" stroke-linecap="round" stroke-linejoin="round" stroke-width="2.163" transform="matrix(.383 -.924 .924 .383 384.18 91.858)"/><circle cx="610.457" cy="218.228" r="7.777" stroke-linecap="round" stroke-linejoin="round" stroke-width="2.163"/><circle cx="509.21" cy="288.348" r="7.777" stroke-linecap="round" stroke-linejoin="round" stroke-width="2.163"/><path d="m132.625 444.097-18.4 18.4" stroke-linecap="round" stroke-linejoin="round" stroke-width="2.163"/><path d="m114.224 444.097 18.4 18.4" stroke-linecap="round" stroke-linejoin="round" stroke-width="2.163"/><path d="m141.825 176.895-18.4 18.4" stroke-linecap="round" stroke-linejoin="round" stroke-width="2.163"/><path d="m123.424 176.895 18.4 18.4" stroke-linecap="round" stroke-linejoin="round" stroke-width="2.163"/><path d="m738.651 385.474-18.4 18.4" stroke-linecap="round" stroke-linejoin="round" stroke-width="2.163"/><path d="m720.25 385.474 18.4 18.4" stroke-linecap="round" stroke-linejoin="round" stroke-width="2.163"/><path d="m165.635 47.376a23.9 23.9 0 0 0 -15.41 5.609 32.211 32.211 0 0 0 -62.332 4.741 19.2 19.2 0 1 0 -7.793 37.482v.18h85.531a24.006 24.006 0 1 0 0-48.012z" stroke-linecap="round" stroke-linejoin="round" stroke-width="2.261" transform="translate(50.829 24.501)"/><path d="m372.675 112.608a17.363 17.363 0 0 1 11.194 4.074 23.4 23.4 0 0 1 45.283 3.444 13.945 13.945 0 1 1 5.658 27.23v.133h-62.135a17.441 17.441 0 1 1 0-34.881z" stroke-linecap="round" stroke-linejoin="round" stroke-width="2.163" transform="translate(288.877 81.385)"/><path d="m440.008 293.437a14.569 14.569 0 0 0 -9.389 3.417 19.625 19.625 0 0 0 -37.977 2.889 11.695 11.695 0 1 0 -4.744 22.836v.111h52.11a14.626 14.626 0 1 0 0-29.253z" stroke-linecap="round" stroke-linejoin="round" stroke-width="2.163" transform="translate(307.216 230.459)"/><path d="m30.323 277.305a17.367 17.367 0 0 1 11.2 4.074 23.4 23.4 0 0 1 45.277 3.445 13.945 13.945 0 1 1 5.658 27.23v.133h-62.135a17.441 17.441 0 0 1 0-34.881z" stroke-linecap="round" stroke-linejoin="round" stroke-width="2.163" transform="translate(9.626 215.726)"/><path d="m132.927 60.187s109.74-89.471 258.844-48.252c156.629 43.298 187.981 154.981 187.981 154.981" stroke-dasharray="3.268 7.624" stroke-linecap="round" stroke-linejoin="round" stroke-width="2.163" transform="translate(107.544 .174)"/><path d="m61.138 176.856c-42.543 6.6-63.928 96.89-16.076 132.734" stroke-dasharray="3.047 7.109" stroke-linecap="round" stroke-linejoin="round" stroke-width="2.017" transform="translate(13.634 143.551)"/><path d="m336.7 326s72.878 31.858 104.823-12.588" stroke-dasharray="3.268 7.624" stroke-linecap="round" stroke-linejoin="round" stroke-width="2.163" transform="translate(273.757 254.935)"/><path d="m263.75 218.227v-46.02" stroke-linecap="round" stroke-linejoin="round" stroke-width="2.163"/><path d="m252.641 218.227v-22.932" stroke-linecap="round" stroke-linejoin="round" stroke-width="2.163"/><path d="m432.894 228.874v-33.656" stroke-linecap="round" stroke-linejoin="round" stroke-width="2.163"/><path d="m420.274 226.004v-13.959" stroke-linecap="round" stroke-linejoin="round" stroke-width="2.163"/><path d="m409.079 226.005v-23.332" stroke-linecap="round" stroke-linejoin="round" stroke-width="2.163"/><path d="m274.427 218.227v-23.01" stroke-linecap="round" stroke-linejoin="round" stroke-width="2.163"/><path d="m579.465 224.632v-10.293" stroke-linecap="round" stroke-linejoin="round" stroke-width="2.163"/><path d="m568.356 224.633v-25.075" stroke-linecap="round" stroke-linejoin="round" stroke-width="2.163"/><path d="m590.142 224.632v-17.91" stroke-linecap="round" stroke-linejoin="round" stroke-width="2.163"/></g></svg>