<svg fill="none" height="164" viewBox="0 0 700 164" width="700" xmlns="http://www.w3.org/2000/svg" xmlns:xlink="http://www.w3.org/1999/xlink"><linearGradient id="a"><stop offset=".18" stop-color="#fff"/><stop offset="1" stop-color="#ced3f8"/></linearGradient><linearGradient id="b" gradientUnits="userSpaceOnUse" x1="263.916" x2="297.046" xlink:href="#a" y1="77.1161" y2="77.1161"/><linearGradient id="c" gradientUnits="userSpaceOnUse" x1=".000772" x2=".680773" xlink:href="#a" y1="100.245" y2="100.245"/><linearGradient id="d" gradientUnits="userSpaceOnUse" x1=".000772" x2=".680773" xlink:href="#a" y1="123.374" y2="123.374"/><linearGradient id="e" gradientUnits="userSpaceOnUse" x1=".000772" x2=".680773" xlink:href="#a" y1="146.503" y2="146.503"/><clipPath id="f"><path d="m0 .988281h700v163h-700z"/></clipPath><g clip-path="url(#f)"><path d="m115.212 130.004c-.116-.055-2.754-1.255-5.957-1.316 2.645-2.291 4.223-5.116 4.298-5.246.136-.24.115-.535-.041-.761s-.422-.343-.7-.302c-.15.021-3.754.61-6.814 2.99-.462.356-.904.706-1.326 1.042.061-.226.116-.459.177-.692.102-.391.197-.789.306-1.194 1.02-3.949.455-7.755.428-7.913-.041-.274-.238-.5-.503-.583-.265-.082-.551 0-.734.213-.109.123-2.727 3.113-3.754 7.083-.394 1.53-.7276 2.867-.9316 4.019-.6256-.611-1.3396-1.255-2.1216-1.948-2.7064-2.4-5.9024-2.989-6.0316-3.017-.2652-.048-.5372.062-.6936.274-.1632.22-.1904.508-.068.755.0612.13 1.462 2.983 3.8012 5.28-2.8152.075-5.134 1.275-5.236 1.33-.2244.117-.374.35-.3808.603-.0068.254.1088.501.3196.638.102.069 2.38 1.563 5.2564 2.085-2.4344 2.221-3.8352 5.225-3.8964 5.362-.1156.247-.0816.542.0884.754.136.178.3468.274.5644.274.0476 0 .0952 0 .1428-.013.1156-.028 2.6724-.576 5.2156-2.366.544.405 1.2172.645 1.938.645.8636 0 1.6452-.343 2.2372-.892v18.357c0 .397.32.72.714.72s.714-.323.714-.72v-19.111c.088 0 .17.014.258.014.776 0 1.483-.275 2.047-.727.238.171.483.343.735.514.306.219.625.439.938.665 3.128 2.222 6.589 2.873 6.739 2.901.272.048.544-.062.707-.281.163-.227.184-.522.054-.762-.068-.137-1.652-3.113-4.392-5.321 3.264-.507 5.848-1.995 5.963-2.064.231-.137.367-.39.361-.658-.014-.267-.177-.507-.415-.624z" fill="#e2e6f9"/><path d="m619.414 126.439c-.109-.048-2.653-1.207-5.726-1.262 2.543-2.201 4.06-4.916 4.128-5.039.129-.234.115-.515-.034-.734-.15-.22-.408-.329-.674-.288-.142.02-3.604.583-6.548 2.873-.442.343-.87.679-1.272 1.001.055-.219.109-.439.17-.665.096-.377.191-.761.293-1.145.979-3.792.435-7.454.414-7.605-.04-.267-.231-.48-.482-.562-.259-.075-.531 0-.708.206-.108.123-2.618 2.989-3.604 6.809-.38 1.467-.7 2.756-.897 3.86-.599-.589-1.292-1.207-2.033-1.865-2.598-2.304-5.672-2.873-5.801-2.9-.258-.048-.517.055-.673.267-.156.206-.184.487-.068.72.061.124 1.401 2.866 3.652 5.074-2.707.076-4.93 1.228-5.032 1.276-.218.116-.354.336-.368.583-.013.246.102.48.306.617.102.068 2.285 1.501 5.053 2.002-2.339 2.133-3.686 5.026-3.747 5.157-.109.24-.075.514.082.72.129.171.333.26.537.26.047 0 .095 0 .136-.014.115-.02 2.57-.555 5.011-2.276.524.391 1.17.624 1.864.624.829 0 1.584-.329 2.148-.857v17.643c0 .384.306.693.687.693s.687-.309.687-.693v-18.363c.082 0 .163.013.245.013.741 0 1.428-.26 1.965-.699.231.165.462.329.7.494.3.205.599.418.905.637 3.006 2.14 6.338 2.764 6.474 2.791.258.048.523-.061.68-.274.156-.213.176-.501.054-.734-.068-.13-1.591-2.989-4.223-5.115 3.135-.487 5.617-1.92 5.733-1.989.224-.13.353-.377.34-.631-.014-.26-.17-.486-.402-.596z" fill="#e2e6f9"/><path d="m62.5194 162.33h-28.7912c-.0544-.48-.0816-.967-.0748-1.468.0748-5.856 4.5016-10.553 9.8872-10.484.5576.006 1.1084.068 1.6388.171 1.7816-3.065 5.168-4.786 8.6292-4.052 4.5016.959 7.4256 5.705 6.5348 10.594-.1428.781-.374 1.522-.68 2.201 1.2104.672 2.21 1.735 2.856 3.031z" fill="#e2e6f9"/><path d="m62.5199 163.358h-28.7913c-.5168 0-.952-.391-1.0132-.912-.0612-.541-.0884-1.076-.0816-1.597.0816-6.371 4.9096-11.5 10.7916-11.5h.1293c.374 0 .7479.035 1.1287.083 2.1217-3.12 5.7937-4.691 9.3433-3.936 5.0252 1.069 8.3096 6.363 7.3236 11.787-.102.549-.238 1.083-.4216 1.605 1.0472.754 1.904 1.769 2.5092 2.975.1564.316.1428.7-.0408 1.002-.1836.301-.5168.486-.8704.486zm-27.8461-2.057h25.9013c-.4148-.439-.884-.809-1.4076-1.097-.4692-.26-.6596-.836-.442-1.323.2788-.624.4828-1.283.6052-1.968.7888-4.341-1.7816-8.558-5.7392-9.401-2.958-.631-5.916.768-7.5412 3.565-.2176.377-.646.576-1.0744.487-.4897-.096-.9793-.151-1.4553-.151-.034 0-.068 0-.102 0-4.7736 0-8.6904 4.224-8.7516 9.47v.425z" fill="#d6ddff"/><path d="m669.623 162.33h-28.791c-.055-.48-.082-.967-.075-1.468.075-5.856 4.502-10.553 9.887-10.484.558.006 1.109.068 1.639.171 1.782-3.065 5.168-4.786 8.629-4.052 4.502.959 7.426 5.705 6.535 10.594-.143.781-.374 1.522-.68 2.201 1.21.672 2.21 1.735 2.856 3.031z" fill="#e2e6f9"/><path d="m669.623 163.358h-28.791c-.517 0-.952-.391-1.013-.912-.061-.541-.088-1.076-.082-1.597.082-6.419 5.005-11.589 10.921-11.5.374 0 .748.035 1.129.083 2.122-3.12 5.794-4.691 9.343-3.936 5.025 1.069 8.31 6.363 7.324 11.787-.102.549-.238 1.083-.422 1.605 1.047.754 1.904 1.769 2.509 2.975.164.316.143.7-.04 1.002-.184.301-.517.486-.871.486zm-27.846-2.057h25.902c-.415-.439-.884-.809-1.408-1.097-.469-.26-.66-.836-.442-1.323.279-.624.483-1.283.605-1.968.789-4.341-1.781-8.558-5.739-9.401-2.958-.631-5.916.768-7.541 3.565-.218.377-.653.576-1.075.487-.489-.096-.986-.151-1.462-.158-4.794-.082-8.792 4.19-8.853 9.47v.425z" fill="#d6ddff"/><path d="m232.037 66.8786-31.089-13.1656c-.313-.1303-.674-.096-.959.0891-.286.192-.456.5143-.456.8572v107.3137c0 .569.456 1.028 1.02 1.028h31.09c.564 0 1.02-.459 1.02-1.028v-94.1412c0-.4115-.245-.7886-.626-.9463z" fill="#e2e6f9"/><path d="m145.417 87.3252h-37.706c-.564 0-1.02.3703-1.02.8229v71.1899c0 .453.456.823 1.02.823h37.706c.565 0 1.02-.37 1.02-.823v-71.1968c0-.4526-.455-.8228-1.02-.8228z" fill="#e2e6f9"/><path d="m597.544 95.6582h-28.295c-.422 0-.769.336-.769.7543v65.2525c0 .418.34.754.769.754h28.295c.421 0 .768-.336.768-.754v-65.2525c0-.4183-.34-.7543-.768-.7543z" fill="#e2e6f9"/><path d="m253.648 89.5137h-37.706c-.565 0-1.02.3703-1.02.8228v71.1905c0 .452.455.823 1.02.823h37.706c.564 0 1.02-.371 1.02-.823v-71.1905c0-.4525-.456-.8228-1.02-.8228z" fill="#e2e6f9"/><path d="m332.691 78.748h-20.563c-.306 0-.558.4183-.558.9326v81.0444c0 .514.252.932.558.932h20.563c.306 0 .558-.418.558-.932v-81.0444c0-.5143-.252-.9326-.558-.9326z" fill="#e2e6f9"/><path d="m372.069 102.625h-43.602c-.652 0-1.176.309-1.176.686v59.485c0 .377.53.686 1.176.686h43.602c.653 0 1.177-.309 1.177-.686v-59.485c0-.377-.531-.686-1.177-.686z" fill="#e2e6f9"/><path d="m467.963 55.7832h-26.337c-.394 0-.714.5349-.714 1.1931v103.5007c0 .659.32 1.193.714 1.193h26.337c.394 0 .714-.534.714-1.193v-103.5007c0-.6582-.32-1.1931-.714-1.1931z" fill="#e2e6f9"/><path d="m427.101 81.7988h-20.563c-.306 0-.558.4115-.558.912v79.0072c0 .501.252.912.558.912h20.563c.306 0 .558-.411.558-.912v-79.0072c0-.5005-.252-.912-.558-.912z" fill="#e2e6f9"/><path d="m490.967 102.639h-34.095c-.51 0-.925.308-.925.685v59.486c0 .377.415.685.925.685h34.095c.51 0 .925-.308.925-.685v-59.486c0-.377-.415-.685-.925-.685z" fill="#e2e6f9"/><path d="m296.025 162.24h-31.089v-107.3064l31.089 13.1656z" fill="#e2e6f9"/><path d="m296.026 163.269h-31.09c-.564 0-1.02-.459-1.02-1.029v-107.3062c0-.3429.17-.6652.456-.8572.285-.192.646-.2263.958-.0891l31.09 13.1656c.381.1577.626.5349.626.9463v94.1406c0 .57-.456 1.029-1.02 1.029zm-30.07-2.057h29.05v-92.4338l-29.05-12.3016z" fill="#d6ddff"/><path d="m296.025 71.8438h-31.089v10.5462h31.089z" fill="#fff"/><path d="m296.026 83.4178h-31.09c-.564 0-1.02-.4594-1.02-1.0286v-10.5462c0-.5691.456-1.0285 1.02-1.0285h31.09c.564 0 1.02.4594 1.02 1.0285v10.5462c0 .5692-.456 1.0286-1.02 1.0286zm-30.07-2.0571h29.05v-8.4891h-29.05z" fill="url(#b)"/><path d="m296.025 94.9727h-31.089v10.5463h31.089z" fill="#fff"/><path d="m296.026 106.547h-31.09c-.564 0-1.02-.46-1.02-1.029v-10.5461c0-.5691.456-1.0285 1.02-1.0285h31.09c.564 0 1.02.4594 1.02 1.0285v10.5461c0 .569-.456 1.029-1.02 1.029zm-30.07-2.057h29.05v-8.4895h-29.05z" fill="url(#c)"/><path d="m296.025 118.102h-31.089v10.546h31.089z" fill="#fff"/><path d="m296.026 129.676h-31.09c-.564 0-1.02-.46-1.02-1.029v-10.546c0-.569.456-1.029 1.02-1.029h31.09c.564 0 1.02.46 1.02 1.029v10.546c0 .569-.456 1.029-1.02 1.029zm-30.07-2.058h29.05v-8.489h-29.05z" fill="url(#d)"/><path d="m296.025 141.23h-31.089v10.547h31.089z" fill="#fff"/><path d="m296.026 152.805h-31.09c-.564 0-1.02-.46-1.02-1.029v-10.546c0-.569.456-1.029 1.02-1.029h31.09c.564 0 1.02.46 1.02 1.029v10.546c0 .569-.456 1.029-1.02 1.029zm-30.07-2.058h29.05v-8.489h-29.05z" fill="url(#e)"/><path d="m170.599 72.7285h-37.706v89.1905h37.706z" fill="#e2e6f9"/><path d="m170.599 162.947h-37.706c-.564 0-1.02-.46-1.02-1.029v-89.1902c0-.5692.456-1.0286 1.02-1.0286h37.706c.565 0 1.02.4594 1.02 1.0286v89.1902c0 .569-.455 1.029-1.02 1.029zm-36.686-2.058h35.666v-87.1327h-35.666z" fill="#d6ddff"/><path d="m165.137 79.002h-27.594v6.5142h27.594z" fill="#fff"/><path d="m165.138 86.544h-27.595c-.564 0-1.02-.4594-1.02-1.0285v-6.5143c0-.5691.456-1.0285 1.02-1.0285h27.595c.564 0 1.02.4594 1.02 1.0285v6.5143c0 .5691-.456 1.0285-1.02 1.0285zm-26.575-2.0571h25.555v-4.4571h-25.555z" fill="#ced3f8"/><path d="m165.137 92.0312h-27.594v6.5143h27.594z" fill="#fff"/><path d="m165.138 99.5733h-27.595c-.564 0-1.02-.4594-1.02-1.0285v-6.5143c0-.5691.456-1.0285 1.02-1.0285h27.595c.564 0 1.02.4594 1.02 1.0285v6.5143c0 .5691-.456 1.0285-1.02 1.0285zm-26.575-2.0571h25.555v-4.4571h-25.555z" fill="#ced3f8"/><path d="m165.137 105.059h-27.594v6.514h27.594z" fill="#fff"/><path d="m165.138 112.608h-27.595c-.564 0-1.02-.459-1.02-1.028v-6.514c0-.569.456-1.029 1.02-1.029h27.595c.564 0 1.02.46 1.02 1.029v6.514c0 .569-.456 1.028-1.02 1.028zm-26.575-2.057h25.555v-4.457h-25.555z" fill="#ced3f8"/><path d="m165.137 118.096h-27.594v6.514h27.594z" fill="#fff"/><path d="m165.138 125.638h-27.595c-.564 0-1.02-.46-1.02-1.029v-6.514c0-.569.456-1.029 1.02-1.029h27.595c.564 0 1.02.46 1.02 1.029v6.514c0 .569-.456 1.029-1.02 1.029zm-26.575-2.057h25.555v-4.457h-25.555z" fill="#ced3f8"/><path d="m165.137 131.123h-27.594v6.514h27.594z" fill="#fff"/><path d="m165.138 138.673h-27.595c-.564 0-1.02-.459-1.02-1.029v-6.514c0-.569.456-1.028 1.02-1.028h27.595c.564 0 1.02.459 1.02 1.028v6.514c0 .57-.456 1.029-1.02 1.029zm-26.575-2.057h25.555v-4.457h-25.555z" fill="#ced3f8"/><path d="m165.137 144.158h-27.594v6.514h27.594z" fill="#fff"/><path d="m165.138 151.7h-27.595c-.564 0-1.02-.459-1.02-1.028v-6.515c0-.569.456-1.028 1.02-1.028h27.595c.564 0 1.02.459 1.02 1.028v6.515c0 .569-.456 1.028-1.02 1.028zm-26.575-2.057h25.555v-4.457h-25.555z" fill="#ced3f8"/><path d="m537.221 72.7285h-27.86v89.1905h27.86z" fill="#fff"/><path d="m537.221 162.947h-27.859c-.565 0-1.02-.46-1.02-1.029v-89.1902c0-.5692.455-1.0286 1.02-1.0286h27.859c.565 0 1.02.4594 1.02 1.0286v89.1902c0 .569-.455 1.029-1.02 1.029zm-26.839-2.058h25.819v-87.1327h-25.819z" fill="#ced3f8"/><path d="m533.19 79.002h-20.393v6.5142h20.393z" fill="#fff"/><path d="m533.183 86.544h-20.393c-.565 0-1.02-.4594-1.02-1.0285v-6.5143c0-.5691.455-1.0285 1.02-1.0285h20.393c.564 0 1.02.4594 1.02 1.0285v6.5143c0 .5691-.456 1.0285-1.02 1.0285zm-19.373-2.0571h18.353v-4.4571h-18.353z" fill="#ced3f8"/><path d="m533.19 92.0312h-20.393v6.5143h20.393z" fill="#fff"/><path d="m533.183 99.5733h-20.393c-.565 0-1.02-.4594-1.02-1.0285v-6.5143c0-.5691.455-1.0285 1.02-1.0285h20.393c.564 0 1.02.4594 1.02 1.0285v6.5143c0 .5691-.456 1.0285-1.02 1.0285zm-19.373-2.0571h18.353v-4.4571h-18.353z" fill="#ced3f8"/><path d="m533.19 105.059h-20.393v6.514h20.393z" fill="#fff"/><path d="m533.183 112.608h-20.393c-.565 0-1.02-.459-1.02-1.028v-6.514c0-.569.455-1.029 1.02-1.029h20.393c.564 0 1.02.46 1.02 1.029v6.514c0 .569-.456 1.028-1.02 1.028zm-19.373-2.057h18.353v-4.457h-18.353z" fill="#ced3f8"/><path d="m533.19 118.096h-20.393v6.514h20.393z" fill="#fff"/><path d="m533.183 125.638h-20.393c-.565 0-1.02-.46-1.02-1.029v-6.514c0-.569.455-1.029 1.02-1.029h20.393c.564 0 1.02.46 1.02 1.029v6.514c0 .569-.456 1.029-1.02 1.029zm-19.373-2.057h18.353v-4.457h-18.353z" fill="#ced3f8"/><path d="m533.19 131.123h-20.393v6.514h20.393z" fill="#fff"/><path d="m533.183 138.673h-20.393c-.565 0-1.02-.459-1.02-1.029v-6.514c0-.569.455-1.028 1.02-1.028h20.393c.564 0 1.02.459 1.02 1.028v6.514c0 .57-.456 1.029-1.02 1.029zm-19.373-2.057h18.353v-4.457h-18.353z" fill="#ced3f8"/><path d="m533.19 144.158h-20.393v6.514h20.393z" fill="#fff"/><path d="m533.183 151.7h-20.393c-.565 0-1.02-.459-1.02-1.028v-6.515c0-.569.455-1.028 1.02-1.028h20.393c.564 0 1.02.459 1.02 1.028v6.515c0 .569-.456 1.028-1.02 1.028zm-19.373-2.057h18.353v-4.457h-18.353z" fill="#ced3f8"/><path d="m182.633 41.2656 5.977 12.6034 5.433-12.6034v121.6244h-11.41z" fill="#e2e6f9"/><path d="m194.044 163.919h-11.411c-.564 0-1.02-.46-1.02-1.029v-121.6241c0-.48.333-.8982.796-1.0011.469-.1029.938.1234 1.149.5623l5.012 10.5668 4.542-10.5325c.191-.4457.673-.6926 1.143-.5966.476.096.809.5211.809 1.008v121.6172c0 .569-.456 1.029-1.02 1.029zm-10.391-2.057h9.371v-115.6452l-3.475 8.0639c-.156.3703-.517.6103-.918.6172-.429.0068-.769-.2195-.939-.5829l-4.032-8.5097v116.0567z" fill="#d6ddff"/><path d="m185.083 162.892h-18.741v-90.9458l2.849-30.6786h13.444l2.448 24.5209z" fill="#fff"/><path d="m185.083 163.92h-18.741c-.564 0-1.02-.46-1.02-1.029v-90.9455s0-.0617 0-.096l2.849-30.6787c.048-.528.49-.9325 1.014-.9325h13.443c.524 0 .966.3977 1.013.9257l2.442 24.5141v.1029 97.11c0 .569-.456 1.029-1.02 1.029zm-17.721-2.057h16.701v-96.0272l-2.346-23.5404h-11.594l-2.761 29.6981z" fill="#ced3f8"/><path d="m210.344 162.89h-18.74v-96.2874l2.441-25.337h13.042l3.257 29.0398z" fill="#fff"/><path d="m210.345 163.919h-18.741c-.564 0-1.02-.46-1.02-1.029v-96.2871s0-.0686 0-.1029l2.441-25.337c.055-.528.49-.9325 1.013-.9325h13.043c.517 0 .952.3908 1.013.912l3.257 29.0398v.1165 92.5912c0 .569-.455 1.029-1.02 1.029zm-17.721-2.057h16.701v-91.5015l-3.149-28.066h-11.199l-2.353 24.3632z" fill="#ced3f8"/><path d="m166.342 71.9453 18.741 33.6957z" fill="#fff"/><path d="m185.082 106.669c-.353 0-.7-.192-.891-.528l-18.74-33.6957c-.279-.4937-.102-1.1246.394-1.3988.49-.2743 1.115-.1029 1.387.3908l18.741 33.6957c.279.494.102 1.125-.394 1.399-.157.089-.327.13-.497.13z" fill="#ced3f8"/><path d="m184.879 63.709-18.537 36.178z" fill="#fff"/><path d="m166.342 100.916c-.157 0-.32-.034-.469-.116-.504-.261-.694-.8849-.436-1.3855l18.537-36.178c.259-.5074.877-.6994 1.374-.4388.503.2605.693.8845.435 1.3851l-18.537 36.1782c-.183.356-.537.555-.904.555z" fill="#ced3f8"/><path d="m184.879 110.98-18.537 51.909z" fill="#fff"/><path d="m166.342 163.918c-.116 0-.231-.021-.347-.062-.53-.192-.802-.781-.612-1.316l18.537-51.909c.19-.534.775-.809 1.305-.617.531.192.803.782.612 1.317l-18.536 51.908c-.15.418-.544.679-.959.679z" fill="#ced3f8"/><path d="m166.342 116.322 18.741 46.567z" fill="#fff"/><path d="m185.083 163.918c-.401 0-.782-.24-.945-.644l-18.741-46.567c-.211-.528.041-1.124.564-1.337.524-.213 1.115.041 1.326.569l18.741 46.567c.211.528-.041 1.124-.564 1.337-.13.055-.259.075-.381.075z" fill="#ced3f8"/><path d="m210.342 71.9453-18.74 33.6957z" fill="#fff"/><path d="m191.602 106.669c-.17 0-.339-.041-.496-.13-.489-.281-.666-.905-.394-1.399l18.741-33.6957c.278-.4938.897-.672 1.387-.3909.489.2811.666.9051.394 1.3989l-18.741 33.6957c-.19.336-.537.528-.891.528z" fill="#ced3f8"/><path d="m191.807 63.709 18.536 36.178z" fill="#fff"/><path d="m210.344 100.915c-.367 0-.728-.206-.904-.555l-18.537-36.1785c-.259-.5074-.061-1.1246.435-1.3851.496-.2606 1.115-.0617 1.374.4388l18.536 36.178c.259.5075.062 1.1248-.435 1.3848-.149.076-.313.117-.469.117z" fill="#ced3f8"/><path d="m191.807 110.98 18.536 51.909z" fill="#fff"/><path d="m210.343 163.918c-.414 0-.809-.261-.958-.679l-18.537-51.908c-.191-.535.081-1.125.612-1.317.523-.192 1.115.083 1.305.617l18.537 51.909c.191.535-.081 1.124-.612 1.316-.115.041-.231.062-.347.062z" fill="#ced3f8"/><path d="m210.344 116.322-18.74 46.567z" fill="#fff"/><path d="m191.604 163.918c-.13 0-.259-.027-.381-.075-.524-.213-.775-.816-.565-1.337l18.741-46.567c.211-.528.803-.782 1.326-.569.524.213.776.816.565 1.337l-18.741 46.567c-.163.397-.544.644-.945.644z" fill="#ced3f8"/><path d="m685.917 163.899h-675.1255c-.5644 0-1.02002-.46-1.02002-1.029s.45562-1.028 1.02002-1.028h675.1255c.564 0 1.02.459 1.02 1.028s-.456 1.029-1.02 1.029z" fill="#d6ddff"/><path d="m698.979 163.844h-7.385c-.564 0-1.02-.459-1.02-1.028s.456-1.029 1.02-1.029h7.385c.564 0 1.02.46 1.02 1.029s-.456 1.028-1.02 1.028z" fill="#d6ddff"/><path d="m4.60361 163.989h-3.58361c-.564399 0-1.02-.46-1.02-1.029s.455601-1.028 1.02-1.028h3.58361c.5644 0 1.02.459 1.02 1.028s-.4556 1.029-1.02 1.029z" fill="#d6ddff"/><path d="m275.978 4.7813c-3.706-.56228-8.01-.96685-12.791-.96685-4.821 0-9.152.40457-12.879.96685l-5.447 157.8847h36.04c-2.318-52.628-2.597-105.2565-4.916-157.8847zm-13.103 51.0031c-5.141 0-9.31-24.2536-9.31-35.9381 0-.3702 0-.7337.014-1.0971 2.55-.5143 5.746-.9394 9.425-.9257 3.57.0069 6.677.4251 9.173.9257.007.3634.014.7269.014 1.0971 0 11.6845-4.169 35.9381-9.31 35.9381z" fill="#fff"/><path d="m280.894 163.694h-36.04c-.278 0-.544-.11-.734-.316-.19-.199-.292-.473-.286-.747l5.447-157.88471c.021-.49372.381-.90514.871-.98057 4.284-.65142 8.656-.98056 12.988-.98056h.047c4.318 0 8.67.32914 12.947.98056.483.07543.844.48.864.97371 1.163 26.31757 1.822 53.07387 2.455 78.94577.639 25.8718 1.299 52.6278 2.455 78.9318.013.281-.089.556-.279.754-.191.199-.456.316-.735.316zm-34.986-2.057h33.919c-1.129-25.982-1.782-52.368-2.414-77.897-.633-25.5838-1.285-52.0316-2.421-78.06115-3.91-.55542-7.874-.83657-11.812-.83657h-.047c-3.944 0-7.929.28115-11.846.83657l-5.385 155.95815zm16.966-104.8248c-6.779 0-10.329-27.4695-10.329-36.9666 0-.3771 0-.7474.014-1.1246.013-.48.353-.8914.823-.9874 3.162-.6377 6.432-.96 9.628-.9463 3.142.0069 6.29.3292 9.371.9463.469.096.809.5006.823.9874.006.3703.013.7475.013 1.1246 0 9.4971-3.549 36.9666-10.329 36.9666zm-8.289-37.2134v.2468c0 6.0205 1.088 14.9073 2.7 22.1279 2.257 10.0936 4.576 12.7816 5.589 12.7816 1.014 0 3.332-2.6949 5.59-12.7816 1.618-7.2137 2.7-16.1074 2.7-22.1279 0-.0823 0-.1646 0-.2468-2.693-.4938-5.434-.7475-8.167-.7543-2.822-.0069-5.644.2468-8.419.7543z" fill="#ced3f8"/><path d="m322.238 70.4766c1.116 7.9199 2.102 16.0798 2.931 24.4798 2.414 24.3566 3.149 46.9776 2.856 67.5016h-27.744c.163-21.031 1.238-43.762 3.659-67.9473.822-8.2011 1.761-16.217 2.801-24.0341z" fill="#fff"/><path d="m328.026 163.487h-27.744c-.272 0-.531-.11-.721-.302s-.299-.459-.299-.733c.177-22.629 1.407-45.518 3.658-68.0433.803-7.9885 1.741-16.0868 2.809-24.0616.074-.5622.591-.9531 1.149-.8845.557.0754.952.5965.877 1.1588-1.061 7.9543-1.999 16.0319-2.795 23.9999-2.217 22.1137-3.441 44.5847-3.645 66.8157h25.704c.272-22.073-.686-44.393-2.862-66.37-.81-8.1394-1.789-16.3611-2.924-24.4387-.082-.5623.306-1.0834.863-1.1657.551-.0755 1.075.3085 1.156.8708 1.143 8.1051 2.129 16.3542 2.938 24.521 2.217 22.3886 3.175 45.1406 2.863 67.6176-.007.562-.463 1.015-1.02 1.015z" fill="#ced3f8"/><path d="m308.529 55.3091c1.693-11.2594 3.591-22.073 5.624-32.4341 2.224 10.1622 4.345 21.1541 6.181 32.4341z" fill="#fff"/><path d="m320.335 56.3379c-.49 0-.925-.3566-1.007-.864-1.489-9.1679-3.209-18.3907-5.12-27.4901-1.727 9.1268-3.291 18.3496-4.672 27.4764-.081.5623-.605.9531-1.162.864-.558-.0823-.939-.6103-.857-1.1726 1.625-10.7999 3.522-21.7301 5.63-32.482.095-.48.51-.8229.986-.8298h.014c.476 0 .891.336.993.8092 2.339 10.7039 4.426 21.6341 6.188 32.4889.088.5623-.286 1.0903-.844 1.1794-.054.0069-.108.0137-.17.0137z" fill="#ced3f8"/><path d="m314.405 68.1327c3.271 0 5.923-2.4008 5.923-5.3622 0-2.9615-2.652-5.3623-5.923-5.3623s-5.923 2.4008-5.923 5.3623c0 2.9614 2.652 5.3622 5.923 5.3622z" fill="#e2e6f9"/><path d="m314.406 69.1605c-3.829 0-6.943-2.8662-6.943-6.3908 0-3.5245 3.114-6.3908 6.943-6.3908 3.828 0 6.943 2.8663 6.943 6.3908 0 3.5246-3.115 6.3908-6.943 6.3908zm0-10.7176c-2.707 0-4.903 1.9406-4.903 4.3337s2.203 4.3337 4.903 4.3337c2.699 0 4.903-1.9406 4.903-4.3337s-2.204-4.3337-4.903-4.3337z" fill="#d6ddff"/><path d="m322.538 81.5239h-16.707c-.565 0-1.02-.4594-1.02-1.0285 0-.5692.455-1.0286 1.02-1.0286h16.707c.565 0 1.02.4594 1.02 1.0286 0 .5691-.455 1.0285-1.02 1.0285z" fill="#ced3f8"/><path d="m324.55 95.1836h-19.72l9.86 6.6444z" fill="#fff"/><path d="m314.691 102.857c-.198 0-.395-.055-.565-.172l-9.86-6.6441c-.374-.2537-.537-.7199-.408-1.1519s.524-.7269.979-.7269h19.72c.449 0 .844.2949.98.7269.129.432-.034.9051-.408 1.1519l-9.86 6.6441c-.17.117-.368.172-.565.172zm-6.494-6.6446 6.494 4.3816 6.494-4.3816h-12.995z" fill="#ced3f8"/><path d="m325.809 102.856h-22.562c-.565 0-1.02-.459-1.02-1.029 0-.569.455-1.028 1.02-1.028h22.562c.564 0 1.02.459 1.02 1.028 0 .57-.456 1.029-1.02 1.029z" fill="#ced3f8"/><path d="m327.23 121.982h-25.527l12.988 7.818z" fill="#fff"/><path d="m314.69 130.827c-.183 0-.36-.048-.523-.144l-12.988-7.817c-.395-.24-.585-.713-.463-1.159.123-.445.524-.754.986-.754h25.528c.455 0 .857.309.979.748.122.438-.054.912-.442 1.158l-12.539 7.817c-.164.103-.354.151-.538.151zm-9.288-7.817 9.282 5.589 8.955-5.589z" fill="#ced3f8"/><path d="m327.231 130.827h-25.527c-.565 0-1.02-.46-1.02-1.029s.455-1.028 1.02-1.028h25.527c.564 0 1.02.459 1.02 1.028s-.456 1.029-1.02 1.029z" fill="#ced3f8"/><path d="m328.079 155.484h-27.71l13.811 6.974z" fill="#fff"/><path d="m314.181 163.487c-.156 0-.312-.034-.455-.11l-13.818-6.974c-.421-.212-.646-.692-.537-1.158.109-.467.517-.796.993-.796h27.717c.476 0 .884.329.992.796.109.466-.115.946-.537 1.158l-13.899 6.974c-.143.069-.299.11-.456.11zm-9.499-6.974 9.499 4.793 9.561-4.793z" fill="#ced3f8"/><path d="m306.994 75.0293 7.412 5.4651 8.452-5.4651h-16.708z" fill="#fff"/><path d="m314.406 81.5232c-.211 0-.422-.0685-.598-.1988l-7.147-5.2731h-.51c-.565 0-1.02-.4595-1.02-1.0286s.455-1.0286 1.02-1.0286h16.707c.456 0 .85.3018.98.7406.129.4389-.048.912-.429 1.152l-8.452 5.4651c-.17.1097-.361.1646-.551.1646zm-4.298-5.4651 4.332 3.1954 4.937-3.1954z" fill="#ced3f8"/><path d="m318.785 47.2798h-8.833c-.565 0-1.02-.4594-1.02-1.0286 0-.5691.455-1.0285 1.02-1.0285h8.833c.564 0 1.02.4594 1.02 1.0285 0 .5692-.456 1.0286-1.02 1.0286z" fill="#ced3f8"/><path d="m317.954 42.7192h-7.248c-.565 0-1.02-.4594-1.02-1.0285 0-.5692.455-1.0286 1.02-1.0286h7.248c.565 0 1.02.4594 1.02 1.0286 0 .5691-.455 1.0285-1.02 1.0285z" fill="#ced3f8"/><path d="m317.092 38.1606h-5.59c-.564 0-1.02-.4594-1.02-1.0285 0-.5692.456-1.0286 1.02-1.0286h5.59c.564 0 1.02.4594 1.02 1.0286 0 .5691-.456 1.0285-1.02 1.0285z" fill="#ced3f8"/><path d="m318.785 52.2642h-8.833c-.565 0-1.02-.4595-1.02-1.0286s.455-1.0286 1.02-1.0286h8.833c.564 0 1.02.4595 1.02 1.0286s-.456 1.0286-1.02 1.0286z" fill="#ced3f8"/><path d="m324.014 85.3032h-18.978c-.565 0-1.02-.4594-1.02-1.0285 0-.5692.455-1.0286 1.02-1.0286h18.978c.565 0 1.02.4594 1.02 1.0286 0 .5691-.455 1.0285-1.02 1.0285z" fill="#ced3f8"/><path d="m323.675 91.0142h-18.979c-.565 0-1.02-.4595-1.02-1.0286s.455-1.0286 1.02-1.0286h18.979c.564 0 1.02.4595 1.02 1.0286s-.456 1.0286-1.02 1.0286z" fill="#ced3f8"/><path d="m326.143 107.629h-23.352c-.564 0-1.02-.459-1.02-1.028s.456-1.029 1.02-1.029h23.352c.564 0 1.02.46 1.02 1.029s-.456 1.028-1.02 1.028z" fill="#ced3f8"/><path d="m326.367 112.655h-23.351c-.564 0-1.02-.46-1.02-1.029s.456-1.028 1.02-1.028h23.351c.565 0 1.02.459 1.02 1.028s-.455 1.029-1.02 1.029z" fill="#ced3f8"/><path d="m326.176 118.1h-23.351c-.565 0-1.02-.459-1.02-1.028 0-.57.455-1.029 1.02-1.029h23.351c.564 0 1.02.459 1.02 1.029 0 .569-.456 1.028-1.02 1.028z" fill="#ced3f8"/><path d="m327.863 136.188h-26.71c-.565 0-1.02-.459-1.02-1.029 0-.569.455-1.028 1.02-1.028h26.71c.565 0 1.02.459 1.02 1.028 0 .57-.455 1.029-1.02 1.029z" fill="#ced3f8"/><path d="m327.863 142.305h-26.71c-.565 0-1.02-.459-1.02-1.028 0-.57.455-1.029 1.02-1.029h26.71c.565 0 1.02.459 1.02 1.029 0 .569-.455 1.028-1.02 1.028z" fill="#ced3f8"/><path d="m327.863 148.415h-26.71c-.565 0-1.02-.46-1.02-1.029s.455-1.029 1.02-1.029h26.71c.565 0 1.02.46 1.02 1.029s-.455 1.029-1.02 1.029z" fill="#ced3f8"/><path d="m314.18 76.0592c-.564 0-1.02-.4594-1.02-1.0285v-23.7873c0-.5691.456-1.0286 1.02-1.0286.565 0 1.02.4595 1.02 1.0286v23.7873c0 .5691-.455 1.0285-1.02 1.0285z" fill="#ced3f8"/><path d="m579.062 88.0957h-41.378v74.5363h41.378z" fill="#fff"/><path d="m579.055 163.66h-41.371c-.564 0-1.02-.459-1.02-1.028v-74.537c0-.5692.456-1.0286 1.02-1.0286h41.371c.565 0 1.02.4594 1.02 1.0286v74.537c0 .569-.455 1.028-1.02 1.028zm-40.351-2.057h39.331v-72.4795h-39.331z" fill="#ced3f8"/><path d="m559.648 88.0955v-30.6443c-8.833 1.2548-19.468 17.8696-19.468 30.2603 0 .1303.007.2537.013.384z" fill="#fff"/><path d="m559.649 89.1234h-19.455c-.558 0-1.013-.4525-1.02-1.0148v-.144c-.007-.0823-.014-.1714-.014-.2606 0-13.001 11.03-29.9586 20.346-31.282.292-.0412.585.048.809.24.224.1988.354.48.354.7748v30.6444c0 .5691-.456 1.0285-1.02 1.0285zm-18.435-2.0571h17.415v-28.3472c-7.95 2.3588-17.082 17.0399-17.415 28.3472z" fill="#ced3f8"/><path d="m559.648 88.0958v-26.6056c7.678 1.0903 16.912 15.5108 16.912 26.2696 0 .1165-.007.2194-.007.336h-16.898z" fill="#fff"/><path d="m576.547 89.1236h-16.898c-.564 0-1.02-.4594-1.02-1.0285v-26.6055c0-.2949.129-.5829.354-.7749.224-.192.516-.2811.809-.24 8.146 1.1588 17.789 15.9496 17.789 27.2912v.2332.1165c-.014.5623-.47 1.008-1.02 1.008zm-15.878-2.0571h14.858c-.36-9.6685-8.072-22.1141-14.858-24.2878z" fill="#ced3f8"/><path d="m556.044 74.7937c0 1.7074-1.374 3.0926-3.067 3.0926s-3.067-1.3852-3.067-3.0926 1.374-3.0925 3.067-3.0925 3.067 1.3851 3.067 3.0925z" fill="#fff"/><path d="m552.977 78.9141c-2.25 0-4.086-1.8514-4.086-4.1211s1.836-4.1211 4.086-4.1211c2.251 0 4.087 1.8514 4.087 4.1211s-1.836 4.1211-4.087 4.1211zm0-6.1851c-1.128 0-2.046.9257-2.046 2.064s.918 2.064 2.046 2.064c1.129 0 2.047-.9257 2.047-2.064s-.918-2.064-2.047-2.064z" fill="#ced3f8"/><path d="m567.433 80.4766h-15.456v3.5177h15.456z" fill="#fff"/><path d="m567.433 85.0221h-15.456c-.564 0-1.02-.4594-1.02-1.0286v-3.5177c0-.5691.456-1.0285 1.02-1.0285h15.456c.565 0 1.02.4594 1.02 1.0285v3.5177c0 .5692-.455 1.0286-1.02 1.0286zm-14.436-2.0571h13.416v-1.4606h-13.416z" fill="#ced3f8"/><path d="m569.44 162.631h-22.141v-60.945c4.637-1.9684 8.826-2.229 11.07-2.229s6.433.2606 11.071 2.229z" fill="#e2e6f9"/><path d="m569.44 163.659h-22.141c-.564 0-1.02-.459-1.02-1.028v-60.939c0-.412.245-.789.626-.947 3.556-1.5082 7.528-2.3036 11.465-2.3036s7.908.7954 11.465 2.3036c.38.158.625.535.625.947v60.939c0 .569-.455 1.028-1.02 1.028zm-21.121-2.057h20.101v-59.218c-6.297-2.4752-13.804-2.4752-20.101 0z" fill="#d6ddff"/><path d="m552.67 163.661c-.564 0-1.02-.459-1.02-1.029v-62.447c0-.5693.456-1.0288 1.02-1.0288.565 0 1.02.4595 1.02 1.0288v62.447c0 .57-.455 1.029-1.02 1.029z" fill="#ced3f8"/><path d="m558.104 163.661c-.564 0-1.02-.459-1.02-1.029v-62.447c0-.5693.456-1.0288 1.02-1.0288s1.02.4595 1.02 1.0288v62.447c0 .57-.456 1.029-1.02 1.029z" fill="#ced3f8"/><path d="m563.518 163.661c-.564 0-1.02-.459-1.02-1.029v-62.447c0-.5693.456-1.0288 1.02-1.0288s1.02.4595 1.02 1.0288v62.447c0 .57-.456 1.029-1.02 1.029z" fill="#ced3f8"/><path d="m546.517 108.754h-8.833c-.564 0-1.02-.459-1.02-1.028s.456-1.029 1.02-1.029h8.833c.565 0 1.02.46 1.02 1.029s-.455 1.028-1.02 1.028z" fill="#ced3f8"/><path d="m546.517 114.907h-8.833c-.564 0-1.02-.46-1.02-1.029s.456-1.028 1.02-1.028h8.833c.565 0 1.02.459 1.02 1.028s-.455 1.029-1.02 1.029z" fill="#ced3f8"/><path d="m546.517 121.063h-8.833c-.564 0-1.02-.459-1.02-1.029 0-.569.456-1.028 1.02-1.028h8.833c.565 0 1.02.459 1.02 1.028 0 .57-.455 1.029-1.02 1.029z" fill="#ced3f8"/><path d="m546.517 127.215h-8.833c-.564 0-1.02-.459-1.02-1.028s.456-1.029 1.02-1.029h8.833c.565 0 1.02.46 1.02 1.029s-.455 1.028-1.02 1.028z" fill="#ced3f8"/><path d="m546.517 133.366h-8.833c-.564 0-1.02-.46-1.02-1.029s.456-1.028 1.02-1.028h8.833c.565 0 1.02.459 1.02 1.028s-.455 1.029-1.02 1.029z" fill="#ced3f8"/><path d="m546.517 139.516h-8.833c-.564 0-1.02-.459-1.02-1.028 0-.57.456-1.029 1.02-1.029h8.833c.565 0 1.02.459 1.02 1.029 0 .569-.455 1.028-1.02 1.028z" fill="#ced3f8"/><path d="m546.517 145.674h-8.833c-.564 0-1.02-.459-1.02-1.028s.456-1.029 1.02-1.029h8.833c.565 0 1.02.46 1.02 1.029s-.455 1.028-1.02 1.028z" fill="#ced3f8"/><path d="m546.517 151.825h-8.833c-.564 0-1.02-.46-1.02-1.029s.456-1.028 1.02-1.028h8.833c.565 0 1.02.459 1.02 1.028s-.455 1.029-1.02 1.029z" fill="#ced3f8"/><path d="m546.517 157.975h-8.833c-.564 0-1.02-.459-1.02-1.028 0-.57.456-1.029 1.02-1.029h8.833c.565 0 1.02.459 1.02 1.029 0 .569-.455 1.028-1.02 1.028z" fill="#ced3f8"/><path d="m578.273 108.754h-8.833c-.564 0-1.02-.459-1.02-1.028s.456-1.029 1.02-1.029h8.833c.565 0 1.02.46 1.02 1.029s-.455 1.028-1.02 1.028z" fill="#ced3f8"/><path d="m578.273 114.907h-8.833c-.564 0-1.02-.46-1.02-1.029s.456-1.028 1.02-1.028h8.833c.565 0 1.02.459 1.02 1.028s-.455 1.029-1.02 1.029z" fill="#ced3f8"/><path d="m578.273 121.063h-8.833c-.564 0-1.02-.459-1.02-1.029 0-.569.456-1.028 1.02-1.028h8.833c.565 0 1.02.459 1.02 1.028 0 .57-.455 1.029-1.02 1.029z" fill="#ced3f8"/><path d="m578.273 127.215h-8.833c-.564 0-1.02-.459-1.02-1.028s.456-1.029 1.02-1.029h8.833c.565 0 1.02.46 1.02 1.029s-.455 1.028-1.02 1.028z" fill="#ced3f8"/><path d="m578.273 133.366h-8.833c-.564 0-1.02-.46-1.02-1.029s.456-1.028 1.02-1.028h8.833c.565 0 1.02.459 1.02 1.028s-.455 1.029-1.02 1.029z" fill="#ced3f8"/><path d="m578.273 139.516h-8.833c-.564 0-1.02-.459-1.02-1.028 0-.57.456-1.029 1.02-1.029h8.833c.565 0 1.02.459 1.02 1.029 0 .569-.455 1.028-1.02 1.028z" fill="#ced3f8"/><path d="m578.273 145.674h-8.833c-.564 0-1.02-.459-1.02-1.028s.456-1.029 1.02-1.029h8.833c.565 0 1.02.46 1.02 1.029s-.455 1.028-1.02 1.028z" fill="#ced3f8"/><path d="m578.273 151.825h-8.833c-.564 0-1.02-.46-1.02-1.029s.456-1.028 1.02-1.028h8.833c.565 0 1.02.459 1.02 1.028s-.455 1.029-1.02 1.029z" fill="#ced3f8"/><path d="m578.273 157.975h-8.833c-.564 0-1.02-.459-1.02-1.028 0-.57.456-1.029 1.02-1.029h8.833c.565 0 1.02.459 1.02 1.029 0 .569-.455 1.028-1.02 1.028z" fill="#ced3f8"/><path d="m351.696 76.3145h-11.384v86.1045h11.384z" fill="#fff"/><path d="m351.696 163.447h-11.383c-.564 0-1.02-.46-1.02-1.029v-86.1043c0-.5691.456-1.0285 1.02-1.0285h11.383c.565 0 1.02.4594 1.02 1.0285v86.1043c0 .569-.455 1.029-1.02 1.029zm-10.363-2.057h9.343v-84.0477h-9.343z" fill="#ced3f8"/><path d="m355.666 72.8438h-19.033v3.4696h19.033z" fill="#fff"/><path d="m355.667 77.3413h-19.034c-.564 0-1.02-.4595-1.02-1.0286v-3.4697c0-.5691.456-1.0285 1.02-1.0285h19.034c.564 0 1.02.4594 1.02 1.0285v3.4697c0 .5691-.456 1.0286-1.02 1.0286zm-18.014-2.0572h16.994v-1.4125h-16.994z" fill="#ced3f8"/><path d="m351.696 69.6211h-11.384v3.2297h11.384z" fill="#fff"/><path d="m351.696 73.8728h-11.383c-.564 0-1.02-.4595-1.02-1.0286v-3.2297c0-.5691.456-1.0286 1.02-1.0286h11.383c.565 0 1.02.4595 1.02 1.0286v3.2297c0 .5691-.455 1.0286-1.02 1.0286zm-10.363-2.0572h9.343v-1.1725h-9.343z" fill="#ced3f8"/><path d="m346.003 65.4036c9.167 0 16.599-4.0555 16.599-9.0583 0-5.0027-7.432-9.0582-16.599-9.0582s-16.599 4.0555-16.599 9.0582c0 5.0028 7.432 9.0583 16.599 9.0583z" fill="#fff"/><path d="m346.004 66.4314c-9.881 0-17.619-4.4297-17.619-10.0868s7.738-10.0868 17.619-10.0868c9.88 0 17.618 4.4297 17.618 10.0868s-7.738 10.0868-17.618 10.0868zm0-18.1165c-8.446 0-15.579 3.6754-15.579 8.0297s7.133 8.0297 15.579 8.0297c8.445 0 15.578-3.6754 15.578-8.0297s-7.133-8.0297-15.578-8.0297z" fill="#ced3f8"/><path d="m353.355 64.0605h-14.41v5.5611h14.41z" fill="#fff"/><path d="m353.355 70.6495h-14.409c-.565 0-1.02-.4594-1.02-1.0286v-5.5611c0-.5691.455-1.0286 1.02-1.0286h14.409c.564 0 1.02.4595 1.02 1.0286v5.5611c0 .5692-.456 1.0286-1.02 1.0286zm-13.389-2.0572h12.369v-3.5039h-12.369z" fill="#ced3f8"/><path d="m353.206 43.0703h-14.409v5.5611h14.409z" fill="#fff"/><path d="m353.207 49.6593h-14.41c-.564 0-1.02-.4595-1.02-1.0286v-5.5611c0-.5692.456-1.0286 1.02-1.0286h14.41c.564 0 1.02.4594 1.02 1.0286v5.5611c0 .5691-.456 1.0286-1.02 1.0286zm-13.39-2.0572h12.37v-3.504h-12.37z" fill="#ced3f8"/><path d="m348.14 17.2402h-4.271v25.8307h4.271z" fill="#fff"/><path d="m348.14 44.0987h-4.27c-.565 0-1.02-.4594-1.02-1.0285v-25.8307c0-.5691.455-1.0286 1.02-1.0286h4.27c.564 0 1.02.4595 1.02 1.0286v25.8307c0 .5691-.456 1.0285-1.02 1.0285zm-3.25-2.0571h2.23v-23.7735h-2.23z" fill="#ced3f8"/><path d="m362.603 57.3735h-33.204c-.564 0-1.02-.4594-1.02-1.0285 0-.5692.456-1.0286 1.02-1.0286h33.204c.565 0 1.02.4594 1.02 1.0286 0 .5691-.455 1.0285-1.02 1.0285z" fill="#ced3f8"/><path d="m343.87 163.446c-.565 0-1.02-.46-1.02-1.029v-85.1443c0-.5691.455-1.0286 1.02-1.0286.564 0 1.02.4595 1.02 1.0286v85.1443c0 .569-.456 1.029-1.02 1.029z" fill="#ced3f8"/><path d="m450.031 76.9864h-11.336v-37.0626c2.605 0 12.92 26.5438 12.92 32.2832z" fill="#fff"/><path d="m450.031 78.0143h-11.335c-.565 0-1.02-.4595-1.02-1.0286v-37.0626c0-.5691.455-1.0286 1.02-1.0286.714 0 2.604 0 8.384 14.6399 2.768 7.0011 5.556 15.4902 5.556 18.6719 0 .1097-.021.2194-.055.3291l-1.584 4.7794c-.136.4183-.53.6995-.966.6995zm-10.315-2.0572h9.581l1.299-3.9085c-.15-5.3554-7.48-23.9998-10.88-29.5884z" fill="#ced3f8"/><path d="m438.695 2.01562v37.90598l3.774 5.5474z" fill="#fff"/><path d="m442.47 46.4981c-.327 0-.646-.1577-.843-.4457l-3.774-5.5405c-.116-.1714-.177-.3771-.177-.5828v-37.91293c0-.54857.428-1.00114.972-1.028567.537-.027428 1.013.390857 1.061.939427l3.774 43.45337c.041.4663-.238.8983-.673 1.056-.116.0412-.231.0617-.347.0617zm-2.754-6.8913 1.401 2.0571-1.401-16.1073z" fill="#ced3f8"/><path d="m459.918 161.704h-26.799v-80.379l15.763-17.9793 11.036 22.3473z" fill="#fff"/><path d="m459.918 162.733h-26.798c-.565 0-1.02-.46-1.02-1.029v-80.3787c0-.2538.088-.4938.258-.6789l15.762-17.9724c.225-.2538.565-.384.898-.336s.626.2537.782.5622l11.036 22.3473c.068.144.109.3017.109.4594v76.0111c0 .569-.455 1.028-1.02 1.028zm-25.778-2.057h24.758v-74.7359l-10.254-20.7633-14.504 16.5393v78.9659z" fill="#ced3f8"/><path d="m452.697 83.8496h-14.002v3.696h14.002z" fill="#fff"/><path d="m452.697 88.5734h-14.001c-.565 0-1.02-.4594-1.02-1.0285v-3.696c0-.5692.455-1.0286 1.02-1.0286h14.001c.564 0 1.02.4594 1.02 1.0286v3.696c0 .5691-.456 1.0285-1.02 1.0285zm-12.981-2.0571h11.961v-1.6389h-11.961z" fill="#ced3f8"/><path d="m452.697 92.6191h-14.002v3.696h14.002z" fill="#fff"/><path d="m452.697 97.3429h-14.001c-.565 0-1.02-.4594-1.02-1.0285v-3.696c0-.5691.455-1.0286 1.02-1.0286h14.001c.564 0 1.02.4595 1.02 1.0286v3.696c0 .5691-.456 1.0285-1.02 1.0285zm-12.981-2.0571h11.961v-1.6388h-11.961z" fill="#ced3f8"/><path d="m452.697 101.391h-14.002v3.696h14.002z" fill="#fff"/><path d="m452.697 106.114h-14.001c-.565 0-1.02-.459-1.02-1.028v-3.696c0-.569.455-1.029 1.02-1.029h14.001c.564 0 1.02.46 1.02 1.029v3.696c0 .569-.456 1.028-1.02 1.028zm-12.981-2.057h11.961v-1.639h-11.961z" fill="#ced3f8"/><path d="m452.697 110.16h-14.002v3.696h14.002z" fill="#fff"/><path d="m452.697 114.884h-14.001c-.565 0-1.02-.459-1.02-1.029v-3.696c0-.569.455-1.028 1.02-1.028h14.001c.564 0 1.02.459 1.02 1.028v3.696c0 .57-.456 1.029-1.02 1.029zm-12.981-2.057h11.961v-1.639h-11.961z" fill="#ced3f8"/><path d="m452.697 118.93h-14.002v3.696h14.002z" fill="#fff"/><path d="m452.697 123.653h-14.001c-.565 0-1.02-.459-1.02-1.028v-3.696c0-.569.455-1.029 1.02-1.029h14.001c.564 0 1.02.46 1.02 1.029v3.696c0 .569-.456 1.028-1.02 1.028zm-12.981-2.057h11.961v-1.638h-11.961z" fill="#ced3f8"/><path d="m452.697 127.701h-14.002v3.696h14.002z" fill="#fff"/><path d="m452.697 132.425h-14.001c-.565 0-1.02-.459-1.02-1.029v-3.696c0-.569.455-1.028 1.02-1.028h14.001c.564 0 1.02.459 1.02 1.028v3.696c0 .57-.456 1.029-1.02 1.029zm-12.981-2.057h11.961v-1.639h-11.961z" fill="#ced3f8"/><path d="m452.697 136.471h-14.002v3.696h14.002z" fill="#fff"/><path d="m452.697 141.195h-14.001c-.565 0-1.02-.46-1.02-1.029v-3.696c0-.569.455-1.029 1.02-1.029h14.001c.564 0 1.02.46 1.02 1.029v3.696c0 .569-.456 1.029-1.02 1.029zm-12.981-2.058h11.961v-1.638h-11.961z" fill="#ced3f8"/><path d="m452.697 145.24h-14.002v3.696h14.002z" fill="#fff"/><path d="m452.697 149.964h-14.001c-.565 0-1.02-.459-1.02-1.029v-3.695c0-.57.455-1.029 1.02-1.029h14.001c.564 0 1.02.459 1.02 1.029v3.695c0 .57-.456 1.029-1.02 1.029zm-12.981-2.057h11.961v-1.639h-11.961z" fill="#ced3f8"/><path d="m452.697 154.012h-14.002v3.696h14.002z" fill="#fff"/><path d="m452.697 158.736h-14.001c-.565 0-1.02-.46-1.02-1.029v-3.696c0-.569.455-1.029 1.02-1.029h14.001c.564 0 1.02.46 1.02 1.029v3.696c0 .569-.456 1.029-1.02 1.029zm-12.981-2.058h11.961v-1.638h-11.961z" fill="#ced3f8"/><path d="m94.5625 156.007 10.2885-14.167 15.266 14.167z" fill="#fff"/><path d="m120.117 157.035h-25.5545c-.3876 0-.7344-.219-.9112-.562s-.1428-.761.0884-1.07l10.2883-14.173c.17-.234.435-.391.721-.419.286-.027.578.069.789.268l15.266 14.173c.313.288.415.734.258 1.132-.149.397-.53.658-.952.658zm-23.5485-2.057h20.9305l-12.505-11.609z" fill="#ced3f8"/><path d="m71.5508 156.007 10.2884-14.167 12.7228 14.167z" fill="#fff"/><path d="m94.5611 157.035h-23.0045c-.3876 0-.7344-.219-.9112-.562s-.1428-.761.0884-1.07l10.2885-14.173c.1836-.247.4624-.405.7684-.418.3128-.014.6052.109.8092.336l12.716 14.173c.272.302.34.734.1768 1.111-.1632.37-.5304.61-.9316.61zm-20.9985-2.057h18.7001l-10.336-11.52z" fill="#ced3f8"/><path d="m57.2695 156.008 7.7112-13.598 6.5689 13.598z" fill="#fff"/><path d="m71.5498 157.036h-14.28c-.3672 0-.7005-.192-.8841-.514-.1836-.316-.1836-.707 0-1.029l7.7045-13.597c.1904-.33.544-.542.918-.515.3808.014.7208.233.884.576l6.5756 13.598c.1564.315.136.692-.0544.994-.1836.302-.51.487-.8636.487zm-12.5256-2.057h10.8936l-5.0116-10.368-5.8752 10.368z" fill="#ced3f8"/><path d="m109.577 125.555 10.54 11.197v19.255l-15.266-14.167-10.2885 14.167 5.27-17.314z" fill="#fff"/><path d="m94.5616 157.036c-.1564 0-.3128-.034-.4556-.109-.442-.227-.6664-.741-.5168-1.221l5.27-17.314c.034-.117.0884-.22.1564-.316l9.7444-13.145c.177-.24.456-.391.755-.411.299-.021.591.096.802.315l10.54 11.198c.177.192.279.446.279.706v19.255c0 .411-.238.775-.612.939-.367.165-.802.09-1.102-.185l-14.429-13.392-9.6154 13.241c-.1972.275-.51.419-.8228.419zm10.2884-16.23c.258 0 .503.096.694.274l13.559 12.583v-16.505l-9.425-10.019-8.915 12.021-3.4406 11.314 6.7186-9.25c.17-.233.435-.391.721-.418h.102z" fill="#ced3f8"/><path d="m86.5711 125.556c1.5912 2.242 3.672 4.813 6.3444 7.426 2.4344 2.379 4.8144 4.251 6.9156 5.712-1.7544 5.774-3.5156 11.54-5.27 17.314l-12.716-14.174-10.2885 14.174 5.27-17.314c1.5709-1.516 3.2845-3.374 4.9845-5.602 2.0604-2.702 3.604-5.294 4.76-7.543z" fill="#fff"/><path d="m71.5499 157.036c-.1564 0-.3128-.034-.4556-.11-.442-.226-.6664-.74-.5168-1.22l5.27-17.315c.0544-.164.1428-.322.272-.438 1.7544-1.701 3.4-3.546 4.8824-5.486 1.7612-2.311 3.332-4.793 4.6648-7.385.1632-.316.476-.528.8296-.556.3604-.027.6936.138.9044.426 1.8496 2.605 3.944 5.06 6.2288 7.289 2.0944 2.05 4.3792 3.936 6.7795 5.609.367.253.524.72.395 1.145l-5.2705 17.314c-.1088.357-.3944.624-.7548.699-.3536.083-.7344-.041-.9792-.315l-11.8796-13.234-9.5472 13.152c-.1972.274-.51.418-.8228.418zm10.2884-16.231c.2856 0 .5644.124.7548.336l11.5124 12.83 4.5288-14.866c-2.2712-1.626-4.4336-3.436-6.4328-5.39-1.9788-1.934-3.8284-4.032-5.5012-6.254-1.2104 2.181-2.5772 4.279-4.0868 6.254-1.4892 1.954-3.1348 3.812-4.896 5.527l-3.4204 11.232 6.7184-9.251c.1836-.246.4624-.404.7684-.418z" fill="#ced3f8"/><path d="m66.056 123.949c1.2036 2.462 2.8492 5.335 5.1 8.345 1.938 2.592 3.8964 4.704 5.6644 6.398-1.7544 5.774-3.5156 11.54-5.27 17.314l-6.5756-13.597-7.7044 13.597-.6256-9.312-4.76-4.855c2.3256-1.995 4.964-4.573 7.5956-7.83 2.924-3.628 5.0456-7.118 6.5756-10.06z" fill="#fff"/><path d="m57.27 157.035c-.0748 0-.1496-.007-.2312-.027-.4352-.103-.7616-.48-.7888-.933l-.5984-8.935-4.4948-4.587c-.1972-.206-.306-.48-.2924-.768s.1428-.556.3604-.741c2.7064-2.324 5.2224-4.916 7.4664-7.693 2.4684-3.059 4.6444-6.391 6.46-9.888.1768-.336.5236-.549.9044-.549h.0136c.3808 0 .7344.226.9044.576 1.4076 2.873 3.0873 5.623 4.9981 8.181 1.6728 2.235 3.5428 4.347 5.5556 6.274.2788.267.3876.672.272 1.049l-5.27 17.314c-.1224.405-.476.693-.8976.72-.4216.028-.816-.199-.9928-.576l-5.7257-11.849-6.7456 11.911c-.1836.322-.5236.521-.884.521zm7.7044-15.655h.034c.3808.014.7208.233.884.576l5.4401 11.253 4.3248-14.215c-1.9244-1.886-3.7128-3.929-5.3244-6.082-1.598-2.14-3.0465-4.409-4.3113-6.768-1.6796 2.989-3.6108 5.849-5.7596 8.509-2.0944 2.592-4.4064 5.02-6.8952 7.235l3.9916 4.073c.17.178.2788.404.2924.651l.3944 5.918 6.0316-10.642c.1836-.323.5236-.521.884-.521z" fill="#ced3f8"/><path d="m145.67 156.007-10.289-14.167-15.266 14.167z" fill="#fff"/><path d="m145.67 157.036h-25.554c-.422 0-.796-.26-.952-.658-.15-.398-.048-.844.258-1.132l15.266-14.173c.211-.199.503-.295.789-.268.292.028.551.179.721.419l10.288 14.173c.225.316.259.727.089 1.07-.177.343-.524.562-.912.562zm-22.943-2.057h20.93l-8.425-11.609z" fill="#ced3f8"/><path d="m168.681 156.007-10.288-14.167-12.723 14.167z" fill="#fff"/><path d="m168.682 157.035h-23.005c-.401 0-.768-.24-.931-.611-.163-.37-.095-.802.177-1.111l12.716-14.173c.204-.227.489-.35.809-.336.306.013.591.171.768.418l10.289 14.174c.224.315.258.727.088 1.069-.177.343-.524.563-.911.563zm-20.706-2.058h18.7l-8.364-11.52z" fill="#ced3f8"/><path d="m182.962 156.008-7.712-13.598-6.568 13.598z" fill="#fff"/><path d="m182.961 157.036h-14.28c-.353 0-.68-.185-.863-.487-.184-.301-.204-.678-.055-.994l6.576-13.597c.163-.343.503-.563.884-.576.36-.014.734.185.918.514l7.704 13.597c.177.316.177.707 0 1.029-.183.315-.516.514-.884.514zm-12.648-2.057h10.894l-5.875-10.368-5.012 10.368z" fill="#ced3f8"/><path d="m130.657 125.555-10.54 11.197v19.255l15.266-14.167 10.289 14.167-5.27-17.314z" fill="#fff"/><path d="m145.671 157.035c-.32 0-.626-.151-.823-.419l-9.615-13.241-14.43 13.392c-.299.275-.734.35-1.101.185-.367-.164-.612-.534-.612-.939v-19.255c0-.26.102-.514.279-.706l10.54-11.198c.204-.219.496-.342.802-.315.299.021.578.171.755.411l9.744 13.145c.068.096.123.199.157.316l5.27 17.314c.142.48-.075.994-.517 1.221-.143.075-.306.109-.456.109zm-24.534-19.872v16.505l13.559-12.583c.211-.199.503-.295.789-.267.292.027.55.178.72.418l6.719 9.25-3.441-11.314-8.915-12.021-9.425 10.019z" fill="#ced3f8"/><path d="m153.66 125.554c-1.591 2.242-3.672 4.813-6.344 7.426-2.434 2.379-4.814 4.251-6.916 5.712 1.755 5.774 3.516 11.54 5.27 17.314l12.716-14.174 10.289 14.174-5.27-17.314c-1.571-1.515-3.285-3.374-4.985-5.602-2.06-2.702-3.604-5.294-4.76-7.543z" fill="#fff"/><path d="m168.681 157.035c-.319 0-.625-.151-.823-.418l-9.547-13.152-11.879 13.234c-.245.274-.619.398-.98.315-.36-.082-.646-.349-.754-.699l-5.27-17.314c-.13-.432.027-.892.394-1.145 2.407-1.674 4.685-3.559 6.78-5.61 2.284-2.228 4.379-4.683 6.228-7.289.204-.288.544-.452.905-.425.353.028.666.233.829.556 1.333 2.599 2.904 5.081 4.665 7.385 1.483 1.94 3.128 3.785 4.883 5.485.129.124.217.275.272.439l5.27 17.314c.142.48-.075.995-.517 1.221-.143.075-.306.11-.456.11zm-27.084-17.931 4.529 14.866 11.512-12.83c.204-.226.49-.35.809-.336.306.014.592.172.769.418l6.718 9.251-3.42-11.232c-1.762-1.721-3.407-3.58-4.896-5.527-1.51-1.975-2.877-4.073-4.087-6.254-1.673 2.215-3.523 4.313-5.501 6.254-2 1.954-4.162 3.764-6.433 5.39z" fill="#ced3f8"/><path d="m174.177 123.949c-1.204 2.462-2.85 5.335-5.1 8.345-1.938 2.592-3.897 4.704-5.665 6.398 1.755 5.774 3.516 11.54 5.27 17.314l6.576-13.597 7.704 13.597.626-9.312 4.76-4.855c-2.326-1.995-4.964-4.573-7.596-7.83-2.924-3.628-5.045-7.118-6.575-10.06z" fill="#fff"/><path d="m182.963 157.035c-.361 0-.701-.192-.884-.521l-6.753-11.911-5.725 11.849c-.184.377-.572.604-.993.576-.415-.034-.775-.322-.898-.72l-5.27-17.314c-.115-.37-.007-.782.272-1.049 2.013-1.927 3.883-4.039 5.556-6.274 1.911-2.558 3.597-5.308 4.998-8.181.17-.35.517-.569.904-.576h.014c.381 0 .727.213.904.549 1.816 3.497 3.992 6.822 6.46 9.888 2.244 2.777 4.753 5.369 7.467 7.693.217.185.346.453.36.741s-.095.562-.292.768l-4.495 4.587-.599 8.935c-.027.453-.353.83-.788.933-.075.02-.15.027-.232.027zm-18.388-18.041 4.325 14.215 5.44-11.253c.163-.343.503-.562.884-.576.361-.013.735.185.918.515l6.032 10.642.394-5.918c.014-.247.123-.48.293-.651l3.998-4.073c-2.489-2.215-4.801-4.65-6.895-7.235-2.149-2.66-4.08-5.52-5.76-8.509-1.265 2.358-2.706 4.628-4.311 6.768-1.612 2.153-3.4 4.196-5.324 6.082z" fill="#ced3f8"/><path d="m192.645 155.926h-144.5141v6.685h144.5141z" fill="#fff"/><path d="m192.652 163.639h-144.5207c-.5644 0-1.02-.459-1.02-1.028v-6.686c0-.569.4556-1.029 1.02-1.029h144.5137c.565 0 1.02.46 1.02 1.029v6.686c0 .569-.455 1.028-1.02 1.028zm-143.4939-2.057h142.4739v-4.628h-142.4807v4.628z" fill="#ced3f8"/><path d="m66.0571 124.978c-.5644 0-1.02-.459-1.02-1.028v-9.943c0-.569.4556-1.028 1.02-1.028s1.02.459 1.02 1.028v9.943c0 .569-.4556 1.028-1.02 1.028z" fill="#ced3f8"/><path d="m86.3403 125.781c-.5644 0-1.02-.459-1.02-1.028v-9.943c0-.569.4556-1.029 1.02-1.029s1.02.46 1.02 1.029v9.943c0 .569-.4556 1.028-1.02 1.028z" fill="#ced3f8"/><path d="m109.461 125.781c-.564 0-1.02-.459-1.02-1.028v-9.943c0-.569.456-1.029 1.02-1.029.565 0 1.02.46 1.02 1.029v9.943c0 .569-.455 1.028-1.02 1.028z" fill="#ced3f8"/><path d="m130.657 126.584c-.565 0-1.02-.46-1.02-1.029v-9.942c0-.57.455-1.029 1.02-1.029.564 0 1.02.459 1.02 1.029v9.942c0 .569-.456 1.029-1.02 1.029z" fill="#ced3f8"/><path d="m153.551 126.584c-.564 0-1.02-.46-1.02-1.029v-9.942c0-.57.456-1.029 1.02-1.029.565 0 1.02.459 1.02 1.029v9.942c0 .569-.455 1.029-1.02 1.029z" fill="#ced3f8"/><path d="m174.291 125.781c-.564 0-1.02-.459-1.02-1.028v-9.943c0-.569.456-1.029 1.02-1.029.565 0 1.02.46 1.02 1.029v9.943c0 .569-.455 1.028-1.02 1.028z" fill="#ced3f8"/><path d="m379.366 32.3477h6.651c4.345 0 7.874 3.5588 7.874 7.9405v122.1108h-14.532v-130.0513z" fill="#fff"/><path d="m393.897 163.427h-14.531c-.565 0-1.02-.459-1.02-1.028v-130.0521c0-.5691.455-1.0285 1.02-1.0285h6.65c4.903 0 8.895 4.0251 8.895 8.969v122.1116c0 .569-.456 1.028-1.02 1.028zm-13.511-2.057h12.491v-121.0826c0-3.8125-3.073-6.9119-6.854-6.9119h-5.63v127.9945z" fill="#ced3f8"/><path d="m411.992 162.398h-14.531v-122.1107c0-4.3817 3.529-7.9405 7.874-7.9405h6.65v130.0512z" fill="#fff"/><path d="m411.993 163.427h-14.532c-.564 0-1.02-.459-1.02-1.028v-122.1116c0-4.9439 3.992-8.969 8.895-8.969h6.65c.565 0 1.02.4594 1.02 1.0285v130.0521c0 .569-.455 1.028-1.02 1.028zm-13.512-2.057h12.492v-127.9945h-5.63c-3.781 0-6.855 3.0994-6.855 6.9119v121.0826z" fill="#ced3f8"/><path d="m383.956 33.3752c-.565 0-1.02-.4594-1.02-1.0285v-28.40212c0-.56914.455-1.02856 1.02-1.02856.564 0 1.02.45942 1.02 1.02856v28.40212c0 .5691-.456 1.0285-1.02 1.0285z" fill="#ced3f8"/><path d="m407.28 33.3752c-.565 0-1.02-.4594-1.02-1.0285v-28.40212c0-.56914.455-1.02856 1.02-1.02856.564 0 1.02.45942 1.02 1.02856v28.40212c0 .5691-.456 1.0285-1.02 1.0285z" fill="#ced3f8"/><path d="m379.365 42.5508 7.263 2.7771z" fill="#fff"/><path d="m386.635 46.3627c-.122 0-.245-.0206-.36-.0686l-7.263-2.7771c-.523-.1989-.789-.7954-.591-1.3234.197-.528.788-.7955 1.312-.5966l7.262 2.7771c.524.1989.789.7954.592 1.3234-.156.4115-.544.6652-.952.6652z" fill="#ced3f8"/><path d="m379.365 50.9023 7.263 2.7772z" fill="#fff"/><path d="m386.635 54.7142c-.122 0-.245-.0205-.36-.0685l-7.263-2.7771c-.523-.1989-.789-.7955-.591-1.3235.197-.528.788-.7954 1.312-.5965l7.262 2.7771c.524.1988.789.7954.592 1.3234-.156.4114-.544.6651-.952.6651z" fill="#ced3f8"/><path d="m379.365 59.2598 7.263 2.7771z" fill="#fff"/><path d="m386.635 63.0658c-.122 0-.245-.0206-.36-.0686l-7.263-2.7771c-.523-.1988-.789-.7954-.591-1.3234.197-.528.788-.7954 1.312-.5966l7.262 2.7772c.524.1988.789.7954.592 1.3234-.156.4114-.544.6651-.952.6651z" fill="#ced3f8"/><path d="m379.365 67.6133 7.263 2.7771z" fill="#fff"/><path d="m386.635 71.4262c-.122 0-.245-.0206-.36-.0686l-7.263-2.784c-.523-.1988-.789-.7954-.591-1.3234.197-.528.788-.7954 1.312-.5966l7.262 2.784c.524.1989.789.7954.592 1.3234-.156.4115-.544.6652-.952.6652z" fill="#ced3f8"/><path d="m379.365 75.9727 7.263 2.7771z" fill="#fff"/><path d="m386.635 79.7777c-.122 0-.245-.0205-.36-.0685l-7.263-2.784c-.523-.1989-.789-.7954-.591-1.3234.197-.528.788-.7954 1.312-.5966l7.262 2.784c.524.1988.789.7954.592 1.3234-.156.4114-.544.6651-.952.6651z" fill="#ced3f8"/><path d="m379.365 84.3242 7.263 2.7771z" fill="#fff"/><path d="m386.635 88.1293c-.122 0-.245-.0206-.36-.0686l-7.263-2.7839c-.523-.1989-.789-.7955-.591-1.3235.197-.528.788-.7954 1.312-.5965l7.262 2.7839c.524.1989.789.7955.592 1.3235-.156.4114-.544.6651-.952.6651z" fill="#ced3f8"/><path d="m379.365 92.6758 7.263 2.7771z" fill="#fff"/><path d="m386.635 96.4877c-.122 0-.245-.0206-.36-.0686l-7.263-2.7771c-.523-.1989-.789-.7954-.591-1.3234.197-.528.788-.7955 1.312-.5966l7.262 2.7771c.524.1989.789.7954.592 1.3234-.156.4115-.544.6652-.952.6652z" fill="#ced3f8"/><path d="m379.365 101.033 7.263 2.777z" fill="#fff"/><path d="m386.635 104.839c-.122 0-.245-.02-.36-.068l-7.263-2.784c-.523-.199-.789-.796-.591-1.324.197-.535.795-.7953 1.312-.596l7.262 2.784c.524.198.789.795.592 1.323-.156.411-.544.665-.952.665z" fill="#ced3f8"/><path d="m379.365 109.387 7.263 2.777z" fill="#fff"/><path d="m386.635 113.193c-.122 0-.245-.021-.36-.069l-7.263-2.784c-.523-.199-.789-.795-.591-1.323.197-.535.795-.796 1.312-.597l7.262 2.784c.524.199.789.795.592 1.323-.156.412-.544.666-.952.666z" fill="#ced3f8"/><path d="m379.365 117.738 7.263 2.777z" fill="#fff"/><path d="m386.635 121.55c-.122 0-.245-.021-.36-.069l-7.263-2.784c-.523-.198-.789-.795-.591-1.323.197-.535.795-.795 1.312-.596l7.262 2.783c.524.199.789.796.592 1.324-.156.411-.544.665-.952.665z" fill="#ced3f8"/><path d="m379.365 126.096 7.263 2.777z" fill="#fff"/><path d="m386.635 129.902c-.122 0-.245-.021-.36-.069l-7.263-2.784c-.523-.199-.789-.795-.591-1.323.197-.535.795-.796 1.312-.597l7.262 2.784c.524.199.789.795.592 1.323-.156.412-.544.666-.952.666z" fill="#ced3f8"/><path d="m379.365 134.449 7.263 2.777z" fill="#fff"/><path d="m386.635 138.254c-.122 0-.245-.02-.36-.068l-7.263-2.778c-.523-.198-.789-.795-.591-1.323.197-.535.788-.795 1.312-.597l7.262 2.778c.524.198.789.795.592 1.323-.156.411-.544.665-.952.665z" fill="#ced3f8"/><path d="m379.365 142.801 7.263 2.777z" fill="#fff"/><path d="m386.635 146.613c-.122 0-.245-.021-.36-.069l-7.263-2.777c-.523-.199-.789-.795-.591-1.323.197-.528.788-.796 1.312-.597l7.262 2.777c.524.199.789.796.592 1.324-.156.411-.544.665-.952.665z" fill="#ced3f8"/><path d="m379.365 151.16 7.263 2.777z" fill="#fff"/><path d="m386.635 154.966c-.122 0-.245-.02-.36-.068l-7.263-2.778c-.523-.198-.789-.795-.591-1.323.197-.528.788-.795 1.312-.596l7.262 2.777c.524.198.789.795.592 1.323-.156.411-.544.665-.952.665z" fill="#ced3f8"/><path d="m410.911 43.0293-7.263 2.7771z" fill="#fff"/><path d="m403.648 46.8353c-.408 0-.796-.2537-.952-.6651-.197-.528.068-1.1246.592-1.3234l7.262-2.7771c.524-.1989 1.115.0685 1.312.5965.198.528-.068 1.1246-.591 1.3234l-7.263 2.7772c-.115.048-.244.0685-.36.0685z" fill="#ced3f8"/><path d="m410.911 51.3828-7.263 2.7771z" fill="#fff"/><path d="m403.648 55.1946c-.408 0-.796-.2537-.952-.6652-.197-.528.068-1.1245.592-1.3234l7.262-2.784c.524-.1988 1.115.0617 1.312.5966.198.528-.068 1.1246-.591 1.3234l-7.263 2.784c-.115.048-.244.0686-.36.0686z" fill="#ced3f8"/><path d="m410.911 59.7422-7.263 2.7771z" fill="#fff"/><path d="m403.648 63.5473c-.408 0-.796-.2537-.952-.6652-.197-.528.068-1.1245.592-1.3234l7.262-2.784c.524-.1988 1.115.0686 1.312.5966.198.528-.068 1.1246-.591 1.3234l-7.263 2.784c-.115.048-.244.0686-.36.0686z" fill="#ced3f8"/><path d="m410.911 68.0938-7.263 2.7771z" fill="#fff"/><path d="m403.648 71.9055c-.408 0-.796-.2537-.952-.6651-.197-.528.068-1.1246.592-1.3235l7.262-2.7839c.524-.1989 1.115.0617 1.312.5965.198.528-.068 1.1246-.591 1.3235l-7.263 2.7839c-.115.048-.244.0686-.36.0686z" fill="#ced3f8"/><path d="m410.911 76.4434-7.263 2.7771z" fill="#fff"/><path d="m403.648 80.2563c-.408 0-.796-.2538-.952-.6652-.197-.528.068-1.1245.592-1.3234l7.262-2.784c.524-.1988 1.115.0686 1.312.5966.198.528-.068 1.1246-.591 1.3234l-7.263 2.784c-.115.048-.244.0686-.36.0686z" fill="#ced3f8"/><path d="m410.911 84.8027-7.263 2.7772z" fill="#fff"/><path d="m403.648 88.6088c-.408 0-.796-.2537-.952-.6652-.197-.528.068-1.1245.592-1.3234l7.262-2.7771c.524-.1989 1.115.0686 1.312.5966.198.528-.068 1.1245-.591 1.3234l-7.263 2.7771c-.115.048-.244.0686-.36.0686z" fill="#ced3f8"/><path d="m410.911 93.1543-7.263 2.7771z" fill="#fff"/><path d="m403.648 96.967c-.408 0-.796-.2537-.952-.6651-.197-.528.068-1.1246.592-1.3234l7.262-2.7772c.524-.1988 1.115.0617 1.312.5966.198.528-.068 1.1246-.591 1.3234l-7.263 2.7771c-.115.048-.244.0686-.36.0686z" fill="#ced3f8"/><path d="m410.911 101.508-7.263 2.777z" fill="#fff"/><path d="m403.648 105.32c-.408 0-.796-.254-.952-.666-.197-.528.068-1.124.592-1.323l7.262-2.784c.524-.199 1.115.062 1.312.597.198.528-.068 1.124-.591 1.323l-7.263 2.784c-.115.048-.244.069-.36.069z" fill="#ced3f8"/><path d="m410.911 109.867-7.263 2.777z" fill="#fff"/><path d="m403.648 113.672c-.408 0-.796-.253-.952-.665-.197-.528.068-1.124.592-1.323l7.262-2.784c.524-.199 1.115.068 1.312.596.198.528-.068 1.125-.591 1.324l-7.263 2.784c-.115.048-.244.068-.36.068z" fill="#ced3f8"/><path d="m410.911 118.219-7.263 2.777z" fill="#fff"/><path d="m403.648 122.031c-.408 0-.796-.254-.952-.665-.197-.528.068-1.125.592-1.324l7.262-2.777c.524-.199 1.115.069 1.312.597.198.528-.068 1.124-.591 1.323l-7.263 2.777c-.115.048-.244.069-.36.069z" fill="#ced3f8"/><path d="m410.911 126.57-7.263 2.777z" fill="#fff"/><path d="m403.648 130.383c-.408 0-.796-.254-.952-.665-.197-.528.068-1.125.592-1.324l7.262-2.777c.524-.199 1.115.062 1.312.597.198.528-.068 1.124-.591 1.323l-7.263 2.777c-.115.048-.244.069-.36.069z" fill="#ced3f8"/><path d="m410.911 134.928-7.263 2.777z" fill="#fff"/><path d="m403.648 138.734c-.408 0-.796-.254-.952-.665-.197-.528.068-1.125.592-1.324l7.262-2.777c.524-.199 1.115.069 1.312.597.198.528-.068 1.124-.591 1.323l-7.263 2.777c-.115.048-.244.069-.36.069z" fill="#ced3f8"/><path d="m410.911 143.281-7.263 2.777z" fill="#fff"/><path d="m403.648 147.094c-.408 0-.796-.254-.952-.665-.197-.528.068-1.125.592-1.324l7.262-2.777c.524-.199 1.115.062 1.312.597.198.528-.068 1.124-.591 1.323l-7.263 2.777c-.115.048-.244.069-.36.069z" fill="#ced3f8"/><path d="m410.911 151.639-7.263 2.777z" fill="#fff"/><path d="m403.648 155.445c-.408 0-.796-.254-.952-.665-.197-.528.068-1.125.592-1.324l7.262-2.777c.524-.199 1.115.069 1.312.597.198.528-.068 1.124-.591 1.323l-7.263 2.777c-.115.048-.244.069-.36.069z" fill="#ced3f8"/><path d="m504.935 159.175h-26.091l1.611-17.376-1.611-24.075 1.611-24.0683-1.611-24.0752 1.611-24.0753v-25.4329h22.876v25.4329l1.604 24.0753-1.604 24.0752 1.604 24.0683-1.604 24.075z" fill="#fff"/><path d="m504.936 160.203h-26.092c-.286 0-.558-.123-.755-.336-.19-.212-.285-.5-.258-.788l1.598-17.294-1.598-23.993c0-.048 0-.089 0-.137l1.605-24.0068-1.605-24.0067c0-.048 0-.0892 0-.1372l1.605-24.0409v-25.3919c0-.5691.455-1.0285 1.02-1.0285h22.875c.564 0 1.02.4594 1.02 1.0285v25.3987l1.605 24.041v.1371l-1.605 24.0067 1.605 24.007v.137l-1.598 23.993 1.598 17.293c.027.288-.068.576-.259.789-.19.213-.469.336-.755.336zm-24.97-2.057h23.848l-1.503-16.251c0-.055 0-.11 0-.165l1.605-24.007-1.605-24.0063c0-.048 0-.0891 0-.1371l1.605-24.0067-1.605-24.0067s0-.048 0-.0686v-24.3975h-20.835v24.4044.0686l-1.605 24.0067 1.605 24.0066v.1372l-1.605 24.0064 1.605 24.007v.165l-1.503 16.251z" fill="#ced3f8"/><path d="m488.547 20.0723h6.691l-1.074 139.8367h-4.012z" fill="#e2e6f9"/><path d="m494.164 160.937h-4.012c-.557 0-1.013-.453-1.02-1.015l-1.605-139.8368c0-.2742.102-.5417.293-.7337.19-.192.455-.3085.727-.3085h6.692c.272 0 .53.1097.72.3017.191.192.3.4594.3.7337l-1.068 139.8366c0 .562-.462 1.022-1.02 1.022zm-3.005-2.057h1.992l1.054-137.7799h-4.631z" fill="#d6ddff"/><g fill="#ced3f8"><path d="m483.115 28.9653h-2.495c-.565 0-1.02-.4594-1.02-1.0285 0-.5692.455-1.0286 1.02-1.0286h2.495c.565 0 1.02.4594 1.02 1.0286 0 .5691-.455 1.0285-1.02 1.0285z"/><path d="m483.115 36.0688h-2.495c-.565 0-1.02-.4594-1.02-1.0285 0-.5692.455-1.0286 1.02-1.0286h2.495c.565 0 1.02.4594 1.02 1.0286 0 .5691-.455 1.0285-1.02 1.0285z"/><path d="m483.115 43.1802h-2.495c-.565 0-1.02-.4595-1.02-1.0286s.455-1.0286 1.02-1.0286h2.495c.565 0 1.02.4595 1.02 1.0286s-.455 1.0286-1.02 1.0286z"/><path d="m483.115 50.2837h-2.495c-.565 0-1.02-.4594-1.02-1.0286 0-.5691.455-1.0285 1.02-1.0285h2.495c.565 0 1.02.4594 1.02 1.0285 0 .5692-.455 1.0286-1.02 1.0286z"/><path d="m483.115 57.395h-2.495c-.565 0-1.02-.4594-1.02-1.0285 0-.5692.455-1.0286 1.02-1.0286h2.495c.565 0 1.02.4594 1.02 1.0286 0 .5691-.455 1.0285-1.02 1.0285z"/><path d="m483.115 64.4985h-2.495c-.565 0-1.02-.4594-1.02-1.0285 0-.5692.455-1.0286 1.02-1.0286h2.495c.565 0 1.02.4594 1.02 1.0286 0 .5691-.455 1.0285-1.02 1.0285z"/><path d="m482.434 71.6099h-2.496c-.564 0-1.02-.4595-1.02-1.0286s.456-1.0286 1.02-1.0286h2.496c.564 0 1.02.4595 1.02 1.0286s-.456 1.0286-1.02 1.0286z"/><path d="m483.115 78.7134h-2.495c-.565 0-1.02-.4594-1.02-1.0286 0-.5691.455-1.0286 1.02-1.0286h2.495c.565 0 1.02.4595 1.02 1.0286 0 .5692-.455 1.0286-1.02 1.0286z"/><path d="m483.115 85.8247h-2.495c-.565 0-1.02-.4594-1.02-1.0286 0-.5691.455-1.0285 1.02-1.0285h2.495c.565 0 1.02.4594 1.02 1.0285 0 .5692-.455 1.0286-1.02 1.0286z"/><path d="m483.115 92.9282h-2.495c-.565 0-1.02-.4594-1.02-1.0285 0-.5692.455-1.0286 1.02-1.0286h2.495c.565 0 1.02.4594 1.02 1.0286 0 .5691-.455 1.0285-1.02 1.0285z"/><path d="m483.115 100.04h-2.495c-.565 0-1.02-.4599-1.02-1.029 0-.5692.455-1.0286 1.02-1.0286h2.495c.565 0 1.02.4594 1.02 1.0286 0 .5691-.455 1.029-1.02 1.029z"/><path d="m483.115 107.143h-2.495c-.565 0-1.02-.459-1.02-1.028 0-.57.455-1.029 1.02-1.029h2.495c.565 0 1.02.459 1.02 1.029 0 .569-.455 1.028-1.02 1.028z"/><path d="m483.115 114.247h-2.495c-.565 0-1.02-.46-1.02-1.029s.455-1.029 1.02-1.029h2.495c.565 0 1.02.46 1.02 1.029s-.455 1.029-1.02 1.029z"/><path d="m483.115 121.358h-2.495c-.565 0-1.02-.46-1.02-1.029s.455-1.028 1.02-1.028h2.495c.565 0 1.02.459 1.02 1.028s-.455 1.029-1.02 1.029z"/><path d="m483.115 128.461h-2.495c-.565 0-1.02-.459-1.02-1.028s.455-1.029 1.02-1.029h2.495c.565 0 1.02.46 1.02 1.029s-.455 1.028-1.02 1.028z"/><path d="m483.115 135.573h-2.495c-.565 0-1.02-.46-1.02-1.029s.455-1.028 1.02-1.028h2.495c.565 0 1.02.459 1.02 1.028s-.455 1.029-1.02 1.029z"/><path d="m483.115 142.676h-2.495c-.565 0-1.02-.459-1.02-1.028s.455-1.029 1.02-1.029h2.495c.565 0 1.02.46 1.02 1.029s-.455 1.028-1.02 1.028z"/><path d="m483.115 149.788h-2.495c-.565 0-1.02-.46-1.02-1.029s.455-1.029 1.02-1.029h2.495c.565 0 1.02.46 1.02 1.029s-.455 1.029-1.02 1.029z"/><path d="m483.115 156.891h-2.495c-.565 0-1.02-.459-1.02-1.028 0-.57.455-1.029 1.02-1.029h2.495c.565 0 1.02.459 1.02 1.029 0 .569-.455 1.028-1.02 1.028z"/><path d="m502.834 28.9653h-2.496c-.564 0-1.02-.4594-1.02-1.0285 0-.5692.456-1.0286 1.02-1.0286h2.496c.564 0 1.02.4594 1.02 1.0286 0 .5691-.456 1.0285-1.02 1.0285z"/><path d="m502.834 36.0688h-2.496c-.564 0-1.02-.4594-1.02-1.0285 0-.5692.456-1.0286 1.02-1.0286h2.496c.564 0 1.02.4594 1.02 1.0286 0 .5691-.456 1.0285-1.02 1.0285z"/><path d="m502.834 43.1802h-2.496c-.564 0-1.02-.4595-1.02-1.0286s.456-1.0286 1.02-1.0286h2.496c.564 0 1.02.4595 1.02 1.0286s-.456 1.0286-1.02 1.0286z"/><path d="m502.834 50.2837h-2.496c-.564 0-1.02-.4594-1.02-1.0286 0-.5691.456-1.0285 1.02-1.0285h2.496c.564 0 1.02.4594 1.02 1.0285 0 .5692-.456 1.0286-1.02 1.0286z"/><path d="m502.834 57.395h-2.496c-.564 0-1.02-.4594-1.02-1.0285 0-.5692.456-1.0286 1.02-1.0286h2.496c.564 0 1.02.4594 1.02 1.0286 0 .5691-.456 1.0285-1.02 1.0285z"/><path d="m502.834 64.4985h-2.496c-.564 0-1.02-.4594-1.02-1.0285 0-.5692.456-1.0286 1.02-1.0286h2.496c.564 0 1.02.4594 1.02 1.0286 0 .5691-.456 1.0285-1.02 1.0285z"/><path d="m504.078 71.6099h-2.495c-.565 0-1.021-.4595-1.021-1.0286s.456-1.0286 1.021-1.0286h2.495c.564 0 1.02.4595 1.02 1.0286s-.456 1.0286-1.02 1.0286z"/><path d="m502.834 78.7134h-2.496c-.564 0-1.02-.4594-1.02-1.0286 0-.5691.456-1.0286 1.02-1.0286h2.496c.564 0 1.02.4595 1.02 1.0286 0 .5692-.456 1.0286-1.02 1.0286z"/><path d="m502.834 85.8247h-2.496c-.564 0-1.02-.4594-1.02-1.0286 0-.5691.456-1.0285 1.02-1.0285h2.496c.564 0 1.02.4594 1.02 1.0285 0 .5692-.456 1.0286-1.02 1.0286z"/><path d="m502.834 92.9282h-2.496c-.564 0-1.02-.4594-1.02-1.0285 0-.5692.456-1.0286 1.02-1.0286h2.496c.564 0 1.02.4594 1.02 1.0286 0 .5691-.456 1.0285-1.02 1.0285z"/><path d="m502.834 100.04h-2.496c-.564 0-1.02-.4599-1.02-1.029 0-.5692.456-1.0286 1.02-1.0286h2.496c.564 0 1.02.4594 1.02 1.0286 0 .5691-.456 1.029-1.02 1.029z"/><path d="m502.834 107.143h-2.496c-.564 0-1.02-.459-1.02-1.028 0-.57.456-1.029 1.02-1.029h2.496c.564 0 1.02.459 1.02 1.029 0 .569-.456 1.028-1.02 1.028z"/><path d="m502.834 114.247h-2.496c-.564 0-1.02-.46-1.02-1.029s.456-1.029 1.02-1.029h2.496c.564 0 1.02.46 1.02 1.029s-.456 1.029-1.02 1.029z"/><path d="m502.834 121.358h-2.496c-.564 0-1.02-.46-1.02-1.029s.456-1.028 1.02-1.028h2.496c.564 0 1.02.459 1.02 1.028s-.456 1.029-1.02 1.029z"/><path d="m502.834 128.461h-2.496c-.564 0-1.02-.459-1.02-1.028s.456-1.029 1.02-1.029h2.496c.564 0 1.02.46 1.02 1.029s-.456 1.028-1.02 1.028z"/><path d="m502.834 135.573h-2.496c-.564 0-1.02-.46-1.02-1.029s.456-1.028 1.02-1.028h2.496c.564 0 1.02.459 1.02 1.028s-.456 1.029-1.02 1.029z"/><path d="m502.834 142.676h-2.496c-.564 0-1.02-.459-1.02-1.028s.456-1.029 1.02-1.029h2.496c.564 0 1.02.46 1.02 1.029s-.456 1.028-1.02 1.028z"/><path d="m502.834 149.788h-2.496c-.564 0-1.02-.46-1.02-1.029s.456-1.029 1.02-1.029h2.496c.564 0 1.02.46 1.02 1.029s-.456 1.029-1.02 1.029z"/><path d="m502.834 156.891h-2.496c-.564 0-1.02-.459-1.02-1.028 0-.57.456-1.029 1.02-1.029h2.496c.564 0 1.02.459 1.02 1.029 0 .569-.456 1.028-1.02 1.028z"/></g><path d="m645.769 131.424h-73.277v31.46h73.277z" fill="#fff"/><path d="m645.77 163.912h-73.277c-.565 0-1.02-.459-1.02-1.029v-31.46c0-.569.455-1.028 1.02-1.028h73.277c.564 0 1.02.459 1.02 1.028v31.46c0 .57-.456 1.029-1.02 1.029zm-72.257-2.057h71.237v-29.403h-71.237z" fill="#ced3f8"/><path d="m582.448 162.885h-29.288l6.991-40.149h15.313z" fill="#fff"/><path d="m582.447 163.912h-29.287c-.3 0-.585-.137-.782-.37-.198-.233-.279-.542-.225-.836l6.984-40.149c.088-.493.51-.85 1.006-.85h15.314c.496 0 .918.357 1.006.85l6.984 40.149c.054.301-.027.603-.225.836-.197.233-.476.37-.782.37zm-28.07-2.057h26.86l-6.63-38.091h-13.6z" fill="#ced3f8"/><path d="m575.938 117.525h-16.272v5.212h16.272z" fill="#fff"/><path d="m575.939 123.765h-16.273c-.564 0-1.02-.46-1.02-1.029v-5.211c0-.569.456-1.029 1.02-1.029h16.273c.564 0 1.02.46 1.02 1.029v5.211c0 .569-.456 1.029-1.02 1.029zm-15.253-2.058h14.233v-3.154h-14.233z" fill="#ced3f8"/><path d="m655.188 162.885h-29.288l6.984-40.149h15.314z" fill="#fff"/><path d="m655.187 163.912h-29.287c-.299 0-.585-.137-.782-.37s-.279-.542-.225-.836l6.984-40.149c.088-.493.51-.85 1.006-.85h15.314c.496 0 .918.357 1.006.85l6.984 40.149c.054.301-.027.603-.224.836-.198.233-.483.37-.782.37zm-28.07-2.057h26.86l-6.63-38.091h-13.6z" fill="#ced3f8"/><path d="m648.679 117.525h-16.273v5.212h16.273z" fill="#fff"/><path d="m648.679 123.765h-16.272c-.565 0-1.02-.46-1.02-1.029v-5.211c0-.569.455-1.029 1.02-1.029h16.272c.565 0 1.02.46 1.02 1.029v5.211c0 .569-.455 1.029-1.02 1.029zm-15.252-2.058h14.232v-3.154h-14.232z" fill="#ced3f8"/><path d="m602.902 147.154h-9.187v15.73h9.187z" fill="#e2e6f9"/><path d="m602.902 163.912h-9.187c-.564 0-1.02-.459-1.02-1.028v-15.73c0-.57.456-1.029 1.02-1.029h9.187c.565 0 1.02.459 1.02 1.029v15.73c0 .569-.455 1.028-1.02 1.028zm-8.167-2.057h7.147v-13.673h-7.147z" fill="#d6ddff"/><path d="m630.374 138.192h-52.401c-.564 0-1.02-.46-1.02-1.029s.456-1.028 1.02-1.028h52.401c.564 0 1.02.459 1.02 1.028s-.456 1.029-1.02 1.029z" fill="#ced3f8"/><path d="m589.125 143.842h-6.677c-.565 0-1.02-.459-1.02-1.028s.455-1.029 1.02-1.029h6.677c.565 0 1.02.46 1.02 1.029s-.455 1.028-1.02 1.028z" fill="#ced3f8"/><path d="m618.985 143.842h-9.854c-.564 0-1.02-.459-1.02-1.028s.456-1.029 1.02-1.029h9.854c.564 0 1.02.46 1.02 1.029s-.456 1.028-1.02 1.028z" fill="#ced3f8"/><path d="m617.256 150.309h-4.019c-.565 0-1.02-.459-1.02-1.028 0-.57.455-1.029 1.02-1.029h4.019c.564 0 1.02.459 1.02 1.029 0 .569-.456 1.028-1.02 1.028z" fill="#ced3f8"/><path d="m616.496 157.454h-7.365c-.564 0-1.02-.46-1.02-1.029s.456-1.029 1.02-1.029h7.365c.564 0 1.02.46 1.02 1.029s-.456 1.029-1.02 1.029z" fill="#ced3f8"/><path d="m588.356 150.309h-2.57c-.565 0-1.02-.459-1.02-1.028 0-.57.455-1.029 1.02-1.029h2.57c.564 0 1.02.459 1.02 1.029 0 .569-.456 1.028-1.02 1.028z" fill="#ced3f8"/><path d="m588.356 158.805h-4.209c-.564 0-1.02-.459-1.02-1.028 0-.57.456-1.029 1.02-1.029h4.209c.565 0 1.02.459 1.02 1.029 0 .569-.455 1.028-1.02 1.028z" fill="#ced3f8"/><path d="m625.898 149.348h-1.747c-.565 0-1.02-.459-1.02-1.028 0-.57.455-1.029 1.02-1.029h1.747c.565 0 1.02.459 1.02 1.029 0 .569-.455 1.028-1.02 1.028z" fill="#ced3f8"/><path d="m638.507 130.045h-2.489c-.564 0-1.02-.459-1.02-1.028s.456-1.029 1.02-1.029h2.489c.564 0 1.02.46 1.02 1.029s-.456 1.028-1.02 1.028z" fill="#ced3f8"/><path d="m644.442 140.469h-9.955c-.565 0-1.02-.459-1.02-1.028s.455-1.029 1.02-1.029h9.955c.564 0 1.02.46 1.02 1.029s-.456 1.028-1.02 1.028z" fill="#ced3f8"/><path d="m644.443 148.182h-5.937c-.564 0-1.02-.459-1.02-1.028 0-.57.456-1.029 1.02-1.029h5.937c.564 0 1.02.459 1.02 1.029 0 .569-.456 1.028-1.02 1.028z" fill="#ced3f8"/><path d="m642.525 158.805h-10.907c-.565 0-1.02-.459-1.02-1.028 0-.57.455-1.029 1.02-1.029h10.907c.564 0 1.02.459 1.02 1.029 0 .569-.456 1.028-1.02 1.028z" fill="#ced3f8"/><path d="m569.404 128.696h-4.978c-.564 0-1.02-.46-1.02-1.029s.456-1.028 1.02-1.028h4.978c.564 0 1.02.459 1.02 1.028s-.456 1.029-1.02 1.029z" fill="#ced3f8"/><path d="m574.961 138.192h-7.154c-.564 0-1.02-.46-1.02-1.029s.456-1.028 1.02-1.028h7.154c.564 0 1.02.459 1.02 1.028s-.456 1.029-1.02 1.029z" fill="#ced3f8"/><path d="m566.916 143.842h-4.019c-.564 0-1.02-.459-1.02-1.028s.456-1.029 1.02-1.029h4.019c.564 0 1.02.46 1.02 1.029s-.456 1.028-1.02 1.028z" fill="#ced3f8"/><path d="m574.96 150.309h-8.038c-.564 0-1.02-.459-1.02-1.028 0-.57.456-1.029 1.02-1.029h8.038c.564 0 1.02.459 1.02 1.029 0 .569-.456 1.028-1.02 1.028z" fill="#ced3f8"/><path d="m564.427 156.047h-3.448c-.564 0-1.02-.459-1.02-1.028s.456-1.029 1.02-1.029h3.448c.564 0 1.02.46 1.02 1.029s-.456 1.028-1.02 1.028z" fill="#ced3f8"/><path d="m575.939 158.805h-5.005c-.564 0-1.02-.459-1.02-1.028 0-.57.456-1.029 1.02-1.029h5.005c.564 0 1.02.459 1.02 1.029 0 .569-.456 1.028-1.02 1.028z" fill="#ced3f8"/><path d="m661.838 163.542c-.564 0-1.02-.46-1.02-1.029v-35.197c0-.569.456-1.029 1.02-1.029.565 0 1.02.46 1.02 1.029v35.197c0 .569-.455 1.029-1.02 1.029z" fill="#ced3f8"/><path d="m661.288 132.241c0 2.03-1.632 3.682-3.652 3.682s-3.652-1.646-3.652-3.682c0-2.037 1.632-3.682 3.652-3.682s3.652 1.645 3.652 3.682z" fill="#fff"/><path d="m657.636 136.951c-2.577 0-4.671-2.112-4.671-4.711s2.094-4.711 4.671-4.711c2.578 0 4.672 2.112 4.672 4.711s-2.094 4.711-4.672 4.711zm0-7.365c-1.448 0-2.631 1.194-2.631 2.654 0 1.461 1.183 2.654 2.631 2.654 1.449 0 2.632-1.193 2.632-2.654 0-1.46-1.183-2.654-2.632-2.654z" fill="#ced3f8"/><path d="m666.877 129.922c0 2.03-1.632 3.683-3.651 3.683-2.02 0-3.652-1.646-3.652-3.683 0-2.036 1.632-3.682 3.652-3.682 2.019 0 3.651 1.646 3.651 3.682z" fill="#fff"/><path d="m663.226 134.633c-2.577 0-4.671-2.112-4.671-4.711s2.094-4.711 4.671-4.711 4.672 2.112 4.672 4.711-2.095 4.711-4.672 4.711zm0-7.365c-1.448 0-2.631 1.193-2.631 2.654 0 1.46 1.183 2.653 2.631 2.653 1.449 0 2.632-1.193 2.632-2.653 0-1.461-1.183-2.654-2.632-2.654z" fill="#ced3f8"/><path d="m671.433 130.471c-.421-.302-.836-.59-1.244-.878.415-.041.829-.075 1.251-.109 5.127-.439 9.493-2.983 9.493-2.983s-4.692-2.16-9.819-1.721c-.47.041-.939.082-1.394.123.523-.411 1.06-.837 1.611-1.269 4.203-3.264 6.773-7.913 6.773-7.913s-5.039.789-9.241 4.053c-1.625 1.262-3.169 2.475-4.373 3.607.524-1.673 1.007-3.731 1.558-5.884 1.421-5.485.591-10.854.591-10.854s-3.699 4.182-5.12 9.668c-.762 2.962-1.462 5.726-1.564 7.749-1.122-1.317-2.727-2.764-4.441-4.279-3.685-3.264-8.098-4.053-8.098-4.053s2.25 4.642 5.936 7.913c.483.425.952.851 1.414 1.269-.401-.041-.809-.082-1.224-.124-4.494-.438-8.608 1.722-8.608 1.722s3.828 2.544 8.316 2.982c.374.035.734.076 1.102.11-.361.288-.721.583-1.095.878-3.788 3.072-6.018 7.927-6.018 7.927s4.27-.892 8.058-3.964c2.251-1.824 4.379-3.421 5.521-4.855.463-.205 1.469-.205 1.993 0 1.305 1.434 3.733 3.031 6.303 4.855 4.318 3.072 9.187 3.964 9.187 3.964s-2.55-4.855-6.868-7.927z" fill="#e2e6f9"/><path d="m647.239 139.419c-.306 0-.605-.144-.802-.391-.238-.301-.286-.72-.123-1.069.089-.192 2.088-4.478 5.549-7.639-4.1-.741-7.344-2.866-7.494-2.962-.299-.199-.476-.549-.455-.912.02-.364.224-.693.544-.858.156-.082 3.447-1.789 7.453-1.892-3.339-3.278-5.325-7.337-5.413-7.516-.17-.349-.129-.761.102-1.069.231-.309.612-.46.993-.391.19.034 4.739.878 8.595 4.292 1.101.981 2.128 1.9 3.019 2.771.286-1.646.762-3.552 1.326-5.726 1.462-5.657 5.188-9.915 5.345-10.094.265-.294.673-.411 1.047-.301.381.109.66.432.721.829.034.227.843 5.651-.612 11.273-.15.576-.293 1.146-.435 1.701-.082.329-.164.658-.252.981.598-.48 1.224-.967 1.884-1.482 4.358-3.387 9.486-4.224 9.703-4.258.388-.062.769.11.993.432s.245.748.054 1.09c-.102.186-2.352 4.204-6.12 7.468 4.55.082 8.303 1.79 8.487 1.872.347.158.578.5.598.884.021.384-.177.748-.51.94-.17.096-3.849 2.222-8.493 2.942 3.903 3.147 6.154 7.391 6.256 7.583.184.35.15.768-.082 1.091-.231.315-.618.48-1.006.404-.211-.034-5.141-.967-9.595-4.128-.455-.322-.904-.637-1.339-.946-2.013-1.412-3.761-2.64-4.917-3.833-.258-.048-.625-.048-.863-.014-1.02 1.187-2.544 2.414-4.298 3.813-.388.308-.775.624-1.176.946-3.938 3.189-8.303 4.128-8.494 4.162-.068.014-.136.021-.204.021zm14.559-11.019c.496 0 .999.075 1.38.219.15.055.279.151.388.268.993 1.097 2.835 2.386 4.787 3.757.442.309.898.631 1.353.954 2.217 1.577 4.611 2.557 6.345 3.126-1.122-1.604-2.911-3.785-5.196-5.41-.421-.295-.829-.59-1.237-.878-.354-.246-.51-.685-.401-1.104.108-.418.469-.72.89-.761.415-.041.837-.075 1.258-.116 2.72-.233 5.236-1.097 6.93-1.817-1.762-.522-4.373-1.07-7.086-.837-.469.041-.932.082-1.387.123-.449.035-.871-.219-1.041-.644-.163-.425-.034-.905.32-1.186l.306-.24c.428-.336.864-.686 1.312-1.029 2.224-1.728 3.985-3.888 5.114-5.458-1.748.555-4.175 1.549-6.331 3.229-1.666 1.296-3.141 2.455-4.304 3.546-.34.315-.85.363-1.238.116-.394-.247-.564-.734-.428-1.179.374-1.2.734-2.613 1.108-4.115.143-.562.286-1.131.435-1.714.755-2.907.844-5.815.776-7.824-1.129 1.68-2.578 4.238-3.332 7.152-.81 3.127-1.435 5.671-1.53 7.543-.021.418-.293.782-.687.919-.395.137-.83.014-1.102-.302-1.054-1.241-2.591-2.626-4.338-4.176-1.795-1.591-3.788-2.564-5.284-3.127.986 1.571 2.523 3.717 4.461 5.438.435.384.864.768 1.278 1.145l.143.124c.333.294.435.774.259 1.179-.177.411-.592.651-1.041.61-.401-.041-.802-.082-1.217-.123-2.36-.226-4.624.315-6.147.836 1.469.714 3.672 1.591 6.052 1.818.374.034.741.075 1.108.109.415.041.755.336.871.734.115.398-.021.837-.347 1.09-.361.288-.721.576-1.088.878-1.993 1.618-3.55 3.778-4.529 5.376 1.482-.576 3.454-1.522 5.29-3.017.402-.322.796-.645 1.184-.953 1.706-1.365 3.318-2.654 4.182-3.744.102-.131.238-.233.387-.295.361-.158.871-.24 1.387-.24z" fill="#d6ddff"/><path d="m239.096 163.699c-.564 0-1.02-.459-1.02-1.028v-48.226c0-.57.456-1.029 1.02-1.029.565 0 1.02.459 1.02 1.029v48.226c0 .569-.455 1.028-1.02 1.028z" fill="#ced3f8"/><path d="m238.543 119.37c0 2.029-1.632 3.682-3.651 3.682-2.02 0-3.652-1.646-3.652-3.682 0-2.037 1.632-3.682 3.652-3.682 2.019 0 3.651 1.645 3.651 3.682z" fill="#fff"/><path d="m234.892 124.08c-2.577 0-4.671-2.112-4.671-4.711s2.094-4.711 4.671-4.711c2.578 0 4.672 2.112 4.672 4.711s-2.094 4.711-4.672 4.711zm0-7.365c-1.448 0-2.631 1.193-2.631 2.654s1.183 2.654 2.631 2.654c1.449 0 2.632-1.193 2.632-2.654s-1.183-2.654-2.632-2.654z" fill="#ced3f8"/><path d="m244.133 117.051c0 2.03-1.632 3.683-3.651 3.683-2.02 0-3.652-1.646-3.652-3.683 0-2.036 1.632-3.682 3.652-3.682 2.019 0 3.651 1.646 3.651 3.682z" fill="#fff"/><path d="m240.482 121.761c-2.577 0-4.671-2.111-4.671-4.71s2.094-4.711 4.671-4.711 4.672 2.112 4.672 4.711-2.095 4.71-4.672 4.71zm0-7.364c-1.448 0-2.631 1.193-2.631 2.654 0 1.46 1.183 2.653 2.631 2.653 1.449 0 2.632-1.193 2.632-2.653 0-1.461-1.183-2.654-2.632-2.654z" fill="#ced3f8"/><path d="m248.691 117.6c-.422-.302-.836-.59-1.244-.878.414-.041.829-.075 1.251-.11 5.127-.438 9.493-2.982 9.493-2.982s-4.692-2.16-9.82-1.722c-.469.042-.938.083-1.394.124.524-.411 1.061-.837 1.612-1.269 4.202-3.264 6.773-7.913 6.773-7.913s-5.039.789-9.241 4.053c-1.626 1.262-3.169 2.475-4.373 3.607.524-1.673 1.007-3.731 1.557-5.884 1.422-5.4854.592-10.8545.592-10.8545s-3.699 4.1828-5.12 9.6685c-.762 2.955-1.462 5.726-1.564 7.749-1.122-1.317-2.727-2.764-4.441-4.279-3.685-3.264-8.099-4.053-8.099-4.053s2.251 4.642 5.937 7.913c.483.425.952.851 1.414 1.269-.401-.041-.809-.082-1.224-.124-4.495-.438-8.609 1.721-8.609 1.721s3.829 2.544 8.317 2.983c.374.035.734.076 1.101.11-.36.288-.72.583-1.094.878-3.788 3.072-6.018 7.927-6.018 7.927s4.27-.892 8.058-3.957c2.25-1.824 4.379-3.422 5.521-4.855.463-.206 1.469-.206 1.993 0 1.305 1.433 3.733 3.031 6.303 4.855 4.318 3.072 9.187 3.957 9.187 3.957s-2.55-4.855-6.868-7.927z" fill="#e2e6f9"/><path d="m224.489 126.555c-.306 0-.605-.144-.802-.391-.238-.302-.286-.72-.123-1.07.089-.192 2.088-4.477 5.549-7.638-4.1-.741-7.344-2.867-7.494-2.963-.299-.199-.476-.548-.455-.912.02-.363.224-.692.544-.857.156-.082 3.447-1.79 7.453-1.892-3.339-3.278-5.325-7.337-5.413-7.523-.17-.349-.129-.761.102-1.069.231-.309.612-.46.993-.391.19.034 4.739.878 8.595 4.292 1.101.981 2.128 1.9 3.019 2.771.286-1.646.762-3.552 1.326-5.726 1.462-5.6571 5.188-9.9154 5.345-10.0937.265-.2948.673-.4114 1.047-.3017.381.1097.66.4389.721.8297.034.2263.843 5.6503-.612 11.2727-.15.576-.293 1.152-.435 1.715-.082.329-.164.651-.245.973.598-.48 1.224-.966 1.883-1.481 4.359-3.387 9.486-4.224 9.704-4.258.388-.062.768.11.993.425.224.322.245.748.054 1.09-.102.186-2.353 4.211-6.12 7.468 4.549.082 8.303 1.789 8.487 1.872.346.157.578.5.598.884s-.177.748-.51.94c-.17.096-3.849 2.215-8.493 2.941 3.903 3.148 6.154 7.392 6.256 7.584.183.35.149.768-.075 1.091-.231.315-.619.473-1.006.404-.211-.034-5.141-.967-9.595-4.135-.456-.322-.905-.637-1.347-.946-2.012-1.412-3.76-2.64-4.916-3.833-.258-.048-.626-.048-.864-.014-1.02 1.187-2.543 2.407-4.29 3.813-.388.308-.776.624-1.177.946-3.937 3.189-8.303 4.128-8.486 4.169-.068.014-.136.021-.204.021zm14.559-11.019c.496 0 .999.075 1.38.219.15.055.279.144.388.267.993 1.098 2.835 2.387 4.78 3.751.442.309.898.631 1.353.953 2.217 1.578 4.611 2.558 6.345 3.127-1.129-1.604-2.911-3.785-5.195-5.41-.422-.295-.83-.59-1.238-.878-.354-.247-.51-.692-.401-1.111.109-.418.469-.72.897-.761l1.258-.109c2.72-.234 5.236-1.098 6.93-1.818-1.762-.521-4.373-1.069-7.086-.843-.469.041-.932.082-1.387.123-.442.042-.877-.219-1.041-.644-.17-.425-.034-.905.32-1.186l.197-.158c.463-.364.939-.741 1.421-1.111 2.224-1.728 3.985-3.881 5.114-5.458-1.748.555-4.175 1.55-6.331 3.229-1.666 1.296-3.141 2.455-4.304 3.546-.34.315-.85.363-1.238.116-.394-.247-.564-.734-.428-1.179.374-1.193.727-2.606 1.108-4.108.143-.562.286-1.138.442-1.728.755-2.914.843-5.8213.782-7.8236-1.129 1.68-2.577 4.2376-3.332 7.1516-.809 3.127-1.435 5.671-1.53 7.543-.02.418-.292.782-.687.919-.394.137-.829.014-1.101-.302-1.054-1.241-2.591-2.626-4.339-4.176-1.795-1.59-3.787-2.564-5.283-3.126.986 1.57 2.523 3.716 4.461 5.437.476.425.945.844 1.4 1.255.334.295.442.782.266 1.193-.177.405-.585.658-1.027.617-.401-.041-.803-.082-1.217-.123-2.36-.233-4.624.315-6.148.836 1.469.714 3.672 1.591 6.052 1.818l1.109.109c.415.041.761.336.877.734s-.02.837-.347 1.09c-.36.288-.721.576-1.088.878-1.992 1.618-3.549 3.778-4.529 5.376 1.476-.576 3.455-1.522 5.291-3.017.401-.322.795-.645 1.183-.953 1.707-1.365 3.312-2.654 4.182-3.744.102-.131.231-.233.381-.295.36-.158.87-.24 1.394-.24z" fill="#d6ddff"/><path d="m37.1684 163.329c-.5644 0-1.02-.46-1.02-1.029v-34.512c0-.569.4556-1.028 1.02-1.028s1.02.459 1.02 1.028v34.512c0 .569-.4556 1.029-1.02 1.029z" fill="#ced3f8"/><path d="m36.6177 132.712c0 2.029-1.632 3.682-3.6516 3.682s-3.6516-1.646-3.6516-3.682c0-2.037 1.632-3.683 3.6516-3.683s3.6516 1.646 3.6516 3.683z" fill="#fff"/><path d="m32.9665 137.416c-2.5772 0-4.6716-2.112-4.6716-4.711s2.0944-4.711 4.6716-4.711 4.6716 2.112 4.6716 4.711-2.0944 4.711-4.6716 4.711zm0-7.365c-1.4484 0-2.6316 1.193-2.6316 2.654s1.1832 2.654 2.6316 2.654 2.6316-1.193 2.6316-2.654-1.1832-2.654-2.6316-2.654z" fill="#ced3f8"/><path d="m42.2075 130.389c0 2.03-1.632 3.683-3.6516 3.683s-3.6516-1.646-3.6516-3.683c0-2.036 1.632-3.682 3.6516-3.682s3.6516 1.646 3.6516 3.682z" fill="#fff"/><path d="m38.5564 135.099c-2.5772 0-4.6716-2.112-4.6716-4.71 0-2.599 2.0944-4.711 4.6716-4.711s4.6716 2.112 4.6716 4.711c0 2.598-2.0944 4.71-4.6716 4.71zm0-7.364c-1.4484 0-2.6316 1.193-2.6316 2.654 0 1.46 1.1832 2.653 2.6316 2.653s2.6316-1.193 2.6316-2.653c0-1.461-1.1832-2.654-2.6316-2.654z" fill="#ced3f8"/><path d="m46.7633 130.936c-.4216-.302-.8364-.59-1.2444-.878.4148-.041.8296-.075 1.2512-.11 5.1272-.438 9.4928-2.982 9.4928-2.982s-4.692-2.16-9.8192-1.722c-.4692.042-.9384.083-1.394.124.5236-.412 1.0608-.837 1.6116-1.269 4.2024-3.264 6.7728-7.913 6.7728-7.913s-5.0388.789-9.2412 4.053c-1.6252 1.261-3.1688 2.475-4.3724 3.607.5236-1.674 1.0064-3.731 1.5572-5.884 1.4212-5.485.5916-10.855.5916-10.855s-3.6992 4.183-5.1204 9.669c-.7616 2.962-1.462 5.726-1.564 7.748-1.122-1.316-2.7268-2.763-4.4404-4.278-3.6856-3.264-8.0988-4.053-8.0988-4.053s2.2508 4.642 5.9364 7.913c.4828.425.952.85 1.4144 1.269-.4012-.041-.8092-.083-1.224-.124-4.4948-.439-8.6088 1.721-8.6088 1.721s3.8284 2.544 8.3164 2.983c.374.035.7344.076 1.1016.11-.3604.288-.7208.583-1.0948.878-3.7876 3.072-6.018 7.926-6.018 7.926s4.2704-.891 8.058-3.963c2.2508-1.824 4.3792-3.422 5.5216-4.855.4624-.205 1.4688-.205 1.9924 0 1.3056 1.433 3.7332 3.031 6.3036 4.855 4.318 3.072 9.1868 3.963 9.1868 3.963s-2.55-4.854-6.868-7.926z" fill="#e2e6f9"/><path d="m53.6314 139.892c-.0612 0-.1224 0-.1836-.014-.2108-.034-5.1408-.967-9.5948-4.128-.4556-.322-.9044-.638-1.3396-.946-2.0128-1.413-3.7604-2.64-4.9164-3.833-.2584-.048-.6256-.048-.8636-.014-1.02 1.186-2.5432 2.407-4.2908 3.813-.3876.308-.7752.624-1.1764.946-3.9372 3.188-8.3028 4.128-8.4932 4.162-.374.082-.7684-.062-1.0064-.37-.238-.302-.2856-.72-.1224-1.07.0884-.192 2.0876-4.478 5.5488-7.639-4.1004-.74-7.344-2.866-7.4936-2.962-.2992-.199-.476-.549-.4556-.912s.2244-.692.544-.857c.1564-.082 3.4544-1.79 7.4528-1.893-3.3388-3.277-5.3244-7.337-5.4128-7.522-.17-.35-.1292-.761.102-1.07.2312-.308.612-.459.9928-.39.1904.034 4.7396.877 8.5952 4.292 1.1016.981 2.1284 1.9 3.0192 2.77.2856-1.645.7616-3.552 1.326-5.725 1.462-5.657 5.1884-9.916 5.3448-10.094.2652-.295.6732-.411 1.0472-.302.3808.11.6596.432.7208.83.034.226.8432 5.65-.612 11.273-.1496.576-.2924 1.145-.4352 1.701-.0816.329-.1632.658-.2516.98.5984-.48 1.224-.967 1.8836-1.481 4.3588-3.387 9.486-4.224 9.7036-4.258.3876-.062.7684.11.9928.425.2244.322.2448.747.0544 1.09-.102.185-2.3528 4.211-6.12 7.468 4.5492.082 8.3028 1.789 8.4864 1.872.3469.157.5781.5.5985.884s-.1768.748-.51.94c-.17.096-3.8489 2.221-8.4933 2.941 3.9032 3.148 6.154 7.392 6.256 7.584.1836.35.1496.768-.0816 1.091-.1972.267-.5032.418-.8228.418zm-16.5036-11.02c.4964 0 .9996.076 1.3804.22.1496.055.2788.151.3876.267.9928 1.097 2.8356 2.387 4.7804 3.751.442.309.8976.631 1.3532.953 2.2168 1.577 4.6104 2.558 6.3444 3.127-1.122-1.604-2.9104-3.785-5.1952-5.41-.4216-.295-.8296-.59-1.2376-.878-.3536-.247-.51-.686-.4012-1.104s.4692-.72.8908-.761c.4148-.041.8364-.075 1.258-.11 2.72-.233 5.236-1.097 6.9292-1.817-1.7612-.521-4.3724-1.069-7.0856-.836-.4692.041-.9316.082-1.3872.123-.4488.034-.8772-.219-1.0404-.644-.17-.426-.034-.906.3196-1.187l.1972-.157c.4624-.364.9384-.741 1.4212-1.111 2.2236-1.728 3.9848-3.888 5.1136-5.459-1.7476.556-4.1752 1.55-6.3308 3.23-1.666 1.296-3.1348 2.455-4.3044 3.545-.34.316-.85.364-1.2376.117s-.5644-.734-.4284-1.18c.374-1.2.7344-2.612 1.1084-4.114.1428-.562.2856-1.131.4352-1.714.7548-2.908.8432-5.815.7752-7.824-1.1288 1.68-2.5772 4.238-3.332 7.152-.8092 3.127-1.4348 5.671-1.53 7.543-.0204.418-.2924.781-.6868.919-.3944.137-.8296.013-1.1016-.302-1.054-1.241-2.5908-2.626-4.3384-4.176-1.7952-1.591-3.7876-2.565-5.2836-3.127.986 1.57 2.5228 3.717 4.4608 5.438.476.425.9452.843 1.4008 1.255.3332.294.442.781.2652 1.193-.1768.404-.5848.658-1.0268.617-.4012-.041-.8024-.083-1.2172-.124-2.3664-.233-4.624.316-6.1472.837 1.4688.713 3.672 1.591 6.052 1.824.374.034.7412.075 1.1084.11.4148.041.7548.336.8704.733.1156.405-.0204.83-.3468 1.091-.3604.288-.7208.576-1.088.877-1.9924 1.619-3.5496 3.779-4.5288 5.376 1.4824-.576 3.4544-1.522 5.2904-3.017.4012-.322.7956-.644 1.1832-.953 1.7068-1.365 3.3116-2.654 4.182-3.744.102-.13.2312-.233.3808-.295.3604-.158.8704-.24 1.394-.24z" fill="#d6ddff"/><path d="m372.254 163.344c-.564 0-1.02-.459-1.02-1.028v-34.512c0-.569.456-1.029 1.02-1.029.565 0 1.02.46 1.02 1.029v34.512c0 .569-.455 1.028-1.02 1.028z" fill="#ced3f8"/><path d="m371.702 132.727c0 2.037-1.632 3.682-3.652 3.682s-3.652-1.645-3.652-3.682c0-2.036 1.632-3.682 3.652-3.682s3.652 1.646 3.652 3.682z" fill="#fff"/><path d="m368.051 137.437c-2.578 0-4.672-2.112-4.672-4.711 0-2.598 2.094-4.71 4.672-4.71 2.577 0 4.671 2.112 4.671 4.71 0 2.599-2.094 4.711-4.671 4.711zm0-7.364c-1.449 0-2.632 1.193-2.632 2.653 0 1.461 1.183 2.654 2.632 2.654 1.448 0 2.631-1.193 2.631-2.654 0-1.46-1.183-2.653-2.631-2.653z" fill="#ced3f8"/><path d="m377.292 130.403c0 2.03-1.633 3.682-3.652 3.682-2.02 0-3.652-1.645-3.652-3.682s1.632-3.682 3.652-3.682c2.019 0 3.652 1.645 3.652 3.682z" fill="#fff"/><path d="m373.64 135.113c-2.577 0-4.671-2.112-4.671-4.711s2.094-4.711 4.671-4.711c2.578 0 4.672 2.112 4.672 4.711s-2.094 4.711-4.672 4.711zm0-7.364c-1.448 0-2.631 1.193-2.631 2.653 0 1.461 1.183 2.654 2.631 2.654 1.449 0 2.632-1.193 2.632-2.654 0-1.46-1.183-2.653-2.632-2.653z" fill="#ced3f8"/><path d="m381.849 130.951c-.421-.301-.836-.589-1.244-.877.415-.041.829-.076 1.251-.11 5.127-.439 9.493-2.983 9.493-2.983s-4.692-2.16-9.819-1.721c-.47.041-.939.082-1.394.123.523-.411 1.06-.836 1.611-1.268 4.203-3.264 6.773-7.913 6.773-7.913s-5.039.788-9.241 4.052c-1.625 1.262-3.169 2.476-4.373 3.607.524-1.673 1.007-3.73 1.558-5.883 1.421-5.486.591-10.855.591-10.855s-3.699 4.183-5.12 9.669c-.762 2.962-1.462 5.725-1.564 7.748-1.122-1.316-2.727-2.763-4.441-4.279-3.685-3.264-8.098-4.052-8.098-4.052s2.25 4.642 5.936 7.913c.483.425.952.85 1.414 1.268-.401-.041-.809-.082-1.224-.123-4.494-.439-8.608 1.721-8.608 1.721s3.828 2.544 8.316 2.983c.374.034.734.075 1.102.11-.361.288-.721.582-1.095.877-3.788 3.072-6.018 7.927-6.018 7.927s4.27-.891 8.058-3.956c2.251-1.824 4.379-3.415 5.521-4.855.463-.206 1.469-.206 1.993 0 1.305 1.433 3.733 3.031 6.303 4.855 4.318 3.072 9.187 3.956 9.187 3.956s-2.55-4.855-6.868-7.927z" fill="#e2e6f9"/><path d="m357.647 139.907c-.306 0-.605-.144-.802-.391-.238-.302-.286-.72-.123-1.07.089-.192 2.088-4.478 5.549-7.639-4.1-.74-7.344-2.866-7.494-2.962-.299-.199-.475-.549-.455-.912.02-.364.224-.693.544-.857.156-.083 3.454-1.79 7.453-1.893-3.339-3.271-5.325-7.337-5.413-7.522-.17-.35-.129-.761.102-1.07.231-.308.612-.459.993-.391.19.035 4.739.878 8.595 4.293 1.102.981 2.128 1.899 3.019 2.77.286-1.646.762-3.552 1.326-5.725 1.462-5.658 5.189-9.916 5.345-10.094.265-.295.673-.412 1.047-.302.381.11.66.432.721.83.034.226.843 5.65-.612 11.273-.15.583-.292 1.152-.435 1.714-.082.329-.163.652-.245.974.598-.48 1.224-.967 1.884-1.481 4.358-3.388 9.486-4.224 9.703-4.258.388-.062.769.109.993.425.224.322.245.747.054 1.09-.102.185-2.352 4.21-6.12 7.467 4.55.083 8.303 1.79 8.487 1.872.347.158.578.501.598.885.021.384-.177.747-.51.939-.17.096-3.849 2.222-8.493 2.942 3.903 3.147 6.154 7.392 6.256 7.584.184.35.15.768-.075 1.09-.231.316-.619.48-1.006.405-.211-.034-5.141-.967-9.595-4.135-.456-.322-.904-.638-1.346-.946-2.013-1.413-3.761-2.64-4.917-3.833-.258-.048-.625-.048-.863-.014-1.02 1.186-2.544 2.407-4.291 3.812-.388.309-.775.624-1.177.947-3.937 3.188-8.302 4.128-8.486 4.169-.068.014-.136.02-.204.02zm14.559-11.02c.496 0 1 .076 1.38.22.15.054.279.144.388.267.993 1.097 2.836 2.386 4.78 3.751.442.308.898.631 1.354.953 2.216 1.577 4.61 2.558 6.344 3.127-1.129-1.605-2.91-3.785-5.195-5.41-.422-.295-.83-.59-1.238-.878-.353-.247-.51-.686-.401-1.104s.469-.72.891-.761c.415-.041.836-.076 1.258-.117 2.72-.233 5.236-1.097 6.929-1.817-1.761-.521-4.372-1.07-7.086-.837-.469.042-.931.083-1.387.124-.449.034-.877-.22-1.04-.645-.17-.425-.034-.905.319-1.186l.327-.261c.421-.329.85-.672 1.285-1.008 2.224-1.728 3.985-3.887 5.114-5.458-1.748.556-4.176 1.55-6.331 3.23-1.666 1.296-3.142 2.455-4.305 3.545-.34.315-.85.363-1.237.117-.388-.247-.565-.734-.429-1.18.374-1.193.728-2.606 1.109-4.107.143-.562.285-1.138.442-1.728.755-2.914.843-5.822.782-7.824-1.129 1.68-2.577 4.238-3.332 7.152-.809 3.127-1.435 5.671-1.53 7.543-.021.418-.293.781-.687.918-.394.138-.83.014-1.102-.301-1.054-1.241-2.59-2.627-4.338-4.176-1.795-1.591-3.788-2.565-5.284-3.127.986 1.57 2.523 3.716 4.461 5.438.429.384.85.761 1.265 1.131l.156.137c.334.295.436.775.252 1.186-.177.405-.598.652-1.04.611-.402-.041-.803-.083-1.218-.124-2.359-.226-4.624.316-6.147.837 1.469.713 3.672 1.591 6.052 1.817.374.034.741.075 1.109.117.414.041.754.336.87.733.116.398-.02.837-.347 1.091-.36.288-.721.576-1.088.87-1.992 1.619-3.549 3.779-4.529 5.376 1.476-.576 3.455-1.522 5.291-3.017.401-.322.795-.644 1.183-.953 1.707-1.364 3.312-2.654 4.182-3.744.102-.13.231-.233.381-.295.36-.157.87-.24 1.394-.24z" fill="#d6ddff"/><path d="m314.895 138.076h-75.95v24.487h75.95z" fill="#fff"/><path d="m314.895 163.591h-75.949c-.565 0-1.02-.46-1.02-1.029v-24.487c0-.569.455-1.028 1.02-1.028h75.949c.564 0 1.02.459 1.02 1.028v24.487c0 .569-.456 1.029-1.02 1.029zm-74.929-2.057h73.909v-22.43h-73.909z" fill="#ced3f8"/><path d="m251.688 145.125h-5.637v6.603h5.637z" fill="#fff"/><path d="m251.688 152.756h-5.637c-.564 0-1.02-.459-1.02-1.028v-6.604c0-.569.456-1.028 1.02-1.028h5.637c.565 0 1.02.459 1.02 1.028v6.604c0 .569-.455 1.028-1.02 1.028zm-4.617-2.057h3.597v-4.546h-3.597z" fill="#ced3f8"/><path d="m263.323 145.125h-5.637v6.603h5.637z" fill="#fff"/><path d="m263.323 152.756h-5.637c-.564 0-1.02-.459-1.02-1.028v-6.604c0-.569.456-1.028 1.02-1.028h5.637c.565 0 1.02.459 1.02 1.028v6.604c0 .569-.455 1.028-1.02 1.028zm-4.617-2.057h3.597v-4.546h-3.597z" fill="#ced3f8"/><path d="m274.965 145.125h-5.637v6.603h5.637z" fill="#fff"/><path d="m274.966 152.756h-5.637c-.565 0-1.02-.459-1.02-1.028v-6.604c0-.569.455-1.028 1.02-1.028h5.637c.564 0 1.02.459 1.02 1.028v6.604c0 .569-.456 1.028-1.02 1.028zm-4.617-2.057h3.597v-4.546h-3.597z" fill="#ced3f8"/><path d="m286.6 145.125h-5.637v6.603h5.637z" fill="#fff"/><path d="m286.601 152.756h-5.638c-.564 0-1.02-.459-1.02-1.028v-6.604c0-.569.456-1.028 1.02-1.028h5.638c.564 0 1.02.459 1.02 1.028v6.604c0 .569-.456 1.028-1.02 1.028zm-4.618-2.057h3.598v-4.546h-3.598z" fill="#ced3f8"/><path d="m298.241 145.125h-5.637v6.603h5.637z" fill="#fff"/><path d="m298.241 152.756h-5.637c-.564 0-1.02-.459-1.02-1.028v-6.604c0-.569.456-1.028 1.02-1.028h5.637c.565 0 1.02.459 1.02 1.028v6.604c0 .569-.455 1.028-1.02 1.028zm-4.617-2.057h3.597v-4.546h-3.597z" fill="#ced3f8"/><path d="m309.875 145.125h-5.637v6.603h5.637z" fill="#fff"/><path d="m309.876 152.756h-5.637c-.565 0-1.02-.459-1.02-1.028v-6.604c0-.569.455-1.028 1.02-1.028h5.637c.564 0 1.02.459 1.02 1.028v6.604c0 .569-.456 1.028-1.02 1.028zm-4.617-2.057h3.597v-4.546h-3.597z" fill="#ced3f8"/><path d="m222.68 162.687h28.791c.054-.48.082-.967.075-1.467-.075-5.856-4.502-10.554-9.887-10.485-.558.007-1.109.069-1.639.171-1.782-3.065-5.168-4.786-8.629-4.052-4.502.96-7.426 5.705-6.535 10.594.142.782.374 1.516.68 2.201-1.211.672-2.21 1.735-2.856 3.031z" fill="#e2e6f9"/><path d="m251.477 163.715h-28.791c-.354 0-.68-.185-.87-.487-.184-.302-.204-.686-.041-1.001.605-1.207 1.462-2.229 2.509-2.976-.184-.521-.32-1.056-.422-1.605-.986-5.431 2.299-10.717 7.324-11.787 3.55-.754 7.222.816 9.343 3.936.381-.048.755-.076 1.129-.082h.129c5.882 0 10.71 5.129 10.792 11.499 0 .521-.021 1.056-.082 1.598-.061.521-.496.912-1.013.912zm-26.853-2.057h25.901c0-.144 0-.288 0-.426-.061-5.245-3.985-9.469-8.751-9.469-.034 0-.068 0-.102 0-.476 0-.966.055-1.462.158-.422.082-.857-.117-1.075-.487-1.625-2.798-4.583-4.197-7.541-3.566-3.958.843-6.528 5.061-5.739 9.401.122.679.326 1.344.605 1.968.218.487.027 1.063-.442 1.324-.524.287-.993.658-1.408 1.097z" fill="#d6ddff"/><path d="m422.396 115.496h-24.888v47.012h24.888z" fill="#fff"/><path d="m422.396 163.536h-24.888c-.564 0-1.02-.459-1.02-1.028v-47.013c0-.569.456-1.028 1.02-1.028h24.888c.565 0 1.02.459 1.02 1.028v47.013c0 .569-.455 1.028-1.02 1.028zm-23.868-2.057h22.848v-44.955h-22.848z" fill="#ced3f8"/><path d="m416.819 121.873h-13.926v4.279h13.926z" fill="#fff"/><path d="m416.819 127.174h-13.926c-.564 0-1.02-.46-1.02-1.029v-4.279c0-.569.456-1.028 1.02-1.028h13.926c.565 0 1.02.459 1.02 1.028v4.279c0 .569-.455 1.029-1.02 1.029zm-12.906-2.057h11.886v-2.222h-11.886z" fill="#ced3f8"/><path d="m416.819 133.037h-13.926v4.279h13.926z" fill="#fff"/><path d="m416.819 138.344h-13.926c-.564 0-1.02-.46-1.02-1.029v-4.279c0-.569.456-1.028 1.02-1.028h13.926c.565 0 1.02.459 1.02 1.028v4.279c0 .569-.455 1.029-1.02 1.029zm-12.906-2.057h11.886v-2.222h-11.886z" fill="#ced3f8"/><path d="m416.819 144.205h-13.926v4.279h13.926z" fill="#fff"/><path d="m416.819 149.506h-13.926c-.564 0-1.02-.46-1.02-1.029v-4.279c0-.569.456-1.028 1.02-1.028h13.926c.565 0 1.02.459 1.02 1.028v4.279c0 .569-.455 1.029-1.02 1.029zm-12.906-2.057h11.886v-2.222h-11.886z" fill="#ced3f8"/><path d="m408.225 162.687h28.791c.054-.48.081-.967.075-1.467-.075-5.856-4.502-10.554-9.888-10.485-.557.007-1.108.069-1.638.171-1.782-3.065-5.168-4.786-8.63-4.052-4.501.96-7.425 5.705-6.534 10.594.142.782.374 1.516.68 2.201-1.211.672-2.21 1.735-2.856 3.031z" fill="#e2e6f9"/><path d="m437.016 163.715h-28.791c-.354 0-.68-.185-.87-.487-.184-.302-.204-.686-.041-1.001.605-1.207 1.462-2.229 2.509-2.976-.184-.521-.32-1.056-.422-1.605-.986-5.431 2.299-10.717 7.324-11.787 3.55-.754 7.222.816 9.343 3.936.381-.048.755-.076 1.129-.082h.129c5.882 0 10.71 5.129 10.792 11.499 0 .521-.021 1.056-.082 1.598-.061.521-.496.912-1.013.912zm-26.853-2.057h25.901c0-.144 0-.288 0-.426-.061-5.245-3.985-9.469-8.751-9.469-.034 0-.068 0-.102 0-.476 0-.966.055-1.456.151-.428.089-.856-.11-1.074-.487-1.625-2.798-4.583-4.197-7.541-3.566-3.958.844-6.535 5.061-5.739 9.401.122.679.326 1.344.605 1.968.217.487.027 1.063-.442 1.324-.524.288-.993.658-1.408 1.097z" fill="#d6ddff"/><path d="m500.725 142.189h-54.209v20.448h54.209z" fill="#fff"/><path d="m500.732 163.665h-54.21c-.564 0-1.02-.459-1.02-1.028v-20.448c0-.569.456-1.029 1.02-1.029h54.21c.564 0 1.02.46 1.02 1.029v20.448c0 .569-.456 1.028-1.02 1.028zm-53.19-2.057h52.17v-18.391h-52.17z" fill="#ced3f8"/><path d="m472.028 133.865h-20.536v7.879h20.536z" fill="#fff"/><path d="m472.029 142.772h-20.536c-.565 0-1.02-.46-1.02-1.029v-7.878c0-.57.455-1.029 1.02-1.029h20.536c.564 0 1.02.459 1.02 1.029v7.878c0 .569-.456 1.029-1.02 1.029zm-19.516-2.057h18.496v-5.822h-18.496z" fill="#ced3f8"/><path d="m488.656 146.949h-6.929v15.319h6.929z" fill="#fff"/><path d="m488.662 163.296h-6.929c-.565 0-1.02-.46-1.02-1.029v-15.319c0-.569.455-1.028 1.02-1.028h6.929c.565 0 1.02.459 1.02 1.028v15.319c0 .569-.455 1.029-1.02 1.029zm-5.909-2.057h4.889v-13.262h-4.889z" fill="#ced3f8"/><path d="m463.161 148.279h-10.54v7.317h10.54z" fill="#e2e6f9"/><path d="m463.162 156.624h-10.54c-.565 0-1.02-.46-1.02-1.029v-7.316c0-.57.455-1.029 1.02-1.029h10.54c.564 0 1.02.459 1.02 1.029v7.316c0 .569-.456 1.029-1.02 1.029zm-9.52-2.057h8.5v-5.26h-8.5z" fill="#d6ddff"/><path d="m521.248 162.33h-28.791c-.055-.48-.082-.967-.075-1.468.075-5.856 4.501-10.553 9.887-10.484.558.006 1.108.068 1.639.171 1.781-3.065 5.168-4.786 8.629-4.052 4.502.959 7.426 5.705 6.535 10.594-.143.781-.374 1.522-.68 2.201 1.21.672 2.21 1.735 2.856 3.031z" fill="#e2e6f9"/><path d="m521.248 163.358h-28.791c-.517 0-.952-.391-1.013-.912-.061-.541-.088-1.076-.082-1.597.082-6.371 4.91-11.5 10.792-11.5h.129c.374 0 .748.035 1.129.083 2.122-3.12 5.794-4.691 9.343-3.936 5.025 1.069 8.31 6.363 7.324 11.787-.102.549-.238 1.083-.422 1.605 1.047.754 1.904 1.769 2.509 2.975.164.316.143.7-.04 1.002-.184.301-.517.486-.871.486zm-27.846-2.057h25.902c-.415-.439-.884-.809-1.408-1.097-.469-.26-.66-.836-.442-1.323.279-.624.483-1.283.605-1.968.789-4.341-1.781-8.558-5.739-9.401-2.958-.631-5.916.768-7.541 3.565-.218.377-.646.576-1.075.487-.489-.096-.986-.151-1.462-.158-.034 0-.068 0-.102 0-4.773 0-8.69 4.224-8.751 9.47v.425z" fill="#d6ddff"/><path d="m556.396 32.2641c-2.284 0-4.304 1.1452-5.528 2.8937-1.544-3.8194-5.256-6.5211-9.602-6.5211-3.379 0-6.371 1.6389-8.268 4.1623-1.666-1.7966-4.04-2.928-6.671-2.928-5.046 0-9.139 4.128-9.139 9.2159 0 5.088 4.093 9.216 9.139 9.216 2.638 0 5.005-1.1314 6.671-2.928 1.89 2.5234 4.889 4.1622 8.268 4.1622 4.346 0 8.058-2.6948 9.602-6.5211 1.224 1.7486 3.244 2.8937 5.528 2.8937 3.74 0 6.773-3.0582 6.773-6.8296s-3.033-6.8297-6.773-6.8297z" fill="#fff"/><path d="m541.267 50.5728c-3.21 0-6.195-1.3303-8.351-3.6891-1.836 1.5908-4.134 2.4548-6.589 2.4548-5.603 0-10.159-4.5942-10.159-10.2445 0-5.6502 4.556-10.2445 10.159-10.2445 2.448 0 4.753.864 6.589 2.4548 2.156-2.3588 5.141-3.6891 8.351-3.6891 4.114 0 7.827 2.2012 9.846 5.7188 1.428-1.3302 3.312-2.0914 5.291-2.0914 4.297 0 7.792 3.5246 7.792 7.8583s-3.495 7.8582-7.792 7.8582c-1.972 0-3.863-.7611-5.291-2.0914-2.019 3.5177-5.732 5.7188-9.846 5.7188zm-8.269-6.2194h.054c.3.0137.578.1646.762.4046 1.788 2.3862 4.508 3.7577 7.453 3.7577 3.815 0 7.215-2.304 8.656-5.8766.143-.3497.456-.5897.83-.6308.367-.0412.734.1234.952.4251 1.081 1.5429 2.835 2.4617 4.699 2.4617 3.175 0 5.752-2.6057 5.752-5.8011s-2.584-5.8011-5.752-5.8011c-1.864 0-3.618.9189-4.699 2.4617-.218.3086-.585.4663-.952.4251-.367-.0411-.687-.288-.83-.6308-1.441-3.5726-4.835-5.8765-8.656-5.8765-2.951 0-5.665 1.3714-7.453 3.7577-.184.2399-.462.3908-.762.4045-.292.0137-.591-.1028-.795-.3223-1.557-1.68-3.665-2.6057-5.93-2.6057-4.481 0-8.119 3.6754-8.119 8.1874s3.645 8.1874 8.119 8.1874c2.265 0 4.366-.9257 5.923-2.6057.19-.2057.462-.3292.748-.3292z" fill="#ced3f8"/><path d="m610.131 81.5459c-.279 0-.551-.1166-.748-.3292-2.877-3.1337-5.304-3.12-5.393-3.1062-.544 0-1.027-.4252-1.054-.9875-.02-.5622.401-1.0354.959-1.0628.129-.0069 2.917-.1097 6.147 2.9143.775-.7818 2.027-1.7418 3.727-2.8526.469-.3086 1.101-.1783 1.414.3017.306.4732.17 1.1109-.299 1.4263-3.087 2.0228-3.713 2.928-3.795 3.0583-.122.3017-.374.5348-.693.6171-.082.0206-.17.0343-.252.0343z" fill="#e2e6f9"/></g></svg>