<svg height="221.501" viewBox="0 0 171.758 221.501" width="171.758" xmlns="http://www.w3.org/2000/svg" xmlns:xlink="http://www.w3.org/1999/xlink"><linearGradient id="a" gradientUnits="objectBoundingBox" x1=".5" x2=".5" y2="1"><stop offset="0" stop-color="#eedebc"/><stop offset=".485" stop-color="#9a7a5f"/><stop offset="1" stop-color="#ccac8a"/></linearGradient><linearGradient id="b" gradientUnits="objectBoundingBox" x1="-1.133" x2="3.383" y1="4.665" y2="-.426"><stop offset="0" stop-color="#6cf"/><stop offset=".5" stop-color="#6258a6"/><stop offset=".99" stop-color="#273470"/></linearGradient><linearGradient id="c" x1="-.835" x2="3.68" xlink:href="#b" y1="2.573" y2="-2.517"/><linearGradient id="d" x1="-1.182" x2="3.318" xlink:href="#b" y1="2.903" y2="-2.145"/><linearGradient id="e" x1="-3.753" x2=".749" xlink:href="#b" y1=".546" y2="-4.502"/><linearGradient id="f" x1="-2.862" x2="1.638" xlink:href="#b" y1="2.193" y2="-2.926"/><linearGradient id="g" x1="-2.085" x2="2.417" xlink:href="#b" y1="-.956" y2="-6.004"/><linearGradient id="h" x1="-.859" x2="3.643" xlink:href="#b" y1="-.588" y2="-5.707"/><linearGradient id="i" x1="-.819" x2="2.756" xlink:href="#b" y1="5.019" y2=".983"/><linearGradient id="j" x1="-.181" x2="3.432" xlink:href="#b" y1="5.83" y2="1.758"/><linearGradient id="k" x1=".097" x2="3.708" xlink:href="#b" y1="2.506" y2="-1.566"/><linearGradient id="l" x1=".011" x2="3.585" xlink:href="#b" y1="3.587" y2="-.448"/><linearGradient id="m" x1=".496" x2=".496" xlink:href="#b" y1="5.711" y2=".192"/><linearGradient id="n" x1=".501" x2=".501" xlink:href="#b" y1="5.086" y2="-.433"/><linearGradient id="o" x1=".497" x2=".497" xlink:href="#b" y1="5.086" y2="-.433"/><linearGradient id="p" x1=".501" x2=".501" xlink:href="#b" y1="4.461" y2="-1.058"/><linearGradient id="q" x1=".497" x2=".497" xlink:href="#b" y1="4.461" y2="-1.058"/><linearGradient id="r" x1=".499" x2=".499" xlink:href="#b" y1="3.836" y2="-1.683"/><linearGradient id="s" x1=".503" x2=".503" xlink:href="#b" y1="5.711" y2=".192"/><linearGradient id="t" x1=".501" x2=".501" xlink:href="#b" y1="3.836" y2="-1.683"/><linearGradient id="u" x1=".499" x2=".499" xlink:href="#b" y1="4.461" y2="-1.058"/><linearGradient id="v" x1=".496" x2=".496" xlink:href="#b" y1="5.086" y2="-.433"/><linearGradient id="w" x1=".501" x2=".501" xlink:href="#b" y1="1.039" y2="-4.432"/><linearGradient id="x" x1=".498" x2=".498" xlink:href="#b" y1="2.34" y2="-3.21"/><linearGradient id="y" x1=".506" x2=".506" xlink:href="#b" y1="1.9" y2="-3.572"/><linearGradient id="z" x1=".496" x2=".496" xlink:href="#b" y1="1.227" y2="-4.324"/><linearGradient id="A" x1=".503" x2=".503" xlink:href="#b" y1="2.941" y2="-2.61"/><linearGradient id="B" x1=".493" x2=".493" xlink:href="#b" y1="2.941" y2="-2.61"/><linearGradient id="C" x1=".496" x2=".496" xlink:href="#b" y1="4.536" y2="-1.014"/><linearGradient id="D" x1=".497" x2=".497" xlink:href="#b" y1="5.751" y2="1.335"/><linearGradient id="E" x1=".501" x2=".501" xlink:href="#b" y1="5.204" y2=".827"/><linearGradient id="F" x1=".499" x2=".499" xlink:href="#b" y1="5.204" y2=".828"/><linearGradient id="G" x1=".498" x2=".498" xlink:href="#b" y1="5.204" y2=".828"/><linearGradient id="H" x1=".5" x2=".5" xlink:href="#b" y1="4.708" y2=".332"/><linearGradient id="I" x1=".5" x2=".5" xlink:href="#b" y1="4.242" y2="-.174"/><linearGradient id="J" x1=".497" x2=".497" xlink:href="#b" y1="5.204" y2=".828"/><path d="m323.713 398.718a19.158 19.158 0 0 1 -5.9.9c-4.484 0-8.793-1.344-12.963-2.645-3.53-1.1-6.867-2.144-9.64-2.144s-6.107 1.04-9.64 2.144c-4.167 1.3-8.475 2.645-12.965 2.645a19.07 19.07 0 0 1 -5.9-.9c-6.659-2.161-10.809-7.691-14.455-12.625v60.807c0 3.3 2.106 4.307 4.678 2.252l33.6-26.852a7.873 7.873 0 0 1 9.358 0l33.6 26.852c2.577 2.055 4.678 1.044 4.678-2.252v-60.807c-3.643 4.934-7.792 10.464-14.452 12.626z" fill="#263570" transform="translate(-209.334 -228.716)"/><circle cx="85.985" cy="82.644" fill="#fff" r="71.705"/><path d="m286.02 172.981c6.929-5.042 18.889-5.291 23.931-12.22 4.994-6.858 1.567-18.287 4.244-26.529 2.584-7.952 12.156-15.142 12.156-23.954s-9.574-16.005-12.156-23.954c-2.675-8.242.75-19.669-4.244-26.525-5.042-6.929-17-7.176-23.93-12.22-6.858-4.99-10.767-16.319-19.008-19a12.648 12.648 0 0 0 -3.941-.579c-7.113 0-15.2 4.786-22.6 4.786s-15.491-4.786-22.607-4.786a12.739 12.739 0 0 0 -3.94.585c-8.242 2.675-12.148 14-19 19-6.929 5.04-18.889 5.289-23.931 12.216-4.99 6.858-1.566 18.287-4.244 26.529-2.582 7.95-12.153 15.143-12.153 23.954s9.574 16 12.153 23.954c2.678 8.242-.75 19.667 4.244 26.529 5.042 6.929 17 7.176 23.93 12.216 6.862 4.99 10.766 16.318 19.008 18.992a12.637 12.637 0 0 0 3.94.585c7.116 0 15.2-4.786 22.6-4.786s15.49 4.786 22.6 4.786a12.667 12.667 0 0 0 3.943-.585c8.24-2.671 12.15-14 19.006-18.989zm-45.548 8.246a70.946 70.946 0 1 1 70.946-70.946 70.947 70.947 0 0 1 -70.946 70.946z" fill="url(#a)" transform="translate(-154.593 -27.999)"/><path d="m82.993 19.013-16.593-9.506-16.42-9.507-16.594 9.507-16.593 9.506-16.421 9.68v19.013l16.421-9.506 16.593-9.507 16.594-9.68 16.42 9.68 16.593 9.507 16.42 9.507v-19.014z" fill="#6cf" transform="translate(36.184 28.972)"/><path d="m50.255 22.967v15.21l-13.136-7.605z" fill="url(#b)" transform="translate(50.6 37.981)"/><path d="m13.408 29.794 13.136 7.606-13.136 7.605z" fill="url(#c)" transform="translate(41.298 40.66)"/><path d="m36.738 34.14v12.272l-10.544-6.05z" fill="url(#d)" transform="translate(46.314 42.365)"/><path d="m72.367 57.23v12.27l-10.543-6.22z" fill="url(#e)" transform="translate(60.292 51.425)"/><path d="m49.906 43.574 10.544 6.05-10.544 6.05z" fill="url(#f)" transform="translate(55.617 46.066)"/><path d="m16.884 53.382 10.544 6.05-10.544 6.222z" fill="url(#g)" transform="translate(42.662 49.914)"/><path d="m10.544 47.919v12.1l-10.544-6.05z" fill="url(#h)" transform="translate(36.038 47.772)"/><path d="m64.389 13.656v19.186l-16.589-9.507z" fill="url(#i)" transform="translate(54.789 34.328)"/><path d="m36 0 16.42 9.507-16.42 9.506z" fill="url(#j)" transform="translate(50.162 28.972)"/><path d="m.372 20.608 16.42 9.507-16.42 9.506z" fill="url(#k)" transform="translate(36.184 37.057)"/><path d="m12.166 13.656 16.593 9.679-16.593 9.507z" fill="url(#l)" transform="translate(40.811 34.328)"/><path d="m38.462 16.139v15.21l-13.137-7.605z" fill="url(#m)" transform="translate(45.974 35.304)"/><path d="m26.544 22.967v15.21l-13.136-7.605z" fill="url(#n)" transform="translate(41.298 37.981)"/><path d="m49.037 22.967 13.136 7.605-13.136 7.605z" fill="url(#o)" transform="translate(55.276 37.981)"/><path d="m14.8 29.794v15.211l-13.31-7.605z" fill="url(#p)" transform="translate(36.623 40.66)"/><path d="m62.173 29.794v15.211l-13.136-7.605z" fill="url(#q)" transform="translate(55.276 40.66)"/><path d="m74.14 36.622v15.211l-13.31-7.605z" fill="url(#r)" transform="translate(59.903 43.34)"/><path d="m37.119 16.139 13.136 7.605-13.136 7.605z" fill="url(#s)" transform="translate(50.6 35.304)"/><path d="m1.49 36.622 13.31 7.606-13.31 7.605z" fill="url(#t)" transform="translate(36.623 43.34)"/><path d="m60.83 29.794 13.31 7.606-13.31 7.605z" fill="url(#u)" transform="translate(59.903 40.66)"/><path d="m25.325 22.967 13.136 7.605-13.136 7.605z" fill="url(#v)" transform="translate(45.974 37.981)"/><path d="m2.483 57.23 10.544 6.05-10.544 6.22z" fill="url(#w)" transform="translate(37.012 51.425)"/><path d="m61.824 47.919 10.544 6.05-10.544 6.05z" fill="url(#x)" transform="translate(60.292 47.772)"/><path d="m60.449 50.9v12.271l-10.543-6.222z" fill="url(#y)" transform="translate(55.617 48.939)"/><path d="m48.656 55.989v12.1l-10.544-6.05z" fill="url(#z)" transform="translate(50.99 50.938)"/><path d="m26.194 43.574 10.544 6.05-10.544 6.05z" fill="url(#A)" transform="translate(46.314 46.066)"/><path d="m24.944 43.574v12.1l-10.544-6.05z" fill="url(#B)" transform="translate(41.688 46.066)"/><path d="m38.112 32.029 10.544 6.05-10.544 6.05z" fill="url(#C)" transform="translate(50.99 41.537)"/><path d="m40.677 0v19.013l-16.593-9.506z" fill="url(#D)" transform="translate(45.487 28.972)"/><path d="m28.759 6.828v19.186l-16.593-9.68z" fill="url(#E)" transform="translate(40.811 31.65)"/><path d="m47.8 6.828 16.593 9.507-16.593 9.679z" fill="url(#F)" transform="translate(54.789 31.65)"/><path d="m52.422 6.828v19.186l-16.422-9.68z" fill="url(#G)" transform="translate(50.162 31.65)"/><path d="m16.793 13.656v19.186l-16.421-9.507z" fill="url(#H)" transform="translate(36.184 34.328)"/><path d="m76.134 20.608v19.013l-16.42-9.507z" fill="url(#I)" transform="translate(59.464 37.057)"/><path d="m59.713 13.656v19.186l16.42-9.507z" fill="url(#H)" transform="translate(59.464 34.328)"/><path d="m24.084 6.828 16.593 9.507-16.593 9.679z" fill="url(#J)" transform="translate(45.487 31.65)"/></svg>