<svg fill="none" height="86" viewBox="0 0 93 86" width="93" xmlns="http://www.w3.org/2000/svg" xmlns:xlink="http://www.w3.org/1999/xlink"><linearGradient id="a"><stop offset="0" stop-color="#6cf"/><stop offset=".5" stop-color="#6258a6"/><stop offset=".99" stop-color="#273470"/></linearGradient><linearGradient id="b" gradientUnits="userSpaceOnUse" x1="34.2039" x2="98.5471" xlink:href="#a" y1="95.767" y2="33.1816"/><linearGradient id="c" gradientUnits="userSpaceOnUse" x1="7.15625" x2="71.4787" xlink:href="#a" y1="75.0023" y2="12.4288"/><linearGradient id="d" gradientUnits="userSpaceOnUse" x1="22.3173" x2="73.9993" xlink:href="#a" y1="77.3677" y2="27.6059"/><linearGradient id="e" gradientUnits="userSpaceOnUse" x1="43.2325" x2="94.9341" xlink:href="#a" y1="80.3674" y2="30.6089"/><linearGradient id="f" gradientUnits="userSpaceOnUse" x1="36.5395" x2="87.6283" xlink:href="#a" y1="81.1375" y2="30.5565"/><linearGradient id="g" gradientUnits="userSpaceOnUse" x1="1.41804" x2="53.1196" xlink:href="#a" y1="58.2331" y2="8.47472"/><linearGradient id="h" gradientUnits="userSpaceOnUse" x1="-8.41821" x2="42.6765" xlink:href="#a" y1="55.4537" y2="4.87567"/><linearGradient id="i" gradientUnits="userSpaceOnUse" x1="49.2365" x2="113.499" xlink:href="#a" y1="107.277" y2="44.6138"/><linearGradient id="j" gradientUnits="userSpaceOnUse" x1="43.8267" x2="108.17" xlink:href="#a" y1="103.127" y2="40.5436"/><linearGradient id="k" gradientUnits="userSpaceOnUse" x1="1.96218" x2="66.2748" xlink:href="#a" y1="71.0231" y2="8.44724"/><linearGradient id="l" gradientUnits="userSpaceOnUse" x1="15.9143" x2="80.1597" xlink:href="#a" y1="81.7156" y2="19.0429"/><linearGradient id="m" gradientUnits="userSpaceOnUse" x1="38.8317" x2="38.8317" xlink:href="#a" y1="101.724" y2="23.6219"/><linearGradient id="n" gradientUnits="userSpaceOnUse" x1="23.4691" x2="23.4691" xlink:href="#a" y1="101.725" y2="23.6224"/><linearGradient id="o" gradientUnits="userSpaceOnUse" x1="69.5314" x2="69.5314" xlink:href="#a" y1="101.725" y2="23.6224"/><linearGradient id="p" gradientUnits="userSpaceOnUse" x1="8.12625" x2="8.12625" xlink:href="#a" y1="101.724" y2="23.6219"/><linearGradient id="q" gradientUnits="userSpaceOnUse" x1="69.536" x2="69.536" xlink:href="#a" y1="101.724" y2="23.6219"/><linearGradient id="r" gradientUnits="userSpaceOnUse" x1="84.9004" x2="84.9004" xlink:href="#a" y1="101.724" y2="23.6214"/><linearGradient id="s" gradientUnits="userSpaceOnUse" x1="54.1798" x2="54.1798" xlink:href="#a" y1="101.716" y2="23.6216"/><linearGradient id="t" gradientUnits="userSpaceOnUse" x1="8.12625" x2="8.12625" xlink:href="#a" y1="101.724" y2="23.6214"/><linearGradient id="u" gradientUnits="userSpaceOnUse" x1="84.9004" x2="84.9004" xlink:href="#a" y1="101.724" y2="23.6219"/><linearGradient id="v" gradientUnits="userSpaceOnUse" x1="38.8317" x2="38.8317" xlink:href="#a" y1="101.725" y2="23.6224"/><linearGradient id="w" gradientUnits="userSpaceOnUse" x1="8.12294" x2="8.12294" xlink:href="#a" y1="85.9963" y2="23.5302"/><linearGradient id="x" gradientUnits="userSpaceOnUse" x1="84.8924" x2="84.8924" xlink:href="#a" y1="88.414" y2="25.938"/><linearGradient id="y" gradientUnits="userSpaceOnUse" x1="69.546" x2="69.546" xlink:href="#a" y1="87.6272" y2="25.1497"/><linearGradient id="z" gradientUnits="userSpaceOnUse" x1="54.185" x2="54.185" xlink:href="#a" y1="86.3381" y2="23.8509"/><linearGradient id="A" gradientUnits="userSpaceOnUse" x1="38.8288" x2="38.8288" xlink:href="#a" y1="89.5599" y2="27.0558"/><linearGradient id="B" gradientUnits="userSpaceOnUse" x1="23.4686" x2="23.4686" xlink:href="#a" y1="89.5599" y2="27.0558"/><linearGradient id="C" gradientUnits="userSpaceOnUse" x1="54.185" x2="54.185" xlink:href="#a" y1="92.5498" y2="30.0737"/><linearGradient id="D" gradientUnits="userSpaceOnUse" x1="38.8349" x2="38.8349" xlink:href="#a" y1="101.73" y2="23.6149"/><linearGradient id="E" gradientUnits="userSpaceOnUse" x1="23.4717" x2="23.4717" xlink:href="#a" y1="101.735" y2="23.607"/><linearGradient id="F" gradientUnits="userSpaceOnUse" x1="69.5596" x2="69.5596" xlink:href="#a" y1="101.735" y2="23.6248"/><linearGradient id="G" gradientUnits="userSpaceOnUse" x1="54.1922" x2="54.1922" xlink:href="#a" y1="101.735" y2="23.6248"/><linearGradient id="H" gradientUnits="userSpaceOnUse" x1="8.11385" x2="8.11385" xlink:href="#a" y1="101.725" y2="23.6146"/><linearGradient id="I" gradientUnits="userSpaceOnUse" x1="84.9105" x2="84.9105" xlink:href="#a" y1="101.731" y2="23.6164"/><linearGradient id="J" gradientUnits="userSpaceOnUse" x1="84.9105" x2="84.9105" xlink:href="#a" y1="101.725" y2="23.6146"/><linearGradient id="K" gradientUnits="userSpaceOnUse" x1="38.8349" x2="38.8349" xlink:href="#a" y1="101.735" y2="23.6248"/><path d="m77.279 17.6891-15.4234-8.84457-15.2628-8.84453-15.4234 8.84453-15.4234 8.84457-15.264311 9.0052v17.6891l15.262811-8.8446 15.4234-8.8445 15.4249-9.0052 15.2628 9.0052 15.4234 8.8445 15.2628 8.8446v-17.6891z" fill="#6cf"/><path d="m60.2483 29.75v14.1515l-12.2102-7.075z" fill="url(#b)"/><path d="m17.3518 38.5942 12.2103 7.0751-12.2103 7.075z" fill="url(#c)"/><path d="m43.7009 44.2222v11.4176l-9.8-5.6284z" fill="url(#d)"/><path d="m89.812 74.1333v11.4177l-9.8-5.7892z" fill="url(#e)"/><path d="m64.5872 56.4443 9.8 5.6285-9.8 5.6315z" fill="url(#f)"/><path d="m21.8511 69.1484 9.8 5.6285-9.8 5.7892z" fill="url(#g)"/><path d="m9.80001 62.0728v11.2569l-9.80001-5.6285z" fill="url(#h)"/><path d="m77.2806 17.6885v17.8498l-15.4173-8.8446z" fill="url(#i)"/><path d="m46.5898 0 15.2659 8.84453-15.2659 8.84457z" fill="url(#j)"/><path d="m.481689 26.6943 15.262811 8.8446-15.262811 8.8445z" fill="url(#k)"/><path d="m15.7446 17.6885 15.4234 9.0052-15.4234 8.8446z" fill="url(#l)"/><path d="m44.9856 20.9048v14.1515l-12.2102-7.075z" fill="url(#m)"/><path d="m29.5621 29.75v14.1515l-12.2103-7.075z" fill="url(#n)"/><path d="m63.4629 29.75 12.2102 7.075-12.2102 7.0765z" fill="url(#o)"/><path d="m14.2993 38.5942v14.1516l-12.37083-7.075z" fill="url(#p)"/><path d="m75.6778 38.5942v14.1516l-12.2103-7.075z" fill="url(#q)"/><path d="m91.1013 47.4385v14.1515l-12.3769-7.075z" fill="url(#r)"/><path d="m48.0381 20.9048 12.2102 7.075-12.2102 7.075z" fill="url(#s)"/><path d="m1.92847 47.4385 12.37083 7.075-12.37083 7.0765z" fill="url(#t)"/><path d="m78.7244 38.5942 12.3769 7.0766-12.3769 7.075z" fill="url(#u)"/><path d="m32.7754 29.75 12.2102 7.075-12.2102 7.0765z" fill="url(#v)"/><path d="m3.21313 74.1333 9.79997 5.6285-9.79997 5.7892z" fill="url(#w)"/><path d="m80.012 62.0728 9.8 5.6284-9.8 5.6285z" fill="url(#x)"/><path d="m74.3872 65.9336v11.4177l-9.8-5.7892z" fill="url(#y)"/><path d="m59.1242 72.5259v11.2569l-9.8-5.63z" fill="url(#z)"/><path d="m33.8994 56.4443 9.8 5.6285-9.8 5.6315z" fill="url(#A)"/><path d="m28.438 56.4443v11.26l-9.8015-5.6315z" fill="url(#B)"/><path d="m49.3242 41.4883 9.8 5.6285-9.8 5.6284z" fill="url(#C)"/><path d="m46.5928 0v17.6891l-15.4234-8.84457z" fill="url(#D)"/><path d="m31.168 8.84521v17.84979l-15.4234-9.0053z" fill="url(#E)"/><path d="m61.8633 8.84521 15.4234 8.84449-15.4234 9.0053z" fill="url(#F)"/><path d="m61.8557 8.84521v17.84979l-15.2659-9.0053z" fill="url(#G)"/><path d="m15.746 17.6885v17.8498l-15.264311-8.8446z" fill="url(#H)"/><path d="m92.5419 26.6943v17.6891l-15.2628-8.8445z" fill="url(#I)"/><path d="m77.2791 17.6885v17.8498l15.2628-8.8446z" fill="url(#J)"/><path d="m31.1694 8.84521 15.4234 8.84449-15.4234 9.0053z" fill="url(#K)"/></svg>