<svg fill="none" height="701" viewBox="0 0 726 701" width="726" xmlns="http://www.w3.org/2000/svg"><g opacity=".6"><g fill="#edebff" opacity=".5"><path d="m457.738 258.768v107.44l-92.774-53.72z"/><path d="m131.818 325.883 92.771 53.72-92.771 53.681z"/><path d="m332.008 368.619v86.681l-74.459-42.72z"/><path d="m682.328 595.667v86.661l-74.438-43.922z"/><path d="m490.703 461.355 74.458 42.739-74.458 42.76z"/><path d="m166.02 557.812 74.458 42.72-74.458 43.961z"/><path d="m74.4393 504.103v85.459l-74.4393-42.739z"/><path d="m341.768 191.639v107.399l-92.772-53.679z"/><path d="m224.589 258.768v107.44l-92.771-53.72z"/><path d="m482.167 258.768 92.772 53.72-92.772 53.72z"/><path d="m108.641 325.883v107.42l-94.0143-53.7z"/><path d="m574.963 325.883v107.42l-92.772-53.7z"/><path d="m692.157 393.018v107.44l-94.037-53.72z"/><path d="m364.964 191.639 92.774 53.699-92.774 53.7z"/><path d="m14.6267 393.018 94.0143 53.72-94.0143 53.72z"/><path d="m598.12 325.883 94.037 53.72-94.037 53.7z"/><path d="m248.996 258.768 92.772 53.72-92.772 53.72z"/><path d="m24.3972 595.667 74.4394 42.739-74.4394 43.922z"/><path d="m607.911 504.103 74.417 42.72-74.438 42.739z"/><path d="m565.161 533.434v86.663l-74.458-43.942z"/><path d="m449.196 583.477v85.441l-74.46-42.741z"/><path d="m257.537 461.355 74.46 42.739-74.46 42.76z"/><path d="m216.056 461.355v85.499l-74.481-42.76z"/><path d="m374.736 347.875 74.46 42.698-74.46 42.739z"/><path d="m588.395 166.102v117.458l-101.194-58.218z"/><path d="m123.981 160.686 101.194 59.241-101.194 58.217z"/><path d="m351.678 26.9727v115.6513l-101.195-57.8186z"/><path d="m232.409 95.626v117.458l-101.194-59.258z"/><path d="m479.967 101.064 101.194 58.201-101.194 59.258z"/><path d="m469.14 93.8462v115.6508l-99.388-58.346z"/><path d="m113.154 162.508v117.458l-99.3881-58.217z"/><path d="m705.857 236.574v115.651l-99.388-57.807z"/><path d="m597.438 171.537v115.651l99.388-57.322z"/><path d="m243.249 93.8462 99.388 57.3048-99.388 58.346z"/><path d="m6.53174 229.346 99.38726 57.844-99.38726 57.807z"/></g><path d="m461.652 87.1208-101.428 57.3422 2.081-115.7583z" fill="#fafafa"/></g></svg>