<svg fill="none" height="35" width="35" xmlns="http://www.w3.org/2000/svg"><path d="m15.125 25.863 11.917-11.916-2.625-2.625-9.292 9.333-4.625-4.667-2.583 2.625zm2.375 9.125c-2.361 0-4.577-.444-6.647-1.333-2.069-.889-3.867-2.097-5.395-3.625-1.527-1.528-2.736-3.326-3.625-5.395-.889-2.07-1.333-4.286-1.333-6.647 0-2.36.444-4.576 1.333-6.646.89-2.07 2.098-3.868 3.625-5.395 1.528-1.528 3.326-2.736 5.395-3.625 2.07-.89 4.287-1.334 6.647-1.334 2.361 0 4.577.445 6.647 1.334 2.069.889 3.867 2.097 5.395 3.625 1.527 1.527 2.736 3.326 3.625 5.395.889 2.07 1.333 4.285 1.333 6.646s-.444 4.577-1.333 6.647c-.89 2.069-2.098 3.867-3.625 5.395-1.528 1.528-3.326 2.736-5.395 3.625-2.07.889-4.286 1.333-6.647 1.333z" fill="#fff"/></svg>