<svg xmlns="http://www.w3.org/2000/svg" viewBox="0 0 621 549" fill="none">
      <g id="Enable Push Notifications">
        <path
          id="Fill 1"
          fill-rule="evenodd"
          clip-rule="evenodd"
          d="M395.708 367.791L393.903 374.923L215.648 329.799L217.452 322.668C231.714 326.277 242.778 312.54 244.567 305.481L254.853 264.838C262.999 235.261 289.933 214.794 320.614 214.87C323.242 205.059 333.328 199.239 343.136 201.869C352.947 204.499 358.769 214.583 356.137 224.393C383.044 239.411 396.836 270.369 390.001 300.415L380.04 339.775C377.926 348.116 388.579 365.985 395.708 367.791Z"
          fill="white"
        />
        <path
          id="Fill 3"
          fill-rule="evenodd"
          clip-rule="evenodd"
          d="M272.742 351.835C274.454 370.034 290.593 383.402 308.792 381.693C318.704 380.763 327.671 375.418 333.209 367.141L272.742 351.835Z"
          fill="#FFDA3E"
        />
        <path
          id="Stroke 5"
          fill-rule="evenodd"
          clip-rule="evenodd"
          d="M562.235 298.726C562.235 433.679 452.831 543.083 317.878 543.083C182.925 543.083 73.5234 433.679 73.5234 298.726C73.5234 163.773 182.925 54.3691 317.878 54.3691C452.831 54.3691 562.235 163.773 562.235 298.726Z"
          stroke="white"
          stroke-width="2"
          stroke-dasharray="5.02 5.02"
        />
        <path
          id="Stroke 7"
          fill-rule="evenodd"
          clip-rule="evenodd"
          d="M499.337 298.724C499.337 398.942 418.094 480.185 317.876 480.185C217.657 480.185 136.418 398.942 136.418 298.724C136.418 198.507 217.657 117.264 317.876 117.264C418.094 117.264 499.337 198.507 499.337 298.724Z"
          stroke="white"
          stroke-width="2"
          stroke-dasharray="5.05 5.05"
        />
        <path
          id="Fill 13"
          fill-rule="evenodd"
          clip-rule="evenodd"
          d="M272.754 351.876C274.466 370.075 290.605 383.443 308.804 381.734C318.715 380.804 327.683 375.459 333.22 367.182L272.754 351.876Z"
          fill="url(#paint0_linear_12961_30010)"
        />
        <path
          id="Fill 15"
          fill-rule="evenodd"
          clip-rule="evenodd"
          d="M416.477 242.533C420.628 247.526 423.745 253.407 425.864 259.642C428.023 265.878 429.078 272.503 429.186 279.133C429.186 282.45 428.948 285.763 428.52 289.047C427.955 292.315 427.302 295.559 426.276 298.702C424.291 304.991 421.292 310.954 417.205 316.03C417.028 316.249 416.713 316.282 416.494 316.108C416.324 315.969 416.268 315.743 416.333 315.545C418.462 309.488 420.225 303.512 421.409 297.45C421.628 295.92 421.93 294.413 422.184 292.899C422.358 291.371 422.589 289.855 422.721 288.329C422.82 286.801 423.017 285.283 423.081 283.755C423.105 282.224 423.178 280.696 423.17 279.168C423.206 273.05 422.523 266.94 421.334 260.875C420.112 254.806 418.273 248.828 416.065 242.77C416.02 242.646 416.084 242.507 416.209 242.462C416.308 242.424 416.414 242.457 416.477 242.533Z"
          fill="url(#paint1_linear_12961_30010)"
        />
        <path
          id="Fill 17"
          fill-rule="evenodd"
          clip-rule="evenodd"
          d="M439.848 244.653C443.855 249.27 446.873 254.746 448.976 260.559C451.083 266.379 452.3 272.562 452.517 278.782C452.752 285 451.994 291.25 450.332 297.204C448.672 303.156 446.085 308.844 442.435 313.746C442.412 313.777 442.367 313.784 442.339 313.763C442.315 313.744 442.306 313.713 442.313 313.687C443.824 307.787 445.091 302.047 445.859 296.277C446.626 290.509 446.878 284.743 446.664 278.998C446.428 273.256 445.734 267.533 444.512 261.852C443.295 256.164 441.574 250.551 439.612 244.79C439.589 244.717 439.627 244.639 439.7 244.613C439.754 244.594 439.813 244.611 439.848 244.653Z"
          fill="url(#paint2_linear_12961_30010)"
        />
        <path
          id="Fill 19"
          fill-rule="evenodd"
          clip-rule="evenodd"
          d="M226.173 274.115C224.901 267.785 224.887 261.171 225.895 254.706C226.87 248.225 228.965 241.906 231.875 236.003C234.856 230.136 238.665 224.677 243.265 220.006C247.833 215.318 253.13 211.346 258.974 208.573C259.079 208.523 259.202 208.568 259.251 208.672C259.291 208.757 259.27 208.855 259.202 208.917C254.448 213.232 250.072 217.731 246.204 222.602C242.364 227.483 238.966 232.67 236.221 238.191C233.401 243.676 231.249 249.489 229.613 255.485C228.002 261.496 227.009 267.7 226.375 274.106C226.368 274.16 226.319 274.202 226.262 274.198C226.218 274.193 226.182 274.158 226.173 274.115Z"
          fill="url(#paint3_linear_12961_30010)"
        />
        <path
          id="Fill 21"
          fill-rule="evenodd"
          clip-rule="evenodd"
          d="M206.214 261.599C205.011 255.655 204.99 249.46 205.863 243.396C206.765 237.331 208.566 231.372 211.224 225.823C213.854 220.264 217.249 215.064 221.334 210.508C225.4 205.945 230.099 201.957 235.335 198.943C231.06 203.2 227.133 207.64 223.707 212.415C220.293 217.194 217.324 222.235 214.918 227.537C212.536 232.846 210.624 238.36 209.261 244.05C207.86 249.738 207.019 255.575 206.414 261.59C206.407 261.644 206.36 261.684 206.301 261.679C206.259 261.675 206.221 261.642 206.214 261.599Z"
          fill="url(#paint4_linear_12961_30010)"
        />
        <path
          id="Fill 23"
          fill-rule="evenodd"
          clip-rule="evenodd"
          d="M395.728 367.83C395.728 367.83 385.185 363.733 379.643 357.887C371.926 349.748 372.434 340.868 377.651 323.728C383.789 303.319 383.622 281.819 381.258 271.963C373.025 237.623 356.156 224.432 356.156 224.432C383.064 239.45 396.856 270.407 390.021 300.453L380.06 339.813C378.313 345.628 388.599 366.024 395.728 367.83L393.922 374.961L395.728 367.83Z"
          fill="#6D68BD"
        />
        <g id="Stroke 25">
          <path
            fill-rule="evenodd"
            clip-rule="evenodd"
            d="M27.3532 331.624L22.8164 331.485L27.3532 331.624Z"
            fill="white"
          />
          <path d="M27.3532 331.624L22.8164 331.485" stroke="white" stroke-linecap="round" />
        </g>
        <g id="Stroke 27">
          <path
            fill-rule="evenodd"
            clip-rule="evenodd"
            d="M24.1014 323.021L20.8477 326.061L24.1014 323.021Z"
            fill="white"
          />
          <path d="M24.1014 323.021L20.8477 326.061" stroke="white" stroke-linecap="round" />
        </g>
        <g id="Stroke 29">
          <path
            fill-rule="evenodd"
            clip-rule="evenodd"
            d="M15.6191 319.096L15.5508 323.531L15.6191 319.096Z"
            fill="white"
          />
          <path d="M15.6191 319.096L15.5508 323.531" stroke="white" stroke-linecap="round" />
        </g>
        <g id="Stroke 31">
          <path
            fill-rule="evenodd"
            clip-rule="evenodd"
            d="M6.87891 322.14L10.0384 325.375L6.87891 322.14Z"
            fill="white"
          />
          <path d="M6.87891 322.14L10.0384 325.375" stroke="white" stroke-linecap="round" />
        </g>
        <g id="Stroke 33">
          <path fill-rule="evenodd" clip-rule="evenodd" d="M3 330.378L7.53446 330.517L3 330.378Z" fill="white" />
          <path d="M3 330.378L7.53446 330.517" stroke="white" stroke-linecap="round" />
        </g>
        <g id="Stroke 35">
          <path
            fill-rule="evenodd"
            clip-rule="evenodd"
            d="M6.25781 338.978L9.51387 335.938L6.25781 338.978Z"
            fill="white"
          />
          <path d="M6.25781 338.978L9.51387 335.938" stroke="white" stroke-linecap="round" />
        </g>
        <g id="Stroke 37">
          <path
            fill-rule="evenodd"
            clip-rule="evenodd"
            d="M14.7305 342.908L14.7987 338.473L14.7305 342.908Z"
            fill="white"
          />
          <path d="M14.7305 342.908L14.7987 338.473" stroke="white" stroke-linecap="round" />
        </g>
        <g id="Stroke 39">
          <path
            fill-rule="evenodd"
            clip-rule="evenodd"
            d="M23.4798 339.862L20.3203 336.627L23.4798 339.862Z"
            fill="white"
          />
          <path d="M23.4798 339.862L20.3203 336.627" stroke="white" stroke-linecap="round" />
        </g>
        <g id="Stroke 41">
          <path
            fill-rule="evenodd"
            clip-rule="evenodd"
            d="M619.01 268.389L617.016 270.548L619.01 268.389Z"
            fill="white"
          />
          <path d="M619.01 268.389L617.016 270.548" stroke="white" stroke-linecap="round" />
        </g>
        <g id="Stroke 43">
          <path
            fill-rule="evenodd"
            clip-rule="evenodd"
            d="M609.645 270.264L611.149 271.65L609.645 270.264Z"
            fill="white"
          />
          <path d="M609.645 270.264L611.149 271.65" stroke="white" stroke-linecap="round" />
        </g>
        <g id="Stroke 45">
          <path
            fill-rule="evenodd"
            clip-rule="evenodd"
            d="M608.133 279.832L610.127 277.673L608.133 279.832Z"
            fill="white"
          />
          <path d="M608.133 279.832L610.127 277.673" stroke="white" stroke-linecap="round" />
        </g>
        <g id="Stroke 47">
          <path
            fill-rule="evenodd"
            clip-rule="evenodd"
            d="M617.486 277.955L615.984 276.568L617.486 277.955Z"
            fill="white"
          />
          <path d="M617.486 277.955L615.984 276.568" stroke="white" stroke-linecap="round" />
        </g>
        <g id="Stroke 49">
          <path
            fill-rule="evenodd"
            clip-rule="evenodd"
            d="M436.355 14.6461L431.531 14.5166L436.355 14.6461Z"
            fill="white"
          />
          <path d="M436.355 14.6461L431.531 14.5166" stroke="white" stroke-linecap="round" />
        </g>
        <g id="Stroke 51">
          <path fill-rule="evenodd" clip-rule="evenodd" d="M423.882 3L423.809 7.12245L423.882 3Z" fill="white" />
          <path d="M423.882 3L423.809 7.12245" stroke="white" stroke-linecap="round" />
        </g>
        <g id="Stroke 53">
          <path
            fill-rule="evenodd"
            clip-rule="evenodd"
            d="M410.461 13.4854L415.285 13.6125L410.461 13.4854Z"
            fill="white"
          />
          <path d="M410.461 13.4854L415.285 13.6125" stroke="white" stroke-linecap="round" />
        </g>
        <g id="Stroke 55">
          <path
            fill-rule="evenodd"
            clip-rule="evenodd"
            d="M422.941 25.1312L423.014 21.0088L422.941 25.1312Z"
            fill="white"
          />
          <path d="M422.941 25.1312L423.014 21.0088" stroke="white" stroke-linecap="round" />
        </g>
        <path
          id="Fill 57"
          fill-rule="evenodd"
          clip-rule="evenodd"
          d="M79.1334 459.757C75.6631 460.795 69.8832 465.895 67.9055 471.941C67.5735 466.323 64.0067 459.262 60.082 458.245C64.8708 456.553 70.0574 450.33 71.437 445.087C71.1875 450.582 76.1763 458.561 79.1334 459.757Z"
          fill="#EBECEF"
        />
        <path
          id="Fill 59"
          fill-rule="evenodd"
          clip-rule="evenodd"
          d="M160.404 36.726C157.727 37.1992 152.983 40.4953 150.987 44.8273C151.224 40.6154 149.178 35.0473 146.344 33.9502C150.057 33.1027 154.459 28.9166 155.94 25.1309C155.278 29.2039 158.304 35.5794 160.404 36.726Z"
          fill="#EBECEF"
        />
        <path
          id="Fill 61"
          fill-rule="evenodd"
          clip-rule="evenodd"
          d="M515.207 67.3125C511.631 67.2348 508.797 64.2754 508.877 60.7015C508.954 57.1276 511.914 54.293 515.485 54.3707C519.062 54.4484 521.896 57.4078 521.818 60.9817C521.738 64.5556 518.781 67.3902 515.207 67.3125Z"
          fill="white"
        />
        <path
          id="Fill 63"
          fill-rule="evenodd"
          clip-rule="evenodd"
          d="M515.232 491.454C512.121 491.388 509.654 488.81 509.72 485.7C509.786 482.587 512.364 480.12 515.476 480.186C518.589 480.254 521.056 482.83 520.988 485.942C520.92 489.052 518.344 491.522 515.232 491.454Z"
          fill="#EBECEF"
        />
        <path
          id="Stroke 65"
          fill-rule="evenodd"
          clip-rule="evenodd"
          d="M47.3107 153.215C45.3849 153.173 43.8569 151.579 43.8993 149.65C43.9393 147.725 45.5356 146.199 47.4614 146.239C49.3873 146.281 50.9152 147.875 50.8752 149.801C50.8328 151.729 49.2366 153.257 47.3107 153.215Z"
          fill="white"
          stroke="white"
          stroke-linecap="round"
        />
      </g>
      <defs>
        <linearGradient
          id="paint0_linear_12961_30010"
          x1="302.987"
          y1="336.873"
          x2="279.093"
          y2="385.026"
          gradientUnits="userSpaceOnUse"
        >
          <stop offset="1" stop-color="#6D68BD" />
        </linearGradient>
        <linearGradient
          id="paint1_linear_12961_30010"
          x1="422.618"
          y1="205.56"
          x2="397.155"
          y2="210.093"
          gradientUnits="userSpaceOnUse"
        >
          <stop offset="1" stop-color="#6259A6" />
        </linearGradient>
        <linearGradient
          id="paint2_linear_12961_30010"
          x1="446.082"
          y1="210.021"
          x2="421.054"
          y2="214.708"
          gradientUnits="userSpaceOnUse"
        >
          <stop offset="1" stop-color="#6259A6" />
        </linearGradient>
        <linearGradient
          id="paint3_linear_12961_30010"
          x1="242.224"
          y1="175.73"
          x2="188.52"
          y2="203.623"
          gradientUnits="userSpaceOnUse"
        >
          <stop offset="1" stop-color="#6259A6" />
        </linearGradient>
        <linearGradient
          id="paint4_linear_12961_30010"
          x1="220.295"
          y1="167.575"
          x2="171.378"
          y2="191.03"
          gradientUnits="userSpaceOnUse"
        >
          <stop offset="1" stop-color="#6259A6" />
        </linearGradient>
      </defs>
    </svg>