<svg fill="none" height="146" viewBox="0 0 232 146" width="232" xmlns="http://www.w3.org/2000/svg" xmlns:xlink="http://www.w3.org/1999/xlink"><linearGradient id="a" gradientUnits="userSpaceOnUse" x1="78.88" x2="78.88" y1="-62.7935" y2="190.426"><stop offset="0" stop-color="#fff"/><stop offset=".42" stop-color="#a0d1fd"/><stop offset="1" stop-color="#1b91fb"/></linearGradient><linearGradient id="b" gradientUnits="userSpaceOnUse" x1="-61.5003" x2="296.35" y1="96.3963" y2="96.3963"><stop offset="0" stop-color="#6258a6"/><stop offset="1" stop-color="#2d1e94"/></linearGradient><linearGradient id="c" gradientUnits="userSpaceOnUse" x1="-20.7398" x2="177.43" y1="53.2362" y2="53.2362"><stop offset="0" stop-color="#6258a6"/><stop offset=".05" stop-color="#7e92ee"/><stop offset=".34" stop-color="#6258a6"/><stop offset=".61" stop-color="#7e92ee"/><stop offset=".84" stop-color="#6258a6"/><stop offset="1" stop-color="#2a4c95"/></linearGradient><clipPath id="d"><path d="m0 0h231.63v145.03h-231.63z"/></clipPath><g clip-path="url(#d)"><path d="m.0099731 126.656c.1499999 3.44 1.4499969 6.79 3.7199969 9.98 2.11 2.95 5.04 5.77 8.67003 8.39h132.54c2.67-2.74 4.98-6.07 6.93-10.18.7-1.47 1.33-3 1.89-4.58 16.51-46.1695-22.72-134.45953-35.91-130.119527-6.06 1.989997-2.48 22.150027-12.45 31.930027-18.86 18.52-54.93-30.78003-65.56-15.96-5.69 7.94 3.83 23.23.28 46.67-6.03 39.8095-40.920027 44.9495-40.1100269 63.8695z" fill="url(#a)" opacity=".13"/><path d="m161.58 136.529.52 2.41c.47 2.16 2.38 3.7 4.58 3.7h57.37c.46 0 .91-.15 1.28-.43l5.38-4.1c1.75-1.34.81-4.14-1.4-4.14h-65.68c-1.35 0-2.35 1.24-2.07 2.56z" fill="#6258a6"/><path d="m163.73 142.636h-134.2903c-1.74 0-3.38-.54-4.73-1.47-1.3-.9-2.34-2.16-2.96-3.65-.19-.46-.34-.94-.45-1.45l-16.43995-75.7997c-.3-1.36-.24-2.7101.1-3.9501.02-.07.04-.15.06-.22 1.02-3.38 4.15-5.94 7.98995-5.94h127.2203c3.78 0 7.07 2.54 8.05 6.16.04.14.07.2801.1.4201l16.74 77.2297.77 3.54.42 1.92c.36 1.65-.9 3.2-2.58 3.2z" fill="url(#b)"/><path d="m148.28 56.3162h-143.3298c.95-3.49 4.13-6.16 8.06-6.16h127.2198c3.78 0 7.07 2.54 8.05 6.16z" fill="url(#c)"/></g><path d="m79.0002 103.803c.5 0 .919-.169 1.257-.507.337-.337.5055-.755.5055-1.255s-.1685-.919-.5055-1.256c-.338-.338-.757-.507-1.257-.507s-.9185.169-1.2555.507c-.338.337-.507.756-.507 1.256s.169.918.507 1.255c.337.338.7555.507 1.2555.507zm-1.725-6.2999h3.45v-9.1875h-3.45zm1.725 13.7999c-2.125 0-4.119-.4-5.982-1.2-1.862-.8-3.4805-1.887-4.8555-3.262s-2.4625-2.994-3.2625-4.856c-.8-1.863-1.2-3.8569-1.2-5.9819s.4-4.119 1.2-5.982c.8-1.862 1.8875-3.4805 3.2625-4.8555s2.9935-2.4625 4.8555-3.2625c1.863-.8 3.857-1.2 5.982-1.2s4.119.4 5.982 1.2c1.862.8 3.4805 1.8875 4.8555 3.2625s2.4625 2.9935 3.2625 4.8555c.8 1.863 1.2 3.857 1.2 5.982s-.4 4.1189-1.2 5.9819c-.8 1.862-1.8875 3.481-3.2625 4.856s-2.9935 2.462-4.8555 3.262c-1.863.8-3.857 1.2-5.982 1.2zm0-3.412c3.325 0 6.1375-1.15 8.4375-3.45s3.45-5.1129 3.45-8.4379-1.15-6.1375-3.45-8.4375-5.1125-3.45-8.4375-3.45-6.1375 1.15-8.4375 3.45-3.45 5.1125-3.45 8.4375 1.15 6.1379 3.45 8.4379 5.1125 3.45 8.4375 3.45z" fill="#fff"/></svg>