<svg height="222.534" viewBox="0 0 780.91 222.534" width="780.91" xmlns="http://www.w3.org/2000/svg" xmlns:xlink="http://www.w3.org/1999/xlink"><linearGradient id="a" gradientUnits="objectBoundingBox" x1=".5" x2=".5" y1="1"><stop offset=".18" stop-color="#fff"/><stop offset="1" stop-color="#dde2f8"/></linearGradient><linearGradient id="b" gradientUnits="objectBoundingBox" x1=".106" x2=".106"><stop offset=".18" stop-color="#fff"/><stop offset="1" stop-color="#ced3f8"/></linearGradient><linearGradient id="c" x1="-2.705" x2="-2.705" xlink:href="#b" y1="0" y2="0"/><linearGradient id="d" x1="3.413" x2="3.413" xlink:href="#b" y1="0" y2="0"/><linearGradient id="e" x1=".894" x2=".894" xlink:href="#b" y1="0" y2="0"/><linearGradient id="f" x1="3.705" x2="3.705" xlink:href="#b" y1="0" y2="0"/><linearGradient id="g" x1="-2.413" x2="-2.413" xlink:href="#b" y1="0" y2="0"/><g transform="translate(-226 -72.5)"><path d="m871.352 72.855-56.352 9.177 56.354 9.176 56.346-9.176z" fill="#f6f6fb"/><path d="m815 227.931 56.354 9.176v-145.899l-56.354-9.177z" fill="url(#a)"/><path d="m927.7 227.931-56.351 9.176v-145.899l56.351-9.177z" fill="url(#b)"/><path d="m950.557 125.619-56.357 9.181 56.354 9.179 56.353-9.179z" fill="#f6f6fb"/><path d="m894.2 280.7 56.354 9.177v-145.9l-56.354-9.182z" fill="url(#a)"/><path d="m1006.91 280.7-56.351 9.178v-145.9l56.351-9.179z" fill="url(#c)"/><path d="m806.083 118.512-42.083 6.854 42.083 6.852 42.081-6.852z" fill="#f6f6fb"/><path d="m764 234.318 42.083 6.852v-108.951l-42.083-6.852z" fill="url(#a)"/><path d="m848.165 234.318-42.081 6.852v-108.951l42.081-6.852z" fill="url(#d)"/><path d="m365.005 72.5 57.786 9.41-57.786 9.41-57.784-9.41z" fill="#f6f6fb"/><path d="m422.791 231.518-57.786 9.41v-149.608l57.786-9.41z" fill="url(#a)"/><path d="m307.222 231.518 57.784 9.41v-149.608l-57.784-9.41z" fill="url(#e)"/><path d="m283.786 126.605 57.786 9.41-57.786 9.412-57.786-9.412z" fill="#f6f6fb"/><path d="m341.572 285.622-57.786 9.41v-149.606l57.786-9.412z" fill="url(#a)"/><path d="m226 285.622 57.786 9.412v-149.608l-57.786-9.412z" fill="url(#f)"/><path d="m431.933 119.316 43.153 7.029-43.153 7.026-43.15-7.026z" fill="#f6f6fb"/><path d="m475.086 238.066-43.153 7.026v-111.72l43.153-7.026z" fill="url(#a)"/><path d="m388.783 238.066 43.151 7.026v-111.72l-43.151-7.026z" fill="url(#g)"/><g fill="#ffd03e"><path d="m562.056 91.65c-5.707-.71-6.954-5.973-7.429-9.15 1.73.349 8.652 2.172 7.429 9.15z"/><path d="m587.2 136.132a.5.5 0 0 1 -.3-.105.492.492 0 0 1 -.173-.27c-2.793-11.375-10.955-28.976-25.5-44.281a.491.491 0 0 1 .369-.83.5.5 0 0 1 .346.152c14.672 15.437 22.916 33.225 25.735 44.722a.481.481 0 0 1 -.057.37.483.483 0 0 1 -.129.141.5.5 0 0 1 -.175.08.463.463 0 0 1 -.116.021zm.134-8.8c1.784-11.431 10.293-12.1 16.762-12.859-.815 3.463-2.702 15.727-16.766 12.864zm-3.9-10.382c-.905-9.244 5.576-11.452 10.453-13.332.056 2.853 1.054 12.766-10.46 13.337zm-6.418-10.24c-2.624-7.542 2.346-10.687 6.042-13.234.619 2.372 3.457 10.455-6.049 13.239zm-6.992-9.371c-2.877-4.05-.457-6.778 1.306-8.942.779 1.312 3.879 5.646-1.313 8.947zm11.358 31.127c-6.784-7.653-13.425-4.118-18.6-1.622 2.25 2.191 9.504 10.427 18.593 1.627z"/><path d="m576.918 117.263c-4.749-7.427-10.89-5.3-15.63-3.868 1.626 2.164 6.699 10.145 15.63 3.868zm-7.245-12.4c-4.53-3.983-8.156-1.435-11 .4 1.48 1.111 6.327 5.398 11-.404zm-5.473-8.02c-2.166-2.764-4.516-1.694-6.342-.94.726.797 3.042 3.766 6.342.94z"/></g><path d="m608.29 135.689c9.869-9.176 6.976-21.422-5.379-31.386-7.241 10.053-8.311 25.89 5.379 31.386z" fill="#5652cc"/><path d="m610.878 133.885c16.675 4.936 28.451-6.26 31.495-26.45-15.941-1.454-34.301 7.707-31.495 26.45z" fill="#807dfb"/><path d="m610.877 134.376a.5.5 0 0 1 -.278-.083.491.491 0 0 1 -.183-.225.49.49 0 0 1 .121-.54c2.428-2.287 6.806-5.761 11.432-9.431 5.6-4.44 11.94-9.471 16.359-13.6a.494.494 0 0 1 .353-.134.494.494 0 0 1 .346.153.48.48 0 0 1 .1.163.5.5 0 0 1 -.01.377.512.512 0 0 1 -.112.157c-4.448 4.154-10.808 9.2-16.42 13.652-4.612 3.659-8.972 7.117-11.369 9.376a.49.49 0 0 1 -.339.135z" fill="#6b67e9"/><path d="m525.486 233.793c-9.358-5.058-17.831.151-22.228 11.843 9.358 2.884 21.519-.276 22.228-11.843z" fill="#fcba06"/><path d="m529.9 225.325c-8.807-16.381-26.258-16.869-44.008-3.941 10.918 13.198 31.784 20.216 44.008 3.941z" fill="#ffd03e"/><path d="m529.907 225.816h-.015c-3.584-.115-9.539-.817-15.845-1.559-7.621-.9-16.26-1.915-22.754-2.152a.506.506 0 0 1 -.188-.043.49.49 0 0 1 -.157-.112.487.487 0 0 1 -.133-.353.487.487 0 0 1 .044-.187.51.51 0 0 1 .114-.155.49.49 0 0 1 .165-.1.511.511 0 0 1 .19-.03c6.536.239 15.2 1.26 22.835 2.159 6.283.739 12.22 1.439 15.759 1.552a.5.5 0 0 1 .346.149.488.488 0 0 1 .138.349.482.482 0 0 1 -.04.187.5.5 0 0 1 -.109.157.49.49 0 0 1 -.161.1.506.506 0 0 1 -.189.038z" fill="#fcba06"/><path d="m644.758 206.152c.873 15.31 13.76 21.73 31.549 18.217-3.559-13.661-16.719-26.155-31.549-18.217z" fill="#6b67e9"/><path d="m664.106 206.13c-2.634-6.1.171-16.8 5.835-20.086s10.124 1.052 12.7-1.575 2.462-10.451 7.172-12.2c8.368-3.1 10.963 11.328 17.355 9.674s4.441-9.6 10.18-12.077 7.189 9.55 14.817 9.457 23.874 2.659 21.152 11.8c-2.146 7.223-9.493 1.093-12.122 3.019-3 2.2-.655 6.322-4.492 8.024-5.424 2.406-10.1-3.9-14.221-1.186s-1.691 8.731-8.205 8.811c-8.063.1-7.6-12.572-16.966-7.641s1.344 13.367-4.009 17.224c-5.841 4.209-12.295-7.05-15.483-3.334-4.347 5.051-9.627-.446-13.713-9.91z" fill="#5652cc"/><path d="m663.543 204.941a.493.493 0 0 1 -.3-.1.489.489 0 0 1 -.161-.568.492.492 0 0 1 .2-.239 9.852 9.852 0 0 0 1.552-1.457c1.464-1.544 3.47-3.662 6-3.693a27.724 27.724 0 0 1 3.869.339 16.252 16.252 0 0 0 6.318.043c4.424-1.114 6.893-3.813 9.078-6.192 1.671-1.822 3.25-3.543 5.421-4.2 2.026-.617 3.251.219 4.551 1.1a7.307 7.307 0 0 0 4.509 1.637h.1a5.311 5.311 0 0 0 3.831-1.4 7.737 7.737 0 0 1 5.5-1.864 8.006 8.006 0 0 1 5.287 1.747 7.756 7.756 0 0 0 4.812 1.713 15.034 15.034 0 0 0 9.8-3.292c1.373-.952 2.445-1.694 3.652-1.657a3.829 3.829 0 0 1 3.552 2.148.487.487 0 0 1 -.281.621.5.5 0 0 1 -.369 0 .489.489 0 0 1 -.263-.258 2.88 2.88 0 0 0 -2.677-1.525c-.851-.012-1.829.636-3.051 1.483-2.222 1.539-5.247 3.65-10.394 3.467a8.791 8.791 0 0 1 -5.341-1.888 7.007 7.007 0 0 0 -4.714-1.572 6.694 6.694 0 0 0 -4.9 1.649 6.275 6.275 0 0 1 -4.424 1.614 8.2 8.2 0 0 1 -5.175-1.808c-1.24-.847-2.133-1.453-3.709-.976-1.912.582-3.335 2.13-4.98 3.925-2.277 2.482-4.86 5.295-9.563 6.481a17.013 17.013 0 0 1 -6.7-.022 26.987 26.987 0 0 0 -3.722-.339c-2.116.026-3.881 1.888-5.3 3.389a10.181 10.181 0 0 1 -1.754 1.62.5.5 0 0 1 -.254.074z" fill="#423eaf"/><path d="m543.663 224.383c-2.35 2.072-31.405-3.267-30.743-8.869.51-4.362 5.172-3.915 6.852-3.62 2.642.463 8.928 1.993 8.963-.01.063-3.625-16.334-5.472-20.294-6.166s-11.478-3.118-13.19-7.214-1.936-5.951 4.935-4.352 20.009 6.44 17.588 1.9-13.5-5.93-19.55-9.04-16.505-11.1-12-13.487c4.034-2.138 20.418 9.507 21.021 6.057.488-2.759-5.149-4.223-12.712-9.027s-14.652-9.415-12.2-14.153c1.97-3.806 6.159.288 10.27 2.828s9.971 5.858 9.746 3.132-21.529-13.207-19.724-20.058c1.192-4.535 5.025-.859 9.975 1.827s6.893 3.263 7.1 2.114-5.884-5.853-9.295-8.349-7.446-7.235-5.222-10.48 7.275 1.315 8.749 3.431 3.781 3.508 4.41 3.066-3.743-7.77.407-9.413 7.63 5.761 6.857 10.133-1.664 10.3-.063 10.58 2.495-4.778 3.2-8.765 1.9-5.411 2.967-5.225c3.558.626 5.641 6.338 5.125 9.253s-5.537 18.87-3.173 19.283 3.614-5.761 4.184-8.981 1.9-10.733 5.862-10.038 4.311 11.184 2.846 17.257-4.594 15.716-2.756 16.037 5.639-6.995 6.329-10.9-.057-11.235 4.823-10.381 4.817 7 3.459 14.678c-.567 3.208-2.042 11.133-5.52 14.966-3.951 4.362-5.2 7.181-4.227 8.145 1.94 1.922 4.9-2.372 6.316-5.93s5.137-14.831 10.249-11.721-.213 11.426-2.02 14.981-9.272 15.528-6.653 17.172 4.861-5.709 5.8-7.915 4.351-6.155 5.636-4.308-.135 27.866-4.327 31.562z" fill="#ced3f8"/><path d="m724.419 270.16c0-2.755-23.8-4.99-53.156-4.99s-53.156 2.235-53.156 4.99 23.8 4.991 53.156 4.991 53.156-2.234 53.156-4.991z" fill="#e9edf7"/><path d="m653.492 276.574c0-1.653-14.264-2.991-31.857-2.991s-31.858 1.338-31.858 2.991 14.264 2.99 31.858 2.99 31.857-1.338 31.857-2.99zm-71.833.794c0-2.091-22.132-3.785-49.431-3.785s-49.429 1.694-49.429 3.785 22.13 3.784 49.429 3.784 49.431-1.694 49.431-3.784zm184.722-21.327c0-1.95-16.845-3.531-37.6-3.531s-37.6 1.581-37.6 3.531 16.845 3.53 37.6 3.53 37.6-1.579 37.6-3.53z" fill="#e9edf7"/><path d="m539.1 131.8c1.793 31.289 5.734 59.5 8.354 59.5 6.832 0 2.928-38.877 8.668-38.877h94.58c-.59-6.517-1.109-13.492-1.519-20.624z" fill="#e9edf7"/><path d="m556.136 152.422c-5.739 0-1.836 38.877-8.667 38.877h18.014c-2.148-21.883-5.447-38.877-9.347-38.877z" fill="#bbc0e6"/><path d="m666.221 152.422h-110.088c3.9 0 7.2 16.994 9.35 38.877 1.788 18.216 2.78 39.821 2.656 57.832 0 13.848 7.316 51.033 13.905 0h96.187c.269-39.65-4.863-96.709-12.01-96.709z" fill="#f6f6fb"/><path d="m685.18 249.134h-103.138c-2.462 19.05-5.023 25.806-7.267 26.072v.01h110.4v-.091c2.168-.848 4.606-7.827 6.952-25.991zm-107.693-10.226c.012.825.021 1.643.028 2.46h81.417c-.008-.815-.018-1.637-.03-2.46zm-.144-6.951q.033 1.234.061 2.462h92.5q-.028-1.227-.061-2.462zm-.227-6.951q.046 1.233.091 2.462h92.5q-.043-1.229-.09-2.462zm-.306-6.949q.062 1.23.119 2.46h92.5q-.055-1.23-.117-2.46zm9.442-55.606q.282 1.174.558 2.462h76.813q-.274-1.29-.558-2.462zm-13.146 13.9c.116.805.228 1.627.34 2.46h92.5q-.166-1.253-.34-2.46zm-1.106-6.951c.143.8.281 1.622.419 2.462h92.5q-.2-1.265-.419-2.462zm2.008 13.9c.1.808.189 1.632.283 2.46h92.5q-.14-1.245-.284-2.46zm.759 6.949c.034.351.07.7.1 1.049.046.466.09.944.134 1.413h92.5q-.12-1.24-.242-2.462zm1.657 20.853q.074 1.227.145 2.46h92.5q-.069-1.233-.143-2.46zm-.464-6.951q.088 1.227.17 2.46h92.5q-.084-1.234-.17-2.46zm-.55-6.951q.1 1.226.206 2.462h92.5q-.1-1.239-.2-2.462zm-25.756-48.419h91.246c-.327-3.859-.627-7.848-.892-11.918h-91.242c.265 4.073.563 8.065.891 11.922z" fill="#dde2f8"/><path d="m556.954 261.414h-49.454a4.246 4.246 0 0 0 -4.245 4.228v11.446c0 .824 12.979 1.5 28.973 1.5s28.972-.678 28.972-1.5v-11.443a4.246 4.246 0 0 0 -4.249-4.231z" fill="#bbc0e6"/><path d="m503.258 265.642v11.446c0 .47 4.172.888 10.7 1.163v-12.609a4.246 4.246 0 0 1 4.245-4.228h-10.703a4.246 4.246 0 0 0 -4.245 4.228z" fill="#dde2f8"/><path d="m561.2 265.642v11.446c0 .47-4.173.888-10.7 1.163v-12.609a4.246 4.246 0 0 0 -4.254-4.228h10.7a4.244 4.244 0 0 1 4.253 4.228z" fill="#a3a9d0"/><path d="m509.125 257.186v4.236c0 .661 10.344 1.186 23.1 1.186s23.1-.534 23.1-1.186v-4.236z" fill="#5652cc"/><path d="m520.205 262.433v-5.253h-11.08v4.236c0 .429 4.436.808 11.08 1.017z" fill="#6b67e9"/><path d="m544.254 262.433v-5.253h11.08v4.236c0 .429-4.434.808-11.08 1.017z" fill="#423eaf"/><path d="m509.125 257.188c0-.659 10.344-1.186 23.1-1.186s23.1.535 23.1 1.186-10.344 1.186-23.1 1.186-23.1-.525-23.1-1.186z" fill="#807dfb"/><path d="m483.7 242.018-8.618-1.559a1.254 1.254 0 0 0 -.637.052 1.225 1.225 0 0 0 -.743 1.572l2.956 8.211a1.224 1.224 0 0 0 .363.523 1.234 1.234 0 0 0 1.736-.143l5.659-6.656a1.227 1.227 0 0 0 -.716-2z" fill="#807dfb"/></g></svg>