<svg xmlns="http://www.w3.org/2000/svg" viewBox="0 0 400 221" fill="none">
      <g clip-path="url(#clip0_12815_29169)">
        <path d="M400 220.019H0" stroke="#4F008C" stroke-miterlimit="10" />
        <path
          d="M314.84 205.419L323.966 197.398C324.919 196.649 326.097 196.242 327.309 196.241C327.761 196.268 328.203 196.386 328.609 196.588L329.749 196.994L317.855 219.353C317.855 219.353 312.804 219.19 309.625 216.438C309.625 216.438 313.374 215.708 313.781 209.712C313.781 209.712 313.324 206.749 314.84 205.416"
          fill="white"
        />
        <path
          d="M314.84 205.419L323.966 197.398C324.919 196.649 326.097 196.242 327.309 196.241C327.761 196.268 328.203 196.386 328.609 196.588L329.749 196.994L317.855 219.353C317.855 219.353 312.804 219.19 309.625 216.438C309.625 216.438 313.374 215.708 313.781 209.712C313.781 209.712 313.324 206.752 314.84 205.419Z"
          stroke="#331B6B"
          stroke-linecap="round"
          stroke-linejoin="round"
        />
        <path d="M315.008 218.946L327.309 196.241" stroke="#331B6B" stroke-linecap="round" stroke-linejoin="round" />
        <path d="M319.457 201.36L320.964 204.446" stroke="#331B6B" stroke-linecap="round" stroke-linejoin="round" />
        <path d="M317.93 202.882L319.436 205.968" stroke="#331B6B" stroke-linecap="round" stroke-linejoin="round" />
        <path d="M316.398 204.402L317.905 207.488" stroke="#331B6B" stroke-linecap="round" stroke-linejoin="round" />
        <path
          d="M308.078 207.49C308.078 207.49 314.723 205.86 316.097 203.916C315.276 205.963 313.72 205.403 313.708 210.435C313.708 210.435 312.233 217.086 309.626 216.435L308.078 216.112V207.49Z"
          fill="#331B6B"
        />
        <path d="M255.446 194.607L308.078 207.49V216.114L220.008 215.646" fill="white" />
        <path
          d="M255.446 194.607L308.078 207.49V216.114L220.008 215.646"
          stroke="#331B6B"
          stroke-linecap="round"
          stroke-linejoin="round"
        />
        <path
          d="M244.737 209.107L256.172 213.273C257.286 213.748 258.208 214.585 258.788 215.648C258.979 216.056 259.084 216.499 259.099 216.949L259.282 218.139L233.845 218.372C233.845 218.372 231.586 213.878 232.512 209.787C232.512 209.787 234.939 212.718 240.438 210.223C240.438 210.223 242.84 208.415 244.74 209.107"
          fill="white"
        />
        <path
          d="M244.737 209.107L256.172 213.273C257.286 213.748 258.208 214.585 258.788 215.648C258.979 216.056 259.084 216.499 259.099 216.95L259.282 218.139L233.845 218.372C233.845 218.372 231.586 213.878 232.512 209.787C232.512 209.787 234.939 212.718 240.438 210.223C240.436 210.218 242.838 208.413 244.737 209.107Z"
          stroke="#331B6B"
          stroke-linecap="round"
          stroke-linejoin="round"
        />
        <path d="M258.788 215.646L232.852 215.686" stroke="#331B6B" stroke-linecap="round" stroke-linejoin="round" />
        <path d="M250.525 211.214L248.512 214.001" stroke="#331B6B" stroke-linecap="round" stroke-linejoin="round" />
        <path d="M248.451 210.6L246.438 213.387" stroke="#331B6B" stroke-linecap="round" stroke-linejoin="round" />
        <path d="M246.381 209.984L244.367 212.77" stroke="#331B6B" stroke-linecap="round" stroke-linejoin="round" />
        <path
          d="M239.691 204.173C239.691 204.173 243.414 209.039 245.787 209.317C247.154 209.983 244.221 208.114 239.766 210.502C239.766 210.502 233.179 212.375 232.511 209.786L232.062 208.279L239.691 204.173Z"
          fill="#331B6B"
        />
        <path d="M189.914 119.923L192.309 110.496L210.099 114.965L207.704 124.391L189.914 119.923Z" fill="white" />
        <path
          d="M189.914 119.923L192.309 110.496L210.099 114.965L207.704 124.391L189.914 119.923Z"
          stroke="#331B6B"
          stroke-width="1.247"
          stroke-linecap="round"
        />
        <path
          d="M194.258 120.843L206.721 123.598C206.721 123.598 213.921 128.831 215.631 133.369"
          stroke="#1A242D"
          stroke-width="0.5"
          stroke-miterlimit="10"
        />
        <path d="M196.275 117.604L208.578 120.845L207.598 123.599L193.668 121.168L196.275 117.604Z" fill="white" />
        <path
          d="M196.275 117.604L208.578 120.845L207.598 123.599L193.668 121.168L196.275 117.604Z"
          stroke="#331B6B"
          stroke-linecap="round"
          stroke-linejoin="round"
        />
        <path
          d="M194.668 141.259C195.809 141.259 236.057 155.356 236.057 155.356H273.208V145.148L238.171 144.661L196.134 123.599"
          fill="white"
        />
        <path
          d="M194.668 141.259C195.809 141.259 236.057 155.356 236.057 155.356H273.208V145.148L238.171 144.661L196.134 123.599"
          stroke="#331B6B"
          stroke-linecap="round"
          stroke-linejoin="round"
        />
        <path
          d="M216.015 99.5172C218.694 106.239 216.414 113.64 210.925 116.048C205.436 118.455 198.817 114.954 196.138 108.231C193.459 101.508 195.739 94.1068 201.228 91.7009C206.717 89.295 213.337 92.795 216.015 99.5172Z"
          fill="white"
        />
        <path
          d="M216.015 99.5172C218.694 106.239 216.414 113.64 210.925 116.048C205.436 118.455 198.817 114.954 196.138 108.231C193.459 101.508 195.739 94.1068 201.228 91.7009C206.717 89.295 213.337 92.795 216.015 99.5172Z"
          stroke="#331B6B"
          stroke-linecap="round"
          stroke-linejoin="round"
        />
        <path d="M213.13 91.303C213.13 91.303 192.004 79.0808 187.817 103.822L186.016 124.4" fill="white" />
        <path
          d="M213.13 91.303C213.13 91.303 192.004 79.0808 187.817 103.822L186.016 124.4"
          stroke="#331B6B"
          stroke-linecap="round"
          stroke-linejoin="round"
        />
        <path
          d="M188.693 102.694L213.638 95.2022C213.861 95.1361 214.07 95.0265 214.25 94.8796C214.431 94.7327 214.582 94.5514 214.692 94.3462C214.803 94.1411 214.872 93.916 214.895 93.6841C214.918 93.4522 214.896 93.2179 214.828 92.9948L214.639 92.3733C214.501 91.9217 214.19 91.5432 213.773 91.321C213.357 91.0988 212.869 91.051 212.417 91.1882L187.474 98.68C187.251 98.7464 187.042 98.8563 186.861 99.0034C186.68 99.1505 186.53 99.3318 186.42 99.537C186.309 99.7422 186.24 99.9673 186.216 100.199C186.193 100.431 186.215 100.666 186.282 100.889L186.473 101.51C186.54 101.734 186.652 101.943 186.8 102.124C186.948 102.304 187.131 102.454 187.338 102.564C187.544 102.674 187.77 102.743 188.003 102.765C188.236 102.788 188.471 102.764 188.695 102.696"
          fill="white"
        />
        <path
          d="M188.693 102.694L213.638 95.2022C213.861 95.1361 214.07 95.0265 214.25 94.8796C214.431 94.7327 214.582 94.5514 214.692 94.3462C214.803 94.1411 214.872 93.916 214.895 93.6841C214.918 93.4522 214.896 93.2179 214.828 92.9948L214.639 92.3733C214.501 91.9217 214.19 91.5432 213.773 91.321C213.357 91.0988 212.869 91.051 212.417 91.1882L187.474 98.68C187.251 98.7464 187.042 98.8563 186.861 99.0034C186.68 99.1505 186.53 99.3318 186.42 99.537C186.309 99.7422 186.24 99.9673 186.216 100.199C186.193 100.431 186.215 100.666 186.282 100.889L186.473 101.51C186.54 101.734 186.652 101.942 186.8 102.122C186.948 102.303 187.131 102.453 187.337 102.562C187.543 102.672 187.769 102.741 188.002 102.763C188.234 102.786 188.469 102.762 188.693 102.694V102.694Z"
          stroke="#331B6B"
          stroke-linecap="round"
          stroke-linejoin="round"
        />
        <path d="M217.232 103.873L210.752 107.275L210.391 111.81" fill="white" />
        <path
          d="M207.001 111.873L214.314 112.167L216.894 108.42"
          stroke="#331B6B"
          stroke-linecap="round"
          stroke-linejoin="round"
        />
        <path
          d="M203.953 190.199C203.953 190.199 233.306 158.427 233.448 158.274C237.818 153.544 245.024 152.357 250.428 156.099C256.572 160.351 255.431 166.942 255.446 173.415C255.478 185.057 255.446 196.699 255.446 208.34L232.29 209.322"
          fill="white"
        />
        <path
          d="M203.953 190.199C203.953 190.199 233.306 158.427 233.448 158.274C237.818 153.544 245.024 152.357 250.428 156.099C256.572 160.351 255.431 166.942 255.446 173.415C255.478 185.057 255.446 196.699 255.446 208.34L232.29 209.322"
          stroke="#331B6B"
          stroke-linecap="round"
          stroke-linejoin="round"
        />
        <path d="M222.207 152.113L225.582 166.788" stroke="#1A242D" stroke-width="0.5" stroke-miterlimit="10" />
        <path d="M194.668 141.259L223.718 158.692L222.205 150.528L194.668 141.259Z" fill="#331B6B" />
        <path d="M183.215 156.167L192.794 122.788L184.321 138.423L183.215 156.167Z" fill="#331B6B" />
        <path
          d="M184.077 139.152C181.621 151.387 181.727 164.435 183.184 176.763C183.825 182.88 184.88 188.945 186.341 194.919C187.711 200.195 189.486 206.06 193.937 209.612C199.967 214.423 208.781 215.785 216.307 215.754C224.684 215.72 232.541 211.161 236.109 203.448C239.412 196.314 240.353 188.381 242.092 180.792"
          stroke="#331B6B"
          stroke-linecap="round"
          stroke-linejoin="round"
        />
        <path
          d="M209.242 96.4443C208.694 97.3458 179.945 131.648 179.945 131.648L176.848 161.018L199.202 108.617"
          fill="white"
        />
        <path
          d="M209.242 96.4443C208.694 97.3458 179.945 131.648 179.945 131.648L176.848 161.018L199.202 108.617"
          stroke="#331B6B"
          stroke-linecap="round"
          stroke-linejoin="round"
        />
        <path
          d="M273.207 153.244C274.92 153.119 276.643 153.248 278.318 153.627C278.859 153.766 279.423 153.796 279.976 153.714C281.539 153.626 283.101 153.536 284.663 153.446C286.24 153.356 289.954 153.213 290.16 152.995C290.277 152.817 290.352 152.616 290.38 152.405C290.409 152.195 290.389 151.98 290.323 151.778C290.009 151.293 288.979 151.472 288.496 151.492C287.654 151.526 284.966 151.56 284.126 151.594"
          fill="white"
        />
        <path
          d="M273.207 153.244C274.92 153.119 276.643 153.248 278.318 153.627C278.859 153.766 279.423 153.796 279.976 153.714C281.539 153.626 283.101 153.536 284.663 153.446C286.24 153.356 289.954 153.213 290.16 152.995C290.277 152.817 290.352 152.616 290.38 152.405C290.409 152.195 290.389 151.98 290.323 151.778C290.009 151.293 288.979 151.472 288.496 151.492C287.654 151.526 284.966 151.56 284.126 151.594"
          stroke="#331B6B"
          stroke-linecap="round"
          stroke-linejoin="round"
        />
        <path
          d="M290.053 151.565C290.053 151.565 290.772 151.194 290.486 149.773C290.486 149.773 290.826 149.403 284.125 149.693"
          fill="white"
        />
        <path
          d="M290.053 151.565C290.053 151.565 290.772 151.194 290.486 149.773C290.486 149.773 290.826 149.403 284.125 149.693"
          stroke="#331B6B"
          stroke-linecap="round"
          stroke-linejoin="round"
        />
        <path d="M290.488 149.772C290.488 149.772 291.276 147.322 289.537 147.476L279.809 147.665" fill="white" />
        <path
          d="M290.488 149.772C290.488 149.772 291.276 147.322 289.537 147.476L279.809 147.665"
          stroke="#331B6B"
          stroke-linecap="round"
          stroke-linejoin="round"
        />
        <path
          d="M280.622 144.508H278.177C277.3 144.508 276.683 145.645 276.244 146.224C275.614 147.053 274.106 146.817 273.207 146.805"
          stroke="#331B6B"
          stroke-linecap="round"
          stroke-linejoin="round"
        />
        <path d="M289.833 147.464V143.211H281.145V147.464" fill="white" />
        <path
          d="M289.833 147.464V143.211H281.145V147.464"
          stroke="#331B6B"
          stroke-linecap="round"
          stroke-linejoin="round"
        />
        <path d="M281.145 153.418V156.74H289.832V152.992" fill="white" />
        <path
          d="M281.145 153.418V156.74H289.832V152.992"
          stroke="#331B6B"
          stroke-linecap="round"
          stroke-linejoin="round"
        />
        <path d="M281.328 144.001L283.25 146.675L285.414 144.001L287.513 146.675L289.65 144.001" fill="white" />
        <path
          d="M281.328 144.001L283.25 146.675L285.414 144.001L287.513 146.675L289.65 144.001"
          stroke="#331B6B"
          stroke-linecap="round"
          stroke-linejoin="round"
        />
        <path
          d="M162.264 219.015L89.6116 219.011C84.2887 218.995 79.1884 216.873 75.4246 213.11C71.6608 209.346 69.5393 204.245 69.5234 198.923V152.33C69.5399 147.007 71.6621 141.907 75.4267 138.143C79.1913 134.38 84.2922 132.259 89.6153 132.244L162.264 132.248C167.587 132.264 172.687 134.385 176.451 138.149C180.215 141.913 182.336 147.013 182.352 152.336V198.929C182.336 204.251 180.214 209.351 176.45 213.114C172.687 216.877 167.587 218.999 162.264 219.015Z"
          fill="white"
        />
        <path
          d="M162.264 219.015L89.6116 219.011C84.2887 218.995 79.1884 216.873 75.4246 213.11C71.6608 209.346 69.5393 204.245 69.5234 198.923V152.33C69.5399 147.007 71.6621 141.907 75.4267 138.143C79.1913 134.38 84.2922 132.259 89.6153 132.244L162.264 132.248C167.587 132.264 172.687 134.385 176.451 138.149C180.215 141.913 182.336 147.013 182.352 152.336V198.929C182.336 204.251 180.214 209.351 176.45 213.114C172.687 216.877 167.587 218.999 162.264 219.015V219.015Z"
          stroke="#331B6B"
          stroke-miterlimit="10"
        />
        <path d="M87.7773 144.854V153.381" stroke="#6F6EA7" stroke-miterlimit="10" />
        <path d="M91.9493 149.021H83.4219" stroke="#6F6EA7" stroke-miterlimit="10" />
        <path d="M112.875 144.854V153.382" stroke="#6F6EA7" stroke-miterlimit="10" />
        <path d="M117.043 149.023H108.516" stroke="#6F6EA7" stroke-miterlimit="10" />
        <path d="M137.973 144.856V153.384" stroke="#6F6EA7" stroke-miterlimit="10" />
        <path d="M142.141 149.024H133.613" stroke="#6F6EA7" stroke-miterlimit="10" />
        <path d="M163.07 144.856V153.384" stroke="#6F6EA7" stroke-miterlimit="10" />
        <path d="M167.238 149.025H158.711" stroke="#6F6EA7" stroke-miterlimit="10" />
        <path d="M87.7773 163.46V171.987" stroke="#6F6EA7" stroke-miterlimit="10" />
        <path d="M91.9454 167.629H83.418" stroke="#6F6EA7" stroke-miterlimit="10" />
        <path d="M112.875 163.461V171.988" stroke="#6F6EA7" stroke-miterlimit="10" />
        <path d="M117.043 167.63H108.516" stroke="#6F6EA7" stroke-miterlimit="10" />
        <path d="M137.973 163.462V171.989" stroke="#6F6EA7" stroke-miterlimit="10" />
        <path d="M142.141 167.631H133.613" stroke="#6F6EA7" stroke-miterlimit="10" />
        <path d="M163.07 163.464V171.991" stroke="#6F6EA7" stroke-miterlimit="10" />
        <path d="M167.238 167.632H158.711" stroke="#6F6EA7" stroke-miterlimit="10" />
        <path d="M87.7773 182.066V190.594" stroke="#6F6EA7" stroke-miterlimit="10" />
        <path d="M91.9454 186.235H83.418" stroke="#6F6EA7" stroke-miterlimit="10" />
        <path d="M112.875 182.067V190.595" stroke="#6F6EA7" stroke-miterlimit="10" />
        <path d="M117.043 186.236H108.516" stroke="#6F6EA7" stroke-miterlimit="10" />
        <path d="M137.973 182.068V190.596" stroke="#6F6EA7" stroke-miterlimit="10" />
        <path d="M142.141 186.237H133.613" stroke="#6F6EA7" stroke-miterlimit="10" />
        <path d="M163.066 182.07V190.598" stroke="#6F6EA7" stroke-miterlimit="10" />
        <path d="M167.234 186.239H158.707" stroke="#6F6EA7" stroke-miterlimit="10" />
        <path d="M87.7773 200.673V209.2" stroke="#6F6EA7" stroke-miterlimit="10" />
        <path d="M91.9454 204.842H83.418" stroke="#6F6EA7" stroke-miterlimit="10" />
        <path d="M112.875 200.675V209.202" stroke="#6F6EA7" stroke-miterlimit="10" />
        <path d="M117.043 204.844H108.516" stroke="#6F6EA7" stroke-miterlimit="10" />
        <path d="M137.969 200.676V209.203" stroke="#6F6EA7" stroke-miterlimit="10" />
        <path d="M142.137 204.845H133.609" stroke="#6F6EA7" stroke-miterlimit="10" />
        <path d="M163.066 200.677V209.204" stroke="#6F6EA7" stroke-miterlimit="10" />
        <path d="M167.234 204.846H158.707" stroke="#6F6EA7" stroke-miterlimit="10" />
        <path d="M93.9414 62.0723V86.9878L94.1436 94.4812L100.015 89.2152H142.96V62.0723H93.9414Z" fill="white" />
        <path
          d="M142.96 89.2152H100.015L94.1436 94.4812L93.9414 86.9863V62.0723H142.96V89.2152Z"
          stroke="#331B6B"
          stroke-miterlimit="10"
        />
        <path
          d="M94.1709 86.9882V62.3038H142.729V88.9867H99.9287L94.3591 93.9793L94.1709 86.9882ZM93.7109 61.8438V86.9934L93.9287 94.986L100.105 89.4467H143.188V61.8438H93.7109Z"
          fill="#331B6B"
        />
        <path
          d="M118.913 85.3066C116.942 85.3043 115.052 84.5202 113.658 83.1264C112.265 81.7326 111.481 79.8429 111.479 77.8718L111.89 77.8718C111.89 79.7345 112.63 81.5209 113.947 82.8381C115.264 84.1552 117.051 84.8952 118.913 84.8952C120.776 84.8952 122.562 84.1552 123.879 82.8381C125.197 81.5209 125.937 79.7345 125.937 77.8718L126.348 77.8718C126.345 79.843 125.561 81.7328 124.168 83.1267C122.774 84.5205 120.884 85.3045 118.913 85.3066Z"
          fill="#4B4A91"
          stroke="#4B4A91"
          stroke-miterlimit="10"
        />
        <path
          d="M117.225 70.2729C117.225 70.8055 117.067 71.3262 116.772 71.7691C116.476 72.212 116.055 72.5572 115.563 72.7611C115.071 72.965 114.53 73.0184 114.007 72.9145C113.485 72.8107 113.005 72.5542 112.628 72.1776C112.252 71.801 111.995 71.3211 111.892 70.7988C111.788 70.2764 111.841 69.7349 112.045 69.2429C112.249 68.7509 112.594 68.3303 113.037 68.0345C113.48 67.7387 114.001 67.5809 114.533 67.5811C115.247 67.5813 115.932 67.8649 116.436 68.3697C116.941 68.8745 117.225 69.559 117.225 70.2729Z"
          fill="#4B4A91"
        />
        <path
          d="M126.307 70.2729C126.307 70.8055 126.149 71.3262 125.854 71.7691C125.558 72.212 125.137 72.5572 124.645 72.7611C124.153 72.965 123.612 73.0184 123.089 72.9145C122.567 72.8107 122.087 72.5542 121.711 72.1776C121.334 71.801 121.077 71.3211 120.974 70.7988C120.87 70.2764 120.923 69.7349 121.127 69.2429C121.331 68.7509 121.676 68.3303 122.119 68.0345C122.562 67.7387 123.083 67.5809 123.615 67.5811C124.329 67.5813 125.014 67.8649 125.518 68.3697C126.023 68.8745 126.307 69.559 126.307 70.2729Z"
          fill="#4B4A91"
        />
        <path
          d="M301.69 92.3786C301.69 92.9147 301.66 93.4504 301.599 93.983H285.727V78.2726C287.725 78.0253 289.754 78.2055 291.678 78.8013C293.602 79.3971 295.378 80.3948 296.887 81.7285C298.396 83.0622 299.605 84.7013 300.433 86.5374C301.261 88.3734 301.69 90.3644 301.69 92.3786Z"
          fill="#4B4A91"
        />
        <path
          d="M301.69 92.3786C301.69 92.9147 301.66 93.4504 301.599 93.983H285.727V78.2726C287.725 78.0253 289.754 78.2055 291.678 78.8013C293.602 79.3971 295.378 80.3948 296.887 81.7285C298.396 83.0622 299.605 84.7013 300.433 86.5374C301.261 88.3734 301.69 90.3644 301.69 92.3786V92.3786Z"
          stroke="#331B6B"
          stroke-miterlimit="10"
        />
        <path d="M313.251 69.041H285.727V93.9869H313.251V69.041Z" stroke="#331B6B" stroke-miterlimit="10" />
        <path d="M292.465 69.04V73.9149H297.626V78.7882H302.5V83.806H307.374V88.5378H313.252" fill="white" />
        <path
          d="M292.465 69.04V73.9149H297.626V78.7882H302.5V83.806H307.374V88.5378H313.252"
          stroke="#331B6B"
          stroke-miterlimit="10"
        />
        <path d="M257.023 54.3867V60.3045" stroke="#331B6B" stroke-miterlimit="10" />
        <path d="M259.984 57.3457H254.066" stroke="#331B6B" stroke-miterlimit="10" />
        <path d="M265.137 89.8584V95.7762" stroke="#331B6B" stroke-miterlimit="10" />
        <path d="M268.097 92.8174H262.18" stroke="#331B6B" stroke-miterlimit="10" />
        <path
          d="M278.634 58.4486C278.634 58.6098 278.586 58.7673 278.496 58.9013C278.407 59.0353 278.279 59.1397 278.131 59.2014C277.982 59.2631 277.818 59.2792 277.66 59.2478C277.502 59.2163 277.357 59.1387 277.243 59.0248C277.129 58.9108 277.051 58.7656 277.02 58.6076C276.988 58.4495 277.004 58.2857 277.066 58.1368C277.128 57.9879 277.232 57.8606 277.366 57.7711C277.5 57.6816 277.658 57.6338 277.819 57.6338C278.035 57.6338 278.242 57.7196 278.395 57.8724C278.548 58.0253 278.634 58.2325 278.634 58.4486Z"
          fill="#331B6B"
        />
        <path d="M189.227 34.2871V50.0834" stroke="#331B6B" stroke-miterlimit="10" />
        <path d="M197.124 42.1855H181.328" stroke="#331B6B" stroke-miterlimit="10" />
        <path d="M239.391 0V15.7963" stroke="#331B6B" stroke-miterlimit="10" />
        <path d="M247.288 7.89844H231.492" stroke="#331B6B" stroke-miterlimit="10" />
      </g>
      <defs>
        <clipPath id="clip0_12815_29169">
          <rect width="400" height="220.389" fill="white" />
        </clipPath>
      </defs>
    </svg>