<svg fill="none" height="146" viewBox="0 0 232 146" width="232" xmlns="http://www.w3.org/2000/svg" xmlns:xlink="http://www.w3.org/1999/xlink"><linearGradient id="a" gradientUnits="userSpaceOnUse" x1="78.88" x2="78.88" y1="-62.7935" y2="190.426"><stop offset="0" stop-color="#fff"/><stop offset=".42" stop-color="#a0d1fd"/><stop offset="1" stop-color="#1b91fb"/></linearGradient><linearGradient id="b" gradientUnits="userSpaceOnUse" x1="-61.5003" x2="296.35" y1="96.3963" y2="96.3963"><stop offset="0" stop-color="#6258a6"/><stop offset="1" stop-color="#2d1e94"/></linearGradient><linearGradient id="c" gradientUnits="userSpaceOnUse" x1="-20.7398" x2="177.43" y1="53.2362" y2="53.2362"><stop offset="0" stop-color="#6258a6"/><stop offset=".05" stop-color="#7e92ee"/><stop offset=".34" stop-color="#6258a6"/><stop offset=".61" stop-color="#7e92ee"/><stop offset=".84" stop-color="#6258a6"/><stop offset="1" stop-color="#2a4c95"/></linearGradient><clipPath id="d"><path d="m0 0h231.63v145.03h-231.63z"/></clipPath><g clip-path="url(#d)"><path d="m.0099731 126.656c.1499999 3.44 1.4499969 6.79 3.7199969 9.98 2.11 2.95 5.04 5.77 8.67003 8.39h132.54c2.67-2.74 4.98-6.07 6.93-10.18.7-1.47 1.33-3 1.89-4.58 16.51-46.1695-22.72-134.45953-35.91-130.119527-6.06 1.989997-2.48 22.150027-12.45 31.930027-18.86 18.52-54.93-30.78003-65.56-15.96-5.69 7.94 3.83 23.23.28 46.67-6.03 39.8095-40.920027 44.9495-40.1100269 63.8695z" fill="url(#a)" opacity=".13"/><path d="m161.58 136.529.52 2.41c.47 2.16 2.38 3.7 4.58 3.7h57.37c.46 0 .91-.15 1.28-.43l5.38-4.1c1.75-1.34.81-4.14-1.4-4.14h-65.68c-1.35 0-2.35 1.24-2.07 2.56z" fill="#6258a6"/><path d="m163.73 142.636h-134.2903c-1.74 0-3.38-.54-4.73-1.47-1.3-.9-2.34-2.16-2.96-3.65-.19-.46-.34-.94-.45-1.45l-16.43995-75.7997c-.3-1.36-.24-2.7101.1-3.9501.02-.07.04-.15.06-.22 1.02-3.38 4.15-5.94 7.98995-5.94h127.2203c3.78 0 7.07 2.54 8.05 6.16.04.14.07.2801.1.4201l16.74 77.2297.77 3.54.42 1.92c.36 1.65-.9 3.2-2.58 3.2z" fill="url(#b)"/><path d="m148.28 56.3162h-143.3298c.95-3.49 4.13-6.16 8.06-6.16h127.2198c3.78 0 7.07 2.54 8.05 6.16z" fill="url(#c)"/></g></svg>