<svg fill="none" height="584" viewBox="0 0 652 584" width="652" xmlns="http://www.w3.org/2000/svg" xmlns:xlink="http://www.w3.org/1999/xlink"><clipPath id="a"><path d="m0 0h652v498h-652z"/></clipPath><g clip-path="url(#a)"><path d="m255.937 102.933 2.38.583c-1.074.154-2.148.302-3.222.435h-39.691c-2.976-.379-5.936-.847-8.88-1.404-17.731-3.2721-34.652-9.9792-49.813-19.7448-9.315-6.0617-18.195-13.5141-23.018-23.5233-6.549-13.5914-4.261-30.8002 5.09-42.6356 3.404-4.2701 7.596-7.84681 12.347-10.53595.709-.40739 1.425-.79371 2.155-1.15896 7.916-3.979987 16.805-5.608201 25.616-4.692018 14.988 1.636588 28.817 10.795828 36.798 23.593528 8.824 14.1323 10.516 31.4253 11.99 48.023 2.675-8.6114 12.713-13.8724 21.523-11.9689 8.803 1.8965 15.598 10.1216 16.693 19.0701 1.074 8.7519-2.899 17.7356-9.519 23.5729-.147.126-.294.259-.449.386z" fill="#f2f2f2"/><path d="m225.331 103.958h-1.987c-.196-.157-.349-.363-.442-.597-.112-.267-.217-.541-.337-.808-5.903-14.3096-13.172-28.016-21.705-40.9289-13.56-20.5547-30.17-38.9224-49.259-54.47101-.163-.11619-.293-.27363-.375-.45624-.083-.18262-.116-.3839-.095-.58331.04-.26611.15-.5169.318-.72705s.388-.37221.639-.46983.523-.12733.788-.08614c.266.04119.517.15183.726.32074 12.368 10.07884 23.713 21.35294 33.871 33.65894 10.163 12.2909 19.111 25.5393 26.718 39.559 4.244 7.8472 8.056 15.9204 11.421 24.1838.007.021.014.035.021.056.112.225.144.482.089.728s-.193.465-.391.621z" fill="#fff"/><path d="m391.709 102.547h-378.3712c-3.53645.003-6.9271 1.41-9.42772 3.912-2.50063 2.502-3.90687924 5.895-3.91008 9.433v40.74c.00320076 3.538 1.40945 6.931 3.91008 9.433 2.50062 2.502 5.89127 3.909 9.42772 3.912h378.3712c3.537-.003 6.927-1.41 9.428-3.912 2.5-2.502 3.907-5.895 3.91-9.433v-40.74c-.003-3.538-1.41-6.931-3.91-9.433-2.501-2.502-5.891-3.909-9.428-3.912zm11.934 54.085c-.005 3.165-1.263 6.2-3.5 8.438s-5.27 3.498-8.434 3.502h-378.3712c-3.1637-.004-6.1965-1.264-8.43355-3.502s-3.4958-5.273-3.50027-8.438v-40.74c.00447-3.165 1.26322-6.2 3.50027-8.438s5.26985-3.498 8.43355-3.502h378.3712c3.164.004 6.197 1.264 8.434 3.502s3.495 5.273 3.5 8.438z" fill="#eaeaea"/><path d="m391.709 266.211h-378.3712c-3.5362-.004-6.92637-1.411-9.42681-3.913-2.50045-2.502-3.90697307-5.894-3.91099-9.432v-40.739c.00401693-3.538 1.41054-6.931 3.91099-9.432 2.50044-2.502 5.89061-3.91 9.42681-3.914h378.3712c3.536.004 6.926 1.412 9.427 3.914 2.5 2.501 3.907 5.894 3.911 9.432v40.739c-.004 3.538-1.411 6.93-3.911 9.432-2.501 2.502-5.891 3.909-9.427 3.913zm-378.3712-66.025c-3.164.004-6.19733 1.263-8.43458 3.501-2.23725 2.239-3.4957 5.274-3.49924 8.44v40.739c.00354 3.166 1.26199 6.201 3.49924 8.439 2.23725 2.239 5.27058 3.498 8.43458 3.502h378.3712c3.164-.004 6.197-1.263 8.435-3.502 2.237-2.238 3.495-5.273 3.499-8.439v-40.739c-.004-3.166-1.262-6.201-3.499-8.44-2.238-2.238-5.271-3.497-8.435-3.501z" fill="#eaeaea"/><path d="m391.709 362.438h-378.3712c-3.5362-.004-6.92637-1.411-9.42681-3.913-2.50045-2.502-3.90697307-5.894-3.91099-9.433v-40.739c.00401693-3.538 1.41054-6.93 3.91099-9.432 2.50044-2.502 5.89061-3.909 9.42681-3.913h378.3712c3.536.004 6.926 1.411 9.427 3.913 2.5 2.502 3.907 5.894 3.911 9.432v40.739c-.004 3.539-1.411 6.931-3.911 9.433-2.501 2.502-5.891 3.909-9.427 3.913zm-378.3712-66.025c-3.164.003-6.19733 1.262-8.43458 3.501-2.23725 2.238-3.4957 5.274-3.49924 8.439v40.739c.00354 3.166 1.26199 6.201 3.49924 8.44 2.23725 2.238 5.27058 3.498 8.43458 3.501h378.3712c3.164-.003 6.197-1.263 8.435-3.501 2.237-2.239 3.495-5.274 3.499-8.44v-40.739c-.004-3.165-1.262-6.201-3.499-8.439-2.238-2.239-5.271-3.498-8.435-3.501z" fill="#eaeaea"/><path d="m75.6948 159.093h-22.4636c-3.0709-.003-6.015-1.225-8.1864-3.398-2.1715-2.173-3.3929-5.119-3.3964-8.191v-22.477c.0035-3.073 1.2249-6.018 3.3964-8.191 2.1714-2.173 5.1155-3.395 8.1864-3.398h22.4636c3.0709.003 6.015 1.225 8.1865 3.398 2.1714 2.173 3.3929 5.118 3.3963 8.191v22.477c-.0034 3.072-1.2249 6.018-3.3963 8.191-2.1715 2.173-5.1156 3.395-8.1865 3.398z" fill="#273470"/><g fill="#ccc"><path d="m357.429 155.231h-247.801c-1.49 0-2.918-.592-3.971-1.646-1.054-1.054-1.645-2.483-1.645-3.974 0-1.49.591-2.919 1.645-3.973 1.053-1.054 2.481-1.646 3.971-1.646h247.801c1.49 0 2.918.592 3.971 1.646s1.645 2.483 1.645 3.973c0 1.491-.592 2.92-1.645 3.974s-2.481 1.646-3.971 1.646z"/><path d="m276.701 131.348h-167.073c-1.49 0-2.918-.592-3.971-1.646-1.054-1.054-1.645-2.483-1.645-3.973 0-1.491.591-2.92 1.645-3.974 1.053-1.054 2.481-1.646 3.971-1.646h167.073c1.489 0 2.917.592 3.971 1.646 1.053 1.054 1.645 2.483 1.645 3.974 0 1.49-.592 2.919-1.645 3.973-1.054 1.054-2.482 1.646-3.971 1.646z"/><path d="m75.6948 255.32h-22.4636c-3.0709-.004-6.015-1.226-8.1864-3.398-2.1715-2.173-3.3929-5.119-3.3964-8.192v-22.476c.0035-3.073 1.2249-6.019 3.3964-8.192 2.1714-2.172 5.1155-3.394 8.1864-3.398h22.4636c3.0709.004 6.015 1.226 8.1865 3.398 2.1714 2.173 3.3929 5.119 3.3963 8.192v22.476c-.0034 3.073-1.2249 6.019-3.3963 8.192-2.1715 2.172-5.1156 3.394-8.1865 3.398z"/><path d="m357.429 251.457h-247.801c-1.49 0-2.918-.592-3.971-1.646-1.054-1.053-1.645-2.483-1.645-3.973s.591-2.92 1.645-3.973c1.053-1.054 2.481-1.646 3.971-1.646h247.801c1.49 0 2.918.592 3.971 1.646 1.053 1.053 1.645 2.483 1.645 3.973s-.592 2.92-1.645 3.973c-1.053 1.054-2.481 1.646-3.971 1.646z"/><path d="m276.701 227.574h-167.073c-1.49 0-2.918-.592-3.971-1.646-1.054-1.053-1.645-2.483-1.645-3.973s.591-2.919 1.645-3.973c1.053-1.054 2.481-1.646 3.971-1.646h167.073c1.489 0 2.917.592 3.971 1.646 1.053 1.054 1.645 2.483 1.645 3.973s-.592 2.92-1.645 3.973c-1.054 1.054-2.482 1.646-3.971 1.646z"/><path d="m75.6948 351.547h-22.4636c-3.0709-.004-6.015-1.226-8.1864-3.399-2.1715-2.173-3.3929-5.118-3.3964-8.191v-22.477c.0035-3.072 1.2249-6.018 3.3964-8.191 2.1714-2.173 5.1155-3.395 8.1864-3.398h22.4636c3.0709.003 6.015 1.225 8.1865 3.398 2.1714 2.173 3.3929 5.119 3.3963 8.191v22.477c-.0034 3.073-1.2249 6.018-3.3963 8.191-2.1715 2.173-5.1156 3.395-8.1865 3.399z"/><path d="m357.429 347.684h-247.801c-1.49 0-2.918-.592-3.971-1.646-1.054-1.054-1.645-2.483-1.645-3.974 0-1.49.591-2.919 1.645-3.973 1.053-1.054 2.481-1.646 3.971-1.646h247.801c1.49 0 2.918.592 3.971 1.646s1.645 2.483 1.645 3.973c0 1.491-.592 2.92-1.645 3.974s-2.481 1.646-3.971 1.646z"/><path d="m276.701 323.809h-167.073c-1.49 0-2.918-.592-3.971-1.646-1.054-1.054-1.645-2.483-1.645-3.974 0-1.49.591-2.919 1.645-3.973 1.053-1.054 2.481-1.646 3.971-1.646h167.073c1.489 0 2.917.592 3.971 1.646 1.053 1.054 1.645 2.483 1.645 3.973 0 1.491-.592 2.92-1.645 3.974-1.054 1.054-2.482 1.646-3.971 1.646z"/></g><path d="m400.134 122.92c8.917 0 16.146-7.233 16.146-16.155 0-8.9227-7.229-16.1556-16.146-16.1556s-16.146 7.2329-16.146 16.1556c0 8.922 7.229 16.155 16.146 16.155z" fill="#ff6584"/><path d="m406.451 113.439c-.092 0-.184-.018-.269-.054-.085-.035-.162-.087-.227-.152l-12.636-12.643c-.132-.132-.206-.311-.206-.497 0-.1863.074-.365.206-.4967.131-.1317.31-.2057.496-.2057s.365.074.497.2057l12.635 12.6427c.098.099.165.224.192.36s.014.278-.04.406c-.053.128-.143.238-.258.315-.116.077-.251.119-.39.119z" fill="#fff"/><path d="m393.815 113.438c-.139 0-.274-.041-.39-.118-.115-.077-.205-.187-.258-.315s-.067-.27-.04-.406.094-.261.192-.36l12.636-12.6427c.065-.0652.142-.1169.227-.1522s.177-.0535.269-.0535.183.0182.269.0535c.085.0353.162.087.227.1522s.117.1427.152.2279c.036.0852.054.1768.054.2688s-.018.183-.054.269c-.035.085-.087.162-.152.228l-12.636 12.643c-.065.065-.142.117-.227.152-.085.036-.177.054-.269.053z" fill="#fff"/></g><path d="m626.057 536h-359.114c-.25 0-.49-.053-.667-.146-.177-.094-.276-.221-.276-.354s.099-.26.276-.354c.177-.093.417-.146.667-.146h359.114c.25 0 .49.053.667.146.177.094.276.221.276.354s-.099.26-.276.354c-.177.093-.417.146-.667.146z" fill="#3f3d56"/><path d="m453.5 413c14.083 0 25.5-11.417 25.5-25.5s-11.417-25.5-25.5-25.5-25.5 11.417-25.5 25.5 11.417 25.5 25.5 25.5z" fill="#2f2e41"/><path d="m429.671 551-.671-11.754 44.008-8.246.992 17.35z" fill="#ffb8b8"/><path d="m431.724 530.849 1.3 22.232-13.998.818-2.117-36.229c1.838-.108 3.679.148 5.419.752 1.739.604 3.342 1.545 4.718 2.769s2.497 2.707 3.3 4.364 1.271 3.456 1.378 5.294z" fill="#2f2e41"/><path d="m449 550.128-7.295 8.872-37.705-23.906 10.766-13.094z" fill="#ffb8b8"/><g fill="#2f2e41"><path d="m433.669 563.894 14.141-17.204 10.832 8.904-23.044 28.036c-1.423-1.169-2.601-2.607-3.468-4.232-.866-1.624-1.405-3.404-1.584-5.236-.179-1.833.005-3.683.54-5.445.536-1.761 1.414-3.4 2.583-4.823z"/><path d="m428.111 508.99-5.029 23.658c-.115.545-.109 1.108.019 1.65s.375 1.049.723 1.484c.348.436.788.789 1.289 1.035.5.246 1.049.378 1.607.387l49.438.796c.557.008 1.109-.106 1.617-.335.508-.228.959-.567 1.321-.99s.625-.921.771-1.457c.147-.537.172-1.099.075-1.647l-4.324-24.453c-.154-.874-.612-1.665-1.293-2.235s-1.542-.883-2.431-.883h-40.084c-.867 0-1.707.297-2.38.841-.674.545-1.139 1.303-1.319 2.149z"/><path d="m435.706 517.674s-47.727-29.912-57.086-14.021c-4.679 7.945-2.339 15.657 1.17 21.383 3.257 5.213 7.932 9.392 13.478 12.05l38.695 18.914 14.037-14.956-9.358-8.413z"/><path d="m460.247 512.722s62.449-17.906 50.148 16.02c-12.3 33.926-58.664 20.733-58.664 20.733l-4.731-14.136 16.085-11.309z"/></g><path d="m454.5 417c12.979 0 23.5-10.297 23.5-23s-10.521-23-23.5-23-23.5 10.297-23.5 23 10.521 23 23.5 23z" fill="#ffb8b8"/><path d="m455.62 516c-9.707-.144-19.364-1.39-28.778-3.713l-.279-.074-13.035-58.717c-1.173-5.159-.376-10.561 2.241-15.184 2.617-4.624 6.872-8.148 11.962-9.909 15.722-5.524 32.858-5.859 48.793-.955 5.347 1.688 9.848 5.287 12.604 10.08s3.566 10.427 2.267 15.779l-14.56 58.857-.205.095c-6.051 2.807-13.618 3.741-21.01 3.741z" fill="#ccc"/><path d="m438.584 521.154c.47-1.307 1.22-2.495 2.197-3.481.978-.985 2.159-1.744 3.461-2.222 1.302-.479 2.693-.666 4.074-.548 1.382.119 2.721.539 3.923 1.231l25.458-22.134 2.303 17.395-24.528 18.352c-1.295 1.946-3.258 3.348-5.517 3.941-2.258.593-4.655.335-6.737-.724s-3.703-2.846-4.557-5.023-.881-4.592-.077-6.787z" fill="#ffb8b8"/><path d="m462.261 526c-.41 0-.818-.061-1.211-.179-.637-.187-1.221-.525-1.702-.985-.481-.461-.846-1.03-1.063-1.662l-3.041-8.673c-.285-.801-.321-1.671-.104-2.494.217-.822.677-1.559 1.319-2.113l34.328-20.745-13.532-60.768.344-.084c.14-.035 14.005-3.211 19.686 12.04 3.978 10.681 18.701 33.905 17.663 49.598-.198 3.14-1.44 6.12-3.528 8.461-2.087 2.341-4.897 3.905-7.976 4.44l-38.64 22.286c-.728.568-1.622.877-2.543.878z" fill="#ccc"/><path d="m466.416 519.154c-.47-1.307-1.22-2.495-2.197-3.481-.978-.985-2.159-1.744-3.461-2.222-1.302-.479-2.693-.666-4.074-.547-1.382.118-2.721.538-3.923 1.23l-25.458-22.134-2.303 17.395 24.528 18.352c1.295 1.946 3.258 3.348 5.517 3.941 2.258.593 4.655.335 6.737-.724s3.703-2.846 4.557-5.023.881-4.592.077-6.787z" fill="#ffb8b8"/><path d="m444.6 526c-.939-.001-1.851-.31-2.592-.878l-42.238-20.406c-3.138-.535-6.002-2.099-8.13-4.44-2.127-2.341-3.394-5.322-3.595-8.461-1.058-15.694 16.802-40.797 20.857-51.478 5.79-15.25 19.921-12.075 20.064-12.039l.351.083-16.647 62.648 37.842 18.865c.655.554 1.124 1.291 1.345 2.113.222.823.185 1.693-.105 2.494l-3.1 8.673c-.222.632-.593 1.201-1.084 1.662-.49.46-1.085.798-1.735.985-.4.118-.816.179-1.233.179z" fill="#ccc"/><path d="m494.408 535h-83.816c-1.748-.002-3.423-.693-4.659-1.922s-1.931-2.896-1.933-4.634v-45.888c.002-1.738.697-3.405 1.933-4.634s2.911-1.92 4.659-1.922h83.816c1.748.002 3.423.693 4.659 1.922s1.931 2.896 1.933 4.634v45.888c-.002 1.738-.697 3.405-1.933 4.634s-2.911 1.92-4.659 1.922z" fill="#273470"/><path d="m452.5 512c3.038 0 5.5-2.686 5.5-6s-2.462-6-5.5-6-5.5 2.686-5.5 6 2.462 6 5.5 6z" fill="#fff"/><path d="m430.412 392c-1.383-3.414.887-7.483 4.255-9.137 3.369-1.653 7.433-1.339 11.036-.249 3.028.916 5.866 2.336 8.82 3.457 2.912 1.255 6.093 1.806 9.272 1.606 3.151-.346 6.287-2.065 7.576-4.882 1.336-2.921.427-6.485-1.631-8.978-2.189-2.409-5.024-4.181-8.187-5.118-6.947-2.38-14.972-2.45-21.421 1.011-6.45 3.46-10.833 10.828-9.5 17.873" fill="#2f2e41"/><path d="m297.339 525.335c1.11-12.436 4.175-24.598 9.073-36 1.365-3.173 2.868-6.276 4.508-9.31.082-.158.102-.344.055-.518-.047-.173-.156-.321-.306-.412s-.327-.118-.496-.075c-.168.043-.314.152-.406.304-5.964 11.048-10.142 23.041-12.368 35.5-.619 3.479-1.084 6.982-1.396 10.511-.079.89 1.257.884 1.336 0z" fill="#e6e6e6"/><path d="m315 482c4.971 0 9-3.806 9-8.5s-4.029-8.5-9-8.5-9 3.806-9 8.5 4.029 8.5 9 8.5z" fill="#6c63ff"/><path d="m297.892 525.561c.74-8.202 2.784-16.224 6.049-23.744.911-2.093 1.912-4.14 3.006-6.141.054-.104.068-.227.036-.341-.031-.115-.104-.212-.204-.272-.099-.06-.218-.078-.33-.05s-.209.1-.271.201c-3.976 7.287-6.762 15.197-8.245 23.414-.413 2.295-.723 4.606-.931 6.933-.053.587.838.583.89 0z" fill="#e6e6e6"/><path d="m309 498c3.314 0 6-2.686 6-6s-2.686-6-6-6-6 2.686-6 6 2.686 6 6 6z" fill="#6c63ff"/><path d="m296.922 525.231c-4.437-7.065-7.706-14.826-9.678-22.972-.547-2.268-.992-4.558-1.335-6.87-.02-.119-.084-.226-.18-.298-.095-.072-.215-.103-.332-.087-.118.016-.225.078-.298.173-.074.095-.109.216-.097.336 1.253 8.417 3.853 16.567 7.696 24.123 1.074 2.11 2.242 4.166 3.502 6.169.318.505 1.037-.072.722-.574z" fill="#e6e6e6"/><path d="m285 497c3.314 0 6-2.462 6-5.5s-2.686-5.5-6-5.5-6 2.462-6 5.5 2.686 5.5 6 5.5z" fill="#6c63ff"/><path d="m279 530.5v-12c.001-1.193.45-2.337 1.248-3.18.798-.844 1.88-1.319 3.009-1.32h26.486c1.129.001 2.211.476 3.009 1.32.798.843 1.247 1.987 1.248 3.18v12c-.001 1.193-.45 2.337-1.248 3.18-.798.844-1.88 1.319-3.009 1.32h-26.486c-1.129-.001-2.211-.476-3.009-1.32-.798-.843-1.247-1.987-1.248-3.18z" fill="#f2f2f2"/><path d="m562 542.929c0 6.236-4.925 9.071-11 9.071s-11-2.835-11-9.071 2.444-13.513 11-11.004c8.556-3.764 11 4.768 11 11.004z" fill="#ff6584"/><path d="m551.186 535c-.439.001-.863-.154-1.193-.436-.329-.283-.542-.672-.599-1.096-.373-3.03-2.432-8.965-3.3-11.375v-.001c-.088-.24-.115-.497-.078-.749.036-.251.135-.491.287-.698.145-.184.329-.337.54-.448.21-.11.442-.176.68-.193.239-.016.478.016.702.096.225.08.429.205.601.368.152.156.271.341.347.544s.109.419.096.634c-.17 3.094 2.144 8.094 3.538 10.799.132.255.198.538.193.823s-.082.565-.222.816c-.141.25-.342.464-.586.621-.244.158-.524.256-.815.285-.064.007-.127.01-.191.01z" fill="#3f3d56"/><path d="m559.231 528.453c3.888-3.127.837-9.527-4.03-8.298-.654.153-1.258.47-1.753.919-2.985 2.77-3.448 9.86-3.448 9.86s5.272.702 9.231-2.481z" fill="#3f3d56"/></svg>