<svg fill="none" height="65" viewBox="0 0 189 65" width="189" xmlns="http://www.w3.org/2000/svg" xmlns:xlink="http://www.w3.org/1999/xlink"><linearGradient id="a"><stop offset="0" stop-color="#6258a6"/><stop offset=".421875" stop-color="#fff"/></linearGradient><linearGradient id="b" gradientUnits="userSpaceOnUse" x1="-49.6016" x2="46.7544" xlink:href="#a" y1="75.4001" y2="-149.915"/><linearGradient id="c" gradientUnits="userSpaceOnUse" x1="25.823" x2="68.2967" xlink:href="#a" y1="43.6838" y2="2.36937"/><linearGradient id="d" gradientUnits="userSpaceOnUse" x1="5.56127" x2="48.0306" xlink:href="#a" y1="49.521" y2="8.20655"/><linearGradient id="e" gradientUnits="userSpaceOnUse" x1="17.8159" x2="52.0788" xlink:href="#a" y1="48.596" y2="15.4421"/><linearGradient id="f" gradientUnits="userSpaceOnUse" x1="48.2612" x2="82.524" xlink:href="#a" y1="68.344" y2="35.1902"/><linearGradient id="g" gradientUnits="userSpaceOnUse" x1="38.0776" x2="71.88" xlink:href="#a" y1="56.3964" y2="23.2306"/><linearGradient id="h" gradientUnits="userSpaceOnUse" x1="9.85882" x2="44.1218" xlink:href="#a" y1="65.0531" y2="31.8991"/><linearGradient id="i" gradientUnits="userSpaceOnUse" x1="-4.56686" x2="29.2261" xlink:href="#a" y1="60.1081" y2="26.9421"/><linearGradient id="j" gradientUnits="userSpaceOnUse" x1="33.1799" x2="86.755" xlink:href="#a" y1="42.0036" y2="-10.1637"/><linearGradient id="k" gradientUnits="userSpaceOnUse" x1="23.1814" x2="76.273" xlink:href="#a" y1="30.0508" y2="-21.6027"/><linearGradient id="l" gradientUnits="userSpaceOnUse" x1="-7.26215" x2="45.8288" xlink:href="#a" y1="47.6758" y2="-3.96714"/><linearGradient id="m" gradientUnits="userSpaceOnUse" x1="2.72727" x2="56.3028" xlink:href="#a" y1="42.0036" y2="-10.1848"/><linearGradient id="n" gradientUnits="userSpaceOnUse" x1="15.7449" x2="58.2186" xlink:href="#a" y1="37.8439" y2="-3.47039"/><linearGradient id="o" gradientUnits="userSpaceOnUse" x1="5.56127" x2="48.035" xlink:href="#a" y1="43.6838" y2="2.36937"/><linearGradient id="p" gradientUnits="userSpaceOnUse" x1="36.0066" x2="78.48" xlink:href="#a" y1="43.6838" y2="2.36934"/><linearGradient id="q" gradientUnits="userSpaceOnUse" x1="-4.71083" x2="37.7746" xlink:href="#a" y1="49.5236" y2="7.65435"/><linearGradient id="r" gradientUnits="userSpaceOnUse" x1="36.0105" x2="78.484" xlink:href="#a" y1="49.5236" y2="8.20928"/><linearGradient id="s" gradientUnits="userSpaceOnUse" x1="45.989" x2="88.475" xlink:href="#a" y1="55.3634" y2="13.4734"/><linearGradient id="t" gradientUnits="userSpaceOnUse" x1="25.823" x2="68.2923" xlink:href="#a" y1="37.8413" y2="-3.47312"/><linearGradient id="u" gradientUnits="userSpaceOnUse" x1="-4.71083" x2="37.7746" xlink:href="#a" y1="55.3634" y2="13.4942"/><linearGradient id="v" gradientUnits="userSpaceOnUse" x1="45.989" x2="88.475" xlink:href="#a" y1="49.5236" y2="7.63357"/><linearGradient id="w" gradientUnits="userSpaceOnUse" x1="15.7449" x2="58.2186" xlink:href="#a" y1="43.6838" y2="2.3694"/><linearGradient id="x" gradientUnits="userSpaceOnUse" x1="-2.44577" x2="31.8171" xlink:href="#a" y1="68.344" y2="35.1902"/><linearGradient id="y" gradientUnits="userSpaceOnUse" x1="48.2612" x2="82.054" xlink:href="#a" y1="60.1081" y2="26.9421"/><linearGradient id="z" gradientUnits="userSpaceOnUse" x1="38.0776" x2="72.341" xlink:href="#a" y1="62.93" y2="29.7761"/><linearGradient id="A" gradientUnits="userSpaceOnUse" x1="27.9995" x2="61.7925" xlink:href="#a" y1="67.0085" y2="33.8425"/><linearGradient id="B" gradientUnits="userSpaceOnUse" x1="17.8158" x2="51.6177" xlink:href="#a" y1="56.3964" y2="23.2306"/><linearGradient id="C" gradientUnits="userSpaceOnUse" x1="7.73692" x2="41.539" xlink:href="#a" y1="56.3964" y2="23.2254"/><linearGradient id="D" gradientUnits="userSpaceOnUse" x1="27.9995" x2="61.7926" xlink:href="#a" y1="46.5163" y2="13.3503"/><linearGradient id="E" gradientUnits="userSpaceOnUse" x1="12.9109" x2="66.0144" xlink:href="#a" y1="30.0508" y2="-22.1477"/><linearGradient id="F" gradientUnits="userSpaceOnUse" x1="2.72727" x2="56.3028" xlink:href="#a" y1="36.1637" y2="-16.0246"/><linearGradient id="G" gradientUnits="userSpaceOnUse" x1="33.1766" x2="86.752" xlink:href="#a" y1="36.1637" y2="-16.0246"/><linearGradient id="H" gradientUnits="userSpaceOnUse" x1="23.1814" x2="76.74" xlink:href="#a" y1="36.1637" y2="-15.4749"/><linearGradient id="I" gradientUnits="userSpaceOnUse" x1="-7.26306" x2="46.295" xlink:href="#a" y1="42.0036" y2="-9.62973"/><linearGradient id="J" gradientUnits="userSpaceOnUse" x1="43.4448" x2="96.536" xlink:href="#a" y1="47.6758" y2="-3.96716"/><linearGradient id="K" gradientUnits="userSpaceOnUse" x1="43.4448" x2="97.003" xlink:href="#a" y1="42.0036" y2="-9.62442"/><linearGradient id="L" gradientUnits="userSpaceOnUse" x1="12.9109" x2="66.4864" xlink:href="#a" y1="36.1637" y2="-16.0246"/><path d="m51.8582 11.6793-10.1834-5.83965-10.0773-5.83965-10.1834 5.83965-10.1834 5.83965-10.07836 5.9458v11.6793l10.07736-5.8397 10.1834-5.8396 10.1844-5.9458 10.0773 5.9458 10.1834 5.8396 10.0774 5.8397v-11.6793z" fill="url(#b)"/><path d="m40.6166 19.6426v9.3436l-8.0619-4.6713z" fill="url(#c)"/><path d="m12.293 25.4824 8.0619 4.6713-8.0619 4.6714z" fill="url(#d)"/><path d="m29.6893 29.1992v7.5386l-6.4705-3.7162z" fill="url(#e)"/><path d="m60.1346 48.9473v7.5386l-6.4705-3.8224z" fill="url(#f)"/><path d="m43.4805 37.2676 6.4705 3.7162-6.4705 3.7182z" fill="url(#g)"/><path d="m15.2617 45.6562 6.4705 3.7164-6.4705 3.8223z" fill="url(#h)"/><path d="m7.30654 40.9844v7.4324l-6.470602-3.7162z" fill="url(#i)"/><path d="m51.8591 11.6797v11.7854l-10.1794-5.8396z" fill="url(#j)"/><path d="m31.5977 0 10.0793 5.83965-10.0793 5.83965z" fill="url(#k)"/><path d="m1.15234 17.625 10.07736 5.8396-10.07736 5.8397z" fill="url(#l)"/><path d="m11.2305 11.6797 10.1834 5.9458-10.1834 5.8396z" fill="url(#m)"/><path d="m30.5384 13.8027v9.3437l-8.0618-4.6713z" fill="url(#n)"/><path d="m20.3549 19.6426v9.3436l-8.0619-4.6713z" fill="url(#o)"/><path d="m42.7383 19.6426 8.0619 4.6713-8.0619 4.6723z" fill="url(#p)"/><path d="m10.2773 25.4824v9.3437l-8.16792-4.6714z" fill="url(#q)"/><path d="m50.8041 25.4824v9.3437l-8.0619-4.6714z" fill="url(#r)"/><path d="m60.9844 31.3223v9.3436l-8.1719-4.6713z" fill="url(#s)"/><path d="m32.5547 13.8027 8.0619 4.6714-8.0619 4.6713z" fill="url(#t)"/><path d="m2.10938 31.3223 8.16792 4.6713-8.16792 4.6723z" fill="url(#u)"/><path d="m52.8125 25.4824 8.1719 4.6723-8.1719 4.6714z" fill="url(#v)"/><path d="m22.4766 19.6426 8.0618 4.6713-8.0618 4.6723z" fill="url(#w)"/><path d="m2.95703 48.9473 6.4705 3.7162-6.4705 3.8224z" fill="url(#x)"/><path d="m53.6641 40.9844 6.4705 3.7162-6.4705 3.7162z" fill="url(#y)"/><path d="m49.951 43.5332v7.5386l-6.4705-3.8224z" fill="url(#z)"/><path d="m39.8729 47.8848v7.4324l-6.4706-3.7172z" fill="url(#A)"/><path d="m23.2188 37.2676 6.4705 3.7162-6.4705 3.7182z" fill="url(#B)"/><path d="m19.6121 37.2676v7.4344l-6.4715-3.7182z" fill="url(#C)"/><path d="m33.4023 27.3926 6.4706 3.7162-6.4706 3.7162z" fill="url(#D)"/><path d="m31.5974 0v11.6793l-10.1833-5.83965z" fill="url(#E)"/><path d="m21.4139 5.83984v11.78546l-10.1834-5.9458z" fill="url(#F)"/><path d="m41.6797 5.83984 10.1834 5.83966-10.1834 5.9458z" fill="url(#G)"/><path d="m41.677 5.83984v11.78546l-10.0793-5.9458z" fill="url(#H)"/><path d="m11.2307 11.6797v11.7854l-10.07836-5.8396z" fill="url(#I)"/><path d="m61.9367 17.625v11.6793l-10.0773-5.8397z" fill="url(#J)"/><path d="m51.8594 11.6797v11.7854l10.0773-5.8396z" fill="url(#K)"/><path d="m21.4141 5.83984 10.1833 5.83966-10.1833 5.9458z" fill="url(#L)"/><g fill="#fff"><path d="m75.8344 37.797h.636c.212 0 .318-.1061.53-.1061.004.1968.08.3854.212.5306l.318.3184c.106.1061.318.1061.424.2122h1.801c.357.0175.715-.0183 1.061-.1061.274-.0859.503-.2766.636-.5306.082.1903.189.3687.318.5306.226.1329.481.206.743.2123h.954c.357.0174.714-.0184 1.061-.1062.274-.0858.502-.2766.636-.5306.082.1903.189.3687.318.5306.225.133.481.206.742.2123h7.532v-1.9092c.001-.6892-.223-1.3599-.636-1.9112-.214-.2313-.48-.4093-.775-.5198-.295-.1106-.612-.1506-.925-.1169-.637.0133-1.259.1964-1.801.5306-.505.3789-.936.8468-1.273 1.3806v-5.6294h-.848v7.0079h-1.269c-.212 0-.318 0-.424-.1061-.106 0-.212-.1061-.318-.2122s-.106-.2123-.106-.4245v-2.653h-.848v2.5479c.016.1496-.022.2999-.106.4245-.004.055-.027.1069-.066.1459s-.091.0626-.146.0663c-.042.0402-.092.0707-.147.089-.055.0184-.114.0242-.171.0171h-1.38c-.213 0-.319 0-.425-.1061-.106 0-.212-.1061-.318-.2122-.106-.1062-.106-.2123-.106-.4245v-2.656h-.959v2.5479c.016.1495-.022.2998-.106.4244-.004.0551-.027.1069-.066.1459-.039.0391-.091.0626-.146.0664-.042.0402-.092.0706-.147.089-.055.0183-.113.0242-.171.0171h-1.481c-.116.0143-.232.0026-.342-.0341-.111-.0367-.211-.0976-.295-.1781-.067-.0899-.112-.1946-.13-.3055-.019-.1108-.01-.2244.024-.3313v-3.1836h-1.7c-.287-.0171-.574.0188-.848.1061-.255.0866-.504.1931-.742.3184-.207.1849-.386.3995-.53.6367-.14.2992-.213.6254-.213.9556s.073.6564.213.9556c.119.2259.304.4107.53.5306l.636.3184c.176.1908.395.3364.639.4244zm12.942-.8489c.212-.3184.424-.5306.636-.849.263-.2373.547-.4505.848-.6367.288-.1702.622-.2445.955-.2123.252-.0171.505.0191.742.1062.201.1078.381.2516.53.4244.106.2123.212.3184.212.5306.095.2355.131.4903.106.7429v.7428h-4.454c.076-.311.222-.6008.425-.8479zm-14.003-1.0622c-.009-.3137.105-.6185.318-.849.107-.1113.244-.1903.393-.2278.15-.0375.308-.0321.455.0156h.954v1.9111c-.163.0857-.347.1226-.53.1062h-.53c-.343-.008-.675-.119-.954-.3184-.068-.0899-.112-.1946-.131-.3054-.018-.1108-.01-.2245.025-.3313z"/><path d="m95.3541 38.2225c.212.1061.424.3184.636.3184.274.0873.562.1233.848.1061h1.274c-.021.2592-.093.5117-.212.7429-.126.1958-.312.345-.53.4244-.231.1192-.484.1913-.743.2123h-1.273v.9551h.424c.427.0175.855-.0182 1.273-.1062l.955-.3183c.292-.1649.518-.428.636-.7429.201-.318.311-.6856.318-1.0622h3.3949v-7.963h-.849v7.0079h-2.5449v-.5306c.017-.3924-.018-.7854-.106-1.1683l-.318-.9551c-.185-.2073-.399-.3861-.636-.5306-.299-.1398-.625-.2123-.955-.2123s-.656.0725-.955.2123c-.256.1163-.476.2996-.636.5306-.18.2231-.324.474-.424.7429-.087.274-.123.5618-.106.8489-.045.3.032.6053.212.849-.016.1259.005.2538.062.3675.056.1137.145.2081.255.2712zm.318-2.1234c.002-.0821.022-.1628.058-.2362.037-.0735.089-.1378.154-.1883.121-.131.265-.2389.424-.3183.163-.0857.347-.1226.53-.1062.195-.0239.392.0146.564.1099.171.0953.308.2427.391.4207.204.394.313.8306.318 1.2745v.7418h-1.168c-.327-.0198-.649-.0914-.954-.2122-.213-.2305-.327-.5353-.318-.849v-.6407z"/><path d="m104.793 30.791h-.848v7.857h.848z"/><path d="m109.142 38.3302c.239.1253.487.2317.742.3183.347.0878.704.1236 1.062.1061h6.682v-4.2468h-.954v3.2918h-6.153c-.212 0-.318-.1062-.53-.1062l-.318-.3183c-.085-.163-.122-.3472-.106-.5306v-1.3826h-.848v1.7019c-.017.2524.019.5055.106.7429.105.1041.211.3173.317.4235z"/><path d="m119.646 38.3296c.145.1328.334.2083.53.2123.212 0 .424.1061.636.1061h2.866v-4.2468h-.848v3.2957h-1.91c-.231.0139-.459-.0621-.636-.2122-.086-.2005-.123-.419-.106-.6367v-6.0589h-.955v6.3702c-.017.2523.019.5054.106.7429.079.1606.186.3055.317.4274z"/><path d="m125.581 38.3296c.145.1328.334.2083.53.2123.2.0865.419.1229.636.1061h1.168c.357.0174.714-.0183 1.061-.1061.274-.0859.502-.2766.636-.5306.082.1903.189.3687.318.5306.225.1329.481.206.742.2122h.954c.357.0175.715-.0183 1.062-.1061.273-.0858.502-.2766.636-.5306.082.1903.189.3688.318.5306.225.1329.481.206.742.2123h2.652v-8.0712h-.849v7.0079h-1.8c-.212 0-.318 0-.424-.1061-.106 0-.212-.1061-.318-.2122s-.106-.2123-.106-.4245v-2.653h-1.166v2.5479c.015.1496-.022.2999-.106.4245-.004.055-.028.1069-.067.1459s-.09.0626-.145.0663c-.042.0402-.093.0707-.148.089-.055.0184-.113.0242-.171.0171h-1.167c-.212 0-.318 0-.424-.1061-.106 0-.212-.1061-.318-.2122-.106-.1062-.106-.2123-.106-.4245v-2.656h-.954v2.5479c.016.1495-.022.2999-.106.4244-.004.0551-.028.1069-.067.1459-.039.0391-.09.0626-.145.0664-.042.0402-.092.0706-.147.089-.055.0183-.114.0242-.171.0171h-1.38c-.231.0139-.459-.0621-.636-.2122-.086-.2005-.123-.4191-.106-.6368v-5.9457h-.954v6.3702c-.017.2523.019.5054.106.7429z"/><path d="m139.376 30.791h-.954v7.857h.954z"/><path d="m147.222 35.78c-.076-.2796-.222-.5352-.424-.7428-.184-.2074-.399-.3862-.636-.5307-.261-.1402-.553-.2135-.85-.2135-.296 0-.588.0733-.85.2135-.284.125-.511.3522-.636.6368-.203.2475-.348.5377-.424.8489-.087.2741-.123.5619-.106.849-.024.2873.012.5765.106.849.104.2352.247.4506.424.6367.08.0928.177.1687.286.2234s.228.087.35.095c.274.0873.562.1232.848.1061.333.0322.667-.0421.954-.2123.238-.0981.455-.2425.637-.4248s.326-.3989.424-.6374c.095-.2354.131-.4903.106-.7428-.019-.3271-.089-.6491-.209-.9541zm-.742 1.4867-.318.3184c-.106.1061-.212.1061-.424.2122h-.424c-.183.0164-.367-.0204-.53-.1061-.159-.0263-.307-.1003-.424-.2123-.106-.1061-.212-.2122-.212-.3183-.085-.163-.122-.3472-.106-.5306-.027-.1839.011-.3714.106-.5306.106-.2123.106-.3184.212-.5306.121-.1311.265-.239.424-.3184.159-.0959.347-.1334.53-.1061.212 0 .318 0 .424.1061s.318.2122.424.3184c.13.1618.236.3403.318.5306.087.2005.123.419.106.6367-.025.1788-.06.356-.106.5306z"/><path d="m149.453 37.9044v.9551c-.022.2254-.095.4431-.212.6367-.106.2122-.212.3183-.424.3183-.274.0873-.561.1233-.848.1062v.9561c.401.0429.806-.0307 1.167-.2123.306-.0749.572-.2649.742-.5306.212-.2305.327-.5352.318-.849.088-.4546.123-.9178.106-1.3805v-2.8673h-.954z"/><path d="m152.845 30.791h-.954v7.857h.954z"/><path d="m157.621 38.3292c.213-.2306.327-.5353.318-.849.017-.1834-.02-.3676-.106-.5306l-.318-.6367c-.162-.2919-.339-.5752-.53-.849-.293-.3963-.542-.8237-.742-1.2744l-.848.5306.848 1.2744.53.7429c.065.0505.117.1148.154.1882s.057.1541.058.2362v.2123c0 .1061 0 .2122-.106.2122-.124.0843-.274.1218-.424.1061h-2.545v.9551h2.651c.189.0481.387.0438.574-.0123.187-.056.355-.1618.486-.306z"/><path d="m160.698 40.8773h-.636c-.212 0-.318 0-.424-.1061-.106-.1062-.106-.2123-.106-.4245-.007-.0576-.001-.1161.017-.1712.019-.0551.049-.1053.089-.1472.106-.1061.212-.2122.424-.1061.212 0 .318 0 .424.1061v-.5306c-.106 0-.106-.1061-.212-.1061h-.318c-.057-.0071-.116-.0012-.171.0171-.055.0184-.105.0488-.147.089-.226.1199-.41.3047-.53.5306-.084.1246-.122.2749-.106.4245-.027.1838.01.3714.106.5306h-.53v.4245h2.015z"/><path d="m160.27 30.791h-.954v7.857h.954z"/><path d="m188.385 35.1431c-.186-.1773-.401-.3209-.636-.4245-.231-.1191-.483-.1913-.742-.2123-.218-.0167-.436.0197-.636.1062l-.637.3183c-.207.1849-.385.3995-.53.6367-.239.3577-.418.7525-.53 1.1684-.106.2122-.106.3183-.212.5306l-.318.3183c-.042.0403-.094.0705-.149.0883-.056.0179-.115.023-.173.0149h-1.167c-.106 0-.212-.1062-.318-.2123-.131-.1209-.239-.2648-.318-.4245-.118-.1936-.19-.4112-.213-.6367-.218-.5221-.543-.9924-.955-1.3806-.504-.5206-1.119-.9201-1.8-1.1683l3.289-1.4867v-.9551l-4.137 1.8021c-.015-.0009-.029.0012-.042.0063-.013.005-.025.0128-.035.0228s-.018.0221-.023.0354c-.005.0132-.007.0274-.006.0416 0 .1061-.106.1061-.106.2122-.012.0805-.049.1551-.106.2123v.3274l1.273.6367c.393.1852.752.4364 1.061.7428.212.2123.53.4245.636.7429.118.1936.19.4112.212.6367-.004.1968-.079.3853-.212.5306-.263.1325-.553.205-.848.2122h-2.44c-.212 0-.318 0-.424-.1061-.106 0-.212-.1061-.318-.2122s-.106-.2123-.106-.4245v-2.659h-.954v2.5479c.016.1495-.022.2999-.106.4245-.004.055-.027.1068-.066.1459-.039.039-.091.0625-.146.0663-.042.0402-.092.0706-.147.089s-.114.0242-.171.0171h-1.061c-.212 0-.318 0-.424-.1061-.106 0-.212-.1061-.319-.2122-.106-.1062-.106-.2123-.106-.4245v-2.648h-.955v2.5479c.016.1495-.022.2999-.106.4244-.004.0551-.027.1069-.066.146-.039.039-.091.0625-.146.0663-.106.1061-.212.1061-.424.1061h-5.516c-.212 0-.318-.1061-.53-.1061l-.318-.3184c-.086-.163-.123-.3472-.106-.5306v-1.3826h-.849v1.702c-.017.2523.019.5054.106.7428.108.2014.252.3813.424.5306l.637.3184c.346.0878.704.1235 1.061.1061h5.301c.218.0168.436-.0196.636-.1061.16-.0262.308-.1002.424-.2123.106-.1061.212-.2122.212-.3183.082.1903.189.3687.318.5306.194.1176.411.1902.637.2122h.742c.357.0175.715-.0183 1.061-.1061.274-.0858.502-.2766.636-.5306.082.1903.189.3687.318.5306.226.1329.481.206.742.2123h2.228c.401.0429.807-.0307 1.167-.2123.178-.0476.341-.1413.471-.2717.13-.1305.224-.2929.271-.4711.08.1597.188.3035.318.4244.107.1062.213.2123.319.2123.106.1061.212.1061.424.1061h1.273c.058.0071.116.0013.171-.0171s.105-.0488.147-.089c.106 0 .212-.1061.318-.2123l.318-.3183c.339.2355.694.4482 1.061.6367.342.1215.7.193 1.062.2123.51.0041 1.003-.1855 1.379-.5307.171-.2042.297-.4421.37-.6982s.091-.5247.054-.7884c.024-.2873-.012-.5765-.106-.849-.008-.1225-.04-.2422-.094-.3521-.055-.1099-.131-.2077-.224-.2876zm-.636 2.4417c-.086.1094-.203.1888-.337.2269-.133.0382-.275.033-.405-.0146-.293-.0204-.58-.0922-.849-.2123-.302-.0982-.588-.2413-.848-.4244.14-.5105.394-.9826.742-1.3806.22-.2426.523-.3941.849-.4245.212 0 .318 0 .424.1061l.318.3184c.106.1061.106.2122.212.4245.046.1746.081.3518.106.5306.048.1472.053.3048.015.4549-.037.1501-.116.2866-.227.394z"/><path d="m77.4227 31.2168h-.9539v1.0622l.9539-.5306z"/><path d="m76.0448 31.2168h-.955v1.0622l.954-.5306z"/><path d="m114.34 32.7012h-.848v1.0652l.848-.5306z"/><path d="m112.961 32.7012h-.848v1.0652l.848-.5306z"/><path d="m82.1996 39.8145h-.848v1.0622l.848-.5306z"/><path d="m80.8207 39.8145h-.848v1.0622l.848-.5306z"/><path d="m130.36 39.8145h-.954v1.0622l.954-.5306z"/><path d="m128.978 39.8145h-.955v1.0622l.955-.5306z"/><path d="m146.376 31.959h-.954v1.1683l.954-.5306z"/><path d="m144.997 31.959h-.954v1.1683l.954-.5306z"/><path d="m177.243 31.959h-.954v1.1683l.954-.5306z"/><path d="m175.864 31.959h-.954v1.1683l.954-.5306z"/><path d="m168.973 39.8145h-.848v1.0622l.848-.5306z"/><path d="m133.114 39.7109h-.954v1.1714l.954-.5306z"/><path d="m123.571 31.959h-.848v1.1683l.848-.5306z"/><path d="m85.2763 32.0645h-.956v1.0622l.954-.5306z"/><path d="m75.5161 45.762h.106l3.925 6.0539h1.061v-7.5386h-.954v6.1581l-3.925-6.1581h-1.065v7.5386h.848z"/><path d="m84.7447 51.7069c.345-.113.643-.3368.848-.6367.022.2255.095.4431.212.6367.145.1328.334.2083.53.2123.218.0168.436-.0197.636-.1061v-.7429h-.318c-.106 0-.212 0-.212-.1061v-3.1866c.022-.1318.015-.2669-.022-.3954-.037-.1284-.102-.2471-.19-.3475-.125-.1959-.311-.345-.53-.4245-.193-.1176-.411-.1902-.636-.2122h-.742c-.287-.0242-.576.012-.848.1061-.212.1061-.53.2123-.743.3184-.225.1198-.41.3047-.53.5306-.12.2683-.191.5557-.212.849h.849c-.009-.1661.026-.3315.1-.4803.075-.1487.186-.2757.324-.3687.304-.1208.627-.1924.954-.2123h.424c.106 0 .318.1062.424.1062l.318.3183c.096.1592.133.3468.106.5306.016.1496-.022.2999-.106.4245-.05.0648-.115.1174-.188.1541s-.154.0566-.236.0582c-.212 0-.424.1061-.636.1061s-.424.1061-.742.1061c-.226.022-.443.0946-.636.2122-.213.1062-.425.1062-.637.3184-.195.1255-.344.312-.424.5306-.105.2337-.159.4871-.159.7434s.054.5096.159.7433c.108.2014.252.3813.424.5306.194.1177.411.1902.637.2122.235.0948.489.1312.742.1062.424-.4225.742-.4225 1.06-.6348zm-1.591-.7428c-.102-.0719-.183-.1676-.239-.2786-.055-.111-.083-.234-.079-.3581-.016-.1496.021-.2999.106-.4245.106-.1061.106-.2123.212-.3184s.212-.1061.318-.2122l.424-.1061c.106 0 .318-.1062.424-.1062l.424-.1061.424-.1061c.106 0 .212-.1061.318-.1061v1.0622c.016.1496-.022.2999-.106.4245-.106.1061-.212.3183-.318.4245-.162.1293-.34.2363-.53.3183-.237.087-.49.1231-.742.1061h-.427c0-.1081-.1-.1081-.209-.2142z"/><path d="m90.1531 51.8133v-.8489h-.741c-.106 0-.106 0-.212-.1062l-.106-.1061v-3.6141h1.061v-.849h-1.063v-1.5898h-.848v1.5928h-.955v.846h.955v3.504c-.017.2177.02.4362.106.6367 0 .1061.106.3184.212.3184.106.1061.212.1061.424.2122h1.167z"/><path d="m92.0629 46.293h-.8481v5.5213h.8481z"/><path d="m97.051 51.7071c.345-.113.643-.3368.848-.6367.238-.2802.418-.6048.53-.9551.132-.376.203-.7702.212-1.1683.034-.4013-.039-.8044-.212-1.1683-.135-.3396-.313-.6606-.53-.9551-.263-.2374-.547-.4505-.848-.6368-.376-.1312-.769-.2028-1.167-.2122-.397.019-.789.0904-1.167.2122-.346.1131-.644.3369-.849.6368-.216.2945-.394.6155-.53.9551-.133.3757-.206.7699-.217 1.1683-.033.4013.04.8044.212 1.1683.136.3396.314.6606.53.9551.263.2374.547.4505.849.6367.375.1313.769.2029 1.167.2123.403.0439.81-.0298 1.172-.2123zm-2.329-1.0612c-.093-.0796-.169-.1769-.224-.2862-.054-.1094-.087-.2285-.095-.3505-.081-.2753-.117-.5621-.106-.849-.024-.2873.012-.5764.106-.8489l.319-.6368c.125-.1958.311-.345.53-.4244.412-.1417.86-.1417 1.273 0 .218.0794.405.2286.53.4244.093.0796.169.177.223.2863.055.1093.087.2285.095.3505.087.274.123.5618.106.8489.024.2873-.012.5765-.106.849l-.318.6367c-.125.1959-.312.3451-.53.4245-.2.0865-.419.1229-.636.1061-.444-.0176-.862-.208-1.167-.5306z"/><path d="m101.399 47.1414c.235-.0947.49-.1311.742-.1061.142-.0089.284.0124.416.0626.133.0502.254.1282.354.2287.101.1004.179.2212.229.3541s.071.275.062.4168v3.7163h.848v-3.6102c.018-.2871-.018-.5749-.106-.8489l-.318-.6367c-.072-.1101-.165-.2044-.274-.2774-.11-.0729-.233-.123-.362-.1471-.277-.0833-.565-.1206-.854-.1102-.362.0193-.72.0908-1.061.2123-.298.1917-.551.445-.742.7428v-.8489h-.8486v5.5213h1.0616v-3.0765c-.017-.2178.019-.4363.106-.6368.082-.1903.188-.3687.318-.5306.11-.2132.323-.3193.429-.4255z"/><path d="m108.19 51.7069c.345-.113.643-.3368.848-.6367-.014.1152-.003.2322.034.3424.037.1101.097.2107.178.2943.145.1328.333.2083.53.2123.218.0167.436-.0197.636-.1061v-.7429h-.318c-.106 0-.212 0-.212-.1061v-3.1866c.022-.1319.014-.2669-.022-.3954-.037-.1284-.102-.2472-.19-.3475-.106-.2122-.318-.3184-.424-.4245-.193-.1176-.411-.1902-.636-.2122h-.742c-.287-.0241-.576.012-.849.1061-.212.1061-.53.2122-.742.3184-.225.1198-.41.3047-.53.5306-.12.2683-.192.5557-.212.8489h.848c-.008-.166.027-.3315.101-.4802.074-.1488.186-.2758.323-.3687.305-.1208.627-.1925.955-.2123h.424c.106 0 .318.1062.424.1062l.318.3183c.096.1592.133.3468.106.5306.016.1496-.022.2999-.106.4245-.051.0647-.115.1174-.188.1541-.074.0367-.154.0566-.236.0581-.212 0-.318.1062-.636.1062-.212 0-.424.1061-.743.1061-.225.022-.442.0946-.636.2122-.212.1061-.424.1061-.636.3184-.196.1255-.345.3119-.424.5306-.105.2337-.16.487-.16.7433s.055.5097.16.7434c.108.2014.252.3812.424.5306.194.1176.411.1902.636.2122.236.0948.49.1312.742.1062.213-.4225.531-.4225.955-.6348zm-1.701-.7428c-.106-.1061-.212-.1061-.212-.2123-.106-.1061-.106-.2122-.106-.4244-.015-.1496.022-.2999.106-.4245.106-.1061.106-.2123.212-.3184s.212-.1061.318-.2122l.424-.1061c.107 0 .319-.1062.425-.1062l.424-.1061.424-.1061c.106 0 .212-.1061.318-.1061v1.0622c.016.1496-.022.2999-.106.4245-.106.1061-.212.3183-.318.4244-.162.1294-.34.2364-.53.3184-.238.0871-.49.1233-.743.1061h-.424c.003-.1081-.103-.1081-.209-.2142z"/><path d="m112.114 44.2754h-.848v7.6447h.848z"/><path d="m122.085 50.7515c.335-.3514.557-.7954.636-1.2744.123-.5596.194-1.1293.212-1.702.054-.502-.003-1.0098-.168-1.487s-.433-.9119-.786-1.2731c-.36-.3159-.781-.5543-1.238-.7004-.456-.146-.937-.1966-1.414-.1486h-2.651v7.5386h2.651c.537-.0184 1.07-.0895 1.592-.2122.464-.1019.877-.3642 1.166-.7409zm-.318-1.5928c-.106.3184-.212.5306-.318.849-.12.2259-.305.4107-.53.5306-.212.1061-.318.2122-.53.3183-.163.0857-.347.1226-.53.1061h-2.122v-5.8386h1.7c.398.0094.792.081 1.168.2122.286.114.541.2961.742.5307.203.2475.348.5377.424.8489.088.4188.124.8469.106 1.2745.021.3928-.017.7865-.111 1.1683z"/><path d="m128.237 51.9192c.218.0168.436-.0197.636-.1061v-.7429h-.318c-.106 0-.212 0-.212-.1061v-3.1866c.022-.1318.014-.2669-.022-.3954-.037-.1284-.102-.2471-.19-.3475-.106-.2122-.318-.3183-.424-.4245-.193-.1176-.411-.1902-.636-.2122h-.742c-.287-.0242-.576.012-.849.1061-.212.1061-.53.2123-.742.3184-.225.1198-.41.3047-.53.5306-.12.2683-.192.5557-.212.849h.848c-.008-.1661.027-.3315.101-.4803.074-.1487.186-.2757.323-.3687.305-.1208.627-.1924.955-.2123h.424c.106 0 .318.1062.424.1062l.318.3183c.096.1592.133.3468.106.5306.016.1496-.022.2999-.106.4245-.051.0648-.115.1174-.188.1541-.074.0367-.154.0566-.236.0582-.212 0-.424.1061-.636.1061s-.424.1061-.743.1061c-.225.022-.442.0946-.636.2122-.212.1062-.424.1062-.636.3184-.195.1255-.345.312-.424.5306-.105.2337-.16.4871-.16.7434s.055.5096.16.7433c.108.2014.252.3812.424.5306.194.1177.411.1902.636.2122.236.0948.49.1312.743.1062.362-.0193.719-.0908 1.061-.2123.345-.113.643-.3368.848-.6367.022.2255.094.4431.212.6367.105-.2102.211-.2102.423-.2102zm-.848-2.0173c.016.1496-.022.2999-.106.4245-.106.1061-.212.3183-.318.4245-.162.1293-.34.2363-.53.3183-.238.0871-.49.1233-.742.1061h-.425c-.106 0-.212-.1061-.318-.1061-.101-.0719-.183-.1675-.238-.2786-.056-.111-.083-.234-.08-.3581-.015-.1496.022-.2999.106-.4245.106-.1061.106-.2122.212-.3184.106-.1061.212-.1061.318-.2122l.425-.1061c.106 0 .318-.1061.424-.1061l.424-.1062.424-.1061c.106 0 .212-.1061.318-.1061z"/><path d="m132.054 47.138v-.849h-1.061v-1.5898h-.848v1.5928h-.954v.846h.954v3.504c-.016.2177.02.4362.106.6367 0 .1061.106.3184.212.3184.106.1061.212.1061.424.2122h1.379v-.849h-.954c-.106 0-.106 0-.212-.1061l-.106-.1061v-3.6101z"/><path d="m137.465 50.9631v-3.1856c.022-.1319.014-.2669-.023-.3954-.036-.1284-.101-.2472-.189-.3475-.106-.2122-.318-.3184-.424-.4245-.194-.1176-.411-.1901-.636-.2122h-.743c-.287-.0241-.576.012-.848.1061-.212.1061-.53.2122-.742.3184-.226.1198-.41.3047-.53.5306-.12.2683-.192.5557-.212.8489h.848c-.008-.166.026-.3314.101-.4802.074-.1487.185-.2757.323-.3687.305-.1208.627-.1925.954-.2123h.424c.106 0 .318.1062.425.1062l.318.3183c.095.1592.133.3468.106.5306.015.1496-.022.2999-.106.4245-.051.0647-.115.1174-.189.1541-.073.0367-.154.0566-.236.0581-.212 0-.424.1062-.636.1062s-.424.1061-.742.1061c-.256.0348-.506.1063-.742.2122-.212.1061-.424.1061-.636.3184-.196.1255-.345.3119-.424.5306-.105.2337-.16.487-.16.7433s.055.5097.16.7434c.09.1897.224.3556.39.4846.165.1289.359.2174.565.2582.235.0948.49.1312.742.1062.362-.0193.72-.0908 1.061-.2123.345-.113.644-.3368.849-.6367.022.2255.094.4431.212.6367.145.1328.333.2082.53.2123.217.0167.436-.0197.636-.1062v-.7428h-.318c-.014-.1804-.05-.3583-.108-.5296zm-.955-1.0622c.015.1495-.022.2999-.106.4245-.106.1061-.213.3183-.319.4244-.161.1294-.34.2364-.53.3184-.237.0871-.49.1233-.742.1061h-.424c-.106 0-.212-.1061-.318-.1061-.101-.0719-.183-.1676-.239-.2786-.055-.111-.082-.234-.079-.3581-.004-.1395.023-.2782.077-.4064.055-.1283.137-.2431.241-.3365.106-.1061.212-.1061.318-.2122l.424-.1061c.106 0 .318-.1062.424-.1062l.424-.1061.424-.1061c.106 0 .213-.1061.319-.1061z"/><path d="m78.3811 61.3693-2.334-6.3703h-1.383v7.5386h.954v-6.2651l2.334 6.2641h.954l2.334-6.2641v6.2641h.954v-7.5386h-1.373z"/><path d="m88.0334 61.7938v-3.2917c.021-.1318.014-.2669-.023-.3954-.037-.1284-.101-.2471-.19-.3475-.106-.2122-.318-.3183-.424-.4245-.193-.1176-.411-.1901-.636-.2122h-.742c-.287-.0241-.576.012-.848.1061-.212.1061-.53.2123-.742.3184-.226.1198-.411.3047-.53.5306-.12.2683-.192.5557-.213.8489h.849c-.009-.166.026-.3314.1-.4802.075-.1487.186-.2757.324-.3687.305-.1208.627-.1925.954-.2123h.424c.106 0 .318.1062.424.1062l.318.3183c.096.1592.134.3468.106.5306.016.1496-.022.2999-.106.4245-.05.0648-.114.1174-.188.1541-.073.0367-.154.0566-.236.0582-.212 0-.424.1061-.636.1061s-.424.1061-.742.1061c-.229.0051-.45.0791-.636.2122-.212.1062-.424.1062-.636.3184-.196.1255-.345.3119-.425.5306-.119.2312-.191.4836-.212.7428-.017.2524.019.5055.106.7429.108.2014.252.3812.425.5306l.636.3184c.235.0947.49.1311.742.1061.362-.0193.719-.0908 1.061-.2123.345-.113.643-.3368.848-.6367-.014.1153-.002.2322.034.3424.037.1101.098.2107.178.2943.145.1328.334.2083.53.2123.218.0168.436-.0197.637-.1061v-.7429h-.318c-.107-.4225-.107-.4225-.213-.5286zm-.851-1.0572c.016.1496-.022.2999-.106.4245-.106.1061-.212.3184-.318.4245-.162.1293-.34.2364-.53.3183-.237.0871-.49.1233-.742.1062h-.424c-.106 0-.212-.1062-.318-.1062-.106-.1061-.212-.1061-.212-.2122-.106-.1061-.106-.2122-.106-.4245-.016-.1496.022-.2999.106-.4245.106-.1061.106-.2122.212-.3183.106-.1062.212-.1062.318-.2123l.424-.1061.424-.1061.424-.1061c.15.0157.3-.0219.424-.1062.106 0 .212-.1061.318-.1061z"/><path d="m93.554 57.5521c-.072-.11-.165-.2044-.275-.2773-.109-.073-.232-.123-.361-.1472-.275-.0813-.562-.1172-.848-.1061-.363.0193-.72.0908-1.062.2122-.297.1918-.55.4451-.742.7429v-.849h-.848v5.5213h.848v-3.1946c-.017-.2178.02-.4363.106-.6368.082-.1903.189-.3687.318-.5306.134-.1654.322-.2782.53-.3183.236-.0948.49-.1312.743-.1062.156-.0106.312.0123.459.0672.146.055.279.1407.39.2514.11.1107.196.2438.251.3904.055.1465.077.3032.067.4594v3.7162h.848v-3.6071c.017-.2871-.019-.5749-.106-.849-.004-.4244-.11-.6387-.318-.7388z"/><path d="m99.7009 61.7938v-3.2917c.022-.1318.014-.2669-.022-.3954-.037-.1284-.102-.2471-.19-.3475-.106-.2122-.318-.3183-.424-.4245-.194-.1176-.411-.1901-.636-.2122h-.742c-.287-.0241-.576.012-.849.1061-.255.0866-.503.1931-.742.3184-.226.1198-.41.3047-.53.5306-.12.2683-.192.5557-.212.8489h.848c-.008-.166.027-.3314.101-.4802.074-.1487.186-.2757.323-.3687.305-.1208.627-.1925.955-.2123h.424c.106 0 .318.1062.424.1062l.318.3183c.096.1592.133.3468.106.5306.016.1496-.022.2999-.106.4245-.051.0648-.115.1174-.188.1541-.074.0367-.154.0566-.236.0582-.212 0-.424.1061-.636.1061s-.425.1061-.743.1061c-.256.0348-.506.1063-.742.2122-.212.1062-.424.1062-.636.3184-.196.1255-.345.3119-.424.5306-.119.2312-.191.4836-.212.7428-.017.2524.019.5055.106.7429.108.2014.251.3812.424.5306l.636.3184c.235.0947.49.1311.742.1061.362-.0193.72-.0908 1.062-.2123.345-.113.643-.3368.848-.6367-.014.1153-.003.2322.034.3424.037.1101.097.2107.178.2943.145.1328.333.2083.53.2123.218.0168.436-.0197.6361-.1061v-.7429h-.3181c-.001-.4225-.107-.4225-.107-.5286zm-.954-1.0622c.016.1496-.022.2999-.106.4245-.106.1061-.212.3183-.318.4245-.162.1293-.34.2364-.53.3183-.238.0871-.49.1233-.743.1062h-.424c-.106 0-.212-.1062-.318-.1062-.106-.1061-.212-.1061-.212-.2122-.106-.1061-.106-.2122-.106-.4245-.016-.1496.022-.2999.106-.4245.106-.1061.106-.2122.212-.3183.106-.1062.212-.1062.318-.2123l.424-.1061.425-.1061.424-.1061c.159-.0263.307-.1003.424-.2123.106 0 .212-.1061.318-.1061z"/><path d="m104.901 57.8651c-.124-.2846-.351-.5119-.636-.6368-.305-.1208-.627-.1924-.954-.2122-.412-.0086-.817.102-1.167.3183-.298.1918-.551.4451-.742.7429-.185.2971-.328.6186-.425.9551-.087.3104-.123.633-.106.9551-.017.3573.019.7153.106 1.0622.076.3112.221.6014.425.8489.224.238.473.4514.742.6368.341.1214.699.1929 1.061.2122.183.0164.367-.0204.53-.1061.212 0 .318-.1061.53-.2123.106-.1061.318-.2122.424-.3183s.212-.3184.318-.4245v.3184c.018.2871-.018.5749-.106.8489-.106.2123-.106.4245-.318.6368-.125.1958-.311.345-.53.4244-.231.1192-.483.1913-.742.2123h-.424c-.106 0-.318-.1061-.424-.1061l-.318-.3184c-.106-.1061-.106-.2122-.106-.4245h-.848c.006.2617.079.5174.212.7429.119.2259.304.4107.53.5306.238.1253.487.2317.742.3183.237.0871.49.1233.742.1061.345.0337.693-.0055 1.022-.1152s.632-.2874.888-.5215c.429-.5832.653-1.2928.636-2.0173v-5.0948h-.849zm-.106 2.654c-.079.2581-.186.5071-.318.7428-.106.2123-.318.3184-.53.5306-.223.1389-.48.2125-.742.2125-.263 0-.52-.0736-.743-.2125-.196-.1255-.345-.3119-.424-.5306-.118-.1936-.19-.4112-.212-.6367 0-.2122-.106-.5306-.106-.7429-.017-.2523.019-.5054.106-.7428.106-.2122.106-.4245.318-.6367.125-.1959.311-.3451.53-.4245.223-.1389.48-.2125.743-.2125.262 0 .519.0736.742.2125.212.1061.318.3184.53.4245.118.1936.19.4112.212.6367.095.2355.131.4903.106.7428-.106.1062-.106.4245-.215.6368z"/><path d="m111.37 58.0773c-.192-.2978-.445-.5511-.743-.7429-.35-.2163-.755-.3269-1.167-.3183-.362.0193-.719.0907-1.061.2122-.345.113-.643.3369-.848.6368-.238.2801-.418.6048-.53.955-.131.376-.203.7702-.212 1.1684.019.3971.09.7899.212 1.1683.135.3396.313.6605.53.9551.263.2373.547.4505.848.6367.376.1313.769.2029 1.167.2122.577.0205 1.142-.1679 1.592-.5306.436-.3455.737-.8345.848-1.3805h-.848c-.071.3367-.259.6374-.531.8489-.131.1079-.286.1833-.451.2201-.166.0369-.338.0342-.503-.0078-.252.025-.507-.0114-.742-.1061-.203-.0873-.384-.2181-.53-.3831-.147-.1651-.255-.3603-.318-.572-.095-.2355-.131-.4903-.106-.7429h4.137c.017-.3573-.018-.7153-.106-1.0622-.186-.4034-.399-.7934-.638-1.1673zm-3.607 1.2754c0-.2122.106-.4244.106-.6367.106-.2122.212-.3183.318-.5306.106-.1061.318-.2122.424-.3183.413-.1417.861-.1417 1.273 0 .38.1659.683.4691.849.8489.086.2005.122.419.106.6367z"/><path d="m120.068 57.3349c-.212-.1061-.318-.2123-.53-.3184-.237-.0871-.49-.1232-.742-.1061-.329.0081-.653.0802-.954.2122-.298.1918-.551.4451-.743.7429-.118-.3149-.343-.578-.636-.7429-.305-.1208-.627-.1924-.954-.2122-.357-.0083-.71.0751-1.025.2423-.315.1673-.582.4127-.775.7128v-.849h-.85v5.6274h.849v-3.3978c-.016-.1496.021-.2999.106-.4245.059-.1848.155-.3554.283-.5014s.284-.2643.459-.3476c.193-.1176.411-.1902.636-.2122.183-.0164.367.0204.53.1061.106 0 .212.1061.318.2122s.106.2123.212.4245v4.1407h.848v-3.3978c-.004-.1966.031-.3921.104-.5746.073-.1826.182-.3484.321-.4874s.304-.2483.487-.3214c.182-.073.377-.1081.574-.1033.183-.0164.367.0204.53.1061.106.1061.212.1061.318.2122s.106.2123.212.4245v4.1407h.848v-4.0346c.017-.2523-.019-.5054-.106-.7428-.082-.1904-.19-.3689-.32-.5306z"/><path d="m126.222 58.0776c-.192-.2978-.445-.551-.742-.7428-.384-.2297-.827-.3405-1.274-.3184-.362.0193-.719.0908-1.061.2123-.345.113-.643.3368-.848.6367-.238.2802-.418.6048-.53.9551-.131.376-.203.7702-.212 1.1683.019.3971.09.79.212 1.1684.135.3396.313.6605.53.955.263.2374.547.4505.848.6368.376.1312.77.2029 1.167.2122.577.0204 1.142-.168 1.592-.5306.436-.3455.737-.8346.848-1.3806h-.848c-.027.168-.086.329-.176.4737-.089.1447-.206.2701-.345.3689-.138.0989-.294.1692-.46.2069s-.337.0421-.505.0127c-.252.025-.507-.0114-.742-.1061-.218-.0794-.405-.2286-.53-.4245-.106-.2122-.212-.3183-.318-.5306-.095-.2354-.131-.4903-.106-.7428h4.137c.017-.3574-.018-.7154-.106-1.0622-.206-.3755-.384-.7661-.531-1.1684zm-3.713 1.2755c0-.2122.106-.4245.106-.6367.106-.2123.212-.3184.318-.5306.162-.1294.34-.2364.53-.3184.413-.1416.861-.1416 1.273 0 .212.1061.319.2123.531.3184.129.1618.236.3403.318.5306.086.2005.122.419.106.6367z"/><path d="m131.738 57.5521c-.072-.11-.166-.2044-.275-.2773-.11-.073-.232-.123-.362-.1472-.275-.0813-.561-.1172-.848-.1061-.362.0193-.719.0908-1.061.2122-.298.1918-.551.4451-.742.7429v-.849h-.848v5.5213h.848v-3.1946c-.017-.2178.019-.4363.106-.6368.082-.1903.189-.3687.318-.5306.133-.1654.321-.2782.53-.3183.235-.0948.49-.1312.742-.1062.156-.0106.313.0123.459.0672.147.055.28.1407.39.2514.111.1107.196.2438.251.3904.055.1465.078.3032.067.4594v3.7162h.849v-3.6071c.017-.2871-.019-.5749-.106-.849.002-.1387-.025-.2765-.079-.4039-.055-.1275-.137-.2417-.239-.3349z"/><path d="m134.708 55.4199h-.848v1.5928h-.954v.849h.954v3.504c-.016.2177.02.4362.106.6367 0 .1061.106.2123.212.3184s.212.1061.424.2122h1.379v-.8459h-.742c-.106 0-.106 0-.212-.1062l-.106-.1061v-3.6101h1.061v-.849h-1.061z"/><path d="m145.845 56.0602c-.314-.3736-.715-.665-1.167-.849-.504-.2103-1.045-.3186-1.591-.3186-.547 0-1.087.1083-1.592.3186-.43.2213-.824.5076-1.167.849-.295.3779-.511.8113-.636 1.2744-.318.9655-.318 2.0079 0 2.9734.169.445.382.8719.636 1.2744.315.3736.715.665 1.167.849.505.2103 1.045.3186 1.592.3186.546 0 1.087-.1083 1.591-.3186.43-.2213.824-.5076 1.167-.849.295-.3779.512-.8113.636-1.2744.319-.9655.319-2.0079 0-2.9734-.016-.2439-.081-.4822-.19-.7009-.109-.2188-.261-.4137-.446-.5735zm-.212 3.8223c-.076.3436-.22.6684-.424.9551-.231.3015-.519.554-.848.7428-.354.2083-.756.3182-1.167.3182-.41 0-.813-.1099-1.167-.3182-.329-.1888-.617-.4413-.848-.7428-.227-.2727-.374-.6034-.424-.9551-.093-.382-.129-.7757-.107-1.1683-.017-.3925.018-.7855.106-1.1683.095-.3709.238-.728.424-1.0623.213-.3325.514-.5984.871-.7673.356-.1689.753-.234 1.145-.1877.411-.0086.817.102 1.167.3183.329.1889.617.4414.848.7429.248.3016.396.6727.424 1.0622.093.382.129.7758.106 1.1683.017.3575-.019.7155-.108 1.0622z"/><path d="m149.772 54.8926c-.412-.0085-.817.102-1.167.3184-.144.1357-.256.301-.329.4844s-.106.3806-.095.5778v.849h-.954v.8489h.954v4.6713h.954v-4.7764h1.061v-.853h-1.061v-.7428c-.013-.0992-.001-.2001.036-.293.038-.0929.098-.1747.176-.2376.159-.0959.346-.1334.53-.1061h.212c.106 0 .212 0 .212.1061v-.7429c-.106 0-.212-.1061-.318-.1061z"/><path d="m155.181 57.1211h-.954v5.5213h.954z"/><path d="m152.952 54.8926c-.411-.0085-.817.102-1.167.3184-.143.136-.254.3014-.327.4848s-.105.3804-.094.5774v.849h-.954v.8489h.954v4.6713h.954v-4.7764h1.061v-.853h-1.061v-.7428c-.013-.0992 0-.2001.037-.293s.097-.1747.175-.2376c.159-.0959.347-.1334.53-.1061h.212c.106 0 .212 0 .212.1061v-.7429c-.106 0-.212-.1061-.318-.1061z"/><path d="m159.848 61.5804c-.142.1291-.311.2247-.494.2798-.184.0551-.378.0683-.567.0385-.259-.0209-.511-.0931-.742-.2122-.212-.1061-.318-.3184-.531-.4245l-.318-.6367c-.087-.2374-.123-.4905-.106-.7429-.017-.2871.019-.5749.106-.8489.013-.2781.126-.5421.318-.7429.107-.2122.319-.3183.531-.5306.263-.1324.553-.2049.848-.2122.343.0081.675.119.954.3183.242.2201.394.5229.424.849h.955c-.02-.2932-.092-.5806-.212-.849-.144-.2372-.323-.4518-.53-.6367-.216-.1685-.471-.2782-.742-.3183-.274-.0873-.561-.1233-.848-.1062-.397.019-.789.0904-1.167.2123-.345.113-.644.3368-.849.6367-.216.2945-.394.6155-.53.9551-.14.3727-.177.7765-.106 1.1683-.033.4014.04.8044.212 1.1684.071.3367.259.6374.53.8489.241.2368.53.4179.849.5306.341.1215.699.193 1.061.2123.605-.0123 1.195-.1963 1.7-.5306.224-.2024.405-.4476.532-.7212.128-.2736.199-.57.21-.8716h-.957c-.136.4061-.314.797-.531 1.1663z"/><path d="m166.53 58.0773c-.192-.2978-.445-.5511-.742-.7429-.351-.2163-.756-.3269-1.168-.3183-.362.0193-.719.0907-1.061.2122-.345.113-.643.3369-.848.6368-.238.2801-.418.6048-.53.955-.131.376-.203.7702-.212 1.1684.019.3971.09.7899.212 1.1683.135.3396.313.6605.53.9551.263.2374.547.4505.848.6367.376.1313.77.2029 1.167.2122.577.0205 1.142-.1679 1.592-.5306.436-.3455.737-.8345.848-1.3805h-.848c-.027.168-.086.329-.176.4736-.089.1447-.206.2701-.345.369-.138.0989-.294.1692-.46.2069s-.337.042-.505.0127c-.252.025-.507-.0114-.742-.1061-.202-.0873-.383-.2181-.53-.3831-.147-.1651-.255-.3603-.318-.572-.095-.2355-.131-.4903-.106-.7429h4.137c.017-.3573-.018-.7153-.106-1.0622-.319-.5316-.531-.9561-.637-1.1683zm-3.607 1.2754c0-.2122.106-.4244.106-.6367.106-.2122.212-.3183.318-.5306.106-.1061.318-.2122.424-.3183.413-.1417.861-.1417 1.273 0 .213.1061.319.2122.531.3183.129.1619.236.3403.318.5306.085.2009.12.4194.102.6367z"/><path d="m92.1688 44.2754h-.954v1.0622l.954-.5306z"/><path d="m155.075 54.998h-.848v1.0623l.848-.5306z"/><path d="m100.977.849609h9.865c8.274 0 13.684 4.777441 13.684 11.997691 0 7.2202-5.516 11.9976-13.684 11.9976h-9.865zm9.865 5.413161h-2.864v13.16803h2.864c1.631.0839 3.23-.4841 4.443-1.5791 1.213-1.0951 1.943-2.6275 2.027-4.2606v-.7428c.095-1.6288-.451-3.23004-1.521-4.46086-1.07-1.23083-2.579-1.99346-4.204-2.12467z"/><path d="m148.924.849609-5.729 16.350591-5.833-16.350591h-9.229v23.889191h7.001v-15.2884l5.411 15.2894h5.301l5.41-15.39552v15.39452h7.002v-23.889191z"/><path d="m161.969 12.8476c0-7.64167 5.41-12.8476 13.366-12.8476s13.472 5.20593 13.472 12.8476c0 7.6417-5.407 12.8467-13.472 12.8467s-13.366-5.3091-13.366-12.8467zm7.213 0c0 3.9285 2.546 6.5825 6.153 6.6886 3.607.1062 6.258-2.7601 6.258-6.6886 0-3.92845-2.545-6.68859-6.258-6.68859s-6.153 2.76014-6.153 6.68859z"/><path d="m89.5203 4.77808v11.25482l-8.168-15.183291-7.532 4.352961v19.53623h6.683v-15.18228l8.274 15.18328h7.532v-23.890191z"/></g></svg>