<svg height="64.926" viewBox="0 0 187.956 64.926" width="187.956" xmlns="http://www.w3.org/2000/svg" xmlns:xlink="http://www.w3.org/1999/xlink"><linearGradient id="a" gradientUnits="objectBoundingBox" x1="-1.133" x2="3.383" y1="4.665" y2="-.426"><stop offset="0" stop-color="#6cf"/><stop offset=".5" stop-color="#6258a6"/><stop offset=".99" stop-color="#273470"/></linearGradient><linearGradient id="b" x1="-.835" x2="3.68" xlink:href="#a" y1="2.573" y2="-2.517"/><linearGradient id="c" x1="-1.182" x2="3.318" xlink:href="#a" y1="2.903" y2="-2.145"/><linearGradient id="d" x1="-3.753" x2=".749" xlink:href="#a" y1=".546" y2="-4.502"/><linearGradient id="e" x1="-2.862" x2="1.638" xlink:href="#a" y1="2.193" y2="-2.926"/><linearGradient id="f" x1="-2.085" x2="2.417" xlink:href="#a" y1="-.956" y2="-6.004"/><linearGradient id="g" x1="-.859" x2="3.643" xlink:href="#a" y1="-.588" y2="-5.707"/><linearGradient id="h" x1="-.819" x2="2.756" xlink:href="#a" y1="5.019" y2=".983"/><linearGradient id="i" x1="-.181" x2="3.432" xlink:href="#a" y1="5.83" y2="1.758"/><linearGradient id="j" x1=".097" x2="3.708" xlink:href="#a" y1="2.506" y2="-1.566"/><linearGradient id="k" x1=".011" x2="3.585" xlink:href="#a" y1="3.587" y2="-.448"/><linearGradient id="l" x1=".496" x2=".496" xlink:href="#a" y1="5.711" y2=".192"/><linearGradient id="m" x1=".501" x2=".501" xlink:href="#a" y1="5.086" y2="-.433"/><linearGradient id="n" x1=".497" x2=".497" xlink:href="#a" y1="5.086" y2="-.433"/><linearGradient id="o" x1=".501" x2=".501" xlink:href="#a" y1="4.461" y2="-1.058"/><linearGradient id="p" x1=".497" x2=".497" xlink:href="#a" y1="4.461" y2="-1.058"/><linearGradient id="q" x1=".499" x2=".499" xlink:href="#a" y1="3.836" y2="-1.683"/><linearGradient id="r" x1=".503" x2=".503" xlink:href="#a" y1="5.711" y2=".192"/><linearGradient id="s" x1=".501" x2=".501" xlink:href="#a" y1="3.836" y2="-1.683"/><linearGradient id="t" x1=".499" x2=".499" xlink:href="#a" y1="4.461" y2="-1.058"/><linearGradient id="u" x1=".496" x2=".496" xlink:href="#a" y1="5.086" y2="-.433"/><linearGradient id="v" x1=".501" x2=".501" xlink:href="#a" y1="1.039" y2="-4.432"/><linearGradient id="w" x1=".498" x2=".498" xlink:href="#a" y1="2.34" y2="-3.21"/><linearGradient id="x" x1=".506" x2=".506" xlink:href="#a" y1="1.9" y2="-3.572"/><linearGradient id="y" x1=".496" x2=".496" xlink:href="#a" y1="1.227" y2="-4.324"/><linearGradient id="z" x1=".503" x2=".503" xlink:href="#a" y1="2.941" y2="-2.61"/><linearGradient id="A" x1=".493" x2=".493" xlink:href="#a" y1="2.941" y2="-2.61"/><linearGradient id="B" x1=".496" x2=".496" xlink:href="#a" y1="4.536" y2="-1.014"/><linearGradient id="C" x1=".497" x2=".497" xlink:href="#a" y1="5.751" y2="1.335"/><linearGradient id="D" x1=".501" x2=".501" xlink:href="#a" y1="5.204" y2=".827"/><linearGradient id="E" x1=".499" x2=".499" xlink:href="#a" y1="5.204" y2=".828"/><linearGradient id="F" x1=".498" x2=".498" xlink:href="#a" y1="5.204" y2=".828"/><linearGradient id="G" x1=".5" x2=".5" xlink:href="#a" y1="4.708" y2=".332"/><linearGradient id="H" x1=".5" x2=".5" xlink:href="#a" y1="4.242" y2="-.174"/><linearGradient id="I" x1=".497" x2=".497" xlink:href="#a" y1="5.204" y2=".828"/><path d="m51.066 11.666-10.181-5.833-10.075-5.833-10.181 5.833-10.181 5.833-10.076 5.939v11.666l10.075-5.833 10.181-5.833 10.182-5.939 10.075 5.939 10.181 5.833 10.075 5.833v-11.666z" fill="#6cf" transform="translate(-.054)"/><path d="m45.179 22.967v9.333l-8.06-4.666z" fill="url(#a)" transform="translate(-5.409 -3.346)"/><path d="m13.408 29.794 8.06 4.666-8.06 4.666z" fill="url(#b)" transform="translate(-1.954 -4.341)"/><path d="m32.664 34.14v7.53l-6.469-3.712z" fill="url(#c)" transform="translate(-3.817 -4.974)"/><path d="m68.293 57.23v7.53l-6.469-3.818z" fill="url(#d)" transform="translate(-9.008 -8.339)"/><path d="m49.906 43.574 6.469 3.712-6.469 3.714z" fill="url(#e)" transform="translate(-7.272 -6.349)"/><path d="m16.884 53.382 6.469 3.712-6.469 3.818z" fill="url(#f)" transform="translate(-2.46 -7.778)"/><path d="m6.469 47.919v7.424l-6.469-3.712z" fill="url(#g)" transform="translate(0 -6.982)"/><path d="m57.977 13.656v11.772l-10.177-5.833z" fill="url(#h)" transform="translate(-6.964 -1.99)"/><path d="m36 0 10.077 5.833-10.077 5.833z" fill="url(#i)" transform="translate(-5.246)"/><path d="m.372 20.608 10.075 5.833-10.075 5.833z" fill="url(#j)" transform="translate(-.054 -3.003)"/><path d="m12.166 13.656 10.181 5.939-10.181 5.833z" fill="url(#k)" transform="translate(-1.773 -1.99)"/><path d="m33.385 16.139v9.333l-8.06-4.666z" fill="url(#l)" transform="translate(-3.69 -2.351)"/><path d="m21.468 22.967v9.333l-8.06-4.666z" fill="url(#m)" transform="translate(-1.954 -3.346)"/><path d="m49.037 22.967 8.06 4.666-8.06 4.667z" fill="url(#n)" transform="translate(-7.145 -3.346)"/><path d="m9.656 29.794v9.333l-8.166-4.666z" fill="url(#o)" transform="translate(-.217 -4.341)"/><path d="m57.1 29.794v9.333l-8.06-4.666z" fill="url(#p)" transform="translate(-7.145 -4.341)"/><path d="m69 36.622v9.333l-8.17-4.666z" fill="url(#q)" transform="translate(-8.864 -5.336)"/><path d="m37.119 16.139 8.06 4.666-8.06 4.666z" fill="url(#r)" transform="translate(-5.409 -2.351)"/><path d="m1.49 36.622 8.166 4.666-8.166 4.667z" fill="url(#s)" transform="translate(-.217 -5.336)"/><path d="m60.83 29.794 8.17 4.667-8.17 4.666z" fill="url(#t)" transform="translate(-8.864 -4.341)"/><path d="m25.325 22.967 8.06 4.666-8.06 4.667z" fill="url(#u)" transform="translate(-3.69 -3.346)"/><path d="m2.483 57.23 6.469 3.712-6.469 3.818z" fill="url(#v)" transform="translate(-.362 -8.339)"/><path d="m61.824 47.919 6.469 3.712-6.469 3.712z" fill="url(#w)" transform="translate(-9.008 -6.982)"/><path d="m56.375 50.9v7.53l-6.469-3.818z" fill="url(#x)" transform="translate(-7.272 -7.417)"/><path d="m44.581 55.989v7.424l-6.469-3.713z" fill="url(#y)" transform="translate(-5.553 -8.158)"/><path d="m26.194 43.574 6.469 3.712-6.469 3.714z" fill="url(#z)" transform="translate(-3.817 -6.349)"/><path d="m20.87 43.574v7.426l-6.47-3.714z" fill="url(#A)" transform="translate(-2.098 -6.349)"/><path d="m38.112 32.029 6.469 3.712-6.469 3.712z" fill="url(#B)" transform="translate(-5.553 -4.667)"/><path d="m34.265 0v11.666l-10.181-5.833z" fill="url(#C)" transform="translate(-3.509)"/><path d="m22.347 6.828v11.772l-10.181-5.939z" fill="url(#D)" transform="translate(-1.773 -.995)"/><path d="m47.8 6.828 10.181 5.833-10.181 5.939z" fill="url(#E)" transform="translate(-6.964 -.995)"/><path d="m46.077 6.828v11.772l-10.077-5.939z" fill="url(#F)" transform="translate(-5.246 -.995)"/><path d="m10.448 13.656v11.772l-10.076-5.833z" fill="url(#G)" transform="translate(-.054 -1.99)"/><path d="m69.788 20.608v11.666l-10.075-5.833z" fill="url(#H)" transform="translate(-8.701 -3.003)"/><path d="m59.713 13.656v11.772l10.075-5.833z" fill="url(#G)" transform="translate(-8.701 -1.99)"/><path d="m24.084 6.828 10.181 5.833-10.181 5.939z" fill="url(#I)" transform="translate(-3.509 -.995)"/><path d="m29.589 64.905a1.8 1.8 0 0 1 -.743-.106 5.273 5.273 0 0 1 -.742-.318 1.278 1.278 0 0 1 -.53-.531 1.528 1.528 0 0 1 -.212-.742h.849c0 .212 0 .318.106.424l.318.318c.106 0 .319.106.425.106h.424a1.979 1.979 0 0 0 .743-.212 1.062 1.062 0 0 0 .53-.425c.212-.212.212-.424.319-.636a2.35 2.35 0 0 0 .105-.849v-.318c-.105.106-.212.318-.318.424s-.319.212-.425.319c-.212.106-.318.212-.53.212a.953.953 0 0 1 -.53.106 3.791 3.791 0 0 1 -1.06-.212 4.653 4.653 0 0 1 -.742-.636 2.124 2.124 0 0 1 -.424-.849 3.6 3.6 0 0 1 -.106-1.06 2.935 2.935 0 0 1 .106-.955 3.732 3.732 0 0 1 .424-.955 2.472 2.472 0 0 1 .742-.742 2.135 2.135 0 0 1 1.166-.319 3.09 3.09 0 0 1 .954.212 1.237 1.237 0 0 1 .637.636l.212-.636h.849v5.09a3.265 3.265 0 0 1 -.636 2.015 2.617 2.617 0 0 1 -1.621.657 2.029 2.029 0 0 1 -.29-.018zm-.743-6.894a1.058 1.058 0 0 0 -.53.425c-.212.212-.212.424-.319.636a1.8 1.8 0 0 0 -.106.743c0 .211.106.53.106.742a1.51 1.51 0 0 0 .212.636 1.065 1.065 0 0 0 .424.53 1.963 1.963 0 0 0 .743.212 1.963 1.963 0 0 0 .742-.212c.212-.212.424-.319.53-.53a3.875 3.875 0 0 0 .319-.743c.106-.212.106-.53.212-.636a1.583 1.583 0 0 0 -.105-.743 1.5 1.5 0 0 0 -.212-.636c-.212-.106-.319-.319-.53-.425a1.984 1.984 0 0 0 -.743-.212 1.979 1.979 0 0 0 -.742.213zm-3.711 4.879a.778.778 0 0 1 -.212-.636 1.648 1.648 0 0 1 -.849.636 3.755 3.755 0 0 1 -1.06.212 1.573 1.573 0 0 1 -.743-.102l-.636-.319a1.845 1.845 0 0 1 -.424-.53 1.8 1.8 0 0 1 -.106-.743 1.969 1.969 0 0 1 .212-.743 1.056 1.056 0 0 1 .424-.53c.212-.212.424-.212.636-.318a2.7 2.7 0 0 1 .743-.212c.318 0 .53-.106.743-.106s.424-.106.636-.106a.551.551 0 0 0 .424-.212.638.638 0 0 0 .106-.425.794.794 0 0 0 -.106-.53l-.318-.318c-.106 0-.319-.106-.425-.106h-.424a3.12 3.12 0 0 0 -.955.212.967.967 0 0 0 -.424.849h-.849a2.5 2.5 0 0 1 .212-.849 1.281 1.281 0 0 1 .53-.53 5.214 5.214 0 0 1 .743-.318 2.066 2.066 0 0 1 .849-.106h.743a1.51 1.51 0 0 1 .636.212c.105.105.318.211.424.424a.894.894 0 0 1 .212.743v3.288a1.3 1.3 0 0 1 .106.53h.317v.743a1.343 1.343 0 0 1 -.636.106.809.809 0 0 1 -.529-.216zm-.635-3.181a.805.805 0 0 1 -.425.212l-.424.105-.424.106-.425.106c-.105.106-.212.106-.318.212s-.106.211-.212.318a.639.639 0 0 0 -.106.425c0 .211 0 .318.106.424 0 .106.106.106.212.212.106 0 .212.106.318.106h.425a1.805 1.805 0 0 0 .743-.106 2.333 2.333 0 0 0 .53-.319c.106-.106.212-.318.318-.424a.639.639 0 0 0 .106-.425l-.106-1.06c-.108-.001-.213.108-.318.108zm-10.925 3.181a.781.781 0 0 1 -.212-.636 1.648 1.648 0 0 1 -.849.636 3.768 3.768 0 0 1 -1.06.212 1.569 1.569 0 0 1 -.742-.102l-.636-.319a1.85 1.85 0 0 1 -.425-.53 1.817 1.817 0 0 1 -.105-.743 1.967 1.967 0 0 1 .211-.743 1.062 1.062 0 0 1 .425-.53c.211-.212.424-.212.636-.318a1.133 1.133 0 0 1 .636-.212c.318 0 .53-.106.742-.106s.425-.106.637-.106a.551.551 0 0 0 .424-.212.638.638 0 0 0 .106-.425.794.794 0 0 0 -.106-.53l-.319-.318c-.105 0-.318-.106-.424-.106h-.424a3.12 3.12 0 0 0 -.955.212.967.967 0 0 0 -.424.849h-.848a2.5 2.5 0 0 1 .212-.849 1.281 1.281 0 0 1 .53-.53c.212-.106.53-.211.743-.318a2.061 2.061 0 0 1 .848-.106h.743a1.5 1.5 0 0 1 .636.212c.106.105.319.211.425.424a.9.9 0 0 1 .212.743v3.288c.106.106.106.106.212.53h.319v.743a1.345 1.345 0 0 1 -.636.106.811.811 0 0 1 -.532-.216zm-.636-3.075a.635.635 0 0 1 -.424.106l-.424.105-.425.106-.424.106c-.106.106-.212.106-.319.212s-.105.211-.212.318a.639.639 0 0 0 -.106.425c0 .211 0 .318.106.424 0 .106.106.106.212.212.106 0 .212.106.319.106h.424a1.8 1.8 0 0 0 .743-.106 2.293 2.293 0 0 0 .53-.319c.106-.106.212-.318.319-.424a.639.639 0 0 0 .106-.425l-.106-.954c-.107.002-.213.108-.32.108zm76.784 2.863a5.863 5.863 0 0 1 -.849-.636 4.326 4.326 0 0 1 -.53-.954 4.508 4.508 0 0 1 -.212-1.166 3.813 3.813 0 0 1 .212-1.167 2.789 2.789 0 0 1 .53-.954 1.651 1.651 0 0 1 .849-.636 3.767 3.767 0 0 1 1.061-.212 2.137 2.137 0 0 1 1.166.319 2.483 2.483 0 0 1 .743.742c.105.212.318.636.636 1.167a3.6 3.6 0 0 1 .106 1.06h-4.135a1.571 1.571 0 0 0 .106.743 1.5 1.5 0 0 0 .848.954 1.573 1.573 0 0 0 .743.106 1.279 1.279 0 0 0 1.485-1.06h.849a2.362 2.362 0 0 1 -.849 1.379 2.4 2.4 0 0 1 -1.591.53 3.811 3.811 0 0 1 -1.169-.215zm.212-4.878c-.106.106-.319.212-.425.318-.105.212-.211.319-.318.53 0 .212-.106.425-.106.637h3.075a1.357 1.357 0 0 0 -.105-.637 2.333 2.333 0 0 0 -.319-.53c-.212-.106-.318-.211-.53-.318a1.959 1.959 0 0 0 -1.273 0zm-40.619 4.878a5.813 5.813 0 0 1 -.849-.636 4.289 4.289 0 0 1 -.53-.954 4.51 4.51 0 0 1 -.212-1.166 3.812 3.812 0 0 1 .212-1.167 2.774 2.774 0 0 1 .53-.954 1.648 1.648 0 0 1 .849-.636 3.761 3.761 0 0 1 1.06-.212 2.258 2.258 0 0 1 1.273.319 2.472 2.472 0 0 1 .743.742 8.579 8.579 0 0 0 .53 1.167 3.6 3.6 0 0 1 .106 1.06h-4.137a1.571 1.571 0 0 0 .106.743c.106.212.212.318.319.53a1.052 1.052 0 0 0 .53.424 1.571 1.571 0 0 0 .743.106 1.28 1.28 0 0 0 1.485-1.06h.848a2.361 2.361 0 0 1 -.848 1.379 2.4 2.4 0 0 1 -1.591.53 3.806 3.806 0 0 1 -1.167-.215zm.318-4.878a2.334 2.334 0 0 0 -.53.318c-.106.212-.212.319-.318.53 0 .212-.106.425-.106.637h3.181a1.347 1.347 0 0 0 -.106-.637 2.367 2.367 0 0 0 -.318-.53c-.212-.106-.319-.211-.531-.318a1.959 1.959 0 0 0 -1.273 0zm-15.06 4.878a5.8 5.8 0 0 1 -.848-.636 4.294 4.294 0 0 1 -.531-.954 4.547 4.547 0 0 1 -.212-1.166 3.84 3.84 0 0 1 .212-1.167 2.776 2.776 0 0 1 .531-.954 1.646 1.646 0 0 1 .848-.636 3.767 3.767 0 0 1 1.061-.212 2.137 2.137 0 0 1 1.166.319 2.483 2.483 0 0 1 .743.742 9.74 9.74 0 0 1 .636 1.167 3.6 3.6 0 0 1 .106 1.06h-4.136a1.571 1.571 0 0 0 .106.743 1.5 1.5 0 0 0 .848.954 1.573 1.573 0 0 0 .743.106 1.084 1.084 0 0 0 .955-.211 1.463 1.463 0 0 0 .53-.849h.849a2.362 2.362 0 0 1 -.849 1.379 2.4 2.4 0 0 1 -1.591.53 3.811 3.811 0 0 1 -1.167-.215zm.212-4.878c-.106.106-.319.212-.424.318-.106.212-.212.319-.319.53 0 .212-.106.425-.106.637h3.076a1.347 1.347 0 0 0 -.106-.637 1.646 1.646 0 0 0 -.849-.848 1.959 1.959 0 0 0 -1.273 0zm32.877 4.56a3.016 3.016 0 0 1 -1.167-.849 7.178 7.178 0 0 1 -.636-1.273 4.744 4.744 0 0 1 0-2.969 3.587 3.587 0 0 1 .64-1.269 4.707 4.707 0 0 1 1.167-.849 4.131 4.131 0 0 1 3.181 0 3 3 0 0 1 1.163.849 1.844 1.844 0 0 1 .636 1.273 4.731 4.731 0 0 1 0 2.969 3.579 3.579 0 0 1 -.636 1.273 4.7 4.7 0 0 1 -1.166.849 4.139 4.139 0 0 1 -3.181 0zm-.319-5.939a4.423 4.423 0 0 0 -.424 1.06 4.35 4.35 0 0 0 -.106 1.167 3.972 3.972 0 0 0 .106 1.166 1.9 1.9 0 0 0 .424.954 2.857 2.857 0 0 0 .849.743 2.294 2.294 0 0 0 2.333 0 2.857 2.857 0 0 0 .849-.743 2.6 2.6 0 0 0 .424-.954 3.607 3.607 0 0 0 .106-1.061 3.972 3.972 0 0 0 -.106-1.166 1.88 1.88 0 0 0 -.424-1.06 2.857 2.857 0 0 0 -.849-.743 2.135 2.135 0 0 0 -1.166-.319 2.092 2.092 0 0 0 -.258-.016 2.122 2.122 0 0 0 -1.758.972zm-9.863 6.257v-3.712a1.094 1.094 0 0 0 -1.166-1.166 1.571 1.571 0 0 0 -.743.106.9.9 0 0 0 -.53.318 2.333 2.333 0 0 0 -.319.53 1.355 1.355 0 0 0 -.105.636v3.181h-.848v-5.514h.849v.849a2.455 2.455 0 0 1 .743-.743 3.755 3.755 0 0 1 1.06-.212 2.634 2.634 0 0 1 .849.106 1.377 1.377 0 0 1 .954 1.166 2.334 2.334 0 0 1 .106.849v3.605zm-38.179 0v-3.712a1.095 1.095 0 0 0 -1.167-1.166 1.567 1.567 0 0 0 -.742.106.9.9 0 0 0 -.531.318 2.367 2.367 0 0 0 -.318.53 1.345 1.345 0 0 0 -.106.636v3.181h-.848v-5.514h.849v.849a2.465 2.465 0 0 1 .743-.743 3.761 3.761 0 0 1 1.06-.212 2.632 2.632 0 0 1 .849.106.975.975 0 0 1 .636.424c.212.106.319.319.319.743a2.352 2.352 0 0 1 .105.849v3.605zm61.087-.105v-5.516h.955v5.515zm-2.863 0v-4.667h-.955v-.849h.955v-.849a1.362 1.362 0 0 1 .424-1.06 2.137 2.137 0 0 1 1.166-.319h.212c.106 0 .212.106.318.106v.743c0-.106-.105-.106-.212-.106h-.212a.793.793 0 0 0 -.53.106.584.584 0 0 0 -.212.53v.743h1.061v.849h-1.061v4.773zm-3.181 0v-4.667h-.955v-.849h.955v-.849a1.359 1.359 0 0 1 .424-1.06 2.135 2.135 0 0 1 1.166-.319h.212c.106 0 .212.106.318.106v.743c0-.106-.106-.106-.212-.106h-.212a.793.793 0 0 0 -.53.106.584.584 0 0 0 -.212.53v.743h1.06v.849h-1.059v4.773zm-28.529 0v-4.137c-.106-.212-.106-.319-.212-.425s-.212-.105-.319-.212a.956.956 0 0 0 -.53-.106 1.449 1.449 0 0 0 -1.485 1.485v3.393h-.849v-4.135c-.105-.212-.105-.319-.211-.425s-.21-.211-.319-.211a.954.954 0 0 0 -.53-.106 1.506 1.506 0 0 0 -.636.212 1.419 1.419 0 0 0 -.743.848.638.638 0 0 0 -.106.425v3.393h-.848v-5.62h.848v.848a2.085 2.085 0 0 1 1.8-.955 3.09 3.09 0 0 1 .955.212 1.424 1.424 0 0 1 .636.743 2.475 2.475 0 0 1 .743-.743 2.531 2.531 0 0 1 .954-.212 1.8 1.8 0 0 1 .743.106c.212.106.319.212.531.319a2.326 2.326 0 0 1 .318.53 1.8 1.8 0 0 1 .106.743v4.029zm38.184-.319a2.319 2.319 0 0 1 -.849-.53 1.46 1.46 0 0 1 -.53-.849 2.28 2.28 0 0 1 -.212-1.166 2.2 2.2 0 0 1 .106-1.166 4.331 4.331 0 0 1 .53-.955 1.653 1.653 0 0 1 .849-.636 4.5 4.5 0 0 1 1.166-.212 2.334 2.334 0 0 1 .849.106 1.586 1.586 0 0 1 .743.319 2.811 2.811 0 0 1 .53.636 2.49 2.49 0 0 1 .212.848h-.955a1.31 1.31 0 0 0 -.424-.848 1.71 1.71 0 0 0 -.955-.319 1.992 1.992 0 0 0 -.848.212c-.212.212-.425.318-.531.53a1.148 1.148 0 0 0 -.318.743 2.331 2.331 0 0 0 -.106.849 1.805 1.805 0 0 0 .106.742c.106.212.212.424.318.636.212.105.319.318.531.424a1.961 1.961 0 0 0 .742.212 1.285 1.285 0 0 0 1.061-.319 6.221 6.221 0 0 0 .53-1.166h.954a2.254 2.254 0 0 1 -.742 1.59 3.206 3.206 0 0 1 -1.7.531 3.761 3.761 0 0 1 -1.057-.212zm-22.59.212h-.636c-.212-.106-.318-.106-.424-.212s-.212-.212-.212-.319a1.342 1.342 0 0 1 -.106-.636v-3.499h-.954v-.849h.954v-1.59h.849l.212 1.59h1.06v.849h-1.06v3.605l.106.106c.105.106.105.106.211.106h.743v.849zm-53.981 0v-6.257l-2.339 6.257h-.954l-2.336-6.257v6.258h-.951v-7.53h1.378l2.333 6.363 2.44-6.364h1.378v7.53zm72.965-7.53h.849v.53l-.854.534zm-17.5-2.863a1.51 1.51 0 0 1 -.212-.636 1.65 1.65 0 0 1 -.848.636 3.8 3.8 0 0 1 -1.061.212 1.573 1.573 0 0 1 -.743-.106 1.347 1.347 0 0 1 -.954-.742 1.805 1.805 0 0 1 0-1.485 1.057 1.057 0 0 1 .424-.53c.212-.212.425-.212.636-.319a2.7 2.7 0 0 1 .743-.212c.319 0 .53-.105.743-.105s.424-.106.636-.106a.548.548 0 0 0 .424-.212.636.636 0 0 0 .106-.424.8.8 0 0 0 -.106-.531l-.318-.318c-.106 0-.319-.106-.425-.106h-.424a3.09 3.09 0 0 0 -.954.212.963.963 0 0 0 -.425.849h-.848a2.488 2.488 0 0 1 .212-.85 1.276 1.276 0 0 1 .53-.53c.212-.106.531-.212.743-.319a2.066 2.066 0 0 1 .849-.106h.742a1.506 1.506 0 0 1 .636.212c.106.106.318.212.424.424a.9.9 0 0 1 .212.743v3.181a2.161 2.161 0 0 1 .106.531h.318v.742a1.342 1.342 0 0 1 -.636.106.815.815 0 0 1 -.534-.211zm-.64-3.073-.424.106-.425.106c-.106 0-.318.106-.424.106l-.424.106c-.106.105-.212.105-.319.212a.963.963 0 0 0 -.318.743.755.755 0 0 0 .318.636c.106 0 .212.106.319.106h.424a1.8 1.8 0 0 0 .743-.106 2.367 2.367 0 0 0 .53-.318c.106-.106.212-.319.319-.425a.64.64 0 0 0 .105-.424l-.105-.955c-.107-.002-.213.107-.319.107zm-11.136 3.178a1.5 1.5 0 0 1 -.636-.212 1.854 1.854 0 0 1 -.424-.53 1.805 1.805 0 0 1 0-1.485 1.048 1.048 0 0 1 .424-.53c.212-.212.424-.212.636-.319a1.506 1.506 0 0 1 .636-.212c.319 0 .53-.105.743-.105s.424-.106.636-.106a.55.55 0 0 0 .424-.212.636.636 0 0 0 .106-.424.8.8 0 0 0 -.106-.531l-.318-.318c-.106 0-.319-.106-.425-.106h-.424a3.09 3.09 0 0 0 -.954.212.964.964 0 0 0 -.425.849h-.849a2.49 2.49 0 0 1 .212-.849 1.276 1.276 0 0 1 .53-.53c.212-.106.53-.212.743-.319a2.066 2.066 0 0 1 .849-.106h.743a1.51 1.51 0 0 1 .636.212c.106.106.318.212.424.424a.9.9 0 0 1 .212.743v3.181c0 .106.106.106.212.106h.319v.743a1.343 1.343 0 0 1 -.636.106c-.212 0-.319 0-.424.212a1.51 1.51 0 0 1 -.212-.636 1.653 1.653 0 0 1 -.849.636 3.791 3.791 0 0 1 -1.06.212 1.571 1.571 0 0 1 -.743-.106zm2.015-3.178-.424.106-.425.106c-.106 0-.318.106-.424.106l-.425.106c-.105.105-.212.105-.318.212s-.106.212-.212.319a.636.636 0 0 0 -.106.424.755.755 0 0 0 .319.636c.106 0 .212.106.318.106h.425a1.8 1.8 0 0 0 .743-.106 2.367 2.367 0 0 0 .53-.318c.106-.106.212-.319.318-.425a.636.636 0 0 0 .106-.424l-.106-.955c-.106-.002-.212.107-.319.107zm-20.468 3.178a1.5 1.5 0 0 1 -.636-.212 1.869 1.869 0 0 1 -.424-.53 1.805 1.805 0 0 1 0-1.485 1.053 1.053 0 0 1 .424-.53c.212-.212.424-.212.636-.319a1.506 1.506 0 0 1 .636-.212c.319 0 .53-.105.743-.105.318 0 .424-.106.636-.106a.548.548 0 0 0 .424-.212.636.636 0 0 0 .106-.424.8.8 0 0 0 -.106-.531l-.318-.318c-.106 0-.319-.106-.425-.106h-.424a3.09 3.09 0 0 0 -.954.212.964.964 0 0 0 -.425.849h-.848a2.488 2.488 0 0 1 .212-.849 1.276 1.276 0 0 1 .53-.53c.212-.106.531-.212.743-.319a2.066 2.066 0 0 1 .849-.106h.743a1.51 1.51 0 0 1 .636.212c.106.106.318.212.424.424a.9.9 0 0 1 .212.743v3.181c0 .106.106.106.212.106h.318v.743a1.343 1.343 0 0 1 -.636.106.809.809 0 0 1 -.53-.212.778.778 0 0 1 -.212-.636 1.648 1.648 0 0 1 -.849.636c-.424.212-.742.212-.954.636a1.571 1.571 0 0 1 -.743-.106zm2.015-3.288-.424.11-.425.106c-.106 0-.318.106-.424.106l-.424.106c-.106.106-.212.106-.319.211s-.106.212-.212.319a.64.64 0 0 0 -.105.424c0 .212 0 .319.105.425 0 .105.106.105.212.211s.212.106.212.212h.424a1.8 1.8 0 0 0 .743-.106 2.347 2.347 0 0 0 .53-.318c.106-.106.212-.319.319-.425a.64.64 0 0 0 .108-.425v-1.06c-.108-.001-.214.105-.32.105zm-25.559 3.288a1.5 1.5 0 0 1 -.636-.212 1.87 1.87 0 0 1 -.424-.53 1.805 1.805 0 0 1 0-1.485 1.053 1.053 0 0 1 .424-.53c.212-.212.424-.212.636-.319a1.506 1.506 0 0 1 .636-.212c.319 0 .53-.105.743-.105s.424-.106.636-.106a.55.55 0 0 0 .424-.212.636.636 0 0 0 .106-.424.8.8 0 0 0 -.106-.531l-.318-.318c-.106 0-.319-.106-.425-.106h-.424a3.09 3.09 0 0 0 -.954.212.964.964 0 0 0 -.425.849h-.847a2.488 2.488 0 0 1 .212-.849 1.276 1.276 0 0 1 .53-.53c.212-.106.531-.212.743-.319a2.066 2.066 0 0 1 .849-.106h.743a1.51 1.51 0 0 1 .636.212 1.065 1.065 0 0 1 .53.424.9.9 0 0 1 .212.743v3.181c0 .106.106.106.212.106h.319v.743a1.343 1.343 0 0 1 -.636.106.807.807 0 0 1 -.53-.212 1.5 1.5 0 0 1 -.212-.636 1.648 1.648 0 0 1 -.849.636c-.318.212-.636.212-1.06.636a1.571 1.571 0 0 1 -.745-.106zm2.228-3.288-.426.11-.423.1c-.106 0-.319.106-.424.106l-.425.106c-.106.106-.212.106-.318.211s-.106.212-.212.319a.636.636 0 0 0 -.106.424.755.755 0 0 0 .319.636c.106.106.212.106.212.212h.425a1.805 1.805 0 0 0 .743-.106 2.367 2.367 0 0 0 .53-.318c.106-.106.212-.319.318-.425a.636.636 0 0 0 .106-.424v-1.06c-.108.004-.215.11-.32.11zm26.089 2.97v-7.636h.849v7.637zm-16.545-.212a5.862 5.862 0 0 1 -.849-.636 4.326 4.326 0 0 1 -.53-.954 2.292 2.292 0 0 1 -.211-1.167 3.812 3.812 0 0 1 .211-1.166 4.326 4.326 0 0 1 .53-.954 1.646 1.646 0 0 1 .849-.636 4.5 4.5 0 0 1 1.166-.212 3.812 3.812 0 0 1 1.167.212 5.8 5.8 0 0 1 .848.636 4.253 4.253 0 0 1 .53.954 2.282 2.282 0 0 1 .212 1.166 3.812 3.812 0 0 1 -.212 1.167 2.76 2.76 0 0 1 -.53.954 1.646 1.646 0 0 1 -.848.636 2.1 2.1 0 0 1 -1.167.212 3.811 3.811 0 0 1 -1.166-.212zm.53-4.454a1.065 1.065 0 0 0 -.53.424l-.318.636a2.068 2.068 0 0 0 -.106.849 2.634 2.634 0 0 0 .106.849.916.916 0 0 0 .318.636 1.706 1.706 0 0 0 1.166.53 1.342 1.342 0 0 0 .636-.106 1.059 1.059 0 0 0 .531-.424q.158-.319.318-.636a2.066 2.066 0 0 0 .106-.849 2.336 2.336 0 0 0 -.106-.849.92.92 0 0 0 -.318-.636 1.063 1.063 0 0 0 -.531-.424 1.959 1.959 0 0 0 -1.273 0zm36.271 4.56h-.636c-.212-.106-.319-.106-.424-.212-.106 0-.212-.212-.212-.318a1.345 1.345 0 0 1 -.106-.636v-3.5h-.954v-.849h.954v-1.59h.849v1.59h1.06v.849h-1.06v3.606l.106.105c.105.106.105.106.211.106h.955v.849zm-28.317 0v-3.711a1 1 0 0 0 -1.06-1.061 1.571 1.571 0 0 0 -.742.106c-.106.106-.318.212-.424.424a2.321 2.321 0 0 0 -.319.531 1.342 1.342 0 0 0 -.106.636v3.075h-1.06v-5.515h.849v.849a2.475 2.475 0 0 1 .743-.743 3.753 3.753 0 0 1 1.06-.211 2.656 2.656 0 0 1 .849.105.975.975 0 0 1 .636.425l.318.636a2.329 2.329 0 0 1 .106.848v3.606zm-11.984 0v-5.515h.849v5.515zm-1.59 0h-.636c-.212-.106-.319-.106-.425-.212-.105 0-.212-.212-.212-.318a1.345 1.345 0 0 1 -.106-.636v-3.5h-.955v-.849h.955v-1.59h.849v1.59h1.06v.849h-1.06v3.606l.105.105c.106.106.106.106.212.106h.742v.849zm-10.076 0-3.927-6.045h-.1v6.045h-.851v-7.529h1.06l3.924 6.151v-6.151h.955v7.529zm37.12-.106v-7.529h2.653a3.492 3.492 0 0 1 2.651.848 3.423 3.423 0 0 1 .954 2.758 9.285 9.285 0 0 1 -.212 1.7 2.413 2.413 0 0 1 -.636 1.273 2.015 2.015 0 0 1 -1.166.743 8.238 8.238 0 0 1 -1.59.211zm1.06-.743h2.121a.956.956 0 0 0 .53-.106c.212-.105.319-.212.53-.318a1.276 1.276 0 0 0 .53-.53c.106-.319.212-.53.319-.849a3.969 3.969 0 0 0 .106-1.166 5.153 5.153 0 0 0 -.106-1.273 2.141 2.141 0 0 0 -.424-.849 1.906 1.906 0 0 0 -.743-.53 3.812 3.812 0 0 0 -1.167-.212h-1.7zm-26.514-6.68h.954v.53l-.954.53zm67.344-2.864v-.425h.53a.792.792 0 0 1 -.106-.53.636.636 0 0 1 .106-.424 1.276 1.276 0 0 1 .53-.53.39.39 0 0 1 .319-.106h.318c.106 0 .106.106.212.106v.53c-.106-.106-.212-.106-.425-.106-.212-.106-.318 0-.424.106a.389.389 0 0 0 -.106.318c0 .212 0 .319.106.425s.212.106.424.106h.637l-.106.53zm-63.209-.424v-.955h1.272a1.96 1.96 0 0 0 .743-.212 1.048 1.048 0 0 0 .53-.424 1.965 1.965 0 0 0 .212-.743h-1.271a2.334 2.334 0 0 1 -.849-.106c-.212 0-.424-.212-.636-.318a.643.643 0 0 1 -.318-.636 1.142 1.142 0 0 1 -.211-.848 2.336 2.336 0 0 1 .106-.849 2.689 2.689 0 0 1 .424-.743 1.569 1.569 0 0 1 .636-.53 3.094 3.094 0 0 1 .955-.212 3.088 3.088 0 0 1 .954.212 2.811 2.811 0 0 1 .636.53l.319.955a4.343 4.343 0 0 1 .106 1.166v.53h2.544v-7h.849v7.956h-3.394a2.043 2.043 0 0 1 -.319 1.06 1.421 1.421 0 0 1 -.636.743l-.954.319a5.16 5.16 0 0 1 -1.273.106zm.955-5.621a1.466 1.466 0 0 0 -.425.319.552.552 0 0 0 -.212.424v.636a1.207 1.207 0 0 0 .318.849 3.094 3.094 0 0 0 .955.211h1.166v-.742a2.828 2.828 0 0 0 -.318-1.273.928.928 0 0 0 -.955-.531.953.953 0 0 0 -.528.107zm71.8 4.454h.849v.53l-.849.531zm-20.15.106a2.336 2.336 0 0 0 .849-.106c.211 0 .318-.106.424-.318a1.51 1.51 0 0 0 .212-.636v-.955l-.107-2.861h.954v2.863a6.036 6.036 0 0 1 -.106 1.379 1.2 1.2 0 0 1 -.318.849 1.229 1.229 0 0 1 -.743.53 2.094 2.094 0 0 1 -1.166.212zm-15.8-.212h.955v.636l-.955.53zm-2.758.106h.955v.53l-.955.531zm-1.379 0h.955v.53l-.955.531zm-46.663 0h.848v.53l-.848.531zm-1.379 0h.846v.53l-.848.531zm6.257-.848a1.531 1.531 0 0 1 -.743-.212 2.3 2.3 0 0 1 -.318-.53 1.09 1.09 0 0 1 -.636.53 3.607 3.607 0 0 1 -1.061.106h-.953a1.528 1.528 0 0 1 -.742-.212 2.313 2.313 0 0 1 -.319-.53 1.085 1.085 0 0 1 -.639.526 3.6 3.6 0 0 1 -1.06.106h-1.8c-.106-.106-.319-.106-.425-.212l-.318-.318a.811.811 0 0 1 -.212-.53c-.212 0-.318.105-.53.105h-.64a1.593 1.593 0 0 1 -.636-.424l-.636-.318a1.272 1.272 0 0 1 -.53-.531 3.09 3.09 0 0 1 -.213-.95 3.1 3.1 0 0 1 .212-.955 2.8 2.8 0 0 1 .53-.636 5.125 5.125 0 0 1 .743-.318 2.329 2.329 0 0 1 .848-.106h1.7v3.181a.7.7 0 0 0 .106.636.778.778 0 0 0 .636.212h1.482a.39.39 0 0 0 .319-.106.228.228 0 0 0 .212-.212.64.64 0 0 0 .105-.424v-2.544h.955v2.651c0 .212 0 .318.106.424s.211.212.318.212c.106.106.212.106.425.106h1.379a.389.389 0 0 0 .318-.106.228.228 0 0 0 .212-.212.636.636 0 0 0 .106-.424v-2.545h.848v2.651c0 .211 0 .318.106.424s.212.212.319.212c.105.105.211.105.424.105h1.273v-7h.849v5.621a5.17 5.17 0 0 1 1.269-1.375 3.57 3.57 0 0 1 1.8-.531 2.026 2.026 0 0 1 1.7.636 3.178 3.178 0 0 1 .637 1.91v1.909zm4.03-3.5a5.878 5.878 0 0 0 -.849.636c-.212.319-.424.53-.636.849a2.126 2.126 0 0 0 -.424.848h4.454v-.742a1.569 1.569 0 0 0 -.106-.743c0-.212-.106-.319-.212-.53a1.85 1.85 0 0 0 -.53-.425 1.8 1.8 0 0 0 -.743-.106 1.573 1.573 0 0 0 -.957.213zm-15.168-.422a1.2 1.2 0 0 0 -.319.848.7.7 0 0 0 .106.636 1.71 1.71 0 0 0 .955.319h.53a.953.953 0 0 0 .53-.106v-1.911h-.954a.8.8 0 0 0 -.254-.042.847.847 0 0 0 -.594.256zm59.285 3.818a1.528 1.528 0 0 1 -.742-.212 2.313 2.313 0 0 1 -.319-.53 1.085 1.085 0 0 1 -.636.53 3.6 3.6 0 0 1 -1.06.106h-.955a1.534 1.534 0 0 1 -.746-.212 2.346 2.346 0 0 1 -.318-.53 1.087 1.087 0 0 1 -.636.53 3.6 3.6 0 0 1 -1.06.106h-1.165a1.345 1.345 0 0 1 -.636-.106.815.815 0 0 1 -.53-.212l-.424-.425a1.8 1.8 0 0 1 -.106-.743v-6.364h.954v5.939a1.343 1.343 0 0 0 .106.636.9.9 0 0 0 .636.212h1.379a.39.39 0 0 0 .319-.106.228.228 0 0 0 .211-.212.636.636 0 0 0 .106-.424v-2.545h.955v2.651c0 .212 0 .318.106.424s.212.212.318.212c.106.106.212.106.424.106h1.167a.388.388 0 0 0 .318-.106.228.228 0 0 0 .212-.212.636.636 0 0 0 .106-.424v-2.545h1.166v2.651c0 .211 0 .318.106.424s.211.212.318.212c.106.105.212.105.425.105h1.8v-7h.849v8.06zm10.074-.218a.918.918 0 0 1 -.632-.314 2.217 2.217 0 0 1 -.424-.637 2.061 2.061 0 0 1 -.106-.848 2.334 2.334 0 0 1 .106-.849 2.136 2.136 0 0 1 .424-.852 1.239 1.239 0 0 1 .636-.636 1.809 1.809 0 0 1 1.7 0 2.832 2.832 0 0 1 .636.531 1.713 1.713 0 0 1 .424.742 3.1 3.1 0 0 1 .212.955 1.573 1.573 0 0 1 -.106.743 2.231 2.231 0 0 1 -.425.636 2.2 2.2 0 0 1 -.636.424 1.573 1.573 0 0 1 -.954.212 2.334 2.334 0 0 1 -.855-.107zm.319-3.394a1.466 1.466 0 0 0 -.425.319c-.105.212-.105.318-.212.53a.793.793 0 0 0 -.106.53.953.953 0 0 0 .106.53c0 .106.105.212.212.319a.8.8 0 0 0 .425.211.953.953 0 0 0 .53.106h.419c.212-.106.319-.106.425-.211l.318-.319a4.577 4.577 0 0 0 .106-.53 1.343 1.343 0 0 0 -.106-.636 2.347 2.347 0 0 0 -.318-.53c-.106-.106-.319-.212-.425-.319s-.212-.106-.424-.106a.793.793 0 0 0 -.525.11zm-33.832 3.5a3.6 3.6 0 0 1 -1.06-.106 5.273 5.273 0 0 1 -.743-.318c-.106-.106-.212-.319-.319-.425a1.815 1.815 0 0 1 -.105-.743v-1.7h.848v1.386a.954.954 0 0 0 .106.53l.319.319c.212 0 .318.105.53.105h6.152v-3.287h.953v4.243zm45.6-.106h-2.648v-.955h2.545a.639.639 0 0 0 .424-.105c.106 0 .106-.106.106-.212v-.212a.553.553 0 0 0 -.211-.424l-.531-.743-.848-1.273.848-.53a6.8 6.8 0 0 0 .743 1.273 9.415 9.415 0 0 1 .53.849l.319.636a.953.953 0 0 1 .106.53 1.2 1.2 0 0 1 -.319.848 1.163 1.163 0 0 1 -.805.358.8.8 0 0 1 -.255-.04zm29.377-.212a9.179 9.179 0 0 1 -1.06-.636l-.319.319c-.106.106-.212.212-.318.212a.392.392 0 0 1 -.319.105h-1.273c-.212 0-.318 0-.424-.105-.106 0-.212-.106-.319-.212a1.466 1.466 0 0 1 -.318-.425 1.047 1.047 0 0 1 -.743.743 2.1 2.1 0 0 1 -1.166.212h-2.228a1.531 1.531 0 0 1 -.743-.212 2.263 2.263 0 0 1 -.318-.53 1.084 1.084 0 0 1 -.636.53 3.607 3.607 0 0 1 -1.061.106h-.743a1.521 1.521 0 0 1 -.636-.212 2.323 2.323 0 0 1 -.318-.531c0 .106-.106.212-.212.319a.8.8 0 0 1 -.424.212 1.355 1.355 0 0 1 -.636.105h-5.3a3.636 3.636 0 0 1 -1.061-.105l-.636-.319a1.886 1.886 0 0 1 -.424-.53 1.8 1.8 0 0 1 -.106-.743v-1.691h.849v1.378a.957.957 0 0 0 .106.531l.318.318c.212 0 .319.106.53.106h5.515c.212 0 .319 0 .424-.106a.228.228 0 0 0 .212-.212.635.635 0 0 0 .106-.424v-2.548h.954v2.651c0 .212 0 .318.106.424s.212.212.319.212c.106.106.212.106.424.106h1.06a.39.39 0 0 0 .319-.106.228.228 0 0 0 .212-.212.636.636 0 0 0 .106-.424v-2.544h.954v2.65c0 .211 0 .318.106.424s.212.212.318.212c.106.106.212.106.425.106h2.439a2 2 0 0 0 .849-.212.81.81 0 0 0 .212-.53 1.5 1.5 0 0 0 -.212-.636c-.106-.319-.425-.53-.636-.743a3.807 3.807 0 0 0 -1.061-.743l-1.273-.636v-.319a.367.367 0 0 0 .106-.211c0-.106.106-.106.106-.212a.1.1 0 0 1 .106-.106l4.135-1.8v.955l-3.288 1.484a4.781 4.781 0 0 1 1.8 1.167 4.026 4.026 0 0 1 .954 1.378 1.5 1.5 0 0 0 .212.636 1.482 1.482 0 0 0 .318.425c.106.106.212.211.319.211h1.166a.392.392 0 0 0 .319-.105l.318-.319c.106-.212.106-.318.212-.53a3.914 3.914 0 0 1 .53-1.166 2.811 2.811 0 0 1 .53-.636l.636-.319a1.345 1.345 0 0 1 .636-.106 1.96 1.96 0 0 1 .743.212 2.221 2.221 0 0 1 .636.424.918.918 0 0 1 .319.636 2.068 2.068 0 0 1 .106.849 1.9 1.9 0 0 1 -.425 1.485 2.016 2.016 0 0 1 -1.379.53 3.768 3.768 0 0 1 -1.051-.214zm.106-2.651a3.494 3.494 0 0 0 -.743 1.379 3.162 3.162 0 0 0 .849.425 2.509 2.509 0 0 0 .848.211.656.656 0 0 0 .743-.211.825.825 0 0 0 .212-.849 4.577 4.577 0 0 0 -.106-.53c-.106-.212-.106-.319-.212-.425l-.318-.318c-.106-.106-.212-.106-.424-.106a1.312 1.312 0 0 0 -.845.427zm-26.723 2.863v-7.844h.955v7.844zm-7.423 0v-7.844h.954v7.844zm-13.468 0v-7.844h.954v7.844zm-17.606 0c-.211 0-.424-.106-.636-.106a.815.815 0 0 1 -.53-.212 1.45 1.45 0 0 1 -.318-.425 1.8 1.8 0 0 1 -.106-.743v-6.358h.954v6.044a1.343 1.343 0 0 0 .106.636.9.9 0 0 0 .636.212h1.912v-3.286h.849v4.238zm-16.862 0v-7.844h.849v7.844zm9.545-5.939h.849v.53l-.849.531zm-1.378 0h.848v.53l-.848.531zm64.163-.743h.954v.636l-.954.53zm-1.379 0h.954v.636l-.954.53zm-29.483 0h.954v.636l-.954.53zm-1.379 0h.954v.636l-.954.53zm-21.317 0h.849v.636l-.849.53zm-38.392.11h.955v.53l-.955.53zm-7.849-.848h.955v.531l-.955.53zm-1.379 0h.955v.531l-.955.53zm86.86-18.348c0-7.632 5.408-12.832 13.362-12.832s13.469 5.2 13.469 12.832-5.409 12.833-13.469 12.833-13.362-5.302-13.362-12.833zm7.212 0c0 3.924 2.545 6.575 6.151 6.682s6.258-2.758 6.258-6.682-2.545-6.681-6.258-6.681-6.152 2.757-6.152 6.681zm-68.194 11.985v-23.968h9.862c8.273 0 13.682 4.772 13.682 11.984s-5.515 11.984-13.681 11.984zm7-5.409h2.863a6.162 6.162 0 0 0 6.47-5.833v-.743a6.238 6.238 0 0 0 -5.728-6.575h-3.605zm43.27 5.3v-15.375l-5.409 15.377h-5.3l-5.411-15.271v15.271h-7v-23.861h9.227l5.833 16.332 5.726-16.332h9.333v23.861zm-62.466 0-8.272-15.163v15.165h-6.682v-19.51l7.529-4.351 8.171 15.165v-11.241l6.784-3.924v23.861z" fill="#fff" transform="translate(72.965)"/></svg>