<svg height="64.926" viewBox="0 0 187.957 64.926" width="187.957" xmlns="http://www.w3.org/2000/svg" xmlns:xlink="http://www.w3.org/1999/xlink"><linearGradient id="a" gradientUnits="objectBoundingBox" x1="-1.133" x2="3.383" y1="4.665" y2="-.426"><stop offset="0" stop-color="#6cf"/><stop offset=".5" stop-color="#6258a6"/><stop offset=".99" stop-color="#273470"/></linearGradient><linearGradient id="b" x1="-.835" x2="3.68" xlink:href="#a" y1="2.573" y2="-2.517"/><linearGradient id="c" x1="-1.182" x2="3.318" xlink:href="#a" y1="2.903" y2="-2.145"/><linearGradient id="d" x1="-3.753" x2=".749" xlink:href="#a" y1=".546" y2="-4.502"/><linearGradient id="e" x1="-2.862" x2="1.638" xlink:href="#a" y1="2.193" y2="-2.926"/><linearGradient id="f" x1="-2.085" x2="2.417" xlink:href="#a" y1="-.956" y2="-6.004"/><linearGradient id="g" x1="-.859" x2="3.643" xlink:href="#a" y1="-.588" y2="-5.707"/><linearGradient id="h" x1="-.819" x2="2.756" xlink:href="#a" y1="5.019" y2=".983"/><linearGradient id="i" x1="-.181" x2="3.432" xlink:href="#a" y1="5.83" y2="1.758"/><linearGradient id="j" x1=".097" x2="3.708" xlink:href="#a" y1="2.506" y2="-1.566"/><linearGradient id="k" x1=".011" x2="3.585" xlink:href="#a" y1="3.587" y2="-.448"/><linearGradient id="l" x1=".496" x2=".496" xlink:href="#a" y1="5.711" y2=".192"/><linearGradient id="m" x1=".501" x2=".501" xlink:href="#a" y1="5.086" y2="-.433"/><linearGradient id="n" x1=".497" x2=".497" xlink:href="#a" y1="5.086" y2="-.433"/><linearGradient id="o" x1=".501" x2=".501" xlink:href="#a" y1="4.461" y2="-1.058"/><linearGradient id="p" x1=".497" x2=".497" xlink:href="#a" y1="4.461" y2="-1.058"/><linearGradient id="q" x1=".499" x2=".499" xlink:href="#a" y1="3.836" y2="-1.683"/><linearGradient id="r" x1=".503" x2=".503" xlink:href="#a" y1="5.711" y2=".192"/><linearGradient id="s" x1=".501" x2=".501" xlink:href="#a" y1="3.836" y2="-1.683"/><linearGradient id="t" x1=".499" x2=".499" xlink:href="#a" y1="4.461" y2="-1.058"/><linearGradient id="u" x1=".496" x2=".496" xlink:href="#a" y1="5.086" y2="-.433"/><linearGradient id="v" x1=".501" x2=".501" xlink:href="#a" y1="1.039" y2="-4.432"/><linearGradient id="w" x1=".498" x2=".498" xlink:href="#a" y1="2.34" y2="-3.21"/><linearGradient id="x" x1=".506" x2=".506" xlink:href="#a" y1="1.9" y2="-3.572"/><linearGradient id="y" x1=".496" x2=".496" xlink:href="#a" y1="1.227" y2="-4.324"/><linearGradient id="z" x1=".503" x2=".503" xlink:href="#a" y1="2.941" y2="-2.61"/><linearGradient id="A" x1=".493" x2=".493" xlink:href="#a" y1="2.941" y2="-2.61"/><linearGradient id="B" x1=".496" x2=".496" xlink:href="#a" y1="4.536" y2="-1.014"/><linearGradient id="C" x1=".497" x2=".497" xlink:href="#a" y1="5.751" y2="1.335"/><linearGradient id="D" x1=".501" x2=".501" xlink:href="#a" y1="5.204" y2=".827"/><linearGradient id="E" x1=".499" x2=".499" xlink:href="#a" y1="5.204" y2=".828"/><linearGradient id="F" x1=".498" x2=".498" xlink:href="#a" y1="5.204" y2=".828"/><linearGradient id="G" x1=".5" x2=".5" xlink:href="#a" y1="4.708" y2=".332"/><linearGradient id="H" x1=".5" x2=".5" xlink:href="#a" y1="4.242" y2="-.174"/><linearGradient id="I" x1=".497" x2=".497" xlink:href="#a" y1="5.204" y2=".828"/><path d="m51.066 11.666-10.181-5.833-10.075-5.833-10.181 5.833-10.181 5.833-10.076 5.939v11.666l10.075-5.833 10.181-5.833 10.182-5.939 10.075 5.939 10.181 5.833 10.075 5.833v-11.666z" fill="#6cf" transform="translate(-.054)"/><path d="m45.179 22.967v9.333l-8.06-4.666z" fill="url(#a)" transform="translate(-5.408 -3.346)"/><path d="m13.408 29.794 8.06 4.666-8.06 4.666z" fill="url(#b)" transform="translate(-1.953 -4.342)"/><path d="m32.664 34.14v7.53l-6.469-3.712z" fill="url(#c)" transform="translate(-3.816 -4.975)"/><path d="m68.293 57.23v7.53l-6.469-3.818z" fill="url(#d)" transform="translate(-9.007 -8.34)"/><path d="m49.906 43.574 6.469 3.712-6.469 3.714z" fill="url(#e)" transform="translate(-7.271 -6.35)"/><path d="m16.884 53.382 6.469 3.712-6.469 3.818z" fill="url(#f)" transform="translate(-2.461 -7.779)"/><path d="m6.469 47.919v7.424l-6.469-3.712z" fill="url(#g)" transform="translate(0 -6.982)"/><path d="m57.977 13.656v11.772l-10.177-5.833z" fill="url(#h)" transform="translate(-6.965 -1.99)"/><path d="m36 0 10.077 5.833-10.077 5.833z" fill="url(#i)" transform="translate(-5.246)"/><path d="m.372 20.608 10.075 5.833-10.075 5.833z" fill="url(#j)" transform="translate(-.054 -3.002)"/><path d="m12.166 13.656 10.181 5.939-10.181 5.833z" fill="url(#k)" transform="translate(-1.773 -1.99)"/><path d="m33.385 16.139v9.333l-8.06-4.666z" fill="url(#l)" transform="translate(-3.689 -2.351)"/><path d="m21.468 22.967v9.333l-8.06-4.666z" fill="url(#m)" transform="translate(-1.953 -3.346)"/><path d="m49.037 22.967 8.06 4.666-8.06 4.667z" fill="url(#n)" transform="translate(-7.144 -3.346)"/><path d="m9.656 29.794v9.333l-8.166-4.666z" fill="url(#o)" transform="translate(-.216 -4.342)"/><path d="m57.1 29.794v9.333l-8.06-4.666z" fill="url(#p)" transform="translate(-7.144 -4.342)"/><path d="m69 36.622v9.333l-8.17-4.666z" fill="url(#q)" transform="translate(-8.863 -5.336)"/><path d="m37.119 16.139 8.06 4.666-8.06 4.666z" fill="url(#r)" transform="translate(-5.408 -2.351)"/><path d="m1.49 36.622 8.166 4.666-8.166 4.667z" fill="url(#s)" transform="translate(-.216 -5.336)"/><path d="m60.83 29.794 8.17 4.667-8.17 4.666z" fill="url(#t)" transform="translate(-8.863 -4.342)"/><path d="m25.325 22.967 8.06 4.666-8.06 4.667z" fill="url(#u)" transform="translate(-3.689 -3.346)"/><path d="m2.483 57.23 6.469 3.712-6.469 3.818z" fill="url(#v)" transform="translate(-.361 -8.34)"/><path d="m61.824 47.919 6.469 3.712-6.469 3.712z" fill="url(#w)" transform="translate(-9.007 -6.982)"/><path d="m56.375 50.9v7.53l-6.469-3.818z" fill="url(#x)" transform="translate(-7.271 -7.416)"/><path d="m44.581 55.989v7.424l-6.469-3.713z" fill="url(#y)" transform="translate(-5.552 -8.158)"/><path d="m26.194 43.574 6.469 3.712-6.469 3.714z" fill="url(#z)" transform="translate(-3.816 -6.35)"/><path d="m20.87 43.574v7.426l-6.47-3.714z" fill="url(#A)" transform="translate(-2.097 -6.35)"/><path d="m38.112 32.029 6.469 3.712-6.469 3.712z" fill="url(#B)" transform="translate(-5.552 -4.668)"/><path d="m34.265 0v11.666l-10.181-5.833z" fill="url(#C)" transform="translate(-3.509)"/><path d="m22.347 6.828v11.772l-10.181-5.939z" fill="url(#D)" transform="translate(-1.773 -.994)"/><path d="m47.8 6.828 10.181 5.833-10.181 5.939z" fill="url(#E)" transform="translate(-6.965 -.994)"/><path d="m46.077 6.828v11.772l-10.077-5.939z" fill="url(#F)" transform="translate(-5.246 -.994)"/><path d="m10.448 13.656v11.772l-10.076-5.833z" fill="url(#G)" transform="translate(-.054 -1.99)"/><path d="m69.788 20.608v11.666l-10.075-5.833z" fill="url(#H)" transform="translate(-8.701 -3.002)"/><path d="m59.713 13.656v11.772l10.075-5.833z" fill="url(#G)" transform="translate(-8.701 -1.99)"/><path d="m24.084 6.828 10.181 5.833-10.181 5.939z" fill="url(#I)" transform="translate(-3.509 -.994)"/><g fill="#444"><path d="m87.426 43h.636c.212 0 .318-.106.53-.106a.81.81 0 0 0 .212.53l.318.318c.106.106.318.106.424.212h1.8a3.608 3.608 0 0 0 1.061-.106 1.086 1.086 0 0 0 .636-.53 2.319 2.319 0 0 0 .318.53 1.533 1.533 0 0 0 .742.212h.954a3.608 3.608 0 0 0 1.061-.106 1.086 1.086 0 0 0 .636-.53 2.32 2.32 0 0 0 .318.53 1.533 1.533 0 0 0 .742.212h7.53v-1.907a3.177 3.177 0 0 0 -.636-1.909 2.024 2.024 0 0 0 -1.7-.636 3.575 3.575 0 0 0 -1.8.53 5.191 5.191 0 0 0 -1.273 1.379v-5.623h-.848v7h-1.268c-.212 0-.318 0-.424-.106-.106 0-.212-.106-.318-.212s-.106-.212-.106-.424v-2.65h-.848v2.545a.638.638 0 0 1 -.106.424.228.228 0 0 1 -.212.212.39.39 0 0 1 -.318.106h-1.38c-.212 0-.318 0-.424-.106-.106 0-.212-.106-.318-.212s-.106-.212-.106-.424v-2.653h-.959v2.545a.638.638 0 0 1 -.106.424.228.228 0 0 1 -.212.212.39.39 0 0 1 -.318.106h-1.481a.779.779 0 0 1 -.636-.212.7.7 0 0 1 -.106-.636v-3.18h-1.7a2.335 2.335 0 0 0 -.848.106 5.169 5.169 0 0 0 -.742.318 2.812 2.812 0 0 0 -.53.636 2.254 2.254 0 0 0 0 1.909 1.278 1.278 0 0 0 .53.53l.636.318a1.613 1.613 0 0 0 .639.424zm12.939-.848c.212-.318.424-.53.636-.848a5.883 5.883 0 0 1 .848-.636 1.576 1.576 0 0 1 .954-.212 1.8 1.8 0 0 1 .742.106 1.862 1.862 0 0 1 .53.424c.106.212.212.318.212.53a1.573 1.573 0 0 1 .106.742v.742h-4.453a2.132 2.132 0 0 1 .425-.847zm-14-1.061a1.2 1.2 0 0 1 .318-.848.825.825 0 0 1 .848-.212h.954v1.909a.956.956 0 0 1 -.53.106h-.53a1.71 1.71 0 0 1 -.954-.318.7.7 0 0 1 -.106-.636z" transform="translate(-12.445 -5.246)"/><path d="m110.522 43.425c.212.106.424.318.636.318a2.335 2.335 0 0 0 .848.106h1.273a1.966 1.966 0 0 1 -.212.742 1.059 1.059 0 0 1 -.53.424 1.966 1.966 0 0 1 -.742.212h-1.273v.954h.424a5.163 5.163 0 0 0 1.273-.106l.954-.318a1.426 1.426 0 0 0 .636-.742 2.046 2.046 0 0 0 .318-1.061h3.394v-7.954h-.848v7h-2.545v-.53a4.351 4.351 0 0 0 -.106-1.167l-.318-.954a2.812 2.812 0 0 0 -.636-.53 2.254 2.254 0 0 0 -1.909 0 1.559 1.559 0 0 0 -.636.53 2.659 2.659 0 0 0 -.424.742 2.335 2.335 0 0 0 -.106.848 1.143 1.143 0 0 0 .212.848.641.641 0 0 0 .317.638zm.318-2.121a.551.551 0 0 1 .212-.424 1.464 1.464 0 0 1 .424-.318.956.956 0 0 1 .53-.106.927.927 0 0 1 .954.53 2.824 2.824 0 0 1 .318 1.273v.741h-1.167a3.1 3.1 0 0 1 -.954-.212 1.2 1.2 0 0 1 -.318-.848v-.64z" transform="translate(-16.027 -5.246)"/><path d="m103.084 30.756h.848v7.848h-.848z"/><path d="m126.678 44.165a5.171 5.171 0 0 0 .742.318 3.608 3.608 0 0 0 1.061.106h6.681v-4.242h-.954v3.288h-6.151c-.212 0-.318-.106-.53-.106l-.318-.318a.956.956 0 0 1 -.106-.53v-1.381h-.848v1.7a1.8 1.8 0 0 0 .106.742c.105.104.211.317.317.423z" transform="translate(-18.396 -5.879)"/><path d="m138.969 43.532a.81.81 0 0 0 .53.212c.212 0 .424.106.636.106h2.865v-4.242h-.848v3.292h-1.909a.9.9 0 0 1 -.636-.212 1.345 1.345 0 0 1 -.106-.636v-6.052h-.955v6.363a1.8 1.8 0 0 0 .106.742 1.464 1.464 0 0 0 .317.427z" transform="translate(-20.187 -5.246)"/><path d="m145.9 43.532a.81.81 0 0 0 .53.212 1.345 1.345 0 0 0 .636.106h1.167a3.608 3.608 0 0 0 1.061-.106 1.086 1.086 0 0 0 .636-.53 2.319 2.319 0 0 0 .318.53 1.533 1.533 0 0 0 .742.212h.954a3.608 3.608 0 0 0 1.061-.106 1.086 1.086 0 0 0 .636-.53 2.317 2.317 0 0 0 .318.53 1.533 1.533 0 0 0 .742.212h2.651v-8.062h-.848v7h-1.8c-.212 0-.318 0-.424-.106-.106 0-.212-.106-.318-.212s-.106-.212-.106-.424v-2.65h-1.166v2.545a.638.638 0 0 1 -.106.424.228.228 0 0 1 -.212.212.39.39 0 0 1 -.318.106h-1.167c-.212 0-.318 0-.424-.106-.106 0-.212-.106-.318-.212s-.106-.212-.106-.424v-2.653h-.954v2.545a.637.637 0 0 1 -.106.424.228.228 0 0 1 -.212.212.39.39 0 0 1 -.318.106h-1.379a.9.9 0 0 1 -.636-.212 1.345 1.345 0 0 1 -.106-.636v-5.939h-.954v6.363a1.805 1.805 0 0 0 .106.742z" transform="translate(-21.183 -5.246)"/><path d="m137.553 30.756h.954v7.848h-.954z"/><path d="m170.649 41.583a1.709 1.709 0 0 0 -.424-.742 2.811 2.811 0 0 0 -.636-.53 1.8 1.8 0 0 0 -1.7 0 1.238 1.238 0 0 0 -.636.636 2.132 2.132 0 0 0 -.424.848 2.335 2.335 0 0 0 -.106.848 2.067 2.067 0 0 0 .106.848 2.219 2.219 0 0 0 .424.636.917.917 0 0 0 .636.318 2.335 2.335 0 0 0 .848.106 1.576 1.576 0 0 0 .954-.212 1.95 1.95 0 0 0 1.061-1.061 1.572 1.572 0 0 0 .106-.742 3.1 3.1 0 0 0 -.209-.953zm-.742 1.485-.318.318c-.106.106-.212.106-.424.212h-.424a.956.956 0 0 1 -.53-.106.8.8 0 0 1 -.424-.212c-.106-.106-.212-.212-.212-.318a.956.956 0 0 1 -.106-.53.8.8 0 0 1 .106-.53c.106-.212.106-.318.212-.53a1.463 1.463 0 0 1 .424-.318.8.8 0 0 1 .53-.106c.212 0 .318 0 .424.106s.318.212.424.318a2.318 2.318 0 0 1 .318.53 1.345 1.345 0 0 1 .106.636 4.6 4.6 0 0 1 -.106.53z" transform="translate(-24.295 -5.844)"/><path d="m173.672 43.831v.954a1.508 1.508 0 0 1 -.212.636c-.106.212-.212.318-.424.318a2.335 2.335 0 0 1 -.848.106v.955a2.1 2.1 0 0 0 1.167-.212 1.227 1.227 0 0 0 .742-.53 1.2 1.2 0 0 0 .318-.848 6.047 6.047 0 0 0 .106-1.379v-2.864h-.954z" transform="translate(-25.09 -5.969)"/><path d="m151.022 30.756h.954v7.848h-.954z"/><path d="m182.851 44.11a1.2 1.2 0 0 0 .318-.848.956.956 0 0 0 -.106-.53l-.318-.636a9.79 9.79 0 0 0 -.53-.848 6.731 6.731 0 0 1 -.742-1.273l-.848.53.848 1.273.53.742a.551.551 0 0 1 .212.424v.212c0 .106 0 .212-.106.212a.638.638 0 0 1 -.424.106h-2.545v.954h2.651a1.076 1.076 0 0 0 1.06-.318z" transform="translate(-26.103 -5.824)"/><path d="m186.723 47.542h-.636c-.212 0-.318 0-.424-.106s-.106-.212-.106-.424a.39.39 0 0 1 .106-.318c.106-.106.212-.212.424-.106.212 0 .318 0 .424.106v-.53c-.106 0-.106-.106-.212-.106h-.318a.39.39 0 0 0 -.318.106 1.278 1.278 0 0 0 -.53.53.638.638 0 0 0 -.106.424.8.8 0 0 0 .106.53h-.53v.424h2.015z" transform="translate(-26.898 -6.711)"/><path d="m158.446 30.756h.954v7.848h-.954z"/><path d="m215.362 40.458a2.219 2.219 0 0 0 -.636-.424 1.966 1.966 0 0 0 -.742-.212 1.345 1.345 0 0 0 -.636.106l-.636.318a2.811 2.811 0 0 0 -.53.636 3.92 3.92 0 0 0 -.53 1.167c-.106.212-.106.318-.212.53l-.318.318a.39.39 0 0 1 -.322.103h-1.167c-.106 0-.212-.106-.318-.212a1.464 1.464 0 0 1 -.318-.424 1.507 1.507 0 0 1 -.212-.636 4.035 4.035 0 0 0 -.955-1.379 4.79 4.79 0 0 0 -1.8-1.167l3.288-1.485v-.954l-4.136 1.8a.1.1 0 0 0 -.106.106c0 .106-.106.106-.106.212a.37.37 0 0 1 -.106.212v.327l1.273.636a3.81 3.81 0 0 1 1.061.742c.212.212.53.424.636.742a1.507 1.507 0 0 1 .212.636.81.81 0 0 1 -.212.53 2 2 0 0 1 -.848.212h-2.439c-.212 0-.318 0-.424-.106-.106 0-.212-.106-.318-.212s-.106-.212-.106-.424v-2.656h-.954v2.545a.638.638 0 0 1 -.106.424.228.228 0 0 1 -.212.212.39.39 0 0 1 -.318.106h-1.061c-.212 0-.318 0-.424-.106-.106 0-.212-.106-.318-.212s-.106-.212-.106-.424v-2.645h-.955v2.545a.638.638 0 0 1 -.106.424.228.228 0 0 1 -.212.212c-.106.106-.212.106-.424.106h-5.515c-.212 0-.318-.106-.53-.106l-.318-.318a.956.956 0 0 1 -.106-.53v-1.381h-.848v1.7a1.8 1.8 0 0 0 .106.742 1.862 1.862 0 0 0 .424.53l.636.318a3.608 3.608 0 0 0 1.061.106h5.3a1.345 1.345 0 0 0 .636-.106.8.8 0 0 0 .424-.212c.106-.106.212-.212.212-.318a2.318 2.318 0 0 0 .318.53 1.507 1.507 0 0 0 .636.212h.742a3.608 3.608 0 0 0 1.061-.106 1.086 1.086 0 0 0 .636-.53 2.321 2.321 0 0 0 .318.53 1.533 1.533 0 0 0 .742.212h2.227a2.1 2.1 0 0 0 1.167-.212 1.048 1.048 0 0 0 .742-.742 1.464 1.464 0 0 0 .318.424c.106.106.212.212.318.212.106.106.212.106.424.106h1.273a.39.39 0 0 0 .318-.106c.106 0 .212-.106.318-.212l.318-.318a9.33 9.33 0 0 0 1.061.636 3.768 3.768 0 0 0 1.061.212 2.016 2.016 0 0 0 1.379-.53 1.9 1.9 0 0 0 .424-1.485 2.068 2.068 0 0 0 -.106-.848.917.917 0 0 0 -.318-.639zm-.636 2.439a.656.656 0 0 1 -.742.212 2.5 2.5 0 0 1 -.848-.212 3.176 3.176 0 0 1 -.848-.424 3.492 3.492 0 0 1 .742-1.379 1.309 1.309 0 0 1 .848-.424c.212 0 .318 0 .424.106l.318.318c.106.106.106.212.212.424a4.594 4.594 0 0 1 .106.53.825.825 0 0 1 -.212.848z" transform="translate(-27.857 -5.353)"/><path d="m89.469 36.5h-.954v1.061l.954-.53z" transform="translate(-12.898 -5.318)"/><path d="m87.855 36.5h-.955v1.061l.954-.53z" transform="translate(-12.662 -5.318)"/><path d="m132.689 38.236h-.848v1.064l.848-.53z" transform="translate(-19.211 -5.572)"/><path d="m131.075 38.236h-.848v1.064l.848-.53z" transform="translate(-18.976 -5.572)"/><path d="m95.073 46.554h-.848v1.061l.848-.53z" transform="translate(-13.73 -6.783)"/><path d="m93.46 46.554h-.848v1.061l.848-.53z" transform="translate(-13.494 -6.783)"/><path d="m151.417 46.554h-.954v1.061l.954-.53z" transform="translate(-21.923 -6.783)"/><path d="m149.8 46.554h-.955v1.061l.955-.53z" transform="translate(-21.689 -6.783)"/><path d="m170.162 37.367h-.954v1.167l.954-.53z" transform="translate(-24.656 -5.445)"/><path d="m168.548 37.367h-.954v1.167l.954-.53z" transform="translate(-24.42 -5.445)"/><path d="m206.288 37.367h-.954v1.167l.954-.53z" transform="translate(-29.92 -5.445)"/><path d="m204.674 37.367h-.954v1.167l.954-.53z" transform="translate(-29.685 -5.445)"/><path d="m196.623 46.554h-.848v1.061l.848-.53z" transform="translate(-28.527 -6.783)"/><path d="m154.644 46.43h-.954v1.17l.954-.53z" transform="translate(-22.394 -6.766)"/><path d="m143.49 37.367h-.848v1.167l.848-.53z" transform="translate(-20.785 -5.445)"/><path d="m98.656 37.491h-.956v1.061l.954-.53z" transform="translate(-14.236 -5.463)"/><path d="m87.252 53.253h.106l3.924 6.047h1.061v-7.53h-.954v6.151l-3.924-6.151h-1.065v7.53h.848z" transform="translate(-12.59 -7.543)"/><path d="m97.682 59.554a1.649 1.649 0 0 0 .848-.636 1.507 1.507 0 0 0 .212.636.81.81 0 0 0 .53.212 1.345 1.345 0 0 0 .636-.106v-.742h-.318c-.106 0-.212 0-.212-.106v-3.183a.9.9 0 0 0 -.212-.742 1.059 1.059 0 0 0 -.53-.424 1.507 1.507 0 0 0 -.636-.212h-.742a2.067 2.067 0 0 0 -.848.106c-.212.106-.53.212-.742.318a1.278 1.278 0 0 0 -.53.53 2.5 2.5 0 0 0 -.212.848h.848a.965.965 0 0 1 .424-.848 3.1 3.1 0 0 1 .954-.212h.424c.106 0 .318.106.424.106l.318.318a.8.8 0 0 1 .106.53.638.638 0 0 1 -.106.424.551.551 0 0 1 -.424.212c-.212 0-.424.106-.636.106s-.424.106-.742.106a1.507 1.507 0 0 0 -.636.212c-.212.106-.424.106-.636.318a1.059 1.059 0 0 0 -.424.53 1.807 1.807 0 0 0 0 1.485 1.861 1.861 0 0 0 .424.53 1.507 1.507 0 0 0 .636.212 1.572 1.572 0 0 0 .742.106c.424-.422.742-.422 1.06-.634zm-1.591-.742a.756.756 0 0 1 -.318-.636.638.638 0 0 1 .106-.424c.106-.106.106-.212.212-.318s.212-.106.318-.212l.424-.106c.106 0 .318-.106.424-.106l.424-.106.424-.106c.106 0 .212-.106.318-.106v1.061a.638.638 0 0 1 -.106.424c-.106.106-.212.318-.318.424a2.319 2.319 0 0 1 -.53.318 1.805 1.805 0 0 1 -.742.106h-.427c0-.108-.1-.108-.209-.214z" transform="translate(-13.793 -7.904)"/><path d="m104.041 59.37v-.848h-.741c-.106 0-.106 0-.212-.106l-.106-.106v-3.61h1.061v-.848h-1.063v-1.588h-.848v1.591h-.955v.845h.955v3.5a1.345 1.345 0 0 0 .106.636c0 .106.106.318.212.318.106.106.212.106.424.212h1.167z" transform="translate(-14.742 -7.615)"/><path d="m90.358 46.24h.848v5.515h-.848z"/><path d="m111.929 59.481a1.649 1.649 0 0 0 .848-.636 2.781 2.781 0 0 0 .53-.954 3.813 3.813 0 0 0 .212-1.167 2.284 2.284 0 0 0 -.212-1.167 4.3 4.3 0 0 0 -.53-.954 5.883 5.883 0 0 0 -.848-.636 3.813 3.813 0 0 0 -1.167-.212 4.51 4.51 0 0 0 -1.167.212 1.649 1.649 0 0 0 -.848.636 4.3 4.3 0 0 0 -.53.954 3.812 3.812 0 0 0 -.217 1.167 2.283 2.283 0 0 0 .212 1.167 4.3 4.3 0 0 0 .53.954 5.881 5.881 0 0 0 .848.636 3.813 3.813 0 0 0 1.167.212 2.1 2.1 0 0 0 1.172-.212zm-2.329-1.06a.917.917 0 0 1 -.318-.636 2.636 2.636 0 0 1 -.106-.848 2.067 2.067 0 0 1 .106-.848l.318-.636a1.059 1.059 0 0 1 .53-.424 1.962 1.962 0 0 1 1.273 0 1.059 1.059 0 0 1 .53.424.917.917 0 0 1 .318.636 2.335 2.335 0 0 1 .106.848 2.067 2.067 0 0 1 -.106.848l-.318.636a1.059 1.059 0 0 1 -.53.424 1.345 1.345 0 0 1 -.636.106 1.7 1.7 0 0 1 -1.167-.53z" transform="translate(-15.738 -7.832)"/><path d="m117.363 54.957a1.573 1.573 0 0 1 .742-.106 1 1 0 0 1 1.061 1.061v3.712h.848v-3.606a2.335 2.335 0 0 0 -.106-.848l-.318-.636a.974.974 0 0 0 -.636-.424 2.636 2.636 0 0 0 -.854-.11 3.768 3.768 0 0 0 -1.061.212 2.477 2.477 0 0 0 -.742.742v-.848h-.848v5.515h1.061v-3.073a1.345 1.345 0 0 1 .106-.636 2.317 2.317 0 0 1 .318-.53c.11-.213.323-.319.429-.425z" transform="translate(-16.822 -7.869)"/><path d="m125.136 59.554a1.649 1.649 0 0 0 .848-.636.779.779 0 0 0 .212.636.81.81 0 0 0 .53.212 1.345 1.345 0 0 0 .636-.106v-.742h-.318c-.106 0-.212 0-.212-.106v-3.183a.9.9 0 0 0 -.212-.742c-.106-.212-.318-.318-.424-.424a1.507 1.507 0 0 0 -.636-.212h-.742a2.068 2.068 0 0 0 -.848.106c-.212.106-.53.212-.742.318a1.278 1.278 0 0 0 -.53.53 2.5 2.5 0 0 0 -.212.848h.848a.964.964 0 0 1 .424-.848 3.1 3.1 0 0 1 .954-.212h.424c.106 0 .318.106.424.106l.318.318a.8.8 0 0 1 .106.53.638.638 0 0 1 -.106.424.551.551 0 0 1 -.424.212c-.212 0-.318.106-.636.106-.212 0-.424.106-.742.106a1.507 1.507 0 0 0 -.636.212c-.212.106-.424.106-.636.318a1.059 1.059 0 0 0 -.424.53 1.807 1.807 0 0 0 0 1.485 1.862 1.862 0 0 0 .424.53 1.507 1.507 0 0 0 .636.212 1.572 1.572 0 0 0 .742.106c.212-.422.53-.422.954-.634zm-1.7-.742c-.106-.106-.212-.106-.212-.212-.106-.106-.106-.212-.106-.424a.638.638 0 0 1 .106-.424c.106-.106.106-.212.212-.318s.212-.106.318-.212l.424-.106c.106 0 .318-.106.424-.106l.424-.106.424-.106c.106 0 .212-.106.318-.106v1.061a.638.638 0 0 1 -.106.424c-.106.106-.212.318-.318.424a2.319 2.319 0 0 1 -.53.318 1.8 1.8 0 0 1 -.742.106h-.424c.003-.108-.103-.108-.209-.214z" transform="translate(-17.808 -7.904)"/><path d="m110.403 44.225h.848v7.636h-.848z"/><path d="m140.974 58.216a2.419 2.419 0 0 0 .636-1.273 9.28 9.28 0 0 0 .212-1.7 3.42 3.42 0 0 0 -.954-2.757 3.492 3.492 0 0 0 -2.651-.848h-2.651v7.53h2.651a8.186 8.186 0 0 0 1.591-.212 2.016 2.016 0 0 0 1.166-.74zm-.318-1.591c-.106.318-.212.53-.318.848a1.278 1.278 0 0 1 -.53.53c-.212.106-.318.212-.53.318a.956.956 0 0 1 -.53.106h-2.121v-5.832h1.7a3.812 3.812 0 0 1 1.167.212 1.9 1.9 0 0 1 .742.53 2.132 2.132 0 0 1 .424.848 5.164 5.164 0 0 1 .106 1.273 3.977 3.977 0 0 1 -.111 1.167z" transform="translate(-19.754 -7.521)"/><path d="m148.328 59.766a1.345 1.345 0 0 0 .636-.106v-.742h-.318c-.106 0-.212 0-.212-.106v-3.183a.9.9 0 0 0 -.212-.742c-.106-.212-.318-.318-.424-.424a1.507 1.507 0 0 0 -.636-.212h-.742a2.067 2.067 0 0 0 -.848.106c-.212.106-.53.212-.742.318a1.278 1.278 0 0 0 -.53.53 2.5 2.5 0 0 0 -.212.848h.848a.965.965 0 0 1 .424-.848 3.1 3.1 0 0 1 .954-.212h.424c.106 0 .318.106.424.106l.318.318a.8.8 0 0 1 .106.53.638.638 0 0 1 -.106.424.551.551 0 0 1 -.424.212c-.212 0-.424.106-.636.106s-.424.106-.742.106a1.507 1.507 0 0 0 -.636.212c-.212.106-.424.106-.636.318a1.059 1.059 0 0 0 -.424.53 1.807 1.807 0 0 0 0 1.485 1.863 1.863 0 0 0 .424.53 1.507 1.507 0 0 0 .636.212 1.572 1.572 0 0 0 .742.106 3.768 3.768 0 0 0 1.061-.212 1.649 1.649 0 0 0 .848-.636 1.507 1.507 0 0 0 .212.636c.105-.21.211-.21.423-.21zm-.848-2.015a.638.638 0 0 1 -.106.424c-.106.106-.212.318-.318.424a2.319 2.319 0 0 1 -.53.318 1.8 1.8 0 0 1 -.742.106h-.424c-.106 0-.212-.106-.318-.106a.756.756 0 0 1 -.318-.636.638.638 0 0 1 .106-.424c.106-.106.106-.212.212-.318s.212-.106.318-.212l.424-.106c.106 0 .318-.106.424-.106l.424-.106.424-.106c.106 0 .212-.106.318-.106z" transform="translate(-20.957 -7.904)"/><path d="m153.077 54.7v-.848h-1.061v-1.588h-.848v1.591h-.954v.845h.954v3.5a1.345 1.345 0 0 0 .106.636c0 .106.106.318.212.318.106.106.212.106.424.212h1.379v-.848h-.954c-.106 0-.106 0-.212-.106l-.106-.106v-3.606z" transform="translate(-21.888 -7.615)"/><path d="m159.092 58.811v-3.182a.9.9 0 0 0 -.212-.742c-.106-.212-.318-.318-.424-.424a1.508 1.508 0 0 0 -.636-.212h-.742a2.068 2.068 0 0 0 -.848.106c-.212.106-.53.212-.742.318a1.278 1.278 0 0 0 -.53.53 2.5 2.5 0 0 0 -.212.848h.848a.965.965 0 0 1 .424-.848 3.1 3.1 0 0 1 .954-.212h.424c.106 0 .318.106.424.106l.318.318a.8.8 0 0 1 .106.53.638.638 0 0 1 -.106.424.551.551 0 0 1 -.424.212c-.212 0-.424.106-.636.106s-.424.106-.742.106a2.7 2.7 0 0 0 -.742.212c-.212.106-.424.106-.636.318a1.059 1.059 0 0 0 -.424.53 1.807 1.807 0 0 0 0 1.485 1.349 1.349 0 0 0 .955.742 1.572 1.572 0 0 0 .742.106 3.768 3.768 0 0 0 1.061-.212 1.649 1.649 0 0 0 .848-.636 1.508 1.508 0 0 0 .212.636.81.81 0 0 0 .53.212 1.345 1.345 0 0 0 .636-.106v-.742h-.318a2.161 2.161 0 0 0 -.108-.529zm-.955-1.061a.638.638 0 0 1 -.106.424c-.106.106-.212.318-.318.424a2.319 2.319 0 0 1 -.53.318 1.8 1.8 0 0 1 -.742.106h-.424c-.106 0-.212-.106-.318-.106a.756.756 0 0 1 -.318-.636.963.963 0 0 1 .318-.742c.106-.106.212-.106.318-.212l.424-.106c.106 0 .318-.106.424-.106l.424-.106.424-.106c.106 0 .212-.106.318-.106z" transform="translate(-22.494 -7.904)"/><path d="m90.116 70.67-2.333-6.363h-1.383v7.53h.954v-6.258l2.333 6.257h.954l2.333-6.257v6.257h.954v-7.53h-1.373z" transform="translate(-12.59 -9.371)"/><path d="m101.25 71.456v-3.288a.9.9 0 0 0 -.212-.742c-.106-.212-.318-.318-.424-.424a1.508 1.508 0 0 0 -.636-.212h-.742a2.068 2.068 0 0 0 -.848.106c-.212.106-.53.212-.742.318a1.278 1.278 0 0 0 -.53.53 2.5 2.5 0 0 0 -.212.848h.848a.965.965 0 0 1 .424-.848 3.1 3.1 0 0 1 .954-.212h.424c.106 0 .318.106.424.106l.318.318a.8.8 0 0 1 .106.53.638.638 0 0 1 -.106.424.551.551 0 0 1 -.424.212c-.212 0-.424.106-.636.106s-.424.106-.742.106a1.137 1.137 0 0 0 -.636.212c-.212.106-.424.106-.636.318a1.059 1.059 0 0 0 -.424.53 1.966 1.966 0 0 0 -.212.742 1.8 1.8 0 0 0 .106.742 1.862 1.862 0 0 0 .424.53l.636.318a1.572 1.572 0 0 0 .742.106 3.768 3.768 0 0 0 1.061-.212 1.649 1.649 0 0 0 .848-.636.779.779 0 0 0 .212.636.81.81 0 0 0 .53.212 1.345 1.345 0 0 0 .636-.106v-.742h-.318c-.107-.422-.107-.422-.213-.528zm-.85-1.056a.638.638 0 0 1 -.106.424c-.106.106-.212.318-.318.424a2.318 2.318 0 0 1 -.53.318 1.8 1.8 0 0 1 -.742.106h-.424c-.106 0-.212-.106-.318-.106-.106-.106-.212-.106-.212-.212-.106-.106-.106-.212-.106-.424a.638.638 0 0 1 .106-.424c.106-.106.106-.212.212-.318s.212-.106.318-.212l.424-.106.424-.106.424-.106a.638.638 0 0 0 .424-.106c.106 0 .212-.106.318-.106z" transform="translate(-14.074 -9.732)"/><path d="m107.8 67.2a.974.974 0 0 0 -.636-.424 2.636 2.636 0 0 0 -.848-.106 3.768 3.768 0 0 0 -1.061.212 2.478 2.478 0 0 0 -.742.742v-.848h-.848v5.515h.848v-3.191a1.345 1.345 0 0 1 .106-.636 2.318 2.318 0 0 1 .318-.53.9.9 0 0 1 .53-.318 1.573 1.573 0 0 1 .742-.106 1.095 1.095 0 0 1 1.167 1.167v3.712h.848v-3.603a2.335 2.335 0 0 0 -.106-.848c-.004-.424-.11-.638-.318-.738z" transform="translate(-15.105 -9.715)"/><path d="m114.888 71.456v-3.288a.9.9 0 0 0 -.212-.742c-.106-.212-.318-.318-.424-.424a1.508 1.508 0 0 0 -.636-.212h-.742a2.068 2.068 0 0 0 -.848.106 5.17 5.17 0 0 0 -.742.318 1.278 1.278 0 0 0 -.53.53 2.5 2.5 0 0 0 -.212.848h.848a.965.965 0 0 1 .424-.848 3.1 3.1 0 0 1 .954-.212h.424c.106 0 .318.106.424.106l.318.318a.8.8 0 0 1 .106.53.638.638 0 0 1 -.106.424.551.551 0 0 1 -.424.212c-.212 0-.424.106-.636.106s-.424.106-.742.106a2.7 2.7 0 0 0 -.742.212c-.212.106-.424.106-.636.318a1.059 1.059 0 0 0 -.424.53 1.966 1.966 0 0 0 -.212.742 1.8 1.8 0 0 0 .106.742 1.862 1.862 0 0 0 .424.53l.636.318a1.572 1.572 0 0 0 .742.106 3.768 3.768 0 0 0 1.061-.212 1.649 1.649 0 0 0 .848-.636.779.779 0 0 0 .212.636.81.81 0 0 0 .53.212 1.345 1.345 0 0 0 .636-.106v-.742h-.318c-.001-.422-.107-.422-.107-.528zm-.954-1.061a.638.638 0 0 1 -.106.424c-.106.106-.212.318-.318.424a2.318 2.318 0 0 1 -.53.318 1.8 1.8 0 0 1 -.742.106h-.424c-.106 0-.212-.106-.318-.106-.106-.106-.212-.106-.212-.212-.106-.106-.106-.212-.106-.424a.638.638 0 0 1 .106-.424c.106-.106.106-.212.212-.318s.212-.106.318-.212l.424-.106.424-.106.424-.106a.8.8 0 0 0 .424-.212c.106 0 .212-.106.318-.106z" transform="translate(-16.045 -9.732)"/><path d="m121.1 67.514a1.238 1.238 0 0 0 -.636-.636 3.1 3.1 0 0 0 -.954-.212 2.138 2.138 0 0 0 -1.167.318 2.478 2.478 0 0 0 -.742.742 3.767 3.767 0 0 0 -.424.954 2.937 2.937 0 0 0 -.106.954 3.609 3.609 0 0 0 .106 1.061 2.132 2.132 0 0 0 .424.848 4.612 4.612 0 0 0 .742.636 3.768 3.768 0 0 0 1.061.212.956.956 0 0 0 .53-.106c.212 0 .318-.106.53-.212.106-.106.318-.212.424-.318s.212-.318.318-.424v.318a2.336 2.336 0 0 1 -.106.848c-.106.212-.106.424-.318.636a1.059 1.059 0 0 1 -.53.424 1.966 1.966 0 0 1 -.742.212h-.424c-.106 0-.318-.106-.424-.106l-.318-.318c-.106-.106-.106-.212-.106-.424h-.848a1.533 1.533 0 0 0 .212.742 1.278 1.278 0 0 0 .53.53 5.168 5.168 0 0 0 .742.318 1.8 1.8 0 0 0 .742.106 2.474 2.474 0 0 0 1.909-.636 3.263 3.263 0 0 0 .636-2.015v-5.089h-.848zm-.106 2.651a3.846 3.846 0 0 1 -.318.742c-.106.212-.318.318-.53.53a1.405 1.405 0 0 1 -1.485 0 1.059 1.059 0 0 1 -.424-.53 1.507 1.507 0 0 1 -.212-.636c0-.212-.106-.53-.106-.742a1.8 1.8 0 0 1 .106-.742c.106-.212.106-.424.318-.636a1.059 1.059 0 0 1 .53-.424 1.405 1.405 0 0 1 1.485 0c.212.106.318.318.53.424a1.508 1.508 0 0 1 .212.636 1.573 1.573 0 0 1 .106.742c-.106.106-.106.424-.215.636z" transform="translate(-17.058 -9.715)"/><path d="m128.58 67.726a2.478 2.478 0 0 0 -.742-.742 2.138 2.138 0 0 0 -1.167-.318 3.768 3.768 0 0 0 -1.061.212 1.649 1.649 0 0 0 -.848.636 2.781 2.781 0 0 0 -.53.954 3.813 3.813 0 0 0 -.212 1.167 4.511 4.511 0 0 0 .212 1.167 4.3 4.3 0 0 0 .53.954 5.882 5.882 0 0 0 .848.636 3.812 3.812 0 0 0 1.167.212 2.4 2.4 0 0 0 1.591-.53 2.357 2.357 0 0 0 .848-1.379h-.848a1.457 1.457 0 0 1 -.53.848 1.082 1.082 0 0 1 -.954.212 1.572 1.572 0 0 1 -.742-.106 1.505 1.505 0 0 1 -.848-.954 1.573 1.573 0 0 1 -.106-.742h4.136a3.608 3.608 0 0 0 -.106-1.061 9.6 9.6 0 0 0 -.638-1.166zm-3.606 1.274c0-.212.106-.424.106-.636.106-.212.212-.318.318-.53.106-.106.318-.212.424-.318a1.962 1.962 0 0 1 1.273 0 1.643 1.643 0 0 1 .848.848 1.345 1.345 0 0 1 .106.636z" transform="translate(-18.07 -9.715)"/><path d="m138.307 66.965c-.212-.106-.318-.212-.53-.318a1.8 1.8 0 0 0 -.742-.106 2.533 2.533 0 0 0 -.954.212 2.478 2.478 0 0 0 -.742.742 1.426 1.426 0 0 0 -.636-.742 3.1 3.1 0 0 0 -.954-.212 2.084 2.084 0 0 0 -1.8.954v-.848h-.849v5.621h.848v-3.394a.638.638 0 0 1 .106-.424 1.419 1.419 0 0 1 .742-.848 1.508 1.508 0 0 1 .636-.212.956.956 0 0 1 .53.106c.106 0 .212.106.318.212s.106.212.212.424v4.136h.848v-3.394a1.45 1.45 0 0 1 1.485-1.485.956.956 0 0 1 .53.106c.106.106.212.106.318.212s.106.212.212.424v4.136h.848v-4.03a1.8 1.8 0 0 0 -.106-.742 2.319 2.319 0 0 0 -.32-.53z" transform="translate(-19.101 -9.695)"/><path d="m145.942 67.726a2.478 2.478 0 0 0 -.742-.742 2.262 2.262 0 0 0 -1.273-.318 3.769 3.769 0 0 0 -1.061.212 1.649 1.649 0 0 0 -.848.636 2.781 2.781 0 0 0 -.53.954 3.813 3.813 0 0 0 -.212 1.167 4.511 4.511 0 0 0 .212 1.167 4.3 4.3 0 0 0 .53.954 5.882 5.882 0 0 0 .848.636 3.812 3.812 0 0 0 1.167.212 2.4 2.4 0 0 0 1.591-.53 2.357 2.357 0 0 0 .848-1.379h-.848a1.28 1.28 0 0 1 -1.485 1.061 1.573 1.573 0 0 1 -.742-.106 1.059 1.059 0 0 1 -.53-.424c-.106-.212-.212-.318-.318-.53a1.573 1.573 0 0 1 -.106-.742h4.136a3.607 3.607 0 0 0 -.106-1.061 8.494 8.494 0 0 1 -.531-1.167zm-3.712 1.274c0-.212.106-.424.106-.636.106-.212.212-.318.318-.53a2.317 2.317 0 0 1 .53-.318 1.962 1.962 0 0 1 1.273 0c.212.106.318.212.53.318a2.318 2.318 0 0 1 .318.53 1.345 1.345 0 0 1 .106.636z" transform="translate(-20.586 -9.715)"/><path d="m152.488 67.2a.974.974 0 0 0 -.636-.424 2.636 2.636 0 0 0 -.848-.106 3.768 3.768 0 0 0 -1.061.212 2.478 2.478 0 0 0 -.742.742v-.848h-.848v5.515h.848v-3.191a1.345 1.345 0 0 1 .106-.636 2.317 2.317 0 0 1 .318-.53.9.9 0 0 1 .53-.318 1.572 1.572 0 0 1 .742-.106 1.095 1.095 0 0 1 1.167 1.167v3.712h.848v-3.603a2.335 2.335 0 0 0 -.106-.848.97.97 0 0 0 -.318-.738z" transform="translate(-21.617 -9.715)"/><path d="m156.362 64.8h-.848v1.591h-.954v.848h.954v3.5a1.345 1.345 0 0 0 .106.636c0 .106.106.212.212.318s.212.106.424.212h1.379v-.845h-.742c-.106 0-.106 0-.212-.106l-.106-.106v-3.606h1.061v-.848h-1.061z" transform="translate(-22.521 -9.443)"/><path d="m168.614 65.349a3.008 3.008 0 0 0 -1.167-.848 4.136 4.136 0 0 0 -3.182 0 4.709 4.709 0 0 0 -1.167.848 3.584 3.584 0 0 0 -.636 1.273 4.738 4.738 0 0 0 0 2.97 7.127 7.127 0 0 0 .636 1.273 3.008 3.008 0 0 0 1.167.848 4.136 4.136 0 0 0 3.182 0 4.709 4.709 0 0 0 1.167-.848 3.584 3.584 0 0 0 .636-1.273 4.738 4.738 0 0 0 0-2.97 1.849 1.849 0 0 0 -.636-1.273zm-.212 3.818a2.621 2.621 0 0 1 -.424.954 2.859 2.859 0 0 1 -.848.742 2.3 2.3 0 0 1 -2.333 0 2.859 2.859 0 0 1 -.848-.742 1.906 1.906 0 0 1 -.424-.954 3.976 3.976 0 0 1 -.107-1.167 4.349 4.349 0 0 1 .106-1.167 4.433 4.433 0 0 1 .424-1.061 2.1 2.1 0 0 1 2.015-.954 2.138 2.138 0 0 1 1.167.318 2.859 2.859 0 0 1 .848.742 1.884 1.884 0 0 1 .424 1.061 3.977 3.977 0 0 1 .106 1.167 3.608 3.608 0 0 1 -.108 1.061z" transform="translate(-23.638 -9.351)"/><path d="m173.864 64.182a2.138 2.138 0 0 0 -1.167.318 1.362 1.362 0 0 0 -.424 1.061v.848h-.954v.848h.954v4.666h.954v-4.771h1.061v-.852h-1.061v-.742a.584.584 0 0 1 .212-.53.8.8 0 0 1 .53-.106h.212c.106 0 .212 0 .212.106v-.742c-.106 0-.212-.106-.318-.106z" transform="translate(-24.963 -9.351)"/><path d="m153.356 57.057h.954v5.515h-.954z"/><path d="m177.588 64.182a2.138 2.138 0 0 0 -1.167.318 1.362 1.362 0 0 0 -.421 1.061v.848h-.954v.848h.954v4.666h.954v-4.771h1.061v-.852h-1.061v-.742a.584.584 0 0 1 .212-.53.8.8 0 0 1 .53-.106h.212c.106 0 .212 0 .212.106v-.742c-.106 0-.212-.106-.318-.106z" transform="translate(-25.506 -9.351)"/><path d="m185.469 71.189a1.282 1.282 0 0 1 -1.061.318 1.966 1.966 0 0 1 -.742-.212c-.212-.106-.318-.318-.53-.424l-.318-.636a1.8 1.8 0 0 1 -.106-.742 2.335 2.335 0 0 1 .106-.848 1.146 1.146 0 0 1 .318-.742c.106-.212.318-.318.53-.53a2 2 0 0 1 .848-.212 1.711 1.711 0 0 1 .954.318 1.309 1.309 0 0 1 .424.848h.955a2.5 2.5 0 0 0 -.212-.848 2.813 2.813 0 0 0 -.53-.636 1.584 1.584 0 0 0 -.742-.318 2.335 2.335 0 0 0 -.848-.106 4.51 4.51 0 0 0 -1.167.212 1.649 1.649 0 0 0 -.848.636 4.3 4.3 0 0 0 -.53.954 2.2 2.2 0 0 0 -.106 1.167 2.284 2.284 0 0 0 .212 1.167 1.457 1.457 0 0 0 .53.848 2.309 2.309 0 0 0 .848.53 3.768 3.768 0 0 0 1.061.212 3.2 3.2 0 0 0 1.7-.53 2.256 2.256 0 0 0 .742-1.591h-.957a6.171 6.171 0 0 1 -.531 1.165z" transform="translate(-26.494 -9.678)"/><path d="m193.135 67.726a2.477 2.477 0 0 0 -.742-.742 2.138 2.138 0 0 0 -1.167-.318 3.768 3.768 0 0 0 -1.061.212 1.649 1.649 0 0 0 -.848.636 2.781 2.781 0 0 0 -.53.954 3.812 3.812 0 0 0 -.212 1.167 4.511 4.511 0 0 0 .212 1.167 4.3 4.3 0 0 0 .53.954 5.879 5.879 0 0 0 .848.636 3.812 3.812 0 0 0 1.167.212 2.4 2.4 0 0 0 1.591-.53 2.357 2.357 0 0 0 .848-1.379h-.848a1.28 1.28 0 0 1 -1.485 1.061 1.572 1.572 0 0 1 -.742-.106 1.505 1.505 0 0 1 -.848-.954 1.572 1.572 0 0 1 -.106-.742h4.136a3.607 3.607 0 0 0 -.106-1.061c-.319-.531-.531-.955-.637-1.167zm-3.606 1.274c0-.212.106-.424.106-.636.106-.212.212-.318.318-.53.106-.106.318-.212.424-.318a1.962 1.962 0 0 1 1.273 0c.212.106.318.212.53.318a2.319 2.319 0 0 1 .318.53 1.345 1.345 0 0 1 .102.636z" transform="translate(-27.478 -9.715)"/><path d="m106.725 51.768h-.954v1.061l.954-.53z" transform="translate(-15.412 -7.543)"/><path d="m180.36 64.306h-.848v1.061l.848-.53z" transform="translate(-26.156 -9.371)"/><path d="m117.192.993h9.863c8.272 0 13.681 4.772 13.681 11.984s-5.515 11.984-13.681 11.984h-9.863zm9.863 5.407h-2.863v13.153h2.863a6.161 6.161 0 0 0 6.469-5.833v-.742a6.236 6.236 0 0 0 -5.724-6.578z" transform="translate(-17.076 -.144)"/><path d="m169.759.993-5.727 16.332-5.832-16.332h-9.227v23.862h7v-15.271l5.409 15.272h5.3l5.409-15.378v15.377h7v-23.862z" transform="translate(-21.707 -.144)"/><path d="m188.574 12.833c0-7.633 5.409-12.833 13.363-12.833s13.469 5.2 13.469 12.833-5.406 12.832-13.469 12.832-13.363-5.303-13.363-12.832zm7.212 0c0 3.924 2.545 6.575 6.151 6.681s6.257-2.757 6.257-6.681-2.545-6.681-6.257-6.681-6.151 2.757-6.151 6.681z" transform="translate(-27.478)"/><path d="m101.107 4.917v11.242l-8.166-15.166-7.53 4.348v19.514h6.681v-15.165l8.272 15.166h7.53v-23.863z" transform="translate(-12.445 -.144)"/></g></svg>