<svg fill="none" height="72" viewBox="0 0 258 72" width="258" xmlns="http://www.w3.org/2000/svg" xmlns:xlink="http://www.w3.org/1999/xlink"><linearGradient id="a" gradientUnits="userSpaceOnUse" x1="199" x2="199" y1="0" y2="26"><stop offset="0" stop-color="#6258a6"/><stop offset="1" stop-color="#6456c2" stop-opacity=".29"/></linearGradient><linearGradient id="b"><stop offset="0" stop-color="#6cf"/><stop offset=".5" stop-color="#6258a6"/><stop offset=".99" stop-color="#273470"/></linearGradient><linearGradient id="c" gradientUnits="userSpaceOnUse" x1="21.8719" x2="63.9511" xlink:href="#b" y1="78.6822" y2="38.6959"/><linearGradient id="d" gradientUnits="userSpaceOnUse" x1="4.57763" x2="46.6435" xlink:href="#b" y1="65.0977" y2="25.1188"/><linearGradient id="e" gradientUnits="userSpaceOnUse" x1="14.272" x2="48.0632" xlink:href="#b" y1="66.6418" y2="34.856"/><linearGradient id="f" gradientUnits="userSpaceOnUse" x1="27.6477" x2="61.4513" xlink:href="#b" y1="68.6041" y2="36.8209"/><linearGradient id="g" gradientUnits="userSpaceOnUse" x1="23.3684" x2="56.7933" xlink:href="#b" y1="69.109" y2="36.779"/><linearGradient id="h" gradientUnits="userSpaceOnUse" x1=".909722" x2="34.7133" xlink:href="#b" y1="54.1207" y2="22.3375"/><linearGradient id="i" gradientUnits="userSpaceOnUse" x1="-5.3834" x2="28.0453" xlink:href="#b" y1="52.3001" y2="19.9722"/><linearGradient id="j" gradientUnits="userSpaceOnUse" x1="31.4877" x2="73.5167" xlink:href="#b" y1="86.2208" y2="46.1828"/><linearGradient id="k" gradientUnits="userSpaceOnUse" x1="28.026" x2="70.1054" xlink:href="#b" y1="83.5052" y2="43.5201"/><linearGradient id="l" gradientUnits="userSpaceOnUse" x1="1.25536" x2="43.315" xlink:href="#b" y1="62.4856" y2="22.505"/><linearGradient id="m" gradientUnits="userSpaceOnUse" x1="10.1788" x2="52.197" xlink:href="#b" y1="69.4891" y2="29.4443"/><linearGradient id="n" gradientUnits="userSpaceOnUse" x1="24.8339" x2="24.8339" xlink:href="#b" y1="82.5905" y2="31.4661"/><linearGradient id="o" gradientUnits="userSpaceOnUse" x1="15.0097" x2="15.0097" xlink:href="#b" y1="82.582" y2="31.4576"/><linearGradient id="p" gradientUnits="userSpaceOnUse" x1="44.4628" x2="44.4628" xlink:href="#b" y1="82.582" y2="31.4576"/><linearGradient id="q" gradientUnits="userSpaceOnUse" x1="5.19783" x2="5.19783" xlink:href="#b" y1="82.5894" y2="31.465"/><linearGradient id="r" gradientUnits="userSpaceOnUse" x1="44.4706" x2="44.4706" xlink:href="#b" y1="82.5894" y2="31.465"/><linearGradient id="s" gradientUnits="userSpaceOnUse" x1="54.2933" x2="54.2933" xlink:href="#b" y1="82.5889" y2="31.4645"/><linearGradient id="t" gradientUnits="userSpaceOnUse" x1="34.6464" x2="34.6464" xlink:href="#b" y1="82.5848" y2="31.4659"/><linearGradient id="u" gradientUnits="userSpaceOnUse" x1="5.19783" x2="5.19783" xlink:href="#b" y1="82.5889" y2="31.4645"/><linearGradient id="v" gradientUnits="userSpaceOnUse" x1="54.2933" x2="54.2933" xlink:href="#b" y1="82.5894" y2="31.465"/><linearGradient id="w" gradientUnits="userSpaceOnUse" x1="24.8339" x2="24.8339" xlink:href="#b" y1="82.582" y2="31.4576"/><linearGradient id="x" gradientUnits="userSpaceOnUse" x1="5.19448" x2="5.19448" xlink:href="#b" y1="72.2887" y2="31.3995"/><linearGradient id="y" gradientUnits="userSpaceOnUse" x1="54.289" x2="54.289" xlink:href="#b" y1="73.8753" y2="32.9796"/><linearGradient id="z" gradientUnits="userSpaceOnUse" x1="44.4758" x2="44.4758" xlink:href="#b" y1="73.3565" y2="32.4599"/><linearGradient id="A" gradientUnits="userSpaceOnUse" x1="34.6514" x2="34.6514" xlink:href="#b" y1="72.5178" y2="31.6148"/><linearGradient id="B" gradientUnits="userSpaceOnUse" x1="24.832" x2="24.832" xlink:href="#b" y1="74.6222" y2="33.7081"/><linearGradient id="C" gradientUnits="userSpaceOnUse" x1="15.0081" x2="15.0081" xlink:href="#b" y1="74.6222" y2="33.7081"/><linearGradient id="D" gradientUnits="userSpaceOnUse" x1="34.6514" x2="34.6514" xlink:href="#b" y1="76.588" y2="35.6923"/><linearGradient id="E" gradientUnits="userSpaceOnUse" x1="24.8356" x2="24.8356" xlink:href="#b" y1="82.5904" y2="31.4579"/><linearGradient id="F" gradientUnits="userSpaceOnUse" x1="15.0118" x2="15.0118" xlink:href="#b" y1="82.5855" y2="31.444"/><linearGradient id="G" gradientUnits="userSpaceOnUse" x1="44.4842" x2="44.4842" xlink:href="#b" y1="82.5855" y2="31.4557"/><linearGradient id="H" gradientUnits="userSpaceOnUse" x1="34.6547" x2="34.6547" xlink:href="#b" y1="82.5855" y2="31.4557"/><linearGradient id="I" gradientUnits="userSpaceOnUse" x1="5.18932" x2="5.18932" xlink:href="#b" y1="82.5871" y2="31.4573"/><linearGradient id="J" gradientUnits="userSpaceOnUse" x1="54.2982" x2="54.2982" xlink:href="#b" y1="82.5866" y2="31.4539"/><linearGradient id="K" gradientUnits="userSpaceOnUse" x1="54.2982" x2="54.2982" xlink:href="#b" y1="82.5871" y2="31.4573"/><linearGradient id="L" gradientUnits="userSpaceOnUse" x1="24.8356" x2="24.8356" xlink:href="#b" y1="82.5855" y2="31.4557"/><path d="m248 0h-98c-3.314 0-6 2.68629-6 6v14c0 3.3137 2.686 6 6 6h98c3.314 0 6-2.6863 6-6v-14c0-3.31371-2.686-6-6-6z" fill="url(#a)"/><g fill="#fff"><path d="m159.464 12.504v1.668c0 .76.188 1.292.564 1.596.384.312 1.04.468 1.968.468.808 0 1.392-.104 1.752-.312.44-.248.692-.692.756-1.332h-.744l-.624-.768v-.456h3.312v1.224h-.456c-.064 1-.464 1.752-1.2 2.256-.576.408-1.308.612-2.196.612h-1.188c-1.008 0-1.812-.26-2.412-.78-.664-.544-.996-1.336-.996-2.376v-1.212l.744-.588zm1.584 5.652c.216 0 .4.076.552.228s.228.336.228.552-.076.4-.228.552-.336.228-.552.228-.4-.076-.552-.228-.228-.336-.228-.552.076-.4.228-.552.336-.228.552-.228zm1.824 0c.216 0 .4.076.552.228s.228.336.228.552-.076.4-.228.552-.336.228-.552.228c-.208 0-.388-.076-.54-.228s-.228-.336-.228-.552.076-.4.228-.552.332-.228.54-.228zm6.149-9.084v4.116.18h.612v1.224h-.42l-.444-.492h-.024c-.272.328-.612.492-1.02.492h-2.316v-1.224h1.812c.112 0 .192-.032.24-.096.072-.064.108-.144.108-.24v-3.96zm-.768 6.396c.208 0 .388.076.54.228s.228.336.228.552-.076.4-.228.552-.332.228-.54.228c-.216 0-.4-.076-.552-.228s-.228-.336-.228-.552.076-.4.228-.552.336-.228.552-.228zm4.905-6.396v4.2c0 .312-.104.6-.312.864-.264.304-.592.456-.984.456h-2.316v-1.224h1.848c.088 0 .164-.032.228-.096.056-.056.084-.124.084-.204v-3.996zm-2.628 6.396c.216 0 .4.076.552.228s.228.336.228.552-.076.4-.228.552-.336.228-.552.228c-.208 0-.388-.076-.54-.228s-.228-.336-.228-.552.076-.4.228-.552.332-.228.54-.228zm1.836 0c.216 0 .396.076.54.228.152.152.228.336.228.552s-.076.4-.228.552c-.144.152-.324.228-.54.228s-.4-.076-.552-.228-.228-.336-.228-.552.076-.4.228-.552.336-.228.552-.228zm5.822-6.396v4.296h.612v1.224h-.624c-.064.96-.444 1.696-1.14 2.208-.576.424-1.284.636-2.124.636-.144 0-.3-.004-.468-.012l-.588-.732v-.516c.256.04.504.06.744.06 1.416 0 2.124-.688 2.124-2.064v-5.1zm2.118.204c.76-.232 1.452-.348 2.076-.348.968 0 1.748.304 2.34.912.536.544.804 1.232.804 2.064v1.284.18h.396v1.224h-.252l-.396-.492h-.024c-.272.328-.612.492-1.02.492h-5.52v-1.224h5.052c.2 0 .3-.1.3-.3v-1.08c0-.544-.184-.98-.552-1.308-.36-.336-.836-.504-1.428-.504-.392 0-.984.088-1.776.264zm1.68 6.192c.216 0 .4.076.552.228s.228.336.228.552-.076.4-.228.552-.336.228-.552.228c-.208 0-.388-.076-.54-.228s-.228-.336-.228-.552.076-.4.228-.552.332-.228.54-.228zm5.013-9.036c.216 0 .4.076.552.228s.228.336.228.552c0 .208-.076.388-.228.54s-.336.228-.552.228-.4-.076-.552-.228-.228-.332-.228-.54c0-.216.076-.4.228-.552s.336-.228.552-.228zm1.824 0c.216 0 .4.076.552.228s.228.336.228.552c0 .208-.076.388-.228.54s-.336.228-.552.228c-.208 0-.388-.076-.54-.228s-.228-.332-.228-.54c0-.216.076-.4.228-.552s.332-.228.54-.228zm.624 2.64v4.116.18h.612v1.224h-.42l-.444-.492h-.024c-.272.328-.612.492-1.02.492h-2.316v-1.224h1.812c.112 0 .192-.032.24-.096.072-.064.108-.144.108-.24v-3.96zm4.137-3.072v7.272c0 .336-.108.624-.324.864-.248.304-.572.456-.972.456h-2.316v-1.224h1.848c.088 0 .164-.032.228-.096.056-.056.084-.124.084-.204v-7.068zm3.122 0v8.292l-.744.6h-.72v-8.892zm8.524.432c.216 0 .4.076.552.228s.228.336.228.552c0 .208-.076.388-.228.54s-.336.228-.552.228c-.208 0-.388-.076-.54-.228s-.228-.332-.228-.54c0-.216.076-.4.228-.552s.332-.228.54-.228zm1.836 0c.216 0 .396.076.54.228.152.152.228.336.228.552s-.076.4-.228.552c-.144.144-.324.216-.54.216s-.4-.076-.552-.228-.228-.332-.228-.54c0-.216.076-.4.228-.552s.336-.228.552-.228zm0 8.112c-.32.088-.636.132-.948.132-.872 0-1.572-.316-2.1-.948-.448-.544-.672-1.204-.672-1.98 0-.888.288-1.592.864-2.112.496-.472 1.14-.708 1.932-.708.616 0 1.128.148 1.536.444.592.4.888.992.888 1.776v3.156c0 1-.32 1.772-.96 2.316-.608.56-1.424.84-2.448.84h-1.188c-1.04 0-1.864-.276-2.472-.828-.624-.544-.936-1.32-.936-2.328v-1.332l.744-.6h.72v1.8c0 .752.188 1.28.564 1.584.384.312 1.04.468 1.968.468.824 0 1.412-.104 1.764-.312.432-.256.68-.712.744-1.368zm.036-3.396c0-.288-.092-.532-.276-.732-.192-.176-.424-.264-.696-.264-.4 0-.72.14-.96.42-.248.288-.372.688-.372 1.2s.136.92.408 1.224.636.456 1.092.456c.256 0 .524-.048.804-.144zm9.253-5.148v7.056c0 .144-.004.248-.012.312h.624v1.224h-.468l-.396-.492h-.036c-.144.176-.304.3-.48.372-.176.08-.348.12-.516.12h-4.824l-.6-.744v-.48h2.916l-1.98-5.892h1.368l1.992 5.892h.648c.088 0 .164-.032.228-.096.048-.064.072-.132.072-.204v-7.068zm4.123 0v5.088c1.072-1.448 2.404-2.172 3.996-2.172.952 0 1.736.304 2.352.912.568.552.852 1.236.852 2.052v1.392c0 .376-.14.696-.42.96-.256.24-.548.36-.876.36h-9.516v-1.224h2.16v-7.368zm5.736 5.952c-.008-.496-.172-.896-.492-1.2-.368-.384-.868-.576-1.5-.576-.64 0-1.252.212-1.836.636-.752.544-1.388 1.396-1.908 2.556h5.436c.2 0 .3-.1.3-.3zm9.254-5.952v7.272c0 .344-.112.636-.336.876-.256.296-.576.444-.96.444h-4.812l-.6-.744v-.48h2.916l-1.98-5.892h1.368l1.992 5.892h.648c.096 0 .176-.032.24-.096.04-.064.06-.132.06-.204v-7.068zm-3.216 11.556c-.136-.216-.204-.444-.204-.684 0-.344.1-.62.3-.828.208-.208.484-.312.828-.312.184 0 .388.036.612.108v.636c-.16-.048-.308-.072-.444-.072-.352 0-.528.192-.528.576 0 .144.04.272.12.384.096.128.24.192.432.192h.816v.3l-.288.348h-2.124v-.648zm6.337-11.556v8.292l-.744.6h-.72v-8.892z"/><path d="m75.4748 58.1742h1.212l4.512 6.948h.024v-6.948h1.08v8.568h-1.248l-4.476-6.876h-.024v6.876h-1.08zm12.1042 5.364c-.096.072-.216.128-.36.168s-.296.076-.456.108c-.16.024-.332.048-.516.072-.176.016-.348.04-.516.072s-.328.072-.48.12-.284.116-.396.204c-.112.08-.204.184-.276.312-.064.128-.096.288-.096.48 0 .168.032.312.096.432.072.112.16.204.264.276.112.072.24.124.384.156s.296.048.456.048c.336 0 .624-.044.864-.132.24-.096.436-.212.588-.348.152-.144.264-.296.336-.456.072-.168.108-.324.108-.468zm1.656 3.18c-.184.112-.428.168-.732.168-.264 0-.476-.076-.636-.228-.152-.152-.228-.396-.228-.732-.28.336-.608.58-.984.732-.368.152-.768.228-1.2.228-.28 0-.548-.032-.804-.096-.248-.064-.464-.164-.648-.3-.184-.144-.332-.324-.444-.54-.104-.224-.156-.492-.156-.804 0-.352.06-.64.18-.864s.276-.404.468-.54c.2-.136.424-.24.672-.312.256-.08.516-.144.78-.192.28-.056.544-.096.792-.12.256-.032.48-.072.672-.12.192-.056.344-.132.456-.228.112-.104.168-.252.168-.444 0-.224-.044-.404-.132-.54-.08-.136-.188-.24-.324-.312-.128-.072-.276-.12-.444-.144-.16-.024-.32-.036-.48-.036-.432 0-.792.084-1.08.252-.288.16-.444.468-.468.924h-1.02c.016-.384.096-.708.24-.972s.336-.476.576-.636c.24-.168.516-.288.828-.36s.64-.108.984-.108c.28 0 .556.02.828.06.28.04.532.124.756.252.224.12.404.292.54.516s.204.516.204.876v3.192c0 .24.012.416.036.528.032.112.128.168.288.168.096 0 .2-.02.312-.06zm2.1253-6.18h1.236v.9h-1.236v3.852c0 .12.008.216.024.288.024.072.064.128.12.168s.132.068.228.084c.104.008.236.012.396.012h.468v.9h-.78c-.264 0-.492-.016-.684-.048-.184-.04-.336-.108-.456-.204-.112-.096-.196-.232-.252-.408s-.084-.408-.084-.696v-3.948h-1.056v-.9h1.056v-1.86h1.02zm2.1891 0h1.02v6.204h-1.02zm1.02-1.116h-1.02v-1.248h1.02zm1.0042 4.224c0-.456.064-.88.192-1.272.128-.4.32-.744.576-1.032.256-.296.568-.528.936-.696.376-.168.812-.252 1.308-.252.488 0 .92.084 1.2962.252s.6922.4.9482.696c.256.288.448.632.576 1.032.128.392.192.816.192 1.272s-.064.88-.192 1.272-.32.736-.576 1.032c-.256.288-.572.516-.9482.684s-.8082.252-1.2962.252c-.496 0-.932-.084-1.308-.252-.368-.168-.68-.396-.936-.684-.256-.296-.448-.64-.576-1.032s-.192-.816-.192-1.272zm1.08 0c0 .376.048.712.144 1.008.104.288.244.532.42.732.176.192.38.34.612.444.24.104.492.156.756.156s.512-.052.744-.156c.2402-.104.4482-.252.6242-.444.1762-.2.3122-.444.4082-.732.104-.296.156-.632.156-1.008s-.052-.708-.156-.996c-.096-.296-.232-.544-.4082-.744-.176-.2-.384-.352-.6242-.456-.232-.104-.48-.156-.744-.156s-.516.052-.756.156c-.232.104-.436.256-.612.456s-.316.448-.42.744c-.096.288-.144.62-.144.996zm5.9064-3.108h.96v.984h.024c.216-.384.492-.668.828-.852.344-.184.74-.276 1.188-.276.408 0 .748.056 1.02.168s.492.268.66.468.284.44.348.72c.072.272.108.576.108.912v4.08h-1.02v-4.2c0-.384-.112-.688-.336-.912s-.532-.336-.924-.336c-.312 0-.584.048-.816.144-.224.096-.412.232-.564.408s-.268.384-.348.624c-.072.232-.108.488-.108.768v3.504h-1.02zm10.268 3c-.096.072-.216.128-.36.168s-.296.076-.456.108c-.16.024-.332.048-.516.072-.176.016-.348.04-.516.072s-.328.072-.48.12-.284.116-.396.204c-.112.08-.204.184-.276.312-.064.128-.096.288-.096.48 0 .168.032.312.096.432.072.112.16.204.264.276.112.072.24.124.384.156s.296.048.456.048c.336 0 .624-.044.864-.132.24-.096.436-.212.588-.348.152-.144.264-.296.336-.456.072-.168.108-.324.108-.468zm1.656 3.18c-.184.112-.428.168-.732.168-.264 0-.476-.076-.636-.228-.152-.152-.228-.396-.228-.732-.28.336-.608.58-.984.732-.368.152-.768.228-1.2.228-.28 0-.548-.032-.804-.096-.248-.064-.464-.164-.648-.3-.184-.144-.332-.324-.444-.54-.104-.224-.156-.492-.156-.804 0-.352.06-.64.18-.864s.276-.404.468-.54c.2-.136.424-.24.672-.312.256-.08.516-.144.78-.192.28-.056.544-.096.792-.12.256-.032.48-.072.672-.12.192-.056.344-.132.456-.228.112-.104.168-.252.168-.444 0-.224-.044-.404-.132-.54-.08-.136-.188-.24-.324-.312-.128-.072-.276-.12-.444-.144-.16-.024-.32-.036-.48-.036-.432 0-.792.084-1.08.252-.288.16-.444.468-.468.924h-1.02c.016-.384.096-.708.24-.972s.336-.476.576-.636c.24-.168.516-.288.828-.36s.64-.108.984-.108c.28 0 .556.02.828.06.28.04.532.124.756.252.224.12.404.292.54.516s.204.516.204.876v3.192c0 .24.012.416.036.528.032.112.128.168.288.168.096 0 .2-.02.312-.06zm.77-8.544h1.02v8.568h-1.02zm5.628 0h2.94c1.32 0 2.336.336 3.048 1.008s1.068 1.696 1.068 3.072c0 .72-.08 1.36-.24 1.92-.16.552-.408 1.02-.744 1.404-.336.376-.764.664-1.284.864s-1.136.3-1.848.3h-2.94zm1.14 7.608h1.896c.128 0 .288-.008.48-.024.192-.024.396-.072.612-.144.216-.08.428-.192.636-.336.216-.144.408-.34.576-.588s.304-.556.408-.924c.112-.376.168-.828.168-1.356 0-.512-.052-.968-.156-1.368-.096-.408-.26-.752-.492-1.032-.224-.28-.516-.496-.876-.648s-.804-.228-1.332-.228h-1.92zm10.741-2.244c-.096.072-.216.128-.36.168s-.296.076-.456.108c-.16.024-.332.048-.516.072-.176.016-.348.04-.516.072s-.328.072-.48.12-.284.116-.396.204c-.112.08-.204.184-.276.312-.064.128-.096.288-.096.48 0 .168.032.312.096.432.072.112.16.204.264.276.112.072.24.124.384.156s.296.048.456.048c.336 0 .624-.044.864-.132.24-.096.436-.212.588-.348.152-.144.264-.296.336-.456.072-.168.108-.324.108-.468zm1.656 3.18c-.184.112-.428.168-.732.168-.264 0-.476-.076-.636-.228-.152-.152-.228-.396-.228-.732-.28.336-.608.58-.984.732-.368.152-.768.228-1.2.228-.28 0-.548-.032-.804-.096-.248-.064-.464-.164-.648-.3-.184-.144-.332-.324-.444-.54-.104-.224-.156-.492-.156-.804 0-.352.06-.64.18-.864s.276-.404.468-.54c.2-.136.424-.24.672-.312.256-.08.516-.144.78-.192.28-.056.544-.096.792-.12.256-.032.48-.072.672-.12.192-.056.344-.132.456-.228.112-.104.168-.252.168-.444 0-.224-.044-.404-.132-.54-.08-.136-.188-.24-.324-.312-.128-.072-.276-.12-.444-.144-.16-.024-.32-.036-.48-.036-.432 0-.792.084-1.08.252-.288.16-.444.468-.468.924h-1.02c.016-.384.096-.708.24-.972s.336-.476.576-.636c.24-.168.516-.288.828-.36s.64-.108.984-.108c.28 0 .556.02.828.06.28.04.532.124.756.252.224.12.404.292.54.516s.204.516.204.876v3.192c0 .24.012.416.036.528.032.112.128.168.288.168.096 0 .2-.02.312-.06zm2.125-6.18h1.236v.9h-1.236v3.852c0 .12.008.216.024.288.024.072.064.128.12.168s.132.068.228.084c.104.008.236.012.396.012h.468v.9h-.78c-.264 0-.492-.016-.684-.048-.184-.04-.336-.108-.456-.204-.112-.096-.196-.232-.252-.408s-.084-.408-.084-.696v-3.948h-1.056v-.9h1.056v-1.86h1.02zm5.969 3c-.096.072-.216.128-.36.168s-.296.076-.456.108c-.16.024-.332.048-.516.072-.176.016-.348.04-.516.072s-.328.072-.48.12-.284.116-.396.204c-.112.08-.204.184-.276.312-.064.128-.096.288-.096.48 0 .168.032.312.096.432.072.112.16.204.264.276.112.072.24.124.384.156s.296.048.456.048c.336 0 .624-.044.864-.132.24-.096.436-.212.588-.348.152-.144.264-.296.336-.456.072-.168.108-.324.108-.468zm1.656 3.18c-.184.112-.428.168-.732.168-.264 0-.476-.076-.636-.228-.152-.152-.228-.396-.228-.732-.28.336-.608.58-.984.732-.368.152-.768.228-1.2.228-.28 0-.548-.032-.804-.096-.248-.064-.464-.164-.648-.3-.184-.144-.332-.324-.444-.54-.104-.224-.156-.492-.156-.804 0-.352.06-.64.18-.864s.276-.404.468-.54c.2-.136.424-.24.672-.312.256-.08.516-.144.78-.192.28-.056.544-.096.792-.12.256-.032.48-.072.672-.12.192-.056.344-.132.456-.228.112-.104.168-.252.168-.444 0-.224-.044-.404-.132-.54-.08-.136-.188-.24-.324-.312-.128-.072-.276-.12-.444-.144-.16-.024-.32-.036-.48-.036-.432 0-.792.084-1.08.252-.288.16-.444.468-.468.924h-1.02c.016-.384.096-.708.24-.972s.336-.476.576-.636c.24-.168.516-.288.828-.36s.64-.108.984-.108c.28 0 .556.02.828.06.28.04.532.124.756.252.224.12.404.292.54.516s.204.516.204.876v3.192c0 .24.012.416.036.528.032.112.128.168.288.168.096 0 .2-.02.312-.06zm10.386-1.044c-.168.224-.36.416-.576.576-.208.16-.432.292-.672.396s-.488.18-.744.228-.508.072-.756.072c-.64 0-1.212-.12-1.716-.36s-.932-.56-1.284-.96-.62-.86-.804-1.38-.276-1.06-.276-1.62c0-.624.084-1.216.252-1.776.176-.568.432-1.064.768-1.488.344-.424.768-.76 1.272-1.008.512-.256 1.108-.384 1.788-.384.464 0 .9.056 1.308.168.416.104.784.272 1.104.504.328.232.6.528.816.888.224.352.376.78.456 1.284h-1.14c-.056-.32-.16-.6-.312-.84s-.34-.436-.564-.588-.48-.264-.768-.336c-.28-.08-.58-.12-.9-.12-.52 0-.968.104-1.344.312-.368.208-.672.484-.912.828-.232.336-.404.724-.516 1.164-.112.432-.168.876-.168 1.332 0 .448.064.88.192 1.296.128.408.316.772.564 1.092.248.312.552.564.912.756.368.184.792.276 1.272.276.44 0 .832-.072 1.176-.216.352-.144.648-.34.888-.588.24-.256.416-.552.528-.888.12-.344.172-.712.156-1.104h-2.736v-.96h3.756v4.512h-.72zm1.953-2.028c0-.456.064-.88.192-1.272.128-.4.32-.744.576-1.032.256-.296.568-.528.936-.696.376-.168.812-.252 1.308-.252.488 0 .92.084 1.296.252s.692.4.948.696c.256.288.448.632.576 1.032.128.392.192.816.192 1.272s-.064.88-.192 1.272-.32.736-.576 1.032c-.256.288-.572.516-.948.684s-.808.252-1.296.252c-.496 0-.932-.084-1.308-.252-.368-.168-.68-.396-.936-.684-.256-.296-.448-.64-.576-1.032s-.192-.816-.192-1.272zm1.08 0c0 .376.048.712.144 1.008.104.288.244.532.42.732.176.192.38.34.612.444.24.104.492.156.756.156s.512-.052.744-.156c.24-.104.448-.252.624-.444.176-.2.312-.444.408-.732.104-.296.156-.632.156-1.008s-.052-.708-.156-.996c-.096-.296-.232-.544-.408-.744s-.384-.352-.624-.456c-.232-.104-.48-.156-.744-.156s-.516.052-.756.156c-.232.104-.436.256-.612.456s-.316.448-.42.744c-.096.288-.144.62-.144.996zm8.703 3.096h-1.092l-2.304-6.204h1.14l1.74 5.172h.024l1.692-5.172h1.068zm8.256-1.968c-.136.688-.436 1.212-.9 1.572s-1.048.54-1.752.54c-.496 0-.928-.08-1.296-.24-.36-.168-.664-.396-.912-.684s-.436-.632-.564-1.032c-.12-.4-.188-.836-.204-1.308 0-.464.072-.892.216-1.284.144-.4.344-.744.6-1.032.264-.288.572-.512.924-.672.36-.16.752-.24 1.176-.24.552 0 1.008.116 1.368.348.368.224.66.512.876.864.224.352.376.736.456 1.152.088.416.124.812.108 1.188h-4.644c-.008.272.024.532.096.78.072.24.188.456.348.648.16.184.364.332.612.444s.54.168.876.168c.424 0 .776-.1 1.056-.3s.464-.504.552-.912zm-.984-1.728c-.016-.24-.072-.468-.168-.684-.088-.216-.212-.4-.372-.552-.152-.16-.336-.284-.552-.372-.216-.096-.448-.144-.696-.144-.264 0-.504.048-.72.144-.208.088-.388.212-.54.372s-.272.348-.36.564c-.088.208-.14.432-.156.672zm1.861-2.508h.96v1.308h.024c.248-.504.552-.876.912-1.116s.816-.352 1.368-.336v1.08c-.408 0-.756.056-1.044.168s-.52.276-.696.492-.304.48-.384.792-.12.664-.12 1.056v2.76h-1.02zm4.003 0h.96v.984h.024c.216-.384.492-.668.828-.852.344-.184.74-.276 1.188-.276.408 0 .748.056 1.02.168s.492.268.66.468.284.44.348.72c.072.272.108.576.108.912v4.08h-1.02v-4.2c0-.384-.112-.688-.336-.912s-.532-.336-.924-.336c-.312 0-.584.048-.816.144-.224.096-.412.232-.564.408s-.268.384-.348.624c-.072.232-.108.488-.108.768v3.504h-1.02zm10.268 3c-.096.072-.216.128-.36.168s-.296.076-.456.108c-.16.024-.332.048-.516.072-.176.016-.348.04-.516.072s-.328.072-.48.12-.284.116-.396.204c-.112.08-.204.184-.276.312-.064.128-.096.288-.096.48 0 .168.032.312.096.432.072.112.16.204.264.276.112.072.24.124.384.156s.296.048.456.048c.336 0 .624-.044.864-.132.24-.096.436-.212.588-.348.152-.144.264-.296.336-.456.072-.168.108-.324.108-.468zm1.656 3.18c-.184.112-.428.168-.732.168-.264 0-.476-.076-.636-.228-.152-.152-.228-.396-.228-.732-.28.336-.608.58-.984.732-.368.152-.768.228-1.2.228-.28 0-.548-.032-.804-.096-.248-.064-.464-.164-.648-.3-.184-.144-.332-.324-.444-.54-.104-.224-.156-.492-.156-.804 0-.352.06-.64.18-.864s.276-.404.468-.54c.2-.136.424-.24.672-.312.256-.08.516-.144.78-.192.28-.056.544-.096.792-.12.256-.032.48-.072.672-.12.192-.056.344-.132.456-.228.112-.104.168-.252.168-.444 0-.224-.044-.404-.132-.54-.08-.136-.188-.24-.324-.312-.128-.072-.276-.12-.444-.144-.16-.024-.32-.036-.48-.036-.432 0-.792.084-1.08.252-.288.16-.444.468-.468.924h-1.02c.016-.384.096-.708.24-.972s.336-.476.576-.636c.24-.168.516-.288.828-.36s.64-.108.984-.108c.28 0 .556.02.828.06.28.04.532.124.756.252.224.12.404.292.54.516s.204.516.204.876v3.192c0 .24.012.416.036.528.032.112.128.168.288.168.096 0 .2-.02.312-.06zm.709-6.18h.96v.984h.024c.216-.384.492-.668.828-.852.344-.184.74-.276 1.188-.276.408 0 .748.056 1.02.168s.492.268.66.468.284.44.348.72c.072.272.108.576.108.912v4.08h-1.02v-4.2c0-.384-.112-.688-.336-.912s-.532-.336-.924-.336c-.312 0-.584.048-.816.144-.224.096-.412.232-.564.408s-.268.384-.348.624c-.072.232-.108.488-.108.768v3.504h-1.02zm10.64 1.992c-.08-.392-.252-.696-.516-.912-.256-.216-.596-.324-1.02-.324-.368 0-.676.068-.924.204s-.448.316-.6.54c-.144.224-.248.484-.312.78-.064.288-.096.588-.096.9 0 .288.032.568.096.84.072.272.18.516.324.732.144.208.328.376.552.504.232.128.512.192.84.192.496 0 .888-.132 1.176-.396.288-.272.464-.644.528-1.116h1.044c-.112.76-.4 1.352-.864 1.776s-1.088.636-1.872.636c-.472 0-.892-.076-1.26-.228-.36-.16-.664-.38-.912-.66-.24-.28-.424-.612-.552-.996-.12-.392-.18-.82-.18-1.284s.06-.896.18-1.296c.12-.408.3-.76.54-1.056.248-.304.552-.54.912-.708.368-.176.8-.264 1.296-.264.352 0 .68.044.984.132.312.08.588.208.828.384s.432.4.576.672c.152.264.248.58.288.948zm7.286 2.244c-.136.688-.436 1.212-.9 1.572s-1.048.54-1.752.54c-.496 0-.928-.08-1.296-.24-.36-.168-.664-.396-.912-.684s-.436-.632-.564-1.032c-.12-.4-.188-.836-.204-1.308 0-.464.072-.892.216-1.284.144-.4.344-.744.6-1.032.264-.288.572-.512.924-.672.36-.16.752-.24 1.176-.24.552 0 1.008.116 1.368.348.368.224.66.512.876.864.224.352.376.736.456 1.152.088.416.124.812.108 1.188h-4.644c-.008.272.024.532.096.78.072.24.188.456.348.648.16.184.364.332.612.444s.54.168.876.168c.424 0 .776-.1 1.056-.3s.464-.504.552-.912zm-.984-1.728c-.016-.24-.072-.468-.168-.684-.088-.216-.212-.4-.372-.552-.152-.16-.336-.284-.552-.372-.216-.096-.448-.144-.696-.144-.264 0-.504.048-.72.144-.208.088-.388.212-.54.372s-.272.348-.36.564c-.088.208-.14.432-.156.672zm5.165-4.872h3.756c.856 0 1.508.224 1.956.672.448.44.672 1.06.672 1.86s-.224 1.424-.672 1.872-1.1.668-1.956.66h-2.616v3.504h-1.14zm1.14 4.104h2.232c.648.008 1.12-.124 1.416-.396.304-.272.456-.664.456-1.176s-.152-.9-.456-1.164c-.296-.272-.768-.408-1.416-.408h-2.232zm6.293-4.104h1.02v8.568h-1.02zm6.2 5.364c-.096.072-.216.128-.36.168s-.296.076-.456.108c-.16.024-.332.048-.516.072-.176.016-.348.04-.516.072s-.328.072-.48.12-.284.116-.396.204c-.112.08-.204.184-.276.312-.064.128-.096.288-.096.48 0 .168.032.312.096.432.072.112.16.204.264.276.112.072.24.124.384.156s.296.048.456.048c.336 0 .624-.044.864-.132.24-.096.436-.212.588-.348.152-.144.264-.296.336-.456.072-.168.108-.324.108-.468zm1.656 3.18c-.184.112-.428.168-.732.168-.264 0-.476-.076-.636-.228-.152-.152-.228-.396-.228-.732-.28.336-.608.58-.984.732-.368.152-.768.228-1.2.228-.28 0-.548-.032-.804-.096-.248-.064-.464-.164-.648-.3-.184-.144-.332-.324-.444-.54-.104-.224-.156-.492-.156-.804 0-.352.06-.64.18-.864s.276-.404.468-.54c.2-.136.424-.24.672-.312.256-.08.516-.144.78-.192.28-.056.544-.096.792-.12.256-.032.48-.072.672-.12.192-.056.344-.132.456-.228.112-.104.168-.252.168-.444 0-.224-.044-.404-.132-.54-.08-.136-.188-.24-.324-.312-.128-.072-.276-.12-.444-.144-.16-.024-.32-.036-.48-.036-.432 0-.792.084-1.08.252-.288.16-.444.468-.468.924h-1.02c.016-.384.096-.708.24-.972s.336-.476.576-.636c.24-.168.516-.288.828-.36s.64-.108.984-.108c.28 0 .556.02.828.06.28.04.532.124.756.252.224.12.404.292.54.516s.204.516.204.876v3.192c0 .24.012.416.036.528.032.112.128.168.288.168.096 0 .2-.02.312-.06zm2.125-6.18h1.236v.9h-1.236v3.852c0 .12.008.216.024.288.024.072.064.128.12.168s.132.068.228.084c.104.008.236.012.396.012h.468v.9h-.78c-.264 0-.492-.016-.684-.048-.184-.04-.336-.108-.456-.204-.112-.096-.196-.232-.252-.408s-.084-.408-.084-.696v-3.948h-1.056v-.9h1.056v-1.86h1.02zm2.55.9h-1.044v-.9h1.044v-.924c0-.504.144-.884.432-1.14.296-.264.724-.396 1.284-.396.096 0 .204.008.324.024.128.016.24.04.336.072v.888c-.088-.032-.184-.052-.288-.06-.104-.016-.2-.024-.288-.024-.248 0-.44.048-.576.144s-.204.28-.204.552v.864h1.2v.9h-1.2v5.304h-1.02zm2.554 2.208c0-.456.064-.88.192-1.272.128-.4.32-.744.576-1.032.256-.296.568-.528.936-.696.376-.168.812-.252 1.308-.252.488 0 .92.084 1.296.252s.692.4.948.696c.256.288.448.632.576 1.032.128.392.192.816.192 1.272s-.064.88-.192 1.272-.32.736-.576 1.032c-.256.288-.572.516-.948.684s-.808.252-1.296.252c-.496 0-.932-.084-1.308-.252-.368-.168-.68-.396-.936-.684-.256-.296-.448-.64-.576-1.032s-.192-.816-.192-1.272zm1.08 0c0 .376.048.712.144 1.008.104.288.244.532.42.732.176.192.38.34.612.444.24.104.492.156.756.156s.512-.052.744-.156c.24-.104.448-.252.624-.444.176-.2.312-.444.408-.732.104-.296.156-.632.156-1.008s-.052-.708-.156-.996c-.096-.296-.232-.544-.408-.744s-.384-.352-.624-.456c-.232-.104-.48-.156-.744-.156s-.516.052-.756.156c-.232.104-.436.256-.612.456s-.316.448-.42.744c-.096.288-.144.62-.144.996zm5.871-3.108h.96v1.308h.024c.248-.504.552-.876.912-1.116s.816-.352 1.368-.336v1.08c-.408 0-.756.056-1.044.168s-.52.276-.696.492-.304.48-.384.792-.12.664-.12 1.056v2.76h-1.02zm3.792 0h.96v.912h.024c.464-.704 1.132-1.056 2.004-1.056.384 0 .732.08 1.044.24s.532.432.66.816c.208-.336.484-.596.828-.78s.716-.276 1.116-.276c.312 0 .592.036.84.108.256.064.472.168.648.312.184.144.324.332.42.564.104.224.156.496.156.816v4.548h-1.02v-4.068c0-.192-.016-.372-.048-.54s-.092-.312-.18-.432c-.088-.128-.212-.228-.372-.3-.152-.072-.352-.108-.6-.108-.496 0-.892.144-1.188.432-.288.288-.432.672-.432 1.152v3.864h-1.02v-4.068c0-.2-.02-.384-.06-.552-.032-.168-.092-.312-.18-.432-.088-.128-.208-.224-.36-.288-.152-.072-.34-.108-.564-.108-.304 0-.56.06-.768.18s-.38.264-.516.432c-.128.168-.224.344-.288.528-.056.176-.084.324-.084.444v3.864h-1.02z"/><path d="m76.5828 44.5822c0 .128.016.2667.048.416.032.1387.0907.2667.176.384.0853.1067.1973.1973.336.272.1493.0747.336.112.56.112.1387 0 .2773-.0053.416-.016.1493-.0107.2987-.0427.448-.096v-2.208h-.8c-.3947 0-.6933.1067-.896.32-.192.2027-.288.4747-.288.816zm4.464 4.16c-.256 0-.5067-.016-.752-.048-.2347-.0427-.4533-.112-.656-.208s-.384-.224-.544-.384c-.1493-.1707-.2667-.3893-.352-.656-.1813.0427-.368.08-.56.112-.192.0213-.384.032-.576.032-.2667 0-.576-.0373-.928-.112-.352-.0853-.688-.2347-1.008-.448-.3093-.2133-.576-.5067-.8-.88-.2133-.384-.32-.8747-.32-1.472 0-.5867.1013-1.0827.304-1.488.2133-.4053.48-.736.8-.992.3307-.256.6933-.4373 1.088-.544.4053-.1173.8-.176 1.184-.176h2.72v4.784c0 .2453.032.416.096.512.064.0853.2133.128.448.128h.384c.0853 0 .1653.0107.24.032.0747.0107.1387.048.192.112.064.0533.112.1387.144.256s.048.2773.048.48c0 .3627-.0533.6133-.16.752-.096.1387-.2507.208-.464.208zm-5.424-9.936c0-.3093.112-.576.336-.8s.4907-.336.8-.336.576.112.8.336.336.4907.336.8-.112.576-.336.8-.4907.336-.8.336-.576-.112-.8-.336-.336-.4907-.336-.8zm2.608 0c0-.3093.112-.576.336-.8s.4907-.336.8-.336.576.112.8.336.336.4907.336.8-.112.576-.336.8-.4907.336-.8.336-.576-.112-.8-.336-.336-.4907-.336-.8zm9.0793 9.936c-.1494 0-.3094-.0107-.48-.032-.1707-.0213-.336-.0587-.496-.112-.16-.064-.3147-.1493-.464-.256-.1387-.1067-.256-.2453-.352-.416-.128.1813-.2827.3307-.464.448-.1814.1067-.3734.1867-.576.24-.2027.0533-.416.0907-.64.112-.2134.0107-.4267.016-.64.016h-1.6161c-.0853 0-.1653-.0053-.24-.016-.0746-.0213-.1386-.0587-.192-.112-.064-.064-.112-.1547-.144-.272s-.048-.2773-.048-.48c0-.3627.0534-.6133.16-.752.096-.1387.2507-.208.464-.208h1.2801c.3626 0 .6133-.0533.752-.16.1493-.1173.224-.3733.224-.768v-3.6h2.08v3.424c0 .3947.1013.6773.304.848.2133.1707.576.256 1.088.256.0853 0 .1653.0107.24.032.0746.0107.1386.048.192.112.064.0533.112.1387.144.256s.048.2773.048.48c0 .3627-.0534.6133-.16.752-.096.1387-.2507.208-.464.208zm-5.312 2.688c0-.3093.112-.576.336-.8s.4906-.336.8-.336c.3093 0 .576.112.7999.336.2241.224.3361.4907.3361.8s-.112.576-.3361.8c-.2239.224-.4906.336-.7999.336-.3094 0-.576-.112-.8-.336s-.336-.4907-.336-.8zm2.608 0c0-.3093.112-.576.336-.8s.4906-.336.8-.336c.3093 0 .576.112.8.336s.336.4907.336.8-.112.576-.336.8-.4907.336-.8.336c-.3094 0-.576-.112-.8-.336s-.336-.4907-.336-.8zm3.6863-4.528c.3627 0 .6134-.0533.752-.16.1494-.1173.224-.3733.224-.768v-3.6h2.08v3.424c0 .3947.0747.6773.224.848.1494.1707.48.256.992.256.0854 0 .1654.0107.24.032.0747.0107.1387.048.192.112.064.0533.112.1387.144.256s.048.2773.048.48c0 .3627-.0533.6133-.16.752-.096.1387-.2506.208-.464.208-.3093 0-.608-.048-.896-.144-.288-.1067-.528-.3307-.72-.672-.128.1813-.2826.3307-.464.448-.1813.1067-.3733.1867-.576.24-.2026.0533-.416.0907-.64.112-.2133.0107-.4266.016-.64.016h-1.312c-.0853 0-.1653-.0053-.24-.016-.0746-.0213-.1386-.0587-.192-.112-.064-.064-.112-.1547-.144-.272s-.048-.2773-.048-.48c0-.3627.0534-.6133.16-.752.096-.1387.2507-.208.464-.208zm.864-7.296c0-.3093.112-.576.336-.8s.4907-.336.8-.336c.3094 0 .576.112.8.336s.336.4907.336.8-.112.576-.336.8-.4906.336-.8.336c-.3093 0-.576-.112-.8-.336s-.336-.4907-.336-.8zm12.1786 7.296v-1.024c0-.256-.027-.4907-.08-.704-.054-.2133-.144-.3947-.272-.544-.118-.16-.278-.2827-.48-.368-.192-.096-.438-.144-.7362-.144-.3204 0-.6404.0747-.9604.224-.32.1387-.6186.336-.896.592-.2773.256-.528.5547-.752.896-.2133.3307-.3893.688-.528 1.072zm-4.8006-2.576c.16-.32.3627-.608.608-.864.256-.2667.5387-.496.848-.688.3094-.192.6347-.3413.976-.448.352-.1067.7044-.16 1.0566-.16 1.141 0 1.989.3307 2.544.992.565.6507.848 1.5573.848 2.72v2.864h-10.8486c-.0853 0-.1653-.0053-.24-.016-.0746-.0213-.1386-.0587-.192-.112-.064-.064-.112-.1547-.144-.272s-.048-.2773-.048-.48c0-.3627.0534-.6133.16-.752.096-.1387.2507-.208.464-.208h1.888v-9.584h2.08zm14.5186 4.416c-.149 1.1627-.629 2.0053-1.44 2.528-.811.5333-2.021.8-3.632.8h-.496v-1.952h.368c.555 0 1.019-.032 1.392-.096s.677-.16.912-.288c.245-.1173.427-.2613.544-.432.117-.16.192-.3467.224-.56h-.992c-.469 0-.901-.0533-1.296-.16s-.736-.2773-1.024-.512c-.288-.2453-.512-.5547-.672-.928-.16-.384-.24-.8427-.24-1.376 0-.4267.069-.848.208-1.264.149-.416.363-.7893.64-1.12s.619-.592 1.024-.784c.405-.2027.869-.304 1.392-.304.587 0 1.077.1013 1.472.304.405.2027.731.4907.976.864.245.3627.421.8.528 1.312.107.5013.16 1.056.16 1.664v.464h1.168c.085 0 .165.0107.24.032.075.0107.139.048.192.112.064.0533.112.1387.144.256s.048.2773.048.48c0 .3627-.053.6133-.16.752-.096.1387-.251.208-.464.208zm-4.304-3.168c0 .512.107.864.32 1.056.224.1813.517.272.88.272h1.056v-.96c0-.512-.08-.9333-.24-1.264-.16-.3413-.459-.512-.896-.512-.395 0-.683.1333-.864.4-.171.2667-.256.6027-.256 1.008zm7.361 1.328v-9.584h2.096v11.424h-3.937c-.086 0-.165-.0053-.239-.016-.075-.0213-.139-.0587-.192-.112-.064-.064-.112-.1547-.144-.272s-.048-.2773-.048-.48c0-.3627.053-.6133.16-.752.096-.1387.249-.208.463-.208zm6.074-9.584v11.424h-2.064v-11.424zm18.31 11.424h-9.568c-.629 0-1.157-.0427-1.584-.128-.427-.096-.768-.2453-1.024-.448s-.443-.464-.56-.784c-.107-.32-.16-.7093-.16-1.168v-2.64h2.096v2.336c0 .2027.027.368.08.496s.149.2293.288.304.325.128.56.16c.235.0213.533.032.896.032h6.896v-4.528h2.08zm-8.8-8.208c0-.3093.112-.576.336-.8s.491-.336.8-.336.576.112.8.336.336.4907.336.8-.112.576-.336.8-.491.336-.8.336-.576-.112-.8-.336-.336-.4907-.336-.8zm2.608 0c0-.3093.112-.576.336-.8s.491-.336.8-.336.576.112.8.336.336.4907.336.8-.112.576-.336.8-.491.336-.8.336-.576-.112-.8-.336-.336-.4907-.336-.8zm11.891 7.248c0 .3627-.053.6133-.16.752-.096.1387-.25.208-.464.208h-.672c-.362 0-.698-.0373-1.008-.112-.298-.0853-.56-.2187-.784-.4-.213-.192-.384-.4427-.512-.752-.117-.3093-.176-.6933-.176-1.152v-9.008h2.08v8.72c0 .3733.064.6133.192.72.139.096.331.144.576.144h.304c.086 0 .166.0107.24.032.075.0107.139.048.192.112.064.0533.112.1387.144.256s.048.2773.048.48zm1.054-8.176c0-.3093.112-.576.336-.8s.491-.336.8-.336.576.112.8.336.336.4907.336.8-.112.576-.336.8-.491.336-.8.336-.576-.112-.8-.336-.336-.4907-.336-.8zm.128 7.296v-4.528h2.096v6.368h-3.936c-.085 0-.165-.0053-.24-.016-.075-.0213-.139-.0587-.192-.112-.064-.064-.112-.1547-.144-.272s-.048-.2773-.048-.48c0-.3627.053-.6133.16-.752.096-.1387.251-.208.464-.208zm7.787.88c0 .3627-.053.6133-.16.752-.096.1387-.251.208-.464.208h-.672c-.363 0-.699-.0373-1.008-.112-.299-.0853-.56-.2187-.784-.4-.213-.192-.384-.4427-.512-.752-.117-.3093-.176-.6933-.176-1.152v-9.008h2.08v8.72c0 .3733.064.6133.192.72.139.096.331.144.576.144h.304c.085 0 .165.0107.24.032.075.0107.139.048.192.112.064.0533.112.1387.144.256s.048.2773.048.48zm5.086.96c-.15 0-.31-.0107-.48-.032-.171-.0213-.336-.0587-.496-.112-.16-.064-.315-.1493-.464-.256-.139-.1067-.256-.2453-.352-.416-.128.1813-.283.3307-.464.448-.182.1067-.374.1867-.576.24-.203.0533-.416.0907-.64.112-.214.0107-.427.016-.64.016h-1.616c-.086 0-.166-.0053-.24-.016-.075-.0213-.139-.0587-.192-.112-.064-.064-.112-.1547-.144-.272s-.048-.2773-.048-.48c0-.3627.053-.6133.16-.752.096-.1387.25-.208.464-.208h1.28c.362 0 .613-.0533.752-.16.149-.1173.224-.3733.224-.768v-3.6h2.08v3.424c0 .3947.101.6773.304.848.213.1707.576.256 1.088.256.085 0 .165.0107.24.032.074.0107.138.048.192.112.064.0533.112.1387.144.256s.048.2773.048.48c0 .3627-.054.6133-.16.752-.096.1387-.251.208-.464.208zm-5.312 2.688c0-.3093.112-.576.336-.8s.49-.336.8-.336c.309 0 .576.112.8.336s.336.4907.336.8-.112.576-.336.8-.491.336-.8.336c-.31 0-.576-.112-.8-.336s-.336-.4907-.336-.8zm2.608 0c0-.3093.112-.576.336-.8s.49-.336.8-.336c.309 0 .576.112.8.336s.336.4907.336.8-.112.576-.336.8-.491.336-.8.336c-.31 0-.576-.112-.8-.336s-.336-.4907-.336-.8zm3.686-4.528c.363 0 .613-.0533.752-.16.149-.1173.224-.3733.224-.768v-3.6h2.08v3.424c0 .3947.075.6773.224.848s.48.256.992.256c.085 0 .165.0107.24.032.075.0107.139.048.192.112.064.0533.112.1387.144.256s.048.2773.048.48c0 .3627-.053.6133-.16.752-.096.1387-.251.208-.464.208-.309 0-.608-.048-.896-.144-.288-.1067-.528-.3307-.72-.672-.128.1813-.283.3307-.464.448-.181.1067-.373.1867-.576.24s-.416.0907-.64.112c-.213.0107-.427.016-.64.016h-1.312c-.085 0-.165-.0053-.24-.016-.075-.0213-.139-.0587-.192-.112-.064-.064-.112-.1547-.144-.272s-.048-.2773-.048-.48c0-.3627.053-.6133.16-.752.096-.1387.251-.208.464-.208zm.88 4.48c0-.3093.112-.576.336-.8s.491-.336.8-.336.576.112.8.336.336.4907.336.8-.112.576-.336.8-.491.336-.8.336-.576-.112-.8-.336-.336-.4907-.336-.8zm5.234-4.48v-9.584h2.096v11.424h-3.936c-.085 0-.165-.0053-.24-.016-.075-.0213-.139-.0587-.192-.112-.064-.064-.112-.1547-.144-.272s-.048-.2773-.048-.48c0-.3627.053-.6133.16-.752.096-.1387.251-.208.464-.208zm6.075-9.584v11.424h-2.064v-11.424zm7.445 7.264c0 .128.016.2667.048.416.032.1387.091.2667.176.384.086.1067.198.1973.336.272.15.0747.336.112.56.112.139 0 .278-.0053.416-.016.15-.0107.299-.0427.448-.096v-2.208h-.8c-.394 0-.693.1067-.896.32-.192.2027-.288.4747-.288.816zm4.464 4.16c-.256 0-.506-.016-.752-.048-.234-.0427-.453-.112-.656-.208-.202-.096-.384-.224-.544-.384-.149-.1707-.266-.3893-.352-.656-.181.0427-.368.08-.56.112-.192.0213-.384.032-.576.032-.266 0-.576-.0373-.928-.112-.352-.0853-.688-.2347-1.008-.448-.309-.2133-.576-.5067-.8-.88-.213-.384-.32-.8747-.32-1.472 0-.5867.102-1.0827.304-1.488.214-.4053.48-.736.8-.992.331-.256.694-.4373 1.088-.544.406-.1173.8-.176 1.184-.176h2.72v4.784c0 .2453.032.416.096.512.064.0853.214.128.448.128h.384c.086 0 .166.0107.24.032.075.0107.139.048.192.112.064.0533.112.1387.144.256s.048.2773.048.48c0 .3627-.053.6133-.16.752-.096.1387-.25.208-.464.208zm-5.424-9.936c0-.3093.112-.576.336-.8s.491-.336.8-.336c.31 0 .576.112.8.336s.336.4907.336.8-.112.576-.336.8-.49.336-.8.336c-.309 0-.576-.112-.8-.336s-.336-.4907-.336-.8zm2.608 0c0-.3093.112-.576.336-.8s.491-.336.8-.336c.31 0 .576.112.8.336s.336.4907.336.8-.112.576-.336.8-.49.336-.8.336c-.309 0-.576-.112-.8-.336s-.336-.4907-.336-.8zm8.344 5.632c-.331.0213-.63.192-.896.512-.267.32-.496.816-.688 1.488.266.16.533.2987.8.416.277.1067.554.16.832.16.341 0 .602-.112.784-.336.192-.2347.288-.5387.288-.912 0-.16-.022-.32-.064-.48-.043-.16-.112-.304-.208-.432-.086-.128-.203-.2293-.352-.304-.139-.0747-.304-.112-.496-.112zm-4.288 2.464c.288 0 .506-.1067.656-.32.149-.2133.298-.5227.448-.928.224-.6507.469-1.1787.736-1.584.266-.4053.549-.72.848-.944.309-.2347.613-.3893.912-.464.309-.0853.608-.128.896-.128.416 0 .805.08 1.168.24.362.16.672.384.928.672.266.288.474.6347.624 1.04.149.4053.224.848.224 1.328 0 .0747-.006.144-.016.208v.192c.138.256.352.4373.64.544.288.096.56.144.816.144.085 0 .165.0107.24.032.074.0107.138.048.192.112.064.0533.112.1387.144.256s.048.2773.048.48c0 .3627-.054.6133-.16.752-.096.1387-.251.208-.464.208-.406 0-.779-.08-1.12-.24-.342-.1707-.63-.4267-.864-.768-.224.3733-.523.6667-.896.88-.363.2133-.832.32-1.408.32-.427 0-.859-.064-1.297-.192-.426-.128-.879-.3467-1.359-.656-.278.3093-.56.496-.848.56s-.603.096-.944.096h-.849c-.085 0-.165-.0053-.24-.016-.074-.0213-.138-.0587-.192-.112-.064-.064-.112-.1547-.144-.272s-.048-.2773-.048-.48c0-.3627.054-.6133.16-.752.096-.1387.251-.208.464-.208zm12.602 0c.224 0 .437-.0427.64-.128.202-.096.304-.2827.304-.56 0-.192-.123-.448-.368-.768-.235-.3307-.55-.6773-.944-1.04-.395-.3627-.843-.72-1.344-1.072-.502-.3627-1.008-.6773-1.52-.944.074-.352.16-.64.256-.864.106-.2347.213-.4213.32-.56.106-.1387.208-.24.304-.304.106-.0747.192-.128.256-.16l5.584-2.464v2.144l-3.776 1.568v.048c.64.416 1.168.8267 1.584 1.232s.746.8.992 1.184c.256.384.432.752.528 1.104.096.3413.144.6613.144.96 0 .256-.038.528-.112.816-.064.288-.198.5547-.4.8-.203.2453-.491.448-.864.608-.363.16-.843.24-1.44.24h-3.872c-.086 0-.166-.0053-.24-.016-.075-.0213-.139-.0587-.192-.112-.064-.064-.112-.1547-.144-.272s-.048-.2773-.048-.48c0-.3627.053-.6133.16-.752.096-.1387.25-.208.464-.208zm10.727 1.84c-.15 1.1627-.63 2.0053-1.44 2.528-.811.5333-2.022.8-3.632.8h-.496v-1.952h.368c.554 0 1.018-.032 1.392-.096.373-.064.677-.16.912-.288.245-.1173.426-.2613.544-.432.117-.16.192-.3467.224-.56h-.992c-.47 0-.902-.0533-1.296-.16-.395-.1067-.736-.2773-1.024-.512-.288-.2453-.512-.5547-.672-.928-.16-.384-.24-.8427-.24-1.376 0-.4267.069-.848.208-1.264.149-.416.362-.7893.64-1.12.277-.3307.618-.592 1.024-.784.405-.2027.869-.304 1.392-.304.586 0 1.077.1013 1.472.304.405.2027.73.4907.976.864.245.3627.421.8.528 1.312.106.5013.16 1.056.16 1.664v.464h1.168c.085 0 .165.0107.24.032.074.0107.138.048.192.112.064.0533.112.1387.144.256s.048.2773.048.48c0 .3627-.054.6133-.16.752-.096.1387-.251.208-.464.208zm-4.304-3.168c0 .512.106.864.32 1.056.224.1813.517.272.88.272h1.056v-.96c0-.512-.08-.9333-.24-1.264-.16-.3413-.459-.512-.896-.512-.395 0-.683.1333-.864.4-.171.2667-.256.6027-.256 1.008zm11.249 1.328c-.032-.4267-.102-.816-.208-1.168-.107-.3627-.272-.672-.496-.928-.214-.256-.491-.4533-.832-.592-.342-.1493-.768-.224-1.28-.224-.171 0-.443.0267-.816.08-.363.0427-.731.1173-1.104.224v-1.856c.245-.0853.576-.176.992-.272.426-.096.864-.144 1.312-.144.832 0 1.53.144 2.096.432.576.288 1.04.672 1.392 1.152s.602 1.04.752 1.68c.16.6293.24 1.2853.24 1.968v1.488h-7.777c-.085 0-.165-.0053-.24-.016-.074-.0213-.138-.0587-.192-.112-.064-.064-.112-.1547-.144-.272s-.048-.2773-.048-.48c0-.3627.054-.6133.16-.752.096-.1387.251-.208.464-.208zm9.335-2.32c0 .128.016.2667.048.416.032.1387.09.2667.176.384.085.1067.197.1973.336.272.149.0747.336.112.56.112.138 0 .277-.0053.416-.016.149-.0107.298-.0427.448-.096v-2.208h-.8c-.395 0-.694.1067-.896.32-.192.2027-.288.4747-.288.816zm4.464 4.16c-.256 0-.507-.016-.752-.048-.235-.0427-.454-.112-.656-.208-.203-.096-.384-.224-.544-.384-.15-.1707-.267-.3893-.352-.656-.182.0427-.368.08-.56.112-.192.0213-.384.032-.576.032-.267 0-.576-.0373-.928-.112-.352-.0853-.688-.2347-1.008-.448-.31-.2133-.576-.5067-.8-.88-.214-.384-.32-.8747-.32-1.472 0-.5867.101-1.0827.304-1.488.213-.4053.48-.736.8-.992.33-.256.693-.4373 1.088-.544.405-.1173.8-.176 1.184-.176h2.72v4.784c0 .2453.032.416.096.512.064.0853.213.128.448.128h.384c.085 0 .165.0107.24.032.074.0107.138.048.192.112.064.0533.112.1387.144.256s.048.2773.048.48c0 .3627-.054.6133-.16.752-.096.1387-.251.208-.464.208zm-5.424-9.936c0-.3093.112-.576.336-.8s.49-.336.8-.336c.309 0 .576.112.8.336s.336.4907.336.8-.112.576-.336.8-.491.336-.8.336c-.31 0-.576-.112-.8-.336s-.336-.4907-.336-.8zm2.608 0c0-.3093.112-.576.336-.8s.49-.336.8-.336c.309 0 .576.112.8.336s.336.4907.336.8-.112.576-.336.8-.491.336-.8.336c-.31 0-.576-.112-.8-.336s-.336-.4907-.336-.8zm8.535 8.08c.213-.6187.491-1.2107.832-1.776s.741-1.0667 1.2-1.504.976-.784 1.552-1.04c.576-.2667 1.2-.4 1.872-.4 1.067 0 1.909.3253 2.528.976.619.64.928 1.552.928 2.736v1.024h1.264c.085 0 .165.0107.24.032.075.0107.139.048.192.112.064.0533.112.1387.144.256s.048.2773.048.48c0 .3627-.053.6133-.16.752-.096.1387-.251.208-.464.208h-9.648c-.544 0-1.008-.0853-1.392-.256-.373-.1813-.645-.3733-.816-.576-.277.3733-.645.608-1.104.704-.459.0853-1.051.128-1.776.128h-.624c-.085 0-.165-.0053-.24-.016-.075-.0213-.139-.0587-.192-.112-.064-.064-.112-.1547-.144-.272s-.048-.2773-.048-.48c0-.3627.053-.6133.16-.752.096-.1387.251-.208.464-.208h.656c.235 0 .427-.0053.576-.016.16-.0107.288-.0427.384-.096s.165-.128.208-.224c.043-.1067.064-.2507.064-.432v-3.056h2.064v2.72c0 .3413.085.608.256.8s.496.288.976.288zm6.848.016v-.752c0-.544-.123-.992-.368-1.344-.235-.352-.656-.528-1.264-.528-.363 0-.704.0747-1.024.224-.32.1387-.619.3307-.896.576-.267.2347-.507.512-.72.832-.203.3093-.368.64-.496.992zm4.303 0c.363 0 .614-.0533.752-.16.15-.1173.224-.3733.224-.768v-3.6h2.08v3.424c0 .3947.075.6773.224.848.15.1707.48.256.992.256.086 0 .166.0107.24.032.075.0107.139.048.192.112.064.0533.112.1387.144.256s.048.2773.048.48c0 .3627-.053.6133-.16.752-.096.1387-.25.208-.464.208-.309 0-.608-.048-.896-.144-.288-.1067-.528-.3307-.72-.672-.128.1813-.282.3307-.464.448-.181.1067-.373.1867-.576.24-.202.0533-.416.0907-.64.112-.213.0107-.426.016-.64.016h-1.312c-.085 0-.165-.0053-.24-.016-.074-.0213-.138-.0587-.192-.112-.064-.064-.112-.1547-.144-.272s-.048-.2773-.048-.48c0-.3627.054-.6133.16-.752.096-.1387.251-.208.464-.208zm.864-7.296c0-.3093.112-.576.336-.8s.491-.336.8-.336c.31 0 .576.112.8.336s.336.4907.336.8-.112.576-.336.8-.49.336-.8.336c-.309 0-.576-.112-.8-.336s-.336-.4907-.336-.8zm9.522 6.16c0-.16-.021-.32-.064-.48-.032-.16-.09-.2987-.176-.416-.074-.128-.181-.2293-.32-.304-.128-.0853-.288-.128-.48-.128-.33 0-.645.1653-.944.496-.288.3307-.528.832-.72 1.504.267.16.534.2987.8.416.278.1067.555.16.832.16.342 0 .603-.112.784-.336.192-.2347.288-.5387.288-.912zm-5.408 1.136c.288 0 .507-.1067.656-.32.15-.2133.299-.5227.448-.928.224-.6507.47-1.184.736-1.6.278-.416.566-.736.864-.96.299-.224.598-.3733.896-.448.31-.0747.608-.112.896-.112.448 0 .854.08 1.216.24.363.16.672.384.928.672s.454.6347.592 1.04c.139.4053.208.848.208 1.328 0 .448-.058.864-.176 1.248-.117.3733-.293.704-.528.992-.234.2773-.533.496-.896.656-.352.1493-.768.224-1.248.224-.426 0-.858-.064-1.296-.192-.426-.128-.88-.3467-1.36-.656-.277.3093-.56.496-.848.56s-.602.096-.944.096h-.848c-.085 0-.165-.0053-.24-.016-.074-.0213-.138-.0587-.192-.112-.064-.064-.112-.1547-.144-.272s-.048-.2773-.048-.48c0-.3627.054-.6133.16-.752.096-.1387.251-.208.464-.208z"/></g><path d="m49.4201 27.5789-9.8632-5.7894-9.7605-5.7895-9.8631 5.7895-9.8632 5.7894-9.761506 5.8947v11.5789l9.760506-5.7894 9.8632-5.7895 9.8641-5.8947 9.7605 5.8947 9.8632 5.7895 9.7605 5.7894v-11.5789z" fill="#6cf"/><path d="m38.5271 35.4688v9.2632l-7.8083-4.6311z" fill="url(#c)"/><path d="m11.0977 41.2656 7.8084 4.6312-7.8084 4.6312z" fill="url(#d)"/><path d="m27.9468 44.9453v7.4738l-6.2671-3.6843z" fill="url(#e)"/><path d="m57.435 64.5234v7.4738l-6.267-3.7895z" fill="url(#f)"/><path d="m41.3047 52.9453 6.2671 3.6843-6.2671 3.6863z" fill="url(#g)"/><path d="m13.9766 61.2656 6.267 3.6843-6.267 3.7895z" fill="url(#h)"/><path d="m6.26706 56.6328v7.3686l-6.26706-3.6843z" fill="url(#i)"/><path d="m49.4218 27.5781v11.6842l-9.8593-5.7895z" fill="url(#j)"/><path d="m29.793 16 9.7624 5.7895-9.7624 5.7894z" fill="url(#k)"/><path d="m.308594 33.4688 9.760506 5.7894-9.760506 5.7895z" fill="url(#l)"/><path d="m10.0703 27.5781 9.8632 5.8947-9.8632 5.7895z" fill="url(#m)"/><path d="m28.7693 29.6875v9.2633l-7.8083-4.6311z" fill="url(#n)"/><path d="m18.9061 35.4688v9.2632l-7.8084-4.6311z" fill="url(#o)"/><path d="m40.582 35.4688 7.8084 4.631-7.8084 4.6322z" fill="url(#p)"/><path d="m9.14546 41.2656v9.2634l-7.91108-4.6312z" fill="url(#q)"/><path d="m48.3983 41.2656v9.2634l-7.8084-4.6312z" fill="url(#r)"/><path d="m58.2587 47.0547v9.2633l-7.9149-4.6311z" fill="url(#s)"/><path d="m30.7188 29.6875 7.8083 4.6312-7.8083 4.6312z" fill="url(#t)"/><path d="m1.23438 47.0547 7.91108 4.6312-7.91108 4.6321z" fill="url(#u)"/><path d="m50.3438 41.2656 7.9149 4.6322-7.9149 4.6312z" fill="url(#v)"/><path d="m20.961 35.4688 7.8083 4.631-7.8083 4.6322z" fill="url(#w)"/><path d="m2.05469 64.5234 6.26705 3.6843-6.26705 3.7895z" fill="url(#x)"/><path d="m51.168 56.6328 6.267 3.6843-6.267 3.6843z" fill="url(#y)"/><path d="m47.5718 59.1562v7.4739l-6.2671-3.7896z" fill="url(#z)"/><path d="m37.81 63.4766v7.3686l-6.267-3.6853z" fill="url(#A)"/><path d="m21.6797 52.9453 6.2671 3.6843-6.2671 3.6863z" fill="url(#B)"/><path d="m18.186 52.9453v7.3706l-6.268-3.6863z" fill="url(#C)"/><path d="m31.543 43.1641 6.267 3.6843-6.267 3.6843z" fill="url(#D)"/><path d="m29.7968 16v11.5789l-9.8632-5.7894z" fill="url(#E)"/><path d="m19.9335 21.7812v11.6842l-9.8632-5.8947z" fill="url(#F)"/><path d="m39.5625 21.7812 9.8632 5.7895-9.8632 5.8947z" fill="url(#G)"/><path d="m39.5554 21.7812v11.6842l-9.7624-5.8947z" fill="url(#H)"/><path d="m10.0701 27.5781v11.6842l-9.761506-5.7895z" fill="url(#I)"/><path d="m59.1785 33.4688v11.5789l-9.7605-5.7895z" fill="url(#J)"/><path d="m49.418 27.5781v11.6842l9.7605-5.7895z" fill="url(#K)"/><path d="m19.9336 21.7812 9.8632 5.7895-9.8632 5.8947z" fill="url(#L)"/></svg>