<svg fill="none" height="69" viewBox="0 0 268 69" width="268" xmlns="http://www.w3.org/2000/svg" xmlns:xlink="http://www.w3.org/1999/xlink"><linearGradient id="a" gradientUnits="userSpaceOnUse" x1="122.5" x2="122.5" y1="0" y2="26"><stop offset="0" stop-color="#6258a6"/><stop offset="1" stop-color="#6456c2" stop-opacity=".29"/></linearGradient><linearGradient id="b"><stop offset="0" stop-color="#6cf"/><stop offset=".5" stop-color="#6258a6"/><stop offset=".99" stop-color="#273470"/></linearGradient><linearGradient id="c" gradientUnits="userSpaceOnUse" x1="21.8718" x2="63.9511" xlink:href="#b" y1="75.6823" y2="35.6959"/><linearGradient id="d" gradientUnits="userSpaceOnUse" x1="4.57765" x2="46.6435" xlink:href="#b" y1="62.0977" y2="22.1188"/><linearGradient id="e" gradientUnits="userSpaceOnUse" x1="14.272" x2="48.0632" xlink:href="#b" y1="63.6418" y2="31.856"/><linearGradient id="f" gradientUnits="userSpaceOnUse" x1="27.6477" x2="61.4512" xlink:href="#b" y1="65.6041" y2="33.8209"/><linearGradient id="g" gradientUnits="userSpaceOnUse" x1="23.3684" x2="56.7933" xlink:href="#b" y1="66.109" y2="33.779"/><linearGradient id="h" gradientUnits="userSpaceOnUse" x1=".909745" x2="34.7133" xlink:href="#b" y1="51.1207" y2="19.3374"/><linearGradient id="i" gradientUnits="userSpaceOnUse" x1="-5.3834" x2="28.0453" xlink:href="#b" y1="49.3001" y2="16.9722"/><linearGradient id="j" gradientUnits="userSpaceOnUse" x1="31.4877" x2="73.5167" xlink:href="#b" y1="83.2208" y2="43.1828"/><linearGradient id="k" gradientUnits="userSpaceOnUse" x1="28.026" x2="70.1054" xlink:href="#b" y1="80.5052" y2="40.5201"/><linearGradient id="l" gradientUnits="userSpaceOnUse" x1="1.25536" x2="43.315" xlink:href="#b" y1="59.4856" y2="19.505"/><linearGradient id="m" gradientUnits="userSpaceOnUse" x1="10.1788" x2="52.197" xlink:href="#b" y1="66.4891" y2="26.4443"/><linearGradient id="n" gradientUnits="userSpaceOnUse" x1="24.8339" x2="24.8339" xlink:href="#b" y1="79.5905" y2="28.4661"/><linearGradient id="o" gradientUnits="userSpaceOnUse" x1="15.0097" x2="15.0097" xlink:href="#b" y1="79.5821" y2="28.4577"/><linearGradient id="p" gradientUnits="userSpaceOnUse" x1="44.4628" x2="44.4628" xlink:href="#b" y1="79.5821" y2="28.4577"/><linearGradient id="q" gradientUnits="userSpaceOnUse" x1="5.19783" x2="5.19783" xlink:href="#b" y1="79.5894" y2="28.465"/><linearGradient id="r" gradientUnits="userSpaceOnUse" x1="44.4706" x2="44.4706" xlink:href="#b" y1="79.5894" y2="28.465"/><linearGradient id="s" gradientUnits="userSpaceOnUse" x1="54.2933" x2="54.2933" xlink:href="#b" y1="79.5889" y2="28.4645"/><linearGradient id="t" gradientUnits="userSpaceOnUse" x1="34.6464" x2="34.6464" xlink:href="#b" y1="79.5848" y2="28.4659"/><linearGradient id="u" gradientUnits="userSpaceOnUse" x1="5.19783" x2="5.19783" xlink:href="#b" y1="79.5889" y2="28.4645"/><linearGradient id="v" gradientUnits="userSpaceOnUse" x1="54.2933" x2="54.2933" xlink:href="#b" y1="79.5894" y2="28.465"/><linearGradient id="w" gradientUnits="userSpaceOnUse" x1="24.8339" x2="24.8339" xlink:href="#b" y1="79.5821" y2="28.4577"/><linearGradient id="x" gradientUnits="userSpaceOnUse" x1="5.19448" x2="5.19448" xlink:href="#b" y1="69.2887" y2="28.3995"/><linearGradient id="y" gradientUnits="userSpaceOnUse" x1="54.289" x2="54.289" xlink:href="#b" y1="70.8753" y2="29.9796"/><linearGradient id="z" gradientUnits="userSpaceOnUse" x1="44.4758" x2="44.4758" xlink:href="#b" y1="70.3565" y2="29.4598"/><linearGradient id="A" gradientUnits="userSpaceOnUse" x1="34.6514" x2="34.6514" xlink:href="#b" y1="69.5178" y2="28.6148"/><linearGradient id="B" gradientUnits="userSpaceOnUse" x1="24.832" x2="24.832" xlink:href="#b" y1="71.6222" y2="30.7081"/><linearGradient id="C" gradientUnits="userSpaceOnUse" x1="15.0081" x2="15.0081" xlink:href="#b" y1="71.6222" y2="30.7081"/><linearGradient id="D" gradientUnits="userSpaceOnUse" x1="34.6514" x2="34.6514" xlink:href="#b" y1="73.588" y2="32.6923"/><linearGradient id="E" gradientUnits="userSpaceOnUse" x1="24.8356" x2="24.8356" xlink:href="#b" y1="79.5904" y2="28.4579"/><linearGradient id="F" gradientUnits="userSpaceOnUse" x1="15.0118" x2="15.0118" xlink:href="#b" y1="79.5855" y2="28.444"/><linearGradient id="G" gradientUnits="userSpaceOnUse" x1="44.4842" x2="44.4842" xlink:href="#b" y1="79.5855" y2="28.4557"/><linearGradient id="H" gradientUnits="userSpaceOnUse" x1="34.6547" x2="34.6547" xlink:href="#b" y1="79.5855" y2="28.4557"/><linearGradient id="I" gradientUnits="userSpaceOnUse" x1="5.18932" x2="5.18932" xlink:href="#b" y1="79.5871" y2="28.4573"/><linearGradient id="J" gradientUnits="userSpaceOnUse" x1="54.2982" x2="54.2982" xlink:href="#b" y1="79.5866" y2="28.454"/><linearGradient id="K" gradientUnits="userSpaceOnUse" x1="54.2982" x2="54.2982" xlink:href="#b" y1="79.5871" y2="28.4573"/><linearGradient id="L" gradientUnits="userSpaceOnUse" x1="24.8356" x2="24.8356" xlink:href="#b" y1="79.5855" y2="28.4557"/><rect fill="url(#a)" height="26" rx="6" width="95" x="75"/><g fill="#fff"><path d="m75.4748 55.1742h1.212l4.512 6.948h.024v-6.948h1.08v8.568h-1.248l-4.476-6.876h-.024v6.876h-1.08zm12.1041 5.364c-.096.072-.216.128-.36.168s-.296.076-.456.108c-.16.024-.332.048-.516.072-.176.016-.348.04-.516.072s-.328.072-.48.12-.284.116-.396.204c-.112.08-.204.184-.276.312-.064.128-.096.288-.096.48 0 .168.032.312.096.432.072.112.16.204.264.276.112.072.24.124.384.156s.296.048.456.048c.336 0 .624-.044.864-.132.24-.096.436-.212.588-.348.152-.144.264-.296.336-.456.072-.168.108-.324.108-.468zm1.656 3.18c-.184.112-.428.168-.732.168-.264 0-.476-.076-.636-.228-.152-.152-.228-.396-.228-.732-.28.336-.608.58-.984.732-.368.152-.768.228-1.2.228-.28 0-.548-.032-.804-.096-.248-.064-.464-.164-.648-.3-.184-.144-.332-.324-.444-.54-.104-.224-.156-.492-.156-.804 0-.352.06-.64.18-.864s.276-.404.468-.54c.2-.136.424-.24.672-.312.256-.08.516-.144.78-.192.28-.056.544-.096.792-.12.256-.032.48-.072.672-.12.192-.056.344-.132.456-.228.112-.104.168-.252.168-.444 0-.224-.044-.404-.132-.54-.08-.136-.188-.24-.324-.312-.128-.072-.276-.12-.444-.144-.16-.024-.32-.036-.48-.036-.432 0-.792.084-1.08.252-.288.16-.444.468-.468.924h-1.02c.016-.384.096-.708.24-.972s.336-.476.576-.636c.24-.168.516-.288.828-.36s.64-.108.984-.108c.28 0 .556.02.828.06.28.04.532.124.756.252.224.12.404.292.54.516s.204.516.204.876v3.192c0 .24.012.416.036.528.032.112.128.168.288.168.096 0 .2-.02.312-.06zm2.1254-6.18h1.236v.9h-1.236v3.852c0 .12.008.216.024.288.024.072.064.128.12.168s.132.068.228.084c.104.008.236.012.396.012h.468v.9h-.78c-.264 0-.492-.016-.684-.048-.184-.04-.336-.108-.456-.204-.112-.096-.196-.232-.252-.408s-.084-.408-.084-.696v-3.948h-1.056v-.9h1.056v-1.86h1.02zm2.1891 0h1.02v6.204h-1.02zm1.02-1.116h-1.02v-1.248h1.02zm1.0042 4.224c0-.456.064-.88.192-1.272.128-.4.32-.744.576-1.032.256-.296.568-.528.936-.696.376-.168.812-.252 1.308-.252.488 0 .92.084 1.296.252.3764.168.6924.4.9484.696.256.288.448.632.576 1.032.128.392.192.816.192 1.272s-.064.88-.192 1.272-.32.736-.576 1.032c-.256.288-.572.516-.9484.684-.376.168-.808.252-1.296.252-.496 0-.932-.084-1.308-.252-.368-.168-.68-.396-.936-.684-.256-.296-.448-.64-.576-1.032s-.192-.816-.192-1.272zm1.08 0c0 .376.048.712.144 1.008.104.288.244.532.42.732.176.192.38.34.612.444.24.104.492.156.756.156s.512-.052.744-.156c.24-.104.448-.252.624-.444.1764-.2.3124-.444.4084-.732.104-.296.156-.632.156-1.008s-.052-.708-.156-.996c-.096-.296-.232-.544-.4084-.744-.176-.2-.384-.352-.624-.456-.232-.104-.48-.156-.744-.156s-.516.052-.756.156c-.232.104-.436.256-.612.456s-.316.448-.42.744c-.096.288-.144.62-.144.996zm5.9064-3.108h.96v.984h.024c.216-.384.492-.668.828-.852.344-.184.74-.276 1.188-.276.408 0 .748.056 1.02.168s.492.268.66.468.284.44.348.72c.072.272.108.576.108.912v4.08h-1.02v-4.2c0-.384-.112-.688-.336-.912s-.532-.336-.924-.336c-.312 0-.584.048-.816.144-.224.096-.412.232-.564.408s-.268.384-.348.624c-.072.232-.108.488-.108.768v3.504h-1.02zm10.268 3c-.096.072-.216.128-.36.168s-.296.076-.456.108c-.16.024-.332.048-.516.072-.176.016-.348.04-.516.072s-.328.072-.48.12-.284.116-.396.204c-.112.08-.204.184-.276.312-.064.128-.096.288-.096.48 0 .168.032.312.096.432.072.112.16.204.264.276.112.072.24.124.384.156s.296.048.456.048c.336 0 .624-.044.864-.132.24-.096.436-.212.588-.348.152-.144.264-.296.336-.456.072-.168.108-.324.108-.468zm1.656 3.18c-.184.112-.428.168-.732.168-.264 0-.476-.076-.636-.228-.152-.152-.228-.396-.228-.732-.28.336-.608.58-.984.732-.368.152-.768.228-1.2.228-.28 0-.548-.032-.804-.096-.248-.064-.464-.164-.648-.3-.184-.144-.332-.324-.444-.54-.104-.224-.156-.492-.156-.804 0-.352.06-.64.18-.864s.276-.404.468-.54c.2-.136.424-.24.672-.312.256-.08.516-.144.78-.192.28-.056.544-.096.792-.12.256-.032.48-.072.672-.12.192-.056.344-.132.456-.228.112-.104.168-.252.168-.444 0-.224-.044-.404-.132-.54-.08-.136-.188-.24-.324-.312-.128-.072-.276-.12-.444-.144-.16-.024-.32-.036-.48-.036-.432 0-.792.084-1.08.252-.288.16-.444.468-.468.924h-1.02c.016-.384.096-.708.24-.972s.336-.476.576-.636c.24-.168.516-.288.828-.36s.64-.108.984-.108c.28 0 .556.02.828.06.28.04.532.124.756.252.224.12.404.292.54.516s.204.516.204.876v3.192c0 .24.012.416.036.528.032.112.128.168.288.168.096 0 .2-.02.312-.06zm.769-8.544h1.02v8.568h-1.02zm5.628 0h2.94c1.32 0 2.336.336 3.048 1.008s1.068 1.696 1.068 3.072c0 .72-.08 1.36-.24 1.92-.16.552-.408 1.02-.744 1.404-.336.376-.764.664-1.284.864s-1.136.3-1.848.3h-2.94zm1.14 7.608h1.896c.128 0 .288-.008.48-.024.192-.024.396-.072.612-.144.216-.08.428-.192.636-.336.216-.144.408-.34.576-.588s.304-.556.408-.924c.112-.376.168-.828.168-1.356 0-.512-.052-.968-.156-1.368-.096-.408-.26-.752-.492-1.032-.224-.28-.516-.496-.876-.648s-.804-.228-1.332-.228h-1.92zm10.742-2.244c-.096.072-.216.128-.36.168s-.296.076-.456.108c-.16.024-.332.048-.516.072-.176.016-.348.04-.516.072s-.328.072-.48.12-.284.116-.396.204c-.112.08-.204.184-.276.312-.064.128-.096.288-.096.48 0 .168.032.312.096.432.072.112.16.204.264.276.112.072.24.124.384.156s.296.048.456.048c.336 0 .624-.044.864-.132.24-.096.436-.212.588-.348.152-.144.264-.296.336-.456.072-.168.108-.324.108-.468zm1.656 3.18c-.184.112-.428.168-.732.168-.264 0-.476-.076-.636-.228-.152-.152-.228-.396-.228-.732-.28.336-.608.58-.984.732-.368.152-.768.228-1.2.228-.28 0-.548-.032-.804-.096-.248-.064-.464-.164-.648-.3-.184-.144-.332-.324-.444-.54-.104-.224-.156-.492-.156-.804 0-.352.06-.64.18-.864s.276-.404.468-.54c.2-.136.424-.24.672-.312.256-.08.516-.144.78-.192.28-.056.544-.096.792-.12.256-.032.48-.072.672-.12.192-.056.344-.132.456-.228.112-.104.168-.252.168-.444 0-.224-.044-.404-.132-.54-.08-.136-.188-.24-.324-.312-.128-.072-.276-.12-.444-.144-.16-.024-.32-.036-.48-.036-.432 0-.792.084-1.08.252-.288.16-.444.468-.468.924h-1.02c.016-.384.096-.708.24-.972s.336-.476.576-.636c.24-.168.516-.288.828-.36s.64-.108.984-.108c.28 0 .556.02.828.06.28.04.532.124.756.252.224.12.404.292.54.516s.204.516.204.876v3.192c0 .24.012.416.036.528.032.112.128.168.288.168.096 0 .2-.02.312-.06zm2.125-6.18h1.236v.9h-1.236v3.852c0 .12.008.216.024.288.024.072.064.128.12.168s.132.068.228.084c.104.008.236.012.396.012h.468v.9h-.78c-.264 0-.492-.016-.684-.048-.184-.04-.336-.108-.456-.204-.112-.096-.196-.232-.252-.408s-.084-.408-.084-.696v-3.948h-1.056v-.9h1.056v-1.86h1.02zm5.969 3c-.096.072-.216.128-.36.168s-.296.076-.456.108c-.16.024-.332.048-.516.072-.176.016-.348.04-.516.072s-.328.072-.48.12-.284.116-.396.204c-.112.08-.204.184-.276.312-.064.128-.096.288-.096.48 0 .168.032.312.096.432.072.112.16.204.264.276.112.072.24.124.384.156s.296.048.456.048c.336 0 .624-.044.864-.132.24-.096.436-.212.588-.348.152-.144.264-.296.336-.456.072-.168.108-.324.108-.468zm1.656 3.18c-.184.112-.428.168-.732.168-.264 0-.476-.076-.636-.228-.152-.152-.228-.396-.228-.732-.28.336-.608.58-.984.732-.368.152-.768.228-1.2.228-.28 0-.548-.032-.804-.096-.248-.064-.464-.164-.648-.3-.184-.144-.332-.324-.444-.54-.104-.224-.156-.492-.156-.804 0-.352.06-.64.18-.864s.276-.404.468-.54c.2-.136.424-.24.672-.312.256-.08.516-.144.78-.192.28-.056.544-.096.792-.12.256-.032.48-.072.672-.12.192-.056.344-.132.456-.228.112-.104.168-.252.168-.444 0-.224-.044-.404-.132-.54-.08-.136-.188-.24-.324-.312-.128-.072-.276-.12-.444-.144-.16-.024-.32-.036-.48-.036-.432 0-.792.084-1.08.252-.288.16-.444.468-.468.924h-1.02c.016-.384.096-.708.24-.972s.336-.476.576-.636c.24-.168.516-.288.828-.36s.64-.108.984-.108c.28 0 .556.02.828.06.28.04.532.124.756.252.224.12.404.292.54.516s.204.516.204.876v3.192c0 .24.012.416.036.528.032.112.128.168.288.168.096 0 .2-.02.312-.06zm10.385-1.044c-.168.224-.36.416-.576.576-.208.16-.432.292-.672.396s-.488.18-.744.228-.508.072-.756.072c-.64 0-1.212-.12-1.716-.36s-.932-.56-1.284-.96-.62-.86-.804-1.38-.276-1.06-.276-1.62c0-.624.084-1.216.252-1.776.176-.568.432-1.064.768-1.488.344-.424.768-.76 1.272-1.008.512-.256 1.108-.384 1.788-.384.464 0 .9.056 1.308.168.416.104.784.272 1.104.504.328.232.6.528.816.888.224.352.376.78.456 1.284h-1.14c-.056-.32-.16-.6-.312-.84s-.34-.436-.564-.588-.48-.264-.768-.336c-.28-.08-.58-.12-.9-.12-.52 0-.968.104-1.344.312-.368.208-.672.484-.912.828-.232.336-.404.724-.516 1.164-.112.432-.168.876-.168 1.332 0 .448.064.88.192 1.296.128.408.316.772.564 1.092.248.312.552.564.912.756.368.184.792.276 1.272.276.44 0 .832-.072 1.176-.216.352-.144.648-.34.888-.588.24-.256.416-.552.528-.888.12-.344.172-.712.156-1.104h-2.736v-.96h3.756v4.512h-.72zm1.954-2.028c0-.456.064-.88.192-1.272.128-.4.32-.744.576-1.032.256-.296.568-.528.936-.696.376-.168.812-.252 1.308-.252.488 0 .92.084 1.296.252s.692.4.948.696c.256.288.448.632.576 1.032.128.392.192.816.192 1.272s-.064.88-.192 1.272-.32.736-.576 1.032c-.256.288-.572.516-.948.684s-.808.252-1.296.252c-.496 0-.932-.084-1.308-.252-.368-.168-.68-.396-.936-.684-.256-.296-.448-.64-.576-1.032s-.192-.816-.192-1.272zm1.08 0c0 .376.048.712.144 1.008.104.288.244.532.42.732.176.192.38.34.612.444.24.104.492.156.756.156s.512-.052.744-.156c.24-.104.448-.252.624-.444.176-.2.312-.444.408-.732.104-.296.156-.632.156-1.008s-.052-.708-.156-.996c-.096-.296-.232-.544-.408-.744s-.384-.352-.624-.456c-.232-.104-.48-.156-.744-.156s-.516.052-.756.156c-.232.104-.436.256-.612.456s-.316.448-.42.744c-.096.288-.144.62-.144.996zm8.702 3.096h-1.092l-2.304-6.204h1.14l1.74 5.172h.024l1.692-5.172h1.068zm8.256-1.968c-.136.688-.436 1.212-.9 1.572s-1.048.54-1.752.54c-.496 0-.928-.08-1.296-.24-.36-.168-.664-.396-.912-.684s-.436-.632-.564-1.032c-.12-.4-.188-.836-.204-1.308 0-.464.072-.892.216-1.284.144-.4.344-.744.6-1.032.264-.288.572-.512.924-.672.36-.16.752-.24 1.176-.24.552 0 1.008.116 1.368.348.368.224.66.512.876.864.224.352.376.736.456 1.152.088.416.124.812.108 1.188h-4.644c-.008.272.024.532.096.78.072.24.188.456.348.648.16.184.364.332.612.444s.54.168.876.168c.424 0 .776-.1 1.056-.3s.464-.504.552-.912zm-.984-1.728c-.016-.24-.072-.468-.168-.684-.088-.216-.212-.4-.372-.552-.152-.16-.336-.284-.552-.372-.216-.096-.448-.144-.696-.144-.264 0-.504.048-.72.144-.208.088-.388.212-.54.372s-.272.348-.36.564c-.088.208-.14.432-.156.672zm1.862-2.508h.96v1.308h.024c.248-.504.552-.876.912-1.116s.816-.352 1.368-.336v1.08c-.408 0-.756.056-1.044.168s-.52.276-.696.492-.304.48-.384.792-.12.664-.12 1.056v2.76h-1.02zm4.003 0h.96v.984h.024c.216-.384.492-.668.828-.852.344-.184.74-.276 1.188-.276.408 0 .748.056 1.02.168s.492.268.66.468.284.44.348.72c.072.272.108.576.108.912v4.08h-1.02v-4.2c0-.384-.112-.688-.336-.912s-.532-.336-.924-.336c-.312 0-.584.048-.816.144-.224.096-.412.232-.564.408s-.268.384-.348.624c-.072.232-.108.488-.108.768v3.504h-1.02zm10.268 3c-.096.072-.216.128-.36.168s-.296.076-.456.108c-.16.024-.332.048-.516.072-.176.016-.348.04-.516.072s-.328.072-.48.12-.284.116-.396.204c-.112.08-.204.184-.276.312-.064.128-.096.288-.096.48 0 .168.032.312.096.432.072.112.16.204.264.276.112.072.24.124.384.156s.296.048.456.048c.336 0 .624-.044.864-.132.24-.096.436-.212.588-.348.152-.144.264-.296.336-.456.072-.168.108-.324.108-.468zm1.656 3.18c-.184.112-.428.168-.732.168-.264 0-.476-.076-.636-.228-.152-.152-.228-.396-.228-.732-.28.336-.608.58-.984.732-.368.152-.768.228-1.2.228-.28 0-.548-.032-.804-.096-.248-.064-.464-.164-.648-.3-.184-.144-.332-.324-.444-.54-.104-.224-.156-.492-.156-.804 0-.352.06-.64.18-.864s.276-.404.468-.54c.2-.136.424-.24.672-.312.256-.08.516-.144.78-.192.28-.056.544-.096.792-.12.256-.032.48-.072.672-.12.192-.056.344-.132.456-.228.112-.104.168-.252.168-.444 0-.224-.044-.404-.132-.54-.08-.136-.188-.24-.324-.312-.128-.072-.276-.12-.444-.144-.16-.024-.32-.036-.48-.036-.432 0-.792.084-1.08.252-.288.16-.444.468-.468.924h-1.02c.016-.384.096-.708.24-.972s.336-.476.576-.636c.24-.168.516-.288.828-.36s.64-.108.984-.108c.28 0 .556.02.828.06.28.04.532.124.756.252.224.12.404.292.54.516s.204.516.204.876v3.192c0 .24.012.416.036.528.032.112.128.168.288.168.096 0 .2-.02.312-.06zm.709-6.18h.96v.984h.024c.216-.384.492-.668.828-.852.344-.184.74-.276 1.188-.276.408 0 .748.056 1.02.168s.492.268.66.468.284.44.348.72c.072.272.108.576.108.912v4.08h-1.02v-4.2c0-.384-.112-.688-.336-.912s-.532-.336-.924-.336c-.312 0-.584.048-.816.144-.224.096-.412.232-.564.408s-.268.384-.348.624c-.072.232-.108.488-.108.768v3.504h-1.02zm10.64 1.992c-.08-.392-.252-.696-.516-.912-.256-.216-.596-.324-1.02-.324-.368 0-.676.068-.924.204s-.448.316-.6.54c-.144.224-.248.484-.312.78-.064.288-.096.588-.096.9 0 .288.032.568.096.84.072.272.18.516.324.732.144.208.328.376.552.504.232.128.512.192.84.192.496 0 .888-.132 1.176-.396.288-.272.464-.644.528-1.116h1.044c-.112.76-.4 1.352-.864 1.776s-1.088.636-1.872.636c-.472 0-.892-.076-1.26-.228-.36-.16-.664-.38-.912-.66-.24-.28-.424-.612-.552-.996-.12-.392-.18-.82-.18-1.284s.06-.896.18-1.296c.12-.408.3-.76.54-1.056.248-.304.552-.54.912-.708.368-.176.8-.264 1.296-.264.352 0 .68.044.984.132.312.08.588.208.828.384s.432.4.576.672c.152.264.248.58.288.948zm7.285 2.244c-.136.688-.436 1.212-.9 1.572s-1.048.54-1.752.54c-.496 0-.928-.08-1.296-.24-.36-.168-.664-.396-.912-.684s-.436-.632-.564-1.032c-.12-.4-.188-.836-.204-1.308 0-.464.072-.892.216-1.284.144-.4.344-.744.6-1.032.264-.288.572-.512.924-.672.36-.16.752-.24 1.176-.24.552 0 1.008.116 1.368.348.368.224.66.512.876.864.224.352.376.736.456 1.152.088.416.124.812.108 1.188h-4.644c-.008.272.024.532.096.78.072.24.188.456.348.648.16.184.364.332.612.444s.54.168.876.168c.424 0 .776-.1 1.056-.3s.464-.504.552-.912zm-.984-1.728c-.016-.24-.072-.468-.168-.684-.088-.216-.212-.4-.372-.552-.152-.16-.336-.284-.552-.372-.216-.096-.448-.144-.696-.144-.264 0-.504.048-.72.144-.208.088-.388.212-.54.372s-.272.348-.36.564c-.088.208-.14.432-.156.672zm5.165-4.872h3.756c.856 0 1.508.224 1.956.672.448.44.672 1.06.672 1.86s-.224 1.424-.672 1.872-1.1.668-1.956.66h-2.616v3.504h-1.14zm1.14 4.104h2.232c.648.008 1.12-.124 1.416-.396.304-.272.456-.664.456-1.176s-.152-.9-.456-1.164c-.296-.272-.768-.408-1.416-.408h-2.232zm6.294-4.104h1.02v8.568h-1.02zm6.2 5.364c-.096.072-.216.128-.36.168s-.296.076-.456.108c-.16.024-.332.048-.516.072-.176.016-.348.04-.516.072s-.328.072-.48.12-.284.116-.396.204c-.112.08-.204.184-.276.312-.064.128-.096.288-.096.48 0 .168.032.312.096.432.072.112.16.204.264.276.112.072.24.124.384.156s.296.048.456.048c.336 0 .624-.044.864-.132.24-.096.436-.212.588-.348.152-.144.264-.296.336-.456.072-.168.108-.324.108-.468zm1.656 3.18c-.184.112-.428.168-.732.168-.264 0-.476-.076-.636-.228-.152-.152-.228-.396-.228-.732-.28.336-.608.58-.984.732-.368.152-.768.228-1.2.228-.28 0-.548-.032-.804-.096-.248-.064-.464-.164-.648-.3-.184-.144-.332-.324-.444-.54-.104-.224-.156-.492-.156-.804 0-.352.06-.64.18-.864s.276-.404.468-.54c.2-.136.424-.24.672-.312.256-.08.516-.144.78-.192.28-.056.544-.096.792-.12.256-.032.48-.072.672-.12.192-.056.344-.132.456-.228.112-.104.168-.252.168-.444 0-.224-.044-.404-.132-.54-.08-.136-.188-.24-.324-.312-.128-.072-.276-.12-.444-.144-.16-.024-.32-.036-.48-.036-.432 0-.792.084-1.08.252-.288.16-.444.468-.468.924h-1.02c.016-.384.096-.708.24-.972s.336-.476.576-.636c.24-.168.516-.288.828-.36s.64-.108.984-.108c.28 0 .556.02.828.06.28.04.532.124.756.252.224.12.404.292.54.516s.204.516.204.876v3.192c0 .24.012.416.036.528.032.112.128.168.288.168.096 0 .2-.02.312-.06zm2.125-6.18h1.236v.9h-1.236v3.852c0 .12.008.216.024.288.024.072.064.128.12.168s.132.068.228.084c.104.008.236.012.396.012h.468v.9h-.78c-.264 0-.492-.016-.684-.048-.184-.04-.336-.108-.456-.204-.112-.096-.196-.232-.252-.408s-.084-.408-.084-.696v-3.948h-1.056v-.9h1.056v-1.86h1.02zm2.549.9h-1.044v-.9h1.044v-.924c0-.504.144-.884.432-1.14.296-.264.724-.396 1.284-.396.096 0 .204.008.324.024.128.016.24.04.336.072v.888c-.088-.032-.184-.052-.288-.06-.104-.016-.2-.024-.288-.024-.248 0-.44.048-.576.144s-.204.28-.204.552v.864h1.2v.9h-1.2v5.304h-1.02zm2.555 2.208c0-.456.064-.88.192-1.272.128-.4.32-.744.576-1.032.256-.296.568-.528.936-.696.376-.168.812-.252 1.308-.252.488 0 .92.084 1.296.252s.692.4.948.696c.256.288.448.632.576 1.032.128.392.192.816.192 1.272s-.064.88-.192 1.272-.32.736-.576 1.032c-.256.288-.572.516-.948.684s-.808.252-1.296.252c-.496 0-.932-.084-1.308-.252-.368-.168-.68-.396-.936-.684-.256-.296-.448-.64-.576-1.032s-.192-.816-.192-1.272zm1.08 0c0 .376.048.712.144 1.008.104.288.244.532.42.732.176.192.38.34.612.444.24.104.492.156.756.156s.512-.052.744-.156c.24-.104.448-.252.624-.444.176-.2.312-.444.408-.732.104-.296.156-.632.156-1.008s-.052-.708-.156-.996c-.096-.296-.232-.544-.408-.744s-.384-.352-.624-.456c-.232-.104-.48-.156-.744-.156s-.516.052-.756.156c-.232.104-.436.256-.612.456s-.316.448-.42.744c-.096.288-.144.62-.144.996zm5.871-3.108h.96v1.308h.024c.248-.504.552-.876.912-1.116s.816-.352 1.368-.336v1.08c-.408 0-.756.056-1.044.168s-.52.276-.696.492-.304.48-.384.792-.12.664-.12 1.056v2.76h-1.02zm3.792 0h.96v.912h.024c.464-.704 1.132-1.056 2.004-1.056.384 0 .732.08 1.044.24s.532.432.66.816c.208-.336.484-.596.828-.78s.716-.276 1.116-.276c.312 0 .592.036.84.108.256.064.472.168.648.312.184.144.324.332.42.564.104.224.156.496.156.816v4.548h-1.02v-4.068c0-.192-.016-.372-.048-.54s-.092-.312-.18-.432c-.088-.128-.212-.228-.372-.3-.152-.072-.352-.108-.6-.108-.496 0-.892.144-1.188.432-.288.288-.432.672-.432 1.152v3.864h-1.02v-4.068c0-.2-.02-.384-.06-.552-.032-.168-.092-.312-.18-.432-.088-.128-.208-.224-.36-.288-.152-.072-.34-.108-.564-.108-.304 0-.56.06-.768.18s-.38.264-.516.432c-.128.168-.224.344-.288.528-.056.176-.084.324-.084.444v3.864h-1.02z"/><path d="m89.9653 15.96h3.094c.5374 0 .962-.1473 1.274-.442.312-.3033.468-.7107.468-1.222 0-.3033-.0563-.5547-.169-.754-.1126-.1993-.2643-.3553-.455-.468-.182-.1213-.3943-.2037-.637-.247-.2426-.052-.494-.078-.754-.078h-2.821zm-1.235-8.242h3.367c.208 0 .4247.00433.65.013.2254 0 .4464.013.663.039.2254.01733.4377.04767.637.091.1994.04333.3684.10833.507.195.3034.182.559.43767.767.767.2167.32067.325.71067.325 1.17 0 .494-.1213.923-.364 1.287-.2426.3553-.5806.6197-1.014.793v.026c.572.1213 1.0097.3813 1.313.78.3034.3987.455.884.455 1.456 0 .338-.0606.6673-.182.988-.1213.3207-.3033.6067-.546.858-.234.2427-.5286.442-.884.598-.3466.1473-.7496.221-1.209.221h-4.485zm1.235 3.991h2.47c.702 0 1.2047-.1213 1.508-.364.312-.2513.468-.624.468-1.118 0-.32067-.052-.57633-.156-.767-.104-.19933-.247-.351-.429-.455s-.3943-.169-.637-.195c-.234-.03467-.4853-.052-.754-.052h-2.47zm12.9557 3.159c-.148.7453-.473 1.313-.975 1.703-.503.39-1.136.585-1.898.585-.5376 0-1.0056-.0867-1.4043-.26-.39-.182-.7193-.429-.988-.741-.2686-.312-.4723-.6847-.611-1.118-.13-.4333-.2036-.9057-.221-1.417 0-.5027.078-.9663.234-1.391.156-.4333.3727-.806.65-1.118.286-.312.6197-.5547 1.001-.728.39-.1733.8147-.26 1.274-.26.5983 0 1.0923.1257 1.4823.377.398.2427.715.5547.949.936.242.3813.407.7973.494 1.248.095.4507.134.8797.117 1.287h-5.0313c-.0086.2947.026.5763.104.845.078.26.2037.494.377.702.1734.1993.3944.3597.663.481.2687.1213.585.182.9493.182.459 0 .84-.1083 1.144-.325.303-.2167.502-.546.598-.988zm-1.066-1.872c-.018-.26-.078-.507-.182-.741-.096-.234-.23-.4333-.403-.598-.165-.1733-.364-.3077-.598-.403-.234-.104-.486-.156-.7543-.156-.286 0-.546.052-.78.156-.2253.0953-.4203.2297-.585.403-.1646.1733-.2946.377-.39.611-.0953.2253-.1516.468-.169.728zm3.589-2.717h1.339v.975h-1.339v4.173c0 .13.009.234.026.312.026.078.069.1387.13.182s.143.0737.247.091c.113.0087.256.013.429.013h.507v.975h-.845c-.286 0-.533-.0173-.741-.052-.199-.0433-.364-.117-.494-.221-.121-.104-.212-.2513-.273-.442s-.091-.442-.091-.754v-4.277h-1.144v-.975h1.144v-2.015h1.105zm6.467 3.25c-.104.078-.234.1387-.39.182s-.321.0823-.494.117c-.174.026-.36.052-.559.078-.191.0173-.377.0433-.559.078s-.356.078-.52.13c-.165.052-.308.1257-.429.221-.122.0867-.221.1993-.299.338-.07.1387-.104.312-.104.52 0 .182.034.338.104.468.078.1213.173.221.286.299.121.078.26.1343.416.169s.32.052.494.052c.364 0 .676-.0477.936-.143.26-.104.472-.2297.637-.377.164-.156.286-.3207.364-.494.078-.182.117-.351.117-.507zm1.794 3.445c-.2.1213-.464.182-.793.182-.286 0-.516-.0823-.689-.247-.165-.1647-.247-.429-.247-.793-.304.364-.659.6283-1.066.793-.399.1647-.832.247-1.3.247-.304 0-.594-.0347-.871-.104-.269-.0693-.503-.1777-.702-.325-.2-.156-.36-.351-.481-.585-.113-.2427-.169-.533-.169-.871 0-.3813.065-.6933.195-.936s.299-.4377.507-.585c.216-.1473.459-.26.728-.338.277-.0867.559-.156.845-.208.303-.0607.589-.104.858-.13.277-.0347.52-.078.728-.13.208-.0607.372-.143.494-.247.121-.1127.182-.273.182-.481 0-.2427-.048-.4377-.143-.585-.087-.1473-.204-.26-.351-.338-.139-.078-.299-.13-.481-.156-.174-.026-.347-.039-.52-.039-.468 0-.858.091-1.17.273-.312.1733-.481.507-.507 1.001h-1.105c.017-.416.104-.767.26-1.053s.364-.5157.624-.689c.26-.182.559-.312.897-.39s.693-.117 1.066-.117c.303 0 .602.0217.897.065.303.0433.576.1343.819.273.242.13.437.3163.585.559.147.2427.221.559.221.949v3.458c0 .26.013.4507.039.572.034.1213.138.182.312.182.104 0 .216-.0217.338-.065zm7.155.026h-1.183l-2.496-6.721h1.235l1.885 5.603h.026l1.833-5.603h1.157zm8.944-2.132c-.147.7453-.472 1.313-.975 1.703-.502.39-1.135.585-1.898.585-.537 0-1.005-.0867-1.404-.26-.39-.182-.719-.429-.988-.741-.268-.312-.472-.6847-.611-1.118-.13-.4333-.203-.9057-.221-1.417 0-.5027.078-.9663.234-1.391.156-.4333.373-.806.65-1.118.286-.312.62-.5547 1.001-.728.39-.1733.815-.26 1.274-.26.598 0 1.092.1257 1.482.377.399.2427.715.5547.949.936.243.3813.408.7973.494 1.248.096.4507.135.8797.117 1.287h-5.031c-.008.2947.026.5763.104.845.078.26.204.494.377.702.174.1993.395.3597.663.481.269.1213.585.182.949.182.46 0 .841-.1083 1.144-.325.304-.2167.503-.546.598-.988zm-1.066-1.872c-.017-.26-.078-.507-.182-.741-.095-.234-.229-.4333-.403-.598-.164-.1733-.364-.3077-.598-.403-.234-.104-.485-.156-.754-.156-.286 0-.546.052-.78.156-.225.0953-.42.2297-.585.403-.164.1733-.294.377-.39.611-.095.2253-.151.468-.169.728zm2.017-2.717h1.04v1.417h.026c.268-.546.598-.949.988-1.209s.884-.3813 1.482-.364v1.17c-.442 0-.819.0607-1.131.182s-.564.299-.754.533c-.191.234-.33.52-.416.858-.087.338-.13.7193-.13 1.144v2.99h-1.105zm4.784 4.602c.009.2513.065.4593.169.624s.238.299.403.403c.173.0953.364.1647.572.208.217.0433.438.065.663.065.173 0 .355-.013.546-.039s.364-.0737.52-.143c.165-.0693.299-.169.403-.299.104-.1387.156-.312.156-.52 0-.2167-.065-.39-.195-.52-.121-.1387-.286-.2513-.494-.338-.199-.0867-.433-.156-.702-.208-.26-.0607-.529-.1213-.806-.182s-.546-.1343-.806-.221-.494-.1993-.702-.338-.377-.3163-.507-.533c-.121-.2167-.182-.4853-.182-.806 0-.338.074-.6283.221-.871.156-.2427.351-.4377.585-.585.243-.156.511-.2687.806-.338.303-.078.602-.117.897-.117.373 0 .719.0347 1.04.104.329.0607.615.1733.858.338.251.156.451.3727.598.65.147.2687.234.6067.26 1.014h-1.105c-.017-.2167-.078-.3943-.182-.533-.095-.1473-.217-.2643-.364-.351-.139-.0867-.299-.1473-.481-.182-.173-.0433-.351-.065-.533-.065-.165 0-.334.013-.507.039-.165.026-.316.0737-.455.143-.139.0607-.251.1473-.338.26s-.13.2513-.13.416c0 .1993.065.3597.195.481.139.1213.312.2253.52.312.208.078.442.1473.702.208.26.052.52.1083.78.169.277.0607.546.1343.806.221.269.0867.503.2037.702.351.208.1387.373.3163.494.533.13.2167.195.4853.195.806 0 .3987-.087.7367-.26 1.014-.165.2687-.386.4853-.663.65-.269.1647-.576.2817-.923.351-.338.0693-.676.104-1.014.104-.381 0-.741-.0433-1.079-.13-.329-.078-.624-.2037-.884-.377-.26-.182-.468-.416-.624-.702-.156-.2947-.243-.65-.26-1.066zm5.629-4.602h1.105v6.721h-1.105zm1.105-1.209h-1.105v-1.352h1.105zm1.088 4.576c0-.494.069-.9533.208-1.378.138-.4333.346-.806.624-1.118.277-.3207.615-.572 1.014-.754.407-.182.879-.273 1.417-.273.528 0 .996.091 1.404.273.407.182.749.4333 1.027.754.277.312.485.6847.624 1.118.138.4247.208.884.208 1.378s-.07.9533-.208 1.378c-.139.4247-.347.7973-.624 1.118-.278.312-.62.559-1.027.741-.408.182-.876.273-1.404.273-.538 0-1.01-.091-1.417-.273-.399-.182-.737-.429-1.014-.741-.278-.3207-.486-.6933-.624-1.118-.139-.4247-.208-.884-.208-1.378zm1.17 0c0 .4073.052.7713.156 1.092.112.312.264.5763.455.793.19.208.411.3683.663.481.26.1127.533.169.819.169s.554-.0563.806-.169c.26-.1127.485-.273.676-.481.19-.2167.338-.481.442-.793.112-.3207.169-.6847.169-1.092s-.057-.767-.169-1.079c-.104-.3207-.252-.5893-.442-.806-.191-.2167-.416-.3813-.676-.494-.252-.1127-.52-.169-.806-.169s-.559.0563-.819.169c-.252.1127-.473.2773-.663.494-.191.2167-.343.4853-.455.806-.104.312-.156.6717-.156 1.079zm6.399-3.367h1.04v1.066h.026c.234-.416.533-.7237.897-.923.372-.1993.801-.299 1.287-.299.442 0 .81.0607 1.105.182.294.1213.533.2903.715.507s.307.4767.377.78c.078.2947.117.624.117.988v4.42h-1.105v-4.55c0-.416-.122-.7453-.364-.988-.243-.2427-.577-.364-1.001-.364-.338 0-.633.052-.884.156-.243.104-.447.2513-.611.442-.165.1907-.291.416-.377.676-.078.2513-.117.5287-.117.832v3.796h-1.105z"/><path d="m76.5828 41.5822c0 .128.016.2667.048.416.032.1387.0906.2667.176.384.0853.1067.1973.1973.336.272.1493.0747.336.112.56.112.1386 0 .2773-.0053.416-.016.1493-.0107.2986-.0427.448-.096v-2.208h-.8c-.3947 0-.6934.1067-.896.32-.192.2027-.288.4747-.288.816zm4.464 4.16c-.256 0-.5067-.016-.752-.048-.2347-.0427-.4534-.112-.656-.208-.2027-.096-.384-.224-.544-.384-.1494-.1707-.2667-.3893-.352-.656-.1814.0427-.368.08-.56.112-.192.0213-.384.032-.576.032-.2667 0-.576-.0373-.928-.112-.352-.0853-.688-.2347-1.008-.448-.3094-.2133-.576-.5067-.8-.88-.2134-.384-.32-.8747-.32-1.472 0-.5867.1013-1.0827.304-1.488.2133-.4053.48-.736.8-.992.3306-.256.6933-.4373 1.088-.544.4053-.1173.8-.176 1.184-.176h2.72v4.784c0 .2453.032.416.096.512.064.0853.2133.128.448.128h.384c.0853 0 .1653.0107.24.032.0746.0107.1386.048.192.112.064.0533.112.1387.144.256s.048.2773.048.48c0 .3627-.0534.6133-.16.752-.096.1387-.2507.208-.464.208zm-5.424-9.936c0-.3093.112-.576.336-.8s.4906-.336.8-.336c.3093 0 .576.112.8.336s.336.4907.336.8-.112.576-.336.8-.4907.336-.8.336c-.3094 0-.576-.112-.8-.336s-.336-.4907-.336-.8zm2.608 0c0-.3093.112-.576.336-.8s.4906-.336.8-.336c.3093 0 .576.112.8.336s.336.4907.336.8-.112.576-.336.8-.4907.336-.8.336c-.3094 0-.576-.112-.8-.336s-.336-.4907-.336-.8zm9.0792 9.936c-.1493 0-.3093-.0107-.48-.032-.1706-.0213-.336-.0587-.496-.112-.16-.064-.3146-.1493-.464-.256-.1386-.1067-.256-.2453-.352-.416-.128.1813-.2826.3307-.464.448-.1813.1067-.3733.1867-.576.24-.2026.0533-.416.0907-.64.112-.2133.0107-.4266.016-.64.016h-1.616c-.0853 0-.1653-.0053-.24-.016-.0746-.0213-.1386-.0587-.192-.112-.064-.064-.112-.1547-.144-.272s-.048-.2773-.048-.48c0-.3627.0534-.6133.16-.752.096-.1387.2507-.208.464-.208h1.28c.3627 0 .6134-.0533.752-.16.1494-.1173.224-.3733.224-.768v-3.6h2.08v3.424c0 .3947.1014.6773.304.848.2134.1707.576.256 1.088.256.0854 0 .1654.0107.24.032.0747.0107.1387.048.192.112.064.0533.112.1387.144.256s.048.2773.048.48c0 .3627-.0533.6133-.16.752-.096.1387-.2506.208-.464.208zm-5.312 2.688c0-.3093.112-.576.336-.8s.4907-.336.8-.336c.3094 0 .576.112.8.336s.336.4907.336.8-.112.576-.336.8-.4906.336-.8.336c-.3093 0-.576-.112-.8-.336s-.336-.4907-.336-.8zm2.608 0c0-.3093.112-.576.336-.8s.4907-.336.8-.336c.3094 0 .576.112.8.336s.336.4907.336.8-.112.576-.336.8-.4906.336-.8.336c-.3093 0-.576-.112-.8-.336s-.336-.4907-.336-.8zm3.6864-4.528c.3627 0 .6133-.0533.752-.16.1493-.1173.224-.3733.224-.768v-3.6h2.08v3.424c0 .3947.0747.6773.224.848s.48.256.992.256c.0853 0 .1653.0107.24.032.0747.0107.1387.048.192.112.064.0533.112.1387.144.256s.048.2773.048.48c0 .3627-.0533.6133-.16.752-.096.1387-.2507.208-.464.208-.3093 0-.608-.048-.896-.144-.288-.1067-.528-.3307-.72-.672-.128.1813-.2827.3307-.464.448-.1813.1067-.3733.1867-.576.24s-.416.0907-.64.112c-.2133.0107-.4267.016-.64.016h-1.312c-.0853 0-.1653-.0053-.24-.016-.0747-.0213-.1387-.0587-.192-.112-.064-.064-.112-.1547-.144-.272s-.048-.2773-.048-.48c0-.3627.0533-.6133.16-.752.096-.1387.2507-.208.464-.208zm.864-7.296c0-.3093.112-.576.336-.8s.4907-.336.8-.336.576.112.8.336.336.4907.336.8-.112.576-.336.8-.4907.336-.8.336-.576-.112-.8-.336-.336-.4907-.336-.8zm12.1776 7.296v-1.024c0-.256-.026-.4907-.08-.704-.053-.2133-.144-.3947-.272-.544-.117-.16-.277-.2827-.48-.368-.192-.096-.437-.144-.7356-.144-.32 0-.64.0747-.96.224-.32.1387-.6187.336-.896.592s-.528.5547-.752.896c-.2133.3307-.3893.688-.528 1.072zm-4.7996-2.576c.16-.32.3627-.608.608-.864.256-.2667.5387-.496.848-.688s.6347-.3413.976-.448c.352-.1067.704-.16 1.0556-.16 1.142 0 1.99.3307 2.544.992.566.6507.848 1.5573.848 2.72v2.864h-10.8476c-.0853 0-.1653-.0053-.24-.016-.0747-.0213-.1387-.0587-.192-.112-.064-.064-.112-.1547-.144-.272s-.048-.2773-.048-.48c0-.3627.0533-.6133.16-.752.096-.1387.2507-.208.464-.208h1.888v-9.584h2.08zm14.5186 4.416c-.15 1.1627-.63 2.0053-1.44 2.528-.811.5333-2.022.8-3.632.8h-.496v-1.952h.368c.554 0 1.018-.032 1.392-.096.373-.064.677-.16.912-.288.245-.1173.426-.2613.544-.432.117-.16.192-.3467.224-.56h-.992c-.47 0-.902-.0533-1.296-.16-.395-.1067-.736-.2773-1.024-.512-.288-.2453-.512-.5547-.672-.928-.16-.384-.24-.8427-.24-1.376 0-.4267.069-.848.208-1.264.149-.416.362-.7893.64-1.12.277-.3307.618-.592 1.024-.784.405-.2027.869-.304 1.392-.304.586 0 1.077.1013 1.472.304.405.2027.73.4907.976.864.245.3627.421.8.528 1.312.106.5013.16 1.056.16 1.664v.464h1.168c.085 0 .165.0107.24.032.074.0107.138.048.192.112.064.0533.112.1387.144.256s.048.2773.048.48c0 .3627-.054.6133-.16.752-.096.1387-.251.208-.464.208zm-4.304-3.168c0 .512.106.864.32 1.056.224.1813.517.272.88.272h1.056v-.96c0-.512-.08-.9333-.24-1.264-.16-.3413-.459-.512-.896-.512-.395 0-.683.1333-.864.4-.171.2667-.256.6027-.256 1.008zm7.361 1.328v-9.584h2.096v11.424h-3.936c-.086 0-.166-.0053-.24-.016-.075-.0213-.139-.0587-.192-.112-.064-.064-.112-.1547-.144-.272s-.048-.2773-.048-.48c0-.3627.053-.6133.16-.752.096-.1387.25-.208.464-.208zm6.074-9.584v11.424h-2.064v-11.424zm18.31 11.424h-9.568c-.63 0-1.158-.0427-1.584-.128-.427-.096-.768-.2453-1.024-.448s-.443-.464-.56-.784c-.107-.32-.16-.7093-.16-1.168v-2.64h2.096v2.336c0 .2027.026.368.08.496.053.128.149.2293.288.304.138.0747.325.128.56.16.234.0213.533.032.896.032h6.896v-4.528h2.08zm-8.8-8.208c0-.3093.112-.576.336-.8s.49-.336.8-.336c.309 0 .576.112.8.336s.336.4907.336.8-.112.576-.336.8-.491.336-.8.336c-.31 0-.576-.112-.8-.336s-.336-.4907-.336-.8zm2.608 0c0-.3093.112-.576.336-.8s.49-.336.8-.336c.309 0 .576.112.8.336s.336.4907.336.8-.112.576-.336.8-.491.336-.8.336c-.31 0-.576-.112-.8-.336s-.336-.4907-.336-.8zm11.891 7.248c0 .3627-.053.6133-.16.752-.096.1387-.251.208-.464.208h-.672c-.363 0-.699-.0373-1.008-.112-.299-.0853-.56-.2187-.784-.4-.213-.192-.384-.4427-.512-.752-.117-.3093-.176-.6933-.176-1.152v-9.008h2.08v8.72c0 .3733.064.6133.192.72.139.096.331.144.576.144h.304c.085 0 .165.0107.24.032.075.0107.139.048.192.112.064.0533.112.1387.144.256s.048.2773.048.48zm1.054-8.176c0-.3093.112-.576.336-.8s.49-.336.8-.336c.309 0 .576.112.8.336s.336.4907.336.8-.112.576-.336.8-.491.336-.8.336c-.31 0-.576-.112-.8-.336s-.336-.4907-.336-.8zm.128 7.296v-4.528h2.096v6.368h-3.936c-.086 0-.166-.0053-.24-.016-.075-.0213-.139-.0587-.192-.112-.064-.064-.112-.1547-.144-.272s-.048-.2773-.048-.48c0-.3627.053-.6133.16-.752.096-.1387.25-.208.464-.208zm7.787.88c0 .3627-.054.6133-.16.752-.096.1387-.251.208-.464.208h-.672c-.363 0-.699-.0373-1.008-.112-.299-.0853-.56-.2187-.784-.4-.214-.192-.384-.4427-.512-.752-.118-.3093-.176-.6933-.176-1.152v-9.008h2.08v8.72c0 .3733.064.6133.192.72.138.096.33.144.576.144h.304c.085 0 .165.0107.24.032.074.0107.138.048.192.112.064.0533.112.1387.144.256s.048.2773.048.48zm5.086.96c-.15 0-.31-.0107-.48-.032-.171-.0213-.336-.0587-.496-.112-.16-.064-.315-.1493-.464-.256-.139-.1067-.256-.2453-.352-.416-.128.1813-.283.3307-.464.448-.182.1067-.374.1867-.576.24-.203.0533-.416.0907-.64.112-.214.0107-.427.016-.64.016h-1.616c-.086 0-.166-.0053-.24-.016-.075-.0213-.139-.0587-.192-.112-.064-.064-.112-.1547-.144-.272s-.048-.2773-.048-.48c0-.3627.053-.6133.16-.752.096-.1387.25-.208.464-.208h1.28c.362 0 .613-.0533.752-.16.149-.1173.224-.3733.224-.768v-3.6h2.08v3.424c0 .3947.101.6773.304.848.213.1707.576.256 1.088.256.085 0 .165.0107.24.032.074.0107.138.048.192.112.064.0533.112.1387.144.256s.048.2773.048.48c0 .3627-.054.6133-.16.752-.096.1387-.251.208-.464.208zm-5.312 2.688c0-.3093.112-.576.336-.8s.49-.336.8-.336c.309 0 .576.112.8.336s.336.4907.336.8-.112.576-.336.8-.491.336-.8.336c-.31 0-.576-.112-.8-.336s-.336-.4907-.336-.8zm2.608 0c0-.3093.112-.576.336-.8s.49-.336.8-.336c.309 0 .576.112.8.336s.336.4907.336.8-.112.576-.336.8-.491.336-.8.336c-.31 0-.576-.112-.8-.336s-.336-.4907-.336-.8zm3.686-4.528c.363 0 .613-.0533.752-.16.149-.1173.224-.3733.224-.768v-3.6h2.08v3.424c0 .3947.075.6773.224.848s.48.256.992.256c.085 0 .165.0107.24.032.075.0107.139.048.192.112.064.0533.112.1387.144.256s.048.2773.048.48c0 .3627-.053.6133-.16.752-.096.1387-.251.208-.464.208-.309 0-.608-.048-.896-.144-.288-.1067-.528-.3307-.72-.672-.128.1813-.283.3307-.464.448-.181.1067-.373.1867-.576.24s-.416.0907-.64.112c-.213.0107-.427.016-.64.016h-1.312c-.085 0-.165-.0053-.24-.016-.075-.0213-.139-.0587-.192-.112-.064-.064-.112-.1547-.144-.272s-.048-.2773-.048-.48c0-.3627.053-.6133.16-.752.096-.1387.251-.208.464-.208zm.88 4.48c0-.3093.112-.576.336-.8s.491-.336.8-.336.576.112.8.336.336.4907.336.8-.112.576-.336.8-.491.336-.8.336-.576-.112-.8-.336-.336-.4907-.336-.8zm5.234-4.48v-9.584h2.096v11.424h-3.936c-.085 0-.165-.0053-.24-.016-.075-.0213-.139-.0587-.192-.112-.064-.064-.112-.1547-.144-.272s-.048-.2773-.048-.48c0-.3627.053-.6133.16-.752.096-.1387.251-.208.464-.208zm6.075-9.584v11.424h-2.064v-11.424zm7.445 7.264c0 .128.016.2667.048.416.032.1387.091.2667.176.384.085.1067.197.1973.336.272.149.0747.336.112.56.112.139 0 .277-.0053.416-.016.149-.0107.299-.0427.448-.096v-2.208h-.8c-.395 0-.693.1067-.896.32-.192.2027-.288.4747-.288.816zm4.464 4.16c-.256 0-.507-.016-.752-.048-.235-.0427-.453-.112-.656-.208s-.384-.224-.544-.384c-.149-.1707-.267-.3893-.352-.656-.181.0427-.368.08-.56.112-.192.0213-.384.032-.576.032-.267 0-.576-.0373-.928-.112-.352-.0853-.688-.2347-1.008-.448-.309-.2133-.576-.5067-.8-.88-.213-.384-.32-.8747-.32-1.472 0-.5867.101-1.0827.304-1.488.213-.4053.48-.736.8-.992.331-.256.693-.4373 1.088-.544.405-.1173.8-.176 1.184-.176h2.72v4.784c0 .2453.032.416.096.512.064.0853.213.128.448.128h.384c.085 0 .165.0107.24.032.075.0107.139.048.192.112.064.0533.112.1387.144.256s.048.2773.048.48c0 .3627-.053.6133-.16.752-.096.1387-.251.208-.464.208zm-5.424-9.936c0-.3093.112-.576.336-.8s.491-.336.8-.336.576.112.8.336.336.4907.336.8-.112.576-.336.8-.491.336-.8.336-.576-.112-.8-.336-.336-.4907-.336-.8zm2.608 0c0-.3093.112-.576.336-.8s.491-.336.8-.336.576.112.8.336.336.4907.336.8-.112.576-.336.8-.491.336-.8.336-.576-.112-.8-.336-.336-.4907-.336-.8zm8.343 5.632c-.33.0213-.629.192-.896.512-.266.32-.496.816-.688 1.488.267.16.534.2987.8.416.278.1067.555.16.832.16.342 0 .603-.112.784-.336.192-.2347.288-.5387.288-.912 0-.16-.021-.32-.064-.48-.042-.16-.112-.304-.208-.432-.085-.128-.202-.2293-.352-.304-.138-.0747-.304-.112-.496-.112zm-4.288 2.464c.288 0 .507-.1067.656-.32.15-.2133.299-.5227.448-.928.224-.6507.47-1.1787.736-1.584.267-.4053.55-.72.848-.944.31-.2347.614-.3893.912-.464.31-.0853.608-.128.896-.128.416 0 .806.08 1.168.24.363.16.672.384.928.672.267.288.475.6347.624 1.04.15.4053.224.848.224 1.328 0 .0747-.005.144-.016.208v.192c.139.256.352.4373.64.544.288.096.56.144.816.144.086 0 .166.0107.24.032.075.0107.139.048.192.112.064.0533.112.1387.144.256s.048.2773.048.48c0 .3627-.053.6133-.16.752-.096.1387-.25.208-.464.208-.405 0-.778-.08-1.12-.24-.341-.1707-.629-.4267-.864-.768-.224.3733-.522.6667-.896.88-.362.2133-.832.32-1.408.32-.426 0-.858-.064-1.296-.192-.426-.128-.88-.3467-1.36-.656-.277.3093-.56.496-.848.56s-.602.096-.944.096h-.848c-.085 0-.165-.0053-.24-.016-.074-.0213-.138-.0587-.192-.112-.064-.064-.112-.1547-.144-.272s-.048-.2773-.048-.48c0-.3627.054-.6133.16-.752.096-.1387.251-.208.464-.208zm12.602 0c.224 0 .438-.0427.64-.128.203-.096.304-.2827.304-.56 0-.192-.122-.448-.368-.768-.234-.3307-.549-.6773-.944-1.04-.394-.3627-.842-.72-1.344-1.072-.501-.3627-1.008-.6773-1.52-.944.075-.352.16-.64.256-.864.107-.2347.214-.4213.32-.56.107-.1387.208-.24.304-.304.107-.0747.192-.128.256-.16l5.584-2.464v2.144l-3.776 1.568v.048c.64.416 1.168.8267 1.584 1.232s.747.8.992 1.184c.256.384.432.752.528 1.104.096.3413.144.6613.144.96 0 .256-.037.528-.112.816-.064.288-.197.5547-.4.8-.202.2453-.49.448-.864.608-.362.16-.842.24-1.44.24h-3.872c-.085 0-.165-.0053-.24-.016-.074-.0213-.138-.0587-.192-.112-.064-.064-.112-.1547-.144-.272s-.048-.2773-.048-.48c0-.3627.054-.6133.16-.752.096-.1387.251-.208.464-.208zm10.728 1.84c-.15 1.1627-.63 2.0053-1.44 2.528-.811.5333-2.022.8-3.632.8h-.496v-1.952h.368c.554 0 1.018-.032 1.392-.096.373-.064.677-.16.912-.288.245-.1173.426-.2613.544-.432.117-.16.192-.3467.224-.56h-.992c-.47 0-.902-.0533-1.296-.16-.395-.1067-.736-.2773-1.024-.512-.288-.2453-.512-.5547-.672-.928-.16-.384-.24-.8427-.24-1.376 0-.4267.069-.848.208-1.264.149-.416.362-.7893.64-1.12.277-.3307.618-.592 1.024-.784.405-.2027.869-.304 1.392-.304.586 0 1.077.1013 1.472.304.405.2027.73.4907.976.864.245.3627.421.8.528 1.312.106.5013.16 1.056.16 1.664v.464h1.168c.085 0 .165.0107.24.032.074.0107.138.048.192.112.064.0533.112.1387.144.256s.048.2773.048.48c0 .3627-.054.6133-.16.752-.096.1387-.251.208-.464.208zm-4.304-3.168c0 .512.106.864.32 1.056.224.1813.517.272.88.272h1.056v-.96c0-.512-.08-.9333-.24-1.264-.16-.3413-.459-.512-.896-.512-.395 0-.683.1333-.864.4-.171.2667-.256.6027-.256 1.008zm11.248 1.328c-.032-.4267-.101-.816-.208-1.168-.106-.3627-.272-.672-.496-.928-.213-.256-.49-.4533-.832-.592-.341-.1493-.768-.224-1.28-.224-.17 0-.442.0267-.816.08-.362.0427-.73.1173-1.104.224v-1.856c.246-.0853.576-.176.992-.272.427-.096.864-.144 1.312-.144.832 0 1.531.144 2.096.432.576.288 1.04.672 1.392 1.152s.603 1.04.752 1.68c.16.6293.24 1.2853.24 1.968v1.488h-7.776c-.085 0-.165-.0053-.24-.016-.074-.0213-.138-.0587-.192-.112-.064-.064-.112-.1547-.144-.272s-.048-.2773-.048-.48c0-.3627.054-.6133.16-.752.096-.1387.251-.208.464-.208zm9.336-2.32c0 .128.016.2667.048.416.032.1387.09.2667.176.384.085.1067.197.1973.336.272.149.0747.336.112.56.112.138 0 .277-.0053.416-.016.149-.0107.298-.0427.448-.096v-2.208h-.8c-.395 0-.694.1067-.896.32-.192.2027-.288.4747-.288.816zm4.464 4.16c-.256 0-.507-.016-.752-.048-.235-.0427-.454-.112-.656-.208-.203-.096-.384-.224-.544-.384-.15-.1707-.267-.3893-.352-.656-.182.0427-.368.08-.56.112-.192.0213-.384.032-.576.032-.267 0-.576-.0373-.928-.112-.352-.0853-.688-.2347-1.008-.448-.31-.2133-.576-.5067-.8-.88-.214-.384-.32-.8747-.32-1.472 0-.5867.101-1.0827.304-1.488.213-.4053.48-.736.8-.992.33-.256.693-.4373 1.088-.544.405-.1173.8-.176 1.184-.176h2.72v4.784c0 .2453.032.416.096.512.064.0853.213.128.448.128h.384c.085 0 .165.0107.24.032.074.0107.138.048.192.112.064.0533.112.1387.144.256s.048.2773.048.48c0 .3627-.054.6133-.16.752-.096.1387-.251.208-.464.208zm-5.424-9.936c0-.3093.112-.576.336-.8s.49-.336.8-.336c.309 0 .576.112.8.336s.336.4907.336.8-.112.576-.336.8-.491.336-.8.336c-.31 0-.576-.112-.8-.336s-.336-.4907-.336-.8zm2.608 0c0-.3093.112-.576.336-.8s.49-.336.8-.336c.309 0 .576.112.8.336s.336.4907.336.8-.112.576-.336.8-.491.336-.8.336c-.31 0-.576-.112-.8-.336s-.336-.4907-.336-.8zm8.535 8.08c.213-.6187.49-1.2107.832-1.776.341-.5653.741-1.0667 1.2-1.504.458-.4373.976-.784 1.552-1.04.576-.2667 1.2-.4 1.872-.4 1.066 0 1.909.3253 2.528.976.618.64.928 1.552.928 2.736v1.024h1.264c.085 0 .165.0107.24.032.074.0107.138.048.192.112.064.0533.112.1387.144.256s.048.2773.048.48c0 .3627-.054.6133-.16.752-.096.1387-.251.208-.464.208h-9.648c-.544 0-1.008-.0853-1.392-.256-.374-.1813-.646-.3733-.816-.576-.278.3733-.646.608-1.104.704-.459.0853-1.051.128-1.776.128h-.624c-.086 0-.166-.0053-.24-.016-.075-.0213-.139-.0587-.192-.112-.064-.064-.112-.1547-.144-.272s-.048-.2773-.048-.48c0-.3627.053-.6133.16-.752.096-.1387.25-.208.464-.208h.656c.234 0 .426-.0053.576-.016.16-.0107.288-.0427.384-.096s.165-.128.208-.224c.042-.1067.064-.2507.064-.432v-3.056h2.064v2.72c0 .3413.085.608.256.8.17.192.496.288.976.288zm6.848.016v-.752c0-.544-.123-.992-.368-1.344-.235-.352-.656-.528-1.264-.528-.363 0-.704.0747-1.024.224-.32.1387-.619.3307-.896.576-.267.2347-.507.512-.72.832-.203.3093-.368.64-.496.992zm4.303 0c.363 0 .613-.0533.752-.16.149-.1173.224-.3733.224-.768v-3.6h2.08v3.424c0 .3947.075.6773.224.848s.48.256.992.256c.085 0 .165.0107.24.032.075.0107.139.048.192.112.064.0533.112.1387.144.256s.048.2773.048.48c0 .3627-.053.6133-.16.752-.096.1387-.251.208-.464.208-.309 0-.608-.048-.896-.144-.288-.1067-.528-.3307-.72-.672-.128.1813-.283.3307-.464.448-.181.1067-.373.1867-.576.24s-.416.0907-.64.112c-.213.0107-.427.016-.64.016h-1.312c-.085 0-.165-.0053-.24-.016-.075-.0213-.139-.0587-.192-.112-.064-.064-.112-.1547-.144-.272s-.048-.2773-.048-.48c0-.3627.053-.6133.16-.752.096-.1387.251-.208.464-.208zm.864-7.296c0-.3093.112-.576.336-.8s.491-.336.8-.336.576.112.8.336.336.4907.336.8-.112.576-.336.8-.491.336-.8.336-.576-.112-.8-.336-.336-.4907-.336-.8zm9.522 6.16c0-.16-.021-.32-.064-.48-.032-.16-.091-.2987-.176-.416-.075-.128-.181-.2293-.32-.304-.128-.0853-.288-.128-.48-.128-.331 0-.645.1653-.944.496-.288.3307-.528.832-.72 1.504.267.16.533.2987.8.416.277.1067.555.16.832.16.341 0 .603-.112.784-.336.192-.2347.288-.5387.288-.912zm-5.408 1.136c.288 0 .507-.1067.656-.32s.299-.5227.448-.928c.224-.6507.469-1.184.736-1.6.277-.416.565-.736.864-.96s.597-.3733.896-.448c.309-.0747.608-.112.896-.112.448 0 .853.08 1.216.24s.672.384.928.672.453.6347.592 1.04.208.848.208 1.328c0 .448-.059.864-.176 1.248-.117.3733-.293.704-.528.992-.235.2773-.533.496-.896.656-.352.1493-.768.224-1.248.224-.427 0-.859-.064-1.296-.192-.427-.128-.88-.3467-1.36-.656-.277.3093-.56.496-.848.56s-.603.096-.944.096h-.848c-.085 0-.165-.0053-.24-.016-.075-.0213-.139-.0587-.192-.112-.064-.064-.112-.1547-.144-.272s-.048-.2773-.048-.48c0-.3627.053-.6133.16-.752.096-.1387.251-.208.464-.208z"/></g><path d="m49.4201 24.5789-9.8632-5.7894-9.7605-5.7895-9.8632 5.7895-9.8631 5.7894-9.761506 5.8947v11.5789l9.760506-5.7894 9.8632-5.7895 9.8641-5.8947 9.7605 5.8947 9.8632 5.7895 9.7605 5.7894v-11.5789z" fill="#6cf"/><path d="m38.5271 32.4688v9.2633l-7.8083-4.6312z" fill="url(#c)"/><path d="m11.0977 38.2656 7.8083 4.6312-7.8083 4.6312z" fill="url(#d)"/><path d="m27.9467 41.9453v7.4738l-6.267-3.6843z" fill="url(#e)"/><path d="m57.435 61.5234v7.4738l-6.267-3.7895z" fill="url(#f)"/><path d="m41.3047 49.9453 6.267 3.6843-6.267 3.6863z" fill="url(#g)"/><path d="m13.9766 58.2656 6.267 3.6843-6.267 3.7895z" fill="url(#h)"/><path d="m6.26706 53.6328v7.3686l-6.26706-3.6843z" fill="url(#i)"/><path d="m49.4218 24.5781v11.6842l-9.8593-5.7895z" fill="url(#j)"/><path d="m29.793 13 9.7624 5.7895-9.7624 5.7894z" fill="url(#k)"/><path d="m.308594 30.4688 9.760506 5.7894-9.760506 5.7895z" fill="url(#l)"/><path d="m10.0703 24.5781 9.8632 5.8947-9.8632 5.7895z" fill="url(#m)"/><path d="m28.7693 26.6875v9.2633l-7.8084-4.6311z" fill="url(#n)"/><path d="m18.906 32.4688v9.2633l-7.8083-4.6312z" fill="url(#o)"/><path d="m40.582 32.4688 7.8084 4.6311-7.8084 4.6322z" fill="url(#p)"/><path d="m9.14546 38.2656v9.2634l-7.91108-4.6312z" fill="url(#q)"/><path d="m48.3982 38.2656v9.2634l-7.8084-4.6312z" fill="url(#r)"/><path d="m58.2587 44.0547v9.2633l-7.9149-4.6311z" fill="url(#s)"/><path d="m30.7188 26.6875 7.8083 4.6312-7.8083 4.6312z" fill="url(#t)"/><path d="m1.23438 44.0547 7.91108 4.6312-7.91108 4.6321z" fill="url(#u)"/><path d="m50.3438 38.2656 7.9149 4.6322-7.9149 4.6312z" fill="url(#v)"/><path d="m20.9609 32.4688 7.8084 4.6311-7.8084 4.6322z" fill="url(#w)"/><path d="m2.05469 61.5234 6.26706 3.6843-6.26706 3.7895z" fill="url(#x)"/><path d="m51.168 53.6328 6.267 3.6843-6.267 3.6843z" fill="url(#y)"/><path d="m47.5717 56.1562v7.4739l-6.267-3.7896z" fill="url(#z)"/><path d="m37.81 60.4766v7.3686l-6.267-3.6853z" fill="url(#A)"/><path d="m21.6797 49.9453 6.267 3.6843-6.267 3.6863z" fill="url(#B)"/><path d="m18.186 49.9453v7.3706l-6.268-3.6863z" fill="url(#C)"/><path d="m31.543 40.1641 6.267 3.6843-6.267 3.6843z" fill="url(#D)"/><path d="m29.7968 13v11.5789l-9.8632-5.7894z" fill="url(#E)"/><path d="m19.9335 18.7812v11.6842l-9.8632-5.8947z" fill="url(#F)"/><path d="m39.5625 18.7812 9.8632 5.7895-9.8632 5.8947z" fill="url(#G)"/><path d="m39.5554 18.7812v11.6842l-9.7624-5.8947z" fill="url(#H)"/><path d="m10.0701 24.5781v11.6842l-9.761506-5.7895z" fill="url(#I)"/><path d="m59.1785 30.4688v11.5789l-9.7605-5.7895z" fill="url(#J)"/><path d="m49.418 24.5781v11.6842l9.7605-5.7895z" fill="url(#K)"/><path d="m19.9336 18.7812 9.8632 5.7895-9.8632 5.8947z" fill="url(#L)"/><g fill="#fff"><path d="m78.8018 52.4688h-.8213v1.053l.8213-.526z"/><path d="m77.4698 52.4688h-.8214v1.053l.8214-.526z"/></g></svg>