<svg width="240" height="59" viewBox="0 0 240 59" fill="none" xmlns="http://www.w3.org/2000/svg">
<path d="M11.1705 33.1293C10.9455 33.1293 10.7289 33.1126 10.5178 33.0793C10.3067 33.0459 10.1122 32.9876 9.93445 32.9043C9.75668 32.8209 9.59835 32.7043 9.46225 32.5598C9.32614 32.4154 9.22059 32.2237 9.14559 31.9904C8.98726 32.0265 8.82338 32.0599 8.65394 32.0821C8.48451 32.1043 8.31785 32.1182 8.14841 32.1182C7.91509 32.1182 7.64287 32.0821 7.33178 32.0126C7.02345 31.9432 6.72902 31.8126 6.45403 31.6265C6.17626 31.4404 5.94294 31.1793 5.75128 30.846C5.55962 30.5127 5.4624 30.0849 5.4624 29.56C5.4624 29.035 5.55407 28.61 5.73739 28.2517C5.92072 27.8961 6.15404 27.6045 6.44014 27.3795C6.72624 27.1545 7.04567 26.9934 7.39566 26.8934C7.74842 26.7962 8.09286 26.7462 8.42895 26.7462H10.8177V30.9488C10.8177 31.1655 10.8455 31.3127 10.9011 31.3904C10.9566 31.471 11.0872 31.5099 11.2955 31.5099H11.6316C11.7066 31.5099 11.776 31.5182 11.8427 31.5321C11.9094 31.546 11.9677 31.5793 12.0177 31.6293C12.0705 31.6821 12.1094 31.7571 12.1371 31.8599C12.1649 31.9626 12.1788 32.1043 12.1788 32.2821C12.1788 32.6015 12.1344 32.8209 12.0455 32.9432C11.9566 33.0654 11.8177 33.1265 11.6316 33.1265H11.1677L11.1705 33.1293ZM6.40681 24.3991C6.40681 24.1268 6.50403 23.8935 6.70124 23.6963C6.89846 23.4991 7.13178 23.4019 7.40399 23.4019C7.6762 23.4019 7.90953 23.4991 8.10674 23.6963C8.30396 23.8935 8.40117 24.1268 8.40117 24.3991C8.40117 24.6713 8.30396 24.9046 8.10674 25.1018C7.90953 25.299 7.6762 25.3962 7.40399 25.3962C7.13178 25.3962 6.89846 25.299 6.70124 25.1018C6.50403 24.9046 6.40681 24.6713 6.40681 24.3991ZM7.24844 29.4683C7.24844 29.5794 7.26233 29.6988 7.29011 29.8238C7.31788 29.9488 7.37066 30.0599 7.44566 30.1599C7.52065 30.2572 7.62065 30.3405 7.74843 30.4044C7.8762 30.4683 8.0373 30.5016 8.23452 30.5016C8.35673 30.5016 8.48173 30.496 8.60672 30.4877C8.73172 30.4794 8.86227 30.4516 8.99282 30.4044V28.4767H8.29007C7.94286 28.4767 7.68176 28.5683 7.50955 28.7489C7.33733 28.9294 7.24844 29.1711 7.24844 29.4683ZM8.69839 24.3991C8.69839 24.1268 8.7956 23.8935 8.99282 23.6963C9.19003 23.4991 9.42336 23.4019 9.69557 23.4019C9.96778 23.4019 10.2011 23.4991 10.3983 23.6963C10.5955 23.8935 10.6927 24.1268 10.6927 24.3991C10.6927 24.6713 10.5955 24.9046 10.3983 25.1018C10.2011 25.299 9.96778 25.3962 9.69557 25.3962C9.42336 25.3962 9.19003 25.299 8.99282 25.1018C8.7956 24.9046 8.69839 24.6713 8.69839 24.3991Z" fill="#1F2A37"/>
<path d="M16.667 33.1294C16.5365 33.1294 16.3948 33.121 16.2448 33.1016C16.0948 33.0821 15.9504 33.0488 15.8087 32.996C15.6671 32.9433 15.5337 32.871 15.4087 32.7766C15.281 32.6822 15.1754 32.5599 15.0921 32.41C14.981 32.5683 14.8449 32.6988 14.6838 32.7961C14.5227 32.8933 14.356 32.9683 14.1782 33.0127C14.0005 33.0599 13.8143 33.0905 13.6227 33.1044C13.431 33.1183 13.2394 33.1266 13.0533 33.1266H11.6339C11.5589 33.1266 11.4894 33.1183 11.4228 33.1044C11.3561 33.0905 11.2978 33.0571 11.2478 33.0072C11.195 32.9572 11.1561 32.8794 11.1283 32.7766C11.1006 32.6738 11.0867 32.5322 11.0867 32.3544C11.0867 32.035 11.1311 31.8155 11.22 31.6933C11.3089 31.5711 11.4478 31.51 11.6339 31.51H12.7588C13.0783 31.51 13.3005 31.46 13.4255 31.3628C13.5533 31.2656 13.6144 31.0406 13.6144 30.6961V27.5324H15.4421V30.5406C15.4421 30.8878 15.5337 31.135 15.7171 31.285C15.9004 31.435 16.217 31.51 16.667 31.51C16.742 31.51 16.8115 31.5183 16.8781 31.5322C16.9448 31.5461 17.0031 31.5794 17.0531 31.6294C17.1031 31.6822 17.1448 31.7572 17.1725 31.86C17.2003 31.9627 17.2142 32.1044 17.2142 32.2822C17.2142 32.6016 17.1698 32.821 17.0809 32.9433C16.992 33.0655 16.8531 33.1266 16.667 33.1266V33.1294ZM12.0005 35.4904C12.0005 35.2182 12.0978 34.9849 12.295 34.7876C12.4922 34.5904 12.7255 34.4932 12.9977 34.4932C13.2699 34.4932 13.5033 34.5904 13.7005 34.7876C13.8977 34.9849 13.9949 35.2182 13.9949 35.4904C13.9949 35.7626 13.8977 35.9959 13.7005 36.1931C13.5033 36.3903 13.2699 36.4876 12.9977 36.4876C12.7255 36.4876 12.4922 36.3903 12.295 36.1931C12.0978 35.9959 12.0005 35.7626 12.0005 35.4904ZM14.2921 35.4904C14.2921 35.2182 14.3893 34.9849 14.5865 34.7876C14.7838 34.5904 15.0171 34.4932 15.2893 34.4932C15.5615 34.4932 15.7948 34.5904 15.992 34.7876C16.1893 34.9849 16.2865 35.2182 16.2865 35.4904C16.2865 35.7626 16.1893 35.9959 15.992 36.1931C15.7948 36.3903 15.5615 36.4876 15.2893 36.4876C15.0171 36.4876 14.7838 36.3903 14.5865 36.1931C14.3893 35.9959 14.2921 35.7626 14.2921 35.4904Z" fill="#1F2A37"/>
<path d="M17.526 31.5134C17.8454 31.5134 18.0676 31.4634 18.1926 31.3662C18.3204 31.269 18.3815 31.044 18.3815 30.6995V27.5358H20.2092V30.544C20.2092 30.8912 20.2759 31.1384 20.4064 31.2884C20.537 31.4384 20.8286 31.5134 21.2786 31.5134C21.3536 31.5134 21.4231 31.5217 21.4897 31.5356C21.5564 31.5495 21.6147 31.5828 21.6647 31.6328C21.7147 31.6856 21.7564 31.7606 21.7842 31.8634C21.8119 31.9662 21.8258 32.1078 21.8258 32.2856C21.8258 32.605 21.7814 32.8245 21.6925 32.9467C21.6036 33.0689 21.4647 33.13 21.2786 33.13C21.0064 33.13 20.7453 33.0856 20.4926 32.9967C20.2398 32.9078 20.0287 32.7133 19.8592 32.4134C19.7454 32.5717 19.612 32.7022 19.4509 32.7995C19.2926 32.8967 19.1232 32.9717 18.9454 33.0161C18.7676 33.0633 18.5815 33.0939 18.3899 33.1078C18.1982 33.1217 18.0065 33.13 17.8204 33.13L16.667 33.1294C16.592 33.1294 16.5233 33.1217 16.4566 33.1078C16.3899 33.0939 16.3316 33.0606 16.2816 33.0106C16.2288 32.9606 16.1899 32.8828 16.1622 32.78C16.1344 32.6772 16.1205 32.5356 16.1205 32.3578C16.1205 32.0384 16.1649 31.8189 16.2538 31.6967C16.3427 31.5745 16.4816 31.5134 16.6677 31.5134H17.526ZM18.2843 25.1025C18.2843 24.8303 18.3815 24.597 18.5787 24.3998C18.7759 24.2026 19.0093 24.1054 19.2815 24.1054C19.5537 24.1054 19.787 24.2026 19.9842 24.3998C20.1814 24.597 20.2787 24.8303 20.2787 25.1025C20.2787 25.3748 20.1814 25.6081 19.9842 25.8053C19.787 26.0025 19.5537 26.0997 19.2815 26.0997C19.0093 26.0997 18.7759 26.0025 18.5787 25.8053C18.3815 25.6081 18.2843 25.3748 18.2843 25.1025Z" fill="#1F2A37"/>
<path d="M22.9395 31.5127V23.0908H24.7672V28.9545C25.1255 28.4962 25.5727 28.1128 26.1115 27.8101C26.6532 27.5045 27.2282 27.3545 27.8365 27.3545C28.8226 27.3545 29.567 27.6462 30.0697 28.2267C30.5725 28.8073 30.8225 29.6045 30.8225 30.6155V33.1321H21.2756C21.2006 33.1321 21.1312 33.1238 21.0645 33.1099C20.9979 33.096 20.9395 33.0626 20.8895 33.0126C20.8368 32.9626 20.7979 32.8849 20.7701 32.7821C20.7423 32.6793 20.7284 32.5377 20.7284 32.3599C20.7284 32.0405 20.7729 31.821 20.8618 31.6988C20.9506 31.5766 21.0895 31.5155 21.2756 31.5155H22.9339L22.9395 31.5127ZM28.9975 31.5127V30.7127C28.9975 30.4877 28.9753 30.2739 28.9281 30.0739C28.8809 29.8739 28.8031 29.6961 28.6976 29.5461C28.5892 29.3961 28.4476 29.2795 28.2698 29.1934C28.092 29.11 27.8726 29.0656 27.6087 29.0656C27.3282 29.0656 27.0532 29.1322 26.7865 29.2628C26.5199 29.3933 26.2671 29.5711 26.0282 29.7961C25.7893 30.0211 25.5727 30.2822 25.3755 30.5766C25.1783 30.8711 25.0088 31.1849 24.8699 31.5127H29.0031H28.9975Z" fill="#1F2A37"/>
<path d="M37.5029 33.1294C37.3723 34.1516 36.9529 34.8932 36.2446 35.3571C35.5363 35.8209 34.4752 36.0515 33.0586 36.0515H32.6225V34.3377H32.9447C33.4308 34.3377 33.8391 34.3099 34.1669 34.2543C34.4946 34.1988 34.7641 34.1155 34.9752 34.0071C35.1863 33.8988 35.3418 33.7738 35.4474 33.6266C35.5502 33.4821 35.6168 33.3155 35.6446 33.1266H34.7724C34.3585 33.1266 33.9808 33.0794 33.6336 32.9849C33.2864 32.8905 32.9864 32.7377 32.7336 32.5266C32.4808 32.3155 32.2836 32.0433 32.142 31.71C32.0003 31.3767 31.9309 30.9767 31.9309 30.5073C31.9309 30.1323 31.9947 29.7628 32.1197 29.3962C32.2447 29.0295 32.4308 28.7018 32.6725 28.4129C32.9169 28.1212 33.2141 27.8907 33.5697 27.7157C33.9252 27.5435 34.3308 27.4546 34.7891 27.4546C35.303 27.4546 35.7363 27.5435 36.0863 27.7213C36.4362 27.899 36.7196 28.149 36.9334 28.474C37.1473 28.7962 37.3029 29.1823 37.3973 29.6267C37.4917 30.0712 37.5362 30.5628 37.5362 31.0961V31.5044H38.5639C38.6389 31.5044 38.7084 31.5128 38.775 31.5267C38.8417 31.5406 38.9 31.5739 38.95 31.6239C39 31.6767 39.0417 31.7517 39.0695 31.8544C39.0972 31.9572 39.1111 32.0989 39.1111 32.2766C39.1111 32.5961 39.0667 32.8155 38.9778 32.9377C38.8889 33.0599 38.75 33.121 38.5639 33.121H37.4945L37.5029 33.1294ZM33.7363 30.3462C33.7363 30.7961 33.8336 31.1045 34.0252 31.2683C34.2169 31.4322 34.4724 31.5156 34.7919 31.5156H35.7196V30.6711C35.7196 30.2212 35.6502 29.849 35.5085 29.5545C35.3668 29.2601 35.1057 29.1129 34.7224 29.1129C34.3752 29.1129 34.1252 29.2295 33.9697 29.4656C33.8141 29.699 33.7391 29.9962 33.7391 30.3517L33.7363 30.3462Z" fill="#1F2A37"/>
<path d="M40.2027 31.5127V23.0908H42.0304V33.1293H38.5861C38.5111 33.1293 38.4417 33.121 38.375 33.1071C38.3083 33.0932 38.25 33.0599 38.2 33.0099C38.1472 32.9599 38.1083 32.8821 38.0806 32.7793C38.0528 32.6765 38.0389 32.5349 38.0389 32.3571C38.0389 32.0377 38.0833 31.8183 38.1722 31.696C38.2611 31.5738 38.4 31.5127 38.5861 31.5127H40.2027Z" fill="#1F2A37"/>
<path d="M45.5578 23.0908V33.1293H43.7301V23.0908H45.5578Z" fill="#1F2A37"/>
<path d="M61.6267 33.129H53.2187C52.666 33.129 52.2021 33.0901 51.8271 33.0095C51.4522 32.929 51.1522 32.8012 50.9272 32.6234C50.7022 32.4457 50.5411 32.2151 50.4411 31.9346C50.3439 31.654 50.2939 31.3124 50.2939 30.9068V28.5875H52.1216V30.6402C52.1216 30.818 52.1438 30.9624 52.191 31.0763C52.2382 31.1902 52.3216 31.279 52.4438 31.3429C52.566 31.4096 52.7299 31.454 52.9382 31.4763C53.1437 31.4985 53.4076 31.5124 53.7271 31.5124H59.7963V27.5348H61.624V33.129H61.6267ZM53.8965 25.9182C53.8965 25.6459 53.9937 25.4126 54.1909 25.2154C54.3881 25.0182 54.6215 24.921 54.8937 24.921C55.1659 24.921 55.3992 25.0182 55.5964 25.2154C55.7936 25.4126 55.8909 25.6459 55.8909 25.9182C55.8909 26.1904 55.7936 26.4237 55.5964 26.6209C55.3992 26.8181 55.1659 26.9153 54.8937 26.9153C54.6215 26.9153 54.3881 26.8181 54.1909 26.6209C53.9937 26.4237 53.8965 26.1904 53.8965 25.9182ZM56.1881 25.9182C56.1881 25.6459 56.2853 25.4126 56.4825 25.2154C56.6797 25.0182 56.913 24.921 57.1852 24.921C57.4575 24.921 57.6908 25.0182 57.888 25.2154C58.0852 25.4126 58.1824 25.6459 58.1824 25.9182C58.1824 26.1904 58.0852 26.4237 57.888 26.6209C57.6908 26.8181 57.4575 26.9153 57.1852 26.9153C56.913 26.9153 56.6797 26.8181 56.4825 26.6209C56.2853 26.4237 56.1881 26.1904 56.1881 25.9182Z" fill="#1F2A37"/>
<path d="M66.633 32.2848C66.633 32.6043 66.5886 32.8237 66.4997 32.9459C66.4108 33.0681 66.2719 33.1292 66.0858 33.1292H65.4942C65.1748 33.1292 64.8831 33.0931 64.6164 33.0237C64.3498 32.9543 64.1192 32.8376 63.9276 32.6737C63.7359 32.5098 63.5859 32.2904 63.4776 32.021C63.3693 31.7487 63.3165 31.4126 63.3165 31.0099V23.0935H65.1442V30.7543C65.1442 31.0821 65.2025 31.2904 65.3192 31.3793C65.4359 31.4682 65.6025 31.5126 65.8192 31.5126H66.0858C66.1608 31.5126 66.2303 31.521 66.2969 31.5349C66.3636 31.5488 66.4219 31.5821 66.4719 31.6321C66.5247 31.6849 66.5636 31.7599 66.5914 31.8626C66.6191 31.9654 66.633 32.1071 66.633 32.2848Z" fill="#1F2A37"/>
<path d="M67.674 31.5134V27.5358H69.5017V33.13H66.0573C65.9823 33.13 65.9129 33.1217 65.8463 33.1078C65.7796 33.0939 65.7213 33.0606 65.6713 33.0106C65.6185 32.9606 65.5796 32.8828 65.5518 32.78C65.524 32.6772 65.5101 32.5356 65.5101 32.3578C65.5101 32.0384 65.5546 31.8189 65.6435 31.6967C65.7324 31.5745 65.8712 31.5134 66.0573 31.5134H67.674ZM67.5601 25.1025C67.5601 24.8303 67.6573 24.597 67.8545 24.3998C68.0517 24.2026 68.285 24.1054 68.5572 24.1054C68.8295 24.1054 69.0628 24.2026 69.26 24.3998C69.4572 24.597 69.5544 24.8303 69.5544 25.1025C69.5544 25.3748 69.4572 25.6081 69.26 25.8053C69.0628 26.0025 68.8295 26.0997 68.5572 26.0997C68.285 26.0997 68.0517 26.0025 67.8545 25.8053C67.6573 25.6081 67.5601 25.3748 67.5601 25.1025Z" fill="#1F2A37"/>
<path d="M74.5197 32.2848C74.5197 32.6043 74.4752 32.8237 74.3864 32.9459C74.2975 33.0681 74.1586 33.1292 73.9725 33.1292H73.3808C73.0614 33.1292 72.7698 33.0931 72.5031 33.0237C72.2365 32.9543 72.0059 32.8376 71.8142 32.6737C71.6226 32.5098 71.4726 32.2904 71.3643 32.021C71.2559 31.7487 71.2031 31.4126 71.2031 31.0099V23.0935H73.0309V30.7543C73.0309 31.0821 73.0892 31.2904 73.2058 31.3793C73.3225 31.4682 73.4892 31.5126 73.7058 31.5126H73.9725C74.0475 31.5126 74.1169 31.521 74.1836 31.5349C74.2503 31.5488 74.3086 31.5821 74.3586 31.6321C74.4114 31.6849 74.4502 31.7599 74.478 31.8626C74.5058 31.9654 74.5197 32.1071 74.5197 32.2848Z" fill="#1F2A37"/>
<path d="M78.9907 33.1294C78.8601 33.1294 78.7185 33.121 78.5685 33.1016C78.4185 33.0821 78.274 33.0488 78.1324 32.996C77.9907 32.9433 77.8574 32.871 77.7324 32.7766C77.6046 32.6822 77.5019 32.5599 77.4158 32.41C77.3019 32.5683 77.1685 32.6988 77.0074 32.7961C76.8491 32.8933 76.6797 32.9683 76.5019 33.0127C76.3241 33.0599 76.138 33.0905 75.9464 33.1044C75.7547 33.1183 75.563 33.1266 75.3769 33.1266H73.9576C73.8826 33.1266 73.8131 33.1183 73.7465 33.1044C73.6798 33.0905 73.6215 33.0571 73.5715 33.0072C73.5187 32.9572 73.4798 32.8794 73.452 32.7766C73.4242 32.6738 73.4104 32.5322 73.4104 32.3544C73.4104 32.035 73.4548 31.8155 73.5437 31.6933C73.6326 31.5711 73.7715 31.51 73.9576 31.51H75.0825C75.4019 31.51 75.6242 31.46 75.7492 31.3628C75.8769 31.2656 75.938 31.0406 75.938 30.6961V27.5324H77.7657V30.5406C77.7657 30.8878 77.8574 31.135 78.0407 31.285C78.2241 31.435 78.5407 31.51 78.9907 31.51C79.0657 31.51 79.1351 31.5183 79.2018 31.5322C79.2685 31.5461 79.3268 31.5794 79.3768 31.6294C79.4268 31.6822 79.4684 31.7572 79.4962 31.86C79.524 31.9627 79.5379 32.1044 79.5379 32.2822C79.5379 32.6016 79.4934 32.821 79.4046 32.9433C79.3157 33.0655 79.1768 33.1266 78.9907 33.1266V33.1294ZM74.3242 35.4904C74.3242 35.2182 74.4214 34.9849 74.6186 34.7876C74.8159 34.5904 75.0492 34.4932 75.3214 34.4932C75.5936 34.4932 75.8269 34.5904 76.0241 34.7876C76.2214 34.9849 76.3186 35.2182 76.3186 35.4904C76.3186 35.7626 76.2214 35.9959 76.0241 36.1931C75.8269 36.3903 75.5936 36.4876 75.3214 36.4876C75.0492 36.4876 74.8159 36.3903 74.6186 36.1931C74.4214 35.9959 74.3242 35.7626 74.3242 35.4904ZM76.6158 35.4904C76.6158 35.2182 76.713 34.9849 76.9102 34.7876C77.1074 34.5904 77.3408 34.4932 77.613 34.4932C77.8852 34.4932 78.1185 34.5904 78.3157 34.7876C78.5129 34.9849 78.6101 35.2182 78.6101 35.4904C78.6101 35.7626 78.5129 35.9959 78.3157 36.1931C78.1185 36.3903 77.8852 36.4876 77.613 36.4876C77.3408 36.4876 77.1074 36.3903 76.9102 36.1931C76.713 35.9959 76.6158 35.7626 76.6158 35.4904Z" fill="#1F2A37"/>
<path d="M79.8479 31.5127C80.1673 31.5127 80.3895 31.4627 80.5145 31.3655C80.6423 31.2683 80.7034 31.0433 80.7034 30.6988V27.5351H82.5311V30.5433C82.5311 30.8905 82.5978 31.1377 82.7283 31.2877C82.8588 31.4377 83.1505 31.5127 83.6005 31.5127C83.6755 31.5127 83.7449 31.521 83.8116 31.5349C83.8783 31.5488 83.9366 31.5821 83.9866 31.6321C84.0366 31.6849 84.0783 31.7599 84.106 31.8627C84.1338 31.9655 84.1477 32.1071 84.1477 32.2849C84.1477 32.6043 84.1032 32.8238 84.0144 32.946C83.9255 33.0682 83.7866 33.1293 83.6005 33.1293C83.3283 33.1293 83.0672 33.0849 82.8144 32.996C82.5616 32.9071 82.3505 32.7127 82.1811 32.4127C82.0672 32.571 81.9339 32.7015 81.7728 32.7988C81.6145 32.896 81.445 32.971 81.2673 33.0154C81.0895 33.0626 80.9034 33.0932 80.7117 33.1071C80.5201 33.121 80.3284 33.1293 80.1423 33.1293H78.9896C78.9146 33.1293 78.8451 33.121 78.7785 33.1071C78.7118 33.0932 78.6535 33.0599 78.6035 33.0099C78.5507 32.9599 78.5118 32.8821 78.484 32.7793C78.4563 32.6765 78.4424 32.5349 78.4424 32.3571C78.4424 32.0377 78.4868 31.8182 78.5757 31.696C78.6646 31.5738 78.8035 31.5127 78.9896 31.5127H79.8479ZM80.6201 35.4487C80.6201 35.1764 80.7173 34.9431 80.9145 34.7459C81.1117 34.5487 81.345 34.4515 81.6172 34.4515C81.8895 34.4515 82.1228 34.5487 82.32 34.7459C82.5172 34.9431 82.6144 35.1764 82.6144 35.4487C82.6144 35.7209 82.5172 35.9542 82.32 36.1514C82.1228 36.3486 81.8895 36.4458 81.6172 36.4458C81.345 36.4458 81.1117 36.3486 80.9145 36.1514C80.7173 35.9542 80.6201 35.7209 80.6201 35.4487Z" fill="#1F2A37"/>
<path d="M85.2177 31.5127V23.0908H87.0454V33.1293L83.6005 33.1293C83.5255 33.1293 83.4567 33.121 83.39 33.1071C83.3233 33.0932 83.265 33.0599 83.215 33.0099C83.1622 32.9599 83.1234 32.8821 83.0956 32.7793C83.0678 32.6765 83.0539 32.5349 83.0539 32.3571C83.0539 32.0377 83.0984 31.8183 83.1872 31.696C83.2761 31.5738 83.4144 31.5127 83.6005 31.5127L85.2177 31.5127Z" fill="#1F2A37"/>
<path d="M90.5746 23.0908V33.1293H88.7469V23.0908H90.5746Z" fill="#1F2A37"/>
<path d="M101.02 33.1293C100.795 33.1293 100.578 33.1126 100.367 33.0793C100.156 33.0459 99.9614 32.9876 99.7836 32.9043C99.6058 32.8209 99.4475 32.7043 99.3114 32.5598C99.1753 32.4154 99.0698 32.2237 98.9948 31.9904C98.8364 32.0265 98.6726 32.0599 98.5031 32.0821C98.3337 32.1043 98.167 32.1182 97.9976 32.1182C97.7643 32.1182 97.492 32.0821 97.1809 32.0126C96.8698 31.9432 96.5782 31.8126 96.3032 31.6265C96.0254 31.4404 95.7921 31.1793 95.6004 30.846C95.4088 30.5127 95.3116 30.0849 95.3116 29.56C95.3116 29.035 95.4032 28.61 95.5866 28.2517C95.7699 27.8961 96.0032 27.6045 96.2893 27.3795C96.5754 27.1545 96.8949 26.9934 97.2448 26.8934C97.5976 26.7962 97.942 26.7462 98.2781 26.7462H100.667V30.9488C100.667 31.1655 100.695 31.3127 100.75 31.3904C100.806 31.471 100.936 31.5099 101.145 31.5099H101.481C101.556 31.5099 101.625 31.5182 101.692 31.5321C101.759 31.546 101.817 31.5793 101.867 31.6293C101.917 31.6821 101.959 31.7571 101.986 31.8599C102.014 31.9626 102.028 32.1043 102.028 32.2821C102.028 32.6015 101.984 32.8209 101.895 32.9432C101.806 33.0654 101.667 33.1265 101.481 33.1265H101.017L101.02 33.1293ZM96.2532 24.3991C96.2532 24.1268 96.3504 23.8935 96.5476 23.6963C96.7449 23.4991 96.9782 23.4019 97.2504 23.4019C97.5226 23.4019 97.7559 23.4991 97.9531 23.6963C98.1504 23.8935 98.2476 24.1268 98.2476 24.3991C98.2476 24.6713 98.1504 24.9046 97.9531 25.1018C97.7559 25.299 97.5226 25.3962 97.2504 25.3962C96.9782 25.3962 96.7449 25.299 96.5476 25.1018C96.3504 24.9046 96.2532 24.6713 96.2532 24.3991ZM97.0976 29.4683C97.0976 29.5794 97.1115 29.6988 97.1393 29.8238C97.1671 29.9488 97.2198 30.0599 97.2948 30.1599C97.3698 30.2572 97.4698 30.3405 97.5976 30.4044C97.7254 30.4683 97.8865 30.5016 98.0837 30.5016C98.2059 30.5016 98.3309 30.496 98.4559 30.4877C98.5837 30.4794 98.7114 30.4516 98.842 30.4044V28.4767H98.1392C97.792 28.4767 97.5337 28.5683 97.3587 28.7489C97.1865 28.9294 97.0976 29.1711 97.0976 29.4683ZM98.5448 24.3991C98.5448 24.1268 98.642 23.8935 98.8392 23.6963C99.0364 23.4991 99.2698 23.4019 99.542 23.4019C99.8142 23.4019 100.048 23.4991 100.245 23.6963C100.442 23.8935 100.539 24.1268 100.539 24.3991C100.539 24.6713 100.442 24.9046 100.245 25.1018C100.048 25.299 99.8142 25.3962 99.542 25.3962C99.2698 25.3962 99.0364 25.299 98.8392 25.1018C98.642 24.9046 98.5448 24.6713 98.5448 24.3991Z" fill="#1F2A37"/>
<path d="M102.214 31.5131C102.328 31.5131 102.464 31.4186 102.628 31.2325C102.791 31.0464 102.939 30.7742 103.069 30.4159C103.275 29.8826 103.497 29.4382 103.736 29.0882C103.975 28.7382 104.225 28.4549 104.489 28.2438C104.75 28.0327 105.014 27.8854 105.275 27.8021C105.536 27.7188 105.794 27.6743 106.047 27.6743C106.414 27.6743 106.755 27.7438 107.075 27.8854C107.394 28.0271 107.666 28.2215 107.897 28.4771C108.127 28.7326 108.308 29.0354 108.438 29.3909C108.569 29.7465 108.636 30.1353 108.636 30.5576C108.636 30.6242 108.636 30.6853 108.63 30.7409C108.625 30.7964 108.622 30.8548 108.622 30.9103C108.744 31.1353 108.93 31.2936 109.183 31.3825C109.436 31.4714 109.675 31.5158 109.9 31.5158C109.975 31.5158 110.044 31.5242 110.111 31.5381C110.177 31.552 110.236 31.5853 110.286 31.6353C110.338 31.6881 110.377 31.7631 110.405 31.8658C110.433 31.9686 110.447 32.1103 110.447 32.288C110.447 32.6075 110.402 32.8269 110.313 32.9491C110.225 33.0713 110.086 33.1325 109.9 33.1325C109.544 33.1325 109.225 33.0658 108.944 32.9297C108.663 32.7936 108.419 32.5769 108.213 32.2769C108.016 32.6047 107.744 32.8575 107.397 33.0352C107.05 33.213 106.627 33.3019 106.13 33.3019C105.755 33.3019 105.375 33.2463 104.991 33.1325C104.608 33.0186 104.208 32.8269 103.797 32.5547C103.553 32.8269 103.305 32.9908 103.053 33.0463C102.8 33.1019 102.522 33.1297 102.222 33.1297H101.478C101.403 33.1297 101.333 33.1213 101.267 33.1074C101.2 33.0936 101.142 33.0602 101.092 33.0102C101.039 32.9602 101 32.8825 100.972 32.7797C100.944 32.6769 100.93 32.5353 100.93 32.3575C100.93 32.038 100.975 31.8186 101.064 31.6964C101.153 31.5742 101.292 31.5131 101.478 31.5131H102.214ZM106.855 30.5159C106.855 30.3742 106.839 30.2353 106.805 30.0937C106.772 29.952 106.722 29.8298 106.65 29.7215C106.577 29.6131 106.486 29.5243 106.369 29.4548C106.252 29.3854 106.108 29.3493 105.941 29.3493C105.697 29.3493 105.444 29.4798 105.183 29.7437C104.919 30.0076 104.714 30.4714 104.564 31.1353C104.797 31.277 105.022 31.3909 105.23 31.4797C105.441 31.5686 105.669 31.6131 105.914 31.6131C106.214 31.6131 106.444 31.5131 106.608 31.3103C106.772 31.1103 106.855 30.8437 106.855 30.5159Z" fill="#1F2A37"/>
<path d="M113.18 31.5133C113.377 31.5133 113.563 31.4744 113.741 31.3938C113.919 31.3133 114.008 31.1522 114.008 30.9077C114.008 30.7383 113.902 30.5133 113.691 30.2272C113.48 29.9411 113.202 29.6383 112.855 29.3217C112.508 29.0022 112.113 28.6856 111.674 28.3717C111.233 28.0578 110.788 27.7829 110.338 27.5495C110.405 27.2412 110.48 26.9857 110.569 26.7829C110.658 26.5801 110.749 26.419 110.844 26.2968C110.938 26.1746 111.03 26.0829 111.119 26.0218C111.208 25.9607 111.28 25.9163 111.336 25.8885L116.241 23.7247V25.6079L112.924 26.9857V27.0273C113.485 27.394 113.949 27.7551 114.316 28.1106C114.683 28.4662 114.974 28.8134 115.194 29.1522C115.413 29.4911 115.566 29.8105 115.652 30.1161C115.738 30.4216 115.78 30.705 115.78 30.9661C115.78 31.191 115.749 31.4299 115.688 31.6827C115.627 31.9355 115.508 32.1688 115.33 32.3854C115.152 32.6021 114.902 32.7799 114.577 32.9188C114.255 33.0604 113.83 33.1299 113.305 33.1299H109.902C109.827 33.1299 109.758 33.1215 109.691 33.1076C109.625 33.0938 109.566 33.0604 109.516 33.0104C109.463 32.9604 109.425 32.8826 109.397 32.7799C109.369 32.6771 109.355 32.5354 109.355 32.3577C109.355 32.0382 109.4 31.8188 109.488 31.6966C109.577 31.5744 109.716 31.5133 109.902 31.5133H113.18Z" fill="#1F2A37"/>
<path d="M122.585 33.1294C122.454 34.1516 122.035 34.8932 121.327 35.3571C120.618 35.8209 119.557 36.0515 118.141 36.0515H117.705V34.3377H118.027C118.513 34.3377 118.921 34.3099 119.249 34.2543C119.577 34.1988 119.846 34.1155 120.057 34.0071C120.268 33.8988 120.424 33.7738 120.529 33.6266C120.632 33.4821 120.699 33.3155 120.727 33.1266H119.855C119.441 33.1266 119.063 33.0794 118.716 32.9849C118.368 32.8905 118.068 32.7377 117.816 32.5266C117.563 32.3155 117.366 32.0433 117.224 31.71C117.082 31.3767 117.013 30.9767 117.013 30.5073C117.013 30.1323 117.077 29.7628 117.202 29.3962C117.327 29.0295 117.513 28.7018 117.755 28.4129C117.999 28.1212 118.296 27.8907 118.652 27.7157C119.007 27.5435 119.413 27.4546 119.871 27.4546C120.385 27.4546 120.818 27.5435 121.168 27.7213C121.518 27.899 121.802 28.149 122.016 28.474C122.229 28.7962 122.385 29.1823 122.479 29.6267C122.574 30.0712 122.618 30.5628 122.618 31.0961V31.5044H123.646C123.721 31.5044 123.79 31.5128 123.857 31.5267C123.924 31.5406 123.982 31.5739 124.032 31.6239C124.082 31.6767 124.124 31.7517 124.152 31.8544C124.179 31.9572 124.193 32.0989 124.193 32.2766C124.193 32.5961 124.149 32.8155 124.06 32.9377C123.971 33.0599 123.832 33.121 123.646 33.121H122.577L122.585 33.1294ZM118.818 30.3462C118.818 30.7961 118.916 31.1045 119.107 31.2683C119.299 31.4322 119.555 31.5156 119.874 31.5156H120.802V30.6711C120.802 30.2212 120.732 29.849 120.591 29.5545C120.449 29.2601 120.188 29.1129 119.805 29.1129C119.457 29.1129 119.207 29.2295 119.052 29.4656C118.896 29.699 118.821 29.9962 118.821 30.3517L118.818 30.3462Z" fill="#1F2A37"/>
<path d="M128.702 31.5118C128.675 31.1369 128.613 30.7924 128.519 30.4786C128.425 30.1647 128.283 29.8952 128.091 29.6703C127.9 29.4453 127.652 29.2703 127.352 29.1425C127.052 29.0147 126.677 28.9536 126.227 28.9536C126.077 28.9536 125.841 28.9758 125.516 29.0175C125.194 29.0592 124.866 29.1286 124.539 29.2203V27.5898C124.755 27.5148 125.047 27.4342 125.416 27.3509C125.786 27.2676 126.169 27.2231 126.561 27.2231C127.291 27.2231 127.908 27.3509 128.411 27.6037C128.911 27.8564 129.316 28.1925 129.627 28.6147C129.938 29.0369 130.161 29.5258 130.294 30.0841C130.43 30.6424 130.497 31.2202 130.497 31.8202V33.1284H123.664C123.589 33.1284 123.519 33.1201 123.453 33.1062C123.386 33.0923 123.328 33.059 123.278 33.009C123.225 32.959 123.186 32.8812 123.158 32.7785C123.13 32.6757 123.116 32.534 123.116 32.3563C123.116 32.0368 123.161 31.8174 123.25 31.6952C123.339 31.573 123.478 31.5118 123.664 31.5118H128.702Z" fill="#1F2A37"/>
<path d="M140.821 33.1293C140.596 33.1293 140.379 33.1126 140.168 33.0793C139.957 33.0459 139.763 32.9876 139.585 32.9043C139.407 32.8209 139.249 32.7043 139.113 32.5598C138.977 32.4154 138.871 32.2237 138.796 31.9904C138.638 32.0265 138.474 32.0599 138.304 32.0821C138.135 32.1043 137.968 32.1182 137.799 32.1182C137.566 32.1182 137.293 32.0821 136.982 32.0126C136.671 31.9432 136.379 31.8126 136.104 31.6265C135.827 31.4404 135.593 31.1793 135.402 30.846C135.21 30.5127 135.113 30.0849 135.113 29.56C135.113 29.035 135.205 28.61 135.388 28.2517C135.571 27.8961 135.804 27.6045 136.091 27.3795C136.377 27.1545 136.696 26.9934 137.046 26.8934C137.399 26.7962 137.743 26.7462 138.079 26.7462H140.468V30.9488C140.468 31.1655 140.496 31.3127 140.551 31.3904C140.607 31.471 140.738 31.5099 140.946 31.5099H141.282C141.357 31.5099 141.426 31.5182 141.493 31.5321C141.56 31.546 141.618 31.5793 141.668 31.6293C141.718 31.6821 141.76 31.7571 141.788 31.8599C141.815 31.9626 141.829 32.1043 141.829 32.2821C141.829 32.6015 141.785 32.8209 141.696 32.9432C141.607 33.0654 141.468 33.1265 141.282 33.1265H140.818L140.821 33.1293ZM136.054 24.3991C136.054 24.1268 136.152 23.8935 136.349 23.6963C136.546 23.4991 136.779 23.4019 137.052 23.4019C137.324 23.4019 137.557 23.4991 137.754 23.6963C137.952 23.8935 138.049 24.1268 138.049 24.3991C138.049 24.6713 137.952 24.9046 137.754 25.1018C137.557 25.299 137.324 25.3962 137.052 25.3962C136.779 25.3962 136.546 25.299 136.349 25.1018C136.152 24.9046 136.054 24.6713 136.054 24.3991ZM136.899 29.4683C136.899 29.5794 136.913 29.6988 136.941 29.8238C136.968 29.9488 137.021 30.0599 137.096 30.1599C137.171 30.2572 137.271 30.3405 137.399 30.4044C137.527 30.4683 137.688 30.5016 137.885 30.5016C138.007 30.5016 138.132 30.496 138.257 30.4877C138.385 30.4794 138.513 30.4516 138.643 30.4044V28.4767H137.941C137.593 28.4767 137.335 28.5683 137.16 28.7489C136.988 28.9294 136.899 29.1711 136.899 29.4683ZM138.346 24.3991C138.346 24.1268 138.443 23.8935 138.64 23.6963C138.838 23.4991 139.071 23.4019 139.343 23.4019C139.615 23.4019 139.849 23.4991 140.046 23.6963C140.243 23.8935 140.34 24.1268 140.34 24.3991C140.34 24.6713 140.243 24.9046 140.046 25.1018C139.849 25.299 139.615 25.3962 139.343 25.3962C139.071 25.3962 138.838 25.299 138.64 25.1018C138.443 24.9046 138.346 24.6713 138.346 24.3991Z" fill="#1F2A37"/>
<path d="M141.859 31.5125C142.065 31.5125 142.237 31.507 142.373 31.4986C142.509 31.4903 142.62 31.4625 142.704 31.4153C142.787 31.3681 142.848 31.3014 142.887 31.2125C142.923 31.1237 142.943 30.9987 142.943 30.8403V28.1543H144.77V30.5431C144.77 30.8431 144.84 31.0764 144.981 31.2375C145.123 31.4014 145.356 31.4875 145.684 31.4986C145.862 30.9931 146.109 30.4904 146.423 29.9932C146.737 29.4959 147.109 29.0543 147.54 28.6654C147.97 28.2766 148.448 27.9599 148.973 27.7155C149.498 27.471 150.056 27.3488 150.645 27.3488C151.612 27.3488 152.359 27.6349 152.887 28.2071C153.417 28.7793 153.681 29.5793 153.681 30.6126V31.5125H154.792C154.867 31.5125 154.937 31.5209 155.003 31.5348C155.07 31.5486 155.128 31.582 155.178 31.632C155.228 31.6848 155.27 31.7597 155.298 31.8625C155.325 31.9653 155.339 32.107 155.339 32.2847C155.339 32.6042 155.295 32.8236 155.206 32.9458C155.117 33.068 154.978 33.1291 154.792 33.1291H146.306C145.829 33.1291 145.423 33.0514 145.09 32.8986C144.756 32.7458 144.515 32.5764 144.365 32.3986C144.12 32.7264 143.798 32.9319 143.393 33.0097C142.99 33.0903 142.468 33.1291 141.832 33.1291H141.284C141.209 33.1291 141.14 33.1208 141.073 33.1069C141.007 33.093 140.948 33.0597 140.898 33.0097C140.845 32.9597 140.807 32.8819 140.779 32.7792C140.751 32.6764 140.737 32.5347 140.737 32.3569C140.737 32.0375 140.782 31.8181 140.87 31.6959C140.959 31.5736 141.098 31.5125 141.284 31.5125H141.862H141.859ZM151.856 31.5125V30.8515C151.856 30.3737 151.753 29.9793 151.548 29.6709C151.342 29.3626 150.987 29.2071 150.478 29.2071C150.178 29.2071 149.89 29.271 149.615 29.396C149.337 29.5237 149.081 29.6904 148.842 29.9015C148.603 30.1126 148.384 30.357 148.181 30.632C147.979 30.9098 147.809 31.2014 147.667 31.5098H151.856V31.5125Z" fill="#1F2A37"/>
<path d="M155.639 31.5134C155.958 31.5134 156.181 31.4634 156.306 31.3662C156.433 31.269 156.495 31.044 156.495 30.6995V27.5358H158.322V30.544C158.322 30.8912 158.389 31.1384 158.519 31.2884C158.65 31.4384 158.942 31.5134 159.392 31.5134C159.467 31.5134 159.536 31.5217 159.603 31.5356C159.669 31.5495 159.728 31.5828 159.778 31.6328C159.828 31.6856 159.869 31.7606 159.897 31.8634C159.925 31.9662 159.939 32.1078 159.939 32.2856C159.939 32.605 159.894 32.8245 159.806 32.9467C159.717 33.0689 159.578 33.13 159.392 33.13C159.119 33.13 158.858 33.0856 158.606 32.9967C158.353 32.9078 158.142 32.7133 157.972 32.4134C157.858 32.5717 157.725 32.7022 157.564 32.7995C157.406 32.8967 157.236 32.9717 157.058 33.0161C156.881 33.0633 156.695 33.0939 156.503 33.1078C156.311 33.1217 156.12 33.13 155.933 33.13H154.781C154.706 33.13 154.636 33.1217 154.57 33.1078C154.503 33.0939 154.445 33.0606 154.395 33.0106C154.342 32.9606 154.303 32.8828 154.275 32.78C154.247 32.6772 154.234 32.5356 154.234 32.3578C154.234 32.0384 154.278 31.8189 154.367 31.6967C154.456 31.5745 154.595 31.5134 154.781 31.5134H155.639ZM156.397 25.1025C156.397 24.8303 156.495 24.597 156.692 24.3998C156.889 24.2026 157.122 24.1054 157.395 24.1054C157.667 24.1054 157.9 24.2026 158.097 24.3998C158.294 24.597 158.392 24.8303 158.392 25.1025C158.392 25.3748 158.294 25.6081 158.097 25.8053C157.9 26.0025 157.667 26.0997 157.395 26.0997C157.122 26.0997 156.889 26.0025 156.692 25.8053C156.495 25.6081 156.397 25.3748 156.397 25.1025Z" fill="#1F2A37"/>
<path d="M160.122 31.5131C160.236 31.5131 160.372 31.4186 160.536 31.2325C160.7 31.0464 160.847 30.7742 160.978 30.4159C161.183 29.8826 161.405 29.4382 161.644 29.0882C161.883 28.7382 162.133 28.4549 162.397 28.2438C162.658 28.0327 162.922 27.8854 163.183 27.8021C163.444 27.7188 163.702 27.6743 163.955 27.6743C164.322 27.6743 164.663 27.7438 164.983 27.8854C165.302 28.0271 165.575 28.2215 165.805 28.4771C166.036 28.7326 166.216 29.0354 166.347 29.3909C166.477 29.7465 166.544 30.1353 166.544 30.5576C166.544 31.402 166.338 32.0686 165.925 32.5603C165.511 33.0519 164.883 33.2991 164.041 33.2991C163.666 33.2991 163.286 33.2436 162.902 33.1297C162.519 33.0158 162.119 32.8241 161.708 32.5519C161.464 32.8241 161.216 32.988 160.964 33.0436C160.711 33.0991 160.433 33.1269 160.133 33.1269H159.389C159.314 33.1269 159.244 33.1186 159.178 33.1047C159.111 33.0908 159.053 33.0575 159.003 33.0075C158.95 32.9575 158.911 32.8797 158.883 32.7769C158.855 32.6741 158.841 32.5325 158.841 32.3547C158.841 32.0353 158.886 31.8158 158.975 31.6936C159.064 31.5714 159.203 31.5103 159.389 31.5103H160.119L160.122 31.5131ZM164.761 30.5159C164.761 30.3742 164.744 30.2353 164.711 30.0937C164.677 29.952 164.627 29.8298 164.555 29.7215C164.483 29.6131 164.391 29.5243 164.275 29.4548C164.158 29.3854 164.013 29.3493 163.847 29.3493C163.602 29.3493 163.35 29.4798 163.089 29.7437C162.825 30.0076 162.619 30.4714 162.469 31.1353C162.702 31.277 162.927 31.3909 163.136 31.4797C163.347 31.5686 163.575 31.6131 163.819 31.6131C164.119 31.6131 164.35 31.5131 164.513 31.3103C164.677 31.1103 164.761 30.8437 164.761 30.5159Z" fill="#1F2A37"/>
<path d="M8.1319 40.2623L10.9707 44.826H10.9901V40.2623H12.3901V47.0676H10.8929L8.06245 42.5122H8.04301V47.0676H6.64307V40.2623H8.1319Z" fill="#1F2A37"/>
<path d="M13.5061 43.6547C13.5255 43.338 13.6033 43.0741 13.745 42.863C13.8839 42.6547 14.0616 42.4853 14.2783 42.3575C14.4949 42.2297 14.7366 42.1408 15.0033 42.0853C15.2699 42.0325 15.5421 42.0047 15.8227 42.0047C16.0699 42.0047 16.3226 42.0214 16.5754 42.0575C16.8282 42.0936 17.0615 42.1603 17.2698 42.2631C17.4782 42.3658 17.6504 42.5075 17.7837 42.6908C17.917 42.8741 17.9837 43.113 17.9837 43.4047V45.9685C17.9837 46.1907 17.9976 46.4046 18.0226 46.6073C18.0476 46.8101 18.092 46.9629 18.1559 47.0656H16.7837C16.7587 46.9906 16.7365 46.9129 16.7226 46.8323C16.7087 46.7518 16.6949 46.6712 16.6893 46.5879C16.4726 46.8101 16.2199 46.9684 15.9282 47.0601C15.6366 47.1518 15.3366 47.199 15.031 47.199C14.7949 47.199 14.5755 47.1684 14.3727 47.1073C14.17 47.0462 13.9922 46.9573 13.8394 46.8351C13.6866 46.7129 13.5672 46.5629 13.4811 46.3768C13.395 46.1935 13.3533 45.974 13.3533 45.7185C13.3533 45.4379 13.4005 45.2074 13.495 45.0268C13.5894 44.8463 13.7172 44.7019 13.8755 44.5935C14.0338 44.4852 14.2144 44.4046 14.4144 44.3491C14.6144 44.2963 14.8199 44.2519 15.0283 44.2213C15.2366 44.1908 15.4393 44.163 15.6282 44.1463C15.8171 44.1297 15.9893 44.0991 16.1393 44.0602C16.2893 44.0213 16.4088 43.9658 16.4976 43.8936C16.5865 43.8213 16.631 43.713 16.631 43.5741C16.631 43.4352 16.606 43.313 16.5587 43.2269C16.5115 43.1408 16.4476 43.0741 16.3671 43.0269C16.2865 42.9797 16.1949 42.9464 16.0893 42.9325C15.9838 42.9158 15.8727 42.9075 15.7504 42.9075C15.4893 42.9075 15.281 42.9658 15.1255 43.0797C14.9699 43.1936 14.8783 43.3852 14.8533 43.6519H13.5005L13.5061 43.6547ZM16.6337 44.6546C16.5754 44.7046 16.506 44.7463 16.4199 44.7741C16.3338 44.8018 16.2421 44.8268 16.1421 44.8463C16.0449 44.8657 15.9393 44.8824 15.8282 44.8935C15.7171 44.9074 15.6116 44.9213 15.5088 44.9407C15.4005 44.9602 15.3005 44.9852 15.2032 45.0157C15.1088 45.0491 15.0227 45.0907 14.9505 45.1435C14.8783 45.1991 14.8172 45.2685 14.7755 45.3518C14.731 45.4379 14.7088 45.5407 14.7088 45.6629C14.7088 45.7907 14.731 45.8935 14.7755 45.974C14.8199 46.0546 14.881 46.1157 14.956 46.1657C15.031 46.2129 15.1199 46.2462 15.2227 46.2657C15.3255 46.2851 15.4282 46.2935 15.5366 46.2935C15.8032 46.2935 16.0088 46.249 16.156 46.1601C16.3032 46.0712 16.4088 45.9657 16.481 45.8407C16.5504 45.7157 16.5949 45.5907 16.6087 45.4629C16.6254 45.3352 16.6337 45.2352 16.6337 45.1574V44.6519V44.6546Z" fill="#1F2A37"/>
<path d="M20.7501 42.1406H21.7417V43.0461H20.7501V45.4849C20.7501 45.7127 20.7889 45.8654 20.8639 45.9432C20.9389 46.021 21.0917 46.0571 21.3223 46.0571C21.475 46.0571 21.6139 46.0432 21.7417 46.0182V47.0765C21.6278 47.0959 21.5 47.1071 21.3611 47.1154C21.2223 47.1209 21.0834 47.1265 20.95 47.1265C20.7417 47.1265 20.5417 47.1126 20.3556 47.0821C20.1695 47.0543 20.0029 46.9959 19.8612 46.9098C19.7195 46.8237 19.6057 46.7043 19.5223 46.5515C19.439 46.3988 19.3973 46.1988 19.3973 45.9515V43.0461H18.5779V42.1406H19.3973V40.6629H20.7501V42.1406Z" fill="#1F2A37"/>
<path d="M23.7808 41.3761H22.4281V40.2623H23.7808V41.3761ZM22.4281 42.14H23.7808V47.0676H22.4281V42.14Z" fill="#1F2A37"/>
<path d="M24.695 44.6074C24.695 44.213 24.7561 43.8574 24.8756 43.5352C24.995 43.2158 25.1672 42.9408 25.3894 42.7158C25.6116 42.4908 25.8783 42.3158 26.1894 42.1908C26.5005 42.0658 26.8505 42.0047 27.2366 42.0047C27.6227 42.0047 27.9754 42.0658 28.2893 42.1908C28.6032 42.3158 28.8726 42.4908 29.0948 42.7158C29.317 42.9408 29.4893 43.2158 29.6087 43.5352C29.7281 43.8574 29.7892 44.213 29.7892 44.6074C29.7892 45.0018 29.7281 45.3574 29.6087 45.674C29.4893 45.9907 29.317 46.2629 29.0948 46.4879C28.8726 46.7129 28.6032 46.8879 28.2893 47.0129C27.9754 47.1379 27.6227 47.199 27.2366 47.199C26.8505 47.199 26.5005 47.1379 26.1894 47.0129C25.8783 46.8879 25.6116 46.7129 25.3894 46.4879C25.1672 46.2629 24.995 45.9907 24.8756 45.674C24.7561 45.3574 24.695 45.0018 24.695 44.6074ZM26.0477 44.6074C26.0477 44.8046 26.0672 44.9963 26.1061 45.1852C26.1449 45.374 26.2088 45.5407 26.3005 45.6907C26.3922 45.8407 26.5144 45.9601 26.6672 46.049C26.8199 46.1379 27.0116 46.1823 27.2393 46.1823C27.4671 46.1823 27.6615 46.1379 27.8171 46.049C27.9726 45.9601 28.0976 45.8407 28.1893 45.6907C28.281 45.5407 28.3476 45.374 28.3837 45.1852C28.4199 44.9963 28.4421 44.8046 28.4421 44.6074C28.4421 44.4102 28.4226 44.2158 28.3837 44.0269C28.3449 43.8352 28.281 43.6686 28.1893 43.5213C28.0976 43.3741 27.9726 43.2575 27.8171 43.163C27.6615 43.0714 27.4699 43.0241 27.2393 43.0241C27.0088 43.0241 26.8199 43.0714 26.6672 43.163C26.5144 43.2547 26.3922 43.3741 26.3005 43.5213C26.2088 43.6686 26.1422 43.8352 26.1061 44.0269C26.0672 44.2185 26.0477 44.4102 26.0477 44.6074Z" fill="#1F2A37"/>
<path d="M30.6692 42.1399H31.9553V42.826H31.983C32.1553 42.5454 32.3775 42.3399 32.6497 42.2065C32.9219 42.0732 33.2024 42.0065 33.4885 42.0065C33.8496 42.0065 34.1469 42.0565 34.3802 42.1538C34.6107 42.251 34.794 42.3899 34.9274 42.5621C35.0607 42.7371 35.1551 42.951 35.2079 43.2009C35.2607 43.4509 35.2885 43.7287 35.2885 44.0342V47.0647H33.9357V44.2815C33.9357 43.8759 33.8719 43.5704 33.7413 43.3704C33.6108 43.1704 33.3858 43.0704 33.0691 43.0704C32.6997 43.0704 32.433 43.1787 32.2691 43.3982C32.1025 43.6176 32.0219 43.9787 32.0219 44.4787V47.0619H30.6692V42.1343V42.1399Z" fill="#1F2A37"/>
<path d="M36.2645 43.6547C36.284 43.338 36.3617 43.0741 36.5034 42.863C36.6423 42.6547 36.82 42.4853 37.0367 42.3575C37.2534 42.2297 37.495 42.1408 37.7617 42.0853C38.0283 42.0325 38.3005 42.0047 38.5811 42.0047C38.8283 42.0047 39.0811 42.0214 39.3338 42.0575C39.5866 42.0936 39.8199 42.1603 40.0283 42.2631C40.2366 42.3658 40.4088 42.5075 40.5421 42.6908C40.6754 42.8741 40.7421 43.113 40.7421 43.4047V45.9685C40.7421 46.1907 40.756 46.4046 40.781 46.6073C40.806 46.8101 40.8504 46.9629 40.9143 47.0656H39.5422C39.5172 46.9906 39.4949 46.9129 39.4811 46.8323C39.4672 46.7518 39.4533 46.6712 39.4477 46.5879C39.2311 46.8101 38.9783 46.9684 38.6866 47.0601C38.395 47.1518 38.095 47.199 37.7894 47.199C37.5533 47.199 37.3339 47.1684 37.1311 47.1073C36.9284 47.0462 36.7506 46.9573 36.5978 46.8351C36.4451 46.7129 36.3256 46.5629 36.2395 46.3768C36.1534 46.1935 36.1117 45.974 36.1117 45.7185C36.1117 45.4379 36.159 45.2074 36.2534 45.0268C36.3478 44.8463 36.4756 44.7019 36.6339 44.5935C36.7923 44.4852 36.9728 44.4046 37.1728 44.3491C37.3728 44.2963 37.5784 44.2519 37.7867 44.2213C37.995 44.1908 38.1978 44.163 38.3867 44.1463C38.5755 44.1297 38.7477 44.0991 38.8977 44.0602C39.0477 44.0213 39.1672 43.9658 39.2561 43.8936C39.3449 43.8213 39.3894 43.713 39.3894 43.5741C39.3894 43.4352 39.3644 43.313 39.3172 43.2269C39.2699 43.1408 39.2061 43.0741 39.1255 43.0269C39.045 42.9797 38.9533 42.9464 38.8477 42.9325C38.7422 42.9158 38.6311 42.9075 38.5089 42.9075C38.2478 42.9075 38.0394 42.9658 37.8839 43.0797C37.7283 43.1936 37.6367 43.3852 37.6117 43.6519H36.259L36.2645 43.6547ZM39.3922 44.6546C39.3338 44.7046 39.2644 44.7463 39.1783 44.7741C39.0922 44.8018 39.0005 44.8268 38.9005 44.8463C38.8033 44.8657 38.6978 44.8824 38.5866 44.8935C38.4755 44.9074 38.37 44.9213 38.2672 44.9407C38.1589 44.9602 38.0589 44.9852 37.9617 45.0157C37.8672 45.0491 37.7811 45.0907 37.7089 45.1435C37.6367 45.1991 37.5756 45.2685 37.5339 45.3518C37.4895 45.4379 37.4672 45.5407 37.4672 45.6629C37.4672 45.7907 37.4895 45.8935 37.5339 45.974C37.5784 46.0546 37.6395 46.1157 37.7145 46.1657C37.7895 46.2129 37.8783 46.2462 37.9811 46.2657C38.0839 46.2851 38.1867 46.2935 38.295 46.2935C38.5616 46.2935 38.7672 46.249 38.9144 46.1601C39.0616 46.0712 39.1672 45.9657 39.2394 45.8407C39.3088 45.7157 39.3533 45.5907 39.3672 45.4629C39.3838 45.3352 39.3922 45.2352 39.3922 45.1574V44.6519V44.6546Z" fill="#1F2A37"/>
<path d="M41.8301 40.2623H43.1828V47.0676H41.8301V40.2623Z" fill="#1F2A37"/>
<path d="M47.0439 40.2633H49.9799C50.4187 40.2633 50.8271 40.3328 51.2048 40.4717C51.5826 40.6105 51.9104 40.8216 52.1853 41.0994C52.4603 41.3772 52.677 41.7272 52.8325 42.1466C52.9881 42.566 53.0659 43.0577 53.0659 43.6243C53.0659 44.1187 53.002 44.577 52.8742 44.9965C52.7464 45.4159 52.5548 45.777 52.2964 46.0825C52.0381 46.3881 51.7187 46.627 51.3354 46.802C50.9521 46.977 50.4993 47.0631 49.9771 47.0631H47.0411V40.2578L47.0439 40.2633ZM48.5383 45.8103H49.8715C50.0882 45.8103 50.2965 45.777 50.4993 45.7048C50.7021 45.6353 50.8826 45.5187 51.0437 45.3576C51.202 45.1965 51.3298 44.9854 51.4243 44.7243C51.5187 44.4632 51.5659 44.1465 51.5659 43.7715C51.5659 43.4271 51.5326 43.1188 51.4659 42.841C51.3993 42.5632 51.2909 42.3271 51.1382 42.1299C50.9854 41.9327 50.7826 41.7827 50.5326 41.6772C50.2826 41.5716 49.9715 41.5188 49.6049 41.5188H48.5383V45.8103Z" fill="#1F2A37"/>
<path d="M53.9041 43.6547C53.9236 43.338 54.0013 43.0741 54.143 42.863C54.2819 42.6547 54.4597 42.4853 54.6763 42.3575C54.893 42.2297 55.1346 42.1408 55.4013 42.0853C55.6679 42.0325 55.9402 42.0047 56.2207 42.0047C56.4679 42.0047 56.7179 42.0214 56.9735 42.0575C57.229 42.0936 57.4595 42.1603 57.6679 42.2631C57.8762 42.3658 58.0484 42.5075 58.1817 42.6908C58.3151 42.8741 58.3817 43.113 58.3817 43.4047V45.9685C58.3817 46.1907 58.3928 46.4046 58.4206 46.6073C58.4456 46.8101 58.4901 46.9629 58.5539 47.0656H57.1818C57.1568 46.9906 57.1346 46.9129 57.1207 46.8323C57.104 46.7518 57.0929 46.6712 57.0873 46.5879C56.8707 46.8101 56.6179 46.9684 56.3235 47.0601C56.029 47.1518 55.7318 47.199 55.4291 47.199C55.193 47.199 54.9735 47.1684 54.7708 47.1073C54.568 47.0462 54.3902 46.9573 54.2374 46.8351C54.0847 46.7129 53.9652 46.5629 53.8791 46.3768C53.793 46.1935 53.7514 45.974 53.7514 45.7185C53.7514 45.4379 53.7986 45.2074 53.893 45.0268C53.9875 44.8463 54.1152 44.7019 54.2736 44.5935C54.4319 44.4852 54.6124 44.4046 54.8124 44.3491C55.0124 44.2963 55.218 44.2519 55.4263 44.2213C55.6346 44.1908 55.8346 44.163 56.0263 44.1463C56.2179 44.1297 56.3874 44.0991 56.5374 44.0602C56.6874 44.0213 56.8068 43.9658 56.8957 43.8936C56.9846 43.8213 57.029 43.713 57.029 43.5741C57.029 43.4352 57.004 43.313 56.9568 43.2269C56.9096 43.1408 56.8457 43.0741 56.7651 43.0269C56.6846 42.9797 56.5929 42.9464 56.4874 42.9325C56.3818 42.9158 56.2707 42.9075 56.1485 42.9075C55.8874 42.9075 55.6791 42.9658 55.5235 43.0797C55.368 43.1936 55.2763 43.3852 55.2513 43.6519H53.8986L53.9041 43.6547ZM57.029 44.6546C56.9707 44.7046 56.9012 44.7463 56.8151 44.7741C56.729 44.8018 56.6374 44.8268 56.5401 44.8463C56.4401 44.8657 56.3374 44.8824 56.2263 44.8935C56.1152 44.9074 56.0096 44.9213 55.9068 44.9407C55.7985 44.9602 55.6985 44.9852 55.6013 45.0157C55.5068 45.0491 55.4207 45.0907 55.3485 45.1435C55.2763 45.1991 55.218 45.2685 55.1735 45.3518C55.1291 45.4379 55.1069 45.5407 55.1069 45.6629C55.1069 45.7907 55.1291 45.8935 55.1735 45.974C55.218 46.0546 55.2791 46.1157 55.3541 46.1657C55.4291 46.2129 55.518 46.2462 55.6207 46.2657C55.7235 46.2851 55.8263 46.2935 55.9346 46.2935C56.2013 46.2935 56.4068 46.249 56.554 46.1601C56.7012 46.0712 56.8096 45.9657 56.879 45.8407C56.9485 45.7157 56.9929 45.5907 57.0068 45.4629C57.0234 45.3352 57.0318 45.2352 57.0318 45.1574V44.6519L57.029 44.6546Z" fill="#1F2A37"/>
<path d="M61.1481 42.1406H62.1397V43.0461H61.1481V45.4849C61.1481 45.7127 61.187 45.8654 61.262 45.9432C61.337 46.021 61.4898 46.0571 61.7203 46.0571C61.8731 46.0571 62.012 46.0432 62.1397 46.0182V47.0765C62.0258 47.0959 61.8981 47.1071 61.7592 47.1154C61.6203 47.1209 61.4814 47.1265 61.3481 47.1265C61.1398 47.1265 60.9398 47.1126 60.7537 47.0821C60.5676 47.0543 60.4009 46.9959 60.2593 46.9098C60.1176 46.8237 60.0037 46.7043 59.9204 46.5515C59.8371 46.3988 59.7954 46.1988 59.7954 45.9515V43.0461H58.976V42.1406H59.7954V40.6629H61.1481V42.1406Z" fill="#1F2A37"/>
<path d="M62.7303 43.6547C62.7497 43.338 62.8275 43.0741 62.9691 42.863C63.108 42.6547 63.2858 42.4853 63.5025 42.3575C63.7191 42.2297 63.9608 42.1408 64.2274 42.0853C64.4941 42.0325 64.7663 42.0047 65.0468 42.0047C65.294 42.0047 65.544 42.0214 65.7996 42.0575C66.0551 42.0936 66.2857 42.1603 66.494 42.2631C66.7023 42.3658 66.8745 42.5075 67.0079 42.6908C67.1412 42.8741 67.2079 43.113 67.2079 43.4047V45.9685C67.2079 46.1907 67.219 46.4046 67.2468 46.6073C67.2718 46.8101 67.3162 46.9629 67.3801 47.0656H66.0079C65.9829 46.9906 65.9607 46.9129 65.9468 46.8323C65.9301 46.7518 65.919 46.6712 65.9135 46.5879C65.6968 46.8101 65.444 46.9684 65.1496 47.0601C64.8552 47.1518 64.558 47.199 64.2552 47.199C64.0191 47.199 63.7997 47.1684 63.5969 47.1073C63.3941 47.0462 63.2164 46.9573 63.0636 46.8351C62.9108 46.7129 62.7914 46.5629 62.7053 46.3768C62.6192 46.1935 62.5775 45.974 62.5775 45.7185C62.5775 45.4379 62.6247 45.2074 62.7192 45.0268C62.8136 44.8463 62.9414 44.7019 63.0997 44.5935C63.258 44.4852 63.4386 44.4046 63.6386 44.3491C63.8386 44.2963 64.0441 44.2519 64.2524 44.2213C64.4608 44.1908 64.6607 44.163 64.8524 44.1463C65.0441 44.1297 65.2135 44.0991 65.3635 44.0602C65.5135 44.0213 65.6329 43.9658 65.7218 43.8936C65.8107 43.8213 65.8551 43.713 65.8551 43.5741C65.8551 43.4352 65.8301 43.313 65.7829 43.2269C65.7357 43.1408 65.6718 43.0741 65.5913 43.0269C65.5107 42.9797 65.4191 42.9464 65.3135 42.9325C65.2079 42.9158 65.0968 42.9075 64.9746 42.9075C64.7135 42.9075 64.5052 42.9658 64.3496 43.0797C64.1941 43.1936 64.1024 43.3852 64.0774 43.6519H62.7247L62.7303 43.6547ZM65.8551 44.6546C65.7968 44.7046 65.7274 44.7463 65.6413 44.7741C65.5552 44.8018 65.4635 44.8268 65.3663 44.8463C65.2663 44.8657 65.1635 44.8824 65.0524 44.8935C64.9413 44.9074 64.8357 44.9213 64.733 44.9407C64.6246 44.9602 64.5246 44.9852 64.4274 45.0157C64.333 45.0491 64.2469 45.0907 64.1747 45.1435C64.1024 45.1991 64.0441 45.2685 63.9997 45.3518C63.9552 45.4379 63.933 45.5407 63.933 45.6629C63.933 45.7907 63.9552 45.8935 63.9997 45.974C64.0441 46.0546 64.1052 46.1157 64.1802 46.1657C64.2552 46.2129 64.3441 46.2462 64.4469 46.2657C64.5496 46.2851 64.6524 46.2935 64.7607 46.2935C65.0274 46.2935 65.2329 46.249 65.3802 46.1601C65.5274 46.0712 65.6357 45.9657 65.7051 45.8407C65.7746 45.7157 65.819 45.5907 65.8329 45.4629C65.8496 45.3352 65.8579 45.2352 65.8579 45.1574V44.6519L65.8551 44.6546Z" fill="#1F2A37"/>
<path d="M75.968 46.2956C75.7014 46.64 75.4069 46.8789 75.0819 47.0206C74.7569 47.1595 74.432 47.2289 74.1014 47.2289C73.5737 47.2289 73.1042 47.1372 72.6904 46.9511C72.2765 46.7678 71.9265 46.515 71.6432 46.1984C71.3599 45.8817 71.1376 45.5067 70.9849 45.0734C70.8321 44.6401 70.7571 44.1818 70.7571 43.6929C70.7571 43.2041 70.8321 42.7208 70.9849 42.2819C71.1376 41.843 71.3571 41.4625 71.6432 41.1375C71.9293 40.8125 72.2793 40.5597 72.6904 40.3764C73.1042 40.1931 73.5737 40.0986 74.1014 40.0986C74.4514 40.0986 74.7903 40.1514 75.1153 40.257C75.443 40.3625 75.7375 40.5153 75.9958 40.7181C76.2569 40.9208 76.4735 41.1736 76.6485 41.4708C76.8235 41.7708 76.9291 42.1124 76.968 42.5013H75.5375C75.4486 42.1208 75.2764 41.8347 75.018 41.643C74.7597 41.4514 74.4542 41.3569 74.0986 41.3569C73.7625 41.3569 73.4764 41.4236 73.2403 41.5514C73.0042 41.6819 72.8154 41.8569 72.6681 42.0763C72.5209 42.2958 72.4154 42.5458 72.3487 42.8235C72.282 43.1013 72.2487 43.3929 72.2487 43.6902C72.2487 43.9874 72.282 44.254 72.3487 44.5235C72.4154 44.7929 72.5209 45.0373 72.6681 45.2512C72.8154 45.4679 73.0042 45.6401 73.2403 45.7706C73.4764 45.9012 73.7625 45.9651 74.0986 45.9651C74.5875 45.9651 74.9681 45.8401 75.243 45.5901C75.5153 45.3401 75.6736 44.9762 75.718 44.4985H74.2125V43.3846H77.0707V47.0622H76.118L75.9652 46.2901L75.968 46.2956Z" fill="#1F2A37"/>
<path d="M77.9873 44.6074C77.9873 44.213 78.0484 43.8574 78.1678 43.5352C78.2873 43.2158 78.4595 42.9408 78.6817 42.7158C78.9039 42.4908 79.1706 42.3158 79.4817 42.1908C79.7928 42.0658 80.1428 42.0047 80.5289 42.0047C80.9149 42.0047 81.2677 42.0658 81.5816 42.1908C81.8955 42.3158 82.1649 42.4908 82.3871 42.7158C82.6093 42.9408 82.7815 43.2158 82.901 43.5352C83.0204 43.8574 83.0815 44.213 83.0815 44.6074C83.0815 45.0018 83.0204 45.3574 82.901 45.674C82.7788 45.9907 82.6093 46.2629 82.3871 46.4879C82.1649 46.7129 81.8955 46.8879 81.5816 47.0129C81.2677 47.1379 80.9149 47.199 80.5289 47.199C80.1428 47.199 79.7928 47.1379 79.4817 47.0129C79.1706 46.8879 78.9039 46.7129 78.6817 46.4879C78.4595 46.2629 78.2873 45.9907 78.1678 45.674C78.0456 45.3574 77.9873 45.0018 77.9873 44.6074ZM79.34 44.6074C79.34 44.8046 79.3595 44.9963 79.3983 45.1852C79.4372 45.3713 79.5011 45.5407 79.5928 45.6907C79.6844 45.8407 79.8067 45.9601 79.9594 46.049C80.1122 46.1379 80.3011 46.1823 80.5316 46.1823C80.7622 46.1823 80.9511 46.1379 81.1094 46.049C81.2677 45.9601 81.3899 45.8407 81.4816 45.6907C81.5733 45.5407 81.6399 45.374 81.676 45.1852C81.7149 44.9991 81.7344 44.8046 81.7344 44.6074C81.7344 44.4102 81.7149 44.2158 81.676 44.0269C81.6371 43.8352 81.5733 43.6686 81.4816 43.5213C81.3899 43.3741 81.2649 43.2575 81.1094 43.163C80.9538 43.0714 80.7622 43.0241 80.5316 43.0241C80.3011 43.0241 80.1122 43.0714 79.9594 43.163C79.8067 43.2547 79.6844 43.3741 79.5928 43.5213C79.5011 43.6686 79.4345 43.8352 79.3983 44.0269C79.3595 44.2185 79.34 44.4102 79.34 44.6074Z" fill="#1F2A37"/>
<path d="M85.181 47.068L83.4949 42.1404H84.9143L85.9531 45.5041H85.9726L87.0114 42.1404H88.3558L86.6892 47.068H85.181Z" fill="#1F2A37"/>
<path d="M90.0334 44.9324C90.0528 45.3657 90.1639 45.6796 90.3667 45.8796C90.5695 46.0796 90.8611 46.1796 91.2444 46.1796C91.5167 46.1796 91.7528 46.1101 91.95 45.974C92.1472 45.8379 92.2666 45.6935 92.3111 45.5407H93.5027C93.311 46.1268 93.0194 46.549 92.6249 46.8073C92.2305 47.0684 91.7555 47.199 91.1944 47.199C90.8056 47.199 90.4584 47.1351 90.1473 47.0073C89.8362 46.8795 89.5723 46.7018 89.3556 46.474C89.139 46.2462 88.9723 45.9712 88.8556 45.6546C88.739 45.3379 88.6806 44.988 88.6806 44.6074C88.6806 44.2269 88.7418 43.8963 88.8612 43.5769C88.9806 43.2602 89.1528 42.9853 89.3751 42.7519C89.5973 42.5214 89.8612 42.3381 90.1695 42.2047C90.4778 42.0714 90.8194 42.0047 91.1944 42.0047C91.6139 42.0047 91.9777 42.0853 92.2916 42.2492C92.6055 42.4131 92.8583 42.6297 93.0583 42.9019C93.2582 43.1741 93.4027 43.4852 93.4916 43.8352C93.5804 44.1852 93.611 44.5491 93.586 44.9324H90.0306H90.0334ZM92.2333 44.0741C92.1694 43.7297 92.0583 43.4713 91.8944 43.2936C91.7333 43.1158 91.4861 43.0269 91.1556 43.0269C90.9389 43.0269 90.7611 43.063 90.6167 43.1352C90.475 43.2075 90.3584 43.2991 90.275 43.4075C90.1889 43.5158 90.1278 43.6297 90.0945 43.7519C90.0611 43.8741 90.0389 43.9797 90.0334 44.0769H92.2333V44.0741Z" fill="#1F2A37"/>
<path d="M94.389 42.1399H95.6751V43.0537H95.6945C95.7584 42.901 95.8445 42.7593 95.9528 42.6287C96.0612 42.4982 96.1834 42.3871 96.3251 42.2954C96.4639 42.2038 96.6167 42.1315 96.7778 42.0815C96.9389 42.0315 97.1028 42.0065 97.2695 42.0065C97.3722 42.0065 97.4695 42.0232 97.5639 42.0538V43.312C97.5 43.3009 97.425 43.2898 97.3361 43.2787C97.2473 43.2704 97.1611 43.2648 97.0778 43.2648C96.8306 43.2648 96.6195 43.3065 96.4501 43.3898C96.2778 43.4732 96.139 43.5843 96.0362 43.7287C95.9306 43.8704 95.8556 44.0398 95.8112 44.2342C95.7667 44.4287 95.7445 44.6342 95.7445 44.8481V47.0675H94.3918V42.1399H94.389Z" fill="#1F2A37"/>
<path d="M98.2663 42.1399H99.5524V42.826H99.5802C99.7524 42.5454 99.9746 42.3399 100.247 42.2065C100.519 42.0732 100.8 42.0065 101.086 42.0065C101.447 42.0065 101.744 42.0565 101.977 42.1538C102.211 42.251 102.391 42.3899 102.524 42.5621C102.658 42.7371 102.752 42.951 102.805 43.2009C102.858 43.4509 102.886 43.7287 102.886 44.0342V47.0647H101.533V44.2815C101.533 43.8759 101.466 43.5704 101.338 43.3704C101.208 43.1704 100.983 43.0704 100.666 43.0704C100.297 43.0704 100.03 43.1787 99.8663 43.3982C99.7024 43.6176 99.619 43.9787 99.619 44.4787V47.0619H98.2663V42.1343V42.1399Z" fill="#1F2A37"/>
<path d="M103.861 43.6547C103.88 43.338 103.958 43.0741 104.1 42.863C104.238 42.6547 104.416 42.4853 104.633 42.3575C104.85 42.2297 105.091 42.1408 105.358 42.0853C105.625 42.0325 105.897 42.0047 106.177 42.0047C106.425 42.0047 106.674 42.0214 106.93 42.0575C107.186 42.0936 107.416 42.1603 107.624 42.2631C107.833 42.3658 108.005 42.5075 108.138 42.6908C108.272 42.8741 108.338 43.113 108.338 43.4047V45.9685C108.338 46.1907 108.349 46.4046 108.377 46.6073C108.402 46.8101 108.447 46.9629 108.511 47.0656H107.138C107.113 46.9906 107.091 46.9129 107.077 46.8323C107.061 46.7518 107.049 46.6712 107.044 46.5879C106.827 46.8101 106.574 46.9684 106.28 47.0601C105.986 47.1518 105.688 47.199 105.386 47.199C105.15 47.199 104.93 47.1684 104.727 47.1073C104.525 47.0462 104.347 46.9573 104.194 46.8351C104.041 46.7129 103.922 46.5629 103.836 46.3768C103.75 46.1935 103.708 45.974 103.708 45.7185C103.708 45.4379 103.755 45.2074 103.85 45.0268C103.944 44.8463 104.072 44.7019 104.23 44.5935C104.388 44.4852 104.569 44.4046 104.769 44.3491C104.969 44.2963 105.175 44.2519 105.383 44.2213C105.591 44.1908 105.791 44.163 105.983 44.1463C106.175 44.1297 106.344 44.0991 106.494 44.0602C106.644 44.0213 106.763 43.9658 106.852 43.8936C106.941 43.8213 106.986 43.713 106.986 43.5741C106.986 43.4352 106.961 43.313 106.913 43.2269C106.866 43.1408 106.802 43.0741 106.722 43.0269C106.641 42.9797 106.55 42.9464 106.444 42.9325C106.338 42.9158 106.227 42.9075 106.105 42.9075C105.844 42.9075 105.636 42.9658 105.48 43.0797C105.325 43.1936 105.233 43.3852 105.208 43.6519H103.855L103.861 43.6547ZM106.986 44.6546C106.927 44.7046 106.858 44.7463 106.772 44.7741C106.686 44.8018 106.594 44.8268 106.497 44.8463C106.397 44.8657 106.294 44.8824 106.183 44.8935C106.072 44.9074 105.966 44.9213 105.863 44.9407C105.755 44.9602 105.655 44.9852 105.558 45.0157C105.463 45.0491 105.377 45.0907 105.305 45.1435C105.233 45.1991 105.175 45.2685 105.13 45.3518C105.086 45.4379 105.063 45.5407 105.063 45.6629C105.063 45.7907 105.086 45.8935 105.13 45.974C105.175 46.0546 105.236 46.1157 105.311 46.1657C105.386 46.2129 105.475 46.2462 105.577 46.2657C105.68 46.2851 105.783 46.2935 105.891 46.2935C106.158 46.2935 106.363 46.249 106.511 46.1601C106.658 46.0712 106.766 45.9657 106.836 45.8407C106.905 45.7157 106.949 45.5907 106.963 45.4629C106.98 45.3352 106.988 45.2352 106.988 45.1574V44.6519L106.986 44.6546Z" fill="#1F2A37"/>
<path d="M109.389 42.1399H110.675V42.826H110.703C110.875 42.5454 111.097 42.3399 111.37 42.2065C111.642 42.0732 111.922 42.0065 112.209 42.0065C112.57 42.0065 112.867 42.0565 113.1 42.1538C113.333 42.251 113.514 42.3899 113.647 42.5621C113.781 42.7371 113.875 42.951 113.928 43.2009C113.981 43.4509 114.008 43.7287 114.008 44.0342V47.0647H112.656V44.2815C112.656 43.8759 112.589 43.5704 112.461 43.3704C112.331 43.1704 112.106 43.0704 111.789 43.0704C111.42 43.0704 111.153 43.1787 110.989 43.3982C110.825 43.6176 110.742 43.9787 110.742 44.4787V47.0619H109.389V42.1343V42.1399Z" fill="#1F2A37"/>
<path d="M118.393 43.8741C118.304 43.3075 117.971 43.0269 117.393 43.0269C117.177 43.0269 116.996 43.0769 116.849 43.1741C116.702 43.2714 116.582 43.3991 116.491 43.5547C116.399 43.7102 116.332 43.8824 116.296 44.0741C116.257 44.2658 116.238 44.4491 116.238 44.6269C116.238 44.8046 116.257 44.9852 116.296 45.1713C116.335 45.3546 116.396 45.5213 116.482 45.6713C116.568 45.8213 116.685 45.9435 116.829 46.0379C116.977 46.1323 117.154 46.1796 117.363 46.1796C117.679 46.1796 117.929 46.0879 118.107 45.9074C118.285 45.7268 118.396 45.4824 118.44 45.1796H119.746C119.657 45.8351 119.402 46.3351 118.982 46.6795C118.563 47.0268 118.027 47.199 117.371 47.199C116.996 47.199 116.657 47.1379 116.352 47.0129C116.046 46.8879 115.785 46.7129 115.571 46.4879C115.354 46.2629 115.188 45.9962 115.066 45.6879C114.943 45.3796 114.885 45.0407 114.885 44.6741C114.885 44.3074 114.941 43.938 115.052 43.6102C115.163 43.2825 115.327 42.9991 115.543 42.763C115.76 42.5242 116.024 42.3381 116.335 42.2047C116.646 42.0714 117.002 42.0047 117.402 42.0047C117.693 42.0047 117.974 42.0436 118.246 42.1186C118.515 42.1936 118.757 42.3103 118.965 42.4658C119.174 42.6214 119.349 42.8158 119.485 43.0519C119.621 43.288 119.699 43.5602 119.718 43.8713H118.393V43.8741Z" fill="#1F2A37"/>
<path d="M121.623 44.9324C121.643 45.3657 121.754 45.6796 121.957 45.8796C122.159 46.0796 122.451 46.1796 122.834 46.1796C123.107 46.1796 123.343 46.1101 123.54 45.974C123.737 45.8379 123.857 45.6935 123.901 45.5407H125.093C124.901 46.1268 124.609 46.549 124.215 46.8073C123.82 47.0684 123.346 47.199 122.784 47.199C122.396 47.199 122.048 47.1351 121.737 47.0073C121.426 46.8795 121.162 46.7018 120.946 46.474C120.729 46.2462 120.562 45.9712 120.446 45.6546C120.329 45.3379 120.271 44.988 120.271 44.6074C120.271 44.2269 120.332 43.8963 120.451 43.5769C120.571 43.2602 120.743 42.9853 120.965 42.7519C121.187 42.5214 121.451 42.3381 121.759 42.2047C122.068 42.0714 122.409 42.0047 122.784 42.0047C123.204 42.0047 123.568 42.0853 123.882 42.2492C124.195 42.4131 124.448 42.6297 124.648 42.9019C124.848 43.1741 124.993 43.4852 125.082 43.8352C125.17 44.1852 125.201 44.5491 125.176 44.9324H121.621H121.623ZM123.826 44.0741C123.762 43.7297 123.651 43.4713 123.487 43.2936C123.326 43.1158 123.079 43.0269 122.748 43.0269C122.532 43.0269 122.354 43.063 122.209 43.1352C122.068 43.2075 121.951 43.2991 121.868 43.4075C121.782 43.5158 121.721 43.6297 121.687 43.7519C121.654 43.8741 121.632 43.9797 121.626 44.0769H123.826V44.0741Z" fill="#1F2A37"/>
<path d="M128.771 40.2623H131.841C132.266 40.2623 132.629 40.3234 132.927 40.4484C133.224 40.5734 133.468 40.7373 133.654 40.94C133.84 41.1428 133.979 41.3761 134.063 41.64C134.149 41.9039 134.19 42.1733 134.19 42.4455C134.19 42.7178 134.149 42.9955 134.063 43.2566C133.977 43.5177 133.84 43.7483 133.654 43.951C133.468 44.1538 133.224 44.3177 132.927 44.4427C132.627 44.5677 132.266 44.6288 131.841 44.6288H130.268V47.0676H128.771V40.2623ZM130.268 43.4649H131.432C131.604 43.4649 131.768 43.4511 131.927 43.4261C132.085 43.4011 132.227 43.3511 132.346 43.2788C132.466 43.2066 132.563 43.1038 132.638 42.9705C132.71 42.8372 132.746 42.6622 132.746 42.4455C132.746 42.2289 132.71 42.0539 132.638 41.9206C132.566 41.7872 132.468 41.6845 132.346 41.6095C132.227 41.5372 132.085 41.4872 131.927 41.4622C131.768 41.4372 131.602 41.4234 131.432 41.4234H130.268V43.4649Z" fill="#1F2A37"/>
<path d="M135.024 40.2623H136.377V47.0676H135.024V40.2623Z" fill="#1F2A37"/>
<path d="M137.388 43.6547C137.407 43.338 137.485 43.0741 137.626 42.863C137.765 42.6547 137.943 42.4853 138.16 42.3575C138.376 42.2297 138.618 42.1408 138.885 42.0853C139.151 42.0325 139.424 42.0047 139.704 42.0047C139.951 42.0047 140.201 42.0214 140.457 42.0575C140.712 42.0936 140.943 42.1603 141.151 42.2631C141.36 42.3658 141.532 42.5075 141.665 42.6908C141.798 42.8741 141.865 43.113 141.865 43.4047V45.9685C141.865 46.1907 141.876 46.4046 141.904 46.6073C141.929 46.8101 141.973 46.9629 142.037 47.0656H140.665C140.64 46.9906 140.618 46.9129 140.604 46.8323C140.587 46.7518 140.576 46.6712 140.571 46.5879C140.354 46.8101 140.101 46.9684 139.807 47.0601C139.512 47.1518 139.215 47.199 138.913 47.199C138.676 47.199 138.457 47.1684 138.254 47.1073C138.051 47.0462 137.874 46.9573 137.721 46.8351C137.568 46.7129 137.449 46.5629 137.363 46.3768C137.276 46.1935 137.235 45.974 137.235 45.7185C137.235 45.4379 137.282 45.2074 137.376 45.0268C137.471 44.8463 137.599 44.7019 137.757 44.5935C137.915 44.4852 138.096 44.4046 138.296 44.3491C138.496 44.2963 138.701 44.2519 138.91 44.2213C139.118 44.1908 139.318 44.163 139.51 44.1463C139.701 44.1297 139.871 44.0991 140.021 44.0602C140.171 44.0213 140.29 43.9658 140.379 43.8936C140.468 43.8213 140.512 43.713 140.512 43.5741C140.512 43.4352 140.487 43.313 140.44 43.2269C140.393 43.1408 140.329 43.0741 140.249 43.0269C140.168 42.9797 140.076 42.9464 139.971 42.9325C139.865 42.9158 139.754 42.9075 139.632 42.9075C139.371 42.9075 139.162 42.9658 139.007 43.0797C138.851 43.1936 138.76 43.3852 138.735 43.6519H137.382L137.388 43.6547ZM140.512 44.6546C140.454 44.7046 140.385 44.7463 140.299 44.7741C140.212 44.8018 140.121 44.8268 140.024 44.8463C139.924 44.8657 139.821 44.8824 139.71 44.8935C139.599 44.9074 139.493 44.9213 139.39 44.9407C139.282 44.9602 139.182 44.9852 139.085 45.0157C138.99 45.0491 138.904 45.0907 138.832 45.1435C138.76 45.1991 138.701 45.2685 138.657 45.3518C138.613 45.4379 138.59 45.5407 138.59 45.6629C138.59 45.7907 138.613 45.8935 138.657 45.974C138.701 46.0546 138.763 46.1157 138.838 46.1657C138.913 46.2129 139.001 46.2462 139.104 46.2657C139.207 46.2851 139.31 46.2935 139.418 46.2935C139.685 46.2935 139.89 46.249 140.037 46.1601C140.185 46.0712 140.293 45.9657 140.362 45.8407C140.432 45.7157 140.476 45.5907 140.49 45.4629C140.507 45.3352 140.515 45.2352 140.515 45.1574V44.6519L140.512 44.6546Z" fill="#1F2A37"/>
<path d="M144.629 42.1406H145.62V43.0461H144.629V45.4849C144.629 45.7127 144.668 45.8654 144.743 45.9432C144.818 46.021 144.97 46.0571 145.201 46.0571C145.354 46.0571 145.493 46.0432 145.62 46.0182V47.0765C145.507 47.0959 145.379 47.1071 145.24 47.1154C145.101 47.1209 144.962 47.1265 144.829 47.1265C144.62 47.1265 144.42 47.1126 144.234 47.0821C144.048 47.0543 143.882 46.9959 143.74 46.9098C143.598 46.8237 143.484 46.7043 143.401 46.5515C143.318 46.3988 143.276 46.1988 143.276 45.9515V43.0461H142.457V42.1406H143.276V40.6629H144.629V42.1406Z" fill="#1F2A37"/>
<path d="M145.753 43.0464V42.1408H146.565V41.7603C146.565 41.5436 146.598 41.3437 146.665 41.1603C146.731 40.977 146.834 40.8187 146.976 40.6853C147.117 40.552 147.287 40.4492 147.49 40.3742C147.692 40.302 147.934 40.2659 148.214 40.2659C148.334 40.2659 148.456 40.2715 148.576 40.2798C148.695 40.2881 148.814 40.2965 148.928 40.302V41.3214C148.764 41.302 148.598 41.2937 148.434 41.2937C148.251 41.2937 148.117 41.3353 148.04 41.4214C147.962 41.5075 147.92 41.6492 147.92 41.8492V42.1408H148.853V43.0464H147.92V47.0684H146.567V43.0464H145.753Z" fill="#1F2A37"/>
<path d="M149.29 44.6074C149.29 44.213 149.351 43.8574 149.47 43.5352C149.59 43.2158 149.762 42.9408 149.984 42.7158C150.207 42.4908 150.473 42.3158 150.784 42.1908C151.095 42.0658 151.445 42.0047 151.831 42.0047C152.218 42.0047 152.57 42.0658 152.884 42.1908C153.198 42.3158 153.468 42.4908 153.69 42.7158C153.912 42.9408 154.084 43.2158 154.204 43.5352C154.323 43.8574 154.384 44.213 154.384 44.6074C154.384 45.0018 154.323 45.3574 154.204 45.674C154.081 45.9907 153.912 46.2629 153.69 46.4879C153.468 46.7129 153.198 46.8879 152.884 47.0129C152.57 47.1379 152.218 47.199 151.831 47.199C151.445 47.199 151.095 47.1379 150.784 47.0129C150.473 46.8879 150.207 46.7129 149.984 46.4879C149.762 46.2629 149.59 45.9907 149.47 45.674C149.348 45.3574 149.29 45.0018 149.29 44.6074ZM150.643 44.6074C150.643 44.8046 150.662 44.9963 150.701 45.1852C150.74 45.3713 150.804 45.5407 150.895 45.6907C150.987 45.8407 151.109 45.9601 151.262 46.049C151.415 46.1379 151.604 46.1823 151.834 46.1823C152.065 46.1823 152.254 46.1379 152.412 46.049C152.57 45.9601 152.693 45.8407 152.784 45.6907C152.876 45.5407 152.943 45.374 152.979 45.1852C153.018 44.9991 153.037 44.8046 153.037 44.6074C153.037 44.4102 153.018 44.2158 152.979 44.0269C152.94 43.8352 152.876 43.6686 152.784 43.5213C152.693 43.3741 152.568 43.2575 152.412 43.163C152.256 43.0714 152.065 43.0241 151.834 43.0241C151.604 43.0241 151.415 43.0714 151.262 43.163C151.109 43.2547 150.987 43.3741 150.895 43.5213C150.804 43.6686 150.737 43.8352 150.701 44.0269C150.662 44.2185 150.643 44.4102 150.643 44.6074Z" fill="#1F2A37"/>
<path d="M155.264 42.1399H156.55V43.0537H156.57C156.634 42.901 156.72 42.7593 156.828 42.6287C156.936 42.4982 157.058 42.3871 157.2 42.2954C157.339 42.2038 157.492 42.1315 157.653 42.0815C157.814 42.0315 157.978 42.0065 158.145 42.0065C158.247 42.0065 158.345 42.0232 158.439 42.0538V43.312C158.375 43.3009 158.3 43.2898 158.211 43.2787C158.122 43.2704 158.036 43.2648 157.953 43.2648C157.706 43.2648 157.495 43.3065 157.325 43.3898C157.153 43.4732 157.014 43.5843 156.911 43.7287C156.806 43.8704 156.731 44.0398 156.686 44.2342C156.642 44.4287 156.62 44.6342 156.62 44.8481V47.0675H155.267V42.1399H155.264Z" fill="#1F2A37"/>
<path d="M159.011 42.1399H160.289V42.8065H160.308C160.486 42.5537 160.7 42.3565 160.953 42.2149C161.203 42.076 161.492 42.0065 161.817 42.0065C162.142 42.0065 162.411 42.0677 162.669 42.1926C162.928 42.3176 163.122 42.5287 163.256 42.826C163.403 42.6093 163.6 42.4204 163.85 42.2538C164.1 42.0899 164.397 42.0065 164.742 42.0065C165.003 42.0065 165.244 42.0399 165.467 42.101C165.689 42.1649 165.88 42.2649 166.039 42.4065C166.197 42.5454 166.322 42.7287 166.411 42.9537C166.5 43.1787 166.544 43.4509 166.544 43.7676V47.0647H165.192V44.2731C165.192 44.1092 165.186 43.9509 165.172 43.8065C165.158 43.6593 165.125 43.5343 165.067 43.4259C165.008 43.3176 164.925 43.2315 164.814 43.1676C164.703 43.1037 164.553 43.0732 164.361 43.0732C164.169 43.0732 164.017 43.1093 163.9 43.1815C163.783 43.2537 163.692 43.3509 163.622 43.4676C163.555 43.5843 163.511 43.7176 163.489 43.8676C163.467 44.0176 163.455 44.1676 163.455 44.3203V47.0647H162.103V44.3009C162.103 44.162 162.1 44.0176 162.094 43.8731C162.089 43.7259 162.061 43.5926 162.014 43.4732C161.967 43.3537 161.886 43.2565 161.775 43.1815C161.664 43.1093 161.5 43.0732 161.283 43.0732C161.214 43.0732 161.128 43.0871 161.025 43.1148C160.922 43.1426 160.822 43.1982 160.725 43.2759C160.628 43.3565 160.542 43.4704 160.472 43.6204C160.403 43.7704 160.367 43.9648 160.367 44.2065V47.0647H159.014V42.1371L159.011 42.1399Z" fill="#1F2A37"/>
<path d="M225.546 14.5075L216.555 9.31627L207.564 4.125L198.573 9.31627L189.582 14.5075L180.591 19.6988V30.0782L189.582 24.8901L198.573 19.6988L207.564 14.5075L216.555 19.6988L225.546 24.8901L234.537 30.0813V19.6956L225.546 14.5075Z" fill="#25935F"/>
<path d="M225.546 14.5068V24.8894L216.555 19.6981L225.546 14.5068Z" fill="url(#paint0_linear_30580_1805)"/>
<path d="M207.565 4.125L216.556 9.31627L207.565 14.5075V4.125Z" fill="url(#paint1_linear_30580_1805)"/>
<path d="M180.591 19.6982L189.582 24.8895L180.591 30.0776V19.6982Z" fill="url(#paint2_linear_30580_1805)"/>
<path d="M189.583 14.5068L198.574 19.6981L189.583 24.8894V14.5068Z" fill="url(#paint3_linear_30580_1805)"/>
<path d="M207.565 4.125V14.5075L198.574 9.31627L207.565 4.125Z" fill="url(#paint4_linear_30580_1805)"/>
<path d="M198.574 9.31738V19.6999L189.583 14.5086L198.574 9.31738Z" fill="url(#paint5_linear_30580_1805)"/>
<path d="M216.555 9.31738L225.546 14.5086L216.555 19.6999V9.31738Z" fill="url(#paint6_linear_30580_1805)"/>
<path d="M216.556 9.31738V19.6999L207.565 14.5086L216.556 9.31738Z" fill="url(#paint7_linear_30580_1805)"/>
<path d="M189.582 14.5078V24.8903L180.591 19.6991L189.582 14.5078Z" fill="url(#paint8_linear_30580_1805)"/>
<path d="M234.538 19.6953V30.081L225.547 24.8898L234.538 19.6953Z" fill="url(#paint9_linear_30580_1805)"/>
<path d="M225.547 14.5078V24.8903L234.538 19.6959L225.547 14.5078Z" fill="url(#paint10_linear_30580_1805)"/>
<path d="M198.574 9.31738L207.565 14.5086L198.574 19.6999V9.31738Z" fill="url(#paint11_linear_30580_1805)"/>
<path d="M208.463 16.3135L215.653 20.4659L208.463 24.6182V16.3135Z" fill="url(#paint12_linear_30580_1805)"/>
<path d="M217.452 21.502L224.641 25.6543L217.452 29.8067V21.502Z" fill="url(#paint13_linear_30580_1805)"/>
<path d="M224.641 26.6914V34.993L217.452 30.8438L224.641 26.6914Z" fill="url(#paint14_linear_30580_1805)"/>
<path d="M226.439 26.6895L233.629 30.845L226.439 34.9942V26.6895Z" fill="url(#paint15_linear_30580_1805)"/>
<path d="M233.629 31.8789V40.1837L226.439 36.0313L233.629 31.8789Z" fill="url(#paint16_linear_30580_1805)"/>
<path d="M215.653 21.5029V29.8045L208.463 25.6521L215.653 21.5029Z" fill="url(#paint17_linear_30580_1805)"/>
<path d="M209.181 28.3398L214.935 31.6598L209.181 34.9798V28.3398Z" fill="url(#paint18_linear_30580_1805)"/>
<path d="M214.935 46.5029V53.1461L209.181 49.8229L214.935 46.5029Z" fill="url(#paint19_linear_30580_1805)"/>
<path d="M206.667 16.3125V24.6173L199.474 20.4649L206.667 16.3125Z" fill="url(#paint20_linear_30580_1805)"/>
<path d="M199.474 21.502L206.667 25.6543L199.474 29.8067V21.502Z" fill="url(#paint21_linear_30580_1805)"/>
<path d="M205.947 30.0352V36.6783L200.194 33.3552L205.947 30.0352Z" fill="url(#paint22_linear_30580_1805)"/>
<path d="M200.194 37.1016L205.944 40.4247L200.194 43.7447V37.1016Z" fill="url(#paint23_linear_30580_1805)"/>
<path d="M197.678 21.502V29.8035L190.489 25.6543L197.678 21.502Z" fill="url(#paint24_linear_30580_1805)"/>
<path d="M190.485 26.6914L197.678 30.8438L190.485 34.993V26.6914Z" fill="url(#paint25_linear_30580_1805)"/>
<path d="M196.957 37.1025V43.7457L191.207 40.4257L196.957 37.1025Z" fill="url(#paint26_linear_30580_1805)"/>
<path d="M193.083 44.5879L198.834 47.9111L193.083 51.2311V44.5879Z" fill="url(#paint27_linear_30580_1805)"/>
<path d="M188.686 26.6914V34.993L181.497 30.8438L188.686 26.6914Z" fill="url(#paint28_linear_30580_1805)"/>
<path d="M181.497 31.8789L188.686 36.0313L181.497 40.1837V31.8789Z" fill="url(#paint29_linear_30580_1805)"/>
<path d="M186.088 40.4131V47.0531L180.337 43.7331L186.088 40.4131Z" fill="url(#paint30_linear_30580_1805)"/>
<path d="M182.214 47.4814L187.968 50.8014L182.214 54.1246V47.4814Z" fill="url(#paint31_linear_30580_1805)"/>
<path d="M232.91 47.4814V54.1246L227.16 50.8046L232.91 47.4814Z" fill="url(#paint32_linear_30580_1805)"/>
<path d="M223.924 42.71V49.35L218.173 46.03L223.924 42.71Z" fill="url(#paint33_linear_30580_1805)"/>
<path d="M227.158 40.4131L232.911 43.7363L227.158 47.0563V40.4131Z" fill="url(#paint34_linear_30580_1805)"/>
<path d="M218.169 37.1025L223.923 40.4257L218.169 43.7457V37.1025Z" fill="url(#paint35_linear_30580_1805)"/>
<defs>
<linearGradient id="paint0_linear_30580_1805" x1="209.156" y1="1.57633" x2="241.438" y2="43.7133" gradientUnits="userSpaceOnUse">
<stop stop-color="#25935F"/>
<stop offset="0.5" stop-color="#166A45"/>
<stop offset="0.99" stop-color="#1B8354"/>
</linearGradient>
<linearGradient id="paint1_linear_30580_1805" x1="205.999" y1="4.0011" x2="238.274" y2="46.1253" gradientUnits="userSpaceOnUse">
<stop stop-color="#25935F"/>
<stop offset="0.5" stop-color="#166A45"/>
<stop offset="0.99" stop-color="#1B8354"/>
</linearGradient>
<linearGradient id="paint2_linear_30580_1805" x1="181.484" y1="22.78" x2="213.756" y2="64.9074" gradientUnits="userSpaceOnUse">
<stop stop-color="#25935F"/>
<stop offset="0.5" stop-color="#166A45"/>
<stop offset="0.99" stop-color="#1B8354"/>
</linearGradient>
<linearGradient id="paint3_linear_30580_1805" x1="189.656" y1="16.5211" x2="221.934" y2="58.6517" gradientUnits="userSpaceOnUse">
<stop stop-color="#25935F"/>
<stop offset="0.5" stop-color="#166A45"/>
<stop offset="0.99" stop-color="#1B8354"/>
</linearGradient>
<linearGradient id="paint4_linear_30580_1805" x1="203.069" y1="4.82395" x2="203.069" y2="50.5033" gradientUnits="userSpaceOnUse">
<stop stop-color="#25935F"/>
<stop offset="0.5" stop-color="#166A45"/>
<stop offset="0.99" stop-color="#1B8354"/>
</linearGradient>
<linearGradient id="paint5_linear_30580_1805" x1="194.078" y1="4.82506" x2="194.078" y2="50.5107" gradientUnits="userSpaceOnUse">
<stop stop-color="#25935F"/>
<stop offset="0.5" stop-color="#166A45"/>
<stop offset="0.99" stop-color="#1B8354"/>
</linearGradient>
<linearGradient id="paint6_linear_30580_1805" x1="221.051" y1="4.82506" x2="221.051" y2="50.5044" gradientUnits="userSpaceOnUse">
<stop stop-color="#25935F"/>
<stop offset="0.5" stop-color="#166A45"/>
<stop offset="0.99" stop-color="#1B8354"/>
</linearGradient>
<linearGradient id="paint7_linear_30580_1805" x1="212.06" y1="4.82189" x2="212.06" y2="50.5107" gradientUnits="userSpaceOnUse">
<stop stop-color="#25935F"/>
<stop offset="0.5" stop-color="#166A45"/>
<stop offset="0.99" stop-color="#1B8354"/>
</linearGradient>
<linearGradient id="paint8_linear_30580_1805" x1="185.087" y1="4.82423" x2="185.087" y2="50.5067" gradientUnits="userSpaceOnUse">
<stop stop-color="#25935F"/>
<stop offset="0.5" stop-color="#166A45"/>
<stop offset="0.99" stop-color="#1B8354"/>
</linearGradient>
<linearGradient id="paint9_linear_30580_1805" x1="230.043" y1="4.82046" x2="230.043" y2="50.5061" gradientUnits="userSpaceOnUse">
<stop stop-color="#25935F"/>
<stop offset="0.5" stop-color="#166A45"/>
<stop offset="0.99" stop-color="#1B8354"/>
</linearGradient>
<linearGradient id="paint10_linear_30580_1805" x1="230.043" y1="4.82423" x2="230.043" y2="50.5067" gradientUnits="userSpaceOnUse">
<stop stop-color="#25935F"/>
<stop offset="0.5" stop-color="#166A45"/>
<stop offset="0.99" stop-color="#1B8354"/>
</linearGradient>
<linearGradient id="paint11_linear_30580_1805" x1="203.069" y1="4.82506" x2="203.069" y2="50.5044" gradientUnits="userSpaceOnUse">
<stop stop-color="#25935F"/>
<stop offset="0.5" stop-color="#166A45"/>
<stop offset="0.99" stop-color="#1B8354"/>
</linearGradient>
<linearGradient id="paint12_linear_30580_1805" x1="212.06" y1="4.82534" x2="212.06" y2="50.5047" gradientUnits="userSpaceOnUse">
<stop stop-color="#25935F"/>
<stop offset="0.5" stop-color="#166A45"/>
<stop offset="0.99" stop-color="#1B8354"/>
</linearGradient>
<linearGradient id="paint13_linear_30580_1805" x1="221.045" y1="4.82572" x2="221.045" y2="50.5051" gradientUnits="userSpaceOnUse">
<stop stop-color="#25935F"/>
<stop offset="0.5" stop-color="#166A45"/>
<stop offset="0.99" stop-color="#1B8354"/>
</linearGradient>
<linearGradient id="paint14_linear_30580_1805" x1="221.045" y1="4.82391" x2="221.045" y2="50.5032" gradientUnits="userSpaceOnUse">
<stop stop-color="#25935F"/>
<stop offset="0.5" stop-color="#166A45"/>
<stop offset="0.99" stop-color="#1B8354"/>
</linearGradient>
<linearGradient id="paint15_linear_30580_1805" x1="230.035" y1="4.82513" x2="230.035" y2="50.5045" gradientUnits="userSpaceOnUse">
<stop stop-color="#25935F"/>
<stop offset="0.5" stop-color="#166A45"/>
<stop offset="0.99" stop-color="#1B8354"/>
</linearGradient>
<linearGradient id="paint16_linear_30580_1805" x1="230.035" y1="4.82333" x2="230.035" y2="50.5027" gradientUnits="userSpaceOnUse">
<stop stop-color="#25935F"/>
<stop offset="0.5" stop-color="#166A45"/>
<stop offset="0.99" stop-color="#1B8354"/>
</linearGradient>
<linearGradient id="paint17_linear_30580_1805" x1="200.365" y1="8.31508" x2="232.644" y2="50.4457" gradientUnits="userSpaceOnUse">
<stop stop-color="#25935F"/>
<stop offset="0.5" stop-color="#166A45"/>
<stop offset="0.99" stop-color="#1B8354"/>
</linearGradient>
<linearGradient id="paint18_linear_30580_1805" x1="212.056" y1="10.1895" x2="212.056" y2="46.7348" gradientUnits="userSpaceOnUse">
<stop stop-color="#25935F"/>
<stop offset="0.5" stop-color="#166A45"/>
<stop offset="0.99" stop-color="#1B8354"/>
</linearGradient>
<linearGradient id="paint19_linear_30580_1805" x1="212.06" y1="13.824" x2="212.06" y2="50.3694" gradientUnits="userSpaceOnUse">
<stop stop-color="#25935F"/>
<stop offset="0.5" stop-color="#166A45"/>
<stop offset="0.99" stop-color="#1B8354"/>
</linearGradient>
<linearGradient id="paint20_linear_30580_1805" x1="203.071" y1="4.82436" x2="203.071" y2="50.5037" gradientUnits="userSpaceOnUse">
<stop stop-color="#25935F"/>
<stop offset="0.5" stop-color="#166A45"/>
<stop offset="0.99" stop-color="#1B8354"/>
</linearGradient>
<linearGradient id="paint21_linear_30580_1805" x1="203.071" y1="4.82572" x2="203.071" y2="50.5051" gradientUnits="userSpaceOnUse">
<stop stop-color="#25935F"/>
<stop offset="0.5" stop-color="#166A45"/>
<stop offset="0.99" stop-color="#1B8354"/>
</linearGradient>
<linearGradient id="paint22_linear_30580_1805" x1="193.401" y1="19.0744" x2="219.224" y2="52.7795" gradientUnits="userSpaceOnUse">
<stop stop-color="#25935F"/>
<stop offset="0.5" stop-color="#166A45"/>
<stop offset="0.99" stop-color="#1B8354"/>
</linearGradient>
<linearGradient id="paint23_linear_30580_1805" x1="203.069" y1="11.9427" x2="203.069" y2="48.488" gradientUnits="userSpaceOnUse">
<stop stop-color="#25935F"/>
<stop offset="0.5" stop-color="#166A45"/>
<stop offset="0.99" stop-color="#1B8354"/>
</linearGradient>
<linearGradient id="paint24_linear_30580_1805" x1="194.082" y1="4.82573" x2="194.082" y2="50.5051" gradientUnits="userSpaceOnUse">
<stop stop-color="#25935F"/>
<stop offset="0.5" stop-color="#166A45"/>
<stop offset="0.99" stop-color="#1B8354"/>
</linearGradient>
<linearGradient id="paint25_linear_30580_1805" x1="184.528" y1="20.4485" x2="216.807" y2="62.5791" gradientUnits="userSpaceOnUse">
<stop stop-color="#25935F"/>
<stop offset="0.5" stop-color="#166A45"/>
<stop offset="0.99" stop-color="#1B8354"/>
</linearGradient>
<linearGradient id="paint26_linear_30580_1805" x1="194.082" y1="11.9436" x2="194.082" y2="48.489" gradientUnits="userSpaceOnUse">
<stop stop-color="#25935F"/>
<stop offset="0.5" stop-color="#166A45"/>
<stop offset="0.99" stop-color="#1B8354"/>
</linearGradient>
<linearGradient id="paint27_linear_30580_1805" x1="181.17" y1="30.2658" x2="206.993" y2="63.9709" gradientUnits="userSpaceOnUse">
<stop stop-color="#25935F"/>
<stop offset="0.5" stop-color="#166A45"/>
<stop offset="0.99" stop-color="#1B8354"/>
</linearGradient>
<linearGradient id="paint28_linear_30580_1805" x1="185.093" y1="4.82391" x2="185.093" y2="50.5032" gradientUnits="userSpaceOnUse">
<stop stop-color="#25935F"/>
<stop offset="0.5" stop-color="#166A45"/>
<stop offset="0.99" stop-color="#1B8354"/>
</linearGradient>
<linearGradient id="paint29_linear_30580_1805" x1="185.093" y1="20.3939" x2="185.093" y2="66.0669" gradientUnits="userSpaceOnUse">
<stop stop-color="#25935F"/>
<stop offset="0.5" stop-color="#166A45"/>
<stop offset="0.99" stop-color="#1B8354"/>
</linearGradient>
<linearGradient id="paint30_linear_30580_1805" x1="175.41" y1="31.8891" x2="201.233" y2="65.5942" gradientUnits="userSpaceOnUse">
<stop stop-color="#25935F"/>
<stop offset="0.5" stop-color="#166A45"/>
<stop offset="0.99" stop-color="#1B8354"/>
</linearGradient>
<linearGradient id="paint31_linear_30580_1805" x1="185.093" y1="14.021" x2="185.093" y2="50.5632" gradientUnits="userSpaceOnUse">
<stop stop-color="#25935F"/>
<stop offset="0.5" stop-color="#166A45"/>
<stop offset="0.99" stop-color="#1B8354"/>
</linearGradient>
<linearGradient id="paint32_linear_30580_1805" x1="205.648" y1="17.3124" x2="231.471" y2="51.0175" gradientUnits="userSpaceOnUse">
<stop stop-color="#25935F"/>
<stop offset="0.5" stop-color="#166A45"/>
<stop offset="0.99" stop-color="#1B8354"/>
</linearGradient>
<linearGradient id="paint33_linear_30580_1805" x1="221.049" y1="13.0651" x2="221.049" y2="49.6105" gradientUnits="userSpaceOnUse">
<stop stop-color="#25935F"/>
<stop offset="0.5" stop-color="#166A45"/>
<stop offset="0.99" stop-color="#1B8354"/>
</linearGradient>
<linearGradient id="paint34_linear_30580_1805" x1="230.036" y1="12.6077" x2="230.036" y2="49.1499" gradientUnits="userSpaceOnUse">
<stop stop-color="#25935F"/>
<stop offset="0.5" stop-color="#166A45"/>
<stop offset="0.99" stop-color="#1B8354"/>
</linearGradient>
<linearGradient id="paint35_linear_30580_1805" x1="201.725" y1="16.868" x2="227.548" y2="50.57" gradientUnits="userSpaceOnUse">
<stop stop-color="#25935F"/>
<stop offset="0.5" stop-color="#166A45"/>
<stop offset="0.99" stop-color="#1B8354"/>
</linearGradient>
</defs>
</svg>
