<svg fill="none" height="37" viewBox="0 0 37 37" width="37" xmlns="http://www.w3.org/2000/svg" xmlns:xlink="http://www.w3.org/1999/xlink"><clipPath id="a"><path d="m0 0h36.961v36.9802h-36.961z" transform="matrix(-.99999977 .00068068 -.00068068 -.99999977 36.9844 36.9766)"/></clipPath><g clip-path="url(#a)" fill="#6cf"><path d="m18.3855.00917104c10.2595-.00547571 18.5809 8.31136896 18.5863 18.57622896.0027 4.9277-1.9507 9.6547-5.4305 13.1418-7.355 7.1565-19.1158 6.9925-26.26856-.3663-7.00534-7.2071-7.01316-18.6811-.01765-25.89769 3.47315-3.49946 8.20131-5.46337801 13.13041-5.45403896zm.0244 35.72022896c9.4428-.0065 17.1199-7.6981 17.1135-17.1458-.0065-9.4477-7.6941-17.12883-17.1369-17.12239-9.44279.00645-17.11993 7.69806-17.11349 17.14579.00644 9.4477 7.69407 17.1288 17.13689 17.1224z"/><path d="m12.1876 17.8699 13.1951-.009c.4008-.0003.7259.3245.7262.7255s-.3244.7263-.7252.7266l-13.1951.009c-.4008.0003-.7259-.3246-.7262-.7256s.3244-.7262.7252-.7265z"/><path d="m16.0675 13.9867c.4008-.001.7265.3232.7275.7242.0005.193-.0759.3782-.2121.5148l-3.3664 3.3719 3.371 3.3674c.2786.2882.2709.7479-.0171 1.0266-.281.272-.7269.2723-1.0084.0007l-3.8836-3.8803c-.2835-.2833-.2838-.7429-.0007-1.0266l3.8784-3.8857c.1356-.1359.3195-.2125.5114-.213z"/></g></svg>