<svg fill="none" height="35" width="35" xmlns="http://www.w3.org/2000/svg"><path d="m4.292 34.988c-1.056 0-1.952-.367-2.689-1.103-.735-.737-1.103-1.633-1.103-2.688v-18.084c0-1.055.368-1.95 1.103-2.686.737-.737 1.633-1.105 2.689-1.105h7.875v-4.667c0-1 .36-1.861 1.083-2.583.722-.723 1.583-1.084 2.583-1.084h3.334c1 0 1.86.361 2.583 1.084.722.722 1.083 1.583 1.083 2.583v4.667h7.875c1.056 0 1.952.368 2.689 1.105.735.735 1.103 1.63 1.103 2.686v18.084c0 1.055-.368 1.951-1.103 2.688-.737.736-1.633 1.103-2.689 1.103zm3.208-6.875h10v-.75c0-.472-.132-.91-.397-1.313a2.613 2.613 0 0 0 -1.103-.937 8.568 8.568 0 0 0 -1.687-.561 8.417 8.417 0 0 0 -1.813-.189c-.639 0-1.243.063-1.812.189a8.557 8.557 0 0 0 -1.688.561c-.472.223-.84.535-1.103.937a2.35 2.35 0 0 0 -.397 1.313zm13.333-2.5h6.667v-2.5h-6.667zm-8.333-2.5c.694 0 1.284-.243 1.77-.73.487-.485.73-1.075.73-1.77 0-.694-.243-1.285-.73-1.771a2.41 2.41 0 0 0 -1.77-.729 2.41 2.41 0 0 0 -1.77.729 2.412 2.412 0 0 0 -.73 1.771c0 .695.243 1.285.73 1.77.486.487 1.076.73 1.77.73zm8.333-2.5h6.667v-2.5h-6.667zm-4.875-7.958h3.084v-7.875h-3.084z" fill="#fff"/></svg>