<svg fill="none" height="32" viewBox="0 0 32 32" width="32" xmlns="http://www.w3.org/2000/svg"><path d="m29.0999 1.6v24.5h-26.2v-19.2l6.9-6.9h17.75c.85 0 1.55.75 1.55 1.6z" fill="#eff2f3"/><path d="m8.34995 6.9h-5.4l6.85-6.9-.05 5.4c.05.85-.6 1.5-1.4 1.5z" fill="#dadede"/><path d="m18.5501 14c-1.45-1.4-2.5-3-2.5-3 .4-.6 1.35-4.04998-.1-5.04998s-2.2.85-2.2.85c-.65 2.3.9 4.39998.9 4.39998l-1.75 3.85c-.2 0-5.75 2.15-3.85 4.8 1.95 2.65 4.65-3.75 4.65-3.75 1.05-.35 4.25-.8 4.25-.8 1.25 1.7 2.75 2.25 2.75 2.25 2.3.6 2.55-1.3 2.55-1.3.05-2.5-4.7-2.25-4.7-2.25zm-8.55 4.95c-.05 0-.05-.05-.05-.05-.3-.7 2-2.05 2-2.05s-1.25 2.4-1.95 2.1zm5.2-12.09998c.65.6.1 2.65.1 2.65s-.75-2.05-.1-2.65zm-.6 7.74998.9-2.2 1.4 1.7zm7.4 1.6c-.4.65-2.05-.75-2.2-.9.25 0 2.4.15 2.2.9zm7.1 8.3v5.9c0 .85-.7 1.6-1.6 1.6h-23.05c-.85 0-1.6-.7-1.6-1.6v-5.9z" fill="#f2786b"/><path d="m13.9501 27.1c0 .4-.15.7-.4.95-.25.2-.65.3-1.15.3h-.4v1.45h-.65v-3.85h1.15c.5 0 .85.1 1.1.3s.35.45.35.85zm-1.9.75h.35c.3 0 .55-.05.7-.15s.25-.3.25-.55c0-.2-.05-.4-.2-.5s-.35-.15-.65-.15h-.45zm5.85 0c0 .65-.2 1.15-.55 1.45-.35.35-.85.5-1.55.5h-1.1v-3.85h1.2c.6 0 1.1.15 1.45.5.35.3.55.8.55 1.4zm-.7 0c0-.95-.45-1.4-1.3-1.4h-.55v2.8h.45c.95.05 1.4-.45 1.4-1.4zm2.15 1.95h-.65v-3.85h2.2v.55h-1.55v1.2h1.45v.55h-1.45z" fill="#eff2f3"/></svg>