<svg height="29.163" viewBox="0 0 113.747 29.163" width="113.747" xmlns="http://www.w3.org/2000/svg"><g fill="#303b6f"><path d="m28.895-280.8h-5.821c-2.747 7.629-7.372 20.3-9.92 27.241a10.966 10.966 0 0 1 -.954 1.921h4.028a3.183 3.183 0 0 0 2.6-1.651 2.721 2.721 0 0 0 .228-.456l2.434-6.647c3.017-8.269 7.1-19.5 7.4-20.41" transform="translate(17.133 280.8)"/><path d="m163.323-195.882-2.434 6.661a3.253 3.253 0 0 1 -2.818 2.078h-4.028a10.443 10.443 0 0 0 1.025-2.078l2.434-6.661h-5.835l-2.42 6.661a3.27 3.27 0 0 1 -2.818 2.078h-4.056a11.28 11.28 0 0 0 1.025-2.078l2.434-6.661h-5.832l-2.42 6.661a3.253 3.253 0 0 1 -2.818 2.078h-18.648a10.166 10.166 0 0 0 1.039-2.035l.612-1.708c1.594-4.384-.669-7.913-5.038-7.913h-6.632l-2.121 5.821h6.661a1.4 1.4 0 0 1 1.324 2.078l-.641 1.708a3.207 3.207 0 0 1 -2.8 2.035h-9.597l-2.121 5.835h59.193c4.384 0 9.137-3.515 10.731-7.871l2.448-6.7z" transform="translate(-55.426 210.471)"/><path d="m-178.486-181.222h-15.414l2.121-5.835h15.428a3.309 3.309 0 0 0 2.846-2.078l.6-1.651a1.406 1.406 0 0 0 -1.324-2.078h-9.579l2.121-5.835h9.564c4.384 0 6.618 3.544 5.038 7.913l-.6 1.651c-1.594 4.384-6.433 7.9-10.8 7.913" transform="translate(193.9 210.385)"/></g></svg>