<svg xmlns="http://www.w3.org/2000/svg" width="138.001" height="50" viewBox="0 0 138.001 50"><path d="M24.5,44.918l4.387,2.541L24.5,50ZM17.18,47.459l4.386-2.541V50ZM9.859,45.342l4.387-2.549v5.09ZM33,42.535l4.387,2.541L33,47.616ZM135.11,47.5c-.077,0-.156-.079-.235-.079v-.548l.158.078h.156a.471.471,0,0,0,.313-.078c.077-.079.156-.157.234-.236l.235-.627-1.486-3.764h.7l1.1,3.137,1.094-3.137.625-.062v.4l-1.484,3.9q-.117.235-.234.471c-.078.078-.158.235-.236.313a.588.588,0,0,1-.312.157.7.7,0,0,1-.392.079Zm-12.353-1.332V43.584a.8.8,0,0,0-.782-.784.988.988,0,0,0-.469.078c-.078,0-.236.157-.313.235a1.038,1.038,0,0,0-.234.392.987.987,0,0,0-.079.471v2.117h-.625V40.84h.546v2.038a1.1,1.1,0,0,1,.235-.313c.078-.079.234-.158.313-.236a2.275,2.275,0,0,1,.7-.157,1.724,1.724,0,0,1,.626.078.776.776,0,0,1,.391.314,1.2,1.2,0,0,1,.234.548,1.339,1.339,0,0,1,.078.549v2.51Zm-8.213-.08a.773.773,0,0,1-.391-.314c-.158-.157-.158-.313-.235-.47a1.339,1.339,0,0,1-.078-.549V42.25h.625v2.51a.8.8,0,0,0,.782.784.986.986,0,0,0,.469-.078c.079-.078.235-.157.313-.236a1.043,1.043,0,0,0,.235-.391,1,1,0,0,0,.078-.471V42.25h.7v3.843h-.626v-.627a1.84,1.84,0,0,1-.547.549,2.281,2.281,0,0,1-.7.157A1.714,1.714,0,0,1,114.544,46.093Zm-24.318-.078a1.113,1.113,0,0,1-.157-.471,1.209,1.209,0,0,1-.626.471,2.275,2.275,0,0,1-.7.157c-.156,0-.312-.078-.469-.078s-.234-.078-.391-.157a1.074,1.074,0,0,1-.235-.314.993.993,0,0,1-.078-.47.645.645,0,0,1,.078-.549c.078-.078.157-.236.313-.314.078-.157.234-.157.391-.235.157,0,.313-.078.469-.078s.313-.078.47-.078.234-.079.391-.079c.157-.078.235-.078.312-.157.078,0,.078-.157.078-.235a.473.473,0,0,0-.078-.314c-.077-.157-.156-.157-.234-.235-.078,0-.157-.078-.235-.078H89.21a1.833,1.833,0,0,0-.625.157.525.525,0,0,0-.313.549h-.626a1.476,1.476,0,0,1,.157-.627c.157-.157.235-.314.391-.392.078-.157.313-.157.47-.235a1.717,1.717,0,0,1,.625-.078h.547a1.113,1.113,0,0,1,.469.157c.078.078.235.157.312.313a1.339,1.339,0,0,1,.078.549v2.274c.078.078.078.157.235.157h.157v.471a.993.993,0,0,1-.47.078A.6.6,0,0,1,90.226,46.014Zm-.312-1.96-.313.078a.47.47,0,0,1-.312.078l-.313.078c-.157,0-.235.078-.312.078-.078.078-.157.078-.235.157s-.157.157-.157.235a.472.472,0,0,0-.078.314,1.048,1.048,0,0,1-.078.391c0,.078.078.078.157.157.078,0,.157.079.235.079h.312a1.143,1.143,0,0,0,.547-.079,1.712,1.712,0,0,0,.392-.235c.157-.078.157-.235.234-.313a.6.6,0,0,0,.078-.314h.078v-.784C90.069,43.976,89.991,44.054,89.914,44.054Zm-6.02,1.96a.578.578,0,0,1-.156-.471,1.216,1.216,0,0,1-.625.471,2.287,2.287,0,0,1-.7.157c-.157,0-.313-.078-.469-.078s-.235-.078-.392-.157a1.058,1.058,0,0,1-.234-.314.993.993,0,0,1-.078-.47.645.645,0,0,1,.078-.549c.077-.078.156-.236.312-.314.078-.157.235-.157.391-.235.157,0,.313-.078.47-.078s.312-.078.469-.078.235-.079.391-.079c.157-.078.235-.078.313-.157a.288.288,0,0,0,.078-.235.473.473,0,0,0-.078-.314c-.078-.157-.157-.157-.235-.235-.078,0-.157-.078-.234-.078h-.313a1.838,1.838,0,0,0-.626.157.524.524,0,0,0-.312.549h-.626a1.476,1.476,0,0,1,.156-.627c.157-.157.235-.314.392-.392.156-.157.391-.157.547-.235a1.717,1.717,0,0,1,.626-.078H83.5a1.105,1.105,0,0,1,.469.157c.078.078.235.157.313.313a.749.749,0,0,1,.157.549v2.274c.077.078.077.157.156.157h.157v.471a.989.989,0,0,1-.469.078A.6.6,0,0,1,83.894,46.014Zm-.234-1.96-.313.078a.468.468,0,0,1-.312.078l-.313.078c-.156,0-.234.078-.312.078-.078.078-.157.078-.235.157s-.078.157-.157.235a.476.476,0,0,0-.077.314,1.048,1.048,0,0,1-.078.391c0,.078.078.078.156.157.078,0,.157.079.235.079h.313a1.147,1.147,0,0,0,.547-.079,1.723,1.723,0,0,0,.391-.235c.078-.078.157-.235.235-.313a.6.6,0,0,0,.078-.314h.077v-.784C83.816,43.976,83.738,44.054,83.66,44.054ZM64.9,46.093a.779.779,0,0,1-.392-.314.679.679,0,0,1-.234-.47,1.339,1.339,0,0,1-.078-.549V42.25h.625v2.51a.8.8,0,0,0,.782.784.991.991,0,0,0,.469-.078c.078-.078.234-.157.312-.236a1.043,1.043,0,0,0,.235-.391,1,1,0,0,0,.078-.471l.078-2.118H67.4v3.843h-.625v-.627a1.84,1.84,0,0,1-.547.549,2.287,2.287,0,0,1-.7.157A1.717,1.717,0,0,1,64.9,46.093Zm-8.289-.078a2.762,2.762,0,0,1-.7-.314,1.053,1.053,0,0,1-.469-.549,2.317,2.317,0,0,1-.157-.784h.7a1.456,1.456,0,0,0,.157.549.791.791,0,0,0,.312.392l.47.235a1.326,1.326,0,0,0,.547.078c.157,0,.312-.078.469-.078a1.105,1.105,0,0,0,.469-.157.6.6,0,0,1,.313-.158.575.575,0,0,0,.157-.47,1.112,1.112,0,0,0-.157-.471,1.4,1.4,0,0,0-.391-.314,1.443,1.443,0,0,0-.547-.157l-.625-.157c-.234-.078-.391-.078-.625-.157a3.944,3.944,0,0,1-.547-.236.941.941,0,0,1-.391-.392,1.852,1.852,0,0,1-.157-.628,1.386,1.386,0,0,1,.625-1.176,2.34,2.34,0,0,1,.625-.313,2.162,2.162,0,0,1,.7-.078h.625a1.57,1.57,0,0,1,.625.313,1.412,1.412,0,0,1,.391.549,2.3,2.3,0,0,1,.157.706h-.625a1.093,1.093,0,0,0-.391-.784,1.575,1.575,0,0,0-.86-.235c-.157,0-.312.078-.469.078a.6.6,0,0,0-.391.157c-.077.078-.156.236-.234.314a.587.587,0,0,0-.078.392,1.326,1.326,0,0,0,.157.392,1.7,1.7,0,0,0,.391.235,1.433,1.433,0,0,0,.547.158l.625.157a1.833,1.833,0,0,1,.625.157.705.705,0,0,1,.547.236.558.558,0,0,1,.235.47,1.483,1.483,0,0,1,.157.627.8.8,0,0,1-.157.707c-.078.157-.313.313-.469.47a1.566,1.566,0,0,1-.625.314,2.165,2.165,0,0,1-.7.078A1.683,1.683,0,0,1,56.606,46.014Zm71.854.078V42.25h.626v.785c.079-.236.313-.549.548-.549a1.573,1.573,0,0,1,.859-.236v.628a1.719,1.719,0,0,0-.625.078.717.717,0,0,0-.469.313l-.234.471a1.515,1.515,0,0,0-.079.627v1.725Zm-3.282-.157a1.4,1.4,0,0,1-.548-.392,1.571,1.571,0,0,1-.312-.627,2.641,2.641,0,0,1-.079-.784,1.357,1.357,0,0,1,.079-.784.966.966,0,0,1,.312-.627,1.4,1.4,0,0,1,.548-.392,2.306,2.306,0,0,1,.782-.157,2.764,2.764,0,0,1,.78.157,2.339,2.339,0,0,1,.548.392,1.583,1.583,0,0,1,.313.627,1.422,1.422,0,0,1,.156.784,2.786,2.786,0,0,1-.156.784.967.967,0,0,1-.313.627,1.4,1.4,0,0,1-.548.392,2.027,2.027,0,0,1-1.562,0Zm.234-3.215a.782.782,0,0,0-.391.313l-.234.471a3.418,3.418,0,0,0,0,1.255c0,.157.157.314.234.471a1.387,1.387,0,0,0,.391.313.992.992,0,0,0,.939,0,.777.777,0,0,0,.39-.313c.079-.157.158-.314.235-.471a1.734,1.734,0,0,0,0-1.255c0-.157-.156-.314-.235-.471a1.369,1.369,0,0,0-.39-.313.993.993,0,0,0-.939,0ZM62.785,45.936a1.116,1.116,0,0,1-.157-.471,1.216,1.216,0,0,1-.625.471,2.281,2.281,0,0,1-.7.157c-.157,0-.313-.078-.469-.078a.6.6,0,0,1-.391-.157,1.074,1.074,0,0,1-.234-.314.993.993,0,0,1-.078-.47.645.645,0,0,1,.078-.549c.078-.079.156-.236.312-.314.078-.157.235-.157.391-.235.156,0,.312-.078.469-.078s.312-.079.469-.079h.469c.157-.078.235-.078.313-.157a.288.288,0,0,0,.078-.235.473.473,0,0,0-.078-.314c-.078-.157-.157-.157-.235-.235-.157,0-.234-.078-.312-.078h-.313a1.843,1.843,0,0,0-.625.157.525.525,0,0,0-.312.549H60.2a1.489,1.489,0,0,1,.156-.627.784.784,0,0,1,.313-.392c.078-.157.312-.157.469-.235a1.722,1.722,0,0,1,.625-.078h.547a1.113,1.113,0,0,1,.47.157.613.613,0,0,1,.312.313.749.749,0,0,1,.157.549v2.274c0,.078.078.157.234.078h.157v.471a.99.99,0,0,1-.469.078A.594.594,0,0,1,62.785,45.936Zm-.313-1.8-.312.078a.471.471,0,0,1-.313.078l-.312.078c-.157,0-.235.078-.313.078-.078.079-.157.079-.235.157a.168.168,0,0,0-.156.157.472.472,0,0,0-.078.314c0,.157.078.313.078.548.078,0,.156.079.234.079h.313a1.147,1.147,0,0,0,.547-.079,1.7,1.7,0,0,0,.391-.235c.157-.078.157-.235.235-.313a.6.6,0,0,0,.078-.314h.078v-.706C62.628,44.054,62.55,44.132,62.472,44.132Zm68.494,1.882V42.25h.782v3.765Zm-58.251,0V42.25H73.5v3.765ZM69.2,45.858a3.453,3.453,0,0,1-.548-.471,1.594,1.594,0,0,1-.312-.627,3.222,3.222,0,0,1,0-1.412,1.594,1.594,0,0,1,.312-.627,1.4,1.4,0,0,1,.548-.392,2.252,2.252,0,0,1,.7-.157h.313a.467.467,0,0,1,.312.078.6.6,0,0,1,.313.158c.078.078.157.235.235.313l.077-2.039h.626v5.254H71.15v-.549a.706.706,0,0,1-.469.471,2.275,2.275,0,0,1-.7.157A2.306,2.306,0,0,1,69.2,45.858Zm0-2.98c-.078.078-.235.157-.313.313a1.116,1.116,0,0,0-.157.471,1.337,1.337,0,0,0-.078.549,1.167,1.167,0,0,0,.078.549l.235.47a1.373,1.373,0,0,0,.391.314,1.33,1.33,0,0,0,.547.078,1.132,1.132,0,0,0,.548-.157.78.78,0,0,0,.391-.314c.157-.157.157-.313.235-.47,0-.157,0-.392-.078-.471a1.337,1.337,0,0,0-.078-.549l-.235-.471a.78.78,0,0,0-.391-.313.741.741,0,0,0-.547-.157A1.429,1.429,0,0,0,69.2,42.878Zm43.471,3.136-.547-1.568h-2.189l-.626,1.568h-.782l2.033-5.253h.86l2.032,5.253Zm-2.58-2.117h1.8l-.94-2.431Zm-4.849,2.117V40.76h.782v5.253Zm-1.327,0-.548-1.568h-2.19l-.625,1.568h-.7l2.033-5.253h.7l2.033,5.253Zm-2.5-2.117h1.72l-.86-2.431ZM76.387,46.013V40.76h1.8a3,3,0,0,1,1.877.627,2.316,2.316,0,0,1,.626,1.882,6.13,6.13,0,0,1-.156,1.176,1.869,1.869,0,0,1-.47.862,1.78,1.78,0,0,1-.781.549,4.613,4.613,0,0,1-1.1.157Zm.7-.548h1.486a.579.579,0,0,1,.391-.079c.157-.078.235-.157.391-.235.078-.157.235-.235.313-.392a3.789,3.789,0,0,0,.235-.549,2.7,2.7,0,0,0,.077-.784,3.255,3.255,0,0,0-.077-.862,1.572,1.572,0,0,0-.313-.627,1.394,1.394,0,0,0-.547-.392,2.311,2.311,0,0,0-.782-.157H77.09Zm56.688.471h-.391c-.158,0-.235,0-.313-.078s-.156-.157-.156-.235a.584.584,0,0,1-.079-.392V42.8h-.625V42.25h.625V41.074h.626V42.25h.7v.471h-.7V45.23l.077.078c.078.078.078.078.157.078h.547v.549Zm-14.7,0h-.391c-.157,0-.234,0-.312-.078s-.158-.157-.158-.235a.6.6,0,0,1-.077-.392V42.8h-.626V42.25h.626V41.074h.625V42.25h.7v.471h-.7V45.23l.078.078c.078.078.078.078.156.078h.548v.549ZM94.45,45.778a2.092,2.092,0,0,1-.469-.391l-.235-.471a.714.714,0,0,1-.077-.392,1.353,1.353,0,0,1,.077-.549c0-.157.157-.235.235-.391a1.722,1.722,0,0,1,.391-.314,1.638,1.638,0,0,1,.47-.313l-.235-.314c-.078-.157-.078-.235-.157-.313a.6.6,0,0,1-.156-.314,1.089,1.089,0,0,1,0-.706c.077-.078.156-.236.234-.314.157-.078.235-.157.392-.235a1.443,1.443,0,0,1,.938,0c.157.078.235.157.391.235a.613.613,0,0,1,.313.314,1.451,1.451,0,0,1,0,.94,1.7,1.7,0,0,1-.235.392.611.611,0,0,1-.312.314c-.157.078-.235.157-.392.235l.939,1.176a2.322,2.322,0,0,0,.157-.784h.625a.851.851,0,0,0-.078.391c0,.079-.078.236-.078.314a.288.288,0,0,1-.078.235c-.078.078-.078.236.078.078L98.2,45.778h-.781l-.548-.627-.312.314c-.157.078-.235.157-.391.235a.6.6,0,0,1-.392.157.989.989,0,0,1-.469.078A1.538,1.538,0,0,1,94.45,45.778Zm.313-2.038a1.081,1.081,0,0,0-.313.235c-.156.079-.156.236-.234.314a.588.588,0,0,0-.078.392.974.974,0,0,0,.312.627c.078.078.157.078.313.157a.7.7,0,0,0,.391.078,1.833,1.833,0,0,0,.625-.157,2.059,2.059,0,0,0,.469-.392l-1.173-1.49C95,43.583,94.841,43.662,94.763,43.74Zm.157-2.274c-.157.078-.157.236-.235.392,0,.078.078.157.078.235.078.078.078.157.157.236l.156.235.157.235.235-.157.234-.235c.078-.078.078-.158.157-.236a.471.471,0,0,0,.078-.313.6.6,0,0,0-.157-.392,1.109,1.109,0,0,0-.469-.157C95.153,41.309,95.075,41.387,94.919,41.466Zm-8.289,4.47h-.392c-.156,0-.234,0-.312-.078s-.157-.157-.157-.235a.589.589,0,0,1-.078-.392V42.8h-.626V42.25h.626V41.074h.625V42.25h.7v.471h-.7V45.23l.078.078c.078.078.078.078.157.078H87.1v.549Zm-69.45-5.26,4.386,2.541L17.18,45.765Zm7.316,2.18,4.387-2.541V45.4ZM1.75,40.621,6.136,38.08v5.081Zm14.692-1.465,5.856-3.4v6.783Zm7.321-3.389,5.856,3.388-5.856,3.388Zm16.6,1.294L44.746,39.6,40.36,42.143Zm90.606,3.7h.625v.391l-.625.392Zm-58.251,0h.547v.391l-.547.392Zm-40.9-1.778L36.2,36.441v5.082ZM9.859,36.441l4.387,2.542L9.859,41.523ZM57.625,39.35h.625v.392l-.625.392Zm-.941,0h.626v.392l-.626.392Zm-.468-.549a3.174,3.174,0,0,1-.7-.392,1.4,1.4,0,0,1-.391-.549,2.173,2.173,0,0,1-.078-.706v-1.1h.469V37a1.119,1.119,0,0,0,.469.941,3.377,3.377,0,0,0,1.486.314h.7c.235-.078.469-.078.625-.157s.235-.157.391-.236c.078,0,.157-.157.157-.235a.407.407,0,0,0-.157-.314,1.7,1.7,0,0,0-.391-.235c-.157-.078-.391-.078-.547-.157l-.547-.157v-.549a7.187,7.187,0,0,0,1.8.314h1.642c-.078-.157-.157-.236-.234-.392a1,1,0,0,1-.078-.471c0-.235.078-.47.078-.706a2.069,2.069,0,0,1,.391-.471c.157-.078.391-.157.547-.235a1.328,1.328,0,0,1,.547-.078h.469c.078,0,.157.078.235.078v.627c-.078,0-.235-.078-.312-.078h-.391a1.262,1.262,0,0,0-.7.235.958.958,0,0,0,0,1.255,1.088,1.088,0,0,0,.7.236h1.094v.627H59.734c.078.078.078.157,0,.313a.474.474,0,0,1,.078.314,1.127,1.127,0,0,1-.156.471.944.944,0,0,1-.391.391l-.7.236a4.8,4.8,0,0,1-1.094.078A6.067,6.067,0,0,1,56.216,38.8Zm50.981-.079v-.627h.859c.157-.078.312-.078.469-.157a.62.62,0,0,0,.313-.314.751.751,0,0,0,.156-.549v-.157a.4.4,0,0,1-.312.157,1.951,1.951,0,0,1-1.094,0c-.157-.078-.235-.157-.391-.235a.779.779,0,0,1-.313-.392,1.729,1.729,0,0,1-.078-.627,1.337,1.337,0,0,1,.078-.549,1.635,1.635,0,0,1,.313-.471c.156-.078.311-.235.469-.313a1.328,1.328,0,0,1,1.251,0,.8.8,0,0,1,.469.391,1.05,1.05,0,0,1,.234.628,2.147,2.147,0,0,1,.079.706v.706a4.055,4.055,0,0,1-.158.862,1.625,1.625,0,0,1-.469.627l-.7.236a2.927,2.927,0,0,1-.86.078Zm.7-3.843-.234.236a.6.6,0,0,0-.157.313.479.479,0,0,0-.077.314.887.887,0,0,0,.235.627,1.833,1.833,0,0,0,.625.157.986.986,0,0,0,.469-.078.59.59,0,0,0,.313-.157h.078v-.314c0-.157-.078-.313-.078-.47-.078-.158-.078-.314-.156-.392a.712.712,0,0,0-.626-.314A.7.7,0,0,0,107.9,34.879Zm-84.137.034,5.856-3.388v6.783Zm-7.321-3.388L22.3,34.913l-5.856,3.4Zm14.637-.957,5.856,3.388-5.856,3.388ZM9.125,33.956l5.856-3.388v6.775Zm93.534,3.277a1.111,1.111,0,0,1-.47-.158,2.054,2.054,0,0,1-.391-.471,1.074,1.074,0,0,1-.235.314.591.591,0,0,1-.313.157.468.468,0,0,1-.312.078H99.453v-.627h1.329a.988.988,0,0,0,.469-.078c.158,0,.158-.078.235-.078,0-.157,0-.235-.077-.313a.588.588,0,0,0-.158-.314l-.781-1.176.547-.392.86,1.49.235.392a1.065,1.065,0,0,0,.234.313c0,.078.077.078.156.157,0,.078.079.078.158.078h1.173V31.979h.547v5.254Zm-12.2-.079V36.6h.547a1.274,1.274,0,0,1-.234-.707.993.993,0,0,1,.078-.47c.077-.079.156-.236.234-.314.078-.157.157-.157.313-.235a.7.7,0,0,1,.391-.078h.391l.235.078v.549a1.314,1.314,0,0,0-.547-.079c-.157,0-.235.079-.313.079,0,.078-.077.078-.156.157a.273.273,0,0,0-.078.157v.236c-.078.157,0,.313.157.47a.834.834,0,0,0,.469.158h.7v.549Zm15.017,0V31.9h.78v5.254Zm-18.375,0V31.9h.781v5.254Zm-5.161,0v-.627h1.642V33h.626v3.529H85.46V31.9h.625v5.254Zm-4.771,0c-.157,0-.235-.079-.391-.079A.288.288,0,0,1,76.545,37c-.078-.078-.157-.078-.157-.157s-.078-.078-.078-.157c0,.078-.077.157-.156.235a.594.594,0,0,1-.313.157.58.58,0,0,1-.391.079H69.117A1.107,1.107,0,0,1,68.648,37c-.078-.078-.235-.157-.235-.313a.947.947,0,0,1-.391.391,2.142,2.142,0,0,1-.7.079H65.443a3.357,3.357,0,0,0-.392-.079.591.591,0,0,1-.312-.157c-.157-.078-.157-.157-.235-.313a1,1,0,0,1-.078-.471V31.9h.626v4.078a.993.993,0,0,0,.078.47c0,.079.157.158.391.158h1.955c.078,0,.157-.078.235-.078a.169.169,0,0,0,.157-.158.592.592,0,0,0,.078-.313V34.33h.625v1.725a.288.288,0,0,0,.078.235c.077.078.156.157.234.157a.467.467,0,0,0,.313.079h.859V31.9h.626v3.607a2.5,2.5,0,0,1,.86-.941,2.2,2.2,0,0,1,1.173-.313,1.542,1.542,0,0,1,1.094.47,2.375,2.375,0,0,1,.391,1.256V36.6h1.173a.285.285,0,0,0,.234-.078.169.169,0,0,0,.157-.158.592.592,0,0,0,.078-.313V34.721h.626v1.334a.288.288,0,0,1-.078.235.168.168,0,0,0,.157.157.586.586,0,0,0,.313.079,3.623,3.623,0,0,1,.391-.785c.235-.235.391-.471.625-.706a2.81,2.81,0,0,1,.782-.549,2.078,2.078,0,0,1,.938-.235,1.289,1.289,0,0,1,1.173.391,1.848,1.848,0,0,1,.392,1.255v1.256Zm1.8-2.2a2.354,2.354,0,0,0-.547.392,1.592,1.592,0,0,0-.469.548,2.354,2.354,0,0,0-.313.628h2.972v-.549c0-.158-.078-.314-.078-.471a.6.6,0,0,0-.157-.392,1.081,1.081,0,0,0-.313-.235.988.988,0,0,0-.469-.078A1.843,1.843,0,0,0,78.969,34.957Zm-7.115,0a2.052,2.052,0,0,0-.938.94,2.354,2.354,0,0,0-.313.628h2.972l-.078-.549c0-.158-.078-.314-.078-.471a.6.6,0,0,0-.157-.392,1.088,1.088,0,0,0-.312-.235.993.993,0,0,0-.47-.078A1.843,1.843,0,0,0,71.853,34.957Zm22.675,2.118c-.156,0-.312-.078-.469-.078a.59.59,0,0,1-.312-.157,1.081,1.081,0,0,1-.235-.313,1,1,0,0,1-.078-.471V31.82h.626V35.9a1,1,0,0,0,.078.471c0,.078.157.157.391.157H97.5a.991.991,0,0,0,.469-.078.6.6,0,0,0,.157-.392,1.121,1.121,0,0,0-.157-.471q-.235-.235-.469-.471l-.7-.47c-.235-.157-.547-.314-.782-.471.078,0,.078-.078.078-.157s.078-.079.078-.157.078-.078.078-.157l.078-.078,2.814-1.176v.627l-2.189.941c.312.235.547.392.86.627a2.1,2.1,0,0,1,.625.549c.157.078.235.313.313.47,0,.157.078.314.078.471,0,.078-.078.236-.078.314a.594.594,0,0,1-.157.313c-.157.078-.235.157-.391.236a1.722,1.722,0,0,1-.625.078ZM.437,31.721l4.387,2.541L.437,36.81Zm40.622,2.235,4.394-2.541V36.5ZM23.036,25.479h0V17.01l7.311,4.235v8.476h0l-7.31,4.234Zm-7.32,4.242h0V21.245l7.318,4.234-7.318-4.234,7.319-4.235v8.468h0v8.476Zm84.676,2.962h.625v.392l-.625.391Zm-32.446,0h.625v.392l-.625.391ZM31.078,29.72l5.856-3.4v6.783Zm-21.953-3.4,5.856,3.4L9.125,33.107Zm30.008.848,4.387,2.549-4.387,2.541ZM2.539,29.721,6.934,27.18v5.081Zm118.967.217a.782.782,0,0,1-.392-.313c-.156-.157-.156-.392-.235-.549a2.173,2.173,0,0,1-.078-.706v-.078h-.782a1.107,1.107,0,0,1-.469-.157c-.077-.078-.234-.157-.234-.313a.949.949,0,0,1-.391.392,2.162,2.162,0,0,1-.7.078H117.6a1.1,1.1,0,0,1-.47-.157c-.078-.078-.234-.157-.234-.313a.954.954,0,0,1-.391.392,2.171,2.171,0,0,1-.7.078h-2.344a.47.47,0,0,1-.313-.078l-.235-.236c-.078-.157-.156-.235-.156-.392-.158,0-.236.079-.392.079h-.391c-.157,0-.235-.079-.391-.079a1.109,1.109,0,0,1-.469-.157.941.941,0,0,1-.391-.391,1.484,1.484,0,0,1-.157-.628,2.434,2.434,0,0,1,.157-.627,2.482,2.482,0,0,1,.391-.47l.469-.236a1.33,1.33,0,0,1,.547-.078h1.173v1.882a1,1,0,0,0,.078.471c0,.078.157.157.391.157h1.956c.077,0,.156-.078.235-.078a.168.168,0,0,0,.156-.157.593.593,0,0,0,.078-.314V25.312h.7v1.725a.288.288,0,0,0,.078.235c.077.078.156.078.235.157a.466.466,0,0,0,.311.078h.782c.078,0,.157-.078.235-.078a.168.168,0,0,0,.157-.157v-1.96h.626v1.725a.288.288,0,0,0,.078.235c.078.078.156.078.234.157a.472.472,0,0,0,.313.078h.7v-.392a2.648,2.648,0,0,1,.391-1.334,1.259,1.259,0,0,1,1.016-.47.684.684,0,0,1,.548.078c.078.078.234.157.312.313a1.053,1.053,0,0,1,.235.392.707.707,0,0,1,.078.392,2.3,2.3,0,0,1-.157.706c-.157.157-.235.313-.391.471h2.189V23.037h.626l.077,5.333h-2.579c.077.157.156.235.234.392a.479.479,0,0,1,.077.314.717.717,0,0,1-.077.392c-.078.078-.157.235-.234.313-.158.078-.235.157-.392.236a.991.991,0,0,1-.469.078A1.819,1.819,0,0,1,121.505,29.938Zm-.236-1.49v.471a.467.467,0,0,0,.079.313l.234.236a.707.707,0,0,0,.392.078,1.1,1.1,0,0,0,.469-.157c.157-.157.235-.313.157-.47v-.157a.286.286,0,0,0-.079-.235c-.077-.078-.156-.078-.234-.157a.988.988,0,0,0-.469-.078h-.548Zm.236-2.2a2.093,2.093,0,0,0-.236.941v.392h.313a.986.986,0,0,0,.469-.078c.158,0,.235-.157.313-.235a.407.407,0,0,0,.156-.314.467.467,0,0,0,.079-.313.662.662,0,0,0-.157-.549.6.6,0,0,0-.392-.157A.522.522,0,0,0,121.505,26.252Zm-10.086-.471a.61.61,0,0,0-.235.549.673.673,0,0,0,.235.471,1.467,1.467,0,0,0,.625.157h.313c.078,0,.235-.078.313-.078V25.625h-.626A.839.839,0,0,0,111.419,25.781Zm-19.782,4.08v-.627h.86a1.1,1.1,0,0,0,.469-.157.606.606,0,0,0,.312-.313,1.116,1.116,0,0,0,.157-.471h-.859a1.333,1.333,0,0,1-.548-.078l-.469-.235a.778.778,0,0,1-.312-.392,1.729,1.729,0,0,1-.078-.627,1.337,1.337,0,0,1,.078-.549,1.619,1.619,0,0,1,.312-.471,2.093,2.093,0,0,1,.469-.392,1.321,1.321,0,0,1,1.251,0,.944.944,0,0,1,.392.392c.078.236.157.392.234.627a2.676,2.676,0,0,1,.078.785v.313H95.39a4.967,4.967,0,0,0,.547-.157L95,26.489c0-.078.078-.078.078-.157s.077-.078.077-.157.078-.079.078-.157l.078-.078a1.408,1.408,0,0,1,.547-.392,2.263,2.263,0,0,1,.7-.157,1.326,1.326,0,0,1,.547.078,1.743,1.743,0,0,1,.392.236c.078.078.156.235.234.313a.473.473,0,0,1,.078.314,1.271,1.271,0,0,1-.234.706,2.4,2.4,0,0,1-.626.627h2.032a.288.288,0,0,0,.235-.078.168.168,0,0,0,.157-.157.6.6,0,0,0,.078-.314V25.783h.625v1.411a.287.287,0,0,0,.079.236c.078.078.156.157.234.157a.585.585,0,0,0,.391.078h.313c.078,0,.156-.078.234-.078a.169.169,0,0,0,.158-.157.6.6,0,0,0,.077-.314V25.783h.626v1.411a.292.292,0,0,1,.077.236c.078.078.157.157.234.157.079.078.158.078.313.078h.235c.078,0,.078-.078.157-.078a.168.168,0,0,0,.156-.157V25.469h.626v1.725a.292.292,0,0,0,.077.236c.078.078.157.078.235.157a.468.468,0,0,0,.312.078h1.173l-.234-4.469h.626v5.253h-1.8a1.105,1.105,0,0,1-.469-.157,1.065,1.065,0,0,1-.235-.313c0,.078-.078.157-.157.235s-.157.157-.235.157a.285.285,0,0,1-.234.078h-.235c-.156,0-.234-.078-.391-.078-.157-.078-.234-.078-.313-.157l-.156-.157c0-.078-.078-.078-.078-.157a.947.947,0,0,1-.391.392,1.529,1.529,0,0,1-.626.078c-.156,0-.312-.078-.469-.078s-.234,0-.313-.078l-.156-.157c-.078-.078-.078-.078-.078-.157,0,.078-.078.157-.157.235s-.157.157-.234.157a.706.706,0,0,1-.391.078H97.032c-.156,0-.234-.078-.391-.078-.157-.078-.235-.157-.391-.235l-.7.235a2.162,2.162,0,0,1-.7.078h-.86a2.31,2.31,0,0,1-.156.706,1.148,1.148,0,0,1-.392.471,5.362,5.362,0,0,1-.626.236,3.2,3.2,0,0,1-.859.078Zm.626-3.765-.235.236a.6.6,0,0,0-.156.313.474.474,0,0,0-.078.314.715.715,0,0,0,.234.549,1.474,1.474,0,0,0,.626.157h.782v-.471a1.089,1.089,0,0,0-.157-.862.708.708,0,0,0-.625-.314A.585.585,0,0,0,92.263,26.1Zm3.753-.078a.781.781,0,0,0-.391.314l.86.941a1.664,1.664,0,0,0,.547-.313.848.848,0,0,0,.235-.549.41.41,0,0,0-.157-.314.742.742,0,0,0-.547-.157.347.347,0,0,0-.154-.032A.942.942,0,0,0,96.016,26.018ZM119.078,29h.626v.392l-.626.392Zm-.937,0h.625v.392l-.625.392ZM86.711,29h.625v.392l-.625.392Zm-.941,0h.625v.392l-.625.392Zm-12.9,0H73.5v.392l-.626.392Zm-1.879,0h.625v.392l-.625.392Zm-.937,0h.626v.392l-.626.392ZM31.078,22.09l5.856,3.388-5.856,3.388ZM9.125,25.477l5.856-3.388v6.775Zm78.6,2.893v-.627h1.72a.471.471,0,0,0,.313-.078c.078,0,.078-.078.078-.157v-.157c-.078-.078-.078-.157-.157-.235a4.683,4.683,0,0,1-.313-.471l-.626-.863.547-.392c.235.313.392.627.548.862a2.425,2.425,0,0,1,.391.549,1.72,1.72,0,0,1,.235.392.471.471,0,0,1,.078.313.846.846,0,0,1-.235.549,1.79,1.79,0,0,1-.86.314Zm38.781-.079V23.037h.782v5.254Zm-19.077,0V23.037h.782v5.254Zm-23.381,0h-.391a.471.471,0,0,1-.313-.078.972.972,0,0,1-.312-.627c-.157,0-.235.078-.391.078h-.392c-.157,0-.234-.078-.391-.078a1.105,1.105,0,0,1-.469-.157L81,27.037a1.479,1.479,0,0,1-.157-.627A2.426,2.426,0,0,1,81,25.782a2.491,2.491,0,0,1,.392-.471l.469-.235A1.328,1.328,0,0,1,82.408,25H83.58v2.039a1,1,0,0,0,.078.471c0,.078.157.157.391.157h2.424v-2.2H87.1v2.823Zm-2.267-2.509a.436.436,0,0,0-.235.549.713.713,0,0,0,.235.549,1.471,1.471,0,0,0,.625.157h.312c.078,0,.235-.078.313-.078V25.626h-.626A.841.841,0,0,0,81.782,25.782Zm-5.157,2.509a1.105,1.105,0,0,1-.469-.157c-.157-.078-.235-.157-.235-.313a.947.947,0,0,1-.391.392,2.165,2.165,0,0,1-.7.078H74.28a1.113,1.113,0,0,1-.47-.157,1.081,1.081,0,0,1-.234-.313.944.944,0,0,1-.392.392,2.16,2.16,0,0,1-.7.078h-.625a1.113,1.113,0,0,1-.469-.157c-.078-.078-.235-.157-.235-.313a.936.936,0,0,1-.391.392,2.162,2.162,0,0,1-.7.078H68.18c-.157,0-.312-.078-.469-.078a.594.594,0,0,1-.313-.157c-.156-.078-.156-.235-.234-.471a1,1,0,0,1-.078-.471V22.881H67.4v4.078a1,1,0,0,0,.078.471c0,.078.157.157.392.157h2.11c.078,0,.157-.078.235-.078a.168.168,0,0,0,.157-.157V25.39H71v1.725a.289.289,0,0,0,.078.236c.077.078.156.078.234.157a.471.471,0,0,0,.313.078H72.4c.077,0,.156-.078.234-.078a.168.168,0,0,0,.157-.157V25.39h.626v1.725a.289.289,0,0,0,.078.236c.078.078.157.078.234.157a.471.471,0,0,0,.313.078h.86c.156,0,.234-.078.312-.235a.6.6,0,0,0,.078-.314V22.959h.626V26.8a1.479,1.479,0,0,0,.157.627.556.556,0,0,0,.469.235H77.72V23.037h.625v5.254Zm-13.609,0a3.369,3.369,0,0,0-.391-.078.594.594,0,0,1-.313-.157,1.776,1.776,0,0,1-.234-.392A1,1,0,0,1,62,27.194V22.959h.547v4.078a1,1,0,0,0,.078.471c0,.078.157.157.391.157h2.346v-2.2h.625v2.823ZM0,23.158,4.387,25.7,0,28.24Zm56.529,5.056a2.136,2.136,0,0,1-.7-.079,1.113,1.113,0,0,1-.47-.157.837.837,0,0,1-.234-.391,1,1,0,0,1-.078-.471V25.94h.625v.941a.588.588,0,0,0,.078.392c0,.157.078.157.156.235.157,0,.235.079.391.079h4.144v-2.2h.547v2.823Zm-14.65-2.993,4.387-2.549v5.09ZM58.25,24.215h.625v.392L58.25,25Zm-1.02,0h.625v.392L57.23,25ZM31.078,21.244l5.856-3.389v6.776ZM9.125,17.855l5.856,3.389L9.125,24.631Zm106.594,6.751v-.392h.391a.839.839,0,0,1-.157-.47.588.588,0,0,1,.078-.392c0-.078.078-.157.157-.235s.156-.158.234-.158a.472.472,0,0,1,.313-.078h.391v.392a.7.7,0,0,0-.391-.078.6.6,0,0,0-.313.157.471.471,0,0,0-.078.313c0,.157,0,.314.158.392a.429.429,0,0,0,.391.157h.391v.392Zm-50.278-.784h.625v.392l-.625.313Zm46.993-.392h.625V23.9l-.625.313Zm-1.016,0h.625V23.9l-.625.313Zm-28.7,0h.625V23.9l-.625.313Zm-1.015,0h.625V23.9l-.625.313ZM39.133,18.7l4.387,2.541-4.387,2.541ZM2.539,21.072l4.395-2.548v5.089Zm28.539-7.458,5.856,3.4L31.078,20.4ZM9.125,17l5.856-3.388V20.4ZM.172,14.461,4.566,17.01.172,19.551Zm23.59,1.583,5.856-3.389v6.783Zm-7.321-3.389L22.3,16.044l-5.856,3.395ZM55.434,15.51a5.648,5.648,0,0,1-.469-2.274h4.3c0,1.412,1.329,2.431,3.127,2.431,1.486,0,2.424-.706,2.424-1.725,0-1.255-1.485-1.411-3.2-1.646-3.362-.392-6.568-1.255-6.568-5.176,0-3.372,2.893-5.647,7.037-5.647,3.206,0,5.708,1.49,6.724,3.686l-3.753,2.2c.078-1.255-1.173-2.2-2.814-2.2-1.408,0-2.346.628-2.346,1.49,0,1.1,1.408,1.333,3.206,1.49,3.362.391,6.568,1.255,6.647,5.175,0,3.529-3.05,5.96-7.429,5.96C59.031,19.274,56.451,17.784,55.434,15.51Zm59.817,3.136,5.16-16.625h7.35l5.161,16.546h-5.239l-1.643-5.881-1.955-6.431-1.954,6.431h3.909l-4.613,2.667-.938,3.293Zm-6.806,0V4.923l5-2.9V18.646Zm-19.39,0L94.137,2.021h7.349l5.161,16.546h-5.239l-1.642-5.881L97.812,6.256l-1.877,6.431h3.831l-4.535,2.667-.939,3.293Zm-16.809-.078V2.021h6.881c5.708,0,9.382,3.216,9.382,8.234s-3.753,8.312-9.461,8.312Zm4.927-3.685h1.955a4.235,4.235,0,0,0,3.283-1.255,4.622,4.622,0,0,0,1.173-3.294A3.942,3.942,0,0,0,82.41,7.041a4.232,4.232,0,0,0-3.283-1.255H77.172ZM41.281,15.951,45.668,13.4v5.089ZM.437,13.252,4.824,10.7v5.09ZM23.762,8.422l5.856,3.388L23.762,15.2ZM16.441,11.81l5.856-3.4V15.2Zm15.371.165L36.2,9.434v5.089ZM9.859,9.434l4.387,2.541L9.859,14.515ZM39.922,8.375l4.386,2.541-4.386,2.541ZM17.18,5.67l4.394,2.541L17.18,10.76ZM24.5,6.783l4.387-2.549v5.09ZM8.234,6.416l4.395-2.549v5.09ZM32.73.957,37.117,3.5,32.73,6.046ZM24.5,0l4.387,2.541L24.5,5.081ZM17.18,2.541,21.566,0V5.081Z" fill="#fff"/></svg>