<svg enable-background="new 0 0 106.7 60" viewBox="0 0 106.7 60" xmlns="http://www.w3.org/2000/svg"><g fill="#fff"><path d="m5.7 53.6c-.2-.2-.4-.3-.7-.3-.3-.1-.5-.2-.8-.2l-.8-.2c-.2 0-.5-.1-.7-.2s-.4-.2-.5-.3c-.1-.2-.2-.4-.2-.5 0-.2 0-.4.1-.5s.2-.3.3-.4.3-.2.5-.2.4-.1.6-.1c.4 0 .8.1 1.1.3.3.3.5.6.5 1h.8c0-.3-.1-.6-.2-.9s-.3-.5-.5-.7-.5-.3-.8-.4c-.2 0-.5 0-.8 0s-.6 0-.9.1-.5.2-.8.4c-.5.3-.8.9-.8 1.5 0 .3.1.5.2.8.1.2.3.4.5.5s.4.2.7.3.5.1.8.2l.8.2c.2 0 .5.1.7.2s.3.2.5.4c.1.2.2.4.2.6s0 .4-.2.6c-.1 0-.3.1-.4.2-.2.1-.4.2-.6.2s-.4.1-.6.1-.5 0-.7-.1-.4-.2-.6-.3-.3-.3-.4-.5-.2-.5-.2-.7h-.9c0 .4.1.7.2 1s.3.5.6.7.6.3.9.4c.4.2.7.2 1.1.2.3 0 .6 0 .9-.1s.6-.2.8-.4.5-.4.6-.6c.2-.3.3-.6.2-.9 0-.3-.1-.6-.2-.8 0-.3-.1-.4-.3-.6z"/><path d="m11.1 56.1c0-.1 0-.3 0-.4v-2.5c0-.2 0-.5-.2-.7-.1-.2-.2-.3-.4-.4s-.4-.2-.6-.2-.4 0-.7 0-.5 0-.8.1c-.2.1-.5.1-.6.3-.2.1-.3.3-.4.5s-.2.5-.2.8h.8c0-.3.1-.6.4-.7s.5-.2.8-.2h.4c.1 0 .2.1.4.1.1.1.2.1.3.3.1.1.1.3.1.4s0 .2-.1.3-.2.1-.4.2c-.2 0-.4 0-.6 0s-.4.1-.6.1-.4.1-.6.1c-.2.1-.4.1-.5.3-.2.1-.3.3-.4.4-.1.2-.2.4-.1.7 0 .2 0 .4.1.6s.2.3.3.4.3.2.5.2.4.1.6.1c.3 0 .6-.1.9-.2s.6-.3.8-.6c0 .2.1.4.2.6.1.1.3.2.5.2s.4 0 .6-.1v-.6c-.1 0-.2 0-.2 0-.2.1-.3 0-.3-.1zm-.8-.9c0 .1 0 .2-.1.4-.1.1-.1.3-.3.4-.1.1-.3.2-.5.3s-.4.1-.7.1c-.1 0-.2 0-.4 0-.1 0-.2-.1-.3-.1 0-.3-.1-.5-.1-.7 0-.1 0-.3.1-.4 0-.1.1-.2.2-.2.1-.1.2-.1.3-.2.1 0 .2-.1.4-.1l.4-.1c.1 0 .3 0 .4-.1l.4-.1c.1 0 .2-.1.3-.1z"/><path d="m15.5 54.7c0 .2 0 .4-.1.6s-.1.3-.3.5c-.1.1-.3.2-.4.3-.2.1-.4.1-.6.1-.3 0-.5-.1-.7-.3s-.3-.4-.3-.7v-3.2h-.8v3.2c0 .2 0 .5.1.7 0 .2.1.4.3.6.1.2.3.3.5.4.3.1.5.1.8.1s.6-.1.9-.2c.3-.2.5-.4.7-.7v.8h.8v-4.9h-.8z"/><path d="m21.1 52.6c-.1-.1-.2-.3-.3-.4s-.3-.2-.4-.2c-.1-.1-.3-.1-.4-.1s-.3 0-.4 0c-.3 0-.6.1-.9.2s-.5.3-.7.5-.3.5-.4.8-.1.6-.1.9 0 .6.1.9.2.6.4.8.4.4.7.6c.3.1.6.2 1 .2.3 0 .6-.1.9-.2s.5-.3.6-.6v.7h.8v-6.7h-.8zm0 2.5c-.1.2-.1.4-.3.6-.1.2-.3.3-.5.4s-.4.2-.7.2c-.2 0-.5 0-.7-.1s-.3-.2-.5-.4c-.1-.2-.2-.4-.3-.6s-.1-.4-.1-.7c0-.2 0-.5.1-.7 0-.2.1-.4.2-.6s.3-.3.4-.4c.2-.1.5-.2.7-.2s.5 0 .7.2c.2.1.4.2.5.4s.2.4.3.6.1.5.1.7c.1.1.1.4.1.6z"/><path d="m23.2 52h1v4.8h-1z"/><path d="m30.2 50.1h-2.3v6.7h2.3c.5 0 1-.1 1.4-.2s.7-.4 1-.7.5-.7.6-1.1c.1-.5.2-1 .2-1.5.1-.9-.2-1.8-.8-2.4-.6-.5-1.5-.8-2.4-.8zm2.2 4.4c-.1.3-.2.5-.3.7s-.3.3-.4.5c-.2.1-.3.2-.5.3-.2 0-.4 0-.5.1h-.4-1.5v-5.2h1.5c.4 0 .7.1 1 .2s.5.3.7.5.3.5.4.8c.1.4.1.7.1 1.1 0 .3 0 .7-.1 1z"/><path d="m38.2 56.1c0-.1 0-.3 0-.4v-2.5c0-.2 0-.5-.2-.7-.1-.2-.3-.3-.4-.4-.2-.1-.4-.2-.6-.2s-.4 0-.6 0c-.3 0-.5 0-.8.1-.2.1-.5.1-.7.3-.2.1-.3.3-.5.5-.1.2-.2.5-.2.8h.8c0-.3.1-.6.4-.7s.5-.2.8-.2h.4c.1 0 .2.1.3.1.1.1.2.1.3.3.1.1.1.3.1.4s0 .2-.1.3-.2.1-.4.2c-.2 0-.3.1-.5.1s-.4.1-.6.1-.4.1-.6.1c-.2.1-.4.1-.5.3-.2.1-.3.3-.4.4-.1.2-.2.4-.1.7 0 .2 0 .4.1.6s.2.3.3.4c.2.1.3.2.5.2s.4.1.6.1c.3 0 .6-.1.9-.2s.6-.3.8-.6c0 .2 0 .4.2.6.1.1.3.2.5.2s.4 0 .6-.1v-.6c-.1 0-.2 0-.2 0-.1 0-.1-.1-.2-.2zm-.8-.9c0 .1 0 .2-.1.4-.1.1-.2.3-.3.4s-.3.2-.5.3-.4.1-.7.1c-.1 0-.2 0-.4 0-.1 0-.2-.1-.3-.1-.1-.1-.2-.1-.2-.2.1-.3.1-.4.1-.5s0-.3.1-.4.1-.2.2-.3.2-.1.3-.2c.1 0 .2-.1.4-.1l.4-.1c.1 0 .3 0 .4-.1l.4-.1c.1 0 .2-.1.3-.1v1z"/><path d="m40.6 50.5h-.8v1.5h-.8v.7h.8v3.1c0 .2 0 .4.1.5 0 .1.1.2.2.3s.2.1.4.1.4 0 .5 0h.6v-.7h-.4-.3c-.1 0-.1 0-.2-.1l-.1-.1c0-.1 0-.2 0-.2v-3h.9v-.6h-.9z"/><path d="m46.2 56.1c0-.1 0-.3 0-.4v-2.5c0-.2 0-.5-.1-.7s-.3-.3-.4-.4c-.2-.1-.4-.2-.6-.2s-.4 0-.7 0-.5 0-.8.1c-.2.1-.5.1-.6.3-.2.1-.3.3-.5.5-.1.2-.2.5-.2.8h.8c0-.3.1-.6.4-.7s.5-.2.8-.2h.4c.1 0 .2.1.3.1.1.1.2.1.3.3.1.1.1.3.1.4s0 .3-.1.3c-.1.1-.2.1-.4.2-.2 0-.3.1-.5.1s-.4.1-.6.1-.4.1-.6.1c-.2.1-.4.1-.5.3-.2.1-.3.3-.4.4-.1.2-.2.4-.1.7 0 .2 0 .4.1.6s.2.3.3.4c.2.1.3.2.5.2s.4.1.6.1c.3 0 .6-.1.9-.2s.6-.3.8-.6c0 .2.1.4.2.6.1.1.3.2.5.2s.4 0 .6-.1v-.6c-.1 0-.2 0-.2 0-.2 0-.2-.1-.3-.2zm-.8-.9c0 .1 0 .2-.1.4-.1.1-.1.3-.3.4-.1.1-.3.2-.5.3s-.4.1-.7.1c-.1 0-.2 0-.4 0-.1 0-.2-.1-.3-.1-.1-.1-.2-.1-.2-.2.1-.3.1-.4.1-.5s0-.3.1-.4c0-.1.1-.2.2-.3s.2-.1.3-.2c.1 0 .2-.1.4-.1l.4-.1c.1 0 .3 0 .4-.1l.4-.1c.1 0 .2-.1.3-.1v1z"/><path d="m54.4 54.9c.1-.1.1-.2.1-.3s.1-.3.1-.4 0-.3.1-.5h-.8c0 .4-.1.7-.2 1l-1.2-1.5c.2-.1.3-.2.5-.3s.3-.2.4-.4c.1-.1.2-.3.3-.5s.1-.4.1-.6 0-.4-.1-.6-.2-.3-.4-.4-.3-.2-.5-.3-.4-.1-.6-.1-.4 0-.6.1-.3.2-.5.3c-.1.1-.2.3-.3.4-.1.3-.1.6 0 .9 0 .1.1.3.2.4s.1.2.2.4l.3.4c-.2.1-.4.2-.6.4-.2.1-.4.3-.5.4-.1.2-.3.3-.3.5-.1.2-.1.5-.1.7s0 .3.1.5.2.4.3.6c.2.2.4.4.6.5.3.2.7.2 1.1.2.2 0 .4 0 .6-.1.2 0 .4-.1.5-.2.2-.1.3-.2.5-.3.1-.1.3-.3.4-.4l.7.8h1l-1.3-1.5c-.2.2-.2 0-.1-.1zm-2.8-3.9c.2-.1.3-.2.5-.2s.4.1.6.2c.1.1.2.3.2.5 0 .1 0 .3-.1.4s-.1.2-.2.3-.2.2-.3.3l-.3.2-.2-.3-.2-.3c-.1-.1-.1-.2-.2-.3 0-.1-.1-.2-.1-.3.1-.2.1-.4.3-.5zm1.1 5c-.3.1-.5.2-.8.2-.2 0-.3 0-.5-.1s-.3-.1-.4-.2c-.2-.2-.4-.5-.4-.8 0-.2 0-.4.1-.5s.1-.3.3-.4c.1-.1.2-.2.4-.3.1-.1.3-.2.4-.3l1.5 1.9c-.2.2-.4.4-.6.5z"/><path d="m60.5 50.1-2.6 6.7h.9l.8-2h2.8l.7 2h.9l-2.6-6.7zm-.6 4 1.1-3.1 1.1 3.1z"/><path d="m64.8 50.1h1v6.7h-1z"/><path d="m71.6 50.1-2.6 6.7h1l.8-2h2.8l.7 2h1l-2.6-6.7zm-.6 4 1.1-3.1 1.2 3.1z"/><path d="m79 54.7c0 .2 0 .4-.1.6s-.1.3-.3.5c-.1.1-.3.2-.4.3-.2.1-.4.1-.6.1-.3 0-.5-.1-.7-.3s-.3-.4-.3-.7v-3.2h-.8v3.2c0 .2 0 .5.1.7s.1.4.3.6c.1.2.3.3.5.4.3.1.5.1.8.1s.6-.1.9-.2c.3-.2.5-.4.7-.7v.8h.8v-4.9h-.9z"/><path d="m82.1 50.5h-.8v1.5h-.8v.7h.8v3.1c0 .2 0 .4.1.5 0 .1.1.2.2.3s.2.1.4.1h.5.6v-.7h-.4-.3c-.1 0-.1 0-.2-.1l-.1-.1c0-.1 0-.2 0-.2v-3h.9v-.6h-.9z"/><path d="m87.6 52.4c-.1-.2-.3-.3-.5-.4-.3-.1-.5-.1-.8-.1s-.6.1-.9.2c-.1.1-.3.2-.4.3s-.2.2-.3.4v-2.6h-.7v6.7h.8v-2.7c0-.2 0-.4.1-.6s.1-.3.3-.5c.1-.1.3-.3.4-.3.2-.1.4-.1.6-.1.3 0 .5.1.7.3s.3.4.3.7v3.3h.8v-3.2c0-.2 0-.5-.1-.7-.1-.4-.2-.6-.3-.7z"/><path d="m93 52.6c-.2-.2-.5-.4-.7-.5-.3-.1-.7-.2-1-.2-.4 0-.7.1-1 .2s-.5.3-.7.5-.4.5-.4.8c-.1.3-.2.7-.1 1 0 .3 0 .7.1 1s.2.6.4.8.4.4.7.5.7.2 1 .2.7-.1 1-.2.5-.3.7-.5.4-.5.4-.8c.1-.3.2-.7.2-1s0-.7-.2-1c-.1-.3-.2-.6-.4-.8zm-.4 2.6c-.1.2-.2.4-.3.6s-.3.3-.5.4c-.4.2-.8.2-1.2 0-.2-.1-.3-.2-.5-.4-.1-.2-.3-.4-.3-.6-.1-.5-.1-1.1 0-1.6.1-.2.2-.4.3-.6s.3-.3.5-.4c.4-.2.8-.2 1.2 0 .2.1.3.2.5.4.1.2.3.4.3.6.2.5.2 1.1 0 1.6z"/><path d="m95.3 53v-1h-.8v4.9h.8v-2.2c0-.3 0-.6.1-.8s.2-.4.3-.6.3-.3.6-.4.5-.1.8-.1v-.8c-.4 0-.8.1-1.1.3-.3 0-.6.4-.7.7z"/><path d="m97.7 52h1v4.8h-1z"/><path d="m100.9 50.5h-.8v1.5h-.8v.7h.8v3.1c0 .2 0 .4.1.5 0 .1.1.2.2.3s.2.1.4.1h.5.6v-.7h-.4-.3c-.1 0-.1 0-.2-.1l-.1-.1c0-.1 0-.2 0-.2v-3h.9v-.6h-.9z"/><path d="m105.9 52-1.4 4-1.4-4h-.9l1.9 4.8-.3.8c-.1.1-.2.2-.3.3s-.3.1-.4.1-.2 0-.2 0l-.2-.1v.7c.1 0 .2.1.3.1h.3c.2 0 .3 0 .5-.1.1 0 .3-.1.4-.2s.2-.3.3-.4c.1-.2.2-.4.3-.6l2.1-5.5z"/><path d="m23.9 50.1h-.7v1l.7-.5z"/><path d="m98.5 50.1h-.8v1l.8-.5z"/><path d="m1 33.8c.2.1.4.2.6.2.3.1.6.1.9.1h5.7v-3.6h-.7v2.8h-4.6c-.3 0-.5 0-.7 0s-.3-.1-.5-.1c-.1-.1-.2-.1-.2-.3-.1-.1-.1-.3-.1-.5v-1.2h-.8v1.5c0 .2 0 .4.1.6.1.3.2.4.3.5z"/><path d="m9.9 33.9c.1.1.3.2.4.2.2 0 .4.1.5.1h3.8v-3.6h-.8v2.8h-3c-.3 0-.5-.1-.5-.2-.1-.2-.1-.4-.1-.6v-5.2h-.7v5.4c0 .2 0 .4.1.6s.2.4.3.5z"/><path d="m16.4 33.9c.1.1.3.2.4.2.2 0 .4.1.6.1h2.4c.3 0 .6 0 .9-.1.2-.1.4-.3.5-.5 0 .2.2.3.3.4.2.1.4.2.6.2h.8c.3 0 .6 0 .9-.1.2-.1.4-.3.5-.5.1.2.2.3.3.4.2.1.4.2.6.2h.7c.3 0 .6 0 .9-.1.2-.1.4-.3.5-.5 0 .2.1.3.3.4s.4.2.6.2h2.2v-6.7h-.8v5.9h-1.5c-.2 0-.5-.1-.6-.3s-.2-.5-.2-.8v-4.9h-.8v5.2c0 .1 0 .2-.1.4s-.2.3-.4.3h-.3-.8c-.1 0-.3 0-.4-.1s-.2-.1-.3-.2-.1-.2-.1-.3 0-.3 0-.4v-1.8h-.8v2.1.4c0 .1-.1.2-.2.2s-.2.1-.3.1h-.4-.6c-.1 0-.3 0-.4-.1s-.2-.1-.3-.2-.1-.2-.1-.3 0-.3 0-.4v-1.8h-.8v2.1.4c0 .1-.1.2-.2.2s-.2.1-.3.1h-.4-2.3c-.3 0-.5-.1-.5-.2-.1-.2-.1-.4-.1-.6v-5.2h-.4v5.4c0 .2 0 .4.1.6.1.3.1.5.3.6z"/><path d="m34.3 33.1c.2.1.4.2.6.2s.3.1.5.1.3 0 .5 0 .3-.1.5-.1c0 .3.2.6.4.8.1.1.3.1.4.1h.5 3.9v-3.6h-.8v2.8h-3.1c-.3 0-.5-.1-.5-.2-.1-.2-.1-.4-.1-.6v-2.6h-1.5c-.2 0-.5 0-.7.1s-.4.2-.6.3c-.2.2-.3.3-.5.6-.1.3-.2.6-.2.8 0 .3.1.6.2.8zm.5-2.1c.2-.2.5-.2.8-.2h.8v1.7c-.1 0-.3.1-.4.1s-.3 0-.4 0c-.3 0-.6-.1-.8-.2-.2-.2-.3-.4-.3-.7-.1-.4.1-.6.3-.7z"/><path d="m45.7 33.9c.2-.2.3-.5.3-.7 0-.1 0-.3-.1-.4-.1-.2-.2-.4-.3-.5-.1-.2-.3-.5-.5-.7-.2-.3-.4-.7-.7-1.1l-.7.5.8 1.1c.2.3.3.5.4.6s.1.2.2.3v.2c0 .1 0 .2-.1.2-.1.1-.3.1-.4.1h-2.2v.8h2.2c.5-.1.9-.2 1.1-.4z"/><path d="m65.5 33.4h-1.5c-.1 0-.3 0-.4-.1s-.2-.1-.3-.2-.1-.2-.1-.3 0-.3 0-.4v-1.8h-.8v2.1.4c0 .1-.1.2-.2.2s-.1.1-.2.1h-.3c-.2 0-.3 0-.4-.1-.1 0-.2-.1-.3-.2 0-.1 0-.2-.1-.3 0-.1 0-.3 0-.4v-1.4h-.8v1.7c0 .1 0 .2-.1.4 0 .1-.1.2-.2.2s-.2.1-.3.1h-.4c-.2 0-.4 0-.5-.1-.1 0-.2-.1-.3-.2s-.1-.2-.1-.3 0-.3 0-.4v-1.4h-.8v1.7c0 .1 0 .2-.1.4 0 .1-.1.2-.2.2-.1.1-.2.1-.3.1h-.5-1.6c-.2 0-.3 0-.5 0 .3-.2.6-.5.8-.8s.3-.6.3-.9c0-.1 0-.3-.1-.4s-.2-.3-.3-.4-.3-.2-.5-.3-.5-.1-.7-.1c-.3 0-.6.1-.9.2s-.5.3-.7.5l-.1.1c0 .1-.1.1-.1.2s-.1.1-.1.2-.1.1-.1.2l1.2 1.3c-.2.1-.4.1-.7.2-.2 0-.5 0-.7 0h-1.1v-.4c0-.3 0-.7-.1-1s-.2-.5-.3-.8c-.1-.2-.3-.4-.5-.5-.3-.1-.5-.2-.8-.2s-.5.1-.8.2c-.2.1-.4.3-.6.5s-.3.4-.4.6-.1.5-.1.7c0 .3 0 .5.1.8.1.2.2.4.4.5s.4.2.6.3.5.1.7.1h1.1c0 .2-.1.4-.2.6s-.2.3-.4.4-.4.2-.6.2c-.3 0-.5 0-.8 0h-.3v.8h.4c.4 0 .7 0 1.1-.1.3-.1.6-.2.8-.3s.4-.4.5-.6c.1-.3.2-.6.2-.9h1.1c.3 0 .6 0 .9-.1s.6-.2.9-.3c.2.1.3.2.5.3.2 0 .3.1.5.1h1.9.7s.3 0 .5-.1c.1 0 .2-.1.3-.2s.2-.2.2-.3c0 .1 0 .1.1.2l.2.2c.1.1.2.1.4.1s.4.1.6.1c.3 0 .6 0 .8-.1s.4-.3.5-.5c0 .1.1.1.1.2l.2.2c.1.1.2.1.4.2.2 0 .3.1.5.1h.3c.1 0 .2 0 .3-.1.1 0 .2-.1.3-.2s.2-.2.2-.3c.1.2.2.3.3.4.2.1.4.2.6.2h2.3v-6.7h-.8zm-15.8 0h-1c-.3 0-.6-.1-.8-.2-.2-.2-.3-.4-.3-.7 0-.1 0-.3.1-.4 0-.1.1-.3.2-.4s.2-.2.3-.3.3-.1.5-.1c.3 0 .6.1.8.4s.3.7.2 1.1zm3.9-.5-1.1-1.2c.1-.2.3-.3.5-.4s.5-.2.7-.1c.2 0 .5 0 .7.2.1.1.2.2.2.4s-.1.5-.3.7c-.1.1-.4.3-.7.4z"/><path d="m67.6 27.5h1v6.7h-1z"/><path d="m80.3 29h-.6c-.2 0-.3 0-.5-.2-.2-.1-.2-.3-.2-.5 0-.1 0-.3.1-.4s.3-.2.4-.2c.2 0 .3 0 .5.1v-.5h-.2c-.1 0-.2 0-.3 0s-.3 0-.4.1c-.1 0-.2.1-.3.2s-.2.2-.2.3c-.1.1-.1.3-.1.5s.1.5.2.6h-.5v.5h2v-.5z"/><path d="m90.7 27.5h-.8v5.9h-2.8c.2-.2.3-.4.5-.6.1-.3.2-.6.2-.9 0-.2 0-.3-.1-.5s-.1-.3-.3-.5c-.1-.2-.3-.3-.4-.4-.2-.1-.5-.2-.7-.1-.5 0-1 .2-1.3.6-.3.5-.5 1.1-.5 1.7v.5h-.9c-.1 0-.3 0-.4-.1s-.2-.1-.3-.2-.1-.2-.1-.3 0-.3 0-.4v-1.8h-.8v2.1.4c0 .1-.1.2-.2.2s-.2.1-.3.1h-.4-.6c-.1 0-.3 0-.4-.1s-.2-.1-.3-.2-.1-.2-.1-.3 0-.3 0-.4v-1.8h-.9v2.1c0 .1 0 .2-.1.4 0 .1-.1.2-.2.2s-.2.1-.3.1h-.2-2.3c-.3 0-.5-.1-.5-.2-.1-.2-.1-.4-.1-.6v-2.4h-1.5c-.2 0-.5 0-.7.1s-.4.2-.6.3c-.2.2-.3.3-.5.6-.1.3-.2.6-.2.8 0 .3.1.6.2.8s.3.4.5.5.4.2.6.2.3.1.5.1.3 0 .5 0 .3-.1.5-.1c0 .2.1.3.2.5.1.1.2.2.3.3s.3.1.4.1h.5 2.5c.3 0 .6 0 .9-.1.2-.1.4-.3.5-.5 0 .2.2.3.3.4.2.1.4.2.6.2h.8c.3 0 .6 0 .9-.1.2-.1.4-.3.5-.5 0 .2.2.3.3.4.2.1.4.2.6.2h1v.1c0 .3 0 .6.1.9.1.2.1.5.3.7.1.2.3.3.5.4.3.1.5.2.8.2.2 0 .4 0 .6-.1s.3-.2.5-.3c.1-.1.2-.3.3-.4.1-.2.1-.3.1-.5 0-.1 0-.3-.1-.4-.1-.2-.2-.3-.3-.5h3.3zm-16.4 4.9c-.1 0-.3.1-.4.1s-.3 0-.4 0c-.3 0-.6-.1-.8-.2-.2-.2-.3-.4-.3-.6 0-.3.1-.6.3-.7.2-.2.5-.2.8-.2h.8zm11 .4c0-.4.1-.8.3-1.2.1-.3.4-.4.7-.4.2 0 .4.1.5.2.2.2.2.4.2.7 0 .1 0 .3-.1.4 0 .2-.1.3-.2.4s-.2.3-.4.3c-.2.1-.4.1-.6.1h-.4zm1.5 2.8c-.2.1-.4.2-.6.2s-.3 0-.5-.1c-.1-.1-.2-.2-.3-.3s-.1-.3-.1-.4c0-.2 0-.4 0-.6v-.2h.7c.2 0 .4 0 .6.1.1.1.2.1.3.2s.1.2.1.3 0 .2 0 .2c.1.2 0 .4-.2.6z"/><path d="m92 27.5h1v6.7h-1z"/><path d="m6.6 45.5h4.8v-.8h-1.4c-.3 0-.7-.1-.9-.3s-.3-.5-.3-.8.1-.6.3-.8c.3-.2.6-.3.9-.3h.5c.1 0 .3.1.4.1v-.8c-.1 0-.2-.1-.3-.1-.2 0-.4 0-.6 0s-.5 0-.7.1-.5.2-.7.3c-.2.2-.4.4-.5.6 0 .3-.1.6-.1.9 0 .2 0 .4.1.6s.2.3.3.5h-2.1c-.8 0-1.5-.2-2.3-.4v.7l.7.2c.2.1.5.1.7.2s.4.2.5.3.2.2.2.4c0 .1-.1.3-.2.3-.2.1-.3.2-.5.3s-.5.1-.8.2c-.3 0-.6 0-.9 0-.6 0-1.3-.1-1.9-.4-.4-.3-.6-.7-.6-1.2v-1.2h-.6v1.4c0 .3 0 .6.1.9s.3.5.5.7c.3.2.6.4.9.5.5.1 1 .2 1.6.2.5 0 1 0 1.4-.1l.9-.3c.2-.1.4-.3.5-.5s.2-.4.2-.6c0-.1 0-.3-.1-.4.1-.2.1-.3 0-.4z"/><path d="m32 41.8c-.4 0-.8.1-1.2.3s-.7.4-1 .7-.5.6-.8.9c-.2.3-.4.7-.5 1-.1 0-.2 0-.4-.1-.1 0-.2-.1-.2-.2.1-.1.1-.2.1-.3s0-.3 0-.4v-1.3h-.8v1.7c0 .1 0 .2-.1.4 0 .1-.1.2-.2.2-.1.1-.2.1-.3.1h-.5-1v-.8c0-.6-.2-1.1-.5-1.6-.4-.4-.9-.6-1.4-.6s-1 .1-1.5.4-.8.7-1.1 1.2v-4.6h-.8v5.9h-1.1c-.1 0-.3 0-.4-.1-.1 0-.2-.1-.3-.2s-.1-.2-.1-.3 0-.3 0-.4v-1.8h-.8v2.2c0 .1 0 .2-.1.4 0 .1-.1.2-.2.2s-.2.1-.3.1h-.4-2.1c-.3 0-.5-.1-.5-.2-.1-.2-.1-.4-.1-.6v-5.2h-.8v5.4c0 .2 0 .4.1.6s.1.3.3.4c.1.1.3.2.4.2.2 0 .4.1.5.1h2.4c.3 0 .6 0 .9-.1.2-.1.4-.3.5-.5 0 .2.2.3.3.4.2.1.4.2.6.2h7.4.7s.4 0 .5-.1c.1 0 .3-.1.4-.2s.2-.2.2-.3c0 .1.1.1.1.2s.1.1.2.2.2.1.3.1c.2 0 .3.1.5.1h5.1v-1.6c0-.6-.1-1.1-.5-1.6-.4-.4-.9-.6-1.5-.5zm-7.7 2.9h-3.8c.1-.3.2-.5.4-.8.1-.3.3-.5.5-.7s.4-.4.7-.5.5-.2.8-.2c.2 0 .4 0 .6.1s.3.2.4.3.2.3.2.5.1.4.1.6zm9 0h-3.8c.1-.3.2-.5.4-.8s.3-.5.6-.7c.2-.2.5-.4.7-.5.3-.1.5-.2.8-.2.2 0 .4 0 .6.1s.3.2.4.3.2.3.2.5.1.4.1.6z"/><path d="m37.1 40.2v4.5h-2.1v.8h5.3v-6.7h-.8v5.9h-1.6v-4.5z"/><path d="m41.6 38.8h1v6.7h-1z"/><path d="m47.2 44.6c-.2-.2-.3-.4-.2-.6 0-.1 0-.2 0-.3s.1-.2.1-.2c.1-.1.2-.1.2-.2.1 0 .2-.1.4-.1s.5 0 .7.1v-.7l-.3-.1c-.2 0-.3 0-.5 0s-.3 0-.5.1-.3.1-.4.3c-.1.1-.2.3-.3.4-.1.2-.1.4-.1.6 0 .3.1.6.3.9h-.7v.7h2.8v-.7h-.9c-.2 0-.5-.1-.6-.2z"/><path d="m53.3 41.1c0 .1-.1.1-.1.2s-.1.1-.1.2 0 .2-.1.2c.3.2.7.4 1 .6s.6.4.9.6l.6.6c.1.2.2.4.2.6s-.1.4-.2.5c-.2.1-.4.1-.6.1h-3.8c-.3 0-.5-.1-.5-.2-.1-.2-.1-.4-.1-.6v-5.2h-.8v5.4c0 .2 0 .4.1.6s.2.3.3.4.3.2.4.2c.2 0 .4.1.6.1h3.9c.3 0 .5 0 .8-.1.2-.1.3-.2.5-.3.1-.1.2-.3.2-.4s.1-.3.1-.4c0-.2-.1-.4-.1-.6-.1-.2-.2-.5-.4-.6-.2-.3-.5-.5-.8-.7-.4-.3-.7-.5-1.1-.8l2.8-1.2v-.8l-3.6 1.5z"/><path d="m59.7 44.6c-.2.1-.4.1-.6.1h-1.7v.8h1.4.5c.1 0 .3 0 .4-.1.1 0 .3-.1.4-.2s.2-.2.3-.4c.1.2.3.4.5.6.2.1.4.2.6.2h2.2v-6.7h-.7v5.9h-1.5c-.1 0-.2 0-.2-.1-.1-.1-.2-.1-.2-.2-.1-.1-.2-.2-.3-.4l-.3-.5-1.1-1.9-.7.5 1 1.5c.1.1.2.3.2.4.1.1.1.2.1.4-.1 0-.1.1-.3.1z"/><path d="m65.1 38.8h1v6.7h-1z"/><path d="m70.3 46.3c.1-.4.2-.8.2-1.1v-.9c0-.3 0-.6-.1-.9 0-.3-.1-.5-.3-.8-.1-.2-.3-.4-.6-.5s-.5-.2-.8-.2-.5.1-.8.2c-.2.1-.4.3-.6.4-.2.2-.3.4-.4.6s-.1.5-.1.7c0 .3 0 .5.1.8.1.2.2.4.4.5s.3.2.5.3.5.1.7.1.5 0 .7-.1c.2 0 .3-.1.4-.2v.2c0 .2 0 .5-.2.7-.1.2-.2.3-.4.4s-.4.1-.6.2c-.3 0-.5 0-.8 0h-.3v.8h.4c.4 0 .8 0 1.1-.1s.6-.2.9-.3c.3-.3.5-.5.6-.8zm-.6-1.9c-.1.1-.3.2-.4.2-.2.1-.4.1-.6.1-.3 0-.5-.1-.8-.2-.2-.2-.3-.5-.3-.8 0-.1 0-.3.1-.4 0-.1.1-.3.2-.4s.2-.2.3-.3c.2-.1.3-.1.5-.1.3 0 .6.1.8.4.1.1.1.3.2.5 0 .2.1.4.1.6z"/><path d="m83.3 35.1h-.8v1l.8-.5z"/><path d="m82.1 35.1h-.8v1l.8-.5z"/><path d="m74.8 28h-.8v1l.8-.4z"/><path d="m73.5 28h-.8v1l.8-.4z"/><path d="m36.8 28h-.8v1l.8-.4z"/><path d="m35.5 28h-.8v1l.8-.4z"/><path d="m41.9 35.1h-.8v1l.8-.5z"/><path d="m40.7 35.1h-.8v1l.8-.5z"/><path d="m21.8 35.1h-.8v1l.8-.5z"/><path d="m20.6 35.1h-.8v1l.8-.5z"/><path d="m24.2 35.1h-.8v1l.8-.5z"/><path d="m59.4 39.8h-.8v1l.8-.5z"/><path d="m17.9 39.8h-.8v1l.8-.5z"/><path d="m5.5 29h-.8v1l.8-.5z"/><path d="m4.2 29h-.8v1l.8-.5z"/><path d="m4.7 48.3h-.8v1l.8-.5z"/><path d="m3.5 48.3h-.8v1l.8-.5z"/><path d="m14.7 28.5h-.8v.9l.8-.4z"/><path d="m31.4.7h-8.8v21.1h8.7c7.3 0 12.1-4.2 12.1-10.6s-4.7-10.5-12-10.5zm0 16.4h-2.5v-11.6h2.5c1.6-.1 3.1.5 4.2 1.6s1.7 2.6 1.5 4.2c.1 1.5-.5 3.1-1.5 4.2-1.1 1.1-2.6 1.7-4.2 1.6z"/><path d="m60 .7h-9.4l-6.5 21.2h6.7l1.2-4.2 5.8-3.4h-4.9l2.4-8.2 2.5 8.2 2.1 7.5h6.7z"/><path d="m93.6.7h-9.4l-6.6 21.2h6.7l1.2-4.2 5.9-3.4h-5l2.5-8.2 2.5 8.2 2.1 7.5h6.7z"/><path d="m68.9 4.4v17.5h6.4v-21.2z"/><path d="m10.9 8.5c-2.3-.2-4.1-.5-4.1-1.9 0-1.1 1.2-1.9 3-1.9 2.1 0 3.7 1.2 3.6 2.8l4.8-2.8c-1.3-2.8-4.5-4.7-8.6-4.7-5.3 0-9 2.9-9 7.2 0 5 4.1 6.1 8.4 6.6 2.2.3 4.1.5 4.1 2.1 0 1.3-1.2 2.2-3.1 2.2-2.3 0-4-1.3-4-3.1h-5.5c0 1 .2 2 .6 2.9 1.3 2.9 4.6 4.8 8.8 4.8 5.6 0 9.5-3.1 9.5-7.6-.1-5-4.2-6.1-8.5-6.6z"/></g></svg>