<svg fill="none" height="29" width="29" xmlns="http://www.w3.org/2000/svg"><path d="m14.499 14.822c-1.945 0-3.598-.688-4.959-2.063-1.36-1.375-2.04-3.02-2.04-4.937 0-1.944.68-3.597 2.041-4.958s3.013-2.042 4.959-2.042c1.944 0 3.597.68 4.958 2.042 1.361 1.361 2.042 3.014 2.042 4.958 0 1.917-.68 3.562-2.042 4.937-1.361 1.375-3.014 2.063-4.958 2.063zm-13.667 14v-5c0-1.027.257-1.958.772-2.791a5.162 5.162 0 0 1 2.061-1.917 24.133 24.133 0 0 1 5.335-1.98 23.66 23.66 0 0 1 5.5-.645c1.86 0 3.694.215 5.5.645a25.443 25.443 0 0 1 5.333 1.938 5.128 5.128 0 0 1 2.063 1.939 5.32 5.32 0 0 1 .77 2.811v5h-27.334z" fill="#fff"/></svg>