<svg xmlns="http://www.w3.org/2000/svg" width="77.001" height="50.141" viewBox="0 0 77.001 50.141"><path d="M27.95,48.416v-.011a1.738,1.738,0,0,1,1.817-1.736h0a1.737,1.737,0,1,1-1.82,1.747Zm.563-.014a1.246,1.246,0,0,0,1.256,1.273,1.228,1.228,0,0,0,1.248-1.262h0V48.4a1.248,1.248,0,0,0-1.257-1.271A1.234,1.234,0,0,0,28.513,48.4Zm-11.087.014v-.011a1.739,1.739,0,0,1,1.817-1.736h0a1.737,1.737,0,1,1-1.82,1.747Zm.563-.014a1.247,1.247,0,0,0,1.256,1.273,1.228,1.228,0,0,0,1.248-1.262V48.4a1.252,1.252,0,1,0-2.5,0Zm-8.564.011v-.008a1.746,1.746,0,0,1,1.789-1.736,1.924,1.924,0,0,1,1.3.428l-.337.389a1.451,1.451,0,0,0-.989-.352,1.235,1.235,0,0,0-1.2,1.271,1.212,1.212,0,0,0,1.258,1.275,1.533,1.533,0,0,0,.888-.271l.017-.014v-.71h-.912v-.437h1.423l0,0V49.63a2.262,2.262,0,0,1-1.44.511A1.689,1.689,0,0,1,9.426,48.414Zm35.168.253V46.732h.531v1.909a.9.9,0,0,0,.948,1.03.888.888,0,0,0,.944-1.007V46.729h.528v1.906a1.357,1.357,0,0,1-1.481,1.5A1.335,1.335,0,0,1,44.594,48.667Zm-7.168.954.316-.363a1.7,1.7,0,0,0,1.119.428c.4,0,.679-.189.679-.491s-.194-.425-.841-.571c-.744-.175-1.148-.382-1.148-.994,0-.559.481-.953,1.166-.953a1.973,1.973,0,0,1,1.229.4l-.284.385a1.655,1.655,0,0,0-.953-.337c-.369,0-.626.188-.626.465,0,.3.189.428.88.588.8.188,1.107.456,1.107.974h0c0,.6-.482.981-1.225.981A2.2,2.2,0,0,1,37.426,49.621Zm-4.976.462V46.729h2.556v.459H32.98v1.031h1.795v.46H32.98v1.4Zm-7.65,0V47.507l-1.184,1.7-1.168-1.695v2.566h-.522V46.729h.593L23.628,48.4l1.107-1.667h.6v3.353Zm-16.691,0L6.077,47.545v2.537H5.555V46.729h.51L8.043,49.2V46.729h.519v3.353Zm-5.489,0-1.234-1.57-.608.6v.97H.246V46.733H.778v1.8l1.762-1.8h.635l-1.432,1.43,1.515,1.918Zm68.9,0V46.729h.532V50.08Zm-3.746,0V46.729H69.33a1.276,1.276,0,0,1,.9.291.715.715,0,0,1,.228.548.772.772,0,0,1-.483.728l-.1.048.108.038-.009,0c.469.154.675.4.675.8,0,.562-.472.9-1.269.9Zm.519-.445H69.38c.465,0,.734-.188.734-.528,0-.191-.1-.508-.779-.508H68.3Zm0-1.456h.9c.458,0,.717-.188.717-.525,0-.3-.251-.482-.673-.482H68.3Zm-6.032,1.9L61.4,48.9l-.024-.02h-.844v1.2H60V46.729h1.538a1.412,1.412,0,0,1,.995.33.983.983,0,0,1,.281.72,1,1,0,0,1-.815,1l-.061.019.947,1.283Zm-1.733-1.644,0,0H61.5c.472,0,.778-.243.778-.631s-.286-.614-.785-.614h-.959ZM52.563,50.08V46.729h.531V50.08Zm-4.008,0V46.729h1.281a1.683,1.683,0,1,1,0,3.351Zm.531-.46h.75a1.218,1.218,0,1,0,0-2.432h-.75Zm-35.461.46V46.729H14.9a1.683,1.683,0,1,1,0,3.351Zm.528-.46h.75a1.218,1.218,0,1,0,0-2.432h-.75Zm-10.189.46V46.729H4.5V50.08Zm71.817,0-.364-.831H73.671l-.365.831H72.77l1.525-3.373h.517l1.525,3.373Zm-1.921-1.273H75.23l-.687-1.541Zm-7.348,1.273-.359-.831H64.41l-.365.831h-.537l1.526-3.373h.513l1.525,3.373ZM64.6,48.805h1.369l-.688-1.541Zm-5.864,1.273-.36-.831H56.629l-.365.831h-.537l1.526-3.373h.517l1.525,3.373Zm-1.918-1.273h1.369L57.5,47.264ZM43.547,50.079l-.363-.831H41.438l-.363.831h-.54l1.525-3.373h.516L44.1,50.079ZM41.63,48.805H43l-.688-1.541Zm5.916-2.076h0ZM10.668,44.816a4.709,4.709,0,0,1-.508-.155l.157-.465a2.522,2.522,0,0,0,.418.146,1.8,1.8,0,0,0,.413.043,1.062,1.062,0,0,0,.628-.163A.626.626,0,0,0,12,43.68v-.14h-.3a3.206,3.206,0,0,1-.79-.094,1.952,1.952,0,0,1-.658-.288,1.422,1.422,0,0,1-.448-.5,1.523,1.523,0,0,1-.166-.733,1.473,1.473,0,0,1,.15-.66,1.573,1.573,0,0,1,.422-.525,2.078,2.078,0,0,1,.652-.346,2.7,2.7,0,0,1,.841-.125h.8v2.788h1.725l-.879-2.018a4.2,4.2,0,0,1,.416-.319,3.033,3.033,0,0,1,.461-.26,3.1,3.1,0,0,1,.481-.171,2.025,2.025,0,0,1,.487-.063,1.851,1.851,0,0,1,.481.063,2.486,2.486,0,0,1,.482.174,3.564,3.564,0,0,1,.463.26,4.2,4.2,0,0,1,.425.317l-.873,2.018h2.616V40.569h.5v2.488h.965a1.15,1.15,0,0,0,.316-.046.785.785,0,0,0,.268-.146.721.721,0,0,0,.186-.254.95.95,0,0,0,.067-.376V40.567h.5v1.7a.771.771,0,0,0,.08.328.818.818,0,0,0,.206.268.986.986,0,0,0,.312.18,1.18,1.18,0,0,0,.4.066.905.905,0,0,0,.7-.251.939.939,0,0,0,.23-.665V40.563h.5v1.553a1.966,1.966,0,0,1-.044.452.9.9,0,0,0,.392.362,1.6,1.6,0,0,0,.684.12h.812V39.21h.5v4.325H24.91v-.006a1.852,1.852,0,0,1-.356-.042,1.314,1.314,0,0,1-.346-.126.9.9,0,0,1-.233-.176,1.414,1.414,0,0,1-.153-.2,1.027,1.027,0,0,1-.481.465,1.817,1.817,0,0,1-.764.151,1.577,1.577,0,0,1-.74-.162,1.243,1.243,0,0,1-.493-.451,1.26,1.26,0,0,1-.457.4,1.357,1.357,0,0,1-.643.151H12.5v.091a1.234,1.234,0,0,1-.331.9,1.445,1.445,0,0,1-1.058.334A1.956,1.956,0,0,1,10.668,44.816Zm3.893-3.959a1.984,1.984,0,0,0-.587.342l.779,1.849,0,0h.891l.778-1.85a2,2,0,0,0-.56-.323,1.818,1.818,0,0,0-1.3-.023ZM11,40.831a1.465,1.465,0,0,0-.434.24,1.218,1.218,0,0,0-.3.371.989.989,0,0,0-.114.477,1.071,1.071,0,0,0,.105.482,1.047,1.047,0,0,0,.292.354,1.331,1.331,0,0,0,.434.22,1.83,1.83,0,0,0,.525.074h.5v-2.3h-.5A1.516,1.516,0,0,0,11,40.831ZM39.632,44.79l.13-.465a1.172,1.172,0,0,0,.139.032.78.78,0,0,0,.118.005.607.607,0,0,0,.233-.04.3.3,0,0,0,.144-.126.6.6,0,0,0,.074-.228,2.23,2.23,0,0,0,.021-.346V40.249h.5v2.789h1.855l-.879-2.018a3.79,3.79,0,0,1,.413-.32,3.027,3.027,0,0,1,.461-.259,3.128,3.128,0,0,1,.483-.171,2.031,2.031,0,0,1,.487-.063,1.851,1.851,0,0,1,.481.063,2.621,2.621,0,0,1,.481.174,3.671,3.671,0,0,1,.46.26,4.609,4.609,0,0,1,.422.317l-.87,2.018H46.9V39.2h.5v4.325H40.989v.1a2.442,2.442,0,0,1-.048.508,1.053,1.053,0,0,1-.159.385.729.729,0,0,1-.3.242,1.1,1.1,0,0,1-.451.083A1.531,1.531,0,0,1,39.632,44.79Zm3.549-3.945a1.941,1.941,0,0,0-.59.343l.779,1.85v0h.891l.778-1.85a1.971,1.971,0,0,0-.561-.322,1.788,1.788,0,0,0-.667-.131A1.82,1.82,0,0,0,43.18,40.846ZM38.5,44.588v-.494h.51v.494Zm-1.829,0v-.494h.51v.494Zm-.874,0v-.494h.51v.494Zm-30.987,0v-.494h.51v.494Zm-.873,0v-.494h.51v.494ZM69.6,43.911a1.789,1.789,0,0,1-.575-.4H66.83a1.787,1.787,0,0,1-.6.4,1.9,1.9,0,0,1-.743.146,1.79,1.79,0,0,1-1.3-.548H54.308a3.074,3.074,0,0,1-.785-.1,1.883,1.883,0,0,1-.652-.293,1.475,1.475,0,0,1-.449-.506,1.521,1.521,0,0,1-.167-.736,1.485,1.485,0,0,1,.147-.651,1.52,1.52,0,0,1,.413-.519,2.015,2.015,0,0,1,.649-.343,2.742,2.742,0,0,1,.847-.122H55.1v2.788H59.7v-.739a1.445,1.445,0,0,0-.038-.348.67.67,0,0,0-.145-.276.716.716,0,0,0-.277-.189,1.118,1.118,0,0,0-.408-.068H56.3a.8.8,0,0,1-.148-.217.954.954,0,0,1-.076-.271l.956-1.73h.543l-.938,1.735h2.2a1.6,1.6,0,0,1,.617.1,1.28,1.28,0,0,1,.437.314,1.052,1.052,0,0,1,.236.426,1.949,1.949,0,0,1,.074.527v.74h1.587V39.2h.5v3.842h1.581a1.831,1.831,0,0,1-.109-.34,1.672,1.672,0,0,1-.041-.371,1.708,1.708,0,0,1,.136-.688,1.782,1.782,0,0,1,.377-.557,1.757,1.757,0,0,1,.563-.376,1.69,1.69,0,0,1,.7-.139,1.868,1.868,0,0,1,.72.137,1.786,1.786,0,0,1,.575.371,1.714,1.714,0,0,1,.522,1.253,1.65,1.65,0,0,1-.157.711H68.7a1.831,1.831,0,0,1-.109-.34,1.672,1.672,0,0,1-.041-.371,1.708,1.708,0,0,1,.136-.688,1.782,1.782,0,0,1,.377-.557,1.757,1.757,0,0,1,.563-.376,1.709,1.709,0,0,1,.7-.139,1.872,1.872,0,0,1,.72.137,1.773,1.773,0,0,1,.574.371A1.755,1.755,0,0,1,72,41.63a1.733,1.733,0,0,1,.141.7,1.65,1.65,0,0,1-.158.711H73.7l0-.009V39.188h.5v4.324H71.663a1.805,1.805,0,0,1-.6.4,1.91,1.91,0,0,1-.745.146A1.789,1.789,0,0,1,69.6,43.911Zm.206-2.749a1.273,1.273,0,0,0-.4.275,1.258,1.258,0,0,0-.266.4,1.234,1.234,0,0,0-.1.49,1.216,1.216,0,0,0,.1.489,1.249,1.249,0,0,0,.268.4,1.288,1.288,0,0,0,.914.371,1.4,1.4,0,0,0,.519-.095,1.262,1.262,0,0,0,.418-.263,1.248,1.248,0,0,0,.282-.4l-.007.006a1.226,1.226,0,0,0,.1-.5,1.323,1.323,0,0,0-.1-.51,1.247,1.247,0,0,0-.278-.4,1.337,1.337,0,0,0-.415-.265,1.386,1.386,0,0,0-.526-.1A1.272,1.272,0,0,0,69.8,41.162Zm-4.828-.005a1.251,1.251,0,0,0-.667.676,1.257,1.257,0,0,0-.1.491,1.226,1.226,0,0,0,.1.488,1.257,1.257,0,0,0,.672.671,1.29,1.29,0,0,0,.508.1,1.406,1.406,0,0,0,.522-.095,1.243,1.243,0,0,0,.7-.665v.005a1.18,1.18,0,0,0,.1-.5,1.267,1.267,0,0,0-.1-.511,1.231,1.231,0,0,0-.277-.4,1.342,1.342,0,0,0-.416-.266,1.413,1.413,0,0,0-.528-.1A1.261,1.261,0,0,0,64.976,41.157ZM53.6,40.811a1.369,1.369,0,0,0-.433.234,1.207,1.207,0,0,0-.307.368.971.971,0,0,0-.115.474,1.076,1.076,0,0,0,.106.485,1.043,1.043,0,0,0,.289.363,1.328,1.328,0,0,0,.431.225,1.74,1.74,0,0,0,.525.077h.493V40.729H54.1A1.566,1.566,0,0,0,53.6,40.811Zm-25.795,2.72V39.208h.5v4.324Zm47.838-.011V39.2h.5V43.52Zm-69.624,0v-.482H8.357v-1.4a1.289,1.289,0,0,0-.041-.363A.746.746,0,0,0,8.168,41a.771.771,0,0,0-.268-.2.789.789,0,0,0-.342-.077H7.122v-.482h.365a1.512,1.512,0,0,1,.6.105,1.362,1.362,0,0,1,.446.318l.005,0a1.131,1.131,0,0,1,.239.422,1.816,1.816,0,0,1,.076.531v1.9Zm42.82,0V39.193h.5v4.325Zm-15.488,0a3.059,3.059,0,0,1-.785-.1,1.892,1.892,0,0,1-.654-.294,1.469,1.469,0,0,1-.448-.5,1.514,1.514,0,0,1-.168-.737,1.488,1.488,0,0,1,.147-.651,1.531,1.531,0,0,1,.413-.519,1.979,1.979,0,0,1,.646-.342,2.714,2.714,0,0,1,.847-.123h.785v2.789h1.979V40.246h.5v2.789H38.5V40.246h.5l0,0v3.271Zm-.7-2.705a1.39,1.39,0,0,0-.431.234,1.2,1.2,0,0,0-.306.368.961.961,0,0,0-.115.474,1.079,1.079,0,0,0,.106.485,1.033,1.033,0,0,0,.289.363,1.35,1.35,0,0,0,.43.225,1.746,1.746,0,0,0,.526.077h.492V40.726h-.492A1.566,1.566,0,0,0,32.648,40.809ZM2.056,43.514a3.054,3.054,0,0,1-.785-.1,1.943,1.943,0,0,1-.655-.294,1.469,1.469,0,0,1-.448-.5A1.514,1.514,0,0,1,0,41.882a1.489,1.489,0,0,1,.148-.651,1.542,1.542,0,0,1,.413-.519,2.021,2.021,0,0,1,.649-.342,2.71,2.71,0,0,1,.847-.123h.785v2.789H4.82V40.246h.5v3.268Zm-.706-2.705a1.373,1.373,0,0,0-.434.234,1.248,1.248,0,0,0-.3.368.971.971,0,0,0-.115.474A1.079,1.079,0,0,0,.6,42.37a1.043,1.043,0,0,0,.289.363,1.345,1.345,0,0,0,.431.225,1.74,1.74,0,0,0,.525.077h.493V40.726H1.85A1.57,1.57,0,0,0,1.351,40.809Zm3.968-.562v0Zm49.248-.559v-.494h.51v.494Zm-.873,0v-.494h.51v.494Zm-20.066,0v-.494h.51v.494Zm-.873,0v-.494h.51v.494Zm-30.427,0v-.494h.51v.494Zm-.87,0v-.494h.51v.494ZM26.9,36.376l1.24-1.2,1.239,1.2-1.24,1.2Zm1.895-1.518.854-1.135,1.175.825-.854,1.136Zm-3.344-.329,1.175-.825.855,1.139-1.175.825Zm8.89.278.275-1.678,1.732.265-.274,1.677ZM19.918,33.385l1.732-.265.274,1.678-1.732.265Zm12.148.763.449-1.336,1.382.434-.449,1.336Zm-9.691-.905,1.382-.434.448,1.336-1.381.434Zm33.6-8.552v-.054c0-5.443,4.436-9.9,10.544-9.9v0C72.62,14.732,77,19.137,77,24.58v.054c0,5.442-4.437,9.9-10.544,9.9S55.97,30.134,55.97,24.691Zm4.551-.111v.054a5.907,5.907,0,0,0,5.992,6.017,5.815,5.815,0,0,0,5.935-5.962v-.054a5.906,5.906,0,0,0-5.991-6.016A5.815,5.815,0,0,0,60.521,24.58ZM40.007,31.224l3-2.763a6.113,6.113,0,0,0,4.776,2.3c1.641,0,2.8-.9,2.8-2.323v-.054c0-1.559-1.443-2.435-3.874-2.435H44.9l-.679-2.679,6.349-6.177-2.543,1.584H41.17V15.063H54.539v3.172l-5,4.621c2.685.436,5.314,1.806,5.314,5.36v.054c0,3.611-2.714,6.262-7.124,6.262A9.743,9.743,0,0,1,40.007,31.224ZM27.281,33.472l.852-.824.851.824-.851.824ZM0,34.206V30.87l6.588-5.224c2.457-1.969,3.419-3.005,3.419-4.594a2.4,2.4,0,0,0-2.658-2.489c-1.555,0-2.573.819-4.042,2.572L.257,18.754C2.208,16.182,4.1,14.79,7.636,14.79c4.1,0,6.812,2.326,6.812,5.908v.055c0,3.2-1.7,4.783-5.2,7.409L4.922,31.392l-.838.628L7.1,30.57v0h7.543v3.639ZM30.2,33.3l.547-1.038,1.073.528-.546,1.038Zm-5.738-.523,1.074-.528.546,1.038L25,33.81Zm1.719-.669.807-.567.587.781-.807.566Zm2.52.2.586-.781.807.567-.586.781Zm6.253.19v-1.4H36.4v1.4Zm-15.081,0v-1.4h1.452v1.4ZM22,31.28l1.19-.183.188,1.15-1.189.182Zm10.894.959.19-1.15,1.189.184-.19,1.15Zm-1.711-.472.308-.918.95.3-.309.918Zm-7.34-.634.949-.3.308.918-.949.3Zm3.711.152.584-.565.585.565-.585.565Zm-2.137-.5.736-.363.375.713-.737.362Zm4.34.346.374-.712.737.363-.375.712ZM33.34,30.5v-.965h1V30.5Zm-11.406,0v-.965h1V30.5Zm1.6-.842.816-.125.13.789-.816.125Zm8.25.662.13-.79.816.126-.13.789Zm3.163-1.027,1.19-.183.189,1.15-1.189.183Zm-15,.966.189-1.15,1.19.182-.189,1.15Zm-2.234-.627.448-1.336,1.382.434-.448,1.336Zm19.008-.911,1.381-.435.449,1.336-1.381.435Zm1.906-.912,1.564-.771.8,1.511-1.565.771ZM15.3,28.542l.8-1.51,1.564.771-.8,1.51Zm9.846.426a.394.394,0,0,1-.083-.357.426.426,0,0,1,.322-.305.431.431,0,0,1,.442.16c.021-.009.039-.021.059-.031a19.78,19.78,0,0,0,1.826-1.513,7.973,7.973,0,0,0-1.826-1.153,4.8,4.8,0,0,0-1.535-.4,4.521,4.521,0,0,0-1.584.151c-.044.014-.092.025-.139.04-.018.005-.03-.014-.014-.026.041-.023.091-.048.153-.079a4.011,4.011,0,0,1,1.584-.389,4.393,4.393,0,0,1,1.535.212c.067.02.132.043.2.068a6.731,6.731,0,0,1,1.625.931A16.582,16.582,0,0,0,27.8,22.02s-.009,0-.012,0c-.653.4-.47,1.51-.334,1.827,0,.005-.009.012-.012.005a1.917,1.917,0,0,1-.248-2.218c.005-.005,0-.008-.009-.005a1.846,1.846,0,0,0-.655,1.755s-.012.006-.012,0a1.808,1.808,0,0,1,.519-2.286c.006-.005,0-.012-.005-.012a1.517,1.517,0,0,0-1.145,1.488V22.6c0,.006-.012.009-.012,0a1.6,1.6,0,0,1,.014-1.021,1.552,1.552,0,0,1,1.18-.914.006.006,0,1,0,0-.012,1.534,1.534,0,0,0-1.177.306.973.973,0,0,0-.227.271c0,.006-.012,0-.012,0a1,1,0,0,1,.239-.556,1.383,1.383,0,0,1,1.463-.351c.006,0,.009,0,.006-.009a.989.989,0,0,0-1.139-.294c-.005,0-.008-.005-.005-.011a.968.968,0,0,1,1.566.068s.013,0,.013,0c.041-.072.082-.154.121-.24a2.679,2.679,0,0,0,.2-.653c0-.005.012-.005.012,0a2.821,2.821,0,0,0,.2.651c.041.085.083.168.124.243,0,0,.012,0,.012,0a.927.927,0,0,1,.888-.428,1.046,1.046,0,0,1,.368.117,1.1,1.1,0,0,1,.31.243c.006.005,0,.014-.005.011a.879.879,0,0,0-.3-.068,1.116,1.116,0,0,0-.369.043.882.882,0,0,0-.469.322c0,.006,0,.009.009.009a1.182,1.182,0,0,1,.46-.08,1.512,1.512,0,0,1,.369.051,1.338,1.338,0,0,1,.513.263.984.984,0,0,1,.356.673s-.008.009-.012,0a1.033,1.033,0,0,0-.345-.359,1.382,1.382,0,0,0-.513-.2,2.1,2.1,0,0,0-.369-.029,1.677,1.677,0,0,0-.174.009c-.006,0-.009.011,0,.011a1.025,1.025,0,0,1,.176.038,1.523,1.523,0,0,1,.369.159,1.415,1.415,0,0,1,.646,1.735c0,.009-.012.006-.012,0a1.694,1.694,0,0,0-.122-.613,1.5,1.5,0,0,0-.513-.671,1.369,1.369,0,0,0-.369-.188.925.925,0,0,0-.141-.04c-.006,0-.012.005-.006.011a1.8,1.8,0,0,1,.148.134,2.127,2.127,0,0,1,.369.491,1.776,1.776,0,0,1,0,1.661h0s-.009,0-.009-.006c0-.031.009-.059.009-.094a2.6,2.6,0,0,0,0-.427,1.689,1.689,0,0,0-.369-.945,1.708,1.708,0,0,0-.3-.291c-.005-.006-.012,0-.008.005a1.913,1.913,0,0,1-.248,2.218.007.007,0,0,1-.012-.005c.136-.317.319-1.427-.333-1.827,0,0-.009,0-.009,0a16.547,16.547,0,0,0,.086,4.256,9.129,9.129,0,0,1,.823-.548c.122-.068.245-.137.369-.2.145-.068.289-.134.434-.185.03-.012.056-.02.083-.029a4.47,4.47,0,0,1,.817-.205,4.207,4.207,0,0,1,1.887.134,3.579,3.579,0,0,1,.688.288l-.03.005c.015.009,0,.031-.014.026a4.785,4.785,0,0,0-.672-.154,4.5,4.5,0,0,0-1.888.114,5.325,5.325,0,0,0-.817.305c-.174.08-.348.171-.513.266-.124.074-.248.148-.369.229a9.742,9.742,0,0,0-.826.6c.3.248.572.494.826.716.13.114.254.222.369.319a6.164,6.164,0,0,0,.513.4,1.578,1.578,0,0,0,.177.1.435.435,0,0,1,.442-.16.409.409,0,0,1,.2.1.4.4,0,0,1,.121.2.449.449,0,0,1-.082.357c-.012.013-.027.022-.039.034a.687.687,0,0,1-.817.017,3.249,3.249,0,0,1-.513-.346c-.118-.095-.242-.2-.369-.311-.31-.274-.649-.593-1.021-.924-.067-.06-.136-.12-.206-.18-.068.063-.139.122-.207.183a10.043,10.043,0,0,1-2.023,1.633.863.863,0,0,1-.323.071A.578.578,0,0,1,25.143,28.967Zm8.193-.812.816-.126.131.789-.816.126Zm-11.355.663.13-.789.816.125-.13.789Zm12.711-1.094.946-.3.308.918-.946.3Zm-14.383.621.308-.918.946.3-.308.918Zm-1.8-.814.547-1.038,1.073.528-.547,1.038Zm17.641-.519,1.073-.528.546,1.038-1.073.528Zm-1.895-.591.735-.363.376.712-.736.363Zm-13.34.349.374-.712.736.363-.374.712Zm-4.321-.5.853-1.136,1.175.825L17.765,27.1Zm21.063-.328,1.174-.826.854,1.136-1.174.826Zm-2.246-.329.807-.567.587.781-.807.566Zm-15.941.2.586-.781.807.567-.586.781ZM36.559,24.5l.851-.823.851.823-.851.823Zm-18.551,0,.851-.823.851.823-.851.823Zm16.562.008.584-.565.585.564-.584.565ZM20.539,24.5l.585-.565.584.565-.584.565Zm-1.062-1.322.807-.567.586.78-.807.567Zm15.926.2.586-.78.807.567-.586.78Zm-18.816-.646,1.175-.825.854,1.136-1.175.825Zm21.063.3L38.5,21.9l1.174.825-.853,1.136Zm-16.735-.8.736-.364.375.712-.736.364Zm13.343.349.374-.713.737.363-.374.712Zm1.883-.608.547-1.038,1.073.528L37.213,22.5ZM18.5,21.466l1.073-.528.546,1.038-1.073.528Zm20.132-.257.8-1.51,1.564.772-.8,1.51Zm-23.343-.739,1.564-.771.8,1.51-1.565.771Zm5.031.168.946-.3.308.918-.946.3Zm14.359.619.308-.918.946.3-.308.918Zm-12.7-1.076.816-.125.13.789-.816.125Zm11.348.659.13-.789.816.125-.131.789Zm3.394-.575.449-1.336,1.381.434L38.108,20.7Zm-19.012-.9,1.382-.434.448,1.336-1.381.434Zm17.234.345.19-1.15,1.189.184-.189,1.15Zm-15.007-.971,1.19-.183.188,1.15-1.189.183Zm11.844-.058.816-.125.13.789-.816.125Zm-8.25.662.13-.789.816.125-.13.789Zm9.8.122V18.5h1v.965Zm-11.41,0V18.5h1v.965Zm3.488-1.235.375-.712.736.363-.374.712Zm4.328-.359.737-.363.374.712-.736.363Zm-2.191-.158.582-.562.582.563-.582.563Zm3.613-.466.949-.3.308.918-.949.3Zm-7.312.612.308-.917.949.3-.307.918ZM22,17.725l.188-1.15,1.19.182-.189,1.15ZM32.9,16.755l1.189-.183.189,1.15-1.189.183Zm2.05,1.149V16.5H36.4v1.4Zm-15.086,0V16.5h1.453v1.4Zm8.84-1.217.807-.567.587.781-.807.566Zm-2.531.206.586-.78.807.567-.586.78Zm4.019-1.181,1.073-.529.547,1.037-1.073.529Zm-5.727.508.547-1.037,1.073.529-.547,1.037Zm2.816-.7.852-.824.851.824-.851.823Zm4.782-.669,1.382-.434.448,1.336-1.382.434Zm-9.684.9.449-1.336,1.381.434-.448,1.336Zm11.966-1.564,1.732-.266L36.35,15.6l-1.732.265ZM19.914,15.6l.275-1.678,1.732.266-.275,1.678Zm5.543-1.134.854-1.136,1.174.826-.854,1.136Zm3.324-.326,1.175-.825.853,1.136-1.175.825ZM26.89,12.631l1.24-1.2,1.24,1.2-1.24,1.2Zm38.19-.478v-.836h.864v.836Zm-1.729,0v-.836h.865v.836Zm-41.7-5.6V6.528A4.17,4.17,0,0,1,29.984,6.5v.023a4.17,4.17,0,0,1-8.338.023Zm.959-.046v.023a3.191,3.191,0,0,0,3.221,3.265,3.155,3.155,0,0,0,3.2-3.243V6.528A3.191,3.191,0,0,0,25.8,3.263,3.153,3.153,0,0,0,22.606,6.5ZM11.488,9.33l.571-.656a3.968,3.968,0,0,0,2.8,1.119c1.133,0,1.821-.565,1.821-1.345V8.426c0-.734-.41-1.153-2.124-1.5-1.879-.393-2.744-.981-2.744-2.28V4.618c0-1.241,1.133-2.157,2.685-2.157a4.335,4.335,0,0,1,2.871.973l-.537.688a3.676,3.676,0,0,0-2.36-.859c-1.062,0-1.741.565-1.741,1.275v.023c0,.745.422,1.162,2.218,1.535,1.823.385,2.664,1.03,2.664,2.237h0v.023c0,1.355-1.168,2.237-2.791,2.237A4.871,4.871,0,0,1,11.488,9.33Zm57.649,1.145a7.374,7.374,0,0,1-.882-.266l.271-.8a4.123,4.123,0,0,0,.729.251,3.3,3.3,0,0,0,.72.074,1.832,1.832,0,0,0,1.092-.283,1.085,1.085,0,0,0,.389-.941V7.673l-.289.59h-.227A5.616,5.616,0,0,1,69.565,8.1a3.406,3.406,0,0,1-1.142-.5h0a2.479,2.479,0,0,1-.779-.868,2.611,2.611,0,0,1-.286-1.27,2.55,2.55,0,0,1,.259-1.148,2.648,2.648,0,0,1,.729-.911,3.548,3.548,0,0,1,1.13-.6,4.624,4.624,0,0,1,1.461-.22h1.383V8.42a2.128,2.128,0,0,1-.574,1.564,2.491,2.491,0,0,1-1.839.582A3.417,3.417,0,0,1,69.136,10.475Zm-.905-5.018a1.814,1.814,0,0,0,.183.836,1.771,1.771,0,0,0,.508.619,2.284,2.284,0,0,0,.752.383,3.077,3.077,0,0,0,.914.131h.875V3.668l.494-.239h-1.4a2.638,2.638,0,0,0-.848.146,2.425,2.425,0,0,0-.753.413,2.064,2.064,0,0,0-.531.645l.005,0A1.683,1.683,0,0,0,68.231,5.458Zm5.589,5.011.228-.8a1.7,1.7,0,0,0,.239.051,1.867,1.867,0,0,0,.206.012,1.028,1.028,0,0,0,.4-.068.526.526,0,0,0,.247-.22,1.1,1.1,0,0,0,.131-.4,3.845,3.845,0,0,0,.038-.6V2.58h.864V8.44a4.157,4.157,0,0,1-.082.885,1.8,1.8,0,0,1-.274.668,1.25,1.25,0,0,1-.514.422,1.883,1.883,0,0,1-.784.148A2.734,2.734,0,0,1,73.82,10.469ZM3.56,10.538.047,2.575H1.074l.5,1.175,2.4,5.634.23.54-.088-.868L6.9,2.575h.992L4.375,10.538Zm0,0h0Zm34.114-.058L31.883,3.368l.511,1.153v5.96h-.9V2.571h.864l5.529,6.8L37.509,8.4V2.575h.9v7.906Zm-18.538,0V2.575h.923v7.906Zm-9.986,0V2.571h.923v7.909Zm40.645,0a1.884,1.884,0,0,1-.785-.149,1.241,1.241,0,0,1-.513-.422c-.018-.026-.036-.058-.053-.085v.625h-1.8v0a3.88,3.88,0,0,1-4-3.913V6.513A3.916,3.916,0,0,1,46.666,2.58h2.339V8.354a3.833,3.833,0,0,0,.039.6,1.051,1.051,0,0,0,.13.4.522.522,0,0,0,.248.22,1.027,1.027,0,0,0,.4.068H65.092V2.58h.864v7.9ZM43.565,6.494h0v.023a3.072,3.072,0,0,0,3.1,3.14h1.688a1.893,1.893,0,0,1-.136-.414,4.274,4.274,0,0,1-.083-.885V3.631l.531-.254H46.642A3.033,3.033,0,0,0,43.565,6.494ZM37.507,2.575l0,0v0Zm8.89-.831V.907h.865v.837Zm24.041,0V1.059A1.073,1.073,0,0,1,70.7.251,1.079,1.079,0,0,1,71.466,0h.611V.582h-.6a.355.355,0,0,0-.265.071A.382.382,0,0,0,71.148.9v.194h1.189v.644l0,0Zm-22.3,0V.9H49v.837Z" fill="#fff"/></svg>