<?xml version="1.0" encoding="UTF-8" standalone="no" ?>
<!DOCTYPE svg PUBLIC "-//W3C//DTD SVG 1.1//EN" "http://www.w3.org/Graphics/SVG/1.1/DTD/svg11.dtd">
<svg xmlns="http://www.w3.org/2000/svg" xmlns:xlink="http://www.w3.org/1999/xlink" version="1.1" width="24" height="24" viewBox="0 0 1080 1080" xml:space="preserve">
<desc>Created with Fabric.js 5.2.4</desc>
<defs>
</defs>
<g transform="matrix(1 0 0 1 540 540)" id="b304da5a-1f44-430d-8da5-42f1a4884041"  >
<rect style="stroke: none; stroke-width: 1; stroke-dasharray: none; stroke-linecap: butt; stroke-dashoffset: 0; stroke-linejoin: miter; stroke-miterlimit: 4; fill: rgb(255,255,255); fill-rule: nonzero; opacity: 1; visibility: hidden;" vector-effect="non-scaling-stroke"  x="-540" y="-540" rx="0" ry="0" width="1080" height="1080" />
</g>
<g transform="matrix(1 0 0 1 540 540)" id="77478025-76d1-4af4-bc67-343eb3ef546f"  >
</g>
<g transform="matrix(1.13 0 0 1.13 540 540)"  >
<path style="stroke: none; stroke-width: 1; stroke-dasharray: none; stroke-linecap: butt; stroke-dashoffset: 0; stroke-linejoin: miter; stroke-miterlimit: 4; fill: rgb(75,74,145); fill-rule: nonzero; opacity: 1;"  transform=" translate(-480, 480)" d="M 440 -280 L 520 -280 L 520 -440 L 680 -440 L 680 -520 L 520 -520 L 520 -680 L 440 -680 L 440 -520 L 280 -520 L 280 -440 L 440 -440 L 440 -280 Z M 200 -120 Q 167 -120 143.5 -143.5 Q 120 -167 120 -200 L 120 -760 Q 120 -793 143.5 -816.5 Q 167 -840 200 -840 L 760 -840 Q 793 -840 816.5 -816.5 Q 840 -793 840 -760 L 840 -200 Q 840 -167 816.5 -143.5 Q 793 -120 760 -120 L 200 -120 Z M 200 -200 L 760 -200 L 760 -760 L 200 -760 L 200 -200 Z M 200 -760 L 200 -200 L 200 -760 Z" stroke-linecap="round" />
</g>
<g transform="matrix(NaN NaN NaN NaN 0 0)"  >
<g style=""   >
</g>
</g>
</svg>