<svg fill="none" height="70" viewBox="0 0 71 70" width="71" xmlns="http://www.w3.org/2000/svg"><g fill="#fff"><path d="m26.332 23.5418c.0081-.1731.0844-.336.2122-.4531s.2967-.1789.4699-.1719h13.6358c.1732-.007.3422.0548.47.1719.1277.1171.204.28.2121.4531v2.2917h1.6667v-2.2917c-.0084-.6151-.2603-1.2018-.7006-1.6314s-1.033-.667-1.6482-.6603h-13.6358c-.6151-.0067-1.2078.2307-1.6481.6603s-.6923 1.0163-.7006 1.6314v2.2917h1.6666zm-3.3333 33.9583v-28.3333h21.6667v19.7592c.4167-.952.979-1.8334 1.6666-2.6125v-17.1467h1.6667v15.6354c.5229-.3771 1.0811-.7028 1.6667-.9725v-14.6629h6.6666c.221.0002.4328.0881.589.2443.1563.1563.2441.3681.2444.589v13.49c.5781.2055 1.1361.4639 1.6666.7721v-14.2621c-.0007-.6628-.2644-1.2982-.7331-1.7669-.4686-.4686-1.1041-.7323-1.7669-.7331h-45c-.6628.0008-1.2982.2645-1.76688.7331-.46868.4687-.73232 1.1041-.73309 1.7669v26.6667c.00077.6628.26441 1.2983.73309 1.7669.46868.4687 1.10408.7323 1.76688.7331h34.7021c-.4161-.5182-.7797-1.0765-1.0854-1.6667zm-12.5-.8333v-26.6667c.0002-.2209.0881-.4327.2443-.589.1563-.1562.3681-.2441.589-.2443h6.6667v28.3333h-6.6667c-.2209-.0003-.4327-.0882-.5889-.2444s-.2441-.368-.2444-.5889zm9.1667.8333v-28.3333h1.6666v28.3333z"/><path d="m34.4336 40.0977c.3405.0668.6584.219.924.4424.2655.2234.4699.5106.5939.8347.062.2121.2058.391.3996.4972.1939.1062.422.131.6342.069s.391-.2057.4972-.3996.131-.422.069-.6341c-.2092-.6223-.5809-1.1774-1.0765-1.608s-1.0972-.721-1.7426-.8412c-.0209-.0038-.0429-.0063-.0642-.01v-.9488c0-.221-.0878-.4329-.2441-.5892s-.3682-.2441-.5892-.2441-.433.0878-.5893.2441-.2441.3682-.2441.5892v.9575c-.4245.0593-.8326.2041-1.1996.4256-.3669.2215-.6851.5152-.9354.8632-.2925.4439-.4492.9635-.451 1.4952-.0018.5316.1515 1.0522.441 1.4981.6675 1.0646 1.8355 1.3859 2.8659 1.6696 1.05.2888 1.7041.4967 1.9071 1.1071.1962.5958-.3984 1.0208-.7392 1.1617-.3217.1206-.6641.1762-1.0074.1636-.3433-.0127-.6807-.0934-.9926-.2374-.2677-.1092-.5107-.271-.7147-.4758s-.3648-.4486-.4728-.7167c-.0348-.1055-.0904-.2029-.1634-.2866s-.1621-.152-.2618-.2008c-.0998-.0488-.2083-.0771-.3192-.0834-.1109-.0062-.222.0098-.3266.047-.1046.0373-.2008.0951-.2827.1701-.082.075-.1481.1655-.1946.2664s-.0723.2101-.0759.3211c-.0037.111.0149.2216.0546.3254.1812.482.4591.9219.8166 1.2926.3575.3706.787.6643 1.2622.8628.2544.1122.5187.2005.7895.2637v.7767c0 .221.0878.433.2441.5893s.3683.244.5893.244.4329-.0877.5892-.244.2441-.3683.2441-.5893v-.7104c.294-.0462.5816-.1259.8575-.2375 1.4021-.5792 2.1113-1.9354 1.6858-3.2263-.4945-1.4883-1.91-1.8775-3.0475-2.1904-.8087-.2229-1.5725-.4325-1.8958-.9483-.1172-.1721-.1817-.3746-.1856-.5828-.0039-.2081.0529-.4129.1635-.5893.4054-.6021 1.3934-.7262 2.1875-.5833z"/><path d="m28.9596 3.75c.2473 0 .4889-.07331.6945-.21066s.3658-.33258.4604-.56099c.0946-.2284.1193-.47974.0711-.72221-.0482-.24248-.1673-.46521-.3421-.64002-.1748-.17482-.3975-.29387-.64-.3421s-.4938-.02348-.7222.07113-.4237.25483-.561.46039c-.1374.20556-.2107.44723-.2107.69446.0004.33142.1322.64917.3665.88352.2344.23435.5521.36615.8835.36648zm0-1.875c.1236 0 .2445.03666.3473.10533.1027.06868.1829.16629.2302.28049.0473.11421.0596.23987.0355.36111s-.0836.2326-.171.32001-.1988.14694-.32.17105c-.1213.02412-.2469.01174-.3611-.03556-.1142-.04731-.2119-.12742-.2805-.2302-.0687-.10278-.1054-.22362-.1054-.34723.0001-.16573.066-.32463.1832-.44182s.2761-.18307.4418-.18318zm37.5 27.2917c-.1648 0-.3259.0488-.4629.1404-.1371.0916-.2439.2217-.307.374-.063.1523-.0795.3198-.0474.4815.0322.1616.1115.3101.2281.4267.1165.1165.265.1959.4267.228.1616.0322.3292.0157.4814-.0474.1523-.0631.2825-.1699.374-.3069.0916-.1371.1405-.2982.1405-.463-.0003-.2209-.0881-.4328-.2444-.589-.1562-.1562-.368-.2441-.589-.2443zm0 1.25c-.0824 0-.1629-.0245-.2314-.0703-.0686-.0457-.122-.1108-.1535-.1869-.0315-.0762-.0398-.16-.0237-.2408s.0557-.1551.114-.2133c.0583-.0583.1325-.098.2133-.1141.0809-.016.1647-.0078.2408.0238.0761.0315.1412.0849.187.1534s.0702.1491.0702.2315c-.0001.1105-.044.2164-.1222.2945-.0781.0781-.184.1221-.2945.1222zm-25-13.3334c-.1648 0-.3259.0489-.4629.1405-.1371.0915-.2439.2217-.307.374-.063.1522-.0795.3198-.0474.4814.0322.1617.1115.3102.2281.4267.1165.1166.265.1959.4267.2281.1616.0321.3292.0156.4814-.0474.1523-.0631.2825-.1699.374-.307.0916-.137.1405-.2981.1405-.4629-.0003-.221-.0881-.4328-.2444-.589-.1562-.1563-.368-.2441-.589-.2444zm0 1.25c-.0824 0-.1629-.0244-.2315-.0702-.0685-.0458-.1219-.1108-.1534-.187-.0316-.0761-.0398-.1599-.0237-.2407s.0557-.1551.114-.2134c.0583-.0582.1325-.0979.2133-.114.0809-.0161.1646-.0078.2408.0237.0761.0316.1412.085.187.1535s.0702.1491.0702.2315c-.0001.1104-.044.2164-.1222.2945-.0781.0781-.184.122-.2945.1221zm25-13.74997c-.1648 0-.3259.04888-.4629.14045-.1371.09156-.2439.22171-.307.37398-.063.15228-.0795.31983-.0474.48148.0322.16165.1115.31014.2281.42668.1165.11655.265.19591.4267.22807.1616.03215.3292.01565.4814-.04742.1523-.06308.2825-.16989.374-.30693.0916-.13704.1405-.29816.1405-.46297-.0003-.22095-.0881-.43278-.2444-.58901-.1562-.15624-.368-.24411-.589-.24433zm0 1.25c-.0824 0-.1629-.02443-.2314-.07022-.0686-.04578-.122-.11086-.1535-.18699-.0315-.07614-.0398-.15992-.0237-.24074.0161-.08083.0557-.15507.114-.21334s.1325-.09796.2133-.11403c.0809-.01608.1647-.00783.2408.02371.0761.03153.1412.08494.187.15346s.0702.14908.0702.23149c-.0001.11047-.044.21639-.1222.2945-.0781.07812-.184.12205-.2945.12216zm-58.74996 6.24997c0-.1648-.04888-.3259-.14045-.4629-.09156-.1371-.22171-.2439-.37398-.307-.15228-.063-.31983-.0795-.48148-.0474-.16165.0322-.31014.1115-.42668.2281-.11655.1165-.19591.265-.22807.4267-.03215.1616-.01565.3292.04742.4814.06308.1523.16989.2825.30693.374.13704.0916.29815.1405.46297.1405.22095-.0003.43278-.0881.58901-.2444.15624-.1562.24411-.368.24433-.589zm-1.25 0c0-.0824.02443-.1629.07022-.2315.04578-.0685.11086-.1219.18699-.1534.07614-.0316.15991-.0398.24074-.0237s.15507.0557.21334.114.09796.1325.11403.2133c.01608.0809.00783.1646-.02371.2408-.03153.0761-.08494.1412-.15346.187s-.14908.0702-.23149.0702c-.11047-.0001-.21639-.044-.2945-.1222-.07812-.0781-.12205-.184-.12216-.2945z"/><path d="m5.03745 29.172.61958-.8146-.39125-.2216-.39792.9125h-.01291l-.40417-.9063-.39792.2283.61292.7955v.0129l-.95875-.1238v.4434l.965-.1238v.0129l-.61917.795.37125.235.42417-.9191h.01292l.39125.9125.41083-.2346-.62583-.7825v-.0129l.98416.1175v-.4434l-.98416.13zm17.16375-14.56-.3567.4579.2142.135.2442-.5291h.007l.2255.5254.2366-.135-.3604-.4509v-.0075l.5667.068v-.2555l-.5667.075v-.0075l.3567-.4691-.225-.1275-.2292.5254h-.0075l-.2329-.5221-.2292.1317.3529.4579v.0075l-.552-.0713v.2555l.5558-.0713zm43.01 5.6858v-.4345l-.9654.1279v-.0129l.6075-.7992-.3838-.2175-.39.895h-.0129l-.3962-.8888-.3905.2242.6013.78v.0129l-.9404-.1216v.4345l.9467-.1212v.0129l-.6076.78.3646.2304.4159-.9021h.0125l.3837.8955.4029-.23-.6137-.7675v-.013zm-16.0654-11.71954.5241-.68959-.3312-.1875-.3363.77208h-.0112l-.3417-.76666-.337.19333.5187.67292v.01083l-.8108-.10458v.375l.8162-.105v.01125l-.5241.67292.3145.19874.3588-.77791h.0108l.3313.77208.3475-.19833-.5296-.66209v-.01124l.8325.09958v-.375l-.8325.11z"/><path d="m1.33333 62.9167c.46024 0 .83334-.3731.83334-.8334 0-.4602-.3731-.8333-.83334-.8333-.460234 0-.83333.3731-.83333.8333 0 .4603.373096.8334.83333.8334z"/><path d="m5.08333 61.25h-1.25c-.22101 0-.43297.0878-.58925.2441s-.24408.3682-.24408.5892.0878.433.24408.5893.36824.2441.58925.2441h1.25c.22102 0 .43298-.0878.58926-.2441s.24408-.3683.24408-.5893-.0878-.4329-.24408-.5892-.36824-.2441-.58926-.2441zm62.08337 0h-1.25c-.221 0-.433.0878-.5893.2441s-.2441.3682-.2441.5892.0878.433.2441.5893.3683.2441.5893.2441h1.25c.221 0 .4329-.0878.5892-.2441s.2441-.3683.2441-.5893-.0878-.4329-.2441-.5892-.3682-.2441-.5892-.2441z"/><path d="m69.6654 62.9167c.4602 0 .8333-.3731.8333-.8334 0-.4602-.3731-.8333-.8333-.8333-.4603 0-.8334.3731-.8334.8333 0 .4603.3731.8334.8334.8334z"/><path d="m49.729 64.584h-3.4617c-.2098.0163-.4058.1111-.5488.2656s-.2224.3572-.2224.5677.0794.4133.2224.5677c.143.1545.339.2494.5488.2657h3.4617c.2099-.0163.4059-.1112.5488-.2657.143-.1544.2224-.3572.2224-.5677s-.0794-.4132-.2224-.5677c-.1429-.1545-.3389-.2493-.5488-.2656zm-25 0h-3.4617c-.2098.0163-.4058.1111-.5488.2656s-.2224.3572-.2224.5677.0794.4133.2224.5677c.143.1545.339.2494.5488.2657h3.4617c.2099-.0163.4059-.1112.5488-.2657.143-.1544.2224-.3572.2224-.5677s-.0794-.4132-.2224-.5677c-.1429-.1545-.3389-.2493-.5488-.2656zm19.1025 0h-16.6667c-.221 0-.4329.0878-.5892.2441-.1563.1562-.2441.3682-.2441.5892s.0878.433.2441.5893.3682.2441.5892.2441h6.6417v.8333h-3.3083c-.2211 0-.433.0878-.5893.2441-.1563.1562-.2441.3682-.2441.5892s.0878.433.2441.5893.3682.2441.5893.2441h10.4166c.221 0 .433-.0878.5893-.2441s.2441-.3683.2441-.5893-.0878-.433-.2441-.5892c-.1563-.1563-.3683-.2441-.5893-.2441h-3.725v-.8333h6.6417c.221 0 .433-.0878.5893-.2441.1562-.1563.244-.3683.244-.5893s-.0878-.433-.244-.5892c-.1563-.1563-.3683-.2441-.5893-.2441z"/><path d="m62.1667 52.9173c0-1.6482-.4888-3.2593-1.4044-4.6297-.9157-1.3704-2.2172-2.4385-3.7399-3.0693-1.5227-.6307-3.1983-.7957-4.8148-.4742-1.6165.3216-3.1014 1.1152-4.2668 2.2807-1.1655 1.1654-1.9591 2.6503-2.2807 4.2668-.3215 1.6165-.1565 3.292.4742 4.8148.6308 1.5227 1.6989 2.8242 3.0693 3.7398 1.3704.9157 2.9816 1.4045 4.6297 1.4045 2.2094-.0025 4.3276-.8812 5.8899-2.4435s2.441-3.6805 2.4435-5.8899zm-8.3334 6.6667c-1.3185 0-2.6074-.391-3.7038-1.1235-1.0963-.7326-1.9508-1.7738-2.4554-2.992-.5045-1.2181-.6366-2.5586-.3793-3.8518.2572-1.2932.8921-2.4811 1.8245-3.4134.9323-.9324 2.1202-1.5673 3.4134-1.8245 1.2932-.2573 2.6337-.1253 3.8519.3793 1.2181.5046 2.2593 1.3591 2.9919 2.4554.7325 1.0963 1.1235 2.3853 1.1235 3.7038-.002 1.7675-.705 3.4621-1.9548 4.7119s-2.9444 1.9528-4.7119 1.9548z"/><path d="m63.2997 61.2493h-55.6004c-.11855-.0155-.23905-.0055-.35343.0293-.11439.0347-.22003.0935-.30989.1724-.08985.0789-.16184.176-.21115.2849-.04932.109-.07483.2271-.07483.3467s.02551.2377.07483.3467c.04931.1089.1213.206.21115.2849.08986.0789.1955.1377.30989.1725.11438.0347.23488.0447.35343.0292h55.6c.1186.0155.239.0055.3534-.0292.1144-.0348.2201-.0936.3099-.1725.0899-.0789.1619-.176.2112-.2849.0493-.109.0748-.2271.0748-.3467s-.0255-.2377-.0748-.3467c-.0493-.1089-.1213-.206-.2112-.2849-.0898-.0789-.1955-.1377-.3099-.1724-.1144-.0348-.2348-.0448-.3534-.0293z"/></g></svg>