<svg fill="none" height="50" viewBox="0 0 50 50" width="50" xmlns="http://www.w3.org/2000/svg" xmlns:xlink="http://www.w3.org/1999/xlink"><clipPath id="a"><path d="m0 0h50v50h-50z"/></clipPath><g clip-path="url(#a)" fill="#fff"><path d="m16.0172 12.7973 8.981-4.333 8.9809 4.333h2.7399l-11.7208-5.65472-11.7209 5.65472z"/><path d="m.595238 45.2374c.328741 0 .595242-.2665.595242-.5953 0-.3287-.266501-.5952-.595242-.5952s-.595238.2665-.595238.5952c0 .3288.266497.5953.595238.5953z"/><path d="m3.27325 44.0469h-.89286c-.15786 0-.30926.0627-.42089.1743s-.17434.263-.17434.4209.06271.3093.17434.4209.26303.1744.42089.1744h.89286c.15787 0 .30927-.0628.4209-.1744s.17434-.263.17434-.4209-.06271-.3093-.17434-.4209-.26303-.1743-.4209-.1743zm44.34525 0h-.8929c-.1578 0-.3092.0627-.4209.1743-.1116.1116-.1743.263-.1743.4209s.0627.3093.1743.4209c.1117.1116.2631.1744.4209.1744h.8929c.1579 0 .3093-.0628.4209-.1744s.1743-.263.1743-.4209-.0627-.3093-.1743-.4209-.263-.1743-.4209-.1743z"/><path d="m49.4038 45.2374c.3288 0 .5953-.2665.5953-.5953 0-.3287-.2665-.5952-.5953-.5952-.3287 0-.5952.2665-.5952.5952 0 .3288.2665.5953.5952.5953z"/><path d="m35.1658 46.4277h-2.4726c-.1499.0117-.2899.0794-.392.1898-.1022.1103-.1589.2551-.1589.4055 0 .1503.0567.2951.1589.4055.1021.1103.2421.1781.392.1897h2.4726c.1499-.0116.2899-.0794.392-.1897.1022-.1104.1589-.2552.1589-.4055 0-.1504-.0567-.2952-.1589-.4055-.1021-.1104-.2421-.1781-.392-.1898zm-17.8571 0h-2.4727c-.1499.0117-.2899.0794-.392.1898-.1021.1103-.1588.2551-.1588.4055 0 .1503.0567.2951.1588.4055.1021.1103.2421.1781.392.1897h2.4727c.1499-.0116.2899-.0794.392-.1897.1021-.1104.1588-.2552.1588-.4055 0-.1504-.0567-.2952-.1588-.4055-.1021-.1104-.2421-.1781-.392-.1898zm13.6446 0h-11.9048c-.1578 0-.3092.0627-.4209.1744-.1116.1116-.1743.263-.1743.4209 0 .1578.0627.3092.1743.4209.1117.1116.2631.1743.4209.1743h4.7441v.5952h-2.3631c-.1579 0-.3093.0628-.4209.1744s-.1743.263-.1743.4209.0627.3093.1743.4209.263.1743.4209.1743h7.4405c.1578 0 .3092-.0627.4209-.1743.1116-.1116.1743-.263.1743-.4209s-.0627-.3093-.1743-.4209c-.1117-.1116-.2631-.1744-.4209-.1744h-2.6607v-.5952h4.744c.1579 0 .3093-.0627.4209-.1743.1116-.1117.1743-.2631.1743-.4209 0-.1579-.0627-.3093-.1743-.4209-.1116-.1117-.263-.1744-.4209-.1744z"/><path d="m20.3306 2.38142c.1766 0 .3492-.05237.496-.15048.1469-.0981.2613-.23755.3289-.4007s.0852-.34267.0508-.51587c-.0345-.17319-.1195-.332286-.2444-.457155-.1248-.124868-.2839-.209904-.4571-.244355-.1732-.034452-.3528-.01677-.5159.050808s-.3026.182018-.4007.328848c-.0981.146834-.1505.319454-.1505.496044.0003.23673.0944.46369.2618.63108.1674.1674.3944.26154.6311.26178zm0-1.33929c.0883 0 .1746.02618.248.07524.0734.04905.1306.11878.1644.20035s.0427.17134.0254.25793c-.0172.0866-.0597.16615-.1221.22858-.0625.06244-.142.10496-.2286.12218-.0866.01723-.1764.00839-.258-.0254-.0815-.03379-.1513-.09101-.2003-.16443-.0491-.07341-.0752-.15972-.0752-.24802 0-.11838.0471-.23188.1308-.31558.0837-.08371.1972-.13077.3156-.13085zm28.3318 14.73217c-.1177 0-.2328.0349-.3307.1003s-.1741.1584-.2192.2671c-.0451.1088-.0568.2285-.0339.3439.023.1155.0797.2216.1629.3048.0833.0833.1893.1399.3048.1629s.2351.0112.3439-.0339c.1088-.045.2017-.1213.2671-.2192.0655-.0979.1004-.213.1004-.3307-.0002-.1578-.063-.3091-.1745-.4207-.1116-.1116-.263-.1744-.4208-.1745zm0 .8928c-.0588 0-.1164-.0174-.1653-.0501-.049-.0327-.0871-.0792-.1096-.1336-.0226-.0544-.0285-.1142-.017-.1719.0115-.0578.0399-.1108.0815-.1524.0416-.0417.0946-.07.1524-.0815.0577-.0115.1175-.0056.1719.0169.0544.0226.1009.0607.1336.1097.0327.0489.0501.1064.0501.1653 0 .0789-.0314.1546-.0872.2104s-.1315.0872-.2104.0872zm-19.4032-10.71425c-.1178 0-.2329.03491-.3307.10031-.0979.06541-.1742.15837-.2193.26714-.045.10876-.0568.22844-.0338.34391.0229.11546.0796.22153.1629.30477.0832.08325.1893.13994.3047.16291.1155.02296.2352.01117.3439-.03388.1088-.04505.2018-.12134.2672-.21923s.1003-.21297.1003-.3307c-.0002-.15781-.0629-.30912-.1745-.42072-.1116-.11159-.2629-.17436-.4207-.17451zm0 .89285c-.0589 0-.1165-.01745-.1654-.05015-.0489-.03271-.0871-.07919-.1096-.13357s-.0284-.11423-.0169-.17196c.0114-.05773.0398-.11076.0814-.15238.0416-.04163.0947-.06997.1524-.08146.0577-.01148.1176-.00559.1719.01694.0544.02253.1009.06067.1336.10962.0327.04894.0502.10648.0502.16534-.0001.07891-.0315.15457-.0873.21037-.0558.05579-.1314.08717-.2103.08725zm17.8571-6.249996c-.1177 0-.2328.03491-.3307.100315-.0979.065406-.1742.158369-.2192.267135-.0451.108766-.0569.228446-.0339.343916.023.11546.0797.22152.1629.30477.0832.08324.1893.13994.3048.1629.1154.02297.2351.01118.3439-.03387s.2017-.12135.2671-.21923c.0654-.09789.1003-.21297.1003-.3307-.0001-.15782-.0629-.309127-.1745-.420721-.1116-.111595-.2629-.174358-.4207-.174515zm0 .892856c-.0589 0-.1164-.01745-.1653-.05016-.049-.0327-.0871-.07918-.1097-.13356-.0225-.05439-.0284-.11423-.0169-.17196s.0398-.11076.0814-.152387c.0417-.041623.0947-.069968.1524-.081452.0578-.011483.1176-.00559.172.016936.0544.022527.1009.060673.1336.109613.0327.04895.0501.10649.0501.16535-.0001.07891-.0314.15457-.0872.21036-.0558.0558-.1315.08718-.2104.08726zm-43.40239 1.84762c0-.11773-.03491-.23281-.10031-.3307-.06541-.09788-.15837-.17418-.26714-.21923-.10876-.04505-.22844-.05684-.34391-.03387-.11546.02297-.22153.07966-.30477.1629-.08325.08325-.13994.18931-.1629.30477-.02297.11547-.01118.23515.03387.34392.04505.10876.12134.20173.21923.26713.09789.06541.21297.10032.3307.10032.15781-.00016.30912-.06292.42072-.17452.11159-.11159.17436-.2629.17451-.42072zm-.89285 0c0-.05886.01745-.11641.05015-.16535.03271-.04894.07919-.08709.13357-.10961.05438-.02253.11423-.02842.17196-.01694s.11076.03983.15238.08145c.04163.04162.06997.09465.08146.15239.01148.05773.00559.11757-.01694.17195-.02253.05439-.06067.10087-.10962.13357-.04894.0327-.10648.05016-.16534.05016-.07891-.00008-.15457-.03146-.21037-.08726-.05579-.0558-.08717-.13145-.08725-.21036z"/><path d="m1.81749 14.2887.44226-.5818-.27947-.1583-.28393.6518h-.00952l-.28839-.6474-.28453.1631.4381.5682v.0092l-.684822-.0884v.3167l.689282-.0884v.0092l-.44256.5679.26548.1678.30298-.6565h.00922l.27947.6518.29345-.1676-.44702-.5589v-.0092l.70297.0839v-.3167l-.70297.0929zm11.49491-5.61245-.2547.32708.1529.09673.1744-.37828h.0054l.1607.3756.1691-.09673-.2575-.32172v-.00536l.4048.04821v-.18214l-.4048.05357v-.00536l.2548-.33512-.1607-.09136-.1637.37529h-.0054l-.166-.37262-.164.09375.2523.32739v.00535l-.3943-.05089v.18214l.3967-.05089zm30.9953.40714v-.31042l-.6893.09137v-.00922l.4339-.57084-.2741-.15536-.2786.63929h-.0092l-.283-.63482-.2792.16012.4298.55714v.00923l-.6718-.08691v.31042l.6762-.08661v.00923l-.4342.55714.2604.16459.2973-.64435h.009l.2741.63958.2878-.16428-.4384-.54822v-.00922zm-6.5863-5.71667.3744-.49256-.2367-.13393-.2401.55149h-.0081l-.244-.54762-.2408.1381.3706.48065v.00774l-.5792-.0747v.26786l.583-.07471v.00774l-.3744.48066.2247.14196.2563-.55565h.0077l.2366.55148.2482-.14166-.3782-.47292v-.00774l.5946.07084v-.26786l-.5946.07857z"/><path d="m44.8572 44.0478h-.8095v-1.1905c0-.1563-.0308-.3111-.0906-.4556-.0598-.1444-.1475-.2757-.258-.3862-.1106-.1106-.2418-.1983-.3863-.2581-.1444-.0598-.2993-.0906-.4556-.0905h-.4464v-1.1905c-.0005-.2893-.1067-.5683-.2985-.7848s-.4561-.3555-.7432-.3908v-16.0863h.4464c.1578-.0005.3089-.0634.4204-.1749s.1744-.2626.1749-.4204v-2.3809c-.0005-.1577-.0634-.3089-.1749-.4204s-.2626-.1744-.4204-.1748h-.4464v-2.0834h1.4762c.1335.0011.2635-.0426.3692-.124.1057-.0815.1811-.196.2141-.3254l.6012-2.3809c.0219-.0883.0233-.1805.0042-.2694-.0191-.089-.0583-.1724-.1146-.2439-.0563-.0714-.1281-.1291-.2101-.1686-.0819-.0395-.1718-.0598-.2628-.0592h-36.89287c-.09098-.0006-.18088.0197-.26284.0592s-.15382.0972-.21009.1686c-.05627.0715-.09547.1549-.1146.2439-.01914.0889-.0177.1811.0042.2694l.60119 2.3809c.033.1294.10839.2439.21413.3254.10574.0814.23572.1251.3692.124h1.47619v2.0834h-.44643c-.15772.0004-.30885.0633-.42037.1748-.11153.1115-.1744.2627-.17487.4204v2.3809c.00047.1578.06334.3089.17487.4204.11152.1115.26265.1744.42037.1749h.44643v16.0863c-.28707.0353-.55136.1743-.74318.3908s-.29797.4955-.29849.7848v1.1905h-.44642c-.15635-.0001-.31117.0307-.45563.0905-.14445.0598-.2757.1475-.38626.2581-.11055.1105-.19824.2418-.25805.3862-.05981.1445-.09058.2993-.09054.4556v1.1905h-.80952c-.08468-.011-.17075-.0039-.25246.0209-.0817.0249-.15716.0669-.22134.1232-.06418.0564-.1156.1257-.15083.2035-.03522.0778-.05345.1623-.05345.2477s.01823.1698.05345.2476c.03523.0778.08665.1472.15083.2035s.13964.0983.22134.1232c.08171.0248.16778.032.25246.0209h39.71428c.0847.0111.1707.0039.2524-.0209.0818-.0249.1572-.0669.2214-.1232s.1156-.1257.1508-.2035.0535-.1622.0535-.2476-.0183-.1699-.0535-.2477-.0866-.1471-.1508-.2035c-.0642-.0563-.1396-.0983-.2214-.1232-.0817-.0248-.1677-.0319-.2524-.0209zm-37.24405-27.6786-.30059-1.1904h35.37504l-.3006 1.1904zm5.77975 9.2262h.5953v11.3096h-.5953c-.1563-.0001-.3112.0307-.4556.0905-.1445.0598-.2757.1475-.3863.2581-.1105.1105-.1982.2418-.258.3862-.0598.1445-.0906.2993-.0906.4556v1.1905h-2.38091v-16.0714h2.38091v1.1905c0 .1563.0308.3111.0906.4556.0598.1444.1475.2757.258.3862.1106.1106.2418.1983.3863.2581.1444.0598.2993.0906.4556.0905zm17.8572 0h.5952v11.3096h-.5952c-.1564-.0001-.3112.0307-.4557.0905-.1444.0598-.2757.1475-.3862.2581-.1106.1105-.1983.2418-.2581.3862-.0598.1445-.0906.2993-.0905.4556v1.1905h-10.1191v-1.1905c.0001-.1563-.0307-.3111-.0905-.4556-.0598-.1444-.1475-.2757-.2581-.3862-.1105-.1106-.2418-.1983-.3862-.2581-.1445-.0598-.2993-.0906-.4556-.0905h-.5953v-11.3096h.5953c.1563.0001.3111-.0307.4556-.0905.1444-.0598.2757-.1475.3862-.2581.1106-.1105.1983-.2418.2581-.3862.0598-.1445.0906-.2993.0905-.4556v-1.1905h10.1191v1.1905c-.0001.1563.0307.3111.0905.4556.0598.1444.1475.2757.2581.3862.1105.1106.2418.1983.3862.2581.1445.0598.2993.0906.4557.0905zm5.3571 11.3096h-.5952v-11.3096h.5952c.1563.0001.3112-.0307.4556-.0905.1445-.0598.2757-.1475.3863-.2581.1105-.1105.1982-.2418.258-.3862.0598-.1445.0906-.2993.0906-.4556v-1.1905h2.3809v16.0714h-2.3809v-1.1905c0-.1563-.0308-.3111-.0906-.4556-.0598-.1444-.1475-.2757-.258-.3862-.1106-.1106-.2418-.1983-.3863-.2581-.1444-.0598-.2993-.0906-.4556-.0905zm0 1.1904v1.1905h-5.3571v-1.1905zm-3.5714-1.1904v-11.3096h1.7857v11.3096zm3.5714-12.5h-5.3571v-1.1905h5.3571zm-17.8571 13.6904v1.1905h-5.3572v-1.1905zm-3.5715-1.1904v-11.3096h1.7857v11.3096zm3.5715-12.5h-5.3572v-1.1905h5.3572zm22.4702 16.0714v1.1905h-32.44048v-1.1905zm-32.44048-18.4524v-1.1905h32.44048v1.1905zm1.04167-2.3809v-2.0834h30.35711v2.0834zm33.03571 24.4047h-35.71428v-1.1905h35.71428z"/><path d="m28.5725 29.464v9.8214h-1.1904v-9.8214c0-.6315-.2509-1.2371-.6974-1.6836s-1.0521-.6973-1.6836-.6973-1.2371.2508-1.6836.6973-.6973 1.0521-.6973 1.6836v9.8214h-1.1905v-9.8214c0-.9472.3763-1.8556 1.046-2.5254.6698-.6697 1.5782-1.046 2.5254-1.046s1.8556.3763 2.5254 1.046c.6698.6698 1.046 1.5782 1.046 2.5254z"/></g></svg>