<svg fill="none" height="70" viewBox="0 0 70 70" width="70" xmlns="http://www.w3.org/2000/svg" xmlns:xlink="http://www.w3.org/1999/xlink"><clipPath id="a"><path d="m0 0h70v70h-70z"/></clipPath><g clip-path="url(#a)"><path d="m22.4257 17.9167 12.5733-6.0663 12.5733 6.0663h3.8359l-16.4092-7.9167-16.4092 7.9167z" fill="#6258a6"/><g fill="#8696de"><path d="m.833333 63.3327c.460237 0 .833337-.3731.833337-.8334 0-.4602-.3731-.8333-.833337-.8333s-.833333.3731-.833333.8333c0 .4603.373096.8334.833333.8334z"/><path d="m4.58333 61.666h-1.25c-.22101 0-.43297.0878-.58925.2441s-.24408.3682-.24408.5892c0 .2211.0878.433.24408.5893s.36824.2441.58925.2441h1.25c.22102 0 .43298-.0878.58926-.2441s.24408-.3682.24408-.5893c0-.221-.0878-.4329-.24408-.5892s-.36824-.2441-.58926-.2441zm62.08337 0h-1.25c-.221 0-.433.0878-.5893.2441s-.2441.3682-.2441.5892c0 .2211.0878.433.2441.5893s.3683.2441.5893.2441h1.25c.221 0 .4329-.0878.5892-.2441s.2441-.3682.2441-.5893c0-.221-.0878-.4329-.2441-.5892s-.3682-.2441-.5892-.2441z"/><path d="m69.1654 63.3327c.4602 0 .8333-.3731.8333-.8334 0-.4602-.3731-.8333-.8333-.8333-.4603 0-.8334.3731-.8334.8333 0 .4603.3731.8334.8334.8334z"/></g><path d="m49.229 65h-3.4617c-.2098.0163-.4058.1111-.5488.2656s-.2224.3572-.2224.5677.0794.4133.2224.5678c.143.1544.339.2493.5488.2656h3.4617c.2099-.0163.4059-.1112.5488-.2656.143-.1545.2224-.3573.2224-.5678s-.0794-.4132-.2224-.5677c-.1429-.1545-.3389-.2493-.5488-.2656zm-25 0h-3.4617c-.2098.0163-.4058.1111-.5488.2656s-.2224.3572-.2224.5677.0794.4133.2224.5678c.143.1544.339.2493.5488.2656h3.4617c.2099-.0163.4059-.1112.5488-.2656.143-.1545.2224-.3573.2224-.5678s-.0794-.4132-.2224-.5677c-.1429-.1545-.3389-.2493-.5488-.2656zm19.1025 0h-16.6667c-.221 0-.4329.0878-.5892.2441s-.2441.3682-.2441.5892.0878.433.2441.5893.3682.2441.5892.2441h6.6417v.8333h-3.3083c-.2211 0-.433.0878-.5893.2441s-.2441.3682-.2441.5892.0878.433.2441.5893.3682.2441.5893.2441h10.4166c.221 0 .433-.0878.5893-.2441s.2441-.3683.2441-.5893-.0878-.4329-.2441-.5892-.3683-.2441-.5893-.2441h-3.725v-.8333h6.6417c.221 0 .433-.0878.5892-.2441.1563-.1563.2441-.3683.2441-.5893s-.0878-.4329-.2441-.5892c-.1562-.1563-.3682-.2441-.5892-.2441z" fill="#6258a6"/><path d="m28.4613 3.33398c.2472 0 .4889-.07331.6944-.21066.2056-.13735.3658-.33257.4604-.56098s.1194-.47974.0711-.72222c-.0482-.24247-.1672-.4652-.3421-.64002-.1748-.17481-.3975-.293865-.64-.342097-.2425-.048231-.4938-.023477-.7222.071133-.2284.094614-.4236.254824-.561.460384-.1373.20556-.2106.44724-.2106.69446.0003.33142.1321.64917.3664.88352.2344.23435.5521.36615.8836.36648zm0-1.875c.1236 0 .2444.03666.3472.10534.1028.06867.1829.16628.2302.28049.0473.1142.0597.23987.0355.36111-.0241.12123-.0836.2326-.171.32001-.0874.0874-.1988.14693-.32.17105-.1213.02411-.2469.01173-.3611-.03557-.1142-.04731-.2118-.12741-.2805-.23019s-.1053-.22362-.1053-.34724c.0001-.16572.0659-.32463.1831-.44181.1172-.11719.2761-.18307.4419-.18319zm39.6645 20.62502c-.1648 0-.3259.0489-.4629.1404-.1371.0916-.2439.2217-.307.374-.063.1523-.0795.3198-.0474.4815.0322.1616.1115.3101.2281.4267.1165.1165.265.1959.4267.228.1616.0322.3292.0157.4814-.0474.1523-.0631.2825-.1699.374-.3069.0916-.137.1405-.2982.1405-.463-.0002-.2209-.0881-.4328-.2443-.589-.1563-.1562-.3681-.2441-.5891-.2443zm0 1.25c-.0824 0-.1629-.0245-.2315-.0702-.0685-.0458-.1219-.1109-.1534-.187-.0315-.0762-.0398-.1599-.0237-.2408.0161-.0808.0557-.155.114-.2133s.1325-.098.2134-.114c.0808-.0161.1646-.0079.2407.0237.0761.0315.1412.0849.187.1534.0458.0686.0702.1491.0702.2315-.0001.1105-.044.2164-.1222.2945-.0781.0781-.184.1221-.2945.1222zm-27.1645-15.00002c-.1649 0-.326.04888-.463.14045-.1371.09156-.2439.22171-.307.37399-.063.15227-.0795.31982-.0474.48147.0322.16165.1116.31014.2281.42668.1165.11655.265.19592.4267.22807.1616.03216.3292.01566.4815-.04742.1522-.06308.2824-.16989.3739-.30693.0916-.13704.1405-.29815.1405-.46297-.0002-.22095-.0881-.43278-.2443-.58901-.1563-.15624-.3681-.2441-.589-.24433zm0 1.25001c-.0825 0-.163-.02444-.2315-.07023-.0686-.04578-.122-.11085-.1535-.18699s-.0398-.15991-.0237-.24074c.0161-.08082.0558-.15507.114-.21334.0583-.05827.1325-.09796.2134-.11403.0808-.01608.1646-.00783.2407.02371.0761.03153.1412.08494.187.15346s.0702.14908.0702.23149c-.0001.11047-.044.21639-.1221.2945-.0782.07812-.1841.12205-.2945.12217zm25-8.750005c-.1649 0-.326.048874-.463.140442-.1371.091563-.2439.221713-.3069.373993-.0631.15227-.0796.31982-.0475.48147.0322.16165.1116.31014.2281.42668.1165.11655.265.19592.4267.22807.1616.03215.3292.01565.4815-.04742.1522-.06308.2824-.16989.3739-.30693.0916-.13704.1405-.29815.1405-.46297-.0002-.22095-.0881-.43278-.2443-.58901-.1563-.156236-.3681-.244104-.589-.244325zm0 1.249995c-.0825 0-.163-.02443-.2315-.07022-.0685-.04578-.122-.11085-.1535-.18699s-.0398-.15991-.0237-.24074c.0161-.08082.0558-.15507.114-.21334.0583-.05827.1325-.09796.2134-.11403.0808-.01608.1646-.00783.2407.02371.0761.03153.1412.08494.187.15346s.0702.14908.0702.23149c-.0001.11047-.044.21639-.1221.2945-.0782.07812-.1841.12205-.2945.12216zm-60.76338 2.58667c0-.16482-.04888-.32593-.14044-.46297-.09157-.13704-.22172-.24386-.37399-.30693-.15228-.06307-.31983-.07957-.48148-.04742s-.31014.11152-.42668.22807c-.11655.11654-.19591.26503-.22807.42668-.03215.16165-.01565.3292.04742.48147.06308.15228.16989.28243.30693.37399.13704.09157.29816.14044.46297.14044.22095-.00022.43278-.08808.58902-.24432.15623-.15623.2441-.36806.24432-.58901zm-1.25 0c0-.08241.02443-.16297.07022-.23149.04578-.06852.11086-.12192.18699-.15346.07614-.03153.15992-.03979.24074-.02371.08083.01608.15507.05576.21334.11403.05827.05828.09796.13252.11403.21334.01608.08083.00783.16461-.02371.24074-.03153.07614-.08494.14121-.15346.187-.06852.04578-.14908.07022-.23149.07022-.11047-.00011-.21639-.04405-.2945-.12216-.07812-.07812-.12205-.18404-.12216-.29451z" fill="#8696de"/><path d="m2.54526 20.0039.61917-.8146-.39125-.2217-.3975.9125h-.01334l-.40375-.9062-.39833.2283.61333.7954v.0129l-.95875-.1237v.4433l.965-.1237v.0129l-.61958.795.37167.235.42416-.9192h.01292l.39125.9125.41083-.2346-.62583-.7825v-.0129l.98417.1175v-.4433l-.98417.13zm16.09294-7.8575-.3567.4579.2142.1354.2441-.5296h.0075l.225.5258.2367-.1354-.3604-.4504v-.0075l.5667.0675v-.255l-.5667.075v-.0075l.3567-.4692-.225-.1279-.2292.5254h-.0075l-.2325-.5216-.2296.1312.3533.4584v.0075l-.552-.0713v.255l.5554-.0712zm43.3933.57v-.4346l-.965.1279v-.0129l.6075-.7992-.3837-.2175-.39.895h-.013l-.3962-.8887-.3908.2241.6016.78v.0129l-.9404-.1216v.4346l.9467-.1213v.0129l-.6079.78.3645.2304.4163-.902h.0125l.3837.8954.403-.23-.6138-.7675v-.0129zm-9.2208-8.00338.5241-.68958-.3312-.1875-.3363.77208h-.0112l-.3417-.76667-.3371.19334.5188.67291v.01084l-.8108-.10459v.375l.8162-.10458v.01083l-.5242.67292.3146.19875.3588-.77792h.0108l.3313.77209.3475-.19834-.5296-.66208v-.01083l.8325.09916v-.375l-.8325.11z" fill="#6258a6"/><path d="m62.7993 61.6673h-1.1333v-1.6666c0-.2189-.0431-.4357-.1268-.6379s-.2065-.386-.3613-.5408c-.1547-.1547-.3385-.2775-.5407-.3612-.2023-.0838-.419-.1269-.6379-.1268h-.625v-1.6667c-.0007-.4049-.1493-.7956-.4179-1.0987-.2685-.3031-.6385-.4976-1.0404-.5471v-22.5208h.625c.2208-.0007.4324-.0887.5885-.2448.1561-.1562.2441-.3678.2448-.5886v-3.3333c-.0007-.2208-.0887-.4324-.2448-.5885-.1561-.1562-.3677-.2442-.5885-.2448h-.625v-2.9167h2.0666c.1869.0015.3689-.0596.5169-.1737.1481-.114.2536-.2744.2998-.4555l.8417-3.3333c.0306-.1236.0326-.2526.0058-.3771-.0268-.1246-.0816-.2413-.1604-.3414s-.1794-.1808-.2941-.2361c-.1148-.0553-.2406-.0837-.368-.0829h-51.65c-.12737-.0008-.25322.0276-.36797.0829s-.21535.136-.29413.2361-.13366.2168-.16044.3414c-.02679.1245-.02478.2535.00587.3771l.84167 3.3333c.0462.1811.15175.3415.29978.4555.14804.1141.33002.1752.51692.1737h2.0666v2.9167h-.625c-.2208.0006-.4324.0886-.5885.2448-.1561.1561-.2441.3677-.2448.5885v3.3333c.0007.2208.0887.4324.2448.5886.1561.1561.3677.2441.5885.2448h.625v22.5208c-.4019.0495-.7719.244-1.0404.5471-.2686.3031-.4172.6938-.4179 1.0987v1.6667h-.625c-.21888-.0001-.43564.043-.63787.1268-.20223.0837-.38599.2065-.54076.3612-.15478.1548-.27754.3386-.36128.5408s-.12681.419-.12676.6379v1.6666h-1.13333c-.11855-.0155-.23905-.0055-.35343.0293-.11439.0348-.22003.0936-.30989.1725-.08985.0789-.16184.176-.21115.2849-.04932.1089-.07483.2271-.07483.3467 0 .1195.02551.2377.07483.3466.04931.1089.1213.2061.21115.285.08986.0788.1955.1376.30989.1724.11438.0348.23488.0448.35343.0293h55.6c.1185.0155.239.0055.3534-.0293s.2201-.0936.3099-.1724c.0899-.0789.1619-.1761.2112-.285s.0748-.2271.0748-.3466c0-.1196-.0255-.2378-.0748-.3467s-.1213-.206-.2112-.2849c-.0898-.0789-.1955-.1377-.3099-.1725s-.2349-.0448-.3534-.0293zm-52.1417-38.75-.4208-1.6666h49.525l-.4208 1.6666zm8.0917 12.9167h.8333v15.8333h-.8333c-.2189 0-.4356.0431-.6379.1268-.2022.0837-.386.2065-.5407.3613-.1548.1547-.2776.3385-.3613.5407-.0837.2023-.1268.419-.1268.6379v1.6667h-3.3333v-22.5h3.3333v1.6666c0 .2189.0431.4357.1268.6379s.2065.386.3613.5408c.1547.1547.3385.2775.5407.3612.2023.0838.419.1269.6379.1268zm25 0h.8333v15.8333h-.8333c-.2189 0-.4356.0431-.6379.1268-.2022.0837-.386.2065-.5407.3613-.1548.1547-.2776.3385-.3613.5407-.0838.2023-.1268.419-.1268.6379v1.6667h-14.1666v-1.6667c0-.2189-.0431-.4356-.1268-.6379-.0837-.2022-.2065-.386-.3613-.5407-.1547-.1548-.3385-.2776-.5407-.3613-.2023-.0837-.419-.1268-.6379-.1268h-.8333v-15.8333h.8333c.2189.0001.4356-.043.6379-.1268.2022-.0837.386-.2065.5407-.3612.1548-.1548.2776-.3386.3613-.5408s.1268-.419.1268-.6379v-1.6666h14.1666v1.6666c0 .2189.043.4357.1268.6379.0837.2022.2065.386.3613.5408.1547.1547.3385.2775.5407.3612.2023.0838.419.1269.6379.1268zm7.5 15.8333h-.8333v-15.8333h.8333c.2189.0001.4356-.043.6379-.1268.2022-.0837.386-.2065.5407-.3612.1548-.1548.2776-.3386.3613-.5408s.1268-.419.1268-.6379v-1.6666h3.3333v22.5h-3.3333v-1.6667c0-.2189-.0431-.4356-.1268-.6379-.0837-.2022-.2065-.386-.3613-.5407-.1547-.1548-.3385-.2776-.5407-.3613-.2023-.0837-.419-.1268-.6379-.1268zm0 1.6667v1.6667h-7.5v-1.6667zm-5-1.6667v-15.8333h2.5v15.8333zm5-17.5h-7.5v-1.6666h7.5zm-25 19.1667v1.6667h-7.5v-1.6667zm-5-1.6667v-15.8333h2.5v15.8333zm5-17.5h-7.5v-1.6666h7.5zm31.4583 22.5v1.6667h-45.4166v-1.6667zm-45.4166-25.8333v-1.6667h45.4166v1.6667zm1.4583-3.3333v-2.9167h42.5v2.9167zm46.25 34.1666h-50v-1.6666h50z" fill="#8696de"/><path d="m40 41.25v13.75h-1.6667v-13.75c0-.8841-.3512-1.7319-.9763-2.357s-1.4729-.9763-2.357-.9763-1.7319.3512-2.357.9763-.9763 1.4729-.9763 2.357v13.75h-1.6667v-13.75c0-1.3261.5268-2.5979 1.4645-3.5355.9376-.9377 2.2094-1.4645 3.5355-1.4645s2.5979.5268 3.5355 1.4645c.9377.9376 1.4645 2.2094 1.4645 3.5355z" fill="#6258a6"/></g></svg>