<svg fill="none" height="21" viewBox="0 0 20 21" width="20" xmlns="http://www.w3.org/2000/svg"><path d="m19 7.99988c.1313.00003.2614-.02581.3827-.07606.1214-.05024.2316-.1239.3245-.21676.0928-.09287.1665-.20312.2167-.32446.0503-.12134.0761-.25139.0761-.38272v-3c.0001-.20983-.0659-.41435-.1886-.58456s-.2959-.29745-.495-.36368l-9-3.0000044c-.2054-.0683592-.42741-.0683592-.63281 0l-9 3.0000044c-.199097.06623-.372281.19347-.494984.36368-.1227028.17021-.18869213.37473-.18860592.58456v3c-.00003416.13133.02580842.26138.07605102.38272.0502429.12134.1239009.23159.2167659.32446.092866.09286.203118.16652.324459.21676.121341.05025.251393.07609.382724.07606h1v7.18422c-.58326.2055-1.088635.5864-1.446733 1.0906s-.55136453 1.1068-.55326692 1.7252v2c-.00003416.1313.02580842.2614.07605102.3827.0502429.1213.1239009.2316.2167659.3245.092866.0928.203118.1665.324459.2167.121341.0503.251393.0761.382724.0761h18c.1313 0 .2614-.0258.3827-.0761.1214-.0502.2316-.1239.3245-.2167.0928-.0929.1665-.2032.2167-.3245.0503-.1213.0761-.2514.0761-.3827v-2c-.0019-.6184-.1952-1.221-.5533-1.7252s-.8634-.8851-1.4467-1.0906v-7.18422zm-1 11.00002h-16v-1c.00026-.2652.10571-.5194.29319-.7068.18747-.1875.44167-.293.70681-.2932h14c.2651.0002.5193.1057.7068.2932.1875.1874.2929.4416.2932.7068zm-14-4v-7.00002h2v7.00002zm4 0v-7.00002h4v7.00002zm6 0v-7.00002h2v7.00002zm-12-9.00002v-1.2793l8-2.667 8 2.667v1.2793z" fill="#989fb2"/></svg>