<svg fill="none" height="27" viewBox="0 0 28 27" width="28" xmlns="http://www.w3.org/2000/svg"><path d="m7.00389 8c-.35779 0-.70091.14048-.9539.39052-.25299.25005-.39512.58919-.39512.94281 0 .35363.14213.69277.39512.94277.25299.2501.59611.3906.9539.3906h1.34902c.35778 0 .70091-.1405.9539-.3906.25299-.25.39512-.58914.39512-.94277 0-.35362-.14213-.69276-.39512-.94281-.25299-.25004-.59612-.39052-.9539-.39052zm6.74511 16h-9.44315c-.35778 0-.70091-.1405-.9539-.3905-.25299-.2501-.39512-.5892-.39512-.9428v-18.6667c0-.35362.14213-.69276.39512-.94281s.59612-.39052.9539-.39052h6.74505v4c0 1.06086.4264 2.07828 1.1854 2.82842.759.75011 1.7884 1.17161 2.8617 1.17161h4.0471v1.3333c0 .3536.1421.6928.3951.9428.253.2501.5961.3905.9539.3905s.7009-.1404.9539-.3905c.253-.25.3951-.5892.3951-.9428v-2.66667s0 0 0-.08c-.014-.12248-.0412-.24316-.0809-.36v-.12c-.0649-.13709-.1514-.26311-.2564-.37333l-8.0941-8c-.1115-.103712-.239-.189225-.3777-.253333-.0403-.005654-.0811-.005654-.1214 0l-.4317-.146667h-8.17505c-1.07335 0-2.10273.421427-2.8617 1.17157-.758975.75015-1.185361 1.76756-1.185361 2.82843v18.6667c0 1.0608.426386 2.0782 1.185361 2.8284.75897.7501 1.78835 1.1716 2.8617 1.1716h9.44315c.3578 0 .7009-.1405.9539-.3906.253-.25.3951-.5891.3951-.9428 0-.3536-.1421-.6927-.3951-.9428-.253-.25-.5961-.3905-.9539-.3905zm0-19.45333 3.4939 3.45333h-2.1449c-.3578 0-.7009-.14048-.9539-.39052-.253-.25005-.3951-.58919-.3951-.94281zm11.9118 13.01333c-1.0287-.97-2.3959-1.5111-3.8177-1.5111s-2.789.5411-3.8177 1.5111c-.7541.7461-1.2674 1.6964-1.4751 2.7308-.2078 1.0344-.1005 2.1065.3081 3.0807.4085.9742 1.1002 1.8068 1.9874 2.3926.8873.5857 1.9303.8984 2.9973.8984s2.11-.3127 2.9973-.8984c.8872-.5858 1.5789-1.4184 1.9875-2.3926s.5158-2.0463.308-3.0807c-.2077-1.0344-.721-1.9847-1.4751-2.7308zm-6.5157 3.7733c0-.7072.2842-1.3855.7902-1.8856s1.1922-.781 1.9078-.781c.2324.0029.4634.0343.688.0933l-3.2916 3.2533c-.0597-.2219-.0914-.4503-.0944-.68zm4.6001 1.88c-.3344.322-.7476.5527-1.1993.6695-.4516.1169-.9262.1159-1.3773-.0028l3.2781-3.2267c.0597.222.0914.4504.0944.68-.003.7061-.2892 1.3822-.7959 1.88zm-11.3452-1.88c.3577 0 .7009-.1404.9539-.3905.253-.25.3951-.5892.3951-.9428s-.1421-.6928-.3951-.9428c-.253-.2501-.5962-.3905-.9539-.3905h-5.39611c-.35779 0-.70091.1404-.9539.3905-.25299.25-.39512.5892-.39512.9428s.14213.6928.39512.9428c.25299.2501.59611.3905.9539.3905zm2.698-8h-8.09411c-.35779 0-.70091.1405-.9539.3906-.25299.25-.39512.5891-.39512.9428 0 .3536.14213.6927.39512.9428.25299.25.59611.3905.9539.3905h8.09411c.3578 0 .7009-.1405.9539-.3905.253-.2501.3951-.5892.3951-.9428 0-.3537-.1421-.6928-.3951-.9428-.253-.2501-.5961-.3906-.9539-.3906z" fill="#6258a6"/></svg>