<svg fill="none" height="80" viewBox="0 0 80 80" width="80" xmlns="http://www.w3.org/2000/svg"><g fill="#6258a6"><path d="m13.75 21.25c-1.4834 0-2.9334-.4399-4.16677-1.264s-2.19467-1.9954-2.76232-3.3659c-.56766-1.3704-.71619-2.8784-.4268-4.3333.28939-1.4548 1.0037-2.7912 2.05259-3.8401 1.0489-1.04889 2.3853-1.7632 3.8401-2.05259 1.4549-.28939 2.9629-.14086 4.3333.4268 1.3705.56765 2.5418 1.52895 3.3659 2.76232s1.264 2.68337 1.264 4.16677c-.002 1.9885-.7928 3.895-2.1989 5.3011s-3.3126 2.1969-5.3011 2.1989zm0-12.5c-.9889 0-1.9556.29325-2.7778.84266-.8223.54944-1.46316 1.33034-1.84159 2.24394-.37844.9136-.47746 1.9189-.28453 2.8889.19292.9699.66913 1.8608 1.36842 2.56.6992.6993 1.5901 1.1755 2.5601 1.3684.9699.193 1.9752.0939 2.8888-.2845.9137-.3784 1.6945-1.0193 2.244-1.8415.5494-.8223.8426-1.789.8426-2.7779 0-1.3261-.5268-2.5978-1.4645-3.5355-.9376-.93771-2.2094-1.4645-3.5355-1.4645z"/><path d="m18.75 62.5h-10c-1.65699-.002-3.24555-.6611-4.41723-1.8328-1.17167-1.1716-1.83079-2.7602-1.83277-4.4172 0-.663.26339-1.2989.73223-1.7678.46884-.4688 1.10473-.7322 1.76777-.7322h17.5c.663 0 1.2989.2634 1.7678.7322.4688.4689.7322 1.1048.7322 1.7678-.002 1.657-.6611 3.2456-1.8328 4.4172-1.1716 1.1717-2.7602 1.8308-4.4172 1.8328zm-13.75-6.25c0 .9946.39509 1.9484 1.09835 2.6516.70326.7033 1.65709 1.0984 2.65165 1.0984h10c.9946 0 1.9484-.3951 2.6517-1.0984.7032-.7032 1.0983-1.657 1.0983-2.6516z"/><path d="m3.75 57.5c-.33152 0-.64946-.1317-.88388-.3661s-.36612-.5524-.36612-.8839v-35c0-.3315.1317-.6495.36612-.8839s.55236-.3661.88388-.3661.64946.1317.88388.3661.36612.5524.36612.8839v35c0 .3315-.1317.6495-.36612.8839s-.55236.3661-.88388.3661z"/><path d="m13.75 75c-.3315 0-.6495-.1317-.8839-.3661s-.3661-.5524-.3661-.8839v-12.5c0-.3315.1317-.6495.3661-.8839s.5524-.3661.8839-.3661.6495.1317.8839.3661.3661.5524.3661.8839v12.5c0 .3315-.1317.6495-.3661.8839s-.5524.3661-.8839.3661z"/><path d="m20 75h-12.5c-.33152 0-.64946-.1317-.88388-.3661s-.36612-.5524-.36612-.8839.1317-.6495.36612-.8839.55236-.3661.88388-.3661h12.5c.3315 0 .6495.1317.8839.3661s.3661.5524.3661.8839-.1317.6495-.3661.8839-.5524.3661-.8839.3661z"/><path d="m72.5 75h-12.5c-.3315 0-.6495-.1317-.8839-.3661s-.3661-.5524-.3661-.8839.1317-.6495.3661-.8839.5524-.3661.8839-.3661h12.5c.3315 0 .6495.1317.8839.3661s.3661.5524.3661.8839-.1317.6495-.3661.8839-.5524.3661-.8839.3661z"/><path d="m35.4363 75c-1.1174.0012-2.2068-.35-3.1131-1.0034-.9064-.6535-1.5837-1.5761-1.9357-2.6366l-4.5225-13.5625c-.1499-.4507-.4379-.8427-.8232-1.1204-.3852-.2778-.8481-.4272-1.323-.4271h-11.2188c-1.657-.002-3.24555-.6611-4.41723-1.8328-1.17167-1.1716-1.83079-2.7602-1.83277-4.4172v-23.75c0-2.5763 3.8875-3.75 7.5-3.75s7.5 1.1737 7.5 3.75v3.75h10c1.3261 0 2.5979.5268 3.5355 1.4645.9377.9376 1.4645 2.2094 1.4645 3.5355s-.5268 2.5979-1.4645 3.5355c-.9376.9377-2.2094 1.4645-3.5355 1.4645h-10v5h4.75c1.7951.0039 3.5459.5582 5.0162 1.5882 1.4703 1.0299 2.5893 2.486 3.2063 4.1718l6.215 17.0987c.2923.8039.3865 1.6663.2747 2.5143-.1117.848-.4262 1.6566-.9168 2.3572-.4905.7007-1.1427 1.2728-1.9013 1.6679s-1.6025.6016-2.4578.6019zm-21.6863-50c-3.105 0-4.8425.9425-5.01125 1.3175l.01125 23.6825c0 .9946.39509 1.9484 1.09835 2.6516.70325.7033 1.65705 1.0984 2.65165 1.0984h11.2188c.9988-.0011 1.9727.3122 2.7835.8956.8108.5833 1.4174 1.407 1.734 2.3544l4.5212 13.5638c.1861.5634.5452 1.0538 1.0261 1.4014.481.3477 1.0592.5348 1.6527.5348.4536-.0003.9005-.1098 1.3028-.3194s.7482-.513 1.0084-.8845c.2602-.3716.4271-.8004.4865-1.2501s.0096-.9071-.1452-1.3335l-6.2138-17.0975c-.4407-1.2046-1.2402-2.245-2.2908-2.9808s-2.3016-1.1317-3.5842-1.1342h-6c-.3315 0-.6495-.1317-.8839-.3661s-.3661-.5524-.3661-.8839v-6.25h-1.3962c-1.3119.0013-2.5908-.4108-3.6551-1.1778s-1.8599-1.8498-2.2737-3.0947l-1.36-4.0825c-.0519-.1559-.07252-.3206-.0608-.4845.0118-.1639.0557-.3239.1293-.4709.0736-.1469.1754-.2779.2996-.3855.1243-.1076.2685-.1897.4244-.2416s.3206-.0725.4845-.0608c.1639.0118.3239.0557.4709.1293.1469.0736.2779.1754.3855.2996.1076.1243.1897.2685.2416.4244l1.36 4.0812c.2488.746.7257 1.3949 1.3634 1.855.6378.4601 1.404.708 2.1904.7088h13.8962c.663 0 1.2989-.2634 1.7678-.7322.4688-.4689.7322-1.1048.7322-1.7678s-.2634-1.2989-.7322-1.7678c-.4689-.4688-1.1048-.7322-1.7678-.7322h-11.25c-.3315 0-.6495-.1317-.8839-.3661s-.3661-.5524-.3661-.8839v-5c-.1575-.3075-1.895-1.25-5-1.25z"/><path d="m66.25 21.25c-1.4834 0-2.9334-.4399-4.1668-1.264-1.2333-.8241-2.1946-1.9954-2.7623-3.3659-.5677-1.3704-.7162-2.8784-.4268-4.3333.2894-1.4548 1.0037-2.7912 2.0526-3.8401 1.0489-1.04889 2.3853-1.7632 3.8401-2.05259 1.4549-.28939 2.9629-.14086 4.3333.4268 1.3705.56765 2.5418 1.52895 3.3659 2.76232s1.264 2.68337 1.264 4.16677c-.002 1.9885-.7928 3.895-2.1989 5.3011s-3.3126 2.1969-5.3011 2.1989zm0-12.5c-.9889 0-1.9556.29325-2.7778.84266-.8223.54944-1.4632 1.33034-1.8416 2.24394s-.4774 1.9189-.2845 2.8889c.1929.9699.6691 1.8608 1.3684 2.56.6992.6993 1.5901 1.1755 2.5601 1.3684.9699.193 1.9752.0939 2.8888-.2845.9137-.3784 1.6945-1.0193 2.244-1.8415.5494-.8223.8426-1.789.8426-2.7779 0-1.3261-.5268-2.5978-1.4645-3.5355-.9376-.93771-2.2094-1.4645-3.5355-1.4645z"/><path d="m71.25 62.5h-10c-1.657-.002-3.2456-.6611-4.4172-1.8328-1.1717-1.1716-1.8308-2.7602-1.8328-4.4172 0-.663.2634-1.2989.7322-1.7678.4689-.4688 1.1048-.7322 1.7678-.7322h17.5c.663 0 1.2989.2634 1.7678.7322.4688.4689.7322 1.1048.7322 1.7678-.002 1.657-.6611 3.2456-1.8328 4.4172-1.1716 1.1717-2.7602 1.8308-4.4172 1.8328zm-13.75-6.25c0 .9946.3951 1.9484 1.0984 2.6516.7032.7033 1.657 1.0984 2.6516 1.0984h10c.9946 0 1.9484-.3951 2.6516-1.0984.7033-.7032 1.0984-1.657 1.0984-2.6516z"/><path d="m76.25 57.5c-.3315 0-.6495-.1317-.8839-.3661s-.3661-.5524-.3661-.8839v-35c0-.3315.1317-.6495.3661-.8839s.5524-.3661.8839-.3661.6495.1317.8839.3661.3661.5524.3661.8839v35c0 .3315-.1317.6495-.3661.8839s-.5524.3661-.8839.3661z"/><path d="m66.25 75c-.3315 0-.6495-.1317-.8839-.3661s-.3661-.5524-.3661-.8839v-12.5c0-.3315.1317-.6495.3661-.8839s.5524-.3661.8839-.3661.6495.1317.8839.3661.3661.5524.3661.8839v12.5c0 .3315-.1317.6495-.3661.8839s-.5524.3661-.8839.3661z"/><path d="m44.5636 75c-.8554-.0003-1.698-.2068-2.4566-.6019s-1.4108-.9672-1.9014-1.6679c-.4905-.7006-.805-1.5092-.9168-2.3572s-.0175-1.7104.2747-2.5143l6.2176-17.0987c.6167-1.6852 1.7352-3.1408 3.2047-4.1707 1.4696-1.0299 3.2195-1.5846 5.014-1.5893h4.75v-5h-10c-1.3261 0-2.5978-.5268-3.5355-1.4645-.9377-.9376-1.4645-2.2094-1.4645-3.5355s.5268-2.5979 1.4645-3.5355c.9377-.9377 2.2094-1.4645 3.5355-1.4645h10v-3.75c0-2.5763 3.8875-3.75 7.5-3.75s7.5 1.1737 7.5 3.75v23.75c-.002 1.657-.6611 3.2456-1.8328 4.4172-1.1716 1.1717-2.7602 1.8308-4.4172 1.8328h-11.2187c-.475-.0001-.9379.1493-1.3231.4271-.3853.2777-.6733.6697-.8232 1.1204l-4.5225 13.5625c-.352 1.0605-1.0293 1.9831-1.9357 2.6366-.9063.6534-1.9957 1.0046-3.113 1.0034zm9.4362-27.5c-1.2826.0025-2.5336.3984-3.5842 1.1342s-1.8501 1.7762-2.2908 2.9808l-6.2137 17.0975c-.1549.4264-.2047.8838-.1453 1.3335s.2263.8785.4865 1.2501c.2602.3715.6061.6749 1.0084.8845s.8492.3191 1.3029.3194c.5926.0004 1.1703-.1858 1.6511-.5322.4809-.3465.8404-.8355 1.0276-1.3978l4.5213-13.5638c.3154-.9485.9216-1.7736 1.7325-2.3581s1.7853-.8987 2.785-.8981h11.2187c.9946 0 1.9484-.3951 2.6517-1.0984.7032-.7032 1.0983-1.657 1.0983-2.6516v-23.75c-.1575-.3075-1.895-1.25-5-1.25s-4.8425.9425-5.0112 1.3175l.0112 4.9325c0 .3315-.1317.6495-.3661.8839s-.5524.3661-.8839.3661h-11.25c-.663 0-1.2989.2634-1.7678.7322-.4688.4689-.7322 1.1048-.7322 1.7678s.2634 1.2989.7322 1.7678c.4689.4688 1.1048.7322 1.7678.7322h13.8963c.7872.0003 1.5545-.2472 2.1932-.7073.6388-.4602 1.1165-1.1097 1.3655-1.8565l1.36-4.0812c.0519-.1559.134-.3001.2416-.4244.1076-.1242.2386-.226.3855-.2996.147-.0736.307-.1175.4709-.1293.1639-.0117.3286.0089.4845.0608s.3001.134.4244.2416c.1242.1076.226.2386.2996.3855.0736.147.1175.307.1293.4709.0117.1639-.0089.3286-.0608.4845l-1.365 4.0812c-.4136 1.2452-1.2091 2.3283-2.2734 3.0955s-2.3433 1.1795-3.6553 1.1783h-1.3963v6.25c0 .3315-.1317.6495-.3661.8839s-.5524.3661-.8839.3661z"/><path d="m53.75 40h-30c-.3315 0-.6495-.1317-.8839-.3661s-.3661-.5524-.3661-.8839.1317-.6495.3661-.8839.5524-.3661.8839-.3661h30c.3315 0 .6495.1317.8839.3661s.3661.5524.3661.8839-.1317.6495-.3661.8839-.5524.3661-.8839.3661z"/></g></svg>