<svg fill="none" height="80" viewBox="0 0 80 80" width="80" xmlns="http://www.w3.org/2000/svg" xmlns:xlink="http://www.w3.org/1999/xlink"><clipPath id="a"><path d="m0 0h80v80h-80z"/></clipPath><g clip-path="url(#a)" fill="#6258a6"><path d="m4 76.0001h17.3333v1.3333c0 .7073.281 1.3855.7811 1.8856s1.1784.7811 1.8856.7811h32c.7072 0 1.3855-.281 1.8856-.7811s.7811-1.1783.7811-1.8856v-1.3333h17.3333c1.0609 0 2.0783-.4214 2.8284-1.1716.7502-.7501 1.1716-1.7675 1.1716-2.8284 0-9.3053-1.7333-23.704-1.748-23.8667-.2509-1.835-1.0378-3.5552-2.2622-4.9448-1.2244-1.3897-2.8317-2.3871-4.6205-2.8672 1.2753-1.67 1.9654-3.7134 1.964-5.8146v-2.3467c.0182-2.4957-.9543-4.8966-2.7039-6.6763-1.7497-1.7797-4.1338-2.7928-6.6294-2.817-1.2324-.0013-2.4525.2451-3.5879.7245s-2.1628 1.182-3.0214 2.0661c-1.7507 1.7914-2.7287 4.198-2.724 6.7027v2.3467c-.0042 2.5069.9753 4.9155 2.728 6.708 1.2922 1.3262 2.9535 2.233 4.768 2.6026-.3685.5881-.6594 1.2213-.8654 1.884l-.48 1.6c-.3554-.5973-.8594-1.0924-1.4629-1.4373s-1.286-.5277-1.9811-.5307h-10.3346c-1.9408-1.7182-4.4433-2.6668-7.0354-2.6668s-5.0945.9486-7.0353 2.6668h-10.3413c-.6951.0037-1.3774.187-1.9807.5324-.6032.3453-1.1069.8408-1.462 1.4383l-.4813-1.6c-.2055-.6629-.4964-1.2962-.8654-1.884 1.8165-.3704 3.4793-1.2792 4.772-2.608 1.7513-1.792 2.7294-4.1997 2.724-6.7053v-2.3467c.0042-2.507-.9753-4.9155-2.728-6.708-.8585-.8827-1.8856-1.5841-3.0202-2.0625s-2.3537-.7242-3.5851-.7228c-2.4956.0242-4.8797 1.0373-6.62936 2.817-1.74968 1.7797-2.7221 4.1806-2.70397 6.6763v2.3467c-.00169 2.1017.68849 4.1455 1.964 5.816-1.79088.4819-3.39962 1.4819-4.62449 2.8745-1.22487 1.3925-2.01136 3.1157-2.26085 4.9535-.012.1453-1.74533 14.544-1.74533 23.8493 0 1.0609.421427 2.0783 1.17157 2.8284.75015.7502 1.76756 1.1716 2.82843 1.1716zm10.7373-15.376c.6185.6443 1.3606 1.1573 2.1819 1.5083s1.705.5327 2.5981.5344h7.816c.6313-.0008 1.2559-.1303 1.8354-.3807.5796-.2503 1.102-.6162 1.5353-1.0753.4337.7737.9622 1.4904 1.5733 2.1333-1.7986.6716-3.3805 1.8203-4.576 3.3227h-14.768c-.2475 0-.4849-.0984-.6599-.2734-.1751-.175-.2734-.4124-.2734-.66.0009-.1592.0432-.3154.1227-.4533zm34.5587.5867c.4333.4591.9557.825 1.5353 1.0753.5795.2504 1.2041.3799 1.8354.3807h7.816c.8931-.0017 1.7768-.1834 2.5981-.5344s1.5634-.864 2.1819-1.5083l2.6106 4.6493c.0817.1396.1254.2983.1267.46 0 .2476-.0983.485-.2734.66-.175.175-.4124.2734-.6599.2734h-14.76c-1.2054-1.4969-2.7896-2.6437-4.588-3.3214.6125-.6431 1.1424-1.3602 1.5773-2.1346zm2.2173 9.456h-23.0466c.2337-.6789.5623-1.3212.976-1.908.7346-1.0586 1.715-1.9232 2.8571-2.5197 1.142-.5966 2.4117-.9074 3.7002-.9057h8c1.6489.0082 3.2551.5247 4.5997 1.4791 1.3445.9544 2.362 2.3004 2.9136 3.8543zm-29.4386 2.6666h-8.7414c-.3536 0-.6927-.1405-.9428-.3905-.25-.2501-.3905-.5892-.3905-.9428v-2.8c.3038.0857.6177.1306.9333.1333h13.1814c-.1863.4665-.3383.946-.4547 1.4347-.7459.1473-1.4518.4524-2.0701.8949-.6184.4424-1.135 1.012-1.5152 1.6704zm33.9253 4h-32v-1.3333c0-.7073.281-1.3855.781-1.8856.5001-.5001 1.1784-.7811 1.8857-.7811h26.6666c.7073 0 1.3856.281 1.8857.7811s.781 1.1783.781 1.8856zm1.9253-4c-.38-.6583-.8964-1.2278-1.5146-1.6702-.6181-.4424-1.3237-.7476-2.0694-.8951-.1235-.489-.2822-.9685-.4746-1.4347h13.2c.3156-.0027.6295-.0476.9333-.1333v2.8c0 .3536-.1405.6927-.3905.9428-.2501.25-.5892.3905-.9428.3905zm17.6814-24.8613c.0186.1413 1.7266 14.384 1.7266 23.528 0 .3536-.1404.6927-.3905.9428-.25.25-.5892.3905-.9428.3905h-5.5787c.158-.427.2409-.8781.2454-1.3333v-6.2667c-.0009-.6168-.1607-1.2229-.464-1.76l-3.3334-5.9426 2.36-5.5054c.1335-.3239.1341-.6873.0017-1.0117-.1324-.3243-.3871-.5836-.7091-.7216-.322-.1381-.6854-.1438-1.0116-.0161-.3262.1278-.589.3788-.7316.6988l-2.6187 6.1013c-.3085.7196-.8213 1.3328-1.475 1.7637s-1.4194.6605-2.2023.6603h-7.816c-.5305 0-1.0392-.2107-1.4142-.5858-.3751-.3751-.5858-.8838-.5858-1.4142s.2107-1.0392.5858-1.4142c.375-.3751.8837-.5858 1.4142-.5858h5.3493c.8613.004 1.7006-.2718 2.3917-.7859s1.1965-1.2387 1.4403-2.0648l2-6.6813c.3247-1.1022.9989-2.069 1.9209-2.7547.9221-.6857 2.0421-1.053 3.1911-1.0466 1.6216.004 3.1871.5936 4.4084 1.6603s2.0162 2.5387 2.2383 4.145zm-18.2734-13.9653v-2.3467c-.0043-1.8081.7015-3.5457 1.9654-4.8387.6103-.6295 1.3411-1.13 2.1487-1.4715.8077-.3415 1.6757-.5171 2.5526-.5165 1.7886.0236 3.4948.7555 4.7446 2.0352 1.2497 1.2797 1.9409 3.0029 1.9221 4.7915v2.3467c.0055 1.0899-.2496 2.1654-.7441 3.1368-.4944.9713-1.214 1.8104-2.0986 2.4472-1.1385.1635-2.2277.573-3.192 1.2-.2098.0254-.4207.0397-.632.0426-.8758.0008-1.7429-.1743-2.5497-.5149-.8069-.3406-1.5372-.8397-2.1476-1.4677-1.2658-1.2943-1.973-3.0337-1.9694-4.844zm1.212 14.1746 1.212 2.152-.464 1.5494c-.0823.2747-.251.5156-.4811.6869s-.5094.2637-.7962.2637h-5.3493c-.6934.0039-1.3769.1639-2 .468v-.468c.0008-1.8736-.4952-3.7139-1.4374-5.3333h8.144c.2385-.0016.473.0608.6791.1806s.3763.2927.4929.5007zm-18.5453-3.348c2.1217 0 4.1566.8429 5.6569 2.3432 1.5002 1.5003 2.3431 3.5351 2.3431 5.6568v2.6667c-.0036 1.3285-.338 2.6352-.9731 3.8022-.635 1.1669-1.5506 2.1573-2.6642 2.8818-.1214 0-.24-.0173-.3627-.0173h-8c-.12 0-.236.0173-.356.0213-1.1154-.7241-2.0327-1.7148-2.669-2.8825-.6362-1.1678-.9713-2.4757-.975-3.8055v-2.6667c.0021-2.1211.8457-4.1547 2.3455-5.6545s3.5334-2.3434 5.6545-2.3455zm-18.5493 3.356c.1165-.2095.287-.3839.4939-.5052.2068-.1212.4423-.1848.6821-.1841h8.1506c-.9455 1.6184-1.4439 3.459-1.444 5.3333v.468c-.6231-.3041-1.3066-.4641-2-.468h-5.3493c-.2867.0001-.5658-.0922-.7958-.2632-.2301-.171-.399-.4116-.4815-.6861l-.464-1.5493zm-12.11737-16.5293c-.01886-1.7886.67237-3.5118 1.92207-4.7915 1.2498-1.2797 2.956-2.0116 4.7446-2.0352.8758-.0007 1.7429.1744 2.5497.515.8069.3405 1.5372.8396 2.1476 1.4677 1.2658 1.2942 1.973 3.0337 1.9694 4.844v2.3467c.0043 1.8081-.7015 3.5456-1.9654 4.8386-.6103.6296-1.3411 1.13-2.1487 1.4715-.8077.3415-1.6757.5172-2.5526.5165-.2109-.0042-.4214-.0198-.6307-.0466-.9648-.6268-2.0544-1.0363-3.1933-1.2-.8841-.6364-1.6033-1.4749-2.0977-2.4455-.49449-.9706-.74989-2.0453-.74497-3.1345zm-4.94266 16.328c.21969-1.6092 1.01372-3.0847 2.2357-4.1545s2.78952-1.6618 4.41363-1.6668c1.1484-.0055 2.2674.3622 3.1887 1.0478.9212.6856 1.5948 1.6519 1.9193 2.7535l2 6.6813c.244.8268.75 1.5519 1.4419 2.066.6919.5142 1.5321.7896 2.3941.7847h5.3493c.5305 0 1.0392.2107 1.4142.5858.3751.375.5858.8838.5858 1.4142s-.2107 1.0391-.5858 1.4142c-.375.3751-.8837.5858-1.4142.5858h-7.816c-.7829.0002-1.5486-.2294-2.2023-.6603s-1.1665-1.0441-1.475-1.7637l-2.6147-6.1013c-.0673-.1634-.1664-.3118-.2915-.4365-.1252-.1248-.2739-.2234-.4375-.2902-.1635-.0667-.3388-.1003-.5155-.0988-.1767.0016-.3513.0382-.5137.1079-.1624.0696-.3093.1708-.4323.2977-.1229.1269-.2194.277-.2838.4415-.0644.1646-.0955.3403-.0915.5169.0041.1767.0432.3507.1152.5121l2.36 5.5054-3.34137 5.9506c-.30115.5349-.45956 1.1382-.46 1.752v6.2667c.00442.4552.08742.9063.24534 1.3333h-5.57867c-.35362 0-.69276-.1405-.94281-.3905-.25005-.2501-.39052-.5892-.39052-.9428 0-9.144 1.708-23.3867 1.724-23.512z"/><path d="m29.333 28.0001h21.3334c.7072 0 1.3855-.281 1.8856-.7811s.781-1.1783.781-1.8856v-9.116c.4197-.3626.7561-.8116.9862-1.3163.2301-.5046.3485-1.053.3472-1.6077v-3.95997c0-1.06087-.4215-2.07829-1.1716-2.82843-.7502-.75015-1.7676-1.17157-2.8284-1.17157h-4.1334c-.306-1.50706-1.1236-2.86197-2.3143-3.83518-1.1907-.9732-2.6812-1.5048418-4.219-1.5048418s-3.0283.5316418-4.219 1.5048418c-1.1907.97321-2.0083 2.32812-2.3143 3.83518h-4.1334c-1.0608 0-2.0783.42142-2.8284 1.17157-.7502.75014-1.1716 1.76756-1.1716 2.82843v3.95997c-.0014.5549.117 1.1035.3472 1.6083.2301.5049.5665.9541.9862 1.3171v9.1146c0 .7073.2809 1.3855.781 1.8856s1.1784.7811 1.8856.7811zm0-2.6667v-7.8c2.1586.6816 4.4035 1.0515 6.6667 1.0987v.0347c0 .7072.2809 1.3855.781 1.8856s1.1784.781 1.8857.781h2.6666c.7073 0 1.3855-.2809 1.8856-.781s.7811-1.1784.7811-1.8856v-.0347c2.2632-.0472 4.508-.4171 6.6667-1.0987v7.8zm9.3334-6.6666v-2.6667h2.6666v2.6667zm1.3333-16.00004c.8243.00342 1.6275.26144 2.2996.73878s1.1803 1.15067 1.4551 1.92789h-7.5094c.2748-.77722.783-1.45055 1.4551-1.92789s1.4752-.73536 2.2996-.73878zm-12 6.66667c0-.35363.1405-.69276.3905-.94281.2501-.25005.5892-.39053.9428-.39053h21.3334c.3536 0 .6927.14048.9428.39053.25.25005.3905.58918.3905.94281v3.95997c.0026.2176-.0539.4317-.1636.6196s-.2683.3424-.4591.4471c-2.3151 1.0594-4.8313 1.6078-7.3773 1.608-.0084-.7017-.2931-1.3718-.7923-1.865s-1.1726-.7697-1.8744-.7697h-2.6666c-.7018 0-1.3753.2765-1.8744.7697-.4992.4932-.7839 1.1633-.7923 1.865-2.5468.0026-5.0642-.5431-7.3813-1.6-.1912-.1058-.3499-.2618-.4589-.4512-.1091-.1894-.1643-.405-.1598-.6235z"/></g></svg>