<svg width="12" height="13" viewBox="0 0 12 13" fill="none" xmlns="http://www.w3.org/2000/svg">
<path d="M5.90909 10.6364C6.02596 10.6364 6.14021 10.6017 6.23738 10.5368C6.33456 10.4718 6.4103 10.3796 6.45502 10.2716C6.49974 10.1636 6.51145 10.0448 6.48865 9.93017C6.46585 9.81555 6.40957 9.71026 6.32693 9.62762C6.24429 9.54498 6.139 9.4887 6.02437 9.4659C5.90975 9.4431 5.79093 9.4548 5.68296 9.49953C5.57499 9.54425 5.4827 9.61999 5.41777 9.71716C5.35284 9.81434 5.31818 9.92858 5.31818 10.0455C5.31818 10.2022 5.38044 10.3525 5.49126 10.4633C5.60207 10.5741 5.75237 10.6364 5.90909 10.6364ZM8.86364 10.6364C8.98051 10.6364 9.09475 10.6017 9.19193 10.5368C9.2891 10.4718 9.36484 10.3796 9.40957 10.2716C9.45429 10.1636 9.46599 10.0448 9.44319 9.93017C9.42039 9.81555 9.36411 9.71026 9.28147 9.62762C9.19883 9.54498 9.09354 9.4887 8.97892 9.4659C8.86429 9.4431 8.74548 9.4548 8.63751 9.49953C8.52953 9.54425 8.43724 9.61999 8.37231 9.71716C8.30738 9.81434 8.27273 9.92858 8.27273 10.0455C8.27273 10.2022 8.33498 10.3525 8.4458 10.4633C8.55662 10.5741 8.70692 10.6364 8.86364 10.6364ZM8.86364 8.27273C8.98051 8.27273 9.09475 8.23807 9.19193 8.17314C9.2891 8.10821 9.36484 8.01592 9.40957 7.90795C9.45429 7.79997 9.46599 7.68116 9.44319 7.56654C9.42039 7.45191 9.36411 7.34662 9.28147 7.26398C9.19883 7.18134 9.09354 7.12506 8.97892 7.10226C8.86429 7.07946 8.74548 7.09116 8.63751 7.13589C8.52953 7.18061 8.43724 7.25635 8.37231 7.35353C8.30738 7.4507 8.27273 7.56495 8.27273 7.68182C8.27273 7.83854 8.33498 7.98884 8.4458 8.09965C8.55662 8.21047 8.70692 8.27273 8.86364 8.27273ZM5.90909 8.27273C6.02596 8.27273 6.14021 8.23807 6.23738 8.17314C6.33456 8.10821 6.4103 8.01592 6.45502 7.90795C6.49974 7.79997 6.51145 7.68116 6.48865 7.56654C6.46585 7.45191 6.40957 7.34662 6.32693 7.26398C6.24429 7.18134 6.139 7.12506 6.02437 7.10226C5.90975 7.07946 5.79093 7.09116 5.68296 7.13589C5.57499 7.18061 5.4827 7.25635 5.41777 7.35353C5.35284 7.4507 5.31818 7.56495 5.31818 7.68182C5.31818 7.83854 5.38044 7.98884 5.49126 8.09965C5.60207 8.21047 5.75237 8.27273 5.90909 8.27273ZM10.0455 1.18182H9.45455V0.590909C9.45455 0.43419 9.39229 0.28389 9.28147 0.173073C9.17066 0.0622563 9.02036 0 8.86364 0C8.70692 0 8.55662 0.0622563 8.4458 0.173073C8.33498 0.28389 8.27273 0.43419 8.27273 0.590909V1.18182H3.54545V0.590909C3.54545 0.43419 3.4832 0.28389 3.37238 0.173073C3.26156 0.0622563 3.11126 0 2.95455 0C2.79783 0 2.64753 0.0622563 2.53671 0.173073C2.42589 0.28389 2.36364 0.43419 2.36364 0.590909V1.18182H1.77273C1.30257 1.18182 0.851671 1.36859 0.51922 1.70104C0.186769 2.03349 0 2.48439 0 2.95455V11.2273C0 11.6974 0.186769 12.1483 0.51922 12.4808C0.851671 12.8132 1.30257 13 1.77273 13H10.0455C10.5156 13 10.9665 12.8132 11.299 12.4808C11.6314 12.1483 11.8182 11.6974 11.8182 11.2273V2.95455C11.8182 2.48439 11.6314 2.03349 11.299 1.70104C10.9665 1.36859 10.5156 1.18182 10.0455 1.18182ZM10.6364 11.2273C10.6364 11.384 10.5741 11.5343 10.4633 11.6451C10.3525 11.7559 10.2022 11.8182 10.0455 11.8182H1.77273C1.61601 11.8182 1.46571 11.7559 1.35489 11.6451C1.24407 11.5343 1.18182 11.384 1.18182 11.2273V5.90909H10.6364V11.2273ZM10.6364 4.72727H1.18182V2.95455C1.18182 2.79783 1.24407 2.64753 1.35489 2.53671C1.46571 2.42589 1.61601 2.36364 1.77273 2.36364H2.36364V2.95455C2.36364 3.11126 2.42589 3.26156 2.53671 3.37238C2.64753 3.4832 2.79783 3.54545 2.95455 3.54545C3.11126 3.54545 3.26156 3.4832 3.37238 3.37238C3.4832 3.26156 3.54545 3.11126 3.54545 2.95455V2.36364H8.27273V2.95455C8.27273 3.11126 8.33498 3.26156 8.4458 3.37238C8.55662 3.4832 8.70692 3.54545 8.86364 3.54545C9.02036 3.54545 9.17066 3.4832 9.28147 3.37238C9.39229 3.26156 9.45455 3.11126 9.45455 2.95455V2.36364H10.0455C10.2022 2.36364 10.3525 2.42589 10.4633 2.53671C10.5741 2.64753 10.6364 2.79783 10.6364 2.95455V4.72727ZM2.95455 8.27273C3.07142 8.27273 3.18566 8.23807 3.28284 8.17314C3.38001 8.10821 3.45575 8.01592 3.50047 7.90795C3.5452 7.79997 3.5569 7.68116 3.5341 7.56654C3.5113 7.45191 3.45502 7.34662 3.37238 7.26398C3.28974 7.18134 3.18445 7.12506 3.06983 7.10226C2.9552 7.07946 2.83639 7.09116 2.72841 7.13589C2.62044 7.18061 2.52815 7.25635 2.46322 7.35353C2.39829 7.4507 2.36364 7.56495 2.36364 7.68182C2.36364 7.83854 2.42589 7.98884 2.53671 8.09965C2.64753 8.21047 2.79783 8.27273 2.95455 8.27273ZM2.95455 10.6364C3.07142 10.6364 3.18566 10.6017 3.28284 10.5368C3.38001 10.4718 3.45575 10.3796 3.50047 10.2716C3.5452 10.1636 3.5569 10.0448 3.5341 9.93017C3.5113 9.81555 3.45502 9.71026 3.37238 9.62762C3.28974 9.54498 3.18445 9.4887 3.06983 9.4659C2.9552 9.4431 2.83639 9.4548 2.72841 9.49953C2.62044 9.54425 2.52815 9.61999 2.46322 9.71716C2.39829 9.81434 2.36364 9.92858 2.36364 10.0455C2.36364 10.2022 2.42589 10.3525 2.53671 10.4633C2.64753 10.5741 2.79783 10.6364 2.95455 10.6364Z" fill="#66CCFF"/>
</svg>
