<svg fill="none" height="22" viewBox="0 0 20 22" width="20" xmlns="http://www.w3.org/2000/svg"><path d="m10 18c.1978 0 .3911-.0586.5556-.1685.1644-.1099.2926-.2661.3683-.4488s.0955-.3838.0569-.5778-.1338-.3722-.2737-.512c-.1398-.1399-.318-.2351-.512-.2737s-.39506-.0188-.57778.0569c-.18273.0757-.33891.2039-.44879.3683-.10988.1645-.16853.3578-.16853.5556 0 .2652.10536.5196.29289.7071.18754.1875.44189.2929.70711.2929zm5 0c.1978 0 .3911-.0586.5556-.1685.1644-.1099.2926-.2661.3683-.4488s.0955-.3838.0569-.5778-.1338-.3722-.2737-.512c-.1398-.1399-.318-.2351-.512-.2737s-.3951-.0188-.5778.0569-.3389.2039-.4488.3683c-.1099.1645-.1685.3578-.1685.5556 0 .2652.1054.5196.2929.7071s.4419.2929.7071.2929zm0-4c.1978 0 .3911-.0586.5556-.1685.1644-.1099.2926-.2661.3683-.4488s.0955-.3838.0569-.5778-.1338-.3722-.2737-.512c-.1398-.1399-.318-.2351-.512-.2737s-.3951-.0188-.5778.0569-.3389.2039-.4488.3683c-.1099.1645-.1685.3578-.1685.5556 0 .2652.1054.5196.2929.7071s.4419.2929.7071.2929zm-5 0c.1978 0 .3911-.0586.5556-.1685.1644-.1099.2926-.2661.3683-.4488s.0955-.3838.0569-.5778-.1338-.3722-.2737-.512c-.1398-.1399-.318-.2351-.512-.2737s-.39506-.0188-.57778.0569c-.18273.0757-.33891.2039-.44879.3683-.10988.1645-.16853.3578-.16853.5556 0 .2652.10536.5196.29289.7071.18754.1875.44189.2929.70711.2929zm7-12h-1v-1c0-.265216-.1054-.51957-.2929-.707107-.1875-.187536-.4419-.292893-.7071-.292893s-.5196.105357-.7071.292893c-.1875.187537-.2929.441891-.2929.707107v1h-8v-1c0-.265216-.10536-.51957-.29289-.707107-.18754-.187536-.44189-.292893-.70711-.292893s-.51957.105357-.70711.292893c-.18753.187537-.29289.441891-.29289.707107v1h-1c-.79565 0-1.55871.31607-2.12132.87868-.562609.56261-.87868 1.32567-.87868 2.12132v14c0 .7956.316071 1.5587.87868 2.1213.56261.5626 1.32567.8787 2.12132.8787h14c.7956 0 1.5587-.3161 2.1213-.8787s.8787-1.3257.8787-2.1213v-14c0-.79565-.3161-1.55871-.8787-2.12132s-1.3257-.87868-2.1213-.87868zm1 17c0 .2652-.1054.5196-.2929.7071s-.4419.2929-.7071.2929h-14c-.26522 0-.51957-.1054-.70711-.2929-.18753-.1875-.29289-.4419-.29289-.7071v-9h16zm0-11h-16v-3c0-.26522.10536-.51957.29289-.70711.18754-.18753.44189-.29289.70711-.29289h1v1c0 .26522.10536.51957.29289.70711.18754.18753.44189.29289.70711.29289s.51957-.10536.70711-.29289c.18753-.18754.29289-.44189.29289-.70711v-1h8v1c0 .26522.1054.51957.2929.70711.1875.18753.4419.29289.7071.29289s.5196-.10536.7071-.29289c.1875-.18754.2929-.44189.2929-.70711v-1h1c.2652 0 .5196.10536.7071.29289.1875.18754.2929.44189.2929.70711zm-13 6c.19778 0 .39112-.0586.55557-.1685s.29262-.2661.36831-.4488.09549-.3838.05691-.5778c-.03859-.194-.13383-.3722-.27368-.512-.13986-.1399-.31804-.2351-.51202-.2737s-.39505-.0188-.57777.0569c-.18273.0757-.33891.2039-.44879.3683-.10988.1645-.16853.3578-.16853.5556 0 .2652.10536.5196.29289.7071.18754.1875.44189.2929.70711.2929zm0 4c.19778 0 .39112-.0586.55557-.1685s.29262-.2661.36831-.4488.09549-.3838.05691-.5778c-.03859-.194-.13383-.3722-.27368-.512-.13986-.1399-.31804-.2351-.51202-.2737s-.39505-.0188-.57777.0569c-.18273.0757-.33891.2039-.44879.3683-.10988.1645-.16853.3578-.16853.5556 0 .2652.10536.5196.29289.7071.18754.1875.44189.2929.70711.2929z" fill="#6258a6"/></svg>