<svg height="12.571" viewBox="0 0 11 12.571" width="11" xmlns="http://www.w3.org/2000/svg"><path d="m6.055.255a.787.787 0 0 0 -1.112 0l-3.143 3.145a.786.786 0 0 0 1.112 1.11l1.8-1.8v5.172a.786.786 0 0 0 1.571 0v-5.174l1.8 1.8a.786.786 0 0 0 1.117-1.108l-3.143-3.145zm-4.484 8.412a.786.786 0 0 0 -1.571 0v1.571a2.358 2.358 0 0 0 2.357 2.362h6.286a2.358 2.358 0 0 0 2.357-2.361v-1.572a.786.786 0 0 0 -1.571 0v1.571a.785.785 0 0 1 -.786.786h-6.286a.785.785 0 0 1 -.786-.786z" fill="#fcfcfc" transform="translate(0 -.025)"/></svg>