<svg height="17.143" viewBox="0 0 15 17.143" width="15" xmlns="http://www.w3.org/2000/svg"><path d="m26.592-168.429a3.019 3.019 0 0 1 3.158 2.857v2.857a3.019 3.019 0 0 1 -3.158 2.857h-11.842v-5.714a3.019 3.019 0 0 1 3.158-2.857zm.108 1.429h-8.9a1.533 1.533 0 0 0 -1.619 1.429v4.286h10.519a1.533 1.533 0 0 0 1.619-1.429v-2.857a1.533 1.533 0 0 0 -1.619-1.429zm-4.45-10a3.929 3.929 0 0 1 3.929 3.929 3.929 3.929 0 0 1 -3.929 3.929 3.929 3.929 0 0 1 -3.929-3.929 3.929 3.929 0 0 1 3.929-3.929zm0 1.429a2.5 2.5 0 0 0 -2.5 2.5 2.5 2.5 0 0 0 2.5 2.5 2.5 2.5 0 0 0 2.5-2.5 2.5 2.5 0 0 0 -2.5-2.5z" fill="#73c8f1" fill-rule="evenodd" transform="translate(-14.75 177)"/></svg>