<svg fill="none" height="24" viewBox="0 0 24 24" width="24" xmlns="http://www.w3.org/2000/svg" xmlns:xlink="http://www.w3.org/1999/xlink"><clipPath id="a"><path d="m0 0h24v24h-24z"/></clipPath><g clip-path="url(#a)"><path d="m10.1256.00000579h3.75c.1479-.00031701.2943.02858991.4309.08505911.1367.0564691.2608.1393871.3653.2439881.1045.1046.1873.228821.2436.365521s.0851.283184.0846.431036v7.8744h4.1112c.1852.00002.3662.05497.5201.15789.154.10293.2739.2492.3447.42032s.0892.35939.053.54098c-.0362.1816-.1255.3484-.2566.4792l-7.1292 7.134c-.1701.1687-.4.2633-.6396.2633s-.4695-.0946-.6396-.2633l-7.13999-7.134c-.13098-.1308-.22026-.2974-.25654-.4789-.03628-.18149-.01795-.36966.05269-.54073.07064-.17106.1904-.31735.34416-.42037s.33461-.15814.51969-.15839h4.116v-7.8744c-.00048-.147953.02831-.294536.08471-.431315.0564-.136778.13929-.261052.24391-.365669.10461-.104616.22889-.187509.36567-.2439074.13677-.0563983.28336-.08518828.4313-.08471281zm13.8744 17.62559421v5.25c.0005.1479-.0283.2943-.0846.431s-.1391.261-.2436.3656-.2286.1875-.3653.2439c-.1366.0565-.283.0854-.4309.0851h-21.74999c-.147953.0005-.294536-.0283-.431315-.0847-.136778-.0564-.261052-.1393-.365669-.2439-.104616-.1046-.187509-.2289-.2439074-.3657-.0563983-.1368-.08518828-.2833-.08471281-.4313v-5.25c-.00031701-.1478.02858991-.2943.08505911-.4309.0564691-.1367.1393871-.2608.2439881-.3653.1046-.1045.228821-.1873.365521-.2436s.283184-.0851.431036-.0846h6.876l2.29679 2.2968c.223.2242.4882.4022.7802.5236s.6052.1839.9214.1839c.3163 0 .6294-.0625.9214-.1839s.5572-.2994.7802-.5236l2.2968-2.2968h6.876c.1479-.0005.2943.0283.431.0846s.261.1391.3656.2436.1875.2286.2439.3653c.0565.1366.0854.2831.0851.4309zm-5.8128 4.1256c0-.1854-.055-.3666-.1579-.5207-.103-.1541-.2494-.2742-.4206-.3452-.1713-.0709-.3597-.0894-.5415-.0533-.1818.0362-.3488.1254-.4799.2565s-.2203.2981-.2565.4799c-.0361.1818-.0176.3702.0533.5415.071.1712.1911.3176.3452.4206.1541.1029.3353.1579.5207.1579.2485-.0009.4865-.1002.6621-.276s.2745-.4139.2751-.6624zm3 0c0-.1854-.055-.3666-.1579-.5207-.103-.1541-.2494-.2742-.4206-.3452-.1713-.0709-.3597-.0894-.5415-.0533-.1818.0362-.3488.1254-.4799.2565s-.2203.2981-.2565.4799c-.0361.1818-.0176.3702.0533.5415.071.1712.1911.3176.3452.4206.1541.1029.3353.1579.5207.1579.2485-.0009.4865-.1002.6621-.276s.2745-.4139.2751-.6624z" fill="#fff"/></g></svg>