  <svg xmlns="http://www.w3.org/2000/svg" width="30.83" height="17.909" viewBox="0 0 30.83 17.909">
              <path
                d="M-4469.007-370.447V-384.38a2.98,2.98,0,0,1,2.976-2.976h8.709v1.4h-8.709a1.573,1.573,0,0,0-1.573,1.574v12.53h25.452a1.574,1.574,0,0,0,1.574-1.572V-384.38a1.574,1.574,0,0,0-1.574-1.574h-8.709v-1.4h8.709a2.98,2.98,0,0,1,2.976,2.976v10.958a2.98,2.98,0,0,1-2.976,2.976Zm8.793-12.71.991-.991,5.13,5.13,5.127-5.13.993.991-6.12,6.119Z"
                transform="translate(4469.507 387.855)" fill="#5758a1" stroke="rgba(0,0,0,0)" stroke-miterlimit="10"
                stroke-width="1"></path>
            </svg> 