<svg fill="none" height="37" viewBox="0 0 36 37" width="36" xmlns="http://www.w3.org/2000/svg"><ellipse cx="18" cy="18.5" fill="#fff" opacity=".5" rx="18" ry="18.5"/><path d="m23 14h-10c-.2652 0-.5196.1054-.7071.2929s-.2929.4419-.2929.7071.1054.5196.2929.7071.4419.2929.7071.2929h10c.2652 0 .5196-.1054.7071-.2929s.2929-.4419.2929-.7071-.1054-.5196-.2929-.7071-.4419-.2929-.7071-.2929zm0 4h-10c-.2652 0-.5196.1054-.7071.2929s-.2929.4419-.2929.7071.1054.5196.2929.7071.4419.2929.7071.2929h10c.2652 0 .5196-.1054.7071-.2929s.2929-.4419.2929-.7071-.1054-.5196-.2929-.7071-.4419-.2929-.7071-.2929zm2-9h-14c-.7956 0-1.55871.31607-2.12132.87868-.56261.56262-.87868 1.32572-.87868 2.12132v10c0 .7956.31607 1.5587.87868 2.1213s1.32572.8787 2.12132.8787h11.59l3.7 3.71c.0934.0927.2043.166.3261.2158.1218.0497.2523.075.3839.0742.1312.0034.2613-.024.38-.08.1826-.075.3389-.2024.4493-.3661.1103-.1638.1697-.3565.1707-.5539v-16c0-.7956-.3161-1.5587-.8787-2.12132-.5626-.56261-1.3257-.87868-2.1213-.87868zm1 16.59-2.29-2.3c-.0934-.0927-.2043-.166-.3261-.2158-.1218-.0497-.2523-.075-.3839-.0742h-12c-.2652 0-.5196-.1054-.7071-.2929s-.2929-.4419-.2929-.7071v-10c0-.2652.1054-.5196.2929-.7071s.4419-.2929.7071-.2929h14c.2652 0 .5196.1054.7071.2929s.2929.4419.2929.7071z" fill="#6258a6"/></svg>