<svg fill="none" height="32" viewBox="0 0 32 32" width="32" xmlns="http://www.w3.org/2000/svg"><path d="m4 0c-1.06087 0-2.07828.421427-2.82843 1.17157-.750143.75015-1.17157 1.76756-1.17157 2.82843v24c0 1.0609.421427 2.0783 1.17157 2.8284.75015.7502 1.76756 1.1716 2.82843 1.1716h24c1.0609 0 2.0783-.4214 2.8284-1.1716.7502-.7501 1.1716-1.7675 1.1716-2.8284v-24c0-1.06087-.4214-2.07828-1.1716-2.82843-.7501-.750143-1.7675-1.17157-2.8284-1.17157zm20.06 9.94c.2778.2775.4357.6529.4398 1.0455s-.1459.7712-.4178 1.0545l-7.984 9.98c-.1372.1478-.3028.2664-.4869.3487-.1841.0824-.383.1267-.5846.1305-.2016.0037-.402-.0333-.589-.1087-.187-.0755-.3569-.1879-.4995-.3305l-5.29-5.292c-.14737-.1373-.26558-.3029-.34756-.4869-.08199-.184-.12607-.3826-.12962-.5841-.00356-.2014.03349-.4014.10893-.5882.07545-.1868.18774-.3564.33017-.4989.14244-.1424.31211-.2547.49888-.3301.18678-.0755.38684-.1125.58825-.109.2014.0036.40005.0477.58405.1296.184.082.3496.2002.4869.3476l4.188 4.186 6.946-8.85c.1369-.14806.3023-.26699.4863-.34966.184-.08268.3827-.12741.5843-.13152.2017-.0041.4021.03249.5893.10761.1871.07512.3572.18721.5001.32957z" fill="#4dbd95"/></svg>