<svg fill="none" height="7" viewBox="0 0 13 7" width="13" xmlns="http://www.w3.org/2000/svg"><path d="m12.6425.303432-.2046-.199365c-.0651-.0634015-.1527-.09836079-.2435-.09719104-.0909.00116975-.1775.03837284-.241.10342904l-5.51085 5.654655-5.654651-5.510896c-.065083-.063402-.152682-.098361-.243535-.097191-.090854.001169-.177523.038372-.240953.103429l-.199364.204565c-.0634019.065084-.09836112.152682-.09719137.243535s.03837277.177523.10342937.240953l6.103255 5.949585c.06509.0634.15268.09836.24354.09719.09085-.00117.17752-.03837.24095-.10343l5.95107-6.104785c.0634-.065133.0983-.152759.097-.243611-.0012-.090853-.0385-.177493-.1036-.240872z" fill="#6e77a5"/></svg>