<svg fill="none" height="45" viewBox="0 0 45 45" width="45" xmlns="http://www.w3.org/2000/svg"><path clip-rule="evenodd" d="m24.6693 21.8569v-10.7859h-3.6667v13.0475l17.3067 8.7003c-1.6544 2.6073-3.9409 4.7542-6.647 6.2414-2.7062 1.4872-5.7444 2.2665-8.8323 2.2653-4.8623 0-9.5255-1.9316-12.96364-5.3697-3.43817-3.4382-5.36966-8.1013-5.36966-12.9636s1.93149-9.5255 5.36966-12.9637c3.43814-3.43815 8.10134-5.36965 12.96364-5.36965s9.5255 1.9315 12.9637 5.36965c3.4382 3.4382 5.3697 8.1014 5.3697 12.9637h3.6725c0-5.8348-2.3179-11.4306-6.4437-15.5564s-9.7215-6.443612-15.5563-6.443612c-5.8347 0-11.4305 2.317812-15.55626 6.443612-4.1258 4.1258-6.443702 9.7216-6.443702 15.5564s2.317902 11.4305 6.443702 15.5563c4.12576 4.1258 9.72156 6.4437 15.55626 6.4437 4.077-.0004 8.0738-1.1337 11.5441-3.2734 3.4704-2.1397 6.2779-5.2017 8.1093-8.8442l.8243-1.6398z" fill="#65cbff" fill-rule="evenodd"/></svg>