<svg fill="none" height="24" viewBox="0 0 20 24" width="20" xmlns="http://www.w3.org/2000/svg"><path d="m6.50008 9.66683h1.16667c.30942 0 .60616-.12292.82496-.34171.21879-.21879.34171-.51554.34171-.82496s-.12292-.60616-.34171-.82496c-.2188-.21879-.51554-.3417-.82496-.3417h-1.16667c-.30942 0-.60616.12291-.82496.3417-.21879.2188-.3417.51554-.3417.82496s.12291.60617.3417.82496c.2188.21879.51554.34171.82496.34171zm7.00002 2.33337h-7.00002c-.30942 0-.60616.1229-.82496.3417-.21879.2188-.3417.5155-.3417.8249s.12291.6062.3417.825c.2188.2188.51554.3417.82496.3417h7.00002c.3094 0 .6061-.1229.8249-.3417s.3417-.5156.3417-.825-.1229-.6061-.3417-.8249-.5155-.3417-.8249-.3417zm0 4.6666h-7.00002c-.30942 0-.60616.1229-.82496.3417-.21879.2188-.3417.5156-.3417.825s.12291.6062.3417.825c.2188.2187.51554.3417.82496.3417h7.00002c.3094 0 .6061-.123.8249-.3417.2188-.2188.3417-.5156.3417-.825s-.1229-.6062-.3417-.825-.5155-.3417-.8249-.3417zm5.495 5.005c-.0555-.0501-.1139-.0969-.175-.14-.0651-.0441-.1357-.0794-.21-.105l-.21-.0933c-.2275-.0444-.4631-.02-.6767.07-.1448.0524-.2762.136-.3851.2449-.1089.1088-.1925.2403-.2449.3851-.069.1455-.101.3058-.0933.4667-.0021.1735.0347.3453.1074.5029.0728.1576.1799.2969.3133.4079.1335.111.29.1907.4583.2335.1682.0428.3438.0475.5141.0138.1702-.0337.3309-.1049.4701-.2086.1392-.1036.2536-.237.3347-.3904.0812-.1535.127-.3231.1343-.4965s-.0242-.3463-.0922-.506c-.0591-.1414-.142-.2716-.245-.385zm.3383-13.24164c-.0121-.10717-.0356-.21276-.07-.315v-.105c-.0561-.11995-.1309-.23022-.2217-.32666l-7-7.000004c-.0964-.090748-.2067-.165572-.3266-.221667-.0348-.004946-.0702-.004946-.105 0-.1185-.067968-.2494-.111598-.385-.128333h-7.05835c-.92826 0-1.8185.368749-2.47488 1.025124-.65637.65638-1.025122 1.54662-1.025122 2.47488v16.3333c0 .9283.368752 1.8185 1.025122 2.4749.65638.6564 1.54662 1.0251 2.47488 1.0251h9.33335c.3094 0 .6061-.1229.8249-.3417s.3417-.5155.3417-.8249c0-.3095-.1229-.6062-.3417-.825s-.5155-.3417-.8249-.3417h-9.33335c-.30942 0-.60617-.1229-.82496-.3417s-.34171-.5156-.34171-.825v-16.3333c0-.30942.12292-.60617.34171-.82496s.51554-.34171.82496-.34171h5.83335v3.5c0 .92826.3687 1.8185 1.0251 2.47487.6564.65638 1.5466 1.02513 2.4749 1.02513h3.5v2.33337c0 .3094.1229.6061.3417.8249s.5155.3417.8249.3417c.3095 0 .6062-.1229.825-.3417s.3417-.5155.3417-.8249v-3.50004s0 0 0-.07zm-5.8333-1.09666c-.3094 0-.6062-.12292-.825-.34171-.2188-.2188-.3417-.51554-.3417-.82496v-1.855l3.0217 3.02167zm4.6666 8.1667c-.3094 0-.6061.1229-.8249.3417s-.3417.5155-.3417.8249v2.3334c0 .3094.1229.6061.3417.8249s.5155.3417.8249.3417c.3095 0 .6062-.1229.825-.3417s.3417-.5155.3417-.8249v-2.3334c0-.3094-.1229-.6061-.3417-.8249s-.5155-.3417-.825-.3417z" fill="#555"/></svg>