<svg width="35" viewBox="0 0 36 37" fill="none" xmlns="http://www.w3.org/2000/svg">
      <ellipse opacity="0.5" cx="18" cy="18.5" rx="18" ry="18.5" fill="white" />

      <path
        d="M23 14H13C12.7348 14 12.4804 14.1054 12.2929 14.2929C12.1054 14.4804 12 14.7348 12 15C12 15.2652 12.1054 15.5196 12.2929 15.7071C12.4804 15.8946 12.7348 16 13 16H23C23.2652 16 23.5196 15.8946 23.7071 15.7071C23.8946 15.5196 24 15.2652 24 15C24 14.7348 23.8946 14.4804 23.7071 14.2929C23.5196 14.1054 23.2652 14 23 14ZM23 18H13C12.7348 18 12.4804 18.1054 12.2929 18.2929C12.1054 18.4804 12 18.7348 12 19C12 19.2652 12.1054 19.5196 12.2929 19.7071C12.4804 19.8946 12.7348 20 13 20H23C23.2652 20 23.5196 19.8946 23.7071 19.7071C23.8946 19.5196 24 19.2652 24 19C24 18.7348 23.8946 18.4804 23.7071 18.2929C23.5196 18.1054 23.2652 18 23 18ZM25 9H11C10.2044 9 9.44129 9.31607 8.87868 9.87868C8.31607 10.4413 8 11.2044 8 12V22C8 22.7956 8.31607 23.5587 8.87868 24.1213C9.44129 24.6839 10.2044 25 11 25H22.59L26.29 28.71C26.3834 28.8027 26.4943 28.876 26.6161 28.9258C26.7379 28.9755 26.8684 29.0008 27 29C27.1312 29.0034 27.2613 28.976 27.38 28.92C27.5626 28.845 27.7189 28.7176 27.8293 28.5539C27.9396 28.3901 27.999 28.1974 28 28V12C28 11.2044 27.6839 10.4413 27.1213 9.87868C26.5587 9.31607 25.7956 9 25 9ZM26 25.59L23.71 23.29C23.6166 23.1973 23.5057 23.124 23.3839 23.0742C23.2621 23.0245 23.1316 22.9992 23 23H11C10.7348 23 10.4804 22.8946 10.2929 22.7071C10.1054 22.5196 10 22.2652 10 22V12C10 11.7348 10.1054 11.4804 10.2929 11.2929C10.4804 11.1054 10.7348 11 11 11H25C25.2652 11 25.5196 11.1054 25.7071 11.2929C25.8946 11.4804 26 11.7348 26 12V25.59Z"
        fill="#6258A6" />
    </svg>