<svg fill="none" height="12" viewBox="0 0 12 12" width="12" xmlns="http://www.w3.org/2000/svg"><path d="m3.66683 5.41602c-.11537 0-.22815.03421-.32408.0983-.09593.0641-.1707.15521-.21485.2618s-.0557.22388-.03319.33703c.02251.11316.07806.2171.15964.29868s.18552.13714.29868.15964c.11316.02251.23044.01096.33704-.03319.10659-.04415.19769-.11892.26179-.21485.06409-.09593.09831-.20871.09831-.32408 0-.15471-.06146-.30308-.17086-.41248-.10939-.1094-.25777-.17085-.41248-.17085zm2.33334 0c-.11538 0-.22816.03421-.32409.0983-.09593.0641-.17069.15521-.21484.2618s-.05571.22388-.0332.33703c.02251.11316.07807.2171.15965.29868s.18552.13714.29867.15964c.11316.02251.23045.01096.33704-.03319s.19769-.11892.26179-.21485.09831-.20871.09831-.32408c0-.15471-.06146-.30308-.17085-.41248-.1094-.1094-.25777-.17085-.41248-.17085zm2.33333 0c-.11537 0-.22815.03421-.32408.0983-.09593.0641-.1707.15521-.21485.2618s-.0557.22388-.03319.33703c.0225.11316.07806.2171.15964.29868s.18552.13714.29868.15964c.11315.02251.23044.01096.33703-.03319s.1977-.11892.26179-.21485c.0641-.09593.09831-.20871.09831-.32408 0-.15471-.06145-.30308-.17085-.41248s-.25777-.17085-.41248-.17085zm-2.33333-5.250004c-.76605 0-1.52459.150883-2.23232.444036-.70774.293152-1.3508.722828-1.89247 1.264508-1.093966 1.09396-1.708547 2.57769-1.708547 4.12479-.0051 1.34699.461295 2.65331 1.318337 3.6925l-1.166671 1.16665c-.080942.082-.135773.1862-.157574.2994-.021802.1131-.009597.2302.035074.3364.048451.105.126994.1932.225661.2534.098667.0603.213007.0898.328506.085h5.250004c1.54709 0 3.03082-.6146 4.12483-1.7086 1.0939-1.09392 1.7085-2.57766 1.7085-4.12475 0-1.5471-.6146-3.03083-1.7085-4.12479-1.09401-1.093963-2.57774-1.708544-4.12483-1.708544zm0 10.499984h-3.84417l.5425-.5425c.10865-.1093.16963-.25713.16963-.41123 0-.15411-.06098-.30196-.16963-.41126-.76383-.76297-1.23948-1.76718-1.34593-2.84153s.1629-2.15238.76215-3.05041c.59924-.89803 1.49132-1.56051 2.52425-1.87457 1.03292-.31406 2.14278-.26026 3.14049.15222s1.82154 1.15812 2.33114 2.1099c.5096.95177.6734 2.0508.4636 3.10982-.2099 1.05902-.78044 2.01252-1.61447 2.69805-.83403.68551-1.87995 1.06071-2.95956 1.06151z" fill="#6258a6"/></svg>