<svg fill="none" height="80" viewBox="0 0 80 80" width="80" xmlns="http://www.w3.org/2000/svg" xmlns:xlink="http://www.w3.org/1999/xlink"><clipPath id="a"><path d="m0 0h80v80h-80z"/></clipPath><g clip-path="url(#a)" fill="#6258a6"><path d="m41.7953 22.9198h-24.1127c-.4721 0-.8547-.3827-.8547-.8548 0-.1123.0221-.2235.065-.3272.043-.1037.1059-.1979.1853-.2773s.1736-.1424.2773-.1853c.1037-.043.2149-.0651.3271-.0651h24.1127c.4721 0 .8547.3827.8547.8549 0 .1122-.0221.2234-.065.3271-.043.1037-.1059.1979-.1853.2773s-.1736.1424-.2773.1853c-.1037.043-.2149.0651-.3271.0651zm0 6.7036h-24.1127c-.4721 0-.8547-.3827-.8547-.8549 0-.1122.0221-.2234.065-.3271.043-.1037.1059-.1979.1853-.2773s.1736-.1424.2773-.1853c.1037-.043.2149-.0651.3271-.0651h24.1127c.4721 0 .8547.3827.8547.8548 0 .1123-.0221.2235-.065.3272-.043.1037-.1059.1979-.1853.2773s-.1736.1424-.2773.1853c-.1037.043-.2149.0651-.3271.0651zm-15.7583 6.7036h-8.3544c-.4721 0-.8547-.3827-.8547-.8549 0-.1122.0221-.2234.065-.3271.043-.1037.1059-.198.1853-.2773.0794-.0794.1736-.1424.2773-.1854.1037-.0429.2149-.065.3271-.065h8.3544c.4721 0 .8547.3827.8547.8548 0 .1123-.0221.2234-.065.3272-.043.1037-.1059.1979-.1853.2773s-.1736.1424-.2773.1853c-.1037.043-.2149.0651-.3271.0651zm-8.2638 6.7036h-10.13725c-.47214 0-.8547-.3827-.8547-.8549-.00002-.1122.02207-.2234.06501-.3271s.1059-.198.18527-.2774c.07936-.0793.17359-.1423.2773-.1853.10371-.0429.21487-.065.32712-.065h10.13725c.2267 0 .4442.09.6045.2503.1603.1604.2504.3778.2504.6045 0 .2268-.0901.4442-.2504.6045s-.3778.2504-.6045.2504zm-3.5856 6.7036h-6.55165c-.47214 0-.8547-.3828-.8547-.8549-.00002-.1122.02207-.2234.06501-.3271s.1059-.198.18527-.2774c.07936-.0793.17359-.1423.2773-.1853.10371-.0429.21487-.0651.32712-.0651h6.55165c.4721 0 .8547.3828.8547.8549 0 .1123-.0221.2234-.065.3271-.043.1038-.1059.198-.1853.2774s-.1736.1423-.2773.1853-.2149.0651-.3271.0651z"/><path d="m43.6374 10.0979h-5.0895v-2.85226c0-.11225-.0221-.22341-.065-.32713-.043-.10372-.1059-.19796-.1853-.27734-.0794-.07939-.1736-.14236-.2773-.18532-.1037-.04297-.2149-.06508-.3271-.06508h-2.4942v-5.535898c0-.112256-.0221-.223416-.065-.327133-.043-.103716-.1059-.197958-.1853-.277342-.0794-.079385-.1736-.142357-.2773-.1853204s-.2149-.0650766-.3271-.0650766h-20.0939c-.1122 0-.2234.0221132-.3271.0650766s-.1979.1059354-.2773.1853204c-.0794.079384-.1423.173626-.1853.277342-.0429.103717-.065.214877-.065.327133v5.535728h-2.4942c-.1122 0-.2234.02211-.3271.06508-.1037.04296-.1979.10593-.2773.18532-.0794.07938-.1423.17362-.1853.27734-.0429.10371-.065.21488-.065.32713v2.85233h-5.08953c-2.73334 0-4.95727 2.2243-4.95727 4.9584v55.2173c0 2.7342 2.22393 4.9585 4.95727 4.9585h3.06957v3.847c0 .7236.88205 1.1198 1.42256.6389l4.0475-3.5986 4.0475 3.5986c.5508.49 1.4226.0787 1.4226-.6389v-3.847h5.3074c.4721 0 .8547-.3828.8547-.8549 0-.1123-.0221-.2234-.065-.3271-.043-.1038-.1059-.198-.1853-.2774s-.1736-.1423-.2773-.1853-.2149-.0651-.3271-.0651h-5.3074v-6.7157c1.2891-1.3564 2.0827-3.1884 2.0827-5.2036 0-4.1677-3.388-7.5585-7.5528-7.5585-4.16442 0-7.55263 3.3908-7.55263 7.5585s3.38804 7.5585 7.55263 7.5585c1.3205.001 2.6178-.3467 3.7607-1.0079v9.0219l-3.1928-2.8388c-.1565-.1392-.3586-.216-.568-.216-.2093 0-.4114.0768-.5679.216l-3.19283 2.8388v-5.5879c0-.2267-.09005-.4441-.25034-.6043-.16028-.1603-.37768-.2504-.60436-.2504s-.44408.0901-.60437.2504c-.16028.1602-.25033.3776-.25033.6043v1.9347h-3.0694c-1.79094 0-3.24787-1.4574-3.24787-3.2487v-55.2171c0-1.7913 1.45693-3.2487 3.24787-3.2487h5.08953v2.7966c0 .1122.0221.2234.065.3271.043.1037.1059.198.1853.2773.0794.0794.1736.1424.2773.1854.1037.0429.2149.065.3271.065h26.7915c.1123 0 .2234-.0221.3271-.065.1037-.043.198-.106.2773-.1854.0794-.0793.1423-.1736.1853-.2773.0429-.1037.065-.2149.065-.3271v-2.7966h5.0896c1.7909 0 3.2478 1.4574 3.2478 3.2487v15.6087c0 .2267.0901.4441.2504.6044s.3777.2503.6043.2503c.2267 0 .4441-.09.6044-.2503s.2503-.3777.2503-.6044v-15.6087c.0002-2.7342-2.2236-4.9585-4.9571-4.9585zm-35.98372 51.5047c0-3.225 2.62122-5.8488 5.84322-5.8488 3.2221 0 5.8434 2.6238 5.8434 5.8488 0 3.2249-2.6213 5.8487-5.8434 5.8487-3.222 0-5.84322-2.6238-5.84322-5.8487zm7.45142-59.89286h18.3845v4.68086h-18.3845zm21.7334 12.03966h-25.0823v-5.64889h25.0821v5.64889z"/><path d="m13.4968 64.6804c-1.6965 0-3.0769-1.3807-3.0769-3.0776 0-1.6971 1.3804-3.0776 3.0769-3.0776 1.6966 0 3.077 1.3807 3.077 3.0776s-1.3804 3.0776-3.077 3.0776zm0-4.4457c-.754 0-1.3675.6137-1.3675 1.3679s.6135 1.3679 1.3675 1.3679c.7541 0 1.3676-.6137 1.3676-1.3679s-.6135-1.3679-1.3676-1.3679zm66.2518-11.0817-17.6477-17.5984c-.1602-.1598-.3772-.2495-.6035-.2495-.2262 0-.4432.0897-.6035.2495l-4.1047 4.0943c-.3351.4036-.3351.8072 0 1.2108l.2918.2909-4.9736 3.4477c-2.1381.4265-4.2126.7954-6.0885 2.0079l-1.8593-.3709-5.1132-3.2906.4463-.4452c.3351-.4036.3351-.8071 0-1.2107l-4.1049-4.0944c-.1602-.1598-.3772-.2495-.6035-.2495s-.4433.0897-.6035.2495l-15.4682 15.4258c-.3351.4036-.3351.8072 0 1.2108l4.1048 4.0943c.4022.3327.8046.3327 1.207 0l13.7829-13.7449 5.5637 3.5805c.0901.058.1903.0985.2954.1193l.6077.1212c-.0231.0226-6.6386 6.6103-6.6386 6.6103-.9176.9142-.9202 2.4699-.0009 3.3865 2.4609 2.4542 6.4571 2.4497 8.9082-.0094l.9368-.939c2.7347.4472 5.5591-.1321 7.8967-1.6171l10.3293 10.2831c.8524.8501.8543 2.2954 0 3.1475-.8652.8626-2.2722.8627-3.1373 0l-4.2434-4.2318c-.1606-.16-.3781-.2497-.6048-.2494-.2266.0004-.4439.0907-.6039.2513s-.2497.3782-.2494.6049c.0004.2267.0907.444.2512.6041l5.3197 5.3052c.8523.8499.8542 2.2957 0 3.1475-.8651.8626-2.2723.8624-3.1374 0l-5.7966-5.7809c-.1606-.16-.3781-.2497-.6048-.2494-.2266.0004-.4439.0908-.6039.2513-.16.1606-.2497.3782-.2494.6049.0004.2267.0907.4441.2512.6042l4.7069 4.694c.8407.8516.8369 2.2879-.0125 3.1349-.8648.8627-2.2723.8627-3.1374 0l-5.2099-5.1958c-.1606-.16-.3781-.2497-.6048-.2494-.2267.0004-.4439.0908-.604.2513-.16.1606-.2497.3782-.2493.6049.0003.2268.0907.4441.2512.6042l3.0181 3.0099c.8525.8501.8544 2.2954 0 3.1475-.2602.2599-.5811.4508-.9336.5556-.3525.1049-.7255.1203-1.0855.0449.4029-1.4222-.0417-2.9894-1.1339-3.9853-.7359-.6731-1.7014-1.0394-2.6986-1.0239.3019-1.3084-.1109-2.7161-1.0702-3.6528-.8688-.846-2.0602-1.2829-3.2737-1.1291.1149-1.1781-.3151-2.374-1.1643-3.2027-.8865-.8655-2.0899-1.2209-3.2403-1.0756.1218-1.1834-.311-2.3909-1.1635-3.2232-1.2357-1.2067-3.089-1.4289-4.5543-.674-.6089-.7145-1.1973-1.4462-1.7645-2.1942-.0677-.0895-.1525-.1647-.2493-.2215-.0969-.0567-.204-.0938-.3152-.1091s-.2243-.0086-.3329.0198-.2105.0779-.3.1456c-.0895.0678-.1647.1526-.2214.2494-.0567.0969-.0938.204-.1092.3152-.0153.1112-.0086.2243.0198.3329s.0779.2105.1457.3c.5765.7605 1.1743 1.5048 1.7925 2.2319l-1.6053 1.6009c-1.5158 1.5114-1.5161 4.0573 0 5.5692.8321.8298 2.0624 1.2552 3.2292 1.1171-.0745 1.2072.2509 2.3534 1.128 3.2282.8289.8265 2.0481 1.2488 3.2099 1.1194-.2572 2.2858 1.6185 4.3899 3.9233 4.3899.4049 0 .8087-.066 1.1976-.1913.0439 1.0015.4593 1.9331 1.1807 2.6374 1.5125 1.4763 4.0242 1.4631 5.5213-.0296 0 0 .9503-.9516 1.0019-1.0094 1.3992.4918 3.0212.1241 4.0728-.9246.5737-.5719.9491-1.2899 1.0915-2.0702 1.5373 1.4227 3.9491 1.3889 5.4446-.1024.659-.6575 1.0564-1.507 1.1393-2.4228 1.4289.6021 3.145.323 4.3072-.8362 1.1169-1.1138 1.4639-2.8433.8528-4.3034.9123-.0819 1.7669-.4812 2.4151-1.1284 1.3484-1.3446 1.5241-3.5566.401-5.0947 1.5289-.8493 2.8717-1.9971 3.9485-3.3752.1372-.1789.1982-.4048.1696-.6284-.0286-.2237-.1443-.427-.3221-.5657-.1777-.1387-.4031-.2015-.6269-.1749-.2239.0266-.4282.1406-.5684.3172-1.0293 1.3174-2.3371 2.391-3.8298 3.1439l-9.3536-9.3272 2.2887-1.9507c.1725-.1471.2796-.3567.2976-.5827.0181-.2261-.0544-.45-.2014-.6226-.0728-.0855-.1617-.1558-.2616-.2069-.1-.051-.209-.0819-.3209-.0909-.1119-.0089-.2245.0043-.3313.0389-.1068.0345-.2057.0898-.2911.1626l-3.0693 2.6161c-2.1617 1.5257-4.8836 2.094-7.4759 1.5573-.1388-.0288-.2825-.0225-.4183.0181-.1358.0407-.2593.1145-.3594.2149l-1.2554 1.2581c-1.7862 1.7916-4.6978 1.7945-6.4911.006-.267-.3216-.2669-.6429.0001-.9643l6.5691-6.5434c2.0181-2.0101 4.5385-2.5077 7.205-3.0397.1147-.0228.2235-.069.3196-.1357l5.3764-3.727 16.1253 16.0803c.4024.3327.8046.3327 1.207 0l4.1048-4.0943c.3349-.4033.3349-.8069-.0002-1.2105zm-56.3277 2.9599-2.8943-2.887 14.2578-14.2187 2.8945 2.887zm8.1209 13.2771c-.865.8627-2.2725.8625-3.1374 0-.8523-.85-.8542-2.2958 0-3.1476l1.973-1.9675c.8393-.8369 2.2707-.846 3.1203-.0167.8677.8471.8778 2.3058.0171 3.1642zm4.3573 4.3453c-2.024 2.0182-5.1669-1.124-3.1375-3.1474l2.0195-2.014c.8457-.8362 2.265-.8518 3.1205-.0168.8677.8472.8776 2.3059.017 3.1641zm4.3241 4.3784c-.8469.8445-2.2246.844-3.0715-.0003-.8906-.8311-.9355-2.2797-.0655-3.1475l2.1312-2.1253c.8719-.8698 2.2704-.8035 3.1217.048.8499.8294.8593 2.2581.0166 3.0985zm5.9991 2.7079-.8419.8395c-.8557.8533-2.2552.8612-3.1205.0167-.8678-.847-.8774-2.3058-.0169-3.1641l.8419-.8395c.829-.8222 2.2-.8577 3.0655-.0683.9174.8362.9531 2.3367.0719 3.2157zm28.8181-24.1761-16.4372-16.3913 2.8943-2.887 16.4373 16.3913z"/><path d="m47.74 37.3543c.6137 0 1.1111-.4975 1.1111-1.1111 0-.6137-.4974-1.1111-1.1111-1.1111-.6136 0-1.1111.4974-1.1111 1.1111 0 .6136.4975 1.1111 1.1111 1.1111z"/><path d="m29.4656 75.4881c.6137 0 1.1111-.4975 1.1111-1.1111 0-.6137-.4974-1.1111-1.1111-1.1111-.6136 0-1.1111.4974-1.1111 1.1111 0 .6136.4975 1.1111 1.1111 1.1111z"/></g></svg>