<svg fill="none" height="28" viewBox="0 0 27 28" width="27" xmlns="http://www.w3.org/2000/svg"><path d="m12.8335 24.678h-8c-.35363 0-.69276-.1405-.94281-.3905-.25005-.2501-.39053-.5892-.39053-.9429v-18.66662c0-.35362.14048-.69276.39053-.94281s.58918-.39052.94281-.39052h6.6667v4c0 1.06086.4214 2.07828 1.1715 2.82845.7502.7501 1.7676 1.1715 2.8285 1.1715h4v6.6667c0 .3536.1404.6928.3905.9428.25.2501.5892.3905.9428.3905s.6928-.1404.9428-.3905c.2501-.25.3905-.5892.3905-.9428v-8s0 0 0-.07999c-.0139-.12249-.0407-.24316-.08-.36v-.12c-.0641-.13709-.1496-.26311-.2533-.37333l-8-8c-.1102-.103713-.2362-.189227-.3733-.253335-.0441-.007721-.0893-.007721-.1334 0-.1296-.069329-.269-.11877-.4133-.146666h-8.08c-1.06087 0-2.07829.421431-2.82843 1.171571-.75015.75015-1.171574 1.76756-1.171574 2.82843v18.66662c0 1.0609.421424 2.0783 1.171574 2.8285.75014.7501 1.76756 1.1715 2.82843 1.1715h8c.3536 0 .6928-.1404.9428-.3905.2501-.25.3905-.5892.3905-.9428s-.1404-.6927-.3905-.9428c-.25-.25-.5892-.3905-.9428-.3905zm1.3333-19.45335 3.4534 3.45333h-2.12c-.3537 0-.6928-.14048-.9428-.39053-.2501-.25004-.3906-.58918-.3906-.9428zm-6.66664 11.45335h8.00004c.3536 0 .6927-.1405.9428-.3905.25-.2501.3905-.5892.3905-.9429 0-.3536-.1405-.6927-.3905-.9428-.2501-.25-.5892-.3905-.9428-.3905h-8.00004c-.35362 0-.69276.1405-.94281.3905-.25004.2501-.39052.5892-.39052.9428 0 .3537.14048.6928.39052.9429.25005.25.58919.3905.94281.3905zm5.33334 2.6666h-5.33334c-.35362 0-.69276.1405-.94281.3906-.25004.25-.39052.5892-.39052.9428s.14048.6927.39052.9428c.25005.25.58919.3905.94281.3905h5.33334c.3536 0 .6928-.1405.9428-.3905.2501-.2501.3905-.5892.3905-.9428s-.1404-.6928-.3905-.9428c-.25-.2501-.5892-.3906-.9428-.3906zm-5.33334-8h1.33334c.35362 0 .69276-.1404.94281-.3905.25009-.25.39049-.5892.39049-.9428 0-.35361-.1404-.69275-.39049-.9428-.25005-.25005-.58919-.39052-.94281-.39052h-1.33334c-.35362 0-.69276.14047-.94281.39052-.25004.25005-.39052.58919-.39052.9428 0 .3536.14048.6928.39052.9428.25005.2501.58919.3905.94281.3905zm18.28004 8.3867c-.124-.125-.2715-.2242-.4339-.2918-.1625-.0677-.3368-.1026-.5128-.1026s-.3503.0349-.5128.1026c-.1625.0676-.3099.1668-.4339.2918l-4.3866 4.4-1.72-1.7333c-.1244-.1243-.2719-.223-.4344-.2902-.1624-.0673-.3365-.1019-.5123-.1019s-.3499.0346-.5123.1019c-.1625.0672-.3101.1659-.4344.2902s-.2229.2719-.2902.4343-.1019.3365-.1019.5123c0 .1759.0346.3499.1019.5124.0673.1624.1659.31.2902.4343l2.6667 2.6667c.1239.1249.2714.2241.4339.2918s.3367.1026.5128.1026c.176 0 .3503-.0349.5127-.1026.1625-.0677.31-.1669.4339-.2918l5.3334-5.3334c.1249-.1239.2241-.2714.2918-.4339.0677-.1624.1026-.3367.1026-.5127s-.0349-.3503-.1026-.5128-.1669-.3099-.2918-.4339z" fill="#4dbd95"/></svg>