<svg fill="none" height="494" viewBox="0 0 606 494" width="606" xmlns="http://www.w3.org/2000/svg"><path d="m276.172 482.136c-49.457 0-89.55-14.26-89.55-31.851s40.093-31.851 89.55-31.851c49.456 0 89.549 14.26 89.549 31.851s-40.093 31.851-89.549 31.851z" fill="#1357a4"/><path d="m276.172 482.136c-49.457 0-89.55-14.26-89.55-31.851s40.093-31.851 89.55-31.851c49.456 0 89.549 14.26 89.549 31.851s-40.093 31.851-89.549 31.851z" fill="#fff" opacity=".7"/><path d="m147.84 114.195c-125.5616 90.895-86.4297 205.929-86.4297 205.929 25.1337 75.675 93.1257 93 93.1257 93s120.786 39.787 284.301-69.099c0 0 62.232-45.458 65.28-96.334 0 0 3.462-26.939-34.978-34-19.323-3.559-28.453-26.411-17.189-42.68l.536-.724c2.156-2.982 5.048-5.338 8.387-6.828 18.738-8.464 91.198-44.294 75.173-90.6564 0 0-16.582-96.6458-151.716-46.4999z" fill="#1357a4"/><path d="m147.84 114.195c-125.5616 90.895-86.4297 205.929-86.4297 205.929 25.1337 75.675 93.1257 93 93.1257 93s120.786 39.787 284.301-69.099c0 0 62.232-45.458 65.28-96.334 0 0 3.462-26.939-34.978-34-19.323-3.559-28.453-26.411-17.189-42.68l.536-.724c2.156-2.982 5.048-5.338 8.387-6.828 18.738-8.464 91.198-44.294 75.173-90.6564 0 0-16.582-96.6458-151.716-46.4999z" fill="#fff" opacity=".7"/><path d="m310.363 124.554h204.032c1.943 0 3.519 1.597 3.519 3.567v145.135c0 1.969-1.576 3.566-3.519 3.566h-204.032c-1.944 0-3.519-1.597-3.519-3.566v-145.135c0-1.97 1.575-3.567 3.519-3.567z" fill="#273470"/><path d="m310.363 124.554h204.032c1.943 0 3.519 1.597 3.519 3.567v145.135c0 1.969-1.576 3.566-3.519 3.566h-204.032c-1.944 0-3.519-1.597-3.519-3.566v-145.135c0-1.97 1.575-3.567 3.519-3.567z" fill="#000" opacity=".2"/><path d="m313.939 128.186h196.88c1.943 0 3.519 1.597 3.519 3.566v137.887c0 1.969-1.576 3.566-3.519 3.566h-196.88c-1.944 0-3.519-1.597-3.519-3.566v-137.887c0-1.969 1.575-3.566 3.519-3.566z" fill="#1357a4" opacity=".48"/><path d="m362.293 102.802s7.138 1.816 7.138 12.695v168.552h132.35v-165.332c.008-2.219-.442-4.415-1.318-6.448-.877-2.034-2.163-3.859-3.775-5.361-1.612-1.501-3.515-2.646-5.588-3.36-2.072-.715-4.27-.984-6.451-.79l-.485.044z" fill="#f2f2f2"/><path d="m362.293 102.802s-10.708-1.809-10.708 9.064v51.73s0 8.095-7.138 9.903h24.998v-58.002s0-10.879-7.152-12.695z" fill="#ccc"/><path d="m463.543 102.802v-28.5888c0-1.0725-.42-2.101-1.169-2.8594-.748-.7583-1.763-1.1844-2.821-1.1844h-133.036s7.139 0 7.139 9.0642v85.2014s0 10.851 10.707 9.064c0 0 7.138-.962 7.138-11.357v-50.276s0-10.851 10.708-9.064z" fill="#e6e6e6"/><path d="m326.516 70.1695s-6.845-1.389-9.758 4.3403c-.672 1.4236-1.007 2.9867-.978 4.5647l-.121 45.4795h18.017v-45.3132s0-9.0713-7.16-9.0713z" fill="#ccc"/><path d="m379.632 200.974h110.207c.403 0 .79-.162 1.075-.451s.445-.681.445-1.09v-37.392c0-.202-.039-.402-.115-.589-.077-.186-.189-.356-.33-.498-.142-.143-.309-.256-.494-.332-.184-.077-.382-.116-.581-.115h-110.207c-.402 0-.787.162-1.07.449-.284.288-.444.678-.444 1.085v37.363c-.003.204.033.407.107.597s.185.363.326.509.309.262.494.342c.186.079.385.121.587.122zm110.207-39.881c.127-.001.253.024.371.072.118.049.225.121.315.212.09.09.162.198.211.317s.074.247.074.376v37.363c0 .129-.025.257-.074.377-.049.119-.12.227-.211.319-.09.091-.197.164-.315.213-.117.049-.244.075-.371.075h-110.207c-.257-.002-.502-.107-.682-.291-.181-.184-.282-.433-.282-.693v-37.392c0-.259.102-.508.282-.691.181-.183.426-.286.682-.286z" fill="#e6e6e6"/><path d="m390.911 170.157h91.227c.073 0 .144-.03.196-.082.053-.053.082-.125.082-.2 0-.037-.007-.073-.021-.107s-.035-.064-.061-.09-.057-.046-.09-.059c-.034-.013-.07-.02-.106-.019h-91.227c-.072 0-.141.029-.192.081-.051.051-.079.121-.079.194 0 .074.028.144.079.197.05.053.119.083.192.085z" fill="#e6e6e6"/><path d="m390.911 181.03h91.227c.04.006.081.004.119-.007.039-.011.075-.03.106-.057.031-.026.055-.059.072-.096s.026-.078.026-.119c0-.04-.009-.081-.026-.118s-.041-.07-.072-.096c-.031-.027-.067-.046-.106-.057-.038-.011-.079-.014-.119-.007h-91.227c-.065.011-.124.044-.167.095-.043.052-.067.116-.067.183s.024.132.067.183.102.085.167.096z" fill="#e6e6e6"/><path d="m390.911 190.094h91.227c.04.007.081.004.119-.007.039-.011.075-.03.106-.057.031-.026.055-.059.072-.096s.026-.078.026-.118c0-.041-.009-.082-.026-.119s-.041-.07-.072-.096c-.031-.027-.067-.046-.106-.057-.038-.011-.079-.013-.119-.007h-91.227c-.065.011-.124.045-.167.096s-.067.116-.067.183.024.131.067.182.102.085.167.096z" fill="#e6e6e6"/><path d="m491.074 115.497v30.817h-42.929v-30.817zm-40.245 29.001h37.568v-27.192h-37.561z" fill="#1357a4"/><g fill="#e6e6e6"><path d="m379.861 115.743h59.919c.065-.01.124-.044.167-.095s.067-.116.067-.183-.024-.132-.067-.183-.102-.085-.167-.096h-59.919c-.065.011-.124.045-.167.096s-.067.116-.067.183.024.132.067.183.102.085.167.095z"/><path d="m379.861 125.799h59.919c.072-.002.141-.033.192-.086.05-.052.079-.123.079-.197 0-.072-.029-.142-.08-.194-.051-.051-.12-.08-.191-.08h-59.919c-.072 0-.141.029-.192.08-.051.052-.079.122-.079.194 0 .074.028.145.079.197.051.053.12.084.192.086z"/><path d="m380.432 135.818h59.897c.065-.011.124-.045.167-.096s.066-.116.066-.183-.023-.132-.066-.183-.102-.085-.167-.095h-59.897c-.066.01-.125.044-.168.095s-.066.116-.066.183.023.132.066.183.102.085.168.096z"/><path d="m380.431 145.844h59.897c.073-.002.142-.033.193-.085.05-.053.079-.124.079-.197s-.029-.143-.08-.195c-.051-.051-.12-.08-.192-.08h-59.897c-.072 0-.141.029-.191.08-.051.052-.08.122-.08.195s.028.144.079.197c.051.052.12.083.192.085z"/><path d="m432.063 214.885h59.911c.04.006.081.004.119-.007.039-.011.075-.03.106-.057.031-.026.055-.059.072-.096s.026-.078.026-.119-.009-.081-.026-.118-.041-.07-.072-.096c-.031-.027-.067-.046-.106-.057-.038-.011-.079-.014-.119-.007h-59.911c-.04-.007-.081-.004-.12.007-.038.011-.074.03-.105.057-.031.026-.055.059-.072.096s-.026.077-.026.118.009.082.026.119.041.07.072.096c.031.027.067.046.105.057.039.011.08.013.12.007z"/><path d="m432.062 224.911h59.912c.073-.002.143-.032.194-.085.052-.052.082-.123.084-.197-.002-.074-.032-.143-.084-.195-.052-.051-.122-.08-.194-.08h-59.912c-.036-.001-.072.006-.106.019-.033.013-.064.033-.09.059s-.047.056-.061.09-.021.07-.021.107c0 .075.029.147.081.199.053.053.124.083.197.083z"/><path d="m432.612 234.93h59.889c.04.007.081.004.12-.007s.075-.03.105-.057c.031-.026.056-.059.073-.096.016-.037.025-.078.025-.118 0-.041-.009-.082-.025-.119-.017-.037-.042-.07-.073-.096-.03-.027-.066-.046-.105-.057s-.08-.013-.12-.007h-59.889c-.04-.006-.081-.004-.12.007s-.075.03-.105.057c-.031.026-.056.059-.073.096-.016.037-.025.078-.025.119 0 .04.009.081.025.118.017.037.042.07.073.096.03.027.066.046.105.057s.08.014.12.007z"/><path d="m432.613 244.956h59.89c.073-.001.143-.032.195-.084.052-.053.081-.123.083-.198-.002-.073-.032-.143-.084-.195-.052-.051-.122-.08-.194-.08h-59.89c-.036-.001-.072.006-.106.019-.034.014-.064.034-.09.059-.026.026-.047.057-.061.09-.014.034-.021.071-.021.107 0 .075.029.147.081.2s.123.082.197.082z"/><path d="m384.714 244.971h3.805v-.557h-3.805zm7.095 0h3.327v-.557h-3.284zm6.575 0h3.291v-.557h-3.291zm6.581 0h3.305v-.557h-3.29zm6.575 0h3.29v-.557h-3.29zm6.581 0h3.291v-.557h-3.291zm6.574 0h.828c.465.002.921-.133 1.31-.391.39-.257.696-.624.882-1.056l-.507-.217c-.14.336-.374.622-.674.823s-.651.307-1.011.306h-.828zm-41.844-2.416h.55v-3.335h-.55zm44.5-2.474h.549v-3.335h-.549zm-44.5-4.189h.55v-3.335h-.55zm44.5-2.474h.549v-3.335h-.549zm-44.5-4.195h.55v-3.335h-.55zm44.5-2.474h.549v-3.335h-.549zm-44.5-4.189h.55v-3.335h-.55zm44.5-2.474h.549v-3.328h-.549zm-43.8-4.058c.139-.334.372-.618.671-.818.298-.199.648-.305 1.006-.304h.835v-.557h-.835c-.463 0-.917.137-1.305.394s-.693.623-.879 1.053zm5.803-1.122h3.291v-.557h-3.291zm6.581 0h3.284v-.557h-3.284zm6.575 0h3.29v-.557h-3.24zm6.581 0h3.291v-.557h-3.291zm6.574 0h3.313v-.557h-3.291zm6.582 0h3.276v-.557h-3.283z"/></g><path d="m353.577 86.2794h93.318c.065-.0107.125-.0446.167-.0956.043-.051.067-.1159.067-.1829s-.024-.1318-.067-.1829c-.042-.051-.102-.0849-.167-.0956h-93.318c-.065.0107-.125.0446-.168.0956-.043.0511-.066.1159-.066.1829s.023.1319.066.1829.103.0849.168.0956z" fill="#f2f2f2"/><path d="m353.579 96.3057h93.318c.072-.0019.141-.0325.192-.0852s.079-.1234.079-.1969c0-.073-.029-.1429-.079-.1944-.051-.0516-.12-.0805-.192-.0805h-93.318c-.072 0-.141.0289-.192.0805-.051.0515-.08.1214-.08.1944 0 .0735.029.1442.079.1969.051.0527.12.0833.193.0852z" fill="#f2f2f2"/><path d="m86.3364 358.747s9.9935 54.905 41.7226 65.612c0 0 33.9 14.135 81.333 2.329 6.6-1.641 13.096-3.684 19.452-6.12 0 0 42.287-16.052 55.607-38.383l12.756-59.514-47.562-84.406s-62.324-75.812-144.485-18.237c.021 0-49.6894 18.801-18.8236 138.719z" fill="#ccc"/><path d="m95.4734 277.611s2.8553 79.971 71.0116 90.135c8.616 1.183 17.359 1.059 25.94-.369 8.908-1.382 25.055-.962 24.213 20.501 0 0-2.855 25.731-7.224 38.81 6.6-1.641 13.095-3.684 19.452-6.12 0 0 42.287-16.052 55.606-38.383l12.757-59.514-62.988-75.024s-32.836-44.069-79.149-34.079c0 0-63.6803 1.765-59.6186 64.043z" fill="#000" opacity=".2"/><path d="m253.75 424.011v8.298s-13.013 6.908-19.609-6.453c0 0 13.82.022 19.609-1.845z" fill="#f9b499"/><path d="m284.473 404.718c-1.674 1.392-3.668 2.333-5.797 2.735-6.538 1.186-11.535-3.494-12.177-4.116l-.286-6.648c2.142.723 4.376 1.591 6.667 2.539 4.233 1.75 8.095 3.617 11.593 5.49z" fill="#f9b499"/><path d="m225.918 268.206s-6.96-7.046-18.559-42.297l-8.117-19.98s-2.805-14.851-26.911-13.889l-32.315-4.283s-30.059 14.649-31.215 31.106v49.351s-1.149 58.761 41.78 78.72c0 0-10.436-17.622 3.476-31.721l12.007-12.754s14.662 2.17 15.818-6.047c0 0-4.633-9.405 15.076-11.756l18.56-7.045 6.574 1.244z" fill="#fff"/><path d="m172.288 187.186v7.234s1.128 6.351-7.317 8.471c-3.481.826-7.124.62-10.493-.593-6.632-2.308-18.295-7.762-13.206-16.356 0 0 4.719-8.312 4.098-26.484 0 .015 4.597 28.958 26.918 27.728z" fill="#f9b499"/><path d="m172.287 187.186v7.234s-29.773-2.691-26.918-34.962c0 .015 4.597 28.958 26.918 27.728z" fill="#f7a48b"/><path d="m161.073 302.676-11.007 14.215c-3.831 4.865-5.915 10.906-5.911 17.13.129 10.8 6.425 12.913 6.425 12.913s-10.436-18.809 3.476-31.721l12.006-12.754z" fill="#000" opacity=".2"/><path d="m221.25 278.782s-11.564-8.232-15.04-29.377l-6.71-27.091c-2.53 7.987-2.603 16.566-.207 24.596 3.091 10.315 7.895 24.313 13.098 31.872l3.091-1.172z" fill="#000" opacity=".2"/><path d="m200.162 282.913-36.355-5.852c-1.217-.194-2.367-.692-3.345-1.45-.979-.758-1.755-1.752-2.258-2.891-4.619-10.576-17.768-40.358-21.572-45.378 0 0 5.775 15.878 7.523 27.785 0 0 .593 27.186 20.309 24.842z" fill="#000" opacity=".2"/><path d="m150.581 346.934s28.981 4.702 62.61-2.344c0 0 13.112 55.802 16.246 66.617.289.93.289 1.928 0 2.858-.835 2.532-1.956 8.094 2.855 11.364.622.422 1.303.746 2.021.962l.278.08c.93.255 1.893.36 2.855.311 4.79-.195 16.14-1.092 20.394-5.158.427-.419.714-.963.821-1.555.462-2.429.386-4.932-.221-7.328 0 0 4.64-53.394 0-84.862 0 0 0-10.323-11.014-14.432-10.708-4-64.958-22.758-64.958-22.758s-1.728 2.171-.564 5.723c0 0-.336 7.4-15.819 6.047l-13.919 14.851s-10.865 12.002-1.585 29.624z" fill="#273470"/><path d="m258.367 412.741c-8.237.593-16.553 1.288-24.784.26-.542-.094-1.085-.18-1.634-.26 4.283 1.215 8.78 1.338 13.198 1.295 4.432-.109 8.85-.541 13.22-1.295z" fill="#000" opacity=".2"/><path d="m213.162 344.59v-10.468c-3.476 2.235-28.86 18.664-58.833 7.176-1.246-.469-2.262-1.411-2.833-2.626-.572-1.215-.654-2.609-.23-3.884 3.041-9.021 10.515-28.611 19.217-32.336h-4.448l-13.912 14.851s-10.85 10.851-1.57 29.623c.028.008 24.348 4.71 62.609-2.336z" fill="#000" opacity=".2"/><path d="m239.809 344.59c-3.569 13.397-2.855 31.106 9.608 39.606 1.707 1.12 3.543 2.024 5.468 2.691-15.926-7.111-17.603-26.947-15.076-42.297z" fill="#000" opacity=".2"/><path d="m236.354 378.662c-.764 2.72.714 6.221 3.476 7.053-1.692-2.17-2.534-4.413-3.476-7.053z" fill="#000" opacity=".2"/><path d="m231.956 307.914 15.99 6.12c8.116 3.53 9.101 8.637 9.101 8.637l23.363-.412c-3.476 4.702-15.275 56.424-15.275 56.424-.525-.216-1.095-.293-1.658-.223-.562.069-1.097.283-1.555.621-.649.419-1.232.936-1.727 1.534l.278 10.851c.607 1.693 2.856 3.501 5.768 5.23 6.988 4.174 17.681 7.827 17.681 7.827 9.28 3.523 10.436-5.874 10.436-5.874 2.32-4.702 0-4.702 0-4.702l13.406-31.525c4.352-10.152 7.669-20.728 9.901-31.562 2.229-10.581 3.73-21.306 4.49-32.097 2.32-10.576-30.145-18.809-30.145-18.809l-2.32 8.225z" fill="#273470"/><path d="m231.957 307.914 15.99 6.119c8.116 3.531 9.101 8.638 9.101 8.638l23.364-.413s6.959-7.045 9.279-12.927c0 0-11.849 12.927-27.375 6.468 0 0-9.508-4.131-6.331-10.027.753-1.317 1.897-2.36 3.269-2.98l30.437-14.605z" fill="#000" opacity=".2"/><path d="m294.33 393.94c-9.18-2.894-18.21-6.8-25.94-12.667-1.157-.774-2.142-1.758-3.255-2.611 7.359 8.536 18.266 13.542 29.195 15.278z" fill="#000" opacity=".2"/><path d="m260.167 380.622.278 10.851c.607 1.693 2.855 3.501 5.768 5.23-3.676-5.36-4.283-17.108-4.283-17.614-.663.415-1.257.933-1.763 1.533z" fill="#000" opacity=".2"/><path d="m231.192 434.515c.039 1.334.297 2.652.764 3.899 2.569 10.388 18.309 24.849 18.309 24.849 15.076 12.927 26.854 8.818 26.854 8.818.473-.22.889-.55 1.214-.962 2.641-3.617-7.196-11.365-7.196-11.365-4.945-5.064-8.881-11.047-11.592-17.621-2.32-11.756-5.789-9.817-5.789-9.817-8.78 2.966-14.605-.76-17.403-3.371-.734-.708-1.34-1.54-1.792-2.46l-.278-.079c-2.613 2.365-3.17 5.809-3.091 8.109z" fill="#1357a4"/><path d="m260.166 444.165c.09 0 .179-.022.259-.065.079-.043.147-.105.198-.181.078-.116 1.913-2.893.806-5.143-.763-1.57-2.698-2.452-5.746-2.619-3.048-.166-5.418.564-6.945 2.17-.641.721-1.133 1.563-1.45 2.479-.316.915-.449 1.885-.392 2.853.022.139.096.265.206.351.11.087.248.128.387.115.138-.013.267-.079.36-.184.092-.105.142-.242.139-.383-.076-1.638.479-3.241 1.549-4.471 1.292-1.353 3.341-1.968 6.082-1.816 2.627.145 4.283.818 4.825 1.997.828 1.7-.714 4-.714 4.022-.082.122-.113.272-.086.417.026.145.109.273.229.357.086.062.188.097.293.101z" fill="#fff"/><path d="m250.266 452.072c.101 0 .201-.028.288-.081.087-.054.158-.131.204-.223 2.142-4.34 4.283-4.76 4.319-4.76 5.304-1.237 7.309-.427 8.066.463.957 1.136.286 2.894.278 2.894-.027.068-.041.14-.04.214.001.073.015.145.044.213.028.067.069.129.12.18.052.052.113.092.18.12.067.027.139.041.211.041.072-.001.144-.016.21-.044.067-.029.127-.071.178-.123s.091-.114.118-.182c.036-.101.928-2.401-.457-4.051-1.384-1.649-4.447-1.924-9.122-.839-.065 0-2.67.449-5.09 5.353-.058.13-.064.278-.017.412.046.135.142.246.267.312.07.055.154.09.243.101z" fill="#fff"/><path d="m254.335 459.125c.103-.001.203-.03.29-.085s.157-.133.203-.226c.814-1.826 2.136-3.373 3.805-4.449 4.233-2.17 6.188-1.888 7.081-1.288.322.257.581.588.753.965.173.377.254.79.239 1.206-.009.147.039.293.136.404.096.111.232.179.378.189.146.009.289-.04.399-.138.11-.097.177-.235.186-.383.033-.616-.085-1.231-.343-1.79s-.647-1.045-1.134-1.415c-1.649-1.106-4.405-.723-8.188 1.223-.107.05-2.491 1.295-4.283 4.941-.056.129-.063.275-.018.409s.138.246.261.314c.068.058.149.1.235.123z" fill="#fff"/><path d="m230.279 445.75 4.997 7.291c3.937 5.768 8.756 10.862 14.277 15.09 9.244 7.032 14.669 7.234 14.669 7.234 13.562 2.626 14.105-3.877 14.133-4.224-.329.41-.746.74-1.22.962 0 0-11.778 4.109-26.854-8.811 0 0-15.747-14.468-18.31-24.856-.467-1.248-.725-2.565-.764-3.899-2.762 1.584-3.076 4.34-2.769 6.51.24 1.693.871 3.304 1.841 4.703z" fill="#273470"/><path d="m265.134 413.255c4.426 8.753 24.534 20.255 24.534 20.255 19.687 9.013 29.452.998 29.452.998.743-.601 1.341-1.366 1.749-2.235.353-.776.399-1.659.129-2.467-1.292-3.921-9.28-6.511-9.28-6.511-1.564-.833-3.073-1.769-4.518-2.799-.664-.456-1.314-.926-1.942-1.396-2.099-1.541-3.905-3.01-4.69-3.617l-.442-.377c-.236-.282-.464-.557-.714-.81-1.592-1.844-2.984-3.335-4.19-4.55-1.321-1.324-2.413-2.3-3.255-3.038-.715-.616-1.479-1.17-2.285-1.657-1.185.492-5.196-.296-5.196-.296-9.844 4.911-17.974-1.375-17.974-1.375l-.893 6.511z" fill="#1357a4"/><path d="m263.464 415.063c-.286.966-.278 1.996.022 2.958.301.961.88 1.808 1.662 2.431l13.641 11.169s12.057 9.318 28.289 9.318h.643c15.525-.224 13.148-8.681 13.148-8.681-.408.87-1.006 1.634-1.749 2.235 0 0-9.765 8.016-29.452-.998 0 0-20.108-11.495-24.534-20.255-.417.119-.793.352-1.088.674-.295.321-.496.719-.582 1.149z" fill="#273470"/><path d="m293.744 427.042c-.012.156.037.311.135.431.099.12.24.197.394.213h.057c.143-.002.28-.057.386-.154.107-.097.175-.23.192-.374.3-3.067 1.392-5.194 3.219-6.322 3.398-2.084 8.338-.116 8.388-.094.124.064.268.077.402.035.133-.042.245-.135.312-.26-.664-.455-1.314-.926-1.942-1.396-1.913-.484-5.125-.882-7.717.724-2.198 1.309-3.512 3.725-3.826 7.197z" fill="#fff"/><path d="m287.184 422.695c.062.01.124.01.186 0 .12.001.238-.037.336-.109.097-.071.17-.173.206-.289 1.05-3.147 2.706-5.295 4.954-6.388 3.384-1.649 7.017-.311 7.06-.296.111.044.234.05.349.019.116-.031.218-.099.293-.193l-.442-.376c-.236-.282-.464-.557-.714-.81-2.347-.601-4.825-.387-7.038.607-2.556 1.223-4.419 3.617-5.554 7.075-.028.074-.04.153-.037.232s.023.157.057.228.082.135.141.186c.06.052.129.09.203.114z" fill="#fff"/><path d="m282.546 415.642c.061.01.124.01.185 0 .122 0 .24-.038.338-.109.099-.072.173-.173.212-.289 1.528-4.63 3.476-7.234 5.796-7.733 2.791-.586 5.29 2.127 5.311 2.17.103.116.247.187.4.196.154.01.305-.043.421-.145-1.321-1.324-2.413-2.301-3.255-3.039-.991-.387-2.071-.48-3.112-.267-2.756.586-4.997 3.45-6.653 8.507-.043.142-.03.295.037.428.066.132.181.233.32.281z" fill="#fff"/><path d="m316.359 220.028-26.668 68.159-73.053 24.675 21.815-68.072z" fill="#1357a4"/><path d="m316.359 220.028-26.668 68.159-73.053 24.675 21.815-68.072z" fill="#fff" opacity=".4"/><path d="m316.359 220.028-3.476-1.172-76.529 23.503 2.099 2.431z" fill="#1357a4"/><path d="m316.359 220.028-3.476-1.172-76.529 23.503 2.099 2.431z" fill="#000" opacity=".2"/><path d="m216.639 312.862-7.224-2.858 26.939-67.645 2.099 2.431z" fill="#1357a4"/><path d="m216.639 312.862-7.224-2.858 26.939-67.645 2.099 2.431z" fill="#000" opacity=".3"/><path d="m210.243 308.087-41.138-8.153 46.377-22.324 6.303.97z" fill="#e6e6e6"/><path d="m209.414 310.004-43.379-7.545 3.07-2.524 41.137 8.152z" fill="#ccc"/><path d="m284.473 346.934c-2.855 11.574-2.377 24.465 2.898 35.251-.378-1.447-.949-2.829-1.242-4.297-2.62-10.055-2.755-20.653-1.656-30.954z" fill="#000" opacity=".2"/><path d="m231.193 434.515c.039 1.334.297 2.652.764 3.899 2.57 10.388 18.309 24.849 18.309 24.849 15.076 12.927 26.854 8.818 26.854 8.818.474-.22.889-.55 1.214-.962-26.411.796-41.98-28.936-41.98-28.936-5.796-9.404 0-13.224 0-13.224-.734-.708-1.34-1.54-1.792-2.459l-.278-.08c-2.613 2.351-3.169 5.795-3.091 8.095z" fill="#000" opacity=".2"/><path d="m265.134 413.255c4.426 8.753 24.534 20.255 24.534 20.255 19.687 9.013 29.452.998 29.452.998.743-.601 1.341-1.366 1.749-2.235.353-.776.399-1.659.129-2.467 0 0-6.96 9.194-23.77 3.704 0 0-20.93-8.942-31.623-23.663z" fill="#000" opacity=".2"/><path d="m181.104 296.455c3.184.913 6.439 1.547 9.73 1.895 5.311.555 10.652.755 15.99.601.633-.017 1.246-.229 1.758-.608.511-.378.897-.906 1.106-1.512.208-.607.229-1.263.061-1.882-.169-.619-.519-1.171-1.005-1.583-2.093-1.599-4.365-2.945-6.767-4.008-3.315-1.506-6.711-2.82-10.172-3.935-13.713 3.075-10.701 11.032-10.701 11.032z" fill="#f9b499"/><path d="m169.14 187.316c1.038.052 2.08.014 3.112-.116 12.949-1.54 23.642-16.464 24.484-35.135.093-1.965.072-3.933-.064-5.896v-.043c-1.228-17.419-11.321-31.106-24.199-31.728-14.319-.673-26.682 15.112-27.596 35.251s9.936 36.987 24.263 37.667z" fill="#f9b499"/><path d="m169.14 187.316c1.039.053 2.08.014 3.112-.116h.043c-18.859-4.665-21.715-22.396-21.715-22.396-2.32-11.748 5.632-12.066 5.632-12.066 23.014.868 30.552-11.531 30.552-11.531 7.338-8.326 9.508 2.17 9.929 4.905-1.227-17.42-11.321-31.106-24.198-31.729-14.32-.672-26.683 15.112-27.597 35.252-.913 20.139 9.915 37.001 24.242 37.681z" fill="#f7a48b"/><path d="m144.749 173.029s1.242-9.484.621-13.564c.84-.481 1.577-1.128 2.168-1.902s1.023-1.659 1.273-2.604c2.898-8.681 5.218-6.605 5.218-6.605 25.512 9.404 33.628-21.152 33.628-21.152.585-1.801 1.428-1.823 2.142-1.447.027.01.052.028.071.051.393.27.736.608 1.014.998l.092.123c7.938 15.047 5.575 27.721 5.575 27.721s8.509-.456 7.353-16.906c0 0-1.164-17.629-13.92-18.808 0 0-2.313-18.9679-40.581-10.656 0 0-17.389 4.782-20.872 30.629-.014.043-4.647 32.95 16.218 34.122z" fill="#273470"/><path d="m148.896 154.17c-.005.023-.002.048.01.068s.032.035.054.041c.023.005.047.002.067-.01.02-.013.035-.032.041-.055 2.776-7.806 4.996-5.86 4.996-5.86 25.512 9.404 33.629-21.152 33.629-21.152.585-1.801 1.427-1.823 2.141-1.447-2.049-1.62-6.639-3.313-12.563 6.113 0 0-3.634 7.183-14.691 11.335-2.882 1.034-5.909 1.588-8.965 1.643-2.142.065-4.747.723-4.533 3.508-.05.036.271 1.309-.186 5.816z" fill="#000" opacity=".2"/><path d="m136.632 151.291s-6.953 13.513 8.116 21.738l.621-13.556s-7.574 4.152-8.737-8.182z" fill="#000" opacity=".2"/><path d="m143.014 160.102c-3.52 0-6.374-3.945-6.374-8.811s2.854-8.811 6.374-8.811c3.521 0 6.375 3.945 6.375 8.811s-2.854 8.811-6.375 8.811z" fill="#f9b499"/><path d="m265.086 439.47c.084-.001.167-.021.242-.058 8.416-3.92 11.136-10.315 8.838-20.747-1.021-4.636-.286-6.619.521-7.472.278-.279.616-.49.987-.615.371-.126.766-.163 1.154-.109.152.027.307-.008.433-.097.126-.09.212-.227.238-.38.027-.154-.008-.311-.096-.439-.089-.127-.224-.214-.375-.241-.58-.083-1.171-.027-1.727.162-.555.19-1.059.508-1.471.93-1.428 1.534-1.72 4.413-.807 8.536 2.185 9.925-.264 15.734-8.194 19.431-.139.064-.247.182-.301.327-.053.145-.048.306.015.447.051.101.128.185.225.243.096.058.206.086.318.082z" fill="#fff"/><path d="m222.442 459.125c9.236 0 14.347-4.651 16.553-15.083.985-4.658 2.484-6.156 3.569-6.59.375-.142.778-.195 1.176-.155.399.04.783.173 1.123.387.059.042.125.073.196.089.07.016.143.018.214.005s.139-.04.2-.08.113-.091.154-.152c.082-.122.113-.272.086-.417-.026-.145-.109-.273-.229-.357-.489-.319-1.044-.517-1.622-.578-.578-.062-1.161.015-1.705.224-1.941.774-3.369 3.262-4.24 7.386-2.141 9.961-6.731 14.207-15.475 14.207-.146 0-.286.059-.389.163-.103.105-.161.246-.161.394s.058.29.161.394.243.163.389.163z" fill="#fff"/><path d="m190.812 298.336c5.312.554 10.653.755 15.99.6.633-.017 1.247-.228 1.758-.607.512-.379.898-.906 1.106-1.513.209-.606.23-1.262.061-1.881-.168-.619-.519-1.171-1.005-1.583-2.087-1.594-4.351-2.934-6.745-3.994 0 0-1.464 6.171-11.165 8.978z" fill="#f7a48b"/></svg>