<svg width="280" height="147" viewBox="0 0 280 147" fill="none" xmlns="http://www.w3.org/2000/svg">
<path opacity="0.4" d="M234.029 96.4698C232.329 101.619 226.462 106.195 228.215 109.982C228.882 111.421 229.551 112.927 229.859 114.465C230.059 115.382 230.092 116.327 229.957 117.256C229.325 121.266 225.573 123.93 222.083 126.004C221.868 126.132 221.65 126.262 221.432 126.392C218.126 128.373 214.663 130.654 213.601 134.311C213.011 136.343 213.271 138.516 213.027 140.616C212.796 142.547 212.14 144.402 211.107 146.05H188.822C186.843 143.869 187.008 140.204 188.514 137.634C190.126 134.882 192.848 133.013 195.305 130.979C197.428 129.22 199.496 127.104 200.306 124.522C200.435 124.114 200.53 123.695 200.59 123.271C200.787 121.874 200.681 114.739 203.103 110.346C206.847 103.563 212.921 105.234 214.777 101.407C215.489 99.9406 216.103 81.9268 227.934 85.2545C229.088 85.5631 230.166 86.1034 231.104 86.8424C232.043 87.5814 232.82 88.5036 233.391 89.5529C233.961 90.6021 234.311 91.7565 234.421 92.9457C234.531 94.1348 234.397 95.3339 234.029 96.4698Z" fill="#C1D8ED"/>
<path opacity="0.4" d="M45.3406 96.4698C47.0404 101.619 52.9071 106.195 51.1541 109.982C50.4876 111.421 49.8181 112.927 49.51 114.465C49.3101 115.382 49.2768 116.327 49.4117 117.256C50.0437 121.266 53.7965 123.93 57.286 126.004C57.5016 126.132 57.7188 126.262 57.9366 126.392C61.2431 128.373 64.7061 130.654 65.7683 134.311C66.358 136.343 66.0976 138.516 66.3421 140.616C66.5736 142.547 67.2292 144.402 68.2622 146.05H90.5466C92.5249 143.869 92.3605 140.204 90.8546 137.634C89.2426 134.882 86.5205 133.013 84.0628 130.978C81.9408 129.22 79.872 127.104 79.0621 124.522C78.9333 124.114 78.8382 123.695 78.7777 123.271C78.5813 121.874 78.6874 114.739 76.2655 110.346C72.5208 103.563 66.4472 105.234 64.5908 101.407C63.8792 99.9406 63.2655 81.9268 51.4344 85.2545C50.2809 85.5633 49.2023 86.1036 48.2643 86.8426C47.3263 87.5817 46.5485 88.5039 45.9784 89.5531C45.4083 90.6024 45.0577 91.7567 44.9481 92.9459C44.8384 94.135 44.972 95.3339 45.3406 96.4698Z" fill="#C1D8ED"/>
<path opacity="0.54" d="M5.69928 124.636C6.03888 124.87 6.40412 125.064 6.78787 125.215C9.98007 126.413 18.8583 126.28 20.1561 129.433C20.7668 130.915 20.9129 132.55 21.436 134.067C22.6232 137.506 25.7569 140.085 29.2626 141.054C30.5239 141.402 31.8306 141.564 33.0787 141.952C35.4901 142.703 37.4873 144.216 39.2426 146.049H68.0241C68.0368 144.14 67.5674 142.259 66.6592 140.58C65.7511 138.901 64.4338 137.479 62.8294 136.445C59.6294 134.427 55.5871 134.05 52.4453 131.941C50.3741 130.55 48.8842 128.539 47.7018 126.316C46.9499 124.862 46.2857 123.364 45.7127 121.831C44.8336 119.549 43.9148 117.101 41.9176 115.688C40.9382 115.052 39.8524 114.596 38.7119 114.344C35.8281 113.589 33.6105 114.033 31.5098 114.464C28.9602 114.984 26.5806 115.481 23.3857 113.784C17.7191 110.772 9.43321 95.7551 1.15248 110.024C-2.16719 115.748 2.41384 122.437 5.69928 124.636Z" fill="#DBDBE9"/>
<path d="M187.361 121.731H93.0696V0H167.294L187.361 21.2072V121.731Z" fill="#F3F5FD"/>
<path d="M167.294 0V21.2072H187.361L167.294 0Z" fill="#DEE8F5"/>
<path d="M159.537 51.7637V57.1358C159.537 58.0498 159.174 58.9264 158.528 59.5727C157.881 60.2191 157.005 60.5822 156.091 60.5822H86.9522C86.0381 60.5822 85.1615 60.9453 84.5151 61.5916C83.8687 62.238 83.5056 63.1147 83.5056 64.0288V142.603C83.5056 143.517 83.8687 144.393 84.5151 145.04C85.1615 145.686 86.0381 146.049 86.9522 146.049H193.479C193.931 146.049 194.379 145.96 194.797 145.787C195.216 145.614 195.596 145.36 195.916 145.04C196.236 144.72 196.489 144.34 196.663 143.922C196.836 143.503 196.925 143.055 196.925 142.603V51.7637C196.925 51.3112 196.836 50.863 196.663 50.4449C196.489 50.0267 196.236 49.6468 195.916 49.3268C195.595 49.0068 195.216 48.7529 194.797 48.5797C194.379 48.4065 193.931 48.3174 193.479 48.3174H162.984C162.531 48.3173 162.083 48.4065 161.665 48.5796C161.247 48.7528 160.867 49.0067 160.547 49.3267C160.227 49.6467 159.973 50.0267 159.799 50.4448C159.626 50.863 159.537 51.3111 159.537 51.7637Z" fill="#DBDBE9"/>
<path d="M140.215 129.093C154.498 129.093 166.076 117.515 166.076 103.232C166.076 88.9491 154.498 77.3706 140.215 77.3706C125.932 77.3706 114.354 88.9491 114.354 103.232C114.354 117.515 125.932 129.093 140.215 129.093Z" fill="#F3F5FD"/>
<path d="M150.224 98.6523H148.798V95.4676C148.785 93.1996 147.875 91.0288 146.267 89.4296C144.659 87.8303 142.483 86.9326 140.215 86.9326C137.947 86.9326 135.771 87.8303 134.163 89.4296C132.555 91.0288 131.645 93.1996 131.632 95.4676V98.6523H130.206C129.555 98.6523 128.93 98.9111 128.469 99.3718C128.009 99.8325 127.75 100.457 127.75 101.109V117.122C127.75 117.774 128.009 118.399 128.469 118.86C128.93 119.32 129.555 119.579 130.206 119.579H150.223C150.546 119.579 150.865 119.516 151.163 119.392C151.462 119.269 151.732 119.088 151.96 118.86C152.189 118.631 152.369 118.361 152.493 118.063C152.616 117.765 152.68 117.445 152.68 117.122V101.109C152.68 100.458 152.421 99.8328 151.961 99.372C151.5 98.9113 150.875 98.6524 150.224 98.6523ZM134.423 95.4676C134.423 93.9313 135.033 92.4579 136.119 91.3715C137.206 90.2852 138.679 89.6749 140.215 89.6749C141.752 89.6749 143.225 90.2852 144.311 91.3715C145.398 92.4579 146.008 93.9313 146.008 95.4676V98.6523H134.423V95.4676Z" fill="#64B5ED"/>
<path d="M140.215 112.835C142.179 112.835 143.77 111.244 143.77 109.281C143.77 107.318 142.179 105.726 140.215 105.726C138.252 105.726 136.661 107.318 136.661 109.281C136.661 111.244 138.252 112.835 140.215 112.835Z" fill="white"/>
<circle cx="196.706" cy="61.3196" r="18.7063" fill="url(#paint0_linear_12173_21563)"/>
<circle cx="197.32" cy="60.7063" r="17.7063" fill="url(#paint1_linear_12173_21563)" stroke="url(#paint2_linear_12173_21563)" stroke-width="2"/>
<g filter="url(#filter0_d_12173_21563)">
<path d="M190.995 55.1299C191.811 54.3144 193.133 54.3144 193.949 55.1299L203.117 64.2983C203.825 65.0059 203.825 66.1533 203.117 66.8609C202.268 67.7101 200.891 67.7101 200.042 66.8609L190.995 57.8146C190.254 57.0733 190.254 55.8713 190.995 55.1299Z" fill="url(#paint3_linear_12173_21563)"/>
</g>
<rect x="192.552" y="53.7334" width="16.7531" height="3.8094" rx="1.9047" transform="rotate(45 192.552 53.7334)" fill="url(#paint4_linear_12173_21563)"/>
<g filter="url(#filter1_d_12173_21563)">
<path d="M191.13 67.0562C190.314 66.2407 190.314 64.9185 191.13 64.103L200.298 54.9346C201.006 54.227 202.153 54.227 202.861 54.9346C203.71 55.7838 203.71 57.1607 202.861 58.0098L193.814 67.0562C193.073 67.7975 191.871 67.7975 191.13 67.0562Z" fill="url(#paint5_linear_12173_21563)"/>
</g>
<rect x="189.733" y="65.4995" width="16.7531" height="3.8094" rx="1.9047" transform="rotate(-45 189.733 65.4995)" fill="url(#paint6_linear_12173_21563)"/>
<path opacity="0.54" d="M273.325 124.637C272.985 124.871 272.62 125.065 272.236 125.216C269.044 126.413 260.166 126.28 258.868 129.433C258.257 130.915 258.111 132.551 257.588 134.067C256.402 137.506 253.267 140.085 249.762 141.054C248.5 141.402 247.193 141.564 245.945 141.952C243.534 142.704 241.537 144.216 239.781 146.049H211C210.987 144.14 211.457 142.259 212.365 140.581C213.273 138.902 214.59 137.48 216.195 136.446C219.395 134.427 223.437 134.05 226.579 131.941C228.65 130.55 230.14 128.54 231.322 126.317C232.074 124.862 232.738 123.365 233.312 121.831C234.191 119.55 235.11 117.101 237.106 115.688C238.086 115.052 239.172 114.597 240.312 114.345C243.196 113.59 245.414 114.034 247.515 114.464C250.064 114.985 252.443 115.481 255.638 113.784C261.306 110.773 269.592 95.7533 277.872 110.024C281.191 115.748 276.61 122.438 273.325 124.637Z" fill="#DBDBE9"/>
<defs>
<filter id="filter0_d_12173_21563" x="180.439" y="48.5181" width="33.2085" height="32.98" filterUnits="userSpaceOnUse" color-interpolation-filters="sRGB">
<feFlood flood-opacity="0" result="BackgroundImageFix"/>
<feColorMatrix in="SourceAlpha" type="matrix" values="0 0 0 0 0 0 0 0 0 0 0 0 0 0 0 0 0 0 127 0" result="hardAlpha"/>
<feOffset dy="4"/>
<feGaussianBlur stdDeviation="5"/>
<feComposite in2="hardAlpha" operator="out"/>
<feColorMatrix type="matrix" values="0 0 0 0 0.8125 0 0 0 0 0.176108 0 0 0 0 0 0 0 0 1 0"/>
<feBlend mode="normal" in2="BackgroundImageFix" result="effect1_dropShadow_12173_21563"/>
<feBlend mode="normal" in="SourceGraphic" in2="effect1_dropShadow_12173_21563" result="shape"/>
</filter>
<filter id="filter1_d_12173_21563" x="185.518" y="53.4038" width="22.9795" height="23.2085" filterUnits="userSpaceOnUse" color-interpolation-filters="sRGB">
<feFlood flood-opacity="0" result="BackgroundImageFix"/>
<feColorMatrix in="SourceAlpha" type="matrix" values="0 0 0 0 0 0 0 0 0 0 0 0 0 0 0 0 0 0 127 0" result="hardAlpha"/>
<feOffset dy="4"/>
<feGaussianBlur stdDeviation="2.5"/>
<feComposite in2="hardAlpha" operator="out"/>
<feColorMatrix type="matrix" values="0 0 0 0 0.8125 0 0 0 0 0.176108 0 0 0 0 0 0 0 0 0.5 0"/>
<feBlend mode="normal" in2="BackgroundImageFix" result="effect1_dropShadow_12173_21563"/>
<feBlend mode="normal" in="SourceGraphic" in2="effect1_dropShadow_12173_21563" result="shape"/>
</filter>
<linearGradient id="paint0_linear_12173_21563" x1="196.706" y1="42.6133" x2="196.706" y2="80.0258" gradientUnits="userSpaceOnUse">
<stop stop-color="#FFC47E"/>
<stop offset="1" stop-color="#CA3F20"/>
</linearGradient>
<linearGradient id="paint1_linear_12173_21563" x1="197.32" y1="42" x2="197.32" y2="79.4126" gradientUnits="userSpaceOnUse">
<stop stop-color="#FFC47E"/>
<stop offset="1" stop-color="#FF4C25"/>
</linearGradient>
<linearGradient id="paint2_linear_12173_21563" x1="178.613" y1="63.1596" x2="198.086" y2="61.9329" gradientUnits="userSpaceOnUse">
<stop stop-color="#FCFCFC" stop-opacity="0.3"/>
<stop offset="1" stop-color="#FF5A2F" stop-opacity="0"/>
</linearGradient>
<linearGradient id="paint3_linear_12173_21563" x1="198.435" y1="59.6165" x2="195.616" y2="62.4354" gradientUnits="userSpaceOnUse">
<stop stop-color="white"/>
<stop offset="1" stop-color="#D9BF99"/>
</linearGradient>
<linearGradient id="paint4_linear_12173_21563" x1="200.929" y1="53.7334" x2="200.929" y2="57.5428" gradientUnits="userSpaceOnUse">
<stop stop-color="white"/>
<stop offset="1" stop-color="#FFF5DD"/>
</linearGradient>
<linearGradient id="paint5_linear_12173_21563" x1="195.616" y1="59.6164" x2="198.435" y2="62.4354" gradientUnits="userSpaceOnUse">
<stop stop-color="white"/>
<stop offset="1" stop-color="#D9BF99"/>
</linearGradient>
<linearGradient id="paint6_linear_12173_21563" x1="198.109" y1="65.4995" x2="198.109" y2="69.3089" gradientUnits="userSpaceOnUse">
<stop stop-color="white"/>
<stop offset="1" stop-color="#FFF5DD"/>
</linearGradient>
</defs>
</svg>
