<svg fill="none" height="71" viewBox="0 0 65 71" width="65" xmlns="http://www.w3.org/2000/svg"><g stroke="#6cf" stroke-linecap="round" stroke-linejoin="round" stroke-width="4.87967"><path d="m27.4308 4.36631c3.1555-1.82175 7.0593-1.82175 10.2473 0l19.3235 11.15819c3.1555 1.8217 5.1074 5.2051 5.1074 8.8811v22.2512c0 3.6435-1.9519 7.0267-5.1074 8.881l-19.3235 11.1582c-3.1555 1.8217-7.0592 1.8217-10.2473 0l-19.32341-11.1582c-3.15552-1.8218-5.10739-5.205-5.10739-8.881v-22.2512c0-3.6435 1.95187-7.0269 5.10739-8.8811l6.18091-3.5784"/><path d="m32.5387 32.2924c4.1861 0 7.5797-3.3938 7.5797-7.58s-3.3936-7.5796-7.5797-7.5796-7.5797 3.3934-7.5797 7.5796 3.3936 7.58 7.5797 7.58z"/><path d="m45.5513 50.6833c0-5.8556-5.8231-10.6052-13.0125-10.6052s-13.0124 4.7496-13.0124 10.6052"/></g></svg>