<svg fill="none" height="75" viewBox="0 0 65 75" width="65" xmlns="http://www.w3.org/2000/svg"><g stroke="#6cf" stroke-linecap="round" stroke-linejoin="round" stroke-width="5.15486"><path d="m27.3309 3.799-17.1485 6.4264c-3.95202 1.4777-7.1824 6.1514-7.1824 10.3784v25.5336c0 4.0552 2.6806 9.3819 5.94535 11.8218l14.77725 11.0318c4.8454 3.6428 12.8183 3.6428 17.6639 0l14.7772-11.0318c3.2648-2.4399 5.9453-7.7666 5.9453-11.8218v-25.5336c0-4.227-3.2304-8.9007-7.1824-10.3784l-17.1486-6.4264c-2.921-1.06533-7.5948-1.06533-10.4471 0z"/><path d="m32.5221 33.6748c-.1374 0-.3092 0-.4467 0-3.2304-.1031-5.8078-2.7836-5.8078-6.0483 0-3.3334 2.7149-6.0484 6.0483-6.0484 3.3335 0 6.0484 2.715 6.0484 6.0484-.0343 3.299-2.6118 5.9452-5.8422 6.0483z"/><path d="m25.6813 43.2722c-3.299 2.1994-3.299 5.8078 0 8.0072 3.7458 2.5087 9.8973 2.5087 13.6432 0 3.2991-2.1994 3.2991-5.8078 0-8.0072-3.7115-2.5088-9.863-2.5088-13.6432 0z"/></g></svg>