<svg height="20" viewBox="0 0 20 20" width="20"><path d="m8.438 0h3.125a.935.935 0 0 1 .937.938v6.562h3.426a.78.78 0 0 1 .551 1.332l-5.941 5.945a.757.757 0 0 1 -1.066 0l-5.95-5.945a.78.78 0 0 1 .55-1.332h3.43v-6.562a.935.935 0 0 1 .938-.938zm11.562 14.688v4.375a.935.935 0 0 1 -.937.938h-18.125a.935.935 0 0 1 -.938-.938v-4.375a.935.935 0 0 1 .938-.937h5.73l1.914 1.914a2 2 0 0 0 2.836 0l1.914-1.914h5.73a.935.935 0 0 1 .938.937zm-4.844 3.438a.781.781 0 1 0 -.781.781.784.784 0 0 0 .781-.782zm2.5 0a.781.781 0 1 0 -.781.781.784.784 0 0 0 .781-.782z" fill="#fff"/></svg>