<svg height="20" viewBox="0 0 20 20" width="20" xmlns="http://www.w3.org/2000/svg"><path d="m3.806 20a3.81 3.81 0 0 1 -3.806-3.806v-3.046a.924.924 0 1 1 1.849 0v3.046a1.959 1.959 0 0 0 1.958 1.958h12.387a1.959 1.959 0 0 0 1.958-1.958v-3.046a.924.924 0 1 1 1.849 0v3.046a3.809 3.809 0 0 1 -3.807 3.806zm5.54-5.644-5.113-5.113a.925.925 0 0 1 1.307-1.308l3.536 3.535v-10.546a.924.924 0 1 1 1.849 0v10.546l3.535-3.536a.925.925 0 0 1 1.308 1.308l-5.113 5.114a.925.925 0 0 1 -1.308 0z" fill="#263570"/></svg>