<svg fill="none" height="24" viewBox="0 0 24 24" width="24" xmlns="http://www.w3.org/2000/svg"><path d="m10.1256-.00000183h3.75c.1479-.00031702.2943.02858983.4309.08505913.1367.0564687.2608.1393867.3653.2439877s.1873.228821.2436.365521.0851.283184.0846.431034v7.8744h4.1112c.1852.00002.3662.05497.5201.15789.154.10293.2739.2492.3447.42032s.0892.35939.053.54099-.1255.3484-.2566.4792l-7.1292 7.134c-.1701.1687-.4.2633-.6396.2633s-.4695-.0946-.6396-.2633l-7.13999-7.134c-.13098-.1308-.22026-.2974-.25654-.4789-.03628-.18149-.01795-.36966.05269-.54073s.1904-.31736.34416-.42038c.15376-.10301.33461-.15813.51969-.15839h4.116v-7.8744c-.00048-.147951.02831-.294533.08471-.431312s.13929-.261053.24391-.365669c.10461-.104617.22889-.18751.36567-.2439081.13677-.0563983.28336-.08518821.4313-.08471273zm13.8744 17.62560183v5.25c.0005.1478-.0283.2943-.0846.431s-.1391.261-.2436.3656-.2286.1875-.3653.2439c-.1366.0565-.283.0854-.4309.0851h-21.74999c-.147953.0005-.294536-.0283-.431315-.0847-.136778-.0564-.261052-.1393-.365669-.2439-.104616-.1046-.187509-.2289-.2439074-.3657-.0563983-.1368-.08518828-.2834-.08471281-.4313v-5.25c-.00031701-.1478.02858991-.2943.08505911-.4309.0564691-.1367.1393871-.2608.2439881-.3653.1046-.1045.228821-.1873.365521-.2436s.283184-.0851.431036-.0846h6.876l2.29679 2.2968c.223.2242.4882.4022.7802.5236s.6052.1839.9214.1839c.3163 0 .6294-.0625.9214-.1839s.5572-.2994.7802-.5236l2.2968-2.2968h6.876c.1479-.0005.2943.0283.431.0846s.261.1391.3656.2436.1875.2286.2439.3653c.0565.1366.0854.2831.0851.4309zm-5.8128 4.1256c0-.1854-.055-.3666-.1579-.5207-.103-.1541-.2494-.2742-.4206-.3452-.1713-.0709-.3597-.0895-.5415-.0533s-.3488.1254-.4799.2565-.2203.2981-.2565.4799c-.0361.1818-.0176.3702.0533.5414.071.1713.1911.3177.3452.4207.1541.1029.3353.1579.5207.1579.2485-.0009.4865-.1002.6621-.276s.2745-.4139.2751-.6624zm3 0c0-.1854-.055-.3666-.1579-.5207-.103-.1541-.2494-.2742-.4206-.3452-.1713-.0709-.3597-.0895-.5415-.0533s-.3488.1254-.4799.2565-.2203.2981-.2565.4799c-.0361.1818-.0176.3702.0533.5414.071.1713.1911.3177.3452.4207.1541.1029.3353.1579.5207.1579.2485-.0009.4865-.1002.6621-.276s.2745-.4139.2751-.6624z" fill="#5758a1"/></svg>