    <svg  *ngIf=" ! ref.children.length" xmlns="http://www.w3.org/2000/svg" width="20" height="20" viewBox="0 0 20 20">
        <path
        d="M3.806,20A3.81,3.81,0,0,1,0,16.194V13.148a.924.924,0,1,1,1.849,0v3.046a1.959,1.959,0,0,0,1.958,1.958H16.194a1.959,1.959,0,0,0,1.958-1.958V13.148a.924.924,0,1,1,1.849,0v3.046A3.809,3.809,0,0,1,16.194,20Zm5.54-5.644L4.233,9.243A.925.925,0,0,1,5.54,7.935L9.076,11.47V.924a.924.924,0,1,1,1.849,0V11.47l3.535-3.536a.925.925,0,0,1,1.308,1.308l-5.113,5.114a.925.925,0,0,1-1.308,0Z"
        fill="#263570"></path>
      </svg>