<svg fill="none" height="27" viewBox="0 0 25 27" width="25" xmlns="http://www.w3.org/2000/svg"><path d="m23.8934 19.4028-3.2295-3.192c-.1241-.1237-.2717-.2218-.4343-.2888-.1626-.0669-.3371-.1014-.5133-.1014-.1761 0-.3506.0345-.5132.1014-.1626.067-.3102.1651-.4343.2888l-4.7776 4.722c-.1237.1233-.2216.2695-.288.4302s-.1001.3328-.099.5063v3.1921c0 .3498.1406.6853.3908.9327.2503.2473.5898.3863.9437.3863h3.2296c.1756.001.3497-.0323.5123-.0979.1626-.0657.3105-.1624.4352-.2846l4.7776-4.7221c.1251-.1226.2244-.2685.2922-.4293.0677-.1607.1026-.3331.1026-.5072s-.0349-.3465-.1026-.5073c-.0678-.1607-.1671-.3066-.2922-.4292zm-6.2856 4.3396h-1.3346v-1.3191l3.4431-3.403 1.3346 1.319zm-8.00725 0h-5.33815c-.35394 0-.69338-.139-.94366-.3864-.25027-.2473-.39088-.5828-.39088-.9327v-18.46624c0-.34983.14061-.68532.39088-.93269.25028-.24736.58972-.38633.94366-.38633h6.6727v3.95706c0 1.04947.4218 2.05597 1.1726 2.79806.7508.74214 1.7692 1.15904 2.831 1.15904h4.0036v1.319c0 .3498.1406.6853.3909.9327.2503.2473.5897.3863.9436.3863.354 0 .6934-.139.9437-.3863.2503-.2474.3909-.5829.3909-.9327v-2.63806s0 0 0-.07914c-.0139-.12118-.0408-.24055-.0801-.35614v-.11871c-.0642-.13562-.1497-.26029-.2535-.36933l-8.0073-7.914114c-.1103-.102599-.2364-.187194-.3736-.250614-.0399-.005592-.0803-.005592-.1202 0l-.427-.145092h-8.0873c-1.06182 0-2.08016.416903-2.83098 1.159-.750823.74209-1.172631 1.74858-1.172631 2.79806v18.46624c0 1.0495.421808 2.056 1.172631 2.7981.75082.7421 1.76916 1.159 2.83098 1.159h5.33815c.35394 0 .69335-.139.94365-.3863.2503-.2474.3909-.5829.3909-.9327 0-.3499-.1406-.6854-.3909-.9327-.2503-.2474-.58971-.3863-.94365-.3863zm4.00365-19.24454 3.4564 3.41626h-2.1219c-.3539 0-.6934-.13897-.9437-.38633-.2502-.24737-.3908-.58287-.3908-.93269zm-6.67272 11.33034h8.00722c.3539 0 .6934-.1389.9437-.3863.2502-.2474.3908-.5829.3908-.9327s-.1406-.6853-.3908-.9327c-.2503-.2473-.5898-.3863-.9437-.3863h-8.00722c-.35395 0-.69339.139-.94366.3863-.25028.2474-.39088.5829-.39088.9327s.1406.6853.39088.9327c.25027.2474.58971.3863.94366.3863zm0-5.276h1.33453c.35394 0 .69339-.139.94366-.3864.25028-.24734.39088-.58284.39088-.93266 0-.34983-.1406-.68533-.39088-.93269-.25027-.24736-.58972-.38633-.94366-.38633h-1.33453c-.35395 0-.69339.13897-.94366.38633-.25028.24736-.39088.58286-.39088.93269 0 .34982.1406.68532.39088.93266.25027.2474.58971.3864.94366.3864zm2.66907 7.9141h-2.66907c-.35395 0-.69339.1389-.94366.3863-.25028.2474-.39088.5829-.39088.9327s.1406.6853.39088.9327c.25027.2473.58971.3863.94366.3863h2.66907c.35394 0 .69335-.139.94365-.3863.2503-.2474.3909-.5829.3909-.9327s-.1406-.6853-.3909-.9327-.58971-.3863-.94365-.3863z" fill="#919eab"/></svg>