<svg fill="none" height="28" viewBox="0 0 27 28" width="27" xmlns="http://www.w3.org/2000/svg"><path d="m6.66667 8.67798c-.35362 0-.69276.14047-.94281.39052s-.39053.58919-.39053.9428c0 .3536.14048.6928.39053.9428.25005.2501.58919.3905.94281.3905h1.33333c.35362 0 .69276-.1404.94281-.3905.25005-.25.39052-.5892.39052-.9428 0-.35361-.14047-.69275-.39052-.9428s-.58919-.39052-.94281-.39052zm6.66663 16.00002h-9.3333c-.35362 0-.69276-.1405-.94281-.3905-.25005-.2501-.39052-.5892-.39052-.9429v-18.66662c0-.35362.14047-.69276.39052-.94281s.58919-.39052.94281-.39052h6.6667v4c0 1.06086.4214 2.07828 1.1715 2.82845.7502.7501 1.7676 1.1715 2.8285 1.1715h4v1.3334c0 .3536.1404.6927.3905.9428.25.25.5892.3905.9428.3905s.6928-.1405.9428-.3905c.2501-.2501.3905-.5892.3905-.9428v-2.6667s0 0 0-.07999c-.0139-.12249-.0407-.24316-.08-.36v-.12c-.0641-.13709-.1496-.26311-.2533-.37333l-8-8c-.1102-.103713-.2362-.189227-.3733-.253335-.0398-.005653-.0802-.005653-.12 0l-.4267-.146666h-8.08c-1.06087 0-2.07828.421431-2.82843 1.171571-.750143.75015-1.17157 1.76756-1.17157 2.82843v18.66662c0 1.0609.421427 2.0783 1.17157 2.8285.75015.7501 1.76756 1.1715 2.82843 1.1715h9.3333c.3537 0 .6928-.1404.9428-.3905.2501-.25.3906-.5892.3906-.9428s-.1405-.6927-.3906-.9428c-.25-.25-.5891-.3905-.9428-.3905zm0-19.45335 3.4534 3.45333h-2.12c-.3537 0-.6928-.14048-.9428-.39053-.2501-.25004-.3906-.58918-.3906-.9428zm11.7734 13.01335c-1.0168-.97-2.3681-1.5111-3.7734-1.5111-1.4052 0-2.7565.5411-3.7733 1.5111-.7453.7461-1.2526 1.6964-1.458 2.7308-.2053 1.0344-.0993 2.1065.3045 3.0807.4039.9742 1.0875 1.8068 1.9644 2.3925.8769.5858 1.9079.8985 2.9624.8985 1.0546 0 2.0855-.3127 2.9625-.8985.8769-.5857 1.5605-1.4183 1.9643-2.3925.4039-.9742.5098-2.0463.3045-3.0807s-.7126-1.9847-1.4579-2.7308zm-6.44 3.7733c0-.7072.2809-1.3855.781-1.8856s1.1784-.7811 1.8856-.7811c.2297.003.4581.0344.68.0934l-3.2533 3.2533c-.059-.2219-.0904-.4503-.0933-.68zm4.5466 1.88c-.3305.322-.7389.5526-1.1853.6695s-.9154.1159-1.3613-.0028l3.24-3.2267c.059.222.0903.4504.0933.68-.003.7061-.2859 1.3822-.7867 1.88zm-11.2133-1.88c.3536 0 .6928-.1405.9428-.3905.2501-.2501.3905-.5892.3905-.9428s-.1404-.6928-.3905-.9428c-.25-.2501-.5892-.3906-.9428-.3906h-5.33333c-.35362 0-.69276.1405-.94281.3906-.25005.25-.39053.5892-.39053.9428s.14048.6927.39053.9428c.25005.25.58919.3905.94281.3905zm2.6667-8h-8.00003c-.35362 0-.69276.1405-.94281.3905-.25005.2501-.39053.5892-.39053.9428 0 .3537.14048.6928.39053.9429.25005.25.58919.3905.94281.3905h8.00003c.3536 0 .6927-.1405.9428-.3905.25-.2501.3905-.5892.3905-.9429 0-.3536-.1405-.6927-.3905-.9428-.2501-.25-.5892-.3905-.9428-.3905z" fill="#6258a6"/></svg>