<svg fill="none" height="80" viewBox="0 0 80 80" width="80" xmlns="http://www.w3.org/2000/svg"><g fill="#6258a6"><path d="m6.25 33.75c1.1225 0 2.14875-.385 2.98375-1.0125l4.96255 3.97c-.2813.6262-.4463 1.3137-.4463 2.0425 0 2.7575 2.2425 5 5 5 1.65 0 3.1025-.8125 4.0138-2.0475l3.5487 1.42c-.025.2075-.0625.4125-.0625.6275 0 2.7575 2.2425 5 5 5s5-2.2425 5-5c0-.7288-.165-1.4162-.4463-2.0412l4.9626-3.97c.8349.6262 1.8612 1.0112 2.9837 1.0112 2.7575 0 5-2.2425 5-5 0-.4913-.0938-.9575-.2262-1.4062l4.2237-2.5338c.9025.8887 2.1387 1.44 3.5025 1.44 2.7575 0 5-2.2425 5-5s-2.2425-5-5-5-5 2.2425-5 5c0 .4913.0938.9575.2262 1.4062l-4.2237 2.5338c-.9025-.8887-2.1387-1.44-3.5025-1.44-2.7575 0-5 2.2425-5 5 0 .7288.165 1.4163.4463 2.0425l-4.9626 3.97c-.8349-.6275-1.8612-1.0125-2.9837-1.0125-1.65 0-3.1025.8125-4.0138 2.0475l-3.55-1.42c.0263-.2075.0638-.4125.0638-.6275 0-2.7575-2.2425-5-5-5-1.1225 0-2.1488.385-2.9838 1.0125l-4.9625-3.97c.2813-.6262.4463-1.3137.4463-2.0425 0-2.7575-2.2425-5-5-5s-5 2.2425-5 5 2.2425 5 5 5zm50-10c1.3787 0 2.5 1.1212 2.5 2.5 0 1.3787-1.1213 2.5-2.5 2.5s-2.5-1.1213-2.5-2.5c0-1.3788 1.1213-2.5 2.5-2.5zm-12.5 7.5c1.3787 0 2.5 1.1213 2.5 2.5s-1.1213 2.5-2.5 2.5-2.5-1.1213-2.5-2.5 1.1213-2.5 2.5-2.5zm-12.5 10c1.3787 0 2.5 1.1213 2.5 2.5s-1.1213 2.5-2.5 2.5-2.5-1.1213-2.5-2.5 1.1213-2.5 2.5-2.5zm-12.5-5c1.3787 0 2.5 1.1213 2.5 2.5s-1.1213 2.5-2.5 2.5-2.5-1.1213-2.5-2.5 1.1213-2.5 2.5-2.5zm-12.5-10c1.37875 0 2.5 1.1213 2.5 2.5s-1.12125 2.5-2.5 2.5-2.5-1.1213-2.5-2.5 1.12125-2.5 2.5-2.5z"/><path d="m75.6513 24.4988c-.6676-3.1375-1.8825-6.0763-3.6201-8.7538l1.64-2.7337-6.6837-6.68255-2.7338 1.64c-2.6775-1.7375-5.6149-2.95125-8.7524-3.61875l-.7763-3.1h-9.45l-.7763 3.1c-3.1375.6675-6.0749 1.88125-8.7524 3.61875l-2.7338-1.64-6.6837 6.68375 1.64 2.7338c-1.7375 2.6774-2.9513 5.6162-3.62 8.7537l-3.0988.7738v4.7262h2.5v-2.7738l2.7588-.6899.1437-.7938c.6075-3.3537 1.895-6.465 3.8237-9.2475l.4588-.6637-1.4588-2.4313 3.9251-3.92375 2.43 1.45875.6625-.46c2.7837-1.92875 5.8937-3.215 9.2474-3.82375l.7938-.14375.69-2.7575h5.5488l.6899 2.75875.7938.14375c3.355.6075 6.465 1.895 9.2475 3.8237l.6625.46 2.43-1.4587 3.925 3.9237-1.4587 2.4313.4587.6637c1.9287 2.7825 3.215 5.8938 3.8237 9.2475l.1438.7938 2.76.6887v5.5476l-2.7588.6899-.1437.7938c-.6075 3.3538-1.895 6.465-3.8237 9.2475l-.4588.6637 1.4588 2.4313-3.9251 3.9238-2.43-1.4588-.6625.46c-.7225.5-1.4812.9475-2.2562 1.365v-2.8712c6.1825-3.87 10-10.7013 10-18.0176 0-11.7174-9.5325-21.24995-21.25-21.24995s-21.25 9.53255-21.25 21.24995h2.5c0-10.3387 8.4113-18.7499 18.75-18.7499s18.75 8.4112 18.75 18.7499c0 5.9163-2.8288 11.475-7.5 14.9925v-6.2437h-10v37.5h-2.5v-30h-10v30h-2.5v-20h-10v20h-2.5v-25h-10v25h-2.5v-35h-10v37.5h60v-25.0675c1.0337-.49 2.045-1.0313 3.0037-1.6513l2.7338 1.64 6.6837-6.6837-1.64-2.7338c1.7376-2.6775 2.9513-5.6162 3.6201-8.7537l3.0987-.7738v-9.4524zm-66.9013 51.7512h-5v-32.5h5zm32.5-27.5h5v27.5h-5zm-12.5 10h5v17.5h-5zm-12.5-5h5v22.5h-5zm42.5 22.5h-5v-35h5z"/><path d="m49.9998 16.25v-2.5c-6.8762 0-13.035 4.3538-15.325 10.8338l2.3563.8337c1.9387-5.4837 7.15-9.1675 12.9687-9.1675z"/><path d="m33.75 30h2.5c0-.7713.0638-1.5425.19-2.2925l-2.4662-.415c-.1475.8875-.2238 1.7975-.2238 2.7075z"/></g></svg>