<svg fill="none" height="20" viewBox="0 0 20 20" width="20" xmlns="http://www.w3.org/2000/svg"><path d="m19.9269 9.71521-3.8412-7.97862c-.1705-.35537-.5873-.51758-.9566-.37778-.54.19316-.9875.31055-1.4127.36924-1.2059.1652-2.4927-.08943-3.6229-.71607-1.41545-.814043-3.02134-1.147001-4.64664-.9623801-1.41572.1594361-2.73048.6994261-3.83543 1.5693901l-.20148-.41962c-.0111-.02518-.02518-.04759-.04205-.06702.03095-.07833.0476-.165194.0476-.257398 0-.388878-.3161-.707749-.70775-.707749-.388878 0-.70775.316096-.70775.707749 0 .327198.223893.604238.525903.682568.00555.01686.014087.03628.022411.05314l8.588406 17.85664c.0811.1707.25185.2687.42815.2687.06979 0 .1398-.0141.20682-.0476.23801-.1149.33571-.3974.22389-.6352l-3.88302-8.0653c2.13456-1.77362 5.13074-2.03935 7.56174-.6377.8758.5007 1.8717.8029 2.8786.8727.1512.0113.2995.0141.4506.0141.8586 0 1.7233-.165 2.5177-.4868.1959-.0784.3496-.2378.4251-.4308.0784-.1987.07-.41957-.0194-.60419zm-3.0327.57349-1.2223-2.56825c.067.00277.1342.00277.2012.00277.6436 0 1.2871-.10074 1.8996-.29368l1.2085 2.50935c-.6798.24631-1.3848.36371-2.087.34981zm-5.8496-1.74845-1.22254-2.56549c1.00994.08687 2.01144.38888 2.93194.91756.0194.01131.0363.01964.0559.03095l1.2057 2.526c-.9288-.50904-1.9358-.81682-2.971-.90902zm-5.51109-4.98541c.92609-.32442 1.91344-.45312 2.88991-.37757l1.30366 2.73325c-.97924-.07001-1.96104.06147-2.88713.3861zm4.09005-1.71474s.00278 0 .00278.00278l.00277.00277c.31332.17353.63779.32165.96789.4448l.8365 1.75678c-.9344-.537-1.94995-.83922-2.9738-.9231l-.98756-2.07288c.74147.13425 1.46886.3972 2.15142.78885zm1.93864 2.33861c.7805.41961 1.6562.67424 2.5431.73293.0559.00299.1146.00577.1705.00854l1.3064 2.74157c-.9427-.04482-1.8771-.30777-2.7304-.7833zm2.2799-1.5077c.4533-.06169.9205-.17908 1.4631-.36647l1.0968 2.27991c-.6827.21813-1.3877.31332-2.0869.28814l-1.0269-2.15121c.1874-.00854.3721-.02519.5539-.05037zm-9.478-1.4409 1.09386 2.29122c-.82514.29667-1.6029.74702-2.28845 1.34571l-1.13846-2.36956c.69942-.58459 1.49383-1.00997 2.33305-1.26737zm.17075 6.47924c.67979-.59869 1.45477-1.04626 2.27714-1.34293l1.19736 2.50935c-.83922.26871-1.62253.68555-2.32195 1.23113z" fill="#fff"/></svg>