<svg fill="none" height="70" viewBox="0 0 70 70" width="70" xmlns="http://www.w3.org/2000/svg" xmlns:xlink="http://www.w3.org/1999/xlink"><clipPath id="a"><path d="m0 0h70v70h-70z"/></clipPath><g clip-path="url(#a)"><path d="m35.0018 17.916c-3.7109-.0017-7.3389 1.0972-10.425 3.1578-3.0862 2.0606-5.4919 4.9902-6.9128 8.4183-1.4209 3.428-1.7931 7.2005-1.0696 10.8401.7235 3.6397 2.5103 6.983 5.1343 9.6069 2.624 2.624 5.9672 4.4108 9.6069 5.1343 3.6396.7236 7.4121.3513 10.8402-1.0695 3.428-1.4209 6.3577-3.8266 8.4182-6.9128 2.0606-3.0862 3.1595-6.7142 3.1578-10.4251-.0056-4.9711-1.9829-9.7369-5.498-13.252-3.515-3.5151-8.2809-5.4923-13.252-5.498zm16.2319 13.4335c-.3438.2367-.6308.5468-.8402.9079-.2094.361-.3361.7641-.3709 1.1801l-.0025.0419c-.0112.0966-.0325.1917-.0637.2838-.0301-.0608-.0565-.1164-.0758-.1569-.057-.1198-.1081-.2244-.1514-.3009-.4877-.8584-1.2551-1.5237-2.1741-1.8847-.5871-.2305-1.5702-.6167-2.3887-.2415-.3098.1424-1.253.5757-1.1182 1.4575.0892.5839.6159.9763 1.5672 1.1694-.0616.1562-.1403.3051-.2348.4439-.0549.0845-.1094.1752-.1654.2682-.107.1784-.3064.5106-.4122.5438-.0521.0179-.2175-.0743-.3924-.2848-.084-.1016-.1628-.21-.2421-.3184-.3274-.5373-.8117-.9612-1.3876-1.2146-.207-.095-.4352-.1345-.6621-.1148-.227.0198-.4449.0982-.6324.2275-.5996.4342-.5676 1.241-.5571 1.5059.0385.6822.2197 1.3488.5319 1.9566.3123.6077.7486 1.1432 1.2809 1.5717.4403.341.944.591 1.4819.7352.0145.0049.0291.0096.0438.0145-.0491.0814-.0981.164-.1469.2468-.1253.2116-.2513.4254-.386.6231-.167.2452-.3554.4855-.555.7396-.5285.6066-.954 1.2957-1.2595 2.04-.211.6561-.3315 1.3379-.3583 2.0266-.0231.4379-.0816.8732-.175 1.3016-.1321.3837-.344.735-.6217 1.0307-.5398.618-1.1565 1.1644-1.8349 1.6258-.3701.2683-.8714.5257-1.1603.2264-.49-.5639-.8138-1.2528-.9353-1.9899-.0654-.3724-.0986-.7497-.0993-1.1277.0072-.6098-.0734-1.2174-.239-1.8043-.076-.2183-.1698-.43-.2804-.6331-.1105-.1632-.1791-.3512-.1996-.5473.1357-1.3757-.3778-2.1553-.8325-2.5673-1.1283-1.0217-2.902-.7766-3.2896-.7078-.6278.0378-1.1474-.2047-1.8603-.5388l-.1815-.0848c-1.1509-.5353-1.4439-1.0968-1.3061-2.5029.1015-.7813.4299-1.5158.9446-2.1124s1.193-1.0292 1.951-1.2443c1.4293-.3648 2.839-.0004 4.5331.5146.4718.1432 1.223.0746 2.3151-.0466.2571-.0287.577-.0641.6581-.0641h.0013c.3853.0475.7763.0175 1.1499-.0881.3737-.1056.7225-.2847 1.026-.527.3417-.2997.5561-.7185.5995-1.171.0388-.3706-.0042-.7453-.1259-1.0975s-.3191-.6734-.5784-.9411c-1.3713-1.3861-4.3593-1.2056-6.7592-1.0596-.3801.023-.8238.0499-1.2209.0633.295-.2218.701-.507 1.2597-.8704l.0442-.0105c.312-.0591.5936-.2256.7957-.4706.4421-.6084.6824-1.3401.687-2.0921l.0013-.0102c.0374-.2982 1.2778-.5861 2.5443-.4836.0191.0017.0385.0025.0576.0029.2756.0144.5507-.0382.8015-.1533.2508-.1152.47-.2895.6387-.5079.6248-.8616.2287-2.154.143-2.4044-.0099-.0298-.0221-.0587-.0364-.0867.0643-.4012.242-.7757.5121-1.0793.0138-.0169.023-.0358.0353-.0535 2.4999.8605 4.7672 2.287 6.6248 4.1683s3.2554 4.1665 4.0841 6.6771zm-14.775-11.7004c-.3201.633-.807 1.1666-1.4081 1.5433h-.0006c-1.0153.0756-1.9993.3849-2.8753.9037-.0185.011-.0364.0224-.0541.0348-.4256.3013-.8735.5695-1.34.8024-.5694.2767-.9696.3534-1.1275.2149-.021-.0174-.0382-.0391-.0503-.0635-.0121-.0245-.0189-.0513-.0199-.0785-.0003-.033.0062-.0656.0191-.0959s.032-.0576.056-.0801c.3153-.2388.6795-.4047 1.0665-.4861.7137-.2203 1.6793-.5186 2.161-1.4945.0342-.0267.0741-.0554.1166-.0871.4365-.2813.7854-.6793 1.0071-1.1488.3287-.0189.6592-.031.9926-.031.4911 0 .9762.0256 1.4569.0664zm-11.6299 3.3021c.0001.1247-.011.2492-.0331.3719-.2289 1.1867-.9017 2.4351-1.44 2.6713-.639.3461-1.2329.7694-1.7686 1.2604-.4681.3858-1.0237.8436-1.5615 1.2016 1.1886-2.1577 2.8266-4.035 4.8032-5.5052zm-6.9103 13.7148c.0005-.6101.0335-1.2198.0988-1.8264.4349.0228 1.3931.2242 1.4527.6252-.0744.8989-.0619 1.8029.0374 2.6994.1585 1.3682 1.1233 2.1849 1.9745 2.9053.7072.5986 1.3182 1.1157 1.3719 1.8274-.0108.4319-.11.8571-.2916 1.2492-.1291.3287-.2347.6662-.3157 1.0099-.1104.8717-.1771 1.7484-.1999 2.6268-2.6654-3.0902-4.1306-7.0359-4.1281-11.1168zm11.5251 16.15c1.4942-.6152 4.1247-1.1766 6.587.9012-.3412.02-.6839.0321-1.0288.0321-1.8917.0003-3.7703-.3151-5.5582-.9333zm21.1063-9.0616c-1.6875 3.6912-4.6303 6.6635-8.3044 8.3877-1.3121.6147-2.6978 1.058-4.123 1.319-.0265-.0438-.0569-.085-.0909-.1231-4.3422-4.7868-9.6307-1.9434-10.5946-1.3605-1.3089-.6501-2.5291-1.4652-3.6309-2.4253-.137-.6822-.164-1.3819-.0799-2.0725-.014-.8249.082-1.648.2853-2.4476.2312-.7557.566-1.4448.5041-2.2607-.1062-1.4075-1.0895-2.2398-1.957-2.9741-.7046-.5963-1.3129-1.1112-1.3955-1.8251-.0888-.8088-.0979-1.6244-.0271-2.4349.0027-.0315.0035-.0631.0025-.0946-.0509-1.5939-1.7284-2.1564-2.8628-2.2565.1767-.8484.4184-1.682.7227-2.4934 1.2627-.1878 2.5237-1.2245 3.6491-2.1524.8813-.7265 1.9906-1.2068 2.6565-2.1573.5615-.8271.9457-1.7615 1.1283-2.7444.1035-.5669.0835-1.1494-.0588-1.7079 1.5823-.9318 3.3054-1.6005 5.1021-1.9801-.0238.0366-.045.0748-.0635.1144-.1398.3351-.4667.4665-1.1794.6864-.6554.1483-1.262.4613-1.7626.9096-.3393.3552-.5273.8284-.5244 1.3197.0029.4912.1965.9622.5399 1.3134 1.3714 1.4307 3.2866-.0469 4.56-.7766.3512-.2012 1.4054-.7049 2.0954-.6555.095.0064.1905-.0032.2823-.0285.1662-.0462 1.6058-.5154 2.7916-2.9436.208.0397.4142.0843.6195.1316-.347.5679-.7409 1.473-.3855 2.2784.0873.2635.1159.5431.0836.8189-.0185.0022-.0371.0034-.0557.0036-.8277-.0438-1.6577.0182-2.4697.1845-.3125.0669-.6085.1956-.8705.3785-.2621.1828-.485.4162-.6556.6864-.3289.5726-.21 1.3235-.5632 1.8587-.0372.0564-.3212.1127-.399.1524-.9186.47-3.2616 1.8213-2.8214 3.1561.3255.9872 1.5114.9158 3.665.785 1.8455-.1119 4.6342-.2804 5.4734.568.0906.0952.1583.2099.1978.3352.0396.1253.0501.2581.0307.3881-.0425.1291-.3463.2988-1.0291.2646-.3109.0032-.6213.0274-.9289.0723-.5453.0783-1.0957.1146-1.6466.1084-1.5303-.4649-3.435-1.0435-5.4296-.5349-1.09.2996-2.0661.9169-2.8038 1.7734s-1.2036 1.9133-1.3383 3.0356c-.2081 2.1226.4472 3.3327 2.2618 4.1768l.1772.0828c.8325.4773 1.7806.7154 2.7398.6881.0325-.0026.0649-.0071.0969-.0134.2722-.0548 1.3928-.1628 1.9014.298.0928.0839.3746.3394.293 1.1687.0012.5753.1531 1.1403.4407 1.6386.4149.938.1959 2.0033.4063 2.9858.184 1.0425.6573 2.0122 1.3659 2.7986.1912.2061.4231.3702.6809.4821s.5361.1692.8171.1682c.67-.0292 1.3137-.2689 1.8396-.6848.7991-.5464 1.5233-1.1949 2.1541-1.9291.5316-.648.8974-1.4157 1.0659-2.2367.1691-.8626.0546-1.7604.3593-2.6016.4699-1.2973 1.5602-2.3054 2.275-3.467.1539-.1921.2621-.4166.3162-.6567.0542-.24.053-.4893-.0035-.7288-.0643-.1801-.1688-.3432-.3056-.4769-.1367-.1337-.3021-.2345-.4835-.2948-.1836-.0718-.365-.1316-.5439-.1902-.3369-.0836-.6547-.2309-.9363-.434-.5948-.4847-1.0059-1.1584-1.1647-1.9092.059.0755.119.1577.1815.2432.0997.1361.1994.2716.3051.3989.6248.7524 1.4173 1.0476 2.1735.8108.5929-.2403 1.0727-.6965 1.3426-1.2765.0451-.075.0891-.1487.1336-.2172.4688-.7213.6334-1.3385.503-1.8873-.0136-.0572-.0306-.1136-.0509-.1688.4397.236.8036.5916 1.0496 1.0258.0281.0492.0596.1178.0964.1953.2633.5522.7481 1.5792 1.7475 1.46 1.1956-.1451 1.5275-1.7762 1.5598-2.2057.0129-.0962.035-.1909.0662-.2828.7086 3.5259.2889 7.1855-1.1996 10.4594z" fill="#8696de"/><path d="m48.1133 42.6543h-.0085c-.221.0023-.4321.0922-.5868.25-.1547.1579-.2404.3707-.2382.5917-.1497.6835-.4553 1.3233-.8928 1.8693-.4376.5461-.9953.9837-1.6298 1.2789-.2029.0402-.3836.1545-.5069.3206-.1234.1661-.1805.3721-.1604.5779.0201.2059.1161.397.2692.536.1532.1391.3526.2162.5594.2165.0547-.0001.1093-.0055.163-.0161.8368-.166 1.8213-.8787 2.6334-1.9061.7795-.9856 1.2397-2.0673 1.2315-2.8937-.0022-.2195-.0909-.4293-.2469-.5838s-.3667-.2411-.5862-.2412z" fill="#6258a6"/><path d="m57.486 32.2643c.4103-.1192.8354-.1801 1.2627-.181.1368 0 .2716.0088.4054.0206-.9265-4.8526-3.2899-9.3149-6.7835-12.8079-3.4935-3.493-7.9562-5.8556-12.8089-6.7813.0116.1327.0203.2663.0203.402-.0009.4271-.0617.8519-.1808 1.2621 4.4672.8834 8.5712 3.0741 11.7911 6.2941 3.2199 3.2201 5.4105 7.3242 6.2937 11.7914zm-22.4873-16.431c.5769 0 1.1408-.171 1.6204-.4915.4797-.3205.8535-.776 1.0742-1.309.2208-.5329.2786-1.1194.166-1.6851-.1125-.5658-.3903-1.0855-.7982-1.4934s-.9276-.6857-1.4934-.7983c-.5658-.1125-1.1522-.0547-1.6852.166-.5329.2208-.9884.5946-1.3089 1.0743-.3205.4796-.4916 1.0435-.4916 1.6204.0009.7732.3085 1.5146.8553 2.0614s1.2881.8544 2.0614.8552zm0-4.1666c.2472 0 .4889.0733.6945.2106.2055.1374.3657.3326.4603.561.0947.2284.1194.4798.0712.7222-.0483.2425-.1673.4652-.3421.6401-.1748.1748-.3976.2938-.64.342-.2425.0483-.4938.0235-.7223-.0711-.2284-.0946-.4236-.2548-.5609-.4604-.1374-.2055-.2107-.4472-.2107-.6944 0-.3316.1317-.6495.3661-.8839s.5524-.3661.8839-.3661zm-20.8333 25c0-.5769-.1711-1.1408-.4916-1.6204-.3205-.4797-.776-.8535-1.3089-1.0743-.533-.2207-1.1194-.2785-1.6852-.166-.5658.1126-1.08549.3904-1.4934.7983-.4079.4079-.68568.9276-.79822 1.4934-.11254.5657-.05479 1.1522.16597 1.6851.22076.533.59459.9885 1.07424 1.309.47961.3205 1.04351.4915 1.62041.4915.7733-.0008 1.5146-.3084 2.0614-.8552s.8544-1.2882.8553-2.0614zm-4.1667 0c0-.2473.0733-.4889.2107-.6945.1373-.2056.3325-.3658.5609-.4604.2285-.0946.4798-.1193.7223-.0711.2424.0482.4652.1673.64.3421s.2938.3975.3421.64c.0482.2425.0235.4938-.0712.7222-.0946.2284-.2548.4237-.4603.561-.2056.1374-.4473.2107-.6945.2107-.3315 0-.6495-.1317-.8839-.3661-.2344-.2345-.3661-.5524-.3661-.8839zm48.75-2.9167c-.5769 0-1.1408.1711-1.6204.4915-.4797.3205-.8535.7761-1.0743 1.309-.2207.533-.2785 1.1194-.1659 1.6852.1125.5658.3903 1.0855.7982 1.4934s.9276.6856 1.4934.7982c.5658.1125 1.1522.0548 1.6852-.166.5329-.2207.9884-.5946 1.3089-1.0742.3205-.4797.4916-1.0436.4916-1.6204-.0009-.7733-.3085-1.5147-.8553-2.0615s-1.2881-.8543-2.0614-.8552zm0 4.1667c-.2472 0-.4889-.0733-.6945-.2107-.2055-.1373-.3657-.3326-.4604-.561-.0946-.2284-.1193-.4797-.0711-.7222s.1673-.4652.3421-.64.3976-.2939.64-.3421c.2425-.0482.4938-.0235.7223.0711.2284.0946.4236.2548.5609.4604.1374.2056.2107.4472.2107.6945 0 .3315-.1317.6494-.3661.8839-.2344.2344-.5524.3661-.8839.3661z" fill="#8696de"/><path d="m57.4878 41.0703c-.3401 1.7606-.8877 3.4746-1.6315 5.1062-2.2637 4.9513-6.2112 8.9385-11.1397 11.2516-1.6936.7929-3.4788 1.3732-5.3148 1.7277.119.41.1798.8348.1807 1.2618 0 .1365-.0087.2709-.0205.4044 2.026-.3774 3.9959-1.0107 5.8622-1.8847 5.2861-2.4811 9.5201-6.7578 11.9482-12.0685.8206-1.8001 1.4187-3.6935 1.7808-5.6383-.1333.0117-.2676.0204-.404.0204-.4269-.0009-.8515-.0617-1.2614-.1806zm-44.9759-8.8051c.8832-4.4672 3.0738-8.5713 6.2936-11.7913 3.2199-3.2201 7.3239-5.4108 11.7911-6.2942-.119-.4102-.1799-.835-.1808-1.2621 0-.1357.0088-.2692.0204-.402-4.8528.9257-9.3154 3.2883-12.809 6.7813-3.4936 3.4931-5.8569 7.9553-6.7834 12.8079.1338-.0118.2685-.0205.4054-.0205.4273.0008.8523.0618 1.2627.1809z" fill="#6258a6"/><g fill="#8696de"><path d="m12.5119 41.0684c-.4104.1191-.8354.18-1.2627.1809-.1369 0-.2716-.0087-.4054-.0205.9265 4.8526 3.2898 9.3148 6.7834 12.8078s7.9562 5.8556 12.809 6.7814c-.0116-.1328-.0204-.2663-.0204-.402.0009-.4271.0618-.8519.1808-1.2621-4.4672-.8834-8.5712-3.0741-11.7911-6.2942-3.2198-3.22-5.4104-7.3241-6.2936-11.7913z"/><path d="m.833333 63.3327c.460237 0 .833337-.3731.833337-.8334 0-.4602-.3731-.8333-.833337-.8333s-.833333.3731-.833333.8333c0 .4603.373096.8334.833333.8334z"/><path d="m4.58333 61.666h-1.25c-.22101 0-.43297.0878-.58925.2441s-.24408.3682-.24408.5892c0 .2211.0878.433.24408.5893s.36824.2441.58925.2441h1.25c.22102 0 .43298-.0878.58926-.2441s.24408-.3682.24408-.5893c0-.221-.0878-.4329-.24408-.5892s-.36824-.2441-.58926-.2441zm62.08337 0h-1.25c-.221 0-.433.0878-.5893.2441s-.2441.3682-.2441.5892c0 .2211.0878.433.2441.5893s.3683.2441.5893.2441h1.25c.221 0 .4329-.0878.5892-.2441s.2441-.3682.2441-.5893c0-.221-.0878-.4329-.2441-.5892s-.3682-.2441-.5892-.2441z"/><path d="m69.1654 63.3327c.4602 0 .8333-.3731.8333-.8334 0-.4602-.3731-.8333-.8333-.8333-.4603 0-.8334.3731-.8334.8333 0 .4603.3731.8334.8334.8334z"/></g><path d="m49.2308 65h-3.4616c-.2095.0168-.4049.1119-.5475.2663-.1425.1544-.2217.3569-.2217.567 0 .2102.0792.4127.2217.5671.1426.1544.338.2495.5475.2663h3.4616c.2095-.0168.405-.1119.5475-.2663.1426-.1544.2217-.3569.2217-.5671 0-.2101-.0791-.4126-.2217-.567-.1425-.1544-.338-.2495-.5475-.2663zm-25 0h-3.4616c-.2095.0168-.4049.1119-.5475.2663-.1425.1544-.2217.3569-.2217.567 0 .2102.0792.4127.2217.5671.1426.1544.338.2495.5475.2663h3.4616c.2095-.0168.405-.1119.5475-.2663.1426-.1544.2217-.3569.2217-.5671 0-.2101-.0791-.4126-.2217-.567-.1425-.1544-.338-.2495-.5475-.2663zm19.1025 0h-16.6666c-.221 0-.433.0878-.5893.2441s-.2441.3682-.2441.5892.0878.433.2441.5893.3683.2441.5893.2441h6.6416v.8333h-3.3083c-.221 0-.433.0878-.5892.2441-.1563.1563-.2441.3682-.2441.5892s.0878.433.2441.5893c.1562.1563.3682.2441.5892.2441h10.4167c.221 0 .433-.0878.5892-.2441.1563-.1563.2441-.3683.2441-.5893s-.0878-.4329-.2441-.5892c-.1562-.1563-.3682-.2441-.5892-.2441h-3.725v-.8333h6.6416c.2211 0 .433-.0878.5893-.2441s.2441-.3683.2441-.5893-.0878-.4329-.2441-.5892-.3682-.2441-.5893-.2441z" fill="#6258a6"/><path d="m62.7996 61.6673h-25.1693c.2126-.4446.3091-.9358.2805-1.4278s-.1814-.9687-.4442-1.3857c-.2628-.4169-.6269-.7605-1.0584-.9986s-.9163-.363-1.4091-.363c-.4929 0-.9777.1249-1.4092.363s-.7956.5817-1.0583.9986c-.2628.417-.4156.8937-.4443 1.3857-.0286.492.0679.9832.2805 1.4278h-25.16927c-.11856-.0155-.23905-.0055-.35344.0293-.11438.0348-.22003.0936-.30988.1725-.08985.0788-.16184.176-.21116.2849-.04931.1089-.07483.2271-.07483.3467 0 .1195.02552.2377.07483.3466.04932.1089.12131.2061.21116.2849.08985.0789.1955.1377.30988.1725.11439.0348.23488.0448.35344.0293h55.60107c.1186.0155.2391.0055.3535-.0293.1143-.0348.22-.0936.3098-.1725.0899-.0788.1619-.176.2112-.2849s.0748-.2271.0748-.3466c0-.1196-.0255-.2378-.0748-.3467s-.1213-.2061-.2112-.2849c-.0898-.0789-.1955-.1377-.3098-.1725-.1144-.0348-.2349-.0448-.3535-.0293zm-29.0505-1.25c0-.2472.0733-.4889.2106-.6944.1374-.2056.3326-.3658.561-.4604s.4798-.1194.7222-.0712c.2425.0483.4652.1673.6401.3421.1748.1749.2938.3976.3421.6401.0482.2424.0234.4938-.0712.7222s-.2548.4236-.4604.561c-.2055.1373-.4472.2106-.6944.2106-.3315 0-.6495-.1317-.8839-.3661s-.3661-.5524-.3661-.8839zm-5.2897-57.08331c.2472 0 .4889-.07332.6944-.21067.2056-.13735.3658-.33257.4604-.56098s.1194-.47974.0711-.72222c-.0482-.24247-.1672-.4652-.342-.64002-.1749-.17481-.3976-.293865-.6401-.342097-.2424-.048231-.4938-.023477-.7222.071133-.2284.094614-.4236.254824-.561.460384-.1373.20556-.2106.44724-.2106.69447.0003.3314.1322.64912.3665.88346s.5521.36616.8835.36654zm0-1.875c.1236 0 .2444.03665.3472.10533.1028.06867.1829.16628.2302.28049.0473.1142.0597.23987.0356.36111-.0242.12123-.0837.2326-.1711.32001-.0874.0874-.1988.14693-.32.17105-.1212.02411-.2469.01173-.3611-.03557s-.2118-.12741-.2805-.23019-.1053-.22362-.1053-.34723c.0001-.16572.066-.32459.1832-.44177.1172-.11717.2761-.18307.4418-.18323zm33.2063 24.24621c-.1648 0-.3259.0488-.4629.1404-.1371.0916-.2439.2217-.307.374-.063.1523-.0795.3198-.0474.4815.0322.1616.1115.3101.2281.4266.1165.1166.265.196.4267.2281.1616.0322.3292.0157.4814-.0474.1523-.0631.2825-.1699.374-.3069.0916-.1371.1405-.2982.1405-.463-.0003-.221-.0882-.4328-.2444-.589s-.368-.2441-.589-.2443zm0 1.25c-.0824 0-.1629-.0245-.2314-.0703-.0686-.0458-.122-.1108-.1535-.187-.0315-.0761-.0398-.1599-.0237-.2407s.0557-.1551.114-.2133c.0583-.0583.1325-.098.2134-.1141.0808-.0161.1646-.0078.2407.0237.0761.0316.1412.085.187.1535s.0702.1491.0702.2315c-.0001.1105-.044.2164-.1221.2945-.0782.0781-.1841.122-.2946.1222zm-11.6666-23.62121c-.1648 0-.326.04887-.463.14044-.137.09156-.2439.22171-.3069.37399-.0631.15227-.0796.31982-.0474.48147.0321.16165.1115.31014.228.42668.1166.11655.265.19592.4267.22807.1616.03215.3292.01565.4815-.04742.1522-.06307.2824-.16989.374-.30693.0915-.13704.1404-.29815.1404-.46297-.0002-.22094-.0881-.43275-.2443-.58898-.1563-.15622-.3681-.2441-.589-.24435zm0 1.24999c-.0824 0-.163-.02443-.2315-.07022-.0685-.04578-.1219-.11085-.1535-.18699-.0315-.07614-.0398-.15991-.0237-.24074.0161-.08082.0558-.15507.114-.21334.0583-.05827.1326-.09796.2134-.11403.0808-.01608.1646-.00783.2407.02371.0762.03154.1412.08494.187.15346s.0702.14908.0702.23149c-.0001.11047-.044.21639-.1221.2945-.0781.07812-.1841.12205-.2945.12216zm15.9603-2.08333c-.1648 0-.326.04888-.463.14044-.137.09157-.2439.22172-.3069.37399-.0631.15227-.0796.31983-.0474.48148.0321.16165.1115.31014.228.42668.1166.11654.2651.19591.4267.22807.1617.03215.3292.01565.4815-.04743.1522-.06307.2824-.16988.374-.30692.0915-.13704.1404-.29816.1404-.46297-.0003-.22094-.0881-.43276-.2443-.58898-.1563-.15623-.3681-.24411-.589-.24436zm0 1.25c-.0824 0-.163-.02444-.2315-.07022s-.1219-.11086-.1535-.18699c-.0315-.07614-.0398-.15992-.0237-.24074.0161-.08083.0558-.15507.114-.21334.0583-.05827.1326-.09796.2134-.11404.0808-.01607.1646-.00782.2407.02372.0762.03153.1412.08494.187.15346s.0702.14908.0702.23149c-.0001.11047-.044.21638-.1221.2945s-.1841.12205-.2945.12216zm-60.01148 24.03785c0-.1648-.04888-.3259-.14044-.463-.09157-.137-.22172-.2438-.37399-.3069-.15228-.0631-.31983-.0796-.48148-.0474-.16165.0321-.31014.1115-.42668.228-.11655.1166-.19591.2651-.22807.4267-.03215.1617-.01565.3292.04742.4815.06308.1523.16989.2824.30693.374.13704.0915.29816.1404.46297.1404.22094-.0002.43275-.0881.58898-.2443.15623-.1563.2441-.3681.24436-.589zm-1.25 0c0-.0824.02443-.163.07022-.2315.04578-.0685.11086-.1219.18699-.1535.07614-.0315.15992-.0398.24074-.0237.08083.0161.15507.0558.21334.1141.05827.0582.09796.1325.11403.2133.01608.0808.00783.1646-.02371.2407-.03153.0762-.08494.1412-.15346.187s-.14908.0703-.23149.0703c-.11047-.0002-.21639-.0441-.2945-.1222-.07812-.0781-.12205-.184-.12216-.2945z" fill="#8696de"/><path d="m4.13078 3.64562.61958-.81458-.39125-.22166-.3975.91249h-.01333l-.40375-.90625-.39833.22834.61333.79541v.01292l-.95875-.12375v.44333l.965-.12375v.01292l-.61958.795.37166.235.42417-.91917h.0125l.39125.9125.41083-.23458-.62583-.7825v-.01292l.98417.1175v-.44333l-.98417.13042z" fill="#6258a6"/><path d="m16.1374 13.8868-.3566.458.2141.135.2442-.5292h.0075l.225.5254.2367-.135-.3604-.4508v-.0071l.5666.0675v-.2554l-.5666.075v-.0075l.3566-.4692-.225-.1275-.2291.5254h-.0075l-.2325-.5216-.2296.1312.3533.4579v.0075l-.5521-.0712v.2554l.5554-.0713z" fill="#6258a6"/><path d="m68.6333 16.0511v-.4346l-.9654.1279v-.0129l.6079-.7992-.3838-.2175-.39.895h-.0133l-.3958-.8887-.3909.2242.6017.78v.0129l-.9404-.1217v.4346l.9466-.1213v.013l-.6079.78.3646.2304.4163-.9021h.012l.3838.8954.4033-.23-.6141-.7675v-.0129z" fill="#6258a6"/><path d="m54.8754 14.6989.5242-.6891-.3309-.1875-.3366.7716h-.0113l-.3416-.7666-.3367.1933.5188.6729v.0113l-.8113-.105v.375l.8167-.1046v.0108l-.5242.6729.3142.1988.3587-.7779h.0109l.3312.772.3475-.1983-.5296-.6621v-.0108l.8329.0992v-.375l-.8329.1104z" fill="#6258a6"/></g></svg>