<svg fill="none" height="50" viewBox="0 0 60 50" width="60" xmlns="http://www.w3.org/2000/svg"><path clip-rule="evenodd" d="m9.7032 24.1804c1.4472 0 2.7576.5868 3.7056 1.5348s1.5348 2.2584 1.5348 3.7056-.5868 2.7576-1.5348 3.7056-2.2584 1.5348-3.7056 1.5348-2.7576-.5868-3.7056-1.5348-1.5348-2.2584-1.5348-3.7056.5868-2.7576 1.5348-3.7056 2.2584-1.5348 3.7056-1.5348zm5.7552 1.47 2.034-2.016h11.6676v2.118c0 .4644.3756.84.84.84s.84-.3756.84-.84v-2.118h11.6676l2.034 2.016c.3276.3264.858.3252 1.1844-.0036.3264-.3276.3252-.858-.0036-1.1844l-2.238-2.2188c-.1536-.1776-.3816-.2904-.6348-.2904h-12.0096v-1.77c0-.4644-.3756-.84-.84-.84s-.84.3756-.84.84v1.77h-12.0096v.0024c-.2136 0-.4272.0816-.5904.2436l-2.2824 2.262c-.3276.3264-.33.8568-.0036 1.1844.3264.33.8568.3312 1.1844.0048zm9.6816-10.0608c0-.4644.3756-.84.84-.84s.84.3756.84.84v1.4964h6.36v-1.4964c0-.4644.3756-.84.84-.84s.84.3756.84.84v1.4964h1.7832c.072 0 .1392-.03.1884-.0792s.0792-.1152.0792-.1884c0-1.302-.5328-2.4864-1.392-3.3456s-2.0436-1.392-3.3456-1.392h-4.344c-1.302 0-2.4864.5328-3.3456 1.392s-1.392 2.0436-1.392 3.3456c0 .072.03.1392.0792.1884s.1152.0792.1884.0792h1.7832v-1.4964zm4.86-15.333619c1.2948 0 2.4672.524401 3.3156 1.372799.8484.8484 1.3728 2.0208 1.3728 3.3156s-.5244 2.4672-1.3728 3.3156-2.0208 1.3728-3.3156 1.3728-2.4672-.5244-3.3156-1.3728-1.3728-2.0208-1.3728-3.3156.5244-2.4672 1.3728-3.3156c.8484-.847198 2.0208-1.372799 3.3156-1.372799zm2.1276 2.561999c-.5448-.5448-1.296-.8808-2.1276-.8808-.8304 0-1.5828.3372-2.1276.8808-.5448.5448-.8808 1.296-.8808 2.1276 0 .8304.3372 1.5828.8808 2.1276.5448.5448 1.296.8808 2.1276.8808.8304 0 1.5828-.3372 2.1276-.8808.5448-.5448.8808-1.296.8808-2.1276s-.3372-1.584-.8808-2.1276zm-4.2996 7.58162h4.344c1.7664 0 3.3708.7224 4.5336 1.8852s1.8852 2.7672 1.8852 4.5336c0 .5364-.2184 1.0236-.5712 1.3764s-.84.5712-1.3764.5712h-2.6232-8.04-2.6232c-.5364 0-1.0236-.2184-1.3764-.5712s-.5712-.84-.5712-1.3764c0-1.7664.7224-3.3708 1.8852-4.5336s2.7684-1.8852 4.5336-1.8852zm-3.5328 35.6772c0-.4644.3756-.84.84-.84s.84.3756.84.84v1.9872h8.0496v-1.9872c0-.4644.3756-.84.84-.84s.84.3756.84.84v1.9872h2.334c.1368 0 .2616-.0564.3528-.1476s.1476-.216.1476-.3528c0-1.6248-.6648-3.102-1.7364-4.1736s-2.5488-1.7364-4.1736-1.7364h-5.256c-1.6248 0-3.102.6648-4.1736 1.7364s-1.7364 2.5488-1.7364 4.1736c0 .1368.0564.2616.1476.3528s.216.1476.3528.1476h2.334v-1.9872zm5.7048-18.3768c1.518 0 2.892.6156 3.8868 1.6104s1.6104 2.3688 1.6104 3.8868-.6156 2.892-1.6104 3.8868-2.3688 1.6104-3.8868 1.6104-2.892-.6156-3.8868-1.6104-1.6104-2.3688-1.6104-3.8868.6156-2.892 1.6104-3.8868c.9948-.996 2.3688-1.6104 3.8868-1.6104zm2.6988 2.7972c-.6912-.6912-1.6452-1.1172-2.6988-1.1172s-2.0088.4272-2.6988 1.1172c-.69.6912-1.1172 1.6452-1.1172 2.6988s.4272 2.0088 1.1172 2.6988c.69.6912 1.6452 1.1172 2.6988 1.1172s2.0088-.4272 2.6988-1.1172c.69-.6912 1.1172-1.6452 1.1172-2.6988.0012-1.0536-.426-2.0076-1.1172-2.6988zm-5.3268 9.4764h5.256c2.088 0 3.9864.8532 5.3616 2.2284s2.2284 3.2736 2.2284 5.3616c0 .6-.2448 1.146-.6396 1.5396-.3948.3948-.9396.6396-1.5396.6396h-3.174-9.7296-3.174c-.6 0-1.146-.2448-1.5396-.6396-.3948-.3948-.6396-.9396-.6396-1.5396 0-2.088.8532-3.9864 2.2284-5.3616 1.3752-1.374 3.2736-2.2284 5.3616-2.2284zm17.4876 1.6212c0-.4644.3756-.84.84-.84s.84.3756.84.84v1.8312h7.5144v-1.8312c0-.4644.3756-.84.84-.84s.84.3756.84.84v1.8312h2.16c.1164 0 .2232-.048.3-.126.078-.078.126-.1836.126-.3 0-1.5228-.624-2.9076-1.6272-3.912-1.0044-1.0044-2.3892-1.6272-3.912-1.6272h-4.9668c-1.5228 0-2.9076.624-3.912 1.6272-1.0044 1.0044-1.6272 2.3892-1.6272 3.912 0 .1164.048.2232.126.3.078.078.1836.126.3.126h2.16v-1.8312zm5.4372-17.4144c1.4472 0 2.7576.5868 3.7056 1.5348s1.5348 2.2584 1.5348 3.7056-.5868 2.7576-1.5348 3.7056-2.2584 1.5348-3.7056 1.5348-2.7576-.5868-3.7056-1.5348-1.5348-2.2584-1.5348-3.7056.5868-2.7576 1.5348-3.7056 2.2584-1.5348 3.7056-1.5348zm2.5188 2.7228c-.6444-.6444-1.5348-1.0428-2.5176-1.0428s-1.8732.3984-2.5176 1.0428-1.0428 1.5348-1.0428 2.5176.3984 1.8732 1.0428 2.5176 1.5348 1.0428 2.5176 1.0428 1.8732-.3984 2.5176-1.0428 1.0428-1.5348 1.0428-2.5176-.3996-1.8732-1.0428-2.5176zm-5.0016 8.8776h4.9668c1.986 0 3.7908.8124 5.0988 2.1204s2.1204 3.1128 2.1204 5.0988c0 .5796-.2364 1.1064-.618 1.488s-.9084.618-1.488.618h-3-9.1944-3c-.5796 0-1.1064-.2364-1.488-.618s-.618-.9084-.618-1.488c0-1.986.8124-3.7908 2.1204-5.0988s3.1128-2.1204 5.1-2.1204zm-43.548 5.814c0-.4644.3756-.84.84-.84s.84.3756.84.84v1.8312h7.5144v-1.8312c0-.4644.3756-.84.84-.84s.84.3756.84.84v1.8312h2.16c.1164 0 .2232-.048.3-.126.078-.078.126-.1836.126-.3 0-1.5228-.624-2.9076-1.6272-3.912-1.0044-1.0044-2.3892-1.6272-3.912-1.6272h-4.968c-1.5228 0-2.9076.624-3.912 1.6272-1.0032 1.0044-1.6272 2.3892-1.6272 3.912 0 .1164.048.2232.126.3.078.078.1836.126.3.126h2.16zm7.9548-14.6916c-.6444-.6444-1.5348-1.0428-2.5176-1.0428s-1.8732.3984-2.5176 1.0428-1.0428 1.5348-1.0428 2.5176.3984 1.8732 1.0428 2.5176 1.5348 1.0428 2.5176 1.0428 1.8732-.3984 2.5176-1.0428 1.0428-1.5348 1.0428-2.5176-.3984-1.8732-1.0428-2.5176zm-5.0016 8.8776h4.9668c1.986 0 3.7908.8124 5.0988 2.1204s2.1204 3.1128 2.1204 5.0988c0 .5796-.2364 1.1064-.618 1.488s-.9084.618-1.488.618h-3-9.1932-3c-.5796 0-1.1064-.2364-1.488-.618s-.618-.9084-.618-1.488c0-1.986.8124-3.7908 2.1204-5.0988s3.1128-2.1204 5.0988-2.1204z" fill="#6258a6" fill-rule="evenodd"/></svg>