<svg fill="none" height="227" viewBox="0 0 241 227" width="241" xmlns="http://www.w3.org/2000/svg" xmlns:xlink="http://www.w3.org/1999/xlink"><mask id="a" height="16" maskUnits="userSpaceOnUse" width="11" x="78" y="59"><path d="m79.5438 74.1709-1.4598-.6895 6.6378-14.122 3.7183 1.7652-5.6463 11.9706c-.6059 1.324-1.928 1.7101-3.25 1.0757z" fill="#fff"/></mask><mask id="b" height="16" maskUnits="userSpaceOnUse" width="11" x="78" y="59"><path d="m79.5438 74.1709-1.4598-.6895 6.6378-14.122 3.7183 1.7652-5.6463 11.9706c-.6059 1.324-1.928 1.7101-3.25 1.0757z" fill="#fff"/></mask><mask id="c" height="16" maskUnits="userSpaceOnUse" width="11" x="78" y="59"><path d="m79.5438 74.1709-1.4598-.6895 6.6378-14.122 3.7183 1.7652-5.6463 11.9706c-.6059 1.324-1.928 1.7101-3.25 1.0757z" fill="#fff"/></mask><mask id="d" height="16" maskUnits="userSpaceOnUse" width="11" x="78" y="59"><path d="m79.5438 74.1709-1.4598-.6895 6.6378-14.122 3.7183 1.7652-5.6463 11.9706c-.6059 1.324-1.928 1.7101-3.25 1.0757z" fill="#fff"/></mask><mask id="e" height="16" maskUnits="userSpaceOnUse" width="11" x="78" y="59"><path d="m79.5438 74.1709-1.4598-.6895 6.6378-14.122 3.7183 1.7652-5.6463 11.9706c-.6059 1.324-1.928 1.7101-3.25 1.0757z" fill="#fff"/></mask><mask id="f" height="16" maskUnits="userSpaceOnUse" width="11" x="78" y="59"><path d="m79.5438 74.1709-1.4598-.6895 6.6378-14.122 3.7183 1.7652-5.6463 11.9706c-.6059 1.324-1.928 1.7101-3.25 1.0757z" fill="#fff"/></mask><mask id="g" height="16" maskUnits="userSpaceOnUse" width="11" x="78" y="59"><path d="m79.5438 74.1709-1.4598-.6895 6.6378-14.122 3.7183 1.7652-5.6463 11.9706c-.6059 1.324-1.928 1.7101-3.25 1.0757z" fill="#fff"/></mask><mask id="h" height="16" maskUnits="userSpaceOnUse" width="11" x="78" y="59"><path d="m79.5438 74.1709-1.4598-.6895 6.6378-14.122 3.7183 1.7652-5.6463 11.9706c-.6059 1.324-1.928 1.7101-3.25 1.0757z" fill="#fff"/></mask><mask id="i" height="16" maskUnits="userSpaceOnUse" width="11" x="78" y="59"><path d="m79.5438 74.1709-1.4598-.6895 6.6378-14.122 3.7183 1.7652-5.6463 11.9706c-.6059 1.324-1.928 1.7101-3.25 1.0757z" fill="#fff"/></mask><mask id="j" height="16" maskUnits="userSpaceOnUse" width="11" x="78" y="59"><path d="m79.5438 74.1709-1.4598-.6895 6.6378-14.122 3.7183 1.7652-5.6463 11.9706c-.6059 1.324-1.928 1.7101-3.25 1.0757z" fill="#fff"/></mask><mask id="k" height="16" maskUnits="userSpaceOnUse" width="11" x="78" y="59"><path d="m79.5438 74.1709-1.4598-.6895 6.6378-14.122 3.7183 1.7652-5.6463 11.9706c-.6059 1.324-1.928 1.7101-3.25 1.0757z" fill="#fff"/></mask><mask id="l" height="16" maskUnits="userSpaceOnUse" width="11" x="78" y="59"><path d="m79.5438 74.1709-1.4598-.6895 6.6378-14.122 3.7183 1.7652-5.6463 11.9706c-.6059 1.324-1.928 1.7101-3.25 1.0757z" fill="#fff"/></mask><mask id="m" height="16" maskUnits="userSpaceOnUse" width="11" x="78" y="59"><path d="m79.5438 74.1709-1.4598-.6895 6.6378-14.122 3.7183 1.7652-5.6463 11.9706c-.6059 1.324-1.928 1.7101-3.25 1.0757z" fill="#fff"/></mask><mask id="n" height="16" maskUnits="userSpaceOnUse" width="11" x="78" y="59"><path d="m79.5438 74.1709-1.4598-.6895 6.6378-14.122 3.7183 1.7652-5.6463 11.9706c-.6059 1.324-1.928 1.7101-3.25 1.0757z" fill="#fff"/></mask><mask id="o" height="16" maskUnits="userSpaceOnUse" width="11" x="78" y="59"><path d="m79.5438 74.1709-1.4598-.6895 6.6378-14.122 3.7183 1.7652-5.6463 11.9706c-.6059 1.324-1.928 1.7101-3.25 1.0757z" fill="#fff"/></mask><mask id="p" height="16" maskUnits="userSpaceOnUse" width="11" x="78" y="59"><path d="m79.5438 74.1709-1.4598-.6895 6.6378-14.122 3.7183 1.7652-5.6463 11.9706c-.6059 1.324-1.928 1.7101-3.25 1.0757z" fill="#fff"/></mask><mask id="q" height="16" maskUnits="userSpaceOnUse" width="11" x="78" y="59"><path d="m79.5438 74.1709-1.4598-.6895 6.6378-14.122 3.7183 1.7652-5.6463 11.9706c-.6059 1.324-1.928 1.7101-3.25 1.0757z" fill="#fff"/></mask><mask id="r" height="16" maskUnits="userSpaceOnUse" width="11" x="78" y="59"><path d="m79.5438 74.1709-1.4598-.6895 6.6378-14.122 3.7183 1.7652-5.6463 11.9706c-.6059 1.324-1.928 1.7101-3.25 1.0757z" fill="#fff"/></mask><mask id="s" height="16" maskUnits="userSpaceOnUse" width="11" x="78" y="59"><path d="m79.5438 74.1709-1.4598-.6895 6.6378-14.122 3.7183 1.7652-5.6463 11.9706c-.6059 1.324-1.928 1.7101-3.25 1.0757z" fill="#fff"/></mask><mask id="t" height="16" maskUnits="userSpaceOnUse" width="11" x="78" y="59"><path d="m79.5438 74.1709-1.4598-.6895 6.6378-14.122 3.7183 1.7652-5.6463 11.9706c-.6059 1.324-1.928 1.7101-3.25 1.0757z" fill="#fff"/></mask><mask id="u" height="16" maskUnits="userSpaceOnUse" width="11" x="78" y="59"><path d="m79.5438 74.1709-1.4598-.6895 6.6378-14.122 3.7183 1.7652-5.6463 11.9706c-.6059 1.324-1.928 1.7101-3.25 1.0757z" fill="#fff"/></mask><mask id="v" height="16" maskUnits="userSpaceOnUse" width="11" x="78" y="59"><path d="m79.5438 74.1709-1.4598-.6895 6.6378-14.122 3.7183 1.7652-5.6463 11.9706c-.6059 1.324-1.928 1.7101-3.25 1.0757z" fill="#fff"/></mask><mask id="w" height="16" maskUnits="userSpaceOnUse" width="11" x="78" y="59"><path d="m79.5438 74.1709-1.4598-.6895 6.6378-14.122 3.7183 1.7652-5.6463 11.9706c-.6059 1.324-1.928 1.7101-3.25 1.0757z" fill="#fff"/></mask><mask id="x" height="16" maskUnits="userSpaceOnUse" width="11" x="78" y="59"><path d="m79.5438 74.1709-1.4598-.6895 6.6378-14.122 3.7183 1.7652-5.6463 11.9706c-.6059 1.324-1.928 1.7101-3.25 1.0757z" fill="#fff"/></mask><mask id="y" height="16" maskUnits="userSpaceOnUse" width="11" x="78" y="59"><path d="m79.5438 74.1709-1.4598-.6895 6.6378-14.122 3.7183 1.7652-5.6463 11.9706c-.6059 1.324-1.928 1.7101-3.25 1.0757z" fill="#fff"/></mask><mask id="z" height="16" maskUnits="userSpaceOnUse" width="11" x="78" y="59"><path d="m79.5438 74.1709-1.4598-.6895 6.6378-14.122 3.7183 1.7652-5.6463 11.9706c-.6059 1.324-1.928 1.7101-3.25 1.0757z" fill="#fff"/></mask><mask id="A" height="16" maskUnits="userSpaceOnUse" width="11" x="78" y="59"><path d="m79.5438 74.1709-1.4598-.6895 6.6378-14.122 3.7183 1.7652-5.6463 11.9706c-.6059 1.324-1.928 1.7101-3.25 1.0757z" fill="#fff"/></mask><mask id="B" height="16" maskUnits="userSpaceOnUse" width="11" x="78" y="59"><path d="m79.5438 74.1709-1.4598-.6895 6.6378-14.122 3.7183 1.7652-5.6463 11.9706c-.6059 1.324-1.928 1.7101-3.25 1.0757z" fill="#fff"/></mask><mask id="C" height="16" maskUnits="userSpaceOnUse" width="11" x="78" y="59"><path d="m79.5438 74.1709-1.4598-.6895 6.6378-14.122 3.7183 1.7652-5.6463 11.9706c-.6059 1.324-1.928 1.7101-3.25 1.0757z" fill="#fff"/></mask><mask id="D" height="16" maskUnits="userSpaceOnUse" width="11" x="78" y="59"><path d="m79.5438 74.1709-1.4598-.6895 6.6378-14.122 3.7183 1.7652-5.6463 11.9706c-.6059 1.324-1.928 1.7101-3.25 1.0757z" fill="#fff"/></mask><mask id="E" height="16" maskUnits="userSpaceOnUse" width="11" x="78" y="59"><path d="m79.5438 74.1709-1.4598-.6895 6.6378-14.122 3.7183 1.7652-5.6463 11.9706c-.6059 1.324-1.928 1.7101-3.25 1.0757z" fill="#fff"/></mask><mask id="F" height="16" maskUnits="userSpaceOnUse" width="11" x="78" y="59"><path d="m79.5438 74.1709-1.4598-.6895 6.6378-14.122 3.7183 1.7652-5.6463 11.9706c-.6059 1.324-1.928 1.7101-3.25 1.0757z" fill="#fff"/></mask><mask id="G" height="16" maskUnits="userSpaceOnUse" width="11" x="78" y="59"><path d="m79.5438 74.1709-1.4598-.6895 6.6378-14.122 3.7183 1.7652-5.6463 11.9706c-.6059 1.324-1.928 1.7101-3.25 1.0757z" fill="#fff"/></mask><mask id="H" height="16" maskUnits="userSpaceOnUse" width="11" x="78" y="59"><path d="m79.5438 74.1709-1.4598-.6895 6.6378-14.122 3.7183 1.7652-5.6463 11.9706c-.6059 1.324-1.928 1.7101-3.25 1.0757z" fill="#fff"/></mask><mask id="I" height="16" maskUnits="userSpaceOnUse" width="18" x="78" y="47"><path d="m93.3422 62.448-14.6527-2.7306 2.3686-12.0533 14.5427 3.3374z" fill="#fff"/></mask><mask id="J" height="16" maskUnits="userSpaceOnUse" width="18" x="78" y="47"><path d="m93.3422 62.448-14.6527-2.7306 2.3686-12.0533 14.5427 3.3374z" fill="#fff"/></mask><mask id="K" height="16" maskUnits="userSpaceOnUse" width="18" x="78" y="47"><path d="m93.3422 62.448-14.6527-2.7306 2.3686-12.0533 14.5427 3.3374z" fill="#fff"/></mask><mask id="L" height="16" maskUnits="userSpaceOnUse" width="18" x="78" y="47"><path d="m93.3422 62.448-14.6527-2.7306 2.3686-12.0533 14.5427 3.3374z" fill="#fff"/></mask><mask id="M" height="16" maskUnits="userSpaceOnUse" width="18" x="78" y="47"><path d="m93.3422 62.448-14.6527-2.7306 2.3686-12.0533 14.5427 3.3374z" fill="#fff"/></mask><path d="m219.517 152.418c14.019-25.127 8.373-58.5566-16.581-78.0295-13.661-10.6467-31.592-14.0668-45.005-25.1824-15.066-12.4946-29.967-27.6648-49.632-32.4089-20.9053-5.0475-43.9311 2.4273-58.4738 18.149-17.7376 19.1143-15.9473 46.0068-8.0149 69.4238 20.1338 59.357 99.3197 106.246 157.3247 69.424 8.951-5.682 15.755-13.074 20.382-21.376z" fill="#f0eeff"/><path d="m221.196 64.5682c0 1.6273-1.239 2.9236-2.782 2.9236h-1.872v6.8404l-6.528-6.8404h-21.428c-1.543 0-2.782-1.2963-2.782-2.9236v-24.4101c0-1.6274 1.239-2.9237 2.782-2.9237h29.801c1.542 0 2.782 1.3239 2.782 2.9237v24.4101z" fill="#ffbe55"/><path d="m172.776 76.5682c0 1.6273 1.24 2.9236 2.782 2.9236h1.873v6.8404l6.528-6.8404h21.428c1.543 0 2.782-1.2963 2.782-2.9236v-24.4101c0-1.6274-1.239-2.9237-2.782-2.9237h-29.829c-1.542 0-2.782 1.3239-2.782 2.9237z" fill="#2a94f4"/><path d="m154.074 129.362 3.471-2.538.358-.496-.634-.717-.826.22-.22-2.372-4.077-.11-2.148-.607 2.865 6.068z" fill="#ffe3ca"/><path d="m161.236 104.753-11.21 17.68s.854 2.234 1.763.855c.11-.166-.633-.524.138-1.076 3.085-2.206 8.538-6.096 11.045-9.185 3.305-4.054 3.442-9.488 3.442-9.488z" fill="#ffe3ca"/><path d="m156.333 120.728-4.076-2.676 3.112-4.247 4.077 2.648z" fill="#fff"/><path d="m148.869 84.3184 11.513 15.0873-7.327 16.9353s4.848 4.524 5.895 3.393c8.565-9.213 11.54-20.9075 11.54-20.9075l-14.735-24.1067s-1.681-3.8063-5.041-3.1719c-6.775 1.2688-2.671 11.1431-1.845 12.7705z" fill="#0e538c"/><g fill="#0b4870"><path d="m122.814 202.233c-.276.331-.111 1.214-.111 1.214s4.793.634 6.363.331c.413-.083 1.102-.414 1.735-.773.11-.055.303-.413.413-.496.193-.11.303.083.468-.028.441-.248.744-.469.744-.496.468-2.179-.055-3.089-.055-3.089s-4.049-1.462-4.848-.524c-1.872 2.206-4.103 3.144-4.709 3.861zm25.064-2.703.468 3.586 3.663.193s.22-.497.551-.469c.248.027.551.524.909.552.771.055 1.625.082 1.955.11.689.027 7.327.414 7.327.414s.22-.745.027-1.021c-.082-.138-.688-.414-1.101-.552-1.846-.634-7.162-2.592-7.988-4.413-.991-2.206-5.811 1.6-5.811 1.6z"/><path d="m140.193 110.303-13.165-.303s-1.9 8.026-2.066 14.812c-.248 9.653-.413 19.197-.22 25.127-.22.938-.303 1.903-.248 2.841.413 7.143 2.203 45.069 2.203 45.069s5.702.662 5.784-.028c1.35-11.364 2.975-29.706 3.003-36.684.027-2.179.11-4.358.22-6.399.909-3.503 4.489-44.435 4.489-44.435z"/><path d="m155.534 199.117-4.159-41.924c0-.028.028-.028.028-.028l-1.598-41.456-17.655-1.186s1.102 2.538 3.471 13.46c0 0 2.837 22.121 5.839 33.54.055.248.138.442.193.662.881 11.392 5.866 38.974 5.866 38.974z"/></g><path d="m102.267 87.0189s-5.3434-4.22-12.9728-12.9635c-2.589-2.9513-1.3221.2482-.8814 3.9442s7.6294 11.0328 15.5062 13.1015c7.878 2.0686-1.652-4.0822-1.652-4.0822z" fill="#ffe3ca"/><path d="m89.8996 76.375s1.2119-3.9718.5784-4.9648c-.6335-.9929-3.195-4.4407-3.195-4.4407l-.7436-.8274s-1.3221.3309.4131 2.6478.303 1.6549.303 1.6549l-2.3412-1.4618-3.0297-1.5722-1.2394-.8826s-.661-.5516-.9365-.5516c-.7712.0275-.4682.6343-.4682.6343l4.5997 3.8339-5.1505-2.3444s-.7162-.1931-.9365.1379c-.2203.3034 0 .4137 0 .4137l5.2331 4.0822-2.8093-.9103s-.6886-.1654-.9365.138c-.2479.3309-.3305.4137-.3305.4137l10.301 4.9923z" fill="#ffe3ca"/><path d="m89.7351 81.6407-2.5339-3.3098 4.2691-3.034 2.534 3.3098z" fill="#fff"/><path d="m134.216 76.6208s.689 3.1167-11.155 15.6941c-6.61 7.0335-10.273 10.4261-13.551 8.8541-6.693-3.1997-22.5022-18.1768-22.5022-18.1768l6.1972-7.061s14.983 12.0534 17.297 13.3221c.964.5241 6.941-8.0263 13.028-16.6871 1.101-1.5997 9.888 3.1995 10.686 4.0546z" fill="#0e538c"/><path d="m124.356 73.8107 8.732-4.6614 6.555-1.4618 3.69 1.9583s7.685 4.4131 8.456 4.4131-.248 41.1521-.248 41.1521l-19.693.662-7.161.58z" fill="#fff"/><path d="m130.223 128.284-.165-50.5576 2.809-8.3297c-3.608.4413-7.244.7999-9.833 3.9718l-.551 50.0615zm11.127-59.1356 2.975 5.4613-.579 34.2843 2.369 19.721 7.437-2.923 1.349-46.5037-2.313-7.6954z" fill="#0e538c"/><path d="m129.011 99.2645-3.002-19.9142 2.011-1.4619-2.176-1.7652 1.9-5.7647 5.371-1.7101-2.396 9.0745-1.185 32.1611z" fill="#0b4870"/><path d="m133.472 73.0078s-3.002 13.1015-.358 37.1532c.166 1.544 2.231 2.399 2.231 2.399l2.011-2.482s-2.121-20.6865-2.369-35.7187c-.055-1.8755-1.597.4413-1.515-1.3515z" fill="#ffbe55"/><path d="m134.547 71.524 2.259 2.9788 4.682-5.1026v-.8551zm-1.322-3.2271-1.68 6.4266 2.231-2.6755z" fill="#f2f2f2"/><path d="m142.231 64.375c-.22 1.0757-.634 3.3374-1.074 4.3028-.689 1.4894-6.776 2.8134-7.685 3.034-.936.2207.221-4.4958.221-5.5715 0-.8275.551-.5517-.111-1.7377h8.649z" fill="#fcd2b1"/><path d="m131.875 62.0022c-.165.9102.496 1.7928 1.46 1.9307l7.822 1.2136c.964.1379 1.873-.4689 2.011-1.4066l1.845-11.088c.165-.9102-.496-1.7928-1.46-1.9308l-7.822-1.186c-.964-.1379-1.873.4689-2.011 1.4067z" fill="#ffe3ca"/><path d="m133.335 53.7306s-.881-1.2412-.964-1.9308c-.055-.3585.496-1.5446 1.46-1.9031.964-.3586 1.515.6619 1.515.6619s-1.515.5241-1.625.7999c-.111.2758-.386 2.3721-.386 2.3721z" fill="#ffbe55"/><path d="m144.986 57.7605s1.9-4.0821 1.9-5.3509c0-1.2964 0-2.179-1.57-2.5651-2.341-.5793-2.451-.0828-3.498-.9654-1.046-.855-2.836-2.8685-3.525-3.1444-1.157-.4688-3.085-.3585-3.526 1.7653-.33 1.5722-1.432 1.7928-1.404 1.8756.055.193.468.4689 1.157.9378 2.01 1.3791 3.277 1.7928 5.012 1.6273 1.736-.1655 4.986-.5792 5.151.662s-.578 4.8268-.496 5.1026c.083.3034.496.2207.799.0552z" fill="#ffbe55"/><path d="m141.984 60.7076c-.055.3034.165.6068.495.6344l1.681.2482c.33.0552.633-.1655.661-.4689l.495-2.9512c.055-.3034-.165-.6068-.495-.6344l-1.681-.2483c-.33-.0551-.633.1655-.661.4689zm-10.081-1.5446c-.055.3034.165.6068.496.6344l1.68.2482c.33.0552.633-.1654.661-.4688l.496-2.9513c.055-.3034-.166-.6068-.496-.6344l-1.68-.2482c-.331-.0552-.606.1654-.661.4688z" fill="#ffe3ca"/><path d="m144.077 58.6094s-.744 4.3579-.964 5.8198c-.221 1.3239-1.267 4.1097-9.034 2.9237-4.6-.6896-3.884-3.9167-3.719-4.9648.138-.7999 1.488-3.0892 2.066-3.4753.028 0-.303 1.7928-.303 1.7928s1.24-1.5997 3.443-1.2688c3.526.5517 3.994 2.6479 5.564 2.841 1.212.1655 2.423-1.5722 2.947-3.6684z" fill="#ffbe55"/><path d="m136.53 62.5271-2.424-.3586c-.331-.0552-.551-.331-.496-.6344l.055-.331 3.581.5517-.055.331c-.028.2758-.331.4964-.661.4413z" fill="#ffe3ca"/><path d="m133.445 71.7165 1.102-.1931.743 2.51-1.46.7999-1.129-.3586z" fill="#ffbe55"/><path d="m141.295 68.125c-.248.7447 2.727 6.8128 2.727 6.8128l-.248 31.8572 5.343-27.1131-1.68-2.0963 1.845-1.7652-3.36-6.3163z" fill="#0b4870"/><path d="m55.7197 35.5234-2.5615 12.9084-2.5615 12.9084s14.6252-4.5786 31.2611-1.2964l1.1293-5.6818 1.1292-5.7371c-16.6083-3.2823-28.3966-13.1015-28.3966-13.1015z" fill="#f2f2f2"/><path d="m79.5438 74.1709-1.4598-.6895 6.6378-14.122 3.7183 1.7652-5.6463 11.9706c-.6059 1.324-1.928 1.7101-3.25 1.0757z" fill="#ffbe55"/><g mask="url(#a)"><path d="m88.2746 59.3594h.1653v15.4459h-.1653zm-.1652 0h.1652v15.4459h-.1652z" fill="#ffbe55"/></g><g mask="url(#b)"><path d="m87.9443 59.3594h.1653v15.4459h-.1653z" fill="#ffbe55"/></g><g mask="url(#c)"><path d="m87.8069 59.3594h.1652v15.4459h-.1652zm-.1653 0h.1653v15.4459h-.1653z" fill="#ffbe55"/></g><g mask="url(#d)"><path d="m87.476 59.3594h.1653v15.4459h-.1653zm-.1652 0h.1652v15.4459h-.1652zm-.1653 0h.1653v15.4459h-.1653z" fill="#ffbe55"/></g><g mask="url(#e)"><path d="m87.0078 59.3594h.1653v15.4459h-.1653z" fill="#ffbe55"/></g><g mask="url(#f)"><path d="m86.843 59.3594h.1652v15.4459h-.1652zm-.1653 0h.1653v15.4459h-.1653z" fill="#ffbe55"/></g><g mask="url(#g)"><path d="m86.5117 59.3594h.1653v15.4459h-.1653z" fill="#ffbe55"/></g><g mask="url(#h)"><path d="m86.3745 59.3594h.1652v15.4459h-.1652zm-.1653 0h.1653v15.4459h-.1653zm-.1653 0h.1653v15.4459h-.1653z" fill="#ffbe55"/></g><g mask="url(#i)"><path d="m85.8781 59.3594h.1653v15.4459h-.1653zm-.1652 0h.1652v15.4459h-.1652z" fill="#ffbe55"/></g><g mask="url(#j)"><path d="m85.5752 59.3594h.1652v15.4459h-.1652z" fill="#ffbe55"/></g><g mask="url(#k)"><path d="m85.4106 59.3594h.1653v15.4459h-.1653zm-.1653 0h.1653v15.4459h-.1653zm-.1652 0h.1652v15.4459h-.1652z" fill="#ffbe55"/></g><g mask="url(#l)"><path d="m84.9424 59.3594h.1652v15.4459h-.1652z" fill="#ffbe55"/></g><g mask="url(#m)"><path d="m84.7766 59.3594h.1652v15.4459h-.1652zm-.1653 0h.1653v15.4459h-.1653z" fill="#ffbe55"/></g><g mask="url(#n)"><path d="m84.4465 59.3594h.1653v15.4459h-.1653zm-.1653 0h.1653v15.4459h-.1653z" fill="#ffbe55"/></g><g mask="url(#o)"><path d="m84.1438 59.3594h.1652v15.4459h-.1652zm-.1653 0h.1653v15.4459h-.1653z" fill="#ffbe55"/></g><g mask="url(#p)"><path d="m83.8127 59.3594h.1653v15.4459h-.1653zm-.1652 0h.1652v15.4459h-.1652z" fill="#ffbe55"/></g><g mask="url(#q)"><path d="m83.4824 59.3594h.1653v15.4459h-.1653z" fill="#ffbe55"/></g><g mask="url(#r)"><path d="m83.3442 59.3594h.1652v15.4459h-.1652zm-.1653 0h.1653v15.4459h-.1653zm-.1652 0h.1652v15.4459h-.1652z" fill="#ffbe55"/></g><g mask="url(#s)"><path d="m82.8488 59.3594h.1653v15.4459h-.1653zm-.1652 0h.1652v15.4459h-.1652z" fill="#ffbe55"/></g><g mask="url(#t)"><path d="m82.5459 59.3594h.1652v15.4459h-.1652z" fill="#ffbe55"/></g><g mask="url(#u)"><path d="m82.3803 59.3594h.1653v15.4459h-.1653zm-.1652 0h.1652v15.4459h-.1652zm-.1653 0h.1653v15.4459h-.1653z" fill="#ffbe55"/></g><g mask="url(#v)"><path d="m81.8848 59.3594h.1652v15.4459h-.1652z" fill="#ffbe55"/></g><g mask="url(#w)"><path d="m81.7473 59.3594h.1652v15.4459h-.1652zm-.1653 0h.1653v15.4459h-.1653z" fill="#ffbe55"/></g><g mask="url(#x)"><path d="m81.4162 59.3594h.1653v15.4459h-.1653zm-.1652 0h.1652v15.4459h-.1652z" fill="#ffbe55"/></g><g mask="url(#y)"><path d="m81.1135 59.3594h.1653v15.4459h-.1653zm-.1653 0h.1653v15.4459h-.1653z" fill="#ffbe55"/></g><g mask="url(#z)"><path d="m80.7834 59.3594h.1653v15.4459h-.1653zm-.1652 0h.1652v15.4459h-.1652z" fill="#ffbe55"/></g><g mask="url(#A)"><path d="m80.4531 59.3594h.1653v15.4459h-.1653z" fill="#ffbe55"/></g><g mask="url(#B)"><path d="m80.3149 59.3594h.1653v15.4459h-.1653zm-.1653 0h.1653v15.4459h-.1653zm-.1652 0h.1652v15.4459h-.1652z" fill="#ffbe55"/></g><g mask="url(#C)"><path d="m79.8195 59.3594h.1653v15.4459h-.1653zm-.1652 0h.1652v15.4459h-.1652z" fill="#ffbe55"/></g><g mask="url(#D)"><path d="m79.5166 59.3594h.1653v15.4459h-.1653z" fill="#ffbe55"/></g><g mask="url(#E)"><path d="m79.351 59.3594h.1653v15.4459h-.1653zm-.1652 0h.1652v15.4459h-.1652zm-.1653 0h.1653v15.4459h-.1653z" fill="#ffbe55"/></g><g mask="url(#F)"><path d="m78.8555 59.3594h.1652v15.4459h-.1652z" fill="#ffbe55"/></g><g mask="url(#G)"><path d="m78.717 59.3594h.1653v15.4459h-.1653zm-.1652 0h.1652v15.4459h-.1652z" fill="#ffbe55"/></g><g mask="url(#H)"><path d="m78.3872 59.3594h.1652v15.4459h-.1652zm-.1653 0h.1653v15.4459h-.1653zm-.1653 0h.1653v15.4459h-.1653z" fill="#ffbe55"/></g><path d="m93.3422 62.448-14.6527-2.7306 2.3686-12.0533 14.5427 3.3374z" fill="#ffbe55"/><g mask="url(#I)"><path d="m95.3526 47.6641h.2479v14.7839h-.2479zm-.2755 0h.2479v14.7839h-.2479z" fill="#ffbe55"/></g><g mask="url(#J)"><path d="m94.83 47.6641h.2755v14.7839h-.2755zm-.2754 0h.2479v14.7839h-.2479zm-.2479 0h.2479v14.7839h-.2479zm-.2479 0h.2479v14.7839h-.2479zm-.2754 0h.2479v14.7839h-.2479zm-.2479 0h.2479v14.7839h-.2479zm-.2754 0h.2479v14.7839h-.2479zm-.2479 0h.2479v14.7839h-.2479zm-.2754 0h.2754v14.7839h-.2754zm-.2479 0h.2479v14.7839h-.2479zm-.2754 0h.2478v14.7839h-.2478zm-.2479 0h.2479v14.7839h-.2479zm-.2755 0h.2479v14.7839h-.2479zm-.2478 0h.2478v14.7839h-.2478zm-.2479 0h.2479v14.7839h-.2479zm-.2755 0h.2479v14.7839h-.2479z" fill="#ffbe55"/></g><g mask="url(#K)"><path d="m90.6703 47.6641h.2754v14.7839h-.2754zm-.2754 0h.2478v14.7839h-.2478zm-.2479 0h.2479v14.7839h-.2479zm-.2755 0h.2479v14.7839h-.2479zm-.2479 0h.2479v14.7839h-.2479zm-.2754 0h.2479v14.7839h-.2479zm-.2479 0h.2479v14.7839h-.2479zm-.2478 0h.2478v14.7839h-.2478zm-.2755 0h.2479v14.7839h-.2479zm-.2479 0h.2479v14.7839h-.2479zm-.2754 0h.2479v14.7839h-.2479z" fill="#ffbe55"/></g><g mask="url(#L)"><path d="m87.8056 47.6641h.2755v14.7839h-.2755zm-.2754 0h.2479v14.7839h-.2479zm-.2479 0h.2479v14.7839h-.2479zm-.2754 0h.2479v14.7839h-.2479zm-.2479 0h.2479v14.7839h-.2479zm-.2754 0h.2479v14.7839h-.2479zm-.2479 0h.2479v14.7839h-.2479zm-.2479 0h.2479v14.7839h-.2479zm-.2754 0h.2754v14.7839h-.2754zm-.2479 0h.2479v14.7839h-.2479zm-.2754 0h.2479v14.7839h-.2479zm-.2479 0h.2479v14.7839h-.2479zm-.2754 0h.2478v14.7839h-.2478zm-.2479 0h.2479v14.7839h-.2479zm-.2754 0h.2478v14.7839h-.2478zm-.2479 0h.2479v14.7839h-.2479zm-.2755 0h.2479v14.7839h-.2479z" fill="#ffbe55"/></g><g mask="url(#M)"><path d="m83.3717 47.6641h.2755v14.7839h-.2755zm-.2479 0h.2479v14.7839h-.2479zm-.2754 0h.2479v14.7839h-.2479zm-.2479 0h.2479v14.7839h-.2479zm-.2754 0h.2479v14.7839h-.2479zm-.2479 0h.2479v14.7839h-.2479zm-.2754 0h.2479v14.7839h-.2479zm-.2479 0h.2479v14.7839h-.2479zm-.2754 0h.2754v14.7839h-.2754zm-.2479 0h.2479v14.7839h-.2479zm-.2754 0h.2479v14.7839h-.2479zm-.2479 0h.2479v14.7839h-.2479zm-.2479 0h.2479v14.7839h-.2479zm-.2754 0h.2478v14.7839h-.2478zm-.2479 0h.2479v14.7839h-.2479zm-.2755 0h.2479v14.7839h-.2479zm-.2478 0h.2478v14.7839h-.2478zm-.2755 0h.2755v14.7839h-.2755zm-.2478 0h.2478v14.7839h-.2478z" fill="#ffbe55"/></g><path d="m72.5758 143.506c10.2678 0 18.5914-6.026 18.5914-13.46s-8.3236-13.46-18.5914-13.46-18.5914 6.026-18.5914 13.46 8.3236 13.46 18.5914 13.46z" fill="#2a94f4"/><path d="m64.7803 152.168c8.8075 0 15.9473-5.162 15.9473-11.529 0-6.368-7.1398-11.53-15.9473-11.53-8.8074 0-15.9473 5.162-15.9473 11.53 0 6.367 7.1399 11.529 15.9473 11.529z" fill="#ffbe55"/><path d="m65.166 150.656h5.3984v7.116z" fill="#ffbe55"/><path d="m74.2832 119.732h6.3073v-8.302z" fill="#2a94f4"/><path d="m49.0815 42.9457c-.3305.331-.8538.331-1.1568 0l-7.2162-7.2265c-.3305-.331-.3305-.8551 0-1.1585.3305-.3309.8538-.3309 1.1568 0l7.2162 7.2265c.3305.3034.3305.8275 0 1.1585zm-3.3878 11.5844c.0551.4413-.2754.8551-.7436.9102l-10.1358 1.0757c-.4407.0552-.8538-.2758-.9089-.7447-.0551-.4413.2754-.855.7437-.9102l10.1357-1.0757c.4407-.0276.8539.3034.9089.7447zm-1.6801-6.5093c-.1377.4413-.6335.6619-1.0466.4964l-9.64-3.365c-.4407-.1379-.661-.6344-.4958-1.0481.1377-.4413.6335-.662 1.0467-.4965l9.6124 3.365c.4407.138.6611.6069.5233 1.0482z" fill="#ffbe55"/></svg>