<svg fill="none" height="73" viewBox="0 0 69 73" width="69" xmlns="http://www.w3.org/2000/svg"><path d="m65.2016 30.0652h-10.4684c-8.5849 0-15.576-6.9911-15.576-15.576v-10.46845c0-1.99227-1.63-3.622312-3.6223-3.622312h-15.3586c-11.15674 0-20.1763 7.244632-20.1763 20.176262v32.0937c0 12.9317 9.01956 20.1763 20.1763 20.1763h28.4714c11.1567 0 20.1763-7.2446 20.1763-20.1763v-18.9809c0-1.9923-1.6301-3.6223-3.6224-3.6223z" fill="#7e92ee" opacity=".4"/><path d="m48.1752 1.15896c-1.4852-1.485153-4.057-.470905-4.057 1.59381v12.64183c0 5.2886 4.4916 9.6716 9.9613 9.6716 3.4412.0362 8.2227.0363 12.3159.0363 2.0647 0 3.1514-2.427 1.7025-3.8759-5.2161-5.2524-14.5617-14.70662-19.9227-20.06764z" fill="#6258a6"/><path d="m35.4246 46.4737c-1.0505-1.0505-2.7892-1.0505-3.8397 0l-2.6081 2.608v-15.1775c0-1.4851-1.2315-2.7167-2.7169-2.7167-1.4851 0-2.7167 1.2316-2.7167 2.7167v15.1775l-2.6081-2.608c-1.0504-1.0505-2.7892-1.0505-3.8396 0-1.0505 1.0504-1.0505 2.7891 0 3.8396l7.2446 7.2446c.0362.0363.0724.0363.0724.0725.2174.2173.5072.3984.797.5433.3622.1087.6882.1812 1.0504.1812.3623 0 .6883-.0725 1.0145-.2174.326-.1449.6157-.326.9055-.5796l7.2447-7.2446c1.0504-1.0505 1.0504-2.7892 0-3.8396z" fill="#292d32"/></svg>