<svg fill="none" height="176" viewBox="0 0 313 176" width="313" xmlns="http://www.w3.org/2000/svg"><path d="m161.197 176c60.349 0 109.272-5.604 109.272-12.516s-48.923-12.515-109.272-12.515c-60.35 0-109.2722 5.603-109.2722 12.515s48.9222 12.516 109.2722 12.516z" fill="#2a94f4" opacity=".11"/><path d="m89.6004 161.537c-5.0286 3.078-41.3101 8.035-55.3022-44.726-13.9921-52.7619 7.2934-71.4149 37.9786-84.3997 32.2672-13.6541 52.2592 7.9109 64.7582-9.9907 22.321-31.97076 100.265-29.40833 111.143 10.3238 11.993 43.8068-10.661 41.7443 16.542 73.5406 11.38 13.301-6.753 66.293-57.693 56.321-50.941-9.972-111.5302-4.677-117.4266-1.069z" fill="#b4aaff" opacity=".11"/><path d="m128.812 157.3 61.471 9.783v-120.8706l-61.471-9.7827z" fill="#cce9ff"/><path d="m128.812 157.3 61.471 9.783v-120.8706l-61.471-9.7827z" fill="#ffbe55" opacity=".13"/><path d="m128.811 157.3-61.4712 9.783v-120.8706l61.4712-9.7827zm122.944 0-61.472 9.783v-120.8706l61.472-9.7827z" fill="#e3deff"/><path d="m128.811 82.8671-61.4712 8.4922v-5.8279l61.4712-8.4923zm0 37.1329-61.4712 8.492v-5.828l61.4712-8.492zm122.944-37.1329-61.472 8.4922v-5.8279l61.472-8.4923z" fill="#f7f7f7"/><path d="m157.196 116.812c7.197 0 13.032-6.202 13.032-13.851 0-7.6502-5.835-13.8516-13.032-13.8516s-13.032 6.2014-13.032 13.8516c0 7.649 5.835 13.851 13.032 13.851z" fill="#0e538c"/><path d="m251.754 120-61.471 8.492v-5.828l61.471-8.492zm-122.943-37.1327 61.472 8.4921v-5.8279l-61.472-8.4923zm0 37.1327 61.472 8.492v-5.828l-61.472-8.492zm-41.414 43.89-5.1109.79v-120.8476l5.1109-.8133zm28.985-45.77-5.111.791v-79.6758l5.111-.8133z" fill="#f7f7f7"/><path d="m156.086 161.815 5.11.791v-120.8942l-5.11-.8134zm39.307 4.509-5.111.791v-120.8482l5.111-.8134zm24.557-44.511-5.111.791v-80.1933l5.111-.8133zm25.424 36.379-5.111.791v-42.211l5.111-.813zm-15.58 2.554-5.111.79v-42.21l5.111-.814zm-17.657 2.816-5.111.791v-42.211l5.111-.813zm-69.992-4.129-5.111-.828z" fill="#f7f7f7"/><path d="m157.197 82.9688c-10.387 0-18.806 8.9489-18.806 19.9882 0 11.039 8.419 19.988 18.806 19.988 10.386 0 18.805-8.949 18.805-19.988 0-11.0395-8.419-19.9882-18.805-19.9882zm0 33.8392c-7.198 0-13.032-6.201-13.032-13.851s5.834-13.8514 13.032-13.8514c7.197 0 13.031 6.2014 13.031 13.8514s-5.834 13.851-13.031 13.851z" fill="#f7f7f7"/><path d="m157.196 116.812c7.197 0 13.032-6.202 13.032-13.851 0-7.6502-5.835-13.8516-13.032-13.8516s-13.032 6.2014-13.032 13.8516c0 7.649 5.835 13.851 13.032 13.851z" fill="#cce9ff"/><g fill="#ffbe55"><path d="m157.196 116.812c7.197 0 13.032-6.202 13.032-13.851 0-7.6502-5.835-13.8516-13.032-13.8516s-13.032 6.2014-13.032 13.8516c0 7.649 5.835 13.851 13.032 13.851z" opacity=".86"/><path d="m190.287 88.8407-.062-.0085-62.196-8.395-28.8661 3.3684-.101-.8637 28.9751-3.3811 62.242 8.4012 26.682-4.1357v-41.7504l.869-.1384v42.634zm-90.4329 5.6237c-3.0797 0-8.2916-.5148-8.2916-2.444 0-1.9293 5.2119-2.4441 8.2916-2.4441 3.0799 0 8.2919.5148 8.2919 2.4441 0 1.9292-5.212 2.444-8.2919 2.444zm-7.1656-2.444c.2527.4754 2.8615 1.3256 7.1656 1.3256 4.3039 0 6.9129-.8502 7.1659-1.3256-.253-.4753-2.862-1.3255-7.1659-1.3255-4.3043 0-6.9131.8502-7.1656 1.3255z"/><path d="m104.544 79.1808c0-2.5895-2.1-4.6886-4.6906-4.6886-2.5904 0-4.6903 2.0991-4.6903 4.6886v.0127c.0018.6062.1617 1.2015.4307 1.7449l4.2596 8.6046 4.2596-8.6046c.269-.5434.429-1.1387.431-1.7449zm-4.6906 2.4772c-1.3686 0-2.4781-1.1091-2.4781-2.4772s1.1095-2.4772 2.4781-2.4772 2.4776 1.1091 2.4776 2.4772-1.109 2.4772-2.4776 2.4772z"/></g><path d="m102.364 90.4587s-2.311-1.6788-1.082-4.4891c.702-1.6062 1.357.9469 2.565 1.4412 0 0 .466.3114.108-.1903-.358-.5018-.651-.5362-.613-.744.037-.2078.123-.24.447-.0886.485.2262.606.3355.95.9018.343.5663 1.583 2.3871.676 3.0301-.907.6431-1.441 1.9059-3.051.1389zm25.328-8.1266h-5.137l.603-5.7774h3.93z" fill="#fcd2b1"/><path d="m125.122 78.866c3.065 0 5.549-2.4832 5.549-5.5463s-2.484-5.5463-5.549-5.5463c-3.064 0-5.548 2.4832-5.548 5.5463s2.484 5.5463 5.548 5.5463z" fill="#fab9af"/><path d="m114.193 118.381 4.07 45.089h2.979s4.367-30.899 4.367-36.256c0-1.438.706-1.233.771-.821.067.433 6.113 37.026 6.113 37.026l3.288-.103.271-44.935s-4.106-.217-10.102-.217c-5.997 0-11.757.217-11.757.217z" fill="#0e538c"/><path d="m122.948 80.4297s-5.839.7441-8.151 4.7497c-2.311 4.0056-2.832 10.8691-3.525 11.7936-.694.9244 1.89 6.297 3.722 3.895 1.832-2.4022 2.886-9.0638 3.348-10.1421.463-1.0787 4.606-10.2962 4.606-10.2962zm6.672.7289s4.611 1.6129 5.696 4.8772 5.722 11.4036 5.555 13.9972c-.168 2.593-5.807 14.83-5.807 14.83l-1.537-.768s2.197-12.915 2.179-14.2802c-.017-1.3648-5.006-4.9125-3.861-9.3921.069-.269-6.833-5.7557-2.225-9.2641z" fill="#ffbe55"/><path d="m125.123 78.8672s-3.134.691-4.932-1.0552c-1.798-1.746-1.541-3.903-2.774-4.2111-1.233-.3082-.976-2.2083 0-2.7218s2.415-.719 2.774-2.465c.36-1.746 5.283-2.6191 6.418-1.592 1.134 1.0272 2.521.873 3.394 2.0542.874 1.1811.787 4.5525 1.285 5.5462.616 1.2325-2.146 3.7101-3.379 4.0695-1.233.3595-2.786.3752-2.786.3752z" fill="#0b4870"/><path d="m136.052 118.383s-6.204.869-10.929.869-10.93-.869-10.93-.869l2.739-30.5341c.23-2.9923 3.416-7.4427 6.418-7.4427h4.14c3.044 0 6.17 4.512 6.348 7.5491z" fill="#ffbe55"/><path d="m121.039 166.346h-8.888c-.163 0-.236-.205-.109-.307 2.425-1.956 5.447-3.023 8.563-3.023h.434c.095 0 .173.077.173.172v2.985c0 .096-.078.173-.173.173zm14.84 0h-8.888c-.163 0-.235-.205-.109-.307 2.425-1.956 5.447-3.023 8.563-3.023h.434c.096 0 .173.077.173.172v2.985c0 .023-.004.045-.013.066s-.021.04-.037.056-.036.029-.056.038c-.021.008-.044.013-.067.013z" fill="#0b4870"/><path d="m103.69 91.3564s4.456 11.6026 10.504 10.0936l-1.162-6.1076s-5.701-3.4495-7.33-5.3736z" fill="#ffbe55"/></svg>