<svg fill="none" height="274" viewBox="0 0 274 274" width="274" xmlns="http://www.w3.org/2000/svg" xmlns:xlink="http://www.w3.org/1999/xlink"><linearGradient id="a"><stop offset="0" stop-color="#e3dbf9"/><stop offset=".54" stop-color="#ccbbfa"/><stop offset="1" stop-color="#7848fc"/></linearGradient><linearGradient id="b" gradientUnits="userSpaceOnUse" x1="203.027" x2="88.5474" xlink:href="#a" y1="142.395" y2="236.469"/><linearGradient id="c" gradientUnits="userSpaceOnUse" x1="162.164" x2="125.468" xlink:href="#a" y1="132.391" y2="191.916"/><linearGradient id="d" gradientUnits="userSpaceOnUse" x1="16.6817" x2="116.518" y1="113.247" y2="195.239"><stop offset="0" stop-color="#e3dbf9"/><stop offset=".56" stop-color="#cdbdfa"/><stop offset="1" stop-color="#7848fc"/></linearGradient><linearGradient id="e" gradientUnits="userSpaceOnUse" x1="154.527" x2="160.85" y1="105.777" y2="182.75"><stop offset="0" stop-color="#272baa"/><stop offset=".45" stop-color="#1d2190"/><stop offset="1" stop-color="#050751"/></linearGradient><linearGradient id="f" gradientUnits="userSpaceOnUse" x1="119.045" x2="102.357" y1="76.0474" y2="161.738"><stop offset="0" stop-color="#3e42d3"/><stop offset="1" stop-color="#050751"/></linearGradient><linearGradient id="g" gradientUnits="userSpaceOnUse" x1="106.875" x2="101.122" y1="137.089" y2="191.497"><stop offset="0" stop-color="#e3e3fe"/><stop offset=".47" stop-color="#bbbbfe"/><stop offset="1" stop-color="#4f4fff"/></linearGradient><linearGradient id="h" gradientUnits="userSpaceOnUse" x1="97.5155" x2="35.8397" y1="83.494" y2="149.042"><stop offset="0" stop-color="#292db3"/><stop offset=".56" stop-color="#22259f"/><stop offset="1" stop-color="#050751"/></linearGradient><linearGradient id="i" gradientUnits="userSpaceOnUse" x1="244.019" x2="201.935" y1="66.2148" y2="145.271"><stop offset="0" stop-color="#aadbff"/><stop offset=".6" stop-color="#91d1ff"/><stop offset=".81" stop-color="#5ab9ff"/><stop offset="1" stop-color="#22a1ff"/></linearGradient><linearGradient id="j" gradientUnits="userSpaceOnUse" x1="241.26" x2="215.059" y1="78.6657" y2="121.755"><stop offset="0" stop-color="#aadbff"/><stop offset=".47" stop-color="#85cbff"/><stop offset="1" stop-color="#22a1ff"/></linearGradient><linearGradient id="k" gradientUnits="userSpaceOnUse" x1="126.078" x2="109.025" y1="63.0309" y2="89.0917"><stop offset="0" stop-color="#fb9c9a"/><stop offset=".64" stop-color="#fc8886"/><stop offset=".84" stop-color="#fd5450"/><stop offset="1" stop-color="#ff1712"/></linearGradient><linearGradient id="l" gradientUnits="userSpaceOnUse" x1="120.999" x2="110.431" y1="87.0566" y2="53.6143"><stop offset="0"/><stop offset=".53" stop-color="#121212"/><stop offset="1" stop-color="#4d4d4d"/></linearGradient><mask id="m" height="82" maskUnits="userSpaceOnUse" width="92" x="124" y="91"><path d="m126.44 139.731c5.003 12.494 22.175 32.345 37.603 32.342 22.286.001 46.143-58.36 46.143-58.36 9.007-6.134 3.493-14.6504-.577-21.7911l-6.201 15.3061s-26.826 37.519-38.388 35.829c-11.564-1.687-24.561-45.4018-30.991-45.9567-6.429-.5548-12.591 30.1337-7.589 42.6307z" fill="#fff"/></mask><mask id="n" height="107" maskUnits="userSpaceOnUse" width="60" x="44" y="87"><path d="m74.4916 97.2025c-10.2824 6.3495-33.0657 26.2895-29.7824 41.3635 4.746 21.776 27.2399 44.746 27.2399 44.746.8631 7.532 7.2967 9.262 8.6464 9.747 1.1659.417-3.3991-10.167-2.9067-11.015 1.5852-2.725 4.7059 1.398 5.4292-1.266.4583-1.682-3.5302-4.764-7.0768-4.371 0 0-16.0231-29.993-11.4653-43.46 4.5612-13.468 36.6241-12.46 38.8221-37.3409.588-6.6493-2.044-14.992-28.9064 1.5964z" fill="#fff"/></mask><path clip-rule="evenodd" d="m131.356 58.1697c111.488-2.9159 122.132 79.0533 98.726 79.7193-45.233 1.287-48.209 26.135-78.017 53.654-48.144 44.451-104.7978 46.988-101.4178-68.89 1.4209-48.6342 35.4712-63.3004 80.7088-64.4833z" fill="#f5f2fd" fill-rule="evenodd"/><path clip-rule="evenodd" d="m208.728 148.735c32.215-7.194 38.413 7.287 31.652 8.807-13.066 2.938-11.286 7.478-20.391 14.741-13.287 10.6-28.617 6.45-32.214-6.838-2.395-8.853 7.881-13.791 20.953-16.71z" fill="#f5f2fd" fill-rule="evenodd"/><path d="m197.606 181.236c-2.128-.616-4.035-1.216-6.015-2.042-2.576-1.012-4.842-2.702-7.357-3.834-2.396-1.152-5.012-1.614-7.507-2.477-1.367-.413-2.844-1.166-4.369-1.613.544-.154 1.111-.32 1.672-.468.349-.081.704-.179 1.036-.266.496.249 1.005.472 1.524.669 1.145.456 2.319.883 3.52 1.177 2.763.635 5.577 1.125 8.441 1.251 3.019.058 5.885-.803 8.762-.934.955-.032 1.934.085 2.83.114.154-.008.351-.141.333-.308-.129-.226-.445-.295-.656-.449-2.041-1.249-4.28-2.145-6.683-2.292-3.014-.238-5.992.403-8.834-.279-.752-.14-1.493-.329-2.22-.567 1.06-.499 2.126-1.016 3.154-1.586 1.733-.971 3.332-2.209 4.974-3.352 2.385-1.711 4.913-3.232 7.087-5.258.32-.272 1.099-1.049.239-.964-1.111.32-2.203.747-3.33 1.002-6.668.955-12.823 4.12-17.478 8.99-.657.698-1.287 1.427-1.811 2.232-.037.045-.068.096-.09.15-1.082.29-2.136.61-3.214.941-.04.006-.063.019-.103.025-.401.123-.802.246-1.187.374.286-.444.591-.943.832-1.202.748-.908 1.466-1.345 2.335-2.111 2.113-1.906 3.968-4.264 4.987-6.991.943-2.452 1.978-4.57 3.469-6.752.711-2.109-7.466 5.973-7.858 6.34-1.851 1.695-3.052 4.018-4.031 6.356-.463 1.229-.835 2.631-1.393 3.645-.244.54-.627.991-.914 1.496-.002.028.001.056.008.083-.854.288-1.705.618-2.549.93-.023.012-.04.006-.063.018-.391.147-.781.294-1.161.464.018-.054.02-.114.039-.168.076-.302.19-.594.339-.869 1.726-2.805 3.925-5.285 5.789-8.002.986-1.43 1.968-2.902 2.608-4.533.467-1.187.695-2.719 1.191-3.715.613-1.116 1.348-2.15 2.094-3.161.102-.186.835-.939 1.024-1.376.096-.712-.892.013-1.173.117-2.555 1.491-4.815 3.548-6.631 5.959-1.209 1.475-2.38 3.002-3.193 4.754-1.494 3.006-2.083 6.728-3.458 9.554-.41.821-.911 1.593-1.495 2.301-.123.139-.087.252.014.287-1.087.469-2.147.968-3.213 1.485.271-1.658 1.277-3.364 2.211-4.973 1.102-1.873 2.064-3.836 3.009-5.803.627-1.374 1.209-2.783 1.515-4.268.399-2.298.45-4.575.98-6.707.176-.689.403-1.364.68-2.019.106-.306.325-.612.25-.94-.074-.167-.303-.105-.431-.009-.316.314-.523.746-.811 1.089-.91 1.155-2.124 2.808-3.051 4.178-1.904 2.884-3.639 5.988-4.447 9.413-.599 2.551-.594 5.371-1.097 7.754-.166.969-.321 1.962-.779 2.85-.013.036-.054.103-.048.085-.037.107-.155.228-.118.341.004.009.01.017.018.023.007.006.016.011.026.013-1.425.735-2.818 1.541-4.2 2.371.018-.215-.015-.448.043-.669.035-.431.232-1.108.414-1.689.486-1.402 1.222-2.657 1.772-4.138 1.19-2.729 1.269-5.741 1.539-8.648.262-3.211 0-6.382-.029-9.572.012-.538.053-1.075.122-1.609l.019-.054c.122-.539.216-1.084.282-1.633.041-.228-.229-.321-.386-.194-.231.121-.2.414-.258.635-.086.413-.132.82-.179 1.226-.349 1.611-.89 3.336-1.414 4.906-.991 2.536-2.353 4.944-2.996 7.62-.567 2.24-.4 4.593-.058 6.825.22 1.163.49 2.022.407 3.241 0 1.148-.081 2.146-.35 3.14-.126.42-.28.809-.44 1.217-.008.025-.011.052-.006.078.004.026.014.05.03.071.018.017.04.029.063.037s.047.012.072.01c-.975.587-1.944 1.184-2.905 1.793.211-.337.391-.692.537-1.062.641-1.47.837-3.073 1.044-4.652.27-1.98.325-3.994-.059-5.939-.286-1.629-.847-3.172-1.219-4.77-.409-1.875-.614-3.789-.612-5.708.005-.104.015-.208.032-.311.06-.281.113-.545.15-.814-.425-.409-.61.071-.686.89-.381 1.922-1.096 4.151-1.288 6.178-.214 2.966.127 5.963.762 8.82.342 1.628 1.132 3.109 1.159 4.669.017.932-.231 1.651-.527 2.616-.027.131-.157.288-.053.424l.034.012c-.016.036-.023.075-.021.114-4.385 2.851-8.583 6.089-12.298 9.896-.458.506-.94 1.024-1.37 1.56-.092.209.161.297.323.212.549-.495.983-1.15 1.521-1.668 4.195-4.266 8.953-7.813 14.063-10.957 1.628 1.348 2.852 3.161 4.422 4.57 3.049 2.646 7.132 3.394 10.706 5.014.361.104.935.464 1.193-.01.011-.032.011-.066.002-.098s-.028-.06-.053-.081c-.228-.16-.475-.265-.715-.389-1.422-.693-2.474-1.58-3.62-2.742-.402-.421-.81-.824-1.224-1.209.584.384 1.198.737 1.812 1.09 1.896 1.18 4.252 1.955 6.188 2.524 1.931.738 3.712 1.818 5.259 3.189.357.224.685.64 1.104.684.664-.173.093-.652-.154-.919-2.07-1.984-3.857-4.294-6.128-6.026-1.317-.939-2.564-1.592-3.743-2.604-1.278-.945-2.365-2.167-3.714-3.016-1.734-1.044-3.778-1.248-5.47-2.034-.487-.229-.848-.495-1.209-.761 1.271-.728 2.53-1.419 3.834-2.076l.912.8c1.66 1.641 3.586 2.951 5.578 4.124 1.551.919 3.272 1.455 4.74 2.506 3.211 2.178 5.838 5.825 9.253 8.014.863.56 1.685 1.187 2.561 1.711.358.165.863.561 1.21.157.14-.294-.236-.464-.384-.636-.497-.474-1.01-.954-1.449-1.488-2.25-2.771-4.283-5.79-7.061-8.02-2.94-2.467-6.034-4.766-9.489-6.404-1.276-.623-2.565-1.371-4.023-1.412-.167.001-.334-.01-.499-.032 1.228-.602 2.494-1.15 3.787-1.669.397-.164.788-.311 1.184-.476.734.717 1.192 1.741 2.059 2.343 2.883 2.145 6.076 3.774 9.425 4.953 5.264 1.922 10.437 4.376 16.096 4.825.466.02.948.207 1.413.066.654-.418-.504-.617-.762-.747-.954-.35-1.631-.524-2.617-.946-1.085-.577-2.121-1.237-3.18-1.886-2.771-1.703-5.534-3.485-8.553-4.691-3.156-1.192-6.225-1.872-9.218-3.371-.896-.411-1.763-.851-2.611-1.346 1.522-.581 3.032-1.125 4.581-1.616.051.179.348.302.469.444 1.08.917 2.41 1.438 3.627 2.121 1.908 1.143 3.707 2.491 5.717 3.448 3.135 1.306 6.174 2.398 9.555 3.105 2.121.472 4.282.939 6.48.914.365.147 2.032.019 1.453-.543zm-45.168-1.398c.011.024.028.03.039.054.01.024.305.427.201.291.527.987 1.25 1.842 1.987 2.66.131.167.268.315.406.463-1.28-.817-2.685-1.419-4.16-1.782-.327-.093-.586-.162-.839-.25.776-.496 1.563-.969 2.366-1.436z" fill="url(#b)"/><path d="m176.06 134.177c-2.079 1.518-3.979 2.857-6.104 4.16-2.717 1.721-5.709 2.888-8.471 4.507-2.685 1.51-5.019 3.503-7.564 5.221-1.349.968-3.036 1.88-4.531 2.965.298-.523.604-1.071.919-1.605.204-.328.399-.668.587-.984.568-.308 1.118-.642 1.66-.989 1.213-.762 2.425-1.562 3.559-2.441 2.575-2.043 5.081-4.189 7.351-6.537 2.337-2.507 3.867-5.283 5.953-7.754.702-.815 1.534-1.585 2.236-2.325.111-.131.161-.355.022-.412-.269.01-.561.245-.836.356-2.49 1.17-4.864 2.659-6.8 4.611-2.468 2.425-4.248 5.2-6.919 7.287-.601.52-1.399 1.116-2.113 1.617.43-1.106.852-2.224 1.204-3.334.586-1.874.87-3.752 1.258-5.625.526-2.743 1.302-5.523 1.43-8.225.039-.386.046-1.376-.543-.618-.604 1.07-1.112 2.172-1.776 3.227-4.242 5.84-6.658 12.456-6.518 18.558.026.854.096 1.698.303 2.487.005.049.02.097.045.14-.604 1.033-1.165 2.056-1.734 3.104-.026.036-.035.061-.06.097-.212.39-.425.78-.62 1.158-.117-.433-.26-.904-.272-1.219-.115-1.022.103-1.813.187-2.874.172-2.599-.192-5.177-1.468-7.215-1.127-1.855-1.933-3.641-2.441-5.838-1.045-1.512-1.181 8.852-1.202 9.34-.132 2.288.702 4.302 1.716 6.138.573.921 1.344 1.841 1.682 2.749.221.439.27.956.43 1.416.035.014.044.027.07.029-.433.841-.831 1.698-1.238 2.541-.009.025-.026.036-.034.061-.187.391-.373.782-.534 1.175-.026-.039-.07-.067-.096-.106-.17-.195-.304-.419-.396-.661-.798-2.664-.993-5.584-1.618-8.327-.326-1.447-.688-2.909-1.428-4.153-.537-.907-1.515-1.762-1.888-2.61-.373-.998-.592-2.064-.785-3.128-.062-.166-.072-1.107-.257-1.456-.463-.388-.668.754-.803 1.035-.82 2.79-.99 5.578-.557 8.147.19 1.653.449 3.297 1.148 4.74 1.126 2.557 3.476 4.665 4.556 7.044.31.716.511 1.475.595 2.252.01.163.123.182.226.112-.473 1.116-.904 2.221-1.325 3.34-1.04-.947-1.558-2.53-2.058-4.012-.572-1.737-1.316-3.395-2.077-5.041-.557-1.121-1.174-2.221-2.058-3.121-1.425-1.331-3.097-2.362-4.297-3.732-.384-.445-.72-.93-1.002-1.446-.149-.221-.213-.538-.517-.617-.182-.01-.309.209-.334.358-.004.401.164.761.203 1.152.177 1.264.498 2.999.824 4.371.721 2.848 1.737 5.65 3.698 7.813 1.462 1.609 3.587 2.827 4.995 4.283.603.559 1.232 1.12 1.552 1.89.018.026.036.09.027.077.053.078.054.228.167.247.022 0 .043-.008.06-.022-.53 1.514-.981 3.032-1.407 4.551-.149-.108-.348-.181-.471-.326-.297-.217-.656-.675-.955-1.08-.685-1.015-1.07-2.177-1.765-3.281-1.147-2.182-3.351-3.555-5.332-5.042-2.215-1.612-4.798-2.768-7.218-4.128-.39-.24-.763-.508-1.117-.8l-.026-.039c-.316-.338-.654-.654-1.014-.945-.14-.133-.415.052-.439.239-.084.247.16.348.282.492.248.244.51.472.786.682.946.992 1.832 2.194 2.614 3.315 1.154 1.931 1.929 4.117 3.453 5.817 1.253 1.448 3.149 2.328 5.086 3.01 1.042.319 1.892.465 2.746 1.064.862.498 1.551.999 2.095 1.656.21.287.404.586.58.896.016.019.036.033.059.041s.048.009.071.004c.054-.017.102-.049.138-.093-.299 1.068-.585 2.14-.859 3.214-.09-.319-.222-.625-.39-.911-.618-1.175-1.674-2.035-2.705-2.893-1.283-1.085-2.756-2.005-4.509-2.527-1.442-.466-3.028-.665-4.512-1.047-1.663-.447-3.261-1.107-4.755-1.963-.075-.047-.145-.102-.21-.161-.158-.168-.324-.328-.498-.479-.63.179-.41.542.148.961 1.155 1.154 2.287 2.72 3.666 3.76 2.066 1.467 4.578 2.48 7.208 3.187 1.485.419 3.199.399 4.391 1.053.714.39 1.066.91 1.566 1.577.079.08.098.256.279.228l.035-.023c.015.029.04.052.069.067-1.187 4.914-1.941 9.839-1.901 14.607.032.604.056 1.232.131 1.826.089.167.347-.007.405-.179.045-.675-.117-1.323-.098-1.999-.021-5.369.927-10.898 2.444-16.547 2.251-.781 4.543-1.021 6.795-1.726 4.305-1.41 7.969-4.51 11.901-6.805.352-.257 1.059-.583.899-1.005-.022-.024-.05-.04-.081-.046-.032-.006-.064-.002-.093.012-.293.122-.56.283-.835.431-1.601.892-3.067 1.389-4.811 1.847-.622.154-1.235.322-1.839.502.733-.324 1.465-.686 2.197-1.047 2.326-1.078 4.698-2.718 6.597-4.095 1.989-1.285 4.138-2.303 6.392-3.028.439-.202 1.001-.297 1.352-.629.375-.632-.419-.361-.808-.269-3.063.875-6.157 1.372-9.184 2.525-1.706.697-3.144 1.46-4.801 2.01-1.681.661-3.425 1.043-5.088 1.806-2.102 1.002-3.808 2.628-5.684 3.705-.479.266-.977.494-1.49.685.418-1.382.855-2.738 1.351-4.116l1.294-.419c2.495-.68 4.942-1.726 7.337-2.888 1.869-.902 3.579-2.114 5.484-2.889 4.076-1.748 8.813-2.369 13.053-4.284 1.077-.481 2.172-.899 3.231-1.406.396-.229 1.077-.481 1.038-.947-.115-.244-.528-.003-.77.046-.734.212-1.485.434-2.219.57-3.793.685-7.606 1.081-11.392 2.443-4.089 1.397-8.167 2.994-12.022 5.181-1.437.8-2.979 1.557-4.118 2.762-.127.141-.261.276-.402.404.48-1.291 1.029-2.59 1.621-3.9.178-.404.364-.795.542-1.2 1.096-.304 2.214-.243 3.325-.71 3.802-1.487 7.452-3.459 10.882-5.756 5.443-3.581 11.218-6.855 15.854-11.407.368-.381.875-.705 1.122-1.156.183-.73-.847.155-1.139.315-.989.649-1.633 1.14-2.7 1.785-1.257.659-2.541 1.242-3.833 1.849-3.386 1.585-6.824 3.13-10.023 5.138-3.293 2.13-6.135 4.409-9.535 6.269-.99.573-1.98 1.109-2.996 1.606.72-1.529 1.458-3.031 2.264-4.543.174.035.492-.161.691-.201 1.509-.507 2.911-1.397 4.35-2.122 2.308-1.104 4.688-2.028 6.934-3.299 3.363-2.063 6.493-4.138 9.592-6.666 1.966-1.574 3.957-3.185 5.609-5.039.388-.242 1.559-1.696.696-1.455zm-35.358 37.276c.026.001.043-.01.069-.009.026.002.553-.07.372-.042 1.142-.014 2.334-.25 3.509-.513.225-.038.44-.089.656-.14-1.6.728-3.11 1.639-4.499 2.716-.318.234-.567.421-.825.595.216-.866.458-1.731.718-2.607z" fill="url(#c)"/><path d="m49.2116 182.408c-.3307-1.486.2564-3.192 1.3435-4.217l.3229-.271c-.2637-.183-.5671-.369-.7844-.627-.4017-.434-.57-1.028-.5797-1.608.014-.428.1765-.837.4597-1.158.2437-.279.5814-.489.8796-.703.4771-.438 1.0992-.704 1.7051-.551.3021-.952 1.1101-1.522 2.451-1.326 1.0453.151 2.0756.939 2.0587 2.055.0459.623-.2535 1.316-.0571 1.812.2261.619 1.0922.994 1.4168.243.2712-.596.0274-1.236-.4255-1.774-.9087-1.037-2.1844-1.987-1.7301-3.545.7496-2.431 4.8073-2.938 5.9164-.526.0499.098.0879.202.113.309.0216-.018.0216-.018.0612-.014-.0058-.207.0188-.413.073-.613.142-.487.3779-.906.4156-1.342.0559-.414-.0787-.705-.3321-1.007-.4776-.48-1.3335-.974-1.4812-1.805-.0699-.346.0075-.779.3022-.953.273-.156.7487-.114.8151.271.0226.201-.1316.368-.2971.433-.0827.033-.2378-.02-.2275-.139.025-.058.1077-.091.1292-.109l.0431-.036c.1214-.249-.0666-.385-.3-.226-.3514.369-.1576 1.125.3022 1.584.2535.301.7302.562 1.0164.947.2138.298.3812.672.3287 1.046-.0445.516-.395 1.105-.4508 1.519-.0059.113-.0223.225-.0491.335.2042-.079.4167-.134.6334-.165.9832-.054 2.0157.474 2.4986 1.355.2663.446.4537.936.5538 1.446.5041-.057 1.0762-.207 1.6062-.101.0397.004.0974.028.137.032-.069-.126-.1199-.23-.1888-.356-1.4189-3.218-2.176-6.698-3.656-9.901-.1492-.353-.32-.687-.4873-1.061-.0431.036-.1077.091-.1111.13-.3515.369-.6918.839-1.1879 1.036-.2543.089-.5273.111-.7926.064-.2653-.048-.5138-.163-.7213-.335-.2603-.222-.4164-.496-.6336-.754-.2897-.344-.7052-.62-1.106-.834-.5955-.271-1.2953-.492-1.644-1.081-.2647-.402-.4036-.874-.4848-1.32-1.2304.373-2.5772.476-3.6322-.254-.0827.032-.187.083-.1904.123-.4947.318-1.0197.587-1.5673.802-1.9489.83-4.1251-.097-4.6421-2.199-.0259-.162-.07-.345-.0959-.507-.9367-.021-1.3506-.776-1.6138-1.658-.1174-.489-.0943-.986-.1901-1.494-.0372-.263-.1106-.568-.1805-.914-.6245.525-1.3367 1.602-2.2435 1.004-1.4024-1.1-1.5276-3.347-.4888-4.735-.2116-.066-.4272-.118-.6455-.156-.1948-.057-.9005.022-1.2719-.07-.8471-.133-.7467-1.063-.3997-1.612.5915-1.047 1.4946-1.883 2.5834-2.392.0612-.015.1043-.051.1655-.066-.0509-.104-.0984-.248-.1312-.331-.0735-.304-.0457-.624.079-.911.7283-1.495 2.877-1.169 4.384-.819-.0691-.407-.0477-.824.0626-1.222.1104-.397.307-.766.5759-1.079.8785-.922 2.3268-1.736 3.5472-1.071.5069-.315 1.144-.3 1.7071-.112.4396.14.8531.351 1.2238.625.0759.047.1302.111.2061.158-.3063-.845-.5729-1.687-.9006-2.514-.0826-.011-.1577-.053-.2095-.118-.3088-.586-.6767-.718-1.2111-1.003-.9602-.443-1.7246-.609-2.8139-.943-1.0713-.312-2.1176-.682-3.1604-1.092-.4195.463-.8864.782-1.299 1.165-.3514.369-.4754.878-.6782 1.379-.3212.711-.7827 1.43-1.509 1.747-.5189.233-1.0949.308-1.6562.216-.0396-.003-.0578-.025-.0793-.007-.0046.043-.022.083-.0499.116-.3143.631-.7475 1.253-1.3911 1.537-.5643.29-1.4829.291-1.9508.39-.774.173-1.2759.668-2.0781.939-.7013.258-1.5372.226-2.1802-.189-.5887-.351-.9018-1.117-.685-1.777.0865-.248.2146-.48.3789-.686-.228-.17-.4388-.362-.6293-.574-.5681-.588-.6943-1.437-.1568-2.11.2222-.26.6383-.683.7382-.914.4151-.643.145-1.446.2929-2.231.2581-1.136 1.1332-2.019 2.1723-2.488-.4355-.737-.0822-1.585.2748-2.253.1998-.462.1798-.923-.0385-1.401-.2578-.482-.4647-.859-.1314-1.249-.1518-.093-.2819-.205-.4517-.319-.5275-.365-.8837-1.095-.6306-1.712.1532-.386.4763-.658.7596-.933.3297-.38.5669-.831.6932-1.318.1239-.508.1935-1.081.5948-1.566 1.0147-1.11 3.149-1.544 4.1957-.255.4854.621.4573 1.637 1.2183 1.842.0808.014.1636.007.2413-.019-.6087-.811-.9409-1.819-1.7752-2.33-.6249-.394-1.4877-.808-1.9843-1.53-.2613-.442-.3865-1.072-.1256-1.548.2325-.379.6676-.561 1.0665-.786l.0646-.055c-.2319-.234-.4646-.467-.6982-.699l-.0216.018c-.1946.136-.4338.192-.6685.157-.2347-.036-.4469-.159-.5931-.346-.1811-.216-.2716-.323-.4595-.459-.0438-.036-.0987-.055-.1551-.054-.2775-.024-.5041.057-.8426.047-1.016-.028-1.2439-1.086-.8366-1.869.1429-.267.3583-.449.5917-.608-.1629-.194-.3474-.37-.5103-.563-.0431.036-.1258.069-.1688.105-.5101.355-.6726 1.08-.8137 1.787-.1376.667-.5199 1.392-1.2178 1.611-.946.318-1.982-.171-2.576-.921-.395-.514-.6244-1.093-1.1984-1.382-.1879-.136-.8118-.31-1.1153-.496-.3468-.194-.6108-.508-.7423-.883-.0677-.188-.0979-.387-.089-.587l-.0431.036c-.2769.315-.4621.7-.5355 1.112-.0593.454.1408.911.3331 1.227.3302.568 1.0217 1.347.5274 1.983-.2687.336-.7048.298-1.0865.325-.0215.018 0 0 .0396.003-.4575-.019-.8418.267-.8905.602-.0455.296.3328.309.6093.113l.0862-.072c.0577.024-.119-.011-.137-.032-.1121-.09.0171-.198.136-.188.1801-.005.4292.117.3113.326-.1396.228-.4273.323-.6686.342-.7635.054-.8241-.63-.2891-1.044.4092-.344 1.0977-.224 1.3821-.279.554-.172.396-.885.1132-1.309-.4785-.7-1.0226-1.566-.6481-2.432.1498-.347.3245-.751.6804-.94-.0084-.013-.0196-.023-.0327-.031-.0131-.009-.0279-.014-.0432-.015-.2637-.183-.3758-.272-.6465-.376-.5955-.271-1.6345.198-2.579.037-.9695-.104-1.8632-1.08-1.5977-2.076.1954-.642.7554-1.113 1.3412-1.421-.7335-.523-1.7133-.508-2.4909-1.214-.55-.567.4357-.881.8312-1.067.3127-.152.97-.595 1.4888-.59.0611-.014.1189.011.1801-.004l-.0181-.022c-.0406-.223-.0563-.504.1014-.71.6554-.881 2.9624-.542 3.9958.206l-.018-.021c-.2919-.545-.379-1.176-.2455-1.779.2125-.575.6055-1.0661 1.1203-1.3995.5148-.3333 1.1236-.4911 1.7356-.4496l.0396.0034c-.2007-.1592-.3927-.3291-.575-.509-.3113-.2782-.6517-.5219-1.0153-.7269-1.2386-.6863-2.7131-.9537-3.8337-1.8495-.2603-.2222-.6191-.6925-.2925-1.0037.2765-.1958.6479-.1037.9651-.0763.6489.1161 1.427.1233 2.0241-.0843.716-.1977 1.4095-.597 2.1808-.5102.0811-.0679.1491-.15.2007-.2423.7809-.9507 2.0884-1.0573 3.2517-1.1165.803-.0503 1.4579-.2329 2.0868-.5782 1.3621-.7407 2.6318-2.0286 4.2708-2.0465.3652-.0005.725.0884 1.0479.2591.3228.1707.599.4178.8043.7199.4966.7219.3425 1.8069-.542 2.1098-1.065.3071-1.586-1.0559-2.466-1.2718-.0974-.0284-.3929-.074-.5369-.0265-.1903.0676-.3677.167-.5246.2941-.2154.181-.3946.4052-.6246.525.0543.0646.0872.1473-.0059.299-.3118.3724-.852.3855-1.251.6106-.4996.2363-1.088.8044-1.5177 1.3863-.3833.5059-.7 1.3974-1.054 2.0254-.2894.5316-.6905.9943-1.1757 1.3563-.0908.0698-.1897.1283-.2946.1742.0019.4395.0254.8608.0307 1.2604.0215-.0181.0612-.0147.0827-.0328.1836-.0629.3587-.1484.5212-.2545.5069-.3155.9476-.7965 1.5378-.9252.3456-.0698.7205-.0174 1.0023.1866.2638.1826.4957.5022.5079.8228.0709.5654-.2728 1.0744-.5733 1.5484-.1429.267-.2462.537-.2022.721.0576.145.1692.262.3112.326.2344.061.5007-.016.8858-.083.0791-.017.1604-.024.2413-.019l.0137-.158c.0324-.836.6457-1.462 1.4816-1.43 1.7432-.068 3.0197 2.718.7914 3.084-.324.052-.6876.1-1.0047.073.0329.214.0542.429.064.645.1203.062.2281.146.3181.247.2931.305.3165.726.2822 1.122-.0484.57-.3161 1.098-.7467 1.473-.4953.417-1.0754.426-1.4335.874-.1542.167-.2031.502-.1626.725.0734.306.2045.637.2167.958.0154.207-.0094.415-.073.612l.5432.646.0646-.054c.4137-.277.8128-.576 1.1956-.895.7604-.713 1.2438-1.45 1.6646-2.392.0999-.231.1997-.462.2781-.675-.8245-1.549.7368-2.053.6507-3.598-.0152-.325-.0539-.649-.1159-.968-.2329-.306-.3743-.671-.4079-1.054-.02-.461.097-.89-.0488-1.282-.1243-.4102-.3709-.791-.3331-1.2271.0152-.6376.7603-.7129 1.2441-.5312.9342.2805 1.6936.9653 2.205 1.7483.3336.528.5631 1.107.609 1.73-.0034.04.0147.061-.0068.079.2284-.044.4499-.119.6582-.222.0396.003.4024-.265.5823-.269.2745-.027.55.039.7825.187.5785.47.7511 1.243 1.053 1.909.5053 1.082 1.0039 2.243.8363 3.487-.0102.119-.0387.216-.0489.335.3133-.017.6272.017.9298.1.4258.157.8481.353 1.1378.698.1203.198.1877.423.1956.655.008.231-.0438.461-.1504.667-.3107.592-.8104.828-1.2084 1.273-.5237.514-.5018 1.414-.96 2.094-.3219.491-.72.936-1.2266 1.251-.043.036-.1258.069-.1688.105.0362.044.0508.105.0871.148.0983.248.2113.557.3087.586.3318.088.8849-.303 1.4364-.215.8653.154 1.5351.951 1.5785 1.833-.0074.779-.5267 1.473-.8522 2.003-.1025.155-.1842.323-.2429.499 1.1577.239 2.2331.732 3.1227 1.528.5534.527 1.1759 1.18 1.2046 2.001-.054.854-.9707 1.294-1.3892 1.977-.186.303-.2521.837-.146 1.225.1481.752.4011 1.48.7514 2.162.389.812.8969 1.635.8361 2.569-.0244.306-.1113.605-.2556.876-.025.058-.0715.134-.0964.192.4545.978.8909 1.934 1.3023 2.948.6918 1.697 1.2828 3.406 1.8918 5.136.0469.006.0945.003.1405-.008 1.2604-.031 2.9363.913 2.5714 2.359-.0662.385-.2065.752-.4132 1.083-.0215.018-.0465.075-.068.094.3199.222.6062.488.85.792.5656.848.6609 2.054.164 2.95-.1094.17-.2303.333-.3617.487l-.0861.073c.244.64.4882 1.28.7535 1.902 1.1124-.163 1.4255.603 2.0695 1.238.3112.326.6611.436.9127.298.3558-.188.3935-.625.2556-.876-.3259-.388-1.0541-.511-1.5919-.757-.4439-.178-.8741-.515-1.0742-.972-.1933-.534-.2196-1.114-.0753-1.664.141-.706 1.009-2.428 1.8957-2.292.0798-.326.2509-.623.4932-.856.7822-.731 2.0634-1 3.0133-.438.2671.143.5309.325.6904.559.1756.301.2828.638.3141.985.0212.058.0227.122.0043.181.1263-.006.2528-.001.3784.012.5696.11 1.3315.535 1.7392.67.4869.142 1.0206.208 1.4324.523 1.0085.807 1.0754 2.11.4821 3.197-.0965.192-.211.361-.304.513.6713.318 1.3213.654 1.9927.971 1.2963.712 1.9522 1.667 1.4135 2.818 1.0912.774 1.8579 2.298 1.1501 3.555-.6907 1.058-2.1159 1.374-2.8653 2.188-.3298.351-.6417.723-1.0586.927-.3453.14-.7208.19-1.0909.145-.0431.036-.0896.112-.1327.148-.4091.344-.9856.314-1.4727.172-.7429-.184-1.2542-.967-1.8463-1.278-.1732-.075-.4361-.038-.6049.067-.3343.171-.6539.403-1.0207.491.458.939.9125 1.916 1.3274 2.891 1.4618 3.182 2.1793 6.658 3.6412 9.84.4658 1.079 1.1435 2.016 1.8936 3.039.0455-.295.1307-.587.3314-.829.4014-.485.9079-.801 1.1723-1.317.3788-.686.3139-1.55.8083-2.186.8526-1.085 2.5687-.836 3.4693.06.5025.423.6561.956.6874 1.518.9554-.657 1.947-1.27 3.0956-1.39.9685-.116 2.1948.25 2.5917 1.203.1511.792-.4079 1.482-.7257 2.154-.2359.419-.3529.848-.4521 1.298l.0397.004c.8325.072 1.6865.126 2.5292.079.8393-.007 1.7966-.224 2.5767.223.5343.286.8181.929.5503 1.485-.5891 1.267-2.2837 1.7-3.5841 1.727-1.3974-.002-2.493-.036-3.5947.927-.348.329-.8854 1.001-1.3411 1.421-.5453.532-1.1483 1.039-1.8564 1.377-.0749.021-.1455.056-.2085.102 1.0105 1.245 2.0175 2.531 2.9418 3.849.1233.19.2862.384.388.592.0293.123-.1179.21-.2404.239-.3636.049-.4912-.322-.6507-.555-.4423-.658-.9458-1.3-1.4312-1.921-1.6157-2.097-3.321-4.082-4.9151-6.197-1.3735-1.896-2.9124-3.726-4.0955-5.746-.2765.196-.5859.309-.8443.526-.3842.286-.882.962-.8905 1.521-.1117.829.1119 1.707.4568 2.336.3484.589.7603.904 1.3618.876.119.011.3956-.185.3083-.332-.0905-.108-.1482-.133-.3284-.129-.1008.012-.1879-.136-.0836-.186.1042-.051.2016-.023.3024-.034.4507.099.6327.534.1727.774-.3989.225-.9255.08-1.3084-.113-.8094-.57-1.1596-1.598-1.2177-2.542-.0518-.443.0153-.893.1946-1.302s.4642-.763.8256-1.026c.255-.177.5065-.315.7796-.471-.5299-.106-1.1055.084-1.7681.126-.1405.008-.2775-.024-.4179-.016l.0362.043c.0724.086.3009.445.3415.669.3366 1.187-1.0162 1.589-1.9382 1.629-.9651.076-1.8528-.28-2.6403.051-.3006.102-.5787.261-.8194.468.2854.165.5922.311.8775.476.917.478 1.8273 1.036 2.3464 1.96.6278 1.053.9574 2.319.6347 3.51-.1694.804-.6412 1.641-1.4684 1.969-.6548.183-1.0952-.035-1.3962-.48.1756 1.433-.0909 3.127-1.1166 4.137-.7424.734-1.896 1.373-2.9318.884-.4773-.215-.8782-.57-1.1499-1.018-.3122-.546-.408-1.054-.8744-1.434-.3396-.229-.6817-.198-1.0891-.334-.2493-.099-.4726-.254-.6526-.453-.1801-.199-.3122-.437-.3862-.695-.0587-.245-.0993-.468-.1365-.731-.3059.074-.6333.165-1.0184.232-.7741.172-1.3563-.477-1.9849-.831-.3759-.272-1.2636-.629-1.4612-1.345zm-6.8843-49.199.0431-.037c.1008-.011.1688-.105.2187-.22.1665-.289.2879-.602.3601-.928.1126-.609.052-1.293-.3032-1.803-.3551-.51-.9033-.637-1.4495-.325-.3774.207-1.0719.386-.9613.955.3019.665 1.0275 1.047 1.4156 1.64.1168.137.2178.286.3009.445.1051.169.1672.375.3757.273zm-1.0679-17.885c.2325-.379.8399-.706 1.0733-.865.2619-.257.4444-.521.5297-.813-.8706-.555-2.0529-.737-2.8629-.607-.4464.081-.7004.478-.951.836.6439.635 1.2845 1.309 1.9069 1.962.0739-.186.1765-.359.3041-.513zm-2.4446.328c-.6789.46-.4727 1.536.1781 2.092.5319.545 1.542.872 2.1429 1.543.3836.413.5802.909.8992 1.376.0691.126.232.32.3191.467.0808-.061.1478-.138.1968-.227s.0788-.187.0875-.288c.0088-.1-.0038-.202-.0368-.298s-.0858-.183-.1549-.257c-.0897-.115-.2048-.207-.3361-.269.0709.126.1133.266.1242.41.0212.058.0227.121.0043.18-.068.094-.3058.074-.2955-.045-.0303-.343-.2338-.759-.5666-1.068-.3948-.513-1.7399-.889-1.557-1.852.074-.393.2996-.693.5796-.928l.1723-.145c-.3475-.37-.6949-.739-1.0242-1.087-.2296.12-.5174.215-.7328.395zm-10.6239-12.681c.2588.701.1765 1.652.7651 2.003.1733.075.2051-.062.1533-.386-.0269-.382-.2485-.821-.5382-1.165-.1052-.169-.2535-.302-.3802-.452zm14.8105 4.457c-.1767-.036-.4791-.002-.4998.236-.0308.357-.0221.717.1306 1.03.069.125.113.309.275.283l.0215-.018c.0147.061.1121.089.1732.075.1405-.008.1724-.145.2007-.242.1067-.311.2204-.7.0677-1.013-.0158-.09-.0601-.173-.1266-.237-.0664-.063-.1513-.103-.2423-.114zm5.9601 37.957c.157.493.6787 1.157 1.1543 1.198.5472-.093.2297-1.039-.129-1.509-.2285-.359-.756-.724-1.1352-.957.0018.44.0038.879.1099 1.268zm8.2519 2.251c-.442.262-.9891.354-1.4865.331.0322.782.0248 1.56-.336 2.267-.4719.838-1.485 1.469-2.2204.507-.1087-.129-.1958-.276-.2863-.384-.4067.085-.8246.069-1.134.182-.7116.377-.5561 1.349.198 1.634.5412.207 1.129.338 1.5489.793.2534.302.4423.658.7173.941l.0905.108.0035-.04c-.0235-.421-.3538-.989-.3092-1.504.1357-1.107 1.1954-1.814 2.0939-2.275.5001-.237.8366-.667 1.3724-.86.1224-.029.2663-.077.3886-.106-.2293-.579-.444-1.097-.6407-1.594zm17.1244 33.093c.1486.169.2865.348.413.535l.0793.007c.2162.038.4145.056.5368.026.2628-.037.6832-.28.7039-.518.0479-.555-.6484-.815-1.1671-.82-.119-.01-.511.136-.6371.205-.0827.032-.1473.087-.2516.138.0968.15.2047.293.3228.427z" fill="url(#d)"/><path clip-rule="evenodd" d="m98.7128 60.1451c.1096-.1697.339-.3717.5982-.5845.768-.6249 1.865-1.2885 1.969-1.3594 1.665-1.0981 3.415-2.1055 5.095-3.1912.728-.4732 1.446-.9605 2.139-1.4772.224-.1706 1.72-1.1897 2.044-1.9173.081-.1707.104-.3631.065-.548-.027-.099-.075-.1911-.14-.2703-.066-.0792-.147-.1436-.239-.1891-.349-.19-.833-.2454-1.361-.205-.992.0753-2.169.4745-2.772.6365-2.002.5467-3.974 1.1995-5.908 1.9556-1.944.7503-3.8483 1.5773-5.7228 2.4257-5.3344 2.4172-10.589 5.0247-15.6742 7.8574-5.1549 2.8741-10.1353 5.981-14.8365 9.3622-2.1487 1.5421-4.5168 3.1891-6.5558 5.0441-1.4358 1.3083-2.7071 2.7214-3.6294 4.2704-.0333.0563-.0552.1186-.0645.1834-.0092.0647-.0056.1307.0106.1941.0163.0634.0449.1229.0841.1753.0393.0523.0885.0964.1448.1297s.1186.0553.1834.0645c.0647.0093.1307.0056.1941-.0106s.1229-.0448.1753-.0841c.0523-.0392.0964-.0884.1297-.1447.8674-1.4742 2.0687-2.8174 3.425-4.0663 1.9992-1.8417 4.3274-3.4779 6.4362-5.0118 4.6614-3.3863 9.5969-6.5023 14.707-9.3854 5.0502-2.8474 10.275-5.4669 15.5793-7.9 1.8546-.8494 3.7441-1.6782 5.6737-2.4305 1.908-.7537 3.855-1.4053 5.833-1.9523.503-.1361 1.416-.4499 2.273-.5793.518-.0787 1.012-.1027 1.341.0769.095.0508.02.1324-.04.226-.138.2038-.302.3887-.488.5502-.509.4693-1.142.8944-1.277.9971-.678.5088-1.386.9894-2.099 1.4557-1.68 1.0903-3.425 2.1008-5.09 3.2028-.139.092-1.8443 1.1342-2.5422 1.8692-.1422.1401-.2557.3067-.334.4904-.1047.2905-.03.5174.2343.6665.5086.2799 1.4059.2829 2.4379.1092 1.874-.3167 4.223-1.1652 5.095-1.3905 4.088-1.05 8.176-2.1061 12.314-3.0003 2.737-.5928 5.499-1.1136 8.291-1.5172 9.826-1.4136 20.395-1.7626 30.829-.9094 10.475.857 20.815 2.9259 30.117 6.3308.062.0223.127.0322.193.0292.065-.003.129-.0189.188-.0467.06-.0277.113-.0669.157-.1153.044-.0483.078-.1049.1-.1664.023-.0616.033-.1269.03-.1923s-.019-.1296-.047-.1888c-.028-.0593-.067-.1125-.115-.1566-.049-.0441-.105-.0783-.167-.1005-9.392-3.382-19.827-5.4098-30.391-6.2243-10.494-.8083-21.123-.4203-30.999 1.0412-2.802.4139-5.579.9473-8.336 1.5494-4.137.9056-8.235 1.968-12.328 3.0266-.863.2235-3.186 1.0668-5.041 1.3796-.7775.1304-1.4605.1841-1.8892.0156zm109.5092 123.3189c2.971-.472 6.012-1.457 8.829-2.871 2.817-1.416 5.409-3.261 7.453-5.495 1.934-2.071 3.335-4.677 5.14-6.894.753-.927 1.58-1.782 2.553-2.498.972-.719 2.054-1.197 3.19-1.523 1.147-.33 2.353-.501 3.555-.602.131-.013.252-.077.335-.179.084-.102.124-.233.111-.364-.012-.131-.076-.252-.178-.336-.101-.085-.232-.125-.363-.113-1.261.136-2.523.35-3.724.726-1.221.382-2.383.93-3.425 1.734-1.007.775-1.86 1.695-2.642 2.685-1.76 2.233-3.131 4.834-5.036 6.915-2.013 2.146-4.551 3.922-7.313 5.247-2.726 1.302-5.637 2.173-8.63 2.581-.066.008-.13.029-.187.063-.058.033-.108.077-.149.13-.04.053-.069.113-.086.177-.017.065-.02.132-.011.197.01.066.033.129.067.186.035.057.08.107.134.146s.115.067.179.082c.065.015.132.017.198.006z" fill="#e3dbf9" fill-rule="evenodd"/><path clip-rule="evenodd" d="m126.44 139.731c5.003 12.494 22.175 32.345 37.603 32.342 22.286.001 46.143-58.36 46.143-58.36 9.007-6.134 3.493-14.6504-.577-21.7911l-6.201 15.3061s-26.826 37.519-38.388 35.829c-11.564-1.687-24.561-45.4018-30.991-45.9567-6.429-.5548-12.591 30.1337-7.589 42.6307z" fill="#fb9c9a" fill-rule="evenodd"/><g mask="url(#m)"><path clip-rule="evenodd" d="m191.593 108.724c-11.79-15.2129-18.84-36.9009-38.657-43.6695-13.904-4.7496-26.403 2.4364-34.279 13.9292-12.265 17.897-16.228 43.5773-9.114 64.1433 10.215 29.53 44.804 39.505 72.009 28.028 8.431-3.557 16.811-8.885 21.483-17.002 3.489-6.063 6.785-18.054.648-23.852-2.024-1.914-5.434-1.108-7.169-3.314-1.321-1.675-.673-3.906-1.441-5.777-1.251-3.068-5.993-3.752-8.889-3.384z" fill="url(#e)" fill-rule="evenodd"/></g><g clip-rule="evenodd" fill-rule="evenodd"><path d="m124.444 155.648c7.136-8.679 18.015-45.983 12.452-56.4523-5.563-10.4689-35.062-21.6306-45.8321-6.362-9.4655 13.4173-2.5495 47.9613 3.014 58.4303 4.7968 9.031 23.8701 12.283 30.3661 4.384z" fill="url(#f)"/><path d="m122.171 109.004c-.375-.993-1.13-1.797-2.097-2.234-.968-.438-2.07-.473-3.064-.098l-56.2488 21.229c-.4918.186-.9422.467-1.3255.827-.3832.36-.6918.792-.9082 1.271-.2163.479-.3362.996-.3527 1.521-.0165.526.0707 1.05.2565 1.541l33.1972 87.957c.3746.994 1.1284 1.798 2.0957 2.235.9673.438 2.0688.473 3.0623.099l56.2485-21.229c.994-.376 1.798-1.13 2.235-2.098.438-.968.473-2.07.098-3.064z" fill="#fff"/><path d="m79.7193 136.598c-.0983-.26-.2958-.47-.5492-.585-.2534-.114-.5419-.124-.8022-.026l-9.6778 3.653c-.2601.098-.4706.296-.5851.549-.1145.254-.1237.542-.0256.802l.0003.001c.0983.26.2958.471.5492.585.2534.115.5419.124.8021.026l9.6779-3.653c.2601-.098.4705-.296.585-.549s.1238-.542.0257-.802zm-1.5208-4.029c-.0982-.26-.2958-.471-.5491-.585-.2534-.115-.5419-.124-.8022-.026l-9.6779 3.653c-.2601.098-.4705.296-.585.549s-.1237.542-.0256.802v.001c.0983.26.2958.47.5492.585.2534.114.5418.124.802.026l9.6782-3.653c.2601-.098.4706-.296.5851-.549s.1237-.542.0256-.802z" fill="#e3e3fe"/><path d="m122.004 108.556c-.164-.434-.412-.831-.729-1.169s-.697-.61-1.12-.801c-.422-.19-.878-.296-1.341-.311-.463-.014-.925.062-1.358.226l-57.1368 21.565c-.4336.163-.8307.41-1.1687.728-.338.317-.6102.697-.8011 1.119-.1909.423-.2967.878-.3115 1.342-.0147.463.0619.924.2256 1.358v.001c.1636.433.411.83.7281 1.168s.6977.61 1.12.801.8781.297 1.3412.311c.4632.015.9248-.062 1.3583-.225l57.1369-21.565c.433-.164.831-.411 1.168-.728.338-.317.611-.698.802-1.12s.296-.878.311-1.341-.062-.925-.225-1.358z" fill="#fff"/><path d="m106.944 159.444c-.037.004-.074-.004-.105-.024-.031-.019-.055-.048-.068-.082l-6.9429-18.395c-.3047-.806-.9169-1.458-1.7022-1.813s-1.6793-.383-2.4857-.079l-.0026.001c-.3992.15-.7648.378-1.0759.67s-.5617.642-.7372 1.031c-.1756.389-.2728.809-.2861 1.235s.0576.851.2086 1.25l6.999 18.544v.001l-.003.001-.304.115c-.085.032-.178.032-.262 0s-.153-.095-.1941-.175c-.8646-1.681-5.2548-10.225-7.4871-14.566-.1713-.334-.4066-.631-.6926-.874-.286-.242-.617-.426-.9741-.541s-.7333-.158-1.1072-.127c-.3738.03-.738.134-1.0716.306-.0025.001-.0025.001-.0025.001-.3338.171-.6306.407-.8734.693s-.4269.617-.5417.974c-.1148.358-.1581.734-.1274 1.108.0306.374.1347.739.3062 1.072 1.4763 2.872 3.9204 7.628 5.8201 11.324 1.8247 3.552 3.446 7.206 4.8561 10.943 0 0-2.6464-2.696-4.7183-4.808-.6453-.656-1.525-1.03-2.4457-1.038s-1.807.349-2.464.994v.001c-.3248.319-.5831.699-.7602 1.118s-.2693.869-.2715 1.324c-.0022.456.0858.907.2589 1.328.173.42.4277.803.7494 1.125 2.3209 2.326 5.9102 5.917 9.0519 9.064 1.9345 1.937 4.3868 3.274 7.0628 3.852 2.676.577 5.461.37 8.022-.597 7.422-2.801 11.167-11.087 8.367-18.507l-1.204-3.189s-1.204-12.433-1.76-18.175c-.073-.754-.443-1.448-1.028-1.93s-1.338-.711-2.092-.638c-.755.073-1.449.442-1.931 1.027-.482.586-.712 1.338-.64 2.093.417 4.287 1.155 11.911 1.155 11.911l-.056.022c-.059.006-.118-.008-.167-.041-.048-.033-.084-.083-.099-.14-.43-1.647-2.835-10.857-4.134-15.831-.221-.845-.769-1.569-1.523-2.01-.753-.442-1.652-.567-2.498-.346h-.002c-.419.11-.812.3-1.157.562-.345.261-.635.588-.854.961-.218.373-.361.786-.42 1.215s-.033.865.076 1.283c1.472 5.635 4.376 16.763 4.376 16.763z" fill="url(#g)"/><path d="m143.428 182.209 2.498 6.618c.372.988.337 2.084-.098 3.047-.434.962-1.234 1.712-2.222 2.085l-6.986 2.637-.651-1.725 6.987-2.637c.263-.099.504-.249.709-.441s.37-.423.486-.679.181-.532.19-.813-.037-.561-.136-.824l-2.498-6.618zm-51.0692 19.275 2.4976 6.618c.0989.263.2487.504.4407.709.1921.205.4227.37.6786.486.2559.115.5321.179.8128.188s.5605-.037.8232-.137l6.9863-2.636.651 1.724-6.9866 2.637c-.9881.373-2.0838.338-3.0461-.097s-1.7125-1.235-2.0855-2.223l-2.4978-6.618zm-12.0109-59.024.6511 1.725-6.9863 2.636c-.2628.099-.5035.249-.7084.441-.2048.193-.3698.423-.4854.679s-.1796.532-.1884.813c-.0087.281.0379.56.1374.823l2.4978 6.618-1.7253.651-2.4979-6.618c-.3728-.988-.3379-2.083.0971-3.046.4349-.962 1.2342-1.712 2.2221-2.086zm31.3711-11.84 6.986-2.637c.988-.373 2.084-.338 3.046.097.963.435 1.713 1.235 2.086 2.223l2.498 6.618-1.722.649-2.497-6.618c-.1-.263-.25-.503-.443-.708-.192-.205-.423-.37-.679-.486-.256-.115-.533-.179-.814-.188-.281-.008-.561.038-.824.138l-6.986 2.636z" fill="#e3e3fe"/></g><path d="m97.1339 194.567c.3354-.126.6433-.106.9238.063.3333.198.6243.627.8728 1.285.2478.657.3088 1.173.1909 1.545-.0964.307-.3144.525-.6498.651-.1555.064-.3239.09-.4914.076-.1676-.014-.3293-.068-.4718-.157-.3083-.181-.5838-.605-.8352-1.272-.2466-.653-.311-1.166-.1932-1.539.1005-.308.3185-.525.6539-.652zm.2082.552c-.0797.029-.1465.086-.1891.159-.0457.104-.0601.219-.0415.331.0205.189.1056.487.2593.895.1537.407.2795.679.3774.816.1019.136.1887.219.2724.245.079.027.165.025.2427-.005.0783-.029.1439-.085.185-.158.0492-.103.0636-.219.0411-.331-.0159-.189-.1046-.485-.2583-.892-.1538-.407-.2795-.679-.3773-.816-.0979-.138-.1889-.22-.2688-.248-.0789-.027-.1649-.026-.2429.004zm2.4869-1.569c.335-.127.643-.106.924.062.333.199.624.628.873 1.286.247.656.312 1.171.195 1.544-.101.308-.319.526-.654.652-.156.064-.324.089-.492.075-.167-.014-.329-.067-.471-.156-.3046-.182-.5843-.605-.8358-1.271-.2466-.654-.3109-1.167-.189-1.541.0964-.307.3144-.525.6498-.651zm.208.551c-.0786.029-.1443.085-.1848.158-.0491.104-.065.22-.0455.332.0205.189.1096.487.2633.894.154.407.28.679.377.816.098.137.189.219.269.247.079.026.165.024.243-.006.078-.029.143-.085.185-.157.049-.104.064-.22.045-.333-.02-.187-.105-.485-.258-.892-.154-.407-.28-.679-.378-.816-.102-.136-.189-.219-.273-.246-.078-.029-.165-.027-.243.003zm4.38 1.699-.662.25-.947-2.507c-.16.322-.388.605-.67.828l-.228-.603c.178-.152.328-.334.444-.537.138-.212.211-.46.21-.714l.538-.203zm2.433-.918-.667.251-.946-2.507c-.16.322-.389.605-.671.829l-.227-.604c.177-.152.327-.333.443-.537.138-.212.211-.46.211-.713l.541-.205zm2.428-.917-.667.252-.946-2.507c-.16.322-.389.605-.67.828l-.228-.603c.178-.153.329-.335.448-.539.135-.213.206-.46.206-.712l.541-.204zm.802-4.284c.335-.127.643-.106.924.063.333.198.624.627.873 1.285.247.656.312 1.171.195 1.544-.101.308-.319.526-.654.652-.156.064-.324.09-.492.075-.167-.014-.329-.067-.471-.156-.305-.182-.584-.605-.836-1.271-.246-.654-.311-1.167-.189-1.541.097-.307.315-.524.65-.651zm.208.551c-.078.03-.144.086-.185.158-.049.103-.064.219-.041.331.016.19.105.488.259.895s.279.679.377.816c.098.138.189.219.269.247.079.027.165.025.242-.005.08-.03.147-.086.19-.159.045-.104.059-.219.041-.331-.02-.188-.105-.485-.259-.892-.153-.408-.279-.68-.377-.817s-.189-.219-.273-.246c-.079-.028-.165-.027-.243.003zm2.491-1.57c.335-.126.643-.105.924.063.333.199.62.629.869 1.287.248.656.313 1.171.195 1.544-.097.307-.315.524-.65.65-.156.064-.324.09-.492.076-.167-.014-.329-.068-.471-.157-.309-.181-.584-.605-.836-1.271-.246-.654-.311-1.167-.193-1.54.101-.308.315-.524.654-.652zm.208.552c-.079.029-.146.086-.189.159-.045.104-.06.219-.041.331.02.189.105.488.259.895s.28.679.377.816c.098.137.189.219.273.245.079.027.165.025.243-.005.078-.029.143-.085.184-.158.05-.103.064-.219.042-.331-.016-.188-.105-.485-.259-.892-.153-.407-.279-.679-.377-.816s-.189-.219-.269-.248c-.079-.027-.165-.026-.243.004zm2.487-1.569c.336-.127.643-.106.924.063.333.198.624.627.873 1.285.248.657.313 1.171.195 1.544-.101.308-.319.526-.654.652-.156.064-.324.09-.492.076-.167-.014-.329-.068-.471-.157-.304-.182-.584-.605-.836-1.271-.246-.654-.311-1.167-.189-1.541.097-.307.315-.524.65-.651zm.208.552c-.078.028-.144.084-.185.158-.049.103-.065.219-.045.332.02.189.105.487.259.895.154.407.28.679.382.815.098.137.188.218.268.246.079.027.165.025.243-.005s.143-.085.185-.157c.049-.104.065-.22.045-.333-.02-.187-.104-.485-.258-.892s-.28-.679-.382-.815c-.097-.137-.184-.221-.268-.247-.079-.029-.166-.028-.244.003zm4.38 1.698-.662.25-.947-2.507c-.159.322-.388.605-.67.829l-.228-.604c.178-.152.328-.334.444-.537.136-.213.209-.461.211-.714l.537-.202zm2.429-.917-.663.25-.946-2.507c-.16.322-.389.605-.67.829l-.228-.604c.177-.152.327-.333.443-.536.138-.213.211-.461.211-.714l.537-.203zm2.432-.918-.667.252-.946-2.507c-.16.322-.389.605-.67.829l-.228-.604c.178-.152.328-.334.444-.537.137-.212.211-.46.21-.714l.541-.204zm2.429-.916-.667.251-.946-2.507c-.16.322-.389.605-.671.829l-.228-.604c.18-.152.331-.334.448-.538.135-.213.207-.46.207-.712l.541-.205zm.802-4.284c.339-.129.643-.106.923.062.334.199.625.627.873 1.286.248.656.313 1.171.195 1.543-.1.309-.314.525-.654.653-.155.063-.324.089-.491.075s-.329-.068-.472-.156c-.304-.183-.584-.605-.835-1.272-.247-.653-.311-1.166-.189-1.54.096-.307.314-.525.65-.651zm.208.551c-.079.029-.144.085-.185.158-.05.103-.064.219-.042.331.017.19.106.487.26.895.153.407.279.679.377.816s.189.219.268.246.165.025.243-.005c.08-.029.147-.086.189-.159.046-.104.06-.219.041-.331-.02-.187-.104-.485-.258-.892-.154-.408-.279-.679-.377-.817-.098-.137-.189-.219-.273-.246-.079-.028-.165-.026-.243.004zm2.491-1.57c.335-.127.643-.106.923.063.334.198.625.627.873 1.285.248.656.309 1.173.191 1.545-.096.307-.314.525-.65.651-.155.064-.324.09-.491.076-.168-.014-.329-.068-.472-.157-.308-.181-.584-.605-.835-1.272-.247-.653-.311-1.166-.193-1.539.1-.308.318-.526.654-.652zm.208.551c-.08.03-.147.086-.189.16-.046.104-.06.219-.042.33.021.189.106.488.26.895.153.408.279.68.377.817s.189.219.272.245c.079.027.165.025.243-.006.078-.029.144-.084.185-.157.049-.103.064-.219.041-.331-.016-.189-.104-.485-.258-.892-.154-.408-.28-.68-.377-.817-.098-.137-.189-.219-.269-.247-.079-.028-.165-.026-.243.003zm2.487-1.568c.335-.127.643-.106.924.062.333.199.624.627.872 1.286.248.656.313 1.171.195 1.544-.1.308-.318.525-.653.652-.156.064-.324.09-.492.076-.167-.014-.329-.068-.472-.157-.304-.182-.584-.605-.835-1.272-.247-.653-.311-1.166-.189-1.54.096-.307.314-.525.65-.651zm.208.551c-.079.029-.145.085-.185.158-.049.104-.065.22-.046.332.021.189.106.488.26.895.154.408.283.678.381.815s.189.219.269.247c.079.027.165.025.242-.006.079-.028.145-.084.185-.157.049-.104.065-.22.046-.332-.02-.188-.105-.485-.259-.893-.153-.407-.279-.679-.381-.815-.098-.137-.189-.219-.269-.247-.079-.028-.165-.027-.243.003z" fill="#20238c"/><path d="m101.151 203.46-.667.251-.9462-2.507c-.1598.323-.3887.606-.6703.829l-.2279-.603c.1777-.153.3278-.334.4437-.537.138-.213.2112-.461.2107-.714l.5412-.204zm2.428-.917-.666.252-.947-2.507c-.159.321-.386.603-.666.827l-.228-.603c.177-.153.327-.334.444-.537.137-.212.208-.46.206-.712l.542-.205zm2.429-.916-.667.251-.946-2.507c-.16.321-.387.604-.667.828l-.228-.604c.177-.153.327-.334.444-.537.136-.213.21-.46.211-.713l.537-.203zm.806-4.286c.335-.126.643-.106.923.063.33.2.621.628.869 1.287.248.656.313 1.171.195 1.544-.096.307-.314.524-.65.65-.156.064-.325.09-.493.076s-.33-.067-.474-.156c-.304-.182-.58-.606-.831-1.272-.247-.654-.311-1.167-.193-1.54.096-.306.314-.524.654-.652zm.208.552c-.08.029-.147.086-.189.159-.05.103-.064.219-.042.331.021.189.106.487.26.895.153.407.279.679.377.816s.189.219.268.247c.081.026.168.023.247-.007.078-.03.143-.085.185-.158.045-.104.06-.219.041-.331-.02-.187-.105-.484-.258-.892-.154-.407-.28-.679-.378-.816s-.189-.219-.268-.248c-.079-.026-.165-.025-.243.004zm2.487-1.569c.335-.127.643-.106.923.063.334.198.625.627.873 1.285.248.656.313 1.171.191 1.545-.096.307-.314.525-.65.651-.155.064-.324.09-.491.076-.168-.014-.329-.068-.472-.157-.304-.182-.584-.605-.835-1.272-.247-.653-.311-1.166-.193-1.539.1-.308.318-.525.654-.652zm.208.552c-.079.028-.145.084-.185.158-.049.103-.065.219-.046.332.021.188.106.487.26.895.153.407.279.679.377.816.102.135.189.219.272.245.079.027.165.025.243-.006.079-.028.145-.084.185-.157.049-.103.064-.219.041-.331-.016-.189-.1-.487-.254-.894s-.284-.677-.381-.815c-.098-.137-.189-.219-.269-.247-.079-.028-.165-.026-.243.003zm2.486-1.569c.336-.127.644-.106.924.062.334.199.625.628.873 1.286.248.656.313 1.171.195 1.544-.1.308-.318.526-.654.652-.155.064-.324.089-.491.075-.168-.014-.329-.068-.472-.156-.304-.182-.584-.605-.835-1.272-.247-.653-.311-1.166-.189-1.54.096-.307.314-.525.649-.651zm.209.551c-.079.029-.144.085-.185.158-.05.103-.064.219-.042.331.017.19.106.488.259.895.154.407.28.679.378.816s.189.219.268.247c.079.026.165.025.243-.005.079-.03.146-.086.189-.16.046-.103.06-.218.041-.33-.02-.188-.104-.485-.258-.893-.154-.407-.28-.679-.377-.816-.098-.137-.189-.219-.273-.246-.079-.028-.165-.027-.243.003zm4.384 1.697-.667.252-.946-2.507c-.16.322-.389.605-.67.828l-.228-.603c.178-.152.328-.334.444-.537.137-.213.211-.461.21-.714l.541-.204zm2.429-.916-.667.251-.946-2.507c-.16.322-.389.605-.671.829l-.227-.604c.177-.152.327-.333.443-.537.138-.212.211-.46.211-.713l.541-.205zm2.428-.917-.667.252-.946-2.508c-.159.322-.387.604-.666.828l-.228-.604c.177-.152.327-.334.443-.536.137-.213.209-.46.207-.713l.541-.204zm2.428-.917-.666.252-.947-2.507c-.159.321-.386.603-.666.828l-.228-.604c.177-.153.327-.334.444-.537.136-.213.209-.461.211-.714l.537-.202zm.806-4.285c.336-.127.643-.106.924.062.333.199.62.629.869 1.287.248.657.313 1.172.195 1.544-.097.307-.315.525-.65.651-.156.064-.325.09-.493.076s-.331-.068-.474-.156c-.304-.182-.58-.607-.832-1.273-.246-.653-.311-1.166-.193-1.539.101-.308.315-.524.654-.652zm.208.551c-.079.03-.146.086-.189.16-.045.104-.06.219-.041.33.02.189.105.488.259.895.154.408.28.68.378.817.097.137.188.218.272.245.079.027.165.025.243-.006.077-.029.143-.085.185-.157.049-.103.063-.219.041-.331-.016-.189-.105-.485-.259-.892-.153-.408-.279-.68-.377-.817s-.189-.219-.269-.247c-.079-.027-.165-.026-.243.003zm2.487-1.568c.336-.127.644-.106.924.062.333.199.624.627.873 1.286.248.656.313 1.171.191 1.545-.097.307-.315.524-.65.651-.155.064-.324.09-.491.075-.168-.014-.33-.068-.472-.157-.304-.182-.584-.605-.836-1.271-.246-.653-.31-1.166-.193-1.539.101-.308.319-.526.654-.652zm.208.551c-.078.029-.144.085-.185.158-.049.103-.065.219-.045.332.02.189.106.488.259.895.154.408.28.679.382.815.098.137.185.221.268.247.079.027.165.025.243-.005.078-.029.144-.085.185-.158.049-.103.064-.219.045-.332-.02-.187-.105-.485-.258-.892-.154-.408-.28-.68-.382-.816-.098-.137-.189-.219-.269-.247-.078-.028-.165-.027-.243.003zm4.38 1.698-.662.251-.947-2.508c-.16.322-.389.605-.67.829l-.228-.603c.178-.152.328-.334.444-.537.136-.213.209-.461.211-.714l.537-.203zm2.429-.916-.663.25-.946-2.507c-.16.322-.389.605-.67.829l-.228-.604c.177-.152.328-.334.443-.537.138-.212.212-.46.211-.713l.538-.203zm.806-4.286c.335-.126.643-.105.924.063.333.199.624.627.873 1.285.247.657.312 1.171.19 1.546-.096.307-.314.524-.649.65-.156.064-.324.09-.492.076-.167-.014-.329-.068-.472-.157-.304-.182-.583-.605-.835-1.271-.247-.654-.311-1.167-.193-1.539.1-.309.318-.526.654-.653zm.208.552c-.079.028-.144.084-.185.158-.049.103-.065.219-.046.332.021.189.106.488.26.895s.279.679.377.816c.102.136.189.219.273.245.079.027.165.025.242-.005.079-.029.145-.085.185-.158.049-.103.065-.219.046-.332-.02-.188-.109-.484-.263-.891-.153-.407-.279-.679-.377-.816s-.189-.219-.269-.248c-.079-.027-.165-.026-.243.004z" fill="#20238c"/><path clip-rule="evenodd" d="m113.618 179.597c-.791.493-1.68.808-2.605.923-.069.008-.136.029-.196.062-.061.034-.114.08-.157.134s-.075.117-.093.184c-.019.066-.024.136-.015.205.008.069.03.135.065.195.034.061.081.113.136.155.055.043.117.073.185.091.067.018.136.022.205.012 1.075-.133 2.108-.499 3.028-1.073.117-.074.199-.191.23-.325.031-.135.007-.276-.066-.394-.073-.117-.189-.2-.324-.232-.134-.032-.276-.009-.393.063zm3.104-4.189c-.283.904-.718 1.753-1.286 2.511-.041.055-.071.118-.089.185-.017.066-.021.136-.011.204.009.068.032.134.067.193.035.06.081.112.136.153s.118.072.185.089c.066.017.136.021.204.012.068-.01.134-.033.193-.068.06-.035.111-.081.153-.136.637-.854 1.125-1.808 1.446-2.824.041-.132.028-.274-.036-.396-.064-.123-.174-.215-.305-.257s-.274-.03-.397.032c-.123.063-.216.171-.26.302zm-8.185 4.962c-.921-.225-1.797-.604-2.591-1.12-.117-.075-.259-.101-.395-.071s-.255.113-.33.23-.1.259-.07.395.112.254.23.329c.893.576 1.876 1.001 2.909 1.256.135.032.277.01.396-.063.118-.072.203-.188.236-.323.032-.135.01-.277-.062-.396s-.188-.204-.323-.237zm8.442-10.33c.184.944.251 1.906.199 2.866-.008.138.04.274.132.378.093.103.223.166.361.174.139.008.275-.04.379-.132s.167-.222.175-.361c.056-1.046-.018-2.096-.221-3.124-.012-.068-.038-.133-.076-.191-.037-.058-.086-.108-.143-.147s-.122-.066-.189-.08c-.068-.014-.138-.014-.205-.001-.068.013-.133.04-.19.078-.058.039-.107.088-.145.145-.039.058-.065.122-.078.19s-.013.138.001.205zm-12.989 7.579c-.659-.701-1.227-1.481-1.693-2.322-.033-.06-.078-.113-.132-.156-.053-.043-.115-.075-.18-.094-.066-.019-.135-.025-.204-.017-.068.008-.134.029-.194.062-.121.068-.211.181-.249.314-.038.134-.023.277.044.399.507.917 1.126 1.768 1.844 2.532.095.1.226.16.365.164.138.005.273-.046.374-.141.1-.096.159-.227.164-.365.004-.139-.045-.274-.139-.376zm10.808-12.534c.573.774 1.052 1.612 1.428 2.499.027.063.066.12.115.169.049.048.107.086.171.112.063.025.131.038.2.038.069-.001.137-.015.2-.042s.12-.066.168-.115c.049-.048.087-.106.112-.17.026-.064.039-.132.039-.2-.001-.069-.015-.137-.042-.2-.409-.963-.928-1.875-1.548-2.717-.084-.109-.207-.18-.344-.199-.136-.019-.274.016-.384.098-.111.082-.184.204-.206.34-.021.136.012.275.092.387zm-13.508 7.847c-.285-.919-.458-1.869-.518-2.83-.004-.069-.022-.136-.052-.197-.03-.062-.071-.118-.123-.163-.051-.046-.111-.081-.176-.103-.065-.023-.134-.032-.202-.028-.069.004-.136.021-.198.051-.0614.03-.1167.072-.1624.123-.0456.052-.0807.112-.1032.177-.0225.064-.032.133-.0279.202.0635 1.044.2523 2.078.5625 3.077.042.133.135.244.258.308.123.065.267.078.4.036.066-.02.126-.053.179-.097s.096-.098.128-.158c.031-.061.051-.127.057-.196.006-.068-.002-.137-.022-.202zm9.339-11.199c.878.369 1.694.871 2.42 1.488.053.044.113.078.179.099.065.02.134.028.203.022.068-.006.135-.026.196-.057.061-.032.115-.075.159-.128s.078-.113.098-.179c.021-.065.029-.134.023-.203-.006-.068-.026-.135-.057-.196-.032-.061-.076-.115-.128-.159-.808-.684-1.714-1.241-2.689-1.654-.128-.053-.272-.053-.401-.001-.128.053-.231.155-.284.283-.054.128-.054.272-.001.401.053.128.154.23.282.284zm-9.708 5.818c.16-.937.465-1.843.904-2.686.033-.061.053-.127.06-.196s0-.138-.02-.204-.053-.128-.097-.181-.098-.097-.159-.13c-.062-.032-.128-.052-.197-.058s-.138.001-.204.021c-.066.021-.127.055-.18.099s-.097.099-.129.16c-.488.94-.829 1.949-1.0117 2.992-.024.136.0073.277.087.391s.2017.192.3387.216c.136.024.277-.007.391-.086.114-.08.192-.201.217-.338zm4.468-5.973.076-.03c.874-.327 1.807-.463 2.737-.4.138.008.273-.039.375-.131.103-.091.166-.22.175-.357.009-.138-.036-.273-.126-.377-.091-.104-.218-.169-.355-.179-1.046-.072-2.094.075-3.08.43l-.096.035c-.917.347-1.758.87-2.475 1.54-.102.094-.161.225-.166.364s.045.274.14.376c.095.101.226.161.365.166s.274-.046.375-.14c.597-.558 1.295-.998 2.055-1.298zm5.957 14.25c-.137.07-.278.132-.422.186-1.551.586-3.257.174-4.575-.907-.053-.043-.114-.076-.18-.096-.065-.02-.134-.027-.202-.02-.069.007-.135.027-.195.059-.061.033-.114.077-.158.13-.043.053-.076.114-.096.18-.02.065-.027.134-.02.202.007.069.027.135.059.195.033.061.077.114.13.158 1.61 1.325 3.706 1.797 5.607 1.079.18-.068.355-.145.526-.233.062-.031.118-.073.163-.126.045-.052.08-.112.102-.178.021-.066.03-.135.025-.204s-.024-.136-.056-.198c-.031-.062-.074-.117-.127-.161-.053-.045-.114-.079-.179-.1-.066-.021-.136-.029-.205-.023-.069.005-.136.025-.197.057zm1.987-6.876c.031.074.06.149.088.224.672 1.78.491 3.648-.355 5.032-.036.058-.059.124-.07.191-.011.068-.008.138.009.205.016.067.045.13.086.185.04.056.091.103.15.138.059.036.124.06.192.071.068.01.137.007.204-.009s.13-.045.186-.086c.055-.04.102-.092.138-.15.998-1.636 1.234-3.843.44-5.947-.033-.087-.065-.174-.104-.259-.026-.064-.065-.121-.114-.17-.048-.049-.106-.088-.17-.114s-.132-.04-.201-.039c-.069 0-.137.014-.201.04-.064.027-.121.066-.17.115-.048.049-.086.107-.112.171s-.039.133-.038.202.015.137.042.2zm-8.511 4.239c-.111-.214-.209-.434-.293-.659-.607-1.608-.515-3.289.13-4.619.061-.125.069-.269.023-.4-.045-.132-.141-.239-.266-.3s-.269-.069-.4-.024c-.132.046-.239.142-.3.267-.762 1.569-.883 3.55-.168 5.446.099.262.212.518.341.766.064.123.173.215.305.256.132.042.274.03.397-.033s.216-.171.259-.303c.044-.131.033-.274-.028-.397zm2.151-7.476.056-.022c1.693-.639 3.574-.089 4.926 1.226.1.096.234.148.372.145.138-.002.27-.059.366-.158.097-.099.15-.232.149-.371-.002-.138-.058-.27-.156-.368-1.628-1.579-3.887-2.214-5.932-1.489l-.095.035c-.362.137-.707.313-1.03.526-.058.038-.107.087-.145.144-.039.057-.065.122-.079.189-.013.068-.014.137 0 .205.013.067.039.131.077.189.039.057.088.106.145.145.057.038.121.065.188.078.068.014.137.014.205.001.067-.013.132-.04.189-.078.24-.159.496-.292.763-.397zm3.022 5.1c-.284.157-.578.292-.882.406-.376.144-.765.252-1.161.323-.068.012-.133.037-.191.073-.058.037-.109.085-.148.141-.04.056-.068.119-.084.186-.015.067-.017.137-.005.205.011.067.036.132.073.19.036.059.084.109.14.149s.119.068.187.083c.067.016.136.017.204.006.462-.083.916-.209 1.355-.377.351-.131.692-.288 1.021-.469.121-.068.211-.181.249-.314.038-.134.022-.277-.046-.398-.067-.122-.18-.211-.313-.249-.134-.039-.277-.022-.399.045zm-1.28-.281.121-.047c.751-.283 1.461-.417 1.937-.372.069.007.138 0 .204-.02.067-.02.128-.053.182-.097.053-.044.097-.098.13-.159.032-.061.052-.128.059-.197.006-.068-.001-.138-.022-.204-.02-.066-.054-.127-.098-.18s-.099-.097-.16-.129c-.062-.032-.129-.051-.198-.057-.572-.053-1.42.077-2.316.403l-.087.033c-.781.294-1.439.677-1.868 1.046-.052.045-.096.099-.127.161-.032.062-.051.129-.056.198-.006.069.003.138.024.204.022.065.056.126.102.179.045.052.1.095.162.126s.129.049.198.054.138-.004.204-.026c.065-.023.126-.057.178-.103.331-.286.838-.577 1.431-.813z" fill="#6562f9" fill-rule="evenodd"/><path clip-rule="evenodd" d="m74.4916 97.2025c-10.2824 6.3495-33.0657 26.2895-29.7824 41.3635 4.746 21.776 27.2399 44.746 27.2399 44.746.8631 7.532 7.2967 9.262 8.6464 9.747 1.1659.417-3.3991-10.167-2.9067-11.015 1.5852-2.725 4.7059 1.398 5.4292-1.266.4583-1.682-3.5302-4.764-7.0768-4.371 0 0-16.0231-29.993-11.4653-43.46 4.5612-13.468 36.6241-12.46 38.8221-37.3409.588-6.6493-2.044-14.992-28.9064 1.5964z" fill="#fb9c9a" fill-rule="evenodd"/><g mask="url(#n)"><path clip-rule="evenodd" d="m86.0694 160.139c12.2008-14.886 31.7706-26.594 33.9506-47.422 1.529-14.6128-8.263-25.1938-21.2229-30.3099-20.1812-7.9645-46.0988-6.1018-64.5608 5.4193-26.50828 16.5426-28.52005 52.4846-11.2657 76.4456 5.3474 7.425 12.4098 14.407 21.3644 17.15 6.6892 2.05 19.1126 2.589 23.3966-4.687 1.4139-2.4-.1324-5.544 1.6313-7.727 1.3388-1.662 3.6579-1.527 5.3103-2.693 2.7126-1.904 2.3218-6.678 1.3168-9.42z" fill="url(#h)" fill-rule="evenodd"/></g><path clip-rule="evenodd" d="m253.183 79.0838s-12.725-3.7462-21.71-13.4354c-10.092 9.0753-23.233 13.4354-23.233 13.4354v20.4652c0 3.997 1.019 7.928 2.96 11.422s4.741 6.435 8.135 8.546c.368.232.739.46 1.104.689 3.005 1.869 6.47 2.87 10.01 2.889 3.539.02 7.015-.942 10.041-2.778 3.875-2.351 7.078-5.661 9.302-9.61 2.223-3.95 3.391-8.406 3.391-12.9379z" fill="url(#i)" fill-rule="evenodd"/><path clip-rule="evenodd" d="m247.232 83.5123s-9.355-2.7678-15.96-9.9264c-7.419 6.705-17.08 9.9264-17.08 9.9264v15.1484c0 2.9453.749 5.8433 2.177 8.4193 1.427 2.577 3.487 4.748 5.984 6.31.266.165.532.331.795.497 2.211 1.383 4.763 2.122 7.37 2.137 2.608.015 5.168-.697 7.394-2.054h.002c2.846-1.736 5.197-4.175 6.829-7.081 1.632-2.907 2.489-6.184 2.489-9.5173z" fill="#fff" fill-rule="evenodd"/><path clip-rule="evenodd" d="m221.439 99.6262 6.182 8.2828c.516.69 1.303 1.078 2.122 1.047.414-.02.817-.139 1.174-.348.358-.21.66-.502.88-.854l11.546-17.8733c.818-1.2695.526-3.0155-.657-3.8969-1.183-.8815-2.804-.565-3.628.7045l-9.555 14.7917-3.998-5.3565c-.897-1.2056-2.539-1.4-3.659-.4334-1.126.9665-1.303 2.7305-.407 3.9361z" fill="url(#j)" fill-rule="evenodd"/><path clip-rule="evenodd" d="m206.028 99.2479c.375-2.1166 1.578-4.2802 2.289-4.5286 4.747-1.6512 7.26 3.0938 2.367 4.5653-2.367.7124-4.738 6.8234-4.738 6.8234s-.203-5.237.082-6.8601z" fill="#fb9c9a" fill-rule="evenodd"/><path clip-rule="evenodd" d="m118.289 60.7344c-6.292 0-10.88 5.7773-9.985 13.6195.636 5.5573 7.658 11.5329 13.414 12.0965 4.744.4641 6.601-4.3498 6.601-12.2424 0-7.8927-3.742-13.4736-10.03-13.4736z" fill="url(#k)" fill-rule="evenodd"/><path clip-rule="evenodd" d="m120.693 81.1521c.119-.5484.583-1.0349.962-1.4232.334-.3416.683-.6731 1.097-.9149.246-.1541.513-.2714.793-.348 1.63-.3918 2.407.9902 3.674 1.6607.488.2592 1.012.3056 1.555.325 1.546 2.3564-1.196 4.9355-3.206 5.7761-1.002.4202-3.619 3.7465-6.81-.0773-.723-.8645-4.641-.6028-3.415-4.9969.319-1.1496-.144-2.6143-.229-3.7978-.125-1.7354.015-3.7538-1.68-4.8179-.268-.1663-.552-.3045-.848-.4123-.209-.0772-.448-.2427-.648-.1486-1.47.6835.948 3.3747-2.677 4.4804.234 1.201-.917 2.0441-1.974 2.2036-1.655.2502-3.43-.4682-4.527-1.7254-1.012-1.1617-2.238-2.9699-2.448-4.4699-.254-1.8367-.164-5.8215 1.541-8.1801 1.331-1.8416 3.295-3.2724 5.638-3.1288-.025-.4651.285-.9293.524-1.3015.563-.8746 1.275-1.6436 2.104-2.2719 1.331-.9971 2.976-1.7394 4.646-1.865 2.238-.1685 4.631 1.0708 5.604 3.1328.423-.4547 1.067-.6007 1.655-.7169 1.441-.2846 2.797-.1047 4.078.6357 2.777 1.6068 3.734 4.7391 2.562 7.6405-.418-.1351-.907-.1381-1.341-.2009-1.047-.1495 2.548 2.0756-4.751 3.3597-1.899.334-4.716-1.1177-6.087.6681-.897 1.165-.274 2.5554-.09 3.836.165 1.1456.08 2.3167.294 3.4548.305 1.6193 1.546 3.6031 3.286 3.9662z" fill="url(#l)" fill-rule="evenodd"/></svg>