<svg fill="none" height="68" viewBox="0 0 69 68" width="69" xmlns="http://www.w3.org/2000/svg"><path d="m67.637 27.4066c-1.3423-1.9276-3.7172-3.029-6.4364-3.029h-14.1119c-.9293 0-1.7898-.3786-2.3749-1.067-.6195-.6884-.8605-1.6521-.7228-2.6503l1.7554-11.2895c.7572-3.37309-1.48-7.15917-4.8531-8.29501-3.1322-1.1702511-6.815.41303-8.2951 2.65028l-14.525 21.58083-.413.6884v30.4267l.5162.5163 10.9111 8.4327c1.4456 1.4456 4.7154 2.2373 7.0215 2.2373h13.4235c4.6122 0 9.2588-3.4764 10.2914-7.71l8.4671-25.78c.8949-2.4437.654-4.8187-.654-6.7117z" fill="#7e92ee" opacity=".4"/><path d="m11.0486 14.8516h-3.54521c-5.33498 0-7.50339 2.0651-7.50339 7.1592v34.6258c0 5.094 2.16841 7.1592 7.50339 7.1592h3.54521c5.335 0 7.5034-2.0652 7.5034-7.1592v-34.6258c0-5.0941-2.1684-7.1592-7.5034-7.1592z" fill="#6258a6"/></svg>