<svg fill="none" height="229" viewBox="0 0 229 229" width="229" xmlns="http://www.w3.org/2000/svg" xmlns:xlink="http://www.w3.org/1999/xlink"><linearGradient id="a" gradientUnits="userSpaceOnUse" x1="52.6105" x2="49.7494" y1="90.2986" y2="90.1712"><stop offset="0" stop-color="#6c696a" stop-opacity=".134"/><stop offset="1" stop-color="#231f20" stop-opacity=".2"/></linearGradient><linearGradient id="b"><stop offset="0" stop-color="#fff" stop-opacity="0"/><stop offset=".5" stop-color="#231f20" stop-opacity=".2"/></linearGradient><linearGradient id="c" gradientUnits="userSpaceOnUse" x1="61.94" x2="48.2465" xlink:href="#b" y1="90.2755" y2="89.6657"/><linearGradient id="d" gradientUnits="userSpaceOnUse" x1="60.5242" x2="49.5672" y1="83.4882" y2="97.2424"><stop offset="0" stop-color="#fff" stop-opacity="0"/><stop offset=".5" stop-color="#231f20" stop-opacity=".2"/><stop offset="1" stop-color="#d2d1d1" stop-opacity="0"/></linearGradient><linearGradient id="e" gradientUnits="userSpaceOnUse" x1="54.9056" x2="51.8329" xlink:href="#b" y1="83.4541" y2="87.3112"/><linearGradient id="f" gradientUnits="userSpaceOnUse" x1="34.35" x2="49.6669" y1="65.2123" y2="71.9021"><stop offset="0" stop-color="#fff" stop-opacity=".2"/><stop offset="1" stop-color="#fff" stop-opacity="0"/></linearGradient><linearGradient id="g" gradientUnits="userSpaceOnUse" x1="25.6798" x2="16.2484" y1="72.6431" y2="81.2924"><stop offset="0" stop-color="#fff" stop-opacity=".5"/><stop offset="1" stop-color="#fff" stop-opacity="0"/></linearGradient><path d="m206.121 112.87c0 36.605-22.368 67.986-54.179 81.206-2.537 1.062-5.126 2.002-7.772 2.815-.72.229-1.447.442-2.176.647-5.922 1.66-12.098 2.718-18.451 3.1-.688.04-1.379.072-2.066.096-.909.036-1.825.056-2.742.06-.181.004-.366.004-.543.004-.314 0-.631 0-.945-.008-.507 0-1.009-.013-1.511-.025-.048 0-.093-.004-.137-.004-7.345-.213-14.462-1.326-21.2534-3.232-2.5052-.708-4.9693-1.516-7.3776-2.441-.145-.052-.2893-.104-.4259-.165-32.9295-12.701-56.2814-44.649-56.2814-82.053 0-48.5621 39.3667-87.9325 87.9323-87.9325 13.594 0 26.468 3.0839 37.959 8.5959h-8.014c-2.006 0-3.811.8038-5.118 2.1106-1.306 1.3068-2.115 3.1159-2.115 5.1059 0 3.9969 3.237 7.2334 7.233 7.2334h29.396c17.57 16.0804 28.587 39.1949 28.587 64.8867z" fill="#f0eeff"/><path d="m113.638 78.8174-16.6242 25.2226s-28.5663 2.295-34.9187-12.61c-1.6847-3.9564-.8687-16.5575.1847-26.9304.8198-8.0578 1.7809-14.7682 1.8175-15.0537.0038-.0038.0038-.0084.0038-.0084h4.6556l.3099 3.2243 4.5395 27.3014z" fill="#b7c9e4"/><path d="m63.3906 55.6129c.4282-.1023.8542-.2512 1.1114-.6298.2336-.3442.3664-.7442.613-1.0824.8923-1.2267 2.3747-1.8679 3.8678-2.0969l-.2275-2.3663h-4.6563s0 .0038-.0038.0084c-.0214.1687-.3657 2.5816-.813 6.1891.0367-.0076.0733-.0137.1084-.0221z" fill="#1f3c66" opacity=".1"/><path d="m71.4412 31.8007h.0031c.1718-.0175.3183-.1038.4168-.2282.1084-.1359.1588-.3168.1198-.5008-.003-.0152-.0061-.0297-.0084-.0442-.0007-.0016-.0007-.0039-.0007-.0046-.0046-.0206-.0077-.0412-.0115-.0619-.0023-.0114-.0038-.0236-.0061-.0351-.0015-.0091-.003-.0183-.0038-.0274-.0031-.0176-.0054-.0352-.0069-.0527-.2526-1.9648 1.7412-2.916 2.6931-1.3519.0267.0435.0519.0893.0771.1367.1679.3198.2946.7297.3603 1.2388-.0344 3.5526-2.916 5.7357-5.7922 9.0181-.529.6343-.5145 1.2404-.2748 1.6663.0259.0458.0542.0893.0847.1313.0107.0145.0214.0283.0328.0428.0107.0137.0229.0267.0344.0404.0458.0535.0962.1015.1496.145.0656.0542.1359.1008.2084.1374.0717.0375.1458.0649.2198.0833.026.0061.0527.0114.0786.0152.0054.0008.0115.0015.0176.0023.0267.0031.0534.0054.0794.0054l.0145-.039.0328-.0901c-.0007 0-.0007 0-.0015 0-.0283-.0091-.0573-.0206-.0863-.0328.029.0115.0573.0222.0863.0313l.0008.0008.1099-.2969h.0007c.0138-.0382.0191-.0779.0145-.1161-.0076-.0778-.0511-.1504-.1206-.1946-.3442-.2199-.5099-.6702.1977-1.2557 3.6908-3.3755 6.0266-6.9555 5.7365-9.376-.1771-3.9503-5.7014-4.2449-4.4564 1.0129zm.6863-2.7755c.0007-.0007.0007-.0007.0015-.0015.0359-.0366.0741-.0771.116-.1214.4596-.4793 1.1572-.5969 1.7916-.3053-.6344-.2908-1.3313-.1733-1.79.3061-.0451.0466-.0863.0893-.1237.129-.184.1916-.2824.2946-.2969.3092.0137-.0146.1145-.1199.3015-.3161zm-2.4656 12.8569c.0405.0267.0817.0503.1244.0725-.0427-.0214-.0847-.0458-.1244-.0725z" fill="#4977ad"/><path d="m75.3286 30.8672c.074 1.9625-1.1122 4.2227-3.5266 6.7158l-2.4098 2.5144-.0069.0099c-.4351.6336-.258 1.129-.1138 1.3687.1565.2595.4435.3923.7107.4801l-.0244.0695-.0008.0007-.032.0901-.0138.0389c-.0267-.0007-.0534-.0023-.0801-.0061-.0061-.0007-.0115-.0015-.0176-.0023-.0259-.0038-.0527-.0091-.0786-.0152-.0741-.0183-.1481-.0458-.2199-.0832-.0725-.0374-.1419-.0832-.2083-.1374-.0527-.0435-.1023-.0924-.1497-.1451-.0114-.0137-.0229-.0267-.0343-.0404-.0115-.0138-.0221-.0283-.0328-.0428-.0306-.0412-.0596-.0847-.0848-.1313-.2435-.429-.261-1.0396.2703-1.6755 2.8762-3.2823 5.757-5.4654 5.7914-9.0172-.0649-.5046-.1909-.9115-.355-1.2298-.0252-.0473-.0504-.0931-.0771-.1366-.9496-1.5755-2.9487-.6191-2.693 1.3519.0015.0175.0046.0351.0069.0526.0015.0092.0022.0184.0038.0275.0015.0115.0038.0229.0061.0351.003.0206.0068.0412.0114.0619 0 .0015 0 .003.0008.0045.0023.0145.0061.029.0084.0443.0389.1847-.0115.3656-.1199.5008-.2618-1.0695-.1725-1.9687.2619-2.5397.0015-.0022.003-.0045.0045-.0068.0008-.0008.0008-.0008.0016-.0015.0351-.0451.0725-.0886.1114-.1298.4725-.4939 1.1977-.6031 1.8465-.2794.7397.3695 1.1931 1.19 1.2435 2.2534z" fill="#6d95d5"/><path d="m61.2464 40.6973c-3.4777-2.6366-6.7387-4.1961-7.4875-7.6685-.0374-.5122.0045-.9389.1038-1.2862.0152-.0519.0305-.1015.0481-.1496.6183-1.7236 2.7625-1.1931 2.9106.7824.0015.0176.0022.0359.0038.0534.0007.0092.0007.0184.0015.0275 0 .0115.0008.0237.0015.0351.0008.0206.0016.042.0016.0626v.0054c.0007.0145 0 .0297.0007.045-.0007.1885.0847.3565.2183.4672.1222.1022.2848.1572.4573.1389.0099-.329-.0008-.6321-.029-.9114-.4374-4.3091-5.1228-2.8518-4.5403.816.203 2.4289 3.2113 5.467 7.5051 8.031.8098.4313.7381.9053.4457 1.19-.0877.0863-.1053.2214-.0404.326 0-.0008.0007-.0008.0007-.0008l.1672.2687c.0008 0 .0008-.0008.0008-.0008.0259-.0152.0519-.0313.0778-.048-.0259.0175-.0519.0343-.0778.0488-.0008.0008-.0008.0008-.0016.0008l.0535.0847.0191.0313c.0252-.0061.0511-.013.0771-.0214.0061-.0023.0114-.0038.016-.0061.0244-.0091.0496-.0198.074-.0313.0687-.0328.1359-.0748.1985-.1259.0634-.0504.1229-.1099.1763-.1764.0435-.0526.0832-.1106.1176-.1717.0084-.0153.0168-.0313.0252-.0466.0084-.016.016-.032.0236-.0481.0222-.0465.0413-.0954.0565-.1458.1481-.4648.0405-1.0618-.6053-1.5762zm-4.9716-10.0676c.2229.1541.3427.2366.3595.2488-.0168-.0114-.1343-.0924-.3534-.2427-.0443-.0306-.0931-.0649-.1465-.1016-.5626-.3885-1.2947-.3503-1.8649.0977-.1213.0955-.2305.2046-.3251.326.0954-.1214.2038-.2305.3259-.3267.571-.4481 1.303-.4863 1.8648-.0977.0496.0343.0962.0664.1382.0954.0008 0 .0007.0008.0015.0008z" fill="#4977ad"/><path d="m61.8504 42.2755c-.016.0504-.0351.0985-.0565.1458-.0076.0168-.0152.0321-.0236.0481-.0084.0153-.0168.0313-.0252.0466-.0351.061-.0741.119-.1176.1717-.0542.0664-.113.1252-.1763.1763-.0626.0512-.1298.0932-.1985.126-.0244.0114-.0496.0214-.074.0313-.0054.0023-.0107.0038-.016.0061-.026.0092-.0512.016-.0771.0221l-.0191-.032-.0519-.0863v-.0008l-.0382-.0633c.2443-.1405.4985-.3275.5992-.6137.0939-.2634.1672-.7855-.387-1.3183l-.0084-.0084-2.8663-1.9786c-2.8671-1.9564-4.4838-3.9319-4.8052-5.8692-.1633-1.0511.1145-1.9465.7633-2.4564.5702-.4481 1.303-.4863 1.8649-.0977.0465.0328.0916.0671.1358.1045l.0016.0016c.0023.0022.0038.0038.0061.0061.5396.4725.8083 1.335.7671 2.4358-.1336-.1107-.2191-.2787-.2183-.4672 0-.0153 0-.0305-.0008-.045 0-.0016 0-.0039 0-.0054 0-.0214 0-.042-.0015-.0626 0-.0122-.0007-.0236-.0015-.0351-.0008-.0091-.0008-.0183-.0015-.0275-.0008-.0183-.0016-.0358-.0039-.0534-.1465-1.9824-2.2968-2.5167-2.9105-.7824-.0168.0481-.0329.0977-.0481.1496-.097.345-.1382.7687-.1008 1.2763.7481 3.4724 4.0098 5.0319 7.4868 7.6684.6503.5153.7549 1.1176.603 1.587z" fill="#6d95d5"/><path d="m72.0134 26.3758.0267.2649c.0153.1512-.032.2939-.1206.4023-.0855.1046-.2099.1778-.3534.1969-.0054.0008-.0107.0016-.016.0023.8877 13.5874-4.3197 15.7903-4.8457 16.6468-.5267.8572-.5969 2.2663.3878 3.8197.6229.9832 2.2824 1.3244 3.419 1.4435.6702.0702 1.1992.6 1.2679 1.2709l-10.8592 1.103c-.068-.6702.3435-1.2961.9862-1.4999 1.0893-.3443 2.6465-1.0129 3.0587-2.1015.6519-1.7205.3-3.0861-.3878-3.8197-.516-.5496-3.7632-1.3122-6.1402-7.3494-.7924-2.0121-1.4885-4.6112-1.9542-7.9829-.3023.0305-.5709-.1885-.6015-.4901l-.0267-.2648c-.0305-.3015.1886-.571.4908-.6015l15.0675-1.5305c.3007-.0313.5694.1885.6007.49z" fill="#4977ad"/><path d="m66.704 43.8877c-.5267.8572-.5969 2.2663.3878 3.8197.6228.9832 2.2823 1.3244 3.4189 1.4435.6702.0702 1.1992.6 1.2679 1.2709l-2.3884.2428c-.342-.342-.842-.7504-1.5664-1.1794-1.9274-1.1427-2.2243-6.3898-2.2243-6.3898s4.7403-4.1243 4.7425-13.7935l-12.0637-.9007c.3115-.0321 13.253-1.3465 13.253-1.3465s.0122.0641.0351.1847c-.0053.0008-.0107.0015-.016.0023.887 13.5866-4.3197 15.7896-4.8464 16.646z" fill="#2e2e2e" opacity=".1"/><path d="m59.3882 27.0859-1.6958.1719.1186 1.1696 1.6958-.172z" fill="#91addc"/><path d="m58.3145 28.7499s.6373 10.3455 4.5105 13.582c0 0-1.6221-3.177-2.6999-13.785z" fill="#91addc"/><path d="m64.8549 45.3428c1.2297-.1168 2.7961-.3435 2.7274-.7465-.0832-.487-1.6038-.6153-2.9137-.6351.342-.7839.3741-.9816.0756-1.061-.3297-.0878-.8419-.0191-1.3129.4366s-.6618.6588-.6618.6588c-.6389.3518-.6511 3.7395.4328 4.5082.2252.1595.545.1771.8481.2259.3931.0634.3602-.1 1.219-.129 1.4717-.0496 1.8137-.3183 1.8114-.6175-.0031-.3382-1.7977-.3847-2.4961-.4061.0412-.0015.0839-.003.1267-.0053l.0588.0091-.0313-.0107c1.1618-.0473 2.7464-.1671 2.7472-.7671.0008-.3695-1.7411-.345-2.5869-.3084 1.219-.1649 2.5564-.3412 2.6579-.6916.1313-.4549-1.1931-.5481-2.7022-.4603z" fill="#b7c9e4"/><path d="m33.9223 91.1548c.7794-1.1863 1.7191-2.3313 2.9167-3.1152 1.1977-.784 2.5679-1.3183 3.9656-1.6175 2.6647-.571 6.0898-.1977 7.2814 2.6503.2359.5633.3641 1.161.4817 1.7579.09.458.1564.9756.4144 1.3763.2519.3931.6954.4832 1.1359.4519.8099-.058 1.632-.3404 2.3442-.7198.7832-.4168 1.4931-.9954 2.0327-1.7015.5107-.6679.8298-1.4564 1.029-2.2701.155-.6328.1725-1.2916.3458-1.9198.1893-.6893.6297-1.2404 1.1954-1.6664 1.0358-.7801 2.3228-1.0419 3.5831-1.2167 1.4182-.197 2.8564-.2664 4.2624-.5489 1.1511-.2312 2.4114-.6297 3.0388-1.703.6267-1.0702.6023-2.2869.0542-3.3823-.5854-1.1702-1.5831-2.1129-2.6037-2.9052-1.0099-.7832-2.1083-1.4572-3.2457-2.0374-1.4564-.7427-3.022-1.2335-4.5449-1.8198-1.0358-.3992-2.0663-.8129-3.0861-1.2533-.9488-.41-1.9015-.8199-2.7801-1.3687-1.3404-.8374-2.4762-1.9373-3.4121-3.2068-.6893-.9351-1.2847-1.9335-1.8663-2.9388-6.6975 9.4264-11.5783 20.2314-14.1454 31.9043.5244-.9298 1.0275-1.874 1.603-2.7495z" fill="#1f3c66" opacity=".2"/><path d="m178.127 59.85s1.525-2.3259 1.443-2.7717c-.139-.7572-.484-.3664.212-3.0732.481-1.8716-.507-2.8793.075-3.2212 1.144-.674 1.726 2.6274 1.726 2.6274s1.705-6.1609 2.746-5.6991c.561.2489-.749 4.8678-.749 4.8678s.818-.7733 1.244-.3954c.626.5565.066 1.429.066 1.429s.573-.2474.906.2915c.38.6161-.215 1.1542-.215 1.1542s.447-.1931.715.0305c.268.2245.622.7786-.729 2.0908-1.1 1.0679-3.275 1.1664-4.655 4.5953z" fill="#b7c9e4"/><path d="m178.414 58.7109-18.153 26.7037-37.26-6.5921c-.191 2.2343.187 19.2703 9.458 19.4902 6.596.5694 30.687 2.5743 35.542-.8595 12.451-8.8074 13.757-36.9744 13.757-36.9744z" fill="#b7c9e4"/><path d="m151.94 194.081c-2.534 1.059-5.123 1.999-7.772 2.814-.718.226-1.446.442-2.175.645-5.919 1.664-12.097 2.718-18.449 3.101-.687.041-1.378.074-2.069.097-.908.036-1.824.055-2.741.059-3.529-18.422-6.629-35.412-8.62-46.445h39.158c1.926 10.545 2.658 24.596 2.668 39.729z" fill="#1f3c66"/><path d="m125.71 154.352c-.526 10.076-1.691 27.051-4.234 46.386-.907.036-1.824.055-2.741.059-.179.005-.364.005-.543.005-.313 0-.632 0-.945-.009-.507 0-1.009-.009-1.511-.023-.046 0-.092-.005-.138-.005-7.344-.212-14.461-1.326-21.2515-3.234-2.506-.705-4.9708-1.516-7.3799-2.437-.1427-.055-.2855-.106-.4236-.166.5343-15.52 1.806-29.926 4.2609-40.576z" fill="#19395e"/><path d="m112.825 78.9624c-8.646-1.0855-35.9713 33.6786-35.9713 33.6786l-18.9169-24.9369-6.3059 4.8724s15.4643 50.7315 27.8021 50.7315c12.3385 0 23.647-18.917 23.647-18.917s22.052-43.8844 9.745-45.4286z" fill="#274675"/><path d="m95.0597 129.062c.1671-5.671 1.3152-11.295 2.8861-16.732.8008-2.771 1.732-5.486 2.8402-8.15 1.111-2.671 2.312-5.3218 3.128-8.1019-.369.1504-.738.3008-1.103.4588-2.421 1.045-4.7835 2.2388-7.0246 3.6301-2.3305 1.448-4.5816 3.128-6.4006 5.195-1.6335 1.856-2.922 4.081-3.1594 6.582-.2054 2.16.0145 4.35.103 6.511.0947 2.297.1374 4.647-.3984 6.898-.4909 2.061-1.5901 3.924-3.4724 4.987-1.2565.709-2.6694 1.01-4.1052.975-.8848-.021-1.7649-.144-2.6328-.31-.7633-.145-1.4969-.304-2.1984-.649-1.4053-.692-2.6045-1.722-3.9479-2.516-1.045-.619-2.2412-1.038-3.4602-.746-.2962.071-.5649.185-.8153.326 4.5045 8.842 9.5371 15.89 14.1354 15.89 5.8785 0 11.5226-4.294 15.8216-8.791-.1954-1.811-.2496-3.638-.1961-5.457z" fill="#1f3c66"/><path d="m88.8913 159.936c-5.5937-19.189 9.1371-81.9148 31.1527-82.3866 22.9-.4908 45.01 70.2926 30.901 86.2556-9.591 10.853-38.407 4.73-62.0537-3.869z" fill="#274675"/><path d="m99.3838 103.566s8.6952.239 11.2482-.16c0 0-3.59 2.394-11.2482.16z" fill="#203a6f"/><path d="m100.66 154.136s8.695.24 11.248-.159c0-.001-3.59 2.392-11.248.159z" fill="#203a6f"/><path d="m132.568 154.136s8.695.24 11.247-.159c0-.001-3.589 2.392-11.247.159z" fill="#203a6f"/><path d="m129.962 52.2861c-.409-2.8663-3.206-3.0205-3.206-3.0205l-10.688 1.4481-5-1.4481s-2.796.1535-3.206 3.0205c-.409 2.8664-.232 12.2256 5.719 15.5675.113.0633 10.558.0587 10.663 0 5.951-3.3419 6.128-12.7011 5.718-15.5675z" fill="#2e2e2e"/><path d="m111.816 52.87c1.813-3.1862.531-2.5824 8.395-2.6969s8.217 7.8219 7.524 12.4645c-.655 4.3876-2.678 7.3379-5.057 9.0859l1.268 6.022s-.992 2.7113-5.132 2.5411c-4.425-.1817-4.711-2.4885-4.711-2.4885s1.473-3.854 1.404-5.1983c-5.044-2.9869-5.997-15.6796-3.691-19.7298z" fill="#ffb092"/><path d="m124.637 65.4087c.078.5733-.561 1.1328-1.428 1.2503-.867.1176-1.633-.2511-1.71-.8244-.078-.5732.561-1.1327 1.428-1.2503.867-.1175 1.633.2519 1.71.8244z" fill="#33133f" opacity=".05"/><path d="m114.87 65.1431c.078.5732-.562 1.1328-1.428 1.2503-.867.1183-1.633-.2511-1.711-.8244-.078-.5732.562-1.1328 1.428-1.2503.867-.1176 1.633.2519 1.711.8244z" fill="#33133f" opacity=".05"/><path d="m115.455 58.0826c-.084-.0023-.163-.0489-.206-.1275-.036-.0695-.92-1.6381-3.239-.6985-.122.0496-.263-.0091-.313-.1328-.051-.1236.009-.2641.132-.3137 2.735-1.1084 3.835.8992 3.846.919.062.1176.017.2641-.101.326-.037.0206-.078.029-.119.0275z" fill="#603d52"/><path d="m120.129 58.2738c-.03-.0008-.06-.0077-.089-.0206-.122-.0535-.177-.1947-.125-.3161.01-.0213.952-2.0976 4.1-1.3159.13.032.209.1633.177.2923-.033.129-.165.2084-.293.1756-2.736-.6786-3.51.9709-3.542 1.0412-.041.0931-.132.1465-.228.1435z" fill="#603d52"/><path d="m117.897 65.0834c-.083-.0031-.165-.0176-.244-.0428-.506-.1649-.704-.7473-.712-.7717-.024-.0725-.012-.1519.031-.2137.904-1.2954.735-3.0999.734-3.1175-.014-.1321.082-.2504.215-.2641.128-.016.251.0824.264.2152.008.0787.182 1.9007-.742 3.3312.065.1283.189.3084.362.3634.162.0519.362-.0069.595-.1733.108-.0771.258-.0527.336.0557.077.1084.053.2588-.056.3367-.274.1938-.535.2885-.783.2809z" fill="#603d52"/><path d="m115.562 68.3672s2.709 1.3335 5.834 0c.658 1.3022-4.348 4.2655-5.834 0z" fill="#fcfaf7"/><path d="m114.852 61.0553c-.028.7465-.457 1.3442-.971 1.3251-.523-.019-.915-.6343-.886-1.3907.018-.7466.457-1.3443.971-1.3252.074 0 .149.0191.223.0557-.037.0932-.065.2054-.065.3176-.019.3824.187.7.448.7.084 0 .168-.0283.242-.0932.029.1306.038.271.038.4107z" fill="#603d52"/><path d="m123.223 61.3196c-.028.7557-.466 1.3534-.98 1.3343-.513-.0183-.905-.6443-.887-1.3908.028-.7465.466-1.3442.98-1.3252.019 0 .047 0 .066.0092-.019.0748-.038.1588-.038.2427-.018.3825.187.7.449.7.083 0 .167-.0282.242-.0931.029-.0191.056-.0466.084-.084.057.1771.094.3916.084.6069z" fill="#603d52"/><path d="m111.347 61.5129s-1.225-2.1007-2.013-.613.96 4.4731 2.098 4.4731c1.137.0008-.085-3.8601-.085-3.8601z" fill="#ffb092"/><path d="m127.057 61.5129s1.225-2.1007 2.013-.613c.787 1.4877-.96 4.4731-2.098 4.4731-1.138.0008.085-3.8601.085-3.8601z" fill="#ffb092"/><path d="m121.792 44.2175c1.509 1.316 2.699 2.345 3.638 3.1511.113.0343.226.0679.342.0908 1.122.2198 2.562.0221 3.103 1.2351.229.5129.19 1.0396.044 1.5778.001.0007.003.0015.003.0015s-.004.0053-.005.0076c-.267.9756-.891 1.99-.96 3.0419.027-.4015 1.292 1.2794 1.363 1.6526.215 1.1229.516 2.8488-.468 3.3335-.573.2817-.975 1.7969-1.673 3.5938.254-2.2816.671-3.3602-.87-5.5891-1.14.7121-2.718-.1665-3.082-1.6343-2.166.8328-4.967 1.2159-8.448.3755-1.928.3824-4.306.2832-5.324-1.7411-.295-.5878-.418-1.2328-.426-1.8992-.619-.9778-1.1-2.2122-1.301-3.7785-.879-6.8372 7.227-9.3768 14.064-3.419z" fill="#2e2e2e"/><path d="m112.904 52.9945s5.858 1.9549 11.424-.1664c0 0-6.651 3.3564-11.424.1664z" fill="#fff" opacity=".25"/><path d="m117.382 52.3959s3.775 1.2595 7.361-.1068c0 0-4.286 2.1625-7.361.1068z" fill="#fff" opacity=".25"/><path d="m109.354 44.8734c-.266-1.4816 1.295-3.4853 5.07-3.2441s9.384 5.3425 9.384 5.3425-3.96-3.196-7.49-3.1487c-3.53.0488-6.564 3.2808-6.964 1.0503z" fill="#fff" opacity=".25"/><g fill="#ea967d" opacity=".55"><path d="m117.319 60.6092c-.027-.09-.058-.1809-.094-.2671-.048-.1183-.102-.2359-.157-.3458-.059-.1061-.126-.2084-.194-.3069-.365-.5313-.884-.948-1.498-1.1877-.369-.1496-.775-.2283-1.195-.2283-.123 0-.245.0077-.362.0199-.484.0549-.936.2122-1.334.4519-.259.161-.499.3542-.704.5778-.275.2909-.495.6374-.645 1.0183-.082.2046-.142.4168-.177.6412-.035.1847-.051.3695-.051.5626 0 .1885.016.3694.048.5503.113.6848.444 1.2977.916 1.7656.495.4916 1.14.826 1.864.9244.145.0199.294.0313.444.0313.401 0 .786-.071 1.14-.2045 1.243-.4642 2.132-1.6633 2.132-3.0679.001-.3252-.046-.6358-.133-.9351zm-2.214 3.7404c-.291.0984-.601.1496-.924.1496-.15 0-.295-.0115-.437-.0351-.271-.0351-.531-.1138-.771-.2283-.011-.0038-.024-.0076-.031-.0114-.468-.2122-.87-.5466-1.161-.9633-.263-.3619-.444-.7863-.515-1.2466-.027-.1534-.039-.3068-.039-.4679 0-.0672.003-.1336.012-.1969.02-.358.106-.6962.243-1.0069.232-.5229.61-.9671 1.086-1.274.369-.2397.794-.4015 1.25-.4564.118-.0161.24-.0237.362-.0237 1.204 0 2.238.7198 2.697 1.7541.052.1138.095.2283.13.3504.083.271.126.5588.126.8534 0 .7038-.244 1.345-.656 1.8526-.35.4351-.825.7733-1.372.9504z"/><path d="m125.409 60.755c-.012-.0473-.027-.0984-.04-.1458-.027-.09-.058-.1809-.094-.2671-.102-.2596-.236-.5031-.397-.7237-.24-.3267-.535-.6053-.877-.8221-.185-.1221-.382-.2244-.59-.3068-.366-.1374-.764-.2161-1.18-.2161-.952 0-1.813.4092-2.411 1.0618-.004.0038-.008.0077-.011.0122-.264.2871-.477.6252-.622.9954-.146.3695-.228.7786-.228 1.2038 0 .1886.016.3695.047.5504.26 1.5419 1.609 2.7213 3.225 2.7213.685 0 1.322-.2084 1.845-.5703.861-.59 1.427-1.5808 1.427-2.7022.001-.2717-.031-.5389-.094-.7908zm-1.341 3.103c-.504.4015-1.14.6412-1.837.6412-.432 0-.842-.0947-1.211-.2634-.004-.0038-.008-.0038-.011-.0038-.885-.4007-1.539-1.2267-1.691-2.2182-.028-.1535-.04-.3069-.04-.468 0-.4289.09-.8373.256-1.2037.46-1.0343 1.498-1.7542 2.697-1.7542.669 0 1.283.2206 1.774.5977.402.2947.72.6924.925 1.1565.051.1137.094.2282.13.3503.082.271.125.5588.125.8534 0 .6962-.239 1.3336-.641 1.8366-.138.1771-.299.3382-.476.4756z"/></g><path d="m127.878 59.5904-2.516.0221c-.248-.4595-.602-.8564-1.03-1.1518-.527-.3657-1.164-.5779-1.856-.5779-1.203 0-2.257.6519-2.827 1.6229h-2.398c-.57-.9702-1.623-1.6229-2.826-1.6229-.09 0-.181.0038-.272.0115-.519.0435-1.003.2045-1.427.4603-.5.3106-.913.7434-1.188 1.2587v.0008l-1.012.0473v1.1351l.654-.0474v.0008c-.008.0313-.008.0588-.012.0901-.011.1023-.016.2084-.016.3145 0 .3267.048.6373.134.9358.165.5466.468 1.0305.869 1.416.318.3107.696.5504 1.116.7122.008.0038.02.0076.032.0114.243.0863.503.1496.771.1771.113.0115.232.0199.35.0199.334 0 .656-.0512.963-.1413.551-.1732 1.038-.4839 1.42-.893.55-.5817.889-1.3687.889-2.2381 0-.1886-.016-.3695-.048-.5504-.016-.0901-.031-.1809-.055-.2672-.031-.1175-.066-.2351-.11-.345h1.931c-.043.1099-.079.2275-.11.345-.067.2596-.102.5351-.102.8183 0 .3267.047.6374.133.9359.295.9831 1.042 1.7778 2.002 2.1358.004 0 .008 0 .012.0038.35.1259.727.1969 1.125.1969.72 0 1.385-.232 1.923-.6213.173-.1298.33-.2718.475-.429.543-.5824.874-1.361.874-2.2221 0-.1374-.008-.2717-.028-.4053 0-.0008 0-.0008 0-.0008h1.996zm-12.706 4.4197c-.236.0664-.488.0985-.747.0985-.114 0-.229-.0077-.342-.0237-.841-.0947-1.573-.5427-2.045-1.1916-.193-.2633-.347-.5625-.441-.8847-.078-.2519-.118-.519-.122-.7946-.004-.0199-.004-.0397-.004-.0588 0-.2832.04-.5587.119-.8183.102-.3778.283-.7198.523-1.0183.192-.248.429-.4641.692-.6373.393-.2596.853-.4252 1.345-.468.091-.0114.181-.016.275-.016.461 0 .897.1061 1.283.2992.751.358 1.321 1.0267 1.553 1.8404.035.1138.063.2321.079.3504.027.1534.04.3069.04.4679-.001 1.3725-.938 2.5251-2.208 2.8549zm9.219-.6053c-.515.4404-1.184.7038-1.915.7038-1.338 0-2.462-.8847-2.828-2.1-.082-.2717-.126-.5587-.126-.8534 0-.2832.04-.5587.119-.8183.102-.3656.275-.7038.499-.9954.004-.0038.007-.0076.011-.0122.539-.6885 1.38-1.1328 2.325-1.1328.456 0 .884.1023 1.266.2871.212.0984.413.2244.594.3732.464.3741.81.8893.975 1.4786.035.1137.063.2321.079.3504.027.1534.04.3068.04.4679-.001.9023-.402 1.7083-1.039 2.2511z" fill="#141430"/><path d="m115.61 72.7334s2.874 1.5419 6.238-.21c0 0-2.242 6.3082-6.238.21z" fill="#33133f" opacity=".15"/><path d="m114.355 76.8794 4.333 3.709 4.88-4.5884 1.482 1.5282-1.603 49.6988-10.549-48.6859z" fill="#fff"/><path d="m117.651 80.0555 3.216-.3993 1.384 1.1702-.798 2.4198 5.185 28.8768-3.297 15.316-7.339-16.273 2.446-28.0259-1.196-1.4358z" fill="#4977ad"/><path d="m124.027 97.5859c-.461 1.3252-.973 2.6301-1.478 3.9041-1.38 3.483-2.945 6.889-4.404 10.338-.294.696-.599 1.39-.907 2.085l6.102 13.531 3.297-15.317z" fill="#1f3c66" opacity=".1"/><path d="m124.777 77.2891c-2.578 2.3396-1.116 50.1489-1.116 50.1489l7.392-15.423-3.19-12.1252 2.871-7.8173c0 .0008-3.111-13.8003-5.957-14.7834z" fill="#1f3c66"/><path d="m112.944 78.5156c4.786 3.7495 10.769 49.2984 10.769 49.2984l-10.37-14.518.479-14.1986-4.148-7.3395s1.833-13.0026 3.27-13.2423z" fill="#1f3c66"/><path d="m123.684 127.219.486 38.606s1.709-13.061 1.139-21.818c-.57-8.756-1.625-16.788-1.625-16.788z" fill="#203a6f"/><path d="m120.683 124.861c0 .706-.571 1.278-1.277 1.278-.704 0-1.275-.572-1.275-1.278 0-.704.571-1.275 1.275-1.275.705 0 1.277.571 1.277 1.275z" fill="#203a6f"/><path d="m120.683 138.346c0 .705-.571 1.276-1.277 1.276-.704 0-1.275-.571-1.275-1.276s.571-1.276 1.275-1.276c.705 0 1.277.571 1.277 1.276z" fill="#203a6f"/><path d="m121.268 152.518c0 .704-.572 1.276-1.276 1.276-.705 0-1.277-.571-1.277-1.276s.572-1.276 1.277-1.276c.704-.001 1.276.57 1.276 1.276z" fill="#203a6f"/><path d="m54.1754 83.4328-2.5335 3.3533.8328 1.5297-2.9083 3.4427s-2.6511.0419-2.2557 1.8724 4.1579 3.0106 4.1579 3.0106 9.4592-11.3622 9.1318-12.337c-.3275-.974-6.425-.8717-6.425-.8717z" fill="#274675"/><path d="m52.5966 88.7422s.2244.4275-.1565.7801c-.3809.3527-.6748.2092-.6748.2092s-.0427.232-.2977.6938c-.2549.4619-.6717.2558-.6717.2558s-.2305.2381-.2603.3679c-.029.1298-.0191.7442-.3557.7244-.3366-.0199-.4992-.1489-.4992-.1489l1.2221-1.4541 1.1175-1.3137z" fill="url(#a)"/><path d="m55.379 83.4875-2.687 3.535.884 1.6137-3.0854 3.6296s-2.8137.0435-2.3931 1.974 4.4129 3.1762 4.4129 3.1762 3.9701-8.3508 9.6867-13.0072c-.3473-1.0274-6.8181-.9213-6.8181-.9213z" fill="#fff"/><path d="m54.1837 93.1177c.3748-.7649.8076-1.4954 1.2801-2.203.4816-.7206.9915-1.4213 1.4724-2.1419.1787-.2679.3626-.5336.5115-.8198.1496-.2878.2778-.6084.271-.9381-.013-.5977-.4954-.9527-.9832-1.1977-.5099-.2557-1.0565-.4153-1.5809-.6351-.2725-.1145-.5542-.2038-.8328-.3031l1.058-1.3915s6.4708-.1061 6.8181.9213c-4.5502 3.706-7.9936 9.7524-9.2096 12.066.2633-1.1602.6725-2.2892 1.1954-3.3571z" fill="url(#c)"/><path d="m51.7679 89.5038c.1824.1343.4892.029.6847-.2367.1961-.2656.2068-.5893.0236-.7244-.1824-.1343-.4893-.029-.6847.2367-.1954.2656-.2061.59-.0236.7244z" fill="#276093"/><path d="m50.8235 90.5272c.1825.1351.4893.029.6855-.2366.1962-.2657.2061-.5901.0237-.7244-.1825-.1344-.4893-.029-.6855.2366-.1954.2656-.2061.5901-.0237.7244z" fill="#276093"/><path d="m49.8782 91.551c.1824.1351.4893.029.6855-.2366.1954-.2657.2061-.5901.0236-.7245-.1824-.1351-.4893-.029-.6854.2367-.1954.2649-.2061.5893-.0237.7244z" fill="#276093"/><path d="m60.2698 84.7734-2.0252.0222s-6.3547 9.7256-8.1669 10.0195c-1.8121.2946.7878 2.5091 1.6786 1.874.89-.6351 5.0212-10.0844 8.5135-11.9157z" fill="url(#d)"/><path d="m52.6922 87.0189-1.0496-.2397s1.2641-.3695 1.8305-1.3c.5663-.9305 1.1846-1.7839 1.1846-1.7839l.3626.2786z" fill="url(#e)"/><path d="m52.2986 88.6001c-.0626-.1267-.3702.0221-.4641.3198s-.0694.6259.1199.5427c.19-.0832-.0581-.2732.0595-.4717.1183-.1985.3382-.2832.2847-.3908z" fill="#f9f9f9" opacity=".26"/><path d="m51.244 89.6944c-.0527-.1068-.3137.0191-.3931.2718-.0794.2526-.0595.5305.1015.4603.1611-.0702-.0496-.2313.0504-.4s.287-.2397.2412-.3321z" fill="#f9f9f9" opacity=".26"/><path d="m50.3361 90.7257c-.0526-.1069-.3137.0191-.3931.2717-.0801.2527-.0595.5305.1016.4603.161-.0702-.0497-.2313.0503-.4s.287-.2404.2412-.332z" fill="#f9f9f9" opacity=".26"/><path d="m65.5695 80.698c-.3671 1.6587-.0305 3.1434.7511 3.3167.7817.1733 1.7137-1.0313 2.0809-2.6892.3671-1.6588.0305-3.1434-.7511-3.3167-.7825-.1733-1.7137 1.0305-2.0809 2.6892z" fill="#1a3f76"/><path d="m65.5695 80.698c-.3671 1.6587-.0305 3.1434.7511 3.3167.7817.1733 1.7137-1.0313 2.0809-2.6892.3671-1.6588.0305-3.1434-.7511-3.3167-.7825-.1733-1.7137 1.0305-2.0809 2.6892z" fill="#6f95d5"/><path d="m64.0942 80.3699c-.5565 2.5137-.2779 4.7136.6221 4.9128.9.1993 2.0801-1.6778 2.6366-4.1914.5564-2.5137.2786-4.7128-.6214-4.9128-.9-.1985-2.0808 1.6778-2.6373 4.1914z" fill="#163a68"/><path d="m64.0942 80.3699c-.5565 2.5137-.2779 4.7136.6221 4.9128.9.1993 2.0801-1.6778 2.6366-4.1914.5564-2.5137.2786-4.7128-.6214-4.9128-.9-.1985-2.0808 1.6778-2.6373 4.1914z" fill="#1f3c66"/><path d="m62.778 80.0811c-.7107 3.2105-.5573 5.9746.3427 6.1738s2.2053-2.2419 2.9159-5.4525c.7107-3.2106.5573-5.9746-.342-6.1738-.9007-.1993-2.206 2.2419-2.9166 5.4525z" fill="#e5eaf6"/><path d="m65.6947 74.6321-12.1752-2.6946-2.5732 11.6263 12.1752 2.6946s4.0006-6.3341 2.5732-11.6263z" fill="#274675"/><path d="m50.6031 77.3857c-.7106 3.2106-.5572 5.9746.3428 6.1739.9.1992 2.2053-2.2419 2.9159-5.4525.7107-3.2106.5573-5.9746-.3427-6.1738-.8992-.1993-2.2053 2.2419-2.916 5.4524z" fill="#163a68"/><path d="m50.6031 77.3857c-.7106 3.2106-.5572 5.9746.3428 6.1739.9.1992 2.2053-2.2419 2.9159-5.4525.7107-3.2106.5573-5.9746-.3427-6.1738-.8992-.1993-2.2053 2.2419-2.916 5.4524z" fill="#274675"/><path d="m37.9819 61.1713c6.399 6.7852 15.2567 11.124 15.2567 11.124l-.0084.0428c.6221.2717.6198 2.7411-.0198 5.6273-.6573 2.9678-1.7382 5.2532-2.4145 5.1036-.032-.0069-.0618-.0214-.09-.0382-1.2901.042-10.3424.4451-18.3689 3.6419-8.6646 3.4518-10.9386 3.1976-10.9386 3.1976l3.7709-17.0376.4733-2.1389 3.7708-17.0376c.0016.0008 2.1702.7298 8.5685 7.5151z" fill="#e5eaf6"/><path d="m42.0947 82.1837c1.5358-.0595 3.0869.1091 4.6136-.1168 1.4205-.2099 2.8747-.6702 3.9327-1.6824 1.0381-.9931 1.6747-2.3304 2.2266-3.635.1687-.3984.326-.7923.4313-1.2137.1061-.4206.1718-.8496.2237-1.2793.0412-.3405.0755-.6817.1145-1.0221.1458 1.0198.0053 2.7793-.4267 4.7303-.6573 2.9679-1.7382 5.2533-2.4145 5.1037-.032-.0069-.0618-.0214-.09-.0382-1.2901.042-10.3424.445-18.3689 3.6419-8.6646 3.4518-10.9386 3.1976-10.9386 3.1976s12.534-7.3692 20.6963-7.686z" fill="#6f95d5" opacity=".25"/><path d="m33.1172 62.0078.132 4.8617s5.8403 4.2846 16.2598 6.0731c0-.0008-11.9149-5.1693-16.3918-10.9348z" fill="url(#f)"/><path d="m28.3672 84.5114 2.1717-4.3518s7.1028-1.419 17.3032 1.3564c0-.0007-12.9828-.3427-19.4749 2.9954z" fill="#6f95d5" opacity=".25"/><path d="m18.5822 70.2426c-2.2122 9.9951-.8756 18.791 2.9861 19.6459 3.8617.855 8.786-6.5555 10.9981-16.5506 2.2122-9.9951.8756-18.7909-2.9861-19.6459-3.8617-.8541-8.786 6.5555-10.9981 16.5506z" fill="#274675"/><path d="m19.3492 70.4136c-2.0961 9.4699-1.0824 17.7475 2.2648 18.4887 3.3465.7404 7.7593-6.3357 9.8554-15.8056s1.0824-17.7483-2.2648-18.4887c-3.3464-.7412-7.7585 6.3356-9.8554 15.8056z" fill="#6f95d5"/><path d="m22.2251 61.6484c-.2015.7611-.3916 1.5252-.5618 2.2939-.4443 1.9984-.7381 4.0204-.9488 6.0562-.1527 1.4763-.2542 2.9625-.2023 4.4465.0496 1.4205.2382 2.8586.7297 4.1983.4672 1.2717 1.2267 2.4304 2.2992 3.2724 1.1931.9374 2.69 1.4465 4.18 1.6885-1.9663 3.619-4.2075 5.7143-6.1051 5.2937-3.3472-.7412-4.3609-9.018-2.2648-18.4887.7259-3.2831 1.7312-6.2792 2.8739-8.7608z" fill="url(#g)"/><path d="m24.6908 68.9453-1.142 5.1594 7.0586 2.332c.3175-1.071.6076-2.19.8625-3.3419.255-1.1511.4634-2.2831.6267-3.3862z" fill="#f9f9f9"/><path d="m24.6908 68.9453-1.142 5.1594 7.0586 2.332c.3175-1.071.6076-2.19.8625-3.3419.255-1.1511.4634-2.2831.6267-3.3862z" fill="#f9f9f9"/><path d="m24.6908 68.9453-1.142 5.1594 7.0586 2.332c.3175-1.071.6076-2.19.8625-3.3419.255-1.1511.4634-2.2831.6267-3.3862z" fill="#e5eaf6"/><path d="m22.703 71.2147c-.3153 1.4244.0626 2.7197.845 2.893s1.6717-.8412 1.987-2.2656c.3152-1.4243-.0634-2.7197-.845-2.893-.7825-.174-1.6717.8412-1.987 2.2656z" fill="#274675"/><path d="m23.177 71.3159c-.2442 1.1038-.0206 2.0915.5 2.2068s1.1404-.6862 1.3847-1.7892c.2443-1.1038.0206-2.0916-.5-2.2068-.5206-.1153-1.1404.6862-1.3847 1.7892z" fill="#b7c9e4"/><path d="m49.0996 85.6404s.4107-.2359 1.4-.7435c.9892-.5084 1.8579-.7564 2.3495-.4511s-.1832 1.4343-1.3862 2.3343c-1.203.8999-2.2961-.2786-2.3633-1.1397z" fill="#f4c2b3"/><path d="m49.0993 85.6406s7.7082 1.8755 7.5219 3.3503c-.087.6893-2.7434.2847-4.7983-.1321 2.4946.6015 4.6006 1.4061 4.1609 2.0809-.3381.519-2.5976.1458-4.6586-.187 1.3923.3572 4.2327 1.1763 4.0503 1.7762-.3099 1.0183-3.1717.3306-5.0938-.1755 1.1237.3794 4.0152 1.3404 3.8541 1.8915-.1427.4878-.832.7557-3.2464.1099-1.4092-.377-1.4366-.0946-2.0435-.3923-.4687-.229-.9793-.4145-1.2656-.7855-1.3824-1.7831.3076-7.2807 1.519-7.5364z" fill="#febea5"/><path d="m53.9171 94.2709c.0313-.2679-.7221-.6672-.8152-.645 0 0-.2069.661-.1909.7893.0153.129.9756.1236 1.0061-.1443z" fill="#fff" opacity=".2"/><path d="m55.1757 92.5912c.0313-.2679-.7221-.6671-.816-.645 0 0-.2069.661-.1908.7893.0167.129.9763.1229 1.0068-.1443z" fill="#fff" opacity=".2"/><path d="m55.8068 90.7006c.0313-.2679-.7221-.6672-.8153-.645 0 0-.2068.661-.1908.7893.0153.1297.9748.1236 1.0061-.1443z" fill="#fff" opacity=".2"/><path d="m56.382 88.8327c.0313-.2679-.7222-.6672-.8153-.6443 0 0-.2068.6611-.1908.7893.016.1283.9755.1229 1.0061-.145z" fill="#fff" opacity=".2"/><path d="m50.5794 92.4484-2.3099-1.1183s-.7465.6412-.2916 1.6366c0 0-1.0877-.9374-.2442-3.7403.8434-2.803 1.2709-3.0702 1.2709-3.0702s-.2572.8733.1931 1.5405c.1.1488 2.59 1.1389 2.4305 1.0946-.1596-.0443-2.4923-.5756-2.4923-.5756l-.3481 1.1893 2.2267 1.2106-2.3938-.7503-.2558 1.0259z" fill="#231f20" opacity=".1"/><path d="m149.888 171.323c5.185 8.4 3.973 10.563 2.682 14.546-1.264 3.893 7.265 6.756 2.274 14.625l1.859.44s12.959.703 12.957-5.947c0-6.649-11.109-1.49-10.214-6.003.891-4.515 8.421-8.595 6.522-11.668-1.896-3.075-5.163 4.814-8.465 1.755-3.299-3.061 4.411-7.177 4.357-11.39-.051-4.212-3.762-.365-9.043.135-4.864.462.657-10.645-3.269-10.201-1.47 2.823-3.148 8.056.34 13.708z" fill="#527dba"/><path d="m142.735 178.993c.346 4.458 10.237 9.249 5.329 11.499-4.909 2.251-2.298 7.857-2.298 7.857l9.078 2.148c4.992-7.87-3.538-10.733-2.274-14.626 1.292-3.983 2.503-6.145-2.682-14.545-3.488-5.652-1.811-10.886-.34-13.709-.338.038-.745.163-1.232.386-6.183 2.825-1.619 12.391-.745 14.611.874 2.219-5.18 1.923-4.836 6.379z" fill="#6f95d5"/><path d="m162.176 174.152c.539 1.353-.514 3.407-.923 4.123.043.639.085 1.803-.086 2.602.631-.533 1.335-1.014 2.128-1.409.723-.361 1.34-.765 1.872-1.193.473-.637.917-1.134 1.529-1.576 1.128-1.508 1.495-3.055 1.61-4.019-.655-.838-1.058-1.535-1.287-2.78-.257-1.4 2.522-2.218 2.942-.677.384 1.412-1.102 3.401-1.357 3.728-.128.864-.444 2.071-1.204 3.306.128-.071.258-.14.401-.21 1.437-.691 3.14 2.07 1.6 2.977-1.285.758-3.551-.022-4.268-.302-.493.372-1.051.724-1.69 1.042-2.391 1.192-3.992 3.184-5.036 5.04.469-.138 1.086-.133 1.579-.11 1.071-.719 1.895-1.138 3.38-1.287 1.586-.158 2.243 3.018.485 3.345-1.452.27-3.291-1.204-3.888-1.725-.602-.028-1.435-.031-1.783.244-.009.007-.021.007-.032.013-1.114 2.145-1.49 3.993-1.497 4.028-.017.09-.104.149-.194.131-.014-.002-.027-.007-.039-.012-.067-.031-.108-.106-.093-.183.011-.056.942-4.668 4.286-7.876.004-.005.006-.012.011-.017.348-.354.374-1.866.303-2.998-.921-.917-1.5-1.647-1.935-3.081-.463-1.525 2.525-2.785 3.186-1.124z" fill="#b7c9e4"/><path d="m171.218 182.061c.315 1.314-.923 3.059-1.394 3.662-.045.593-.161 1.666-.424 2.376.65-.405 1.361-.754 2.14-1.011.432-.143.826-.307 1.195-.485-.629-.865-1.018-1.601-1.211-2.871-.223-1.461 2.686-2.222 3.073-.61.207.861-.253 1.904-.727 2.692.359-.32.723-.588 1.16-.817 1.235-1.235 1.777-2.605 2.01-3.476-.49-.856-.768-1.549-.813-2.722-.051-1.319 2.609-1.701 2.79-.231.166 1.346-1.462 2.975-1.739 3.241-.233.777-.682 1.843-1.543 2.875.127-.047.256-.095.396-.139 1.41-.444 2.608 2.315 1.073 2.944-1.279.525-3.255-.491-3.877-.843-.501.276-1.06.526-1.689.733-.164.054-.325.114-.483.176.478-.108.997-.153 1.636-.125 1.477.064 1.66 3.067.003 3.133-1.332.054-2.78-1.454-3.297-2.049 0 0-.976.192-3.149 2.824.448-.064 1.014.021 1.464.108 1.078-.518 1.89-.794 3.272-.733 1.477.064 1.659 3.067.003 3.133-1.369.055-2.862-1.541-3.34-2.099-.549-.105-1.313-.218-1.669-.011-.01.005-.021.004-.031.007-1.308 1.822-1.896 3.467-1.908 3.499-.028.08-.116.123-.196.095-.012-.004-.024-.01-.034-.017-.058-.038-.085-.111-.062-.179.018-.051 1.483-4.16 4.977-6.661.005-.005.008-.011.013-.015.366-.279.591-1.662.676-2.71-.724-.964-1.158-1.711-1.368-3.086-.224-1.46 2.686-2.221 3.073-.608z" fill="#b7c9e4"/><path d="m123.322 201.382c-.12.18-19.091 0-19.091 0s-3.298-4.015 2.254-6.943c3.139-1.656-2.335-4.709-.626-7.942 1.708-3.233 5.219.915 6.697-1.952s4.589-9.334 5.87-5.307-4.942 6.528-.854 9.517 9.151 4.515 4.149 5.613c-5.004 1.096 4.285 2.999 1.601 7.014z" fill="#b7c9e4"/><path d="m97.7221 172.183c5.1849 8.399 3.9729 10.563 2.6819 14.545-1.2644 3.893 7.266 6.756 2.274 14.625l1.859.441s12.959.703 12.957-5.947c0-6.65-11.109-1.49-10.214-6.004.891-4.514 8.421-8.594 6.522-11.667-1.896-3.076-5.163 4.814-8.465 1.754-3.299-3.061 4.411-7.176 4.357-11.389-.051-4.212-3.762-.365-9.043.135-4.8639.462.657-10.646-3.2686-10.202-1.4709 2.823-3.1487 8.057.3397 13.709z" fill="#527dba"/><path d="m90.5689 179.851c.3465 4.459 10.2371 9.25 5.3296 11.501-4.909 2.25-2.2985 7.856-2.2985 7.856l9.078 2.148c4.992-7.869-3.5384-10.732-2.274-14.625 1.292-3.983 2.503-6.146-2.682-14.546-3.4884-5.651-1.8106-10.886-.3396-13.708-.3382.038-.7458.162-1.2328.385-6.1823 2.825-1.619 12.391-.745 14.611.874 2.219-5.18 1.923-4.8357 6.378z" fill="#6f95d5"/><path d="m101.842 178.02c.539 1.353-.514 3.407-.923 4.123.043.639.085 1.803-.086 2.602.631-.533 1.335-1.015 2.128-1.409.723-.361 1.34-.765 1.872-1.193.473-.637.917-1.134 1.529-1.577 1.128-1.508 1.495-3.054 1.61-4.019-.655-.838-1.058-1.535-1.287-2.78-.257-1.4 2.522-2.218 2.942-.677.384 1.412-1.102 3.401-1.357 3.728-.128.865-.444 2.071-1.204 3.306.128-.07.258-.14.401-.209 1.437-.692 3.14 2.069 1.6 2.977-1.285.757-3.551-.023-4.268-.303-.493.372-1.051.724-1.69 1.042-2.391 1.193-3.9924 3.184-5.0359 5.041.4687-.139 1.0855-.134 1.5793-.11 1.0706-.719 1.8946-1.138 3.3796-1.287 1.586-.159 2.243 3.017.485 3.344-1.452.27-3.291-1.204-3.8882-1.725-.6015-.028-1.4351-.031-1.7824.244-.0092.008-.0214.008-.0321.013-1.1144 2.145-1.49 3.993-1.4969 4.028-.0175.09-.1045.149-.1946.131-.0138-.002-.0267-.007-.0389-.012-.0672-.031-.1077-.106-.0924-.182.0107-.056.9412-4.668 4.2855-7.876.004-.005.006-.012.011-.017.348-.354.374-1.866.303-2.998-.921-.917-1.4996-1.647-1.9355-3.081-.4633-1.525 2.5255-2.785 3.1865-1.124z" fill="#b7c9e4"/><path d="m121.654 186.092c.315 1.314-.923 3.059-1.394 3.662-.045.593-.16 1.666-.424 2.376.65-.405 1.361-.754 2.14-1.011.432-.143.826-.307 1.194-.485-.629-.865-1.017-1.601-1.211-2.871-.223-1.461 2.687-2.222 3.074-.61.206.861-.254 1.904-.728 2.692.359-.32.723-.588 1.161-.817 1.235-1.235 1.777-2.605 2.009-3.476-.49-.856-.768-1.549-.813-2.721-.051-1.32 2.61-1.702 2.79-.232.166 1.346-1.462 2.976-1.739 3.242-.232.777-.682 1.843-1.544 2.875.127-.047.256-.095.396-.139 1.41-.444 2.608 2.315 1.074 2.944-1.28.525-3.256-.491-3.877-.843-.502.276-1.061.526-1.689.733-.165.054-.326.114-.484.176.479-.108.997-.153 1.637-.125 1.477.064 1.659 3.067.002 3.133-1.332.054-2.779-1.454-3.297-2.049 0 0-.976.192-3.148 2.823.448-.064 1.013.022 1.464.109 1.078-.519 1.89-.794 3.271-.734 1.477.064 1.66 3.067.003 3.133-1.368.055-2.861-1.541-3.34-2.099-.549-.104-1.313-.218-1.669-.011-.01.006-.02.004-.031.007-1.307 1.822-1.896 3.468-1.907 3.5-.029.08-.116.122-.197.094-.012-.004-.023-.01-.034-.017-.057-.038-.085-.111-.061-.179.017-.05 1.482-4.16 4.977-6.661.004-.004.008-.01.013-.014.365-.28.59-1.663.675-2.711-.723-.964-1.158-1.711-1.368-3.085-.222-1.461 2.688-2.222 3.075-.609z" fill="#b7c9e4"/><path d="m71.1563 202.242c-.1198.179-19.091 0-19.091 0s-3.2983-4.016 2.2534-6.944c3.1396-1.655-2.3343-4.709-.6259-7.941 1.7083-3.234 5.2196.915 6.6974-1.952 1.4779-2.867 4.5892-9.334 5.8701-5.308 1.2808 4.027-4.9418 6.528-.8542 9.518 4.0877 2.989 9.1508 4.514 4.1487 5.612-5.0036 1.097 4.2854 2.999 1.6015 7.015z" fill="#527dba"/><path d="m96.4409 169.633h-34.3569v34.357h34.3569z" fill="#b7c9e4"/><path d="m63.3252 182.52c1.419-1.215 1.0221-3.238 1.1442-4.887.1099-1.486.5214-2.922 1.6839-3.931 3.074-2.671 7.4303-1.4 10.9935-.776 1.7717.311 3.8999.644 5.5731-.224 1.0206-.529 1.9244-1.977 1.5809-3.061h-22.2168v13.322c.3946.042.8099-.074 1.2412-.443z" fill="#f2fbff" opacity=".67"/><path d="m95.1979 175.136c-.5198.534-.6274 1.512-.7015 2.213-.3473 3.275.2344 6.648.2496 9.935.0092 1.813-.1175 3.735-1.019 5.352-.9862 1.769-2.7534 2.678-4.6426 3.195-.7443.204-1.632.312-2.0152 1.072-.4313.854-.2336 1.935-.3588 2.857-.2801 2.063-2.0854 2.892-4.0143 2.567-2.0694-.349-3.9465-1.556-5.6037-2.781-.5931-.438-1.2396-.875-1.935-1.131-.8267-.306-1.1901-.163-1.2435.765-.0259.441-.4404.844-.9068.69-1.7366-.571-3.2961-1.542-5.0006-2.189-1.8496-.702-3.5251-.732-5.364.002-.1862.075-.3725.135-.5595.189v6.121h34.3569v-28.755c-.3107-.452-.8214-.535-1.242-.102z" fill="#202e5a" opacity=".1"/><path d="m84.8897 203.953v-9.141l-1.0114.773-.5946-.773-1.0114-.357-1.0557 1.25-.6099-1.666-1.7847 5.533-.7137-5.057-.6542 1.011-.8328-1.487s-.2824 7.059-.4817 9.915c2.9167.142 5.8334-.164 8.7501-.001z" fill="#6a95d5" opacity=".35"/><path d="m62.084 169.636 8.5073-2.558h30.6987l-4.8491 2.558z" fill="#9cb6df"/><path d="m101.289 167.078v32.245l-4.8486 4.67v-34.357z" fill="#6f95d5"/><path d="m100.973 175.275c-.664 1.289-.47 2.972-.671 4.376-.239 1.678-.5019 3.304-.195 4.991.227 1.247.661 2.542.545 3.823-.063.687-.208 1.691-.8886 2.058-.877.473-1.5946-.47-1.9419-1.158-1.1526-2.287-.9458-5.065-.9274-7.541.0122-1.591.1419-3.195.0526-4.785-.0435-.777-.229-1.424-.5053-2.026v28.977l4.8476-4.67v-24.492c-.11.146-.23.28-.316.447z" fill="#202e5a" opacity=".15"/><path d="m68.0786 201.851h-3.8227v-2.835h3.8227zm-3.5602-.261h3.2976v-2.311h-3.2976z" fill="#385082"/><path d="m66.5444 201.366h-.8969v-.897h.8969zm-.6344-.262h.3726v-.373h-.3726z" fill="#385082"/><path d="m67.4877 201.366h-.8969v-.897h.8969zm-.6343-.262h.3725v-.373h-.3725z" fill="#385082"/><path d="m72.4626 201.851h-3.822v-2.835h3.822zm-3.5602-.261h3.2976v-2.311h-3.2976z" fill="#385082"/><path d="m70.9291 201.366h-.8969v-.897h.8969zm-.6343-.262h.3718v-.373h-.3718z" fill="#385082"/><path d="m71.8715 201.366h-.8969v-.897h.8969zm-.6343-.262h.3725v-.373h-.3725z" fill="#385082"/><path d="m75.5889 169.639v10.292l1.0114-.773.5946.773 1.0114.358 1.0557-1.25.6099 1.666 1.7847-5.533.7137 5.057.6542-1.011.8328 1.487s.4168-10.411.5946-11.065l2.3206-1.249-2.3801.297-.0595-.297h-5.0716z" fill="#6a95d5" opacity=".35"/><path d="m81.4492 167.673.8626-.595h6.2769l-1.1901.803-.1786-.268-1.2793.09-.1786-.416-2.8549.594-.2382-.565z" fill="#6a95d5" opacity=".35"/><path d="m95.876 168.687 2.4297-.032.1252 5.109.4038-.655.1542.208.3671-.438.3443.259.4887-.461v-4.958l-2.439.165.2045.148-.3832.09.626.185z" fill="#6a95d5" opacity=".35"/><path d="m100.189 200.383-.148-3.836-.5065.982-.0794.868-.3961-.333-.2244 1.188-.4039-.654-.1045 3.62z" fill="#6a95d5" opacity=".35"/><path d="m68.7289 167.641h2.874l-.6695.242.2229.124s-.7809.223-.7137.223.5351.146.4687.129c-.0672-.018-1.1046.03-1.1046.03v.131l-3.3907-.185z" fill="#6a95d5" opacity=".35"/><path d="m115.948 204.82 5.737-3.851-.101-12.235-5.659 3.351z" fill="#20416d"/><path d="m115.925 192.088 5.687-3.35-14.569-2.504-7.1123 3.485z" fill="#3f74b2"/><path d="m99.9307 189.719.0221 12.735 15.9952 2.37-.023-12.736z" fill="#3f74b2"/><path d="m113.087 190.799 4.348-2.365-.02-10.973-4.348 2.366z" fill="#5683bf"/><path d="m113.068 179.829 4.348-2.366-14.525-2.041-4.348 2.365z" fill="#3f74b2"/><path d="m98.543 177.781.0206 10.973 14.5244 2.041-.02-10.972z" fill="#3f74b2"/><path d="m103.981 179.4-4.3482-2.365.0206-10.973 4.3476 2.365z" fill="#3f74b2"/><path d="m104.001 168.429-4.3477-2.364 14.5237-2.042 4.348 2.365z" fill="#2e5582"/><path d="m118.525 166.391-.02 10.973-14.525 2.041.021-10.973z" fill="#4d6a97"/><path d="m114.093 168.503 3.967-2.366-.019-10.973-3.967 2.366z" fill="#3e73af"/><path d="m114.074 157.532 3.967-2.366-13.252-2.041-3.967 2.366z" fill="#2e6297"/><path d="m100.822 155.484.019 10.973 13.252 2.041-.019-10.972z" fill="#9297bd"/><path d="m103.532 156.658-3.9382-2.18.0183-10.111 3.9389 2.18z" fill="#3f74b2"/><path d="m103.551 146.545-3.9387-2.18 13.1557-1.881 3.938 2.18z" fill="#a9b9d8"/><path d="m116.706 144.664-.018 10.111-13.156 1.881.019-10.111z" fill="#3f74b2"/><path d="m112.728 150.475c.189.217.283.501.283.851 0 .511-.206.94-.618 1.284-.411.344-1.007.579-1.784.704l-3.153.508v-5.839l2.986-.481c.745-.119 1.312-.074 1.702.139.389.213.584.552.584 1.02 0 .278-.068.538-.205.78s-.33.446-.58.614c.334.063.595.203.785.42zm-3.638-1.562v1.126l1.135-.182c.555-.09.834-.324.834-.702 0-.372-.278-.514-.834-.424zm2.253 2.498c0-.394-.289-.545-.867-.452l-1.385.223v1.184l1.385-.222c.578-.094.867-.338.867-.733z" fill="#f5f6fb"/><path d="m107.361 163.566-.779-.128v1.58l-1.39-.257v-5.839l2.271.246c.466.05.875.186 1.225.407.354.224.629.519.823.886.196.368.293.786.293 1.252 0 .448-.091.826-.274 1.131-.181.304-.44.522-.774.656l1.158 2.135-1.616-.3zm.692-2.75c-.153-.175-.38-.282-.677-.319l-.794-.1v1.742l.794.117c.297.044.523.002.677-.129.153-.131.23-.338.23-.622s-.077-.514-.23-.689z" fill="#f5f6fb"/><path d="m112.341 174.573-2.251.371-.419 1.203-1.536.253 2.35-6.226 1.483-.244 2.358 5.45-1.567.258zm-.441-1.145-.684-1.756-.685 1.981z" fill="#f5f6fb"/><path d="m108.479 181.697v6.117l-1.425-.192-2.699-3.623v3.26l-1.696-.228v-6.117l1.425.192 2.699 3.622v-3.259z" fill="#f5f6fb"/><path d="m105.827 193.758 2.761.452c.64.105 1.207.318 1.702.639.494.32.878.722 1.151 1.206.272.484.408 1.021.408 1.61 0 .59-.137 1.082-.408 1.477-.273.394-.657.671-1.151.829-.495.158-1.062.184-1.702.079l-2.761-.453zm2.695 4.962c.5.083.902.006 1.205-.227.303-.235.454-.602.454-1.102s-.152-.917-.454-1.251c-.303-.333-.705-.541-1.205-.623l-1.043-.171v3.203z" fill="#f5f6fb"/><path d="m164.273 177.093 3.57-1.27-23.58-2.206-24.228 2.206 4.392 3.848 24.377 5.975z" fill="#9cb6df"/><path d="m120.035 175.82 23.706 3.435v26.52l-23.706-4.425z" fill="#6f95d5"/><path d="m138.548 188.68c-.622 1.044-2.134 1.981-2.202 3.276-.079 1.465.784 2.78.342 4.274-.873 2.955-5.015 2.21-7.254 1.935-.703-.087-1.413-.104-2.064.213-.755.367-1.236 1.053-1.845 1.603-1.004.91-2.239 1.55-3.569 1.731l21.785 4.066v-20.194c-.383-.582-4.382 1.733-5.193 3.096z" fill="#202e5a" opacity=".1"/><path d="m134.126 177.864-4.725-.684c.613.134 1.222.283 1.833.416.959.212 1.925.297 2.892.268z" fill="#202e5a" opacity=".15"/><path d="m121.327 181.047c.463.162 1.024.35 1.211-.241.112-.353.092-.752.133-1.118.072-.64.311-1.156.734-1.648.856-.998 2.178-1.279 3.44-1.233l-6.81-.987v4.859c.44.056.87.219 1.292.368z" fill="#f2fbff" opacity=".67"/><path d="m157.991 174.914-6.983-.711-22.066 2.715.076 5.205 2.895.702.472-.878.355 1.183 2.214.615-.274-5.565z" fill="#6a95d5" opacity=".35"/><path d="m133.722 203.817-.235-4.029-1.41-.186-.277.513-.203-.679-3.712-.811-.172 4.11z" fill="#6a95d5" opacity=".35"/><path d="m167.843 175.82v25.244l-24.102 4.711v-26.52z" fill="#b7c9e4"/><path d="m154.653 177.7c1.311 1.018 2.769 1.275 4.42 1.078 1.554-.185 3.003-.678 4.518-.013 1.204.529 2.084 1.588 2.628 2.763 1.207 2.608 1.245 5.892-.684 8.141-.95 1.108-2.286 2.02-2.787 3.447s.079 2.948-.095 4.409c-.201 1.68-1.503 2.582-2.998 3.117-1.822.652-3.659.416-5.498-.005-.849-.194-1.983-.672-2.857-.453-.495.123-.784.664-1.155.979-.985.837-2.387 1.097-3.51.375-2.323-1.493-2.374-4.959-1.48-7.234.303-.773.708-1.542.83-2.371.08-.537.004-1.069-.13-1.591-.142-.247-.27-.502-.382-.75-.434-.963-.773-1.964-1.178-2.938-.091-.22-.186-.449-.288-.68-.082-.135-.18-.26-.267-.392v20.194l24.102-4.712v-25.244z" fill="#202e5a" opacity=".15"/><g fill="#385082"><path d="m148.616 202.948-2.738.464v-2.448l2.738-.464zm-2.55.205 2.362-.4v-1.995l-2.362.401z"/><path d="m147.518 202.719-.643.109v-.774l.643-.109zm-.454-.149.266-.045v-.322l-.266.045z"/><path d="m148.194 202.602-.643.109v-.774l.643-.109zm-.455-.149.267-.045v-.321l-.267.045z"/><path d="m151.757 202.417-2.738.464v-2.448l2.738-.464zm-2.551.206 2.363-.401v-1.995l-2.363.401z"/><path d="m150.659 202.187-.642.109v-.774l.642-.108zm-.455-.149.267-.045v-.322l-.267.045z"/><path d="m151.334 202.071-.643.109v-.774l.643-.109zm-.454-.15.266-.045v-.321l-.266.045z"/><path d="m149.424 189.405c.153.057.272.156.356.297.084.142.126.316.126.526 0 .209-.042.398-.126.566-.083.168-.202.307-.356.417-.154.109-.336.182-.544.217l-.403.068v.728l-.654.11v-2.783l1.057-.18c.208-.034.39-.024.544.034zm-.281 1.252c.068-.081.102-.187.102-.317s-.034-.225-.102-.285c-.069-.06-.169-.079-.304-.056l-.363.062v.815l.363-.061c.135-.023.236-.076.304-.158z"/><path d="m151.654 191.145-.976.166-.182.571-.666.113 1.02-2.956.643-.109 1.023 2.61-.679.116zm-.191-.548-.297-.841-.297.942z"/><path d="m153.167 191.301c-.192-.091-.343-.236-.453-.438-.11-.201-.165-.441-.165-.72 0-.278.055-.536.165-.775s.261-.436.453-.592.41-.254.652-.295c.211-.036.402-.023.571.038.169.062.31.167.422.318l-.415.524c-.15-.192-.331-.27-.544-.234-.126.022-.238.074-.335.157-.098.082-.175.189-.228.318-.053.13-.081.273-.081.429 0 .157.027.291.081.402.054.112.13.193.228.242.097.05.209.064.335.043.213-.036.394-.176.544-.418l.415.383c-.112.188-.253.343-.422.461-.169.119-.36.196-.571.232-.242.041-.46.016-.652-.075z"/><path d="m155.994 189.935-.244.356v.696l-.647.11v-2.784l.647-.11v1.157l.894-1.308.72-.122-.944 1.392.993 1.382-.759.129z"/><path d="m159.022 189.895-.977.166-.181.571-.667.113 1.02-2.956.644-.109 1.022 2.61-.68.115zm-.19-.548-.297-.841-.297.942z"/><path d="m161.584 188.548.577-.098v1.154c-.132.136-.284.249-.455.339-.172.09-.344.15-.515.179-.242.041-.459.016-.653-.074-.194-.091-.345-.237-.455-.438-.11-.202-.165-.441-.165-.72s.055-.537.165-.776.262-.436.459-.592c.196-.156.416-.256.663-.298.215-.036.409-.026.581.033s.314.16.429.306l-.416.523c-.156-.18-.343-.252-.561-.215-.198.033-.357.133-.479.298-.12.164-.182.368-.182.609 0 .154.028.286.083.397.055.112.132.193.23.244.1.051.213.066.34.043.125-.021.244-.071.354-.151z"/><path d="m164.431 188.91v.608l-1.855.315v-2.784l1.812-.307v.609l-1.165.196v.469l1.026-.174v.589l-1.026.174v.509z"/></g><path d="m96.3149 53.6783c-.0909 2.6557-2.3168 4.7342-4.9724 4.6434-2.6549-.0908-4.7342-2.3167-4.6433-4.9724.0908-2.6548 2.3167-4.7341 4.9723-4.6433s4.7342 2.3167 4.6434 4.9723z" fill="#6f95d5"/><path d="m95.8906 53.6611c-.0824 2.4213-2.1121 4.3166-4.5334 4.2334-2.4213-.0824-4.3167-2.1121-4.2335-4.5334.0825-2.4213 2.1122-4.3167 4.5335-4.2335 2.4213.0825 4.3166 2.1122 4.2334 4.5335z" fill="#e5eaf6"/><path d="m88.6262 51.4176c.2381-.3817.4236-.7649.7725-1.0641.3427-.2939.7473-.487 1.1709-.6343.6244-.2161 1.2748-.3153 1.9122-.4756-.2672-.0611-.5412-.1061-.826-.116-1.9068-.0649-3.567 1.0999-4.2281 2.78.4336.1023.9191-.0419 1.1985-.49z" fill="#f2faff" opacity=".49"/><path d="m94.2191 50.6754c-.2198.2717.0214.8335.1191 1.1106.1313.3702.3122.7244.4153 1.1038.261.9626.3702 2.1816-.3252 2.99-.2206.2564-.516.4183-.7611.6465-.2114.197-.3915.4244-.616.6084-.4603.3771-1.0282.532-1.6167.4618-.5771-.0687-1.5595-.503-2.2831-.3916.6404.4092 1.3923.6618 2.2068.6893 2.4213.0824 4.4502-1.8129 4.5334-4.2334.042-1.2229-.4221-2.3442-1.2023-3.1671-.1816-.0107-.3511.0343-.4702.1817z" fill="#202234" opacity=".15"/><path d="m92.9504 55.0854c-.242.2297-.5855.3702-1.0313.4213l-.0221.6535-.7061-.0245.0214-.6297c-.2939-.0298-.5702-.0893-.8305-.1786s-.4748-.1962-.6435-.3199l.4122-.8465c.1801.1282.3908.2336.632.316.2405.0832.4786.1282.7145.1366.4473.0153.6748-.0893.6824-.3129.0038-.1176-.0565-.2069-.1824-.2687-.126-.0611-.329-.1283-.6092-.2008-.3076-.0771-.5641-.158-.7694-.2412s-.3801-.2122-.5229-.3862c-.1435-.1741-.2099-.4038-.2007-.6908.0114-.3374.1427-.6229.3946-.8557.2519-.2329.6076-.3687 1.0687-.4084l.0221-.6473.7061.0236-.0221.6359c.2228.0275.4366.0733.6404.1397.2046.0664.3847.1488.5427.2481l-.3885.8534c-.3855-.226-.7618-.3443-1.1313-.3573-.2313-.0076-.4015.0214-.5099.0863s-.1641.1526-.1679.2626c-.0038.1099.0565.1946.1801.2534.1237.0595.3237.1229.6.1916.3122.0771.5695.158.7725.2412.2031.0832.3779.2114.5229.3832.145.1717.213.4015.203.6878-.0099.3274-.1358.6053-.3778.8343z" fill="#6f95d5"/><path d="m66.2566 148.481c.4886 2.612-1.232 5.125-3.8433 5.614-2.6114.488-5.1251-1.232-5.6136-3.844s1.232-5.125 3.8442-5.613c2.6106-.489 5.1242 1.232 5.6127 3.843z" fill="#6f95d5"/><path d="m65.8389 148.557c.4458 2.381-1.1236 4.672-3.5045 5.118-2.3808.446-4.6723-1.124-5.1181-3.505-.4458-2.38 1.1236-4.672 3.5045-5.118 2.3816-.446 4.6731 1.124 5.1181 3.505z" fill="#e5eaf6"/><path d="m58.2608 147.945c.1496-.425.2473-.838.5229-1.207.271-.362.6229-.638 1.0053-.873.5626-.347 1.1763-.586 1.7633-.881-.274-.001-.5519.014-.8313.067-1.8755.351-3.2426 1.849-3.5228 3.633.4451.006.8878-.24 1.0626-.739z" fill="#f2faff" opacity=".49"/><path d="m63.5594 146.007c-.1557.313.2023.809.358 1.058.2084.333.4618.639.645.987.4633.882.8358 2.048.332 2.989-.1595.298-.4129.52-.6022.797-.1634.238-.2901.499-.4695.728-.3671.468-.8877.743-1.4778.802-.5786.058-1.6312-.152-2.3137.114.7138.26 1.5031.343 2.3038.193 2.3808-.446 3.9502-2.737 3.5045-5.118-.2252-1.202-.9214-2.197-1.8626-2.83-.1778.029-.3328.109-.4175.28z" fill="#202234" opacity=".15"/><path d="m63.2798 150.587c-.1862.277-.4908.489-.9144.636l.1198.643-.6946.13-.1161-.62c-.2931.035-.5763.037-.8495.006-.2733-.031-.5061-.089-.6977-.172l.2183-.916c.2038.085.432.142.6855.171.2534.029.4954.022.7266-.022.4397-.082.6397-.233.5985-.453-.0214-.116-.1008-.19-.2366-.222-.1359-.033-.3489-.054-.6382-.064-.3175-.008-.5855-.031-.8038-.068-.219-.037-.4168-.125-.5946-.264-.1779-.138-.2931-.349-.3458-.63-.0618-.332.0046-.639.1992-.922.1947-.282.513-.492.955-.631l-.1191-.637.6946-.13.1168.626c.2237-.022.442-.023.6557-.003s.4084.061.584.124l-.1939.918c-.4252-.137-.8191-.171-1.1817-.103-.2274.042-.387.107-.4786.194s-.1275.185-.1068.293c.0198.108.0969.178.2312.208.1336.031.3428.05.6275.057.3214.007.5901.03.8068.067.2168.038.4145.125.5939.261s.2954.345.3481.627c.0588.321-.0038.62-.1901.896z" fill="#6f95d5"/><path d="m195.889 90.4264c-.049.0206-.088.0588-.109.1076-.02.0496-.02.1038 0 .1535.3.7221.452 1.4877.452 2.277 0 3.2747-2.664 5.9387-5.939 5.9387s-5.94-2.664-5.94-5.9387 2.664-5.9395 5.94-5.9395c1.416 0 2.787.5068 3.861 1.4259.04.0351.092.0504.146.0473.053-.0046.101-.029.135-.0694.036-.0405.052-.0924.049-.1451-.004-.0534-.029-.1023-.07-.1366-1.146-.9817-2.61-1.5221-4.121-1.5221-3.495 0-6.339 2.8434-6.339 6.3387s2.844 6.3387 6.339 6.3387 6.339-2.8434 6.339-6.3387c0-.8419-.163-1.6595-.484-2.4304-.041-.1-.157-.1489-.259-.1069z" fill="#6f95d5"/><path d="m195.786 92.9609c0 3.0335-2.459 5.4922-5.492 5.4922-3.034 0-5.492-2.4587-5.492-5.4922s2.458-5.4921 5.492-5.4921c3.033 0 5.492 2.4594 5.492 5.4921z" fill="#6f95d5"/><path d="m197.022 87.3131c-.041-.0343-.093-.0519-.146-.0465-.054.0046-.102.0297-.137.071l-6.56 7.7928c-.033.0397-.08.0626-.13.0649-.054.0046-.102-.0168-.139-.0519l-4.057-3.9716c-.078-.0771-.204-.0756-.282.003-.037.0382-.058.0886-.057.142 0 .0535.022.1031.06.1405l4.057 3.9716c.109.1053.257.1664.408.1664l.027-.0008c.162-.0076.314-.0832.419-.2068l6.56-7.7937c.071-.0839.06-.2099-.023-.2809z" fill="#b7c9e4"/></svg>