<svg fill="none" height="178" viewBox="0 0 225 178" width="225" xmlns="http://www.w3.org/2000/svg"><path d="m154.254 20.9399c-20.21 4.024-35.518 19.7598-55.0369 26.1043-29.8735 9.4589-72.9918 17.5573-78.7352 50.6861-11.93747 68.8577 95.5171 79.7527 133.1831 51.0477 48.342-36.84 13.05-76.5355 45.702-106.201 24.219-22.005-30.875-25.6896-45.113-21.6371z" fill="#f0eeff"/><path d="m103.409 48.84c7.693-5.6515 9.878-15.0315 13.84-8.5618 3.965 6.4691-4.146 19.958 3.769 21.6478 7.918 1.6845 5.69-13.5405 11.453-10.5329 5.765 3.0017-2.101 16.2687.683 24.0775.042.1181.093.2118.14.318-3.193 1.8619-6.46 3.598-9.708 5.3644-1.953-1.0087-3.47-2.1799-3.918-4.1522-1.677-7.3549-1.8-11.821-17.548-20.0297-10.5958-5.5228-12.8281-15.1716-13.1591-20.8984 5.6505-4.3106 7.3635 17.9744 14.4481 12.7673z" fill="#a0c5ff"/><path d="m88.9607 36.0703c.3309 5.7269 2.5638 15.3757 13.1593 20.8984 15.747 8.2088 15.87 12.6742 17.547 20.0298.448 1.9728 1.966 3.1434 3.919 4.1521-2.025 1.1012-4.04 2.2179-6.02 3.3915-2.35-3.8857-15.706-3.8347-19.4259-9.1041-4.6392-6.5765 4.9829-11.7095 1.5874-14.3373-3.3951-2.6273-19.257-13.2147-12.3152-23.2961.5471-.7944 1.0616-1.3635 1.5484-1.7343z" fill="#5d74e4"/><path d="m39.3847 140.465c1.9924-8.576-2.0979-16.447 4.5461-14.307 6.6464 2.138 9.0551 16.444 15.5996 12.866 6.5434-3.585-4.1317-12.887 1.697-14.251 5.8275-1.368 8.2747 12.636 14.8974 16.42.1001.057.1918.092.2884.138-1.1168 3.221-2.3602 6.399-3.5728 9.588-1.9694.469-3.7315.563-5.2259-.546-5.5771-4.133-8.3381-7.181-24.2615-3.448-10.7142 2.512-18.0533-2.89-21.7143-6.694 1.3683-6.412 15.9116 8.135 17.746.234z" fill="#a0c5ff"/><path d="m21.639 140.234c3.6616 3.804 11.0008 9.206 21.7143 6.694 15.9235-3.732 18.6845-.685 24.2615 3.448 1.4951 1.109 3.2572 1.015 5.226.546-.7556 1.987-1.4951 3.98-2.1766 5.992-3.9701-1.303-13.275 6.765-19.0309 5.318-7.181-1.806-3.5301-11.181-7.4765-10.976-3.947.205-21.375 2.344-22.5604-8.877-.0947-.886-.0758-1.593.0426-2.145z" fill="#5d74e4"/><path d="m154.463 96.462c4.338 15.975 1.368 18.879-2.594 24.671-3.877 5.661 8.457 14.321-3.289 24.605l-.522 1.798s23.767 7.084 26.918-3.614c3.154-10.696-17.124-7.676-13.548-14.512 3.572-6.837 17.594-9.821 16.003-15.667-1.585-5.848-10.57 5.29-14.419-1.2-3.844-6.492 10.484-9.448 12.396-16.2495 1.916-6.7996-5.866-2.3757-14.58-4.0803-8.026-1.5694 6.103-16.8109-.407-17.9632-3.701 3.8424-8.876 11.4638-5.958 22.212z" fill="#a0c5ff"/><path d="m139.344 105.392c-1.558 7.337 12.045 19.743 3.101 21.031-8.947 1.287-7.416 11.544-7.416 11.544l13.552 7.77c11.745-10.285-.589-18.944 3.288-24.605 3.962-5.793 6.933-8.696 2.594-24.6716-2.919-10.7482 2.258-18.3696 5.958-22.212-.561-.0997-1.274-.0932-2.162.0344-11.263 1.6062-8.476 19.1611-8.127 23.1471.35 3.9861-9.228.6319-10.788 7.9621z" fill="#5d74e4"/><path d="m46.6752 147.52c-.0426-.01-2.2465-.54-4.7759-1.973-.006-.013-.006-.028-.0142-.039-.3162-.43-.2766-1.433-.2179-2.156.6519-.696 2.5004-2.847 2.2381-4.608-.3179-2.13-4.1619-1.474-4.0381.442.1154 1.793.5838 2.804 1.4027 4.123-.0492.594-.0806 1.336.0651 1.906-2.1861-1.336-4.5101-3.347-5.8411-6.277-.3553-.782-.755-1.469-1.1801-2.079.3665-.851 1.3991-3.546.5441-5.124-1.0249-1.894-4.4135.039-3.6444 1.797.077.176.1552.336.2339.493-1.4512-.968-2.8871-1.4-3.9209-1.59-.3819-.321-2.7089-2.195-4.4207-1.793-1.8692.44-1.0054 3.821.6881 3.571 1.5045-.223 2.3595-.678 3.3933-1.431 1.154.18 2.9967.687 4.7606 2.109.505.756 1.0835 1.311 1.8284 1.908.4914.658.9509 1.418 1.3535 2.305.4411.97.9894 1.839 1.6029 2.622-.9522-.241-2.3513-.24-3.1222-.215-.8426-.523-3.2649-1.879-4.9133-1.288-2.0238.725-.6365 4.377 1.2156 3.884 1.742-.463 2.6437-1.129 3.7847-2.199 1.363-.036 3.1767.06 3.5882.494.0059.006.0142.008.0207.014 3.7113 4.163 9.2126 5.479 9.2801 5.494.0906.021.1817-.024.2226-.104.0071-.014.013-.029.0166-.046.0243-.108-.0432-.215-.1504-.24z" fill="#5d74e4"/><path d="m160.693 132.396c-.071 1.495-1.925 2.969-2.611 3.465-.231.617-.685 1.724-1.184 2.399.815-.231 1.678-.382 2.585-.415.828-.03 1.576-.146 2.255-.321.711-.394 1.337-.671 2.096-.825 1.693-.933 2.691-2.224 3.207-3.077-.256-1.063-.337-1.887-.023-3.148.353-1.42 3.296-1.005 3.035.616-.24 1.484-2.472 2.714-2.848 2.912-.487.755-1.293 1.75-2.526 2.582.149-.011.3-.021.463-.025 1.634-.037 2.055 3.271.231 3.465-1.521.163-3.306-1.529-3.857-2.095-.619.138-1.289.23-2.021.257-2.738.1-5.078 1.283-6.84 2.577.496.07 1.071.337 1.522.568 1.304-.218 2.252-.26 3.701.232 1.549.525.816 3.777-.964 3.335-1.47-.364-2.563-2.525-2.9-3.266-.55-.281-1.327-.638-1.768-.528-.012.003-.023-.002-.035-.001-1.951 1.534-3.085 3.104-3.106 3.134-.054.077-.16.095-.237.04-.012-.008-.023-.018-.031-.028-.05-.058-.056-.145-.01-.21.035-.048 2.858-3.969 7.342-5.55.006-.003.011-.009.018-.012.475-.184 1.14-1.586 1.554-2.676-.471-1.249-.702-2.178-.501-3.706.214-1.625 3.54-1.535 3.453.301z" fill="#5d74e4"/><path d="m161.148 112.712c.235 1.387-1.172 3.115-1.702 3.708-.088.614-.283 1.721-.606 2.44.702-.375 1.464-.688 2.29-.901.458-.118.879-.261 1.272-.42-.591-.943-.944-1.735-1.056-3.069-.129-1.535 2.942-2.122 3.23-.419.154.909-.396 1.961-.942 2.747.394-.307.79-.561 1.26-.768 1.368-1.197 2.025-2.584 2.328-3.472-.449-.923-.688-1.664-.653-2.885.04-1.375 2.825-1.586 2.91-.045.077 1.41-1.725 2.989-2.031 3.247-.295.791-.836 1.867-1.802 2.88.135-.04.272-.08.421-.116 1.494-.363 2.543 2.588.908 3.135-1.364.456-3.342-.738-3.962-1.147-.54.252-1.137.471-1.803.643-.174.045-.345.096-.514.149.504-.078 1.045-.089 1.706-.015 1.527.17 1.508 3.303-.216 3.257-1.385-.037-2.781-1.706-3.277-2.36 0 0-1.026.131-3.463 2.714.47-.036 1.051.093 1.511.214 1.154-.463 2.016-.692 3.445-.533 1.528.17 1.508 3.304-.216 3.257-1.424-.038-2.86-1.802-3.318-2.414-.562-.148-1.347-.319-1.73-.129-.01.005-.022.003-.032.006-1.483 1.801-2.209 3.471-2.223 3.503-.034.081-.128.12-.21.085-.013-.006-.024-.012-.035-.02-.056-.043-.079-.122-.05-.19.022-.052 1.828-4.221 5.627-6.576.006-.004.009-.01.015-.014.399-.265.728-1.687.89-2.77-.684-1.053-1.082-1.859-1.204-3.303-.129-1.535 2.943-2.123 3.232-.419z" fill="#fff"/><path d="m105.713 56.5078s-21.226 8.3251-25.8178 14.8761-8.3114 22.4072.7401 23.229" fill="#1732ac"/><path d="m105.713 56.5078s-21.226 8.3251-25.8178 14.8761-8.3114 22.4072.7401 23.229c9.0515.8223 25.0777-38.1051 25.0777-38.1051z" fill="#000141" opacity=".25"/><path d="m153.664 148.777c-2.818 4.608-6.753 8.325-11.265 11.03-.148.09-.299.181-.45.261-26.036 15.228-72.8731 1.62-77.5554-6.134 1.2943-96.8522 76.0064-149.65238 87.7634-32.909.84 8.364 1.362 17.6 1.507 27.752z" fill="#274675"/><path d="m104.671 62.4547c.015 3.9907 4.05 6.1855 9.012 4.9021 4.963-1.2834 8.974-5.5584 8.958-9.5491-.015-3.9908-4.05-6.1855-9.012-4.9021-4.963 1.2833-8.973 5.5583-8.958 9.5491z" fill="#201135" opacity=".1"/><path d="m106.543 60.7068c.013 3.4537 3.505 5.353 7.8 4.2423 4.296-1.1107 7.766-4.8108 7.753-8.2646-.013-3.4537-3.505-5.353-7.8-4.2423-4.295 1.1101-7.766 4.8108-7.753 8.2646z" fill="#000141"/><path d="m109.787 59.9677c2.249 1.5718 8.768-1.5687 10.266-3.8709.434-.6681-.075-1.3534-.184-3.185-.219-3.8246-.558-9.7401-.558-9.8962l-9.444 4.7752-.04 6.3018s-1.243 5.035-.04 5.8751z" fill="#fececc"/><path d="m109.827 54.0926.04.1151s1.07-.9043 3.202-1.6418c2.138-.7428 6.737.7375 6.737.7375l.063-.3916c-.218-3.8246-.558-9.7401-.558-9.8962l-9.444 4.7752z" fill="#201135" opacity=".1"/><path d="m103.957 20.2313s-4.8033 7.2826-1.354 12.9602c3.449 5.6776 23.526 1.8512 23.526 1.8512s9.115-12.3841.986-15.9637c0 0-3.285-6.8298-8.499-6.1303-8.996 1.2069-14.659 7.2826-14.659 7.2826z" fill="#000141"/><path d="m105.353 52.7322c2.542 1.7794 16.933-8.6562 19.381-11.8483.275-.3596.494-.8491.67-1.4376 2.801-.0054 6.034-4.2655 4.564-7.1349-1.03-2.0102-2.885-1.4792-3.971-.9268-.135-4.0157-.608-7.6973-.608-7.6973-.707-4.9893-21.366-4.9893-22.073 0 0-.0006-5.5756 23.7161 2.037 29.0449z" fill="#fececc"/><path d="m127.733 31.9219c.842-.0042 2.248.9689 1.404 3.0681s-2.473 2.9768-2.473 2.9768 2.289-1.9456 1.981-3.6389c-.307-1.694-1.625-2.4025-.912-2.406z" fill="#201135" opacity=".1"/><path d="m126.028 31.142s-.135 3.0301-1.952 3.0438c-.651.0047-.931-10.0244-1.759-10.0262-4.18-.0083-12.322-.2409-18.718-.7434-8.8242-.6936 1.786-12.9181 11.242-12.3669 4.322.2516 8.816 2.4754 10.665 7.657 1.34 3.7564.43 8.2746.522 12.4357z" fill="#000141"/><path d="m117.673 36.3663c.11.6551-.602 1.3214-1.59 1.4881-.988.1668-1.88-.2284-1.99-.8828-.11-.6545.602-1.3208 1.591-1.4881.988-.1668 1.878.2284 1.989.8828z" fill="#000141" opacity=".05"/><path d="m106.476 36.4291c.11.6544-.601 1.3207-1.59 1.4875-.988.1673-1.879-.2285-1.989-.8829-.11-.6545.602-1.3208 1.59-1.4875.989-.1673 1.879.2278 1.989.8829z" fill="#000141" opacity=".05"/><path d="m106.95 30.2703c-.096 0-.189-.0499-.24-.1389-.045-.0771-1.114-1.847-3.735-.6829-.141.0617-.303-.0012-.364-.1412-.062-.1395 0-.3032.14-.3655 3.09-1.373 4.425.8906 4.438.9131.076.1329.03.302-.103.378-.042.0255-.09.0374-.136.0374z" fill="#000141"/><path d="m112.31 30.3202c-.034 0-.068-.0066-.101-.0202-.143-.0564-.212-.2172-.155-.359.01-.0249 1.015-2.4403 4.648-1.6613.149.0314.244.1792.212.3287-.032.1489-.177.2456-.328.213-3.183-.6841-4.011 1.3042-4.019 1.3243-.043.108-.147.1745-.257.1745z" fill="#000141"/><path d="m109.163 37.2533c-.095 0-.189-.0137-.282-.0404-.585-.1709-.833-.8324-.844-.8597-.03-.0825-.019-.1733.028-.2469.991-1.5248.728-3.5843.726-3.6045-.021-.1519.085-.2913.236-.3115.156-.0219.291.0861.311.2374.013.0902.279 2.1751-.727 3.8501.079.1448.228.3465.427.4041.186.0522.414-.0202.675-.2208.121-.0925.295-.0694.387.0517.093.1216.07.2949-.051.388-.307.235-.604.3525-.886.3525z" fill="#000141"/><path d="m104.261 42.5s2.755 2.0974 6.563 1.2798c.454 1.6115-4.475 4.4109-6.563-1.2798z" fill="#fcfaf7"/><path d="m106.112 32.4992c0 .8627-.478 1.5622-1.067 1.5622s-1.066-.6995-1.066-1.5622c0-.8622.477-1.5617 1.066-1.5617s1.067.6995 1.067 1.5617z" fill="#000141"/><path d="m115.709 32.4992c0 .8627-.477 1.5622-1.066 1.5622-.59 0-1.067-.6995-1.067-1.5622 0-.8622.477-1.5617 1.067-1.5617.589 0 1.066.6995 1.066 1.5617z" fill="#000141"/><path d="m107.375 47.2345c-.285-.0653-.46-.1496-.479-.159-.068-.0339-.096-.1163-.062-.1852.033-.0682.116-.0967.184-.0635.011.006 1.133.5388 2.417-.1477.069-.0338.152-.0089.187.0576.036.0676.011.1513-.056.1875-.893.477-1.703.4218-2.191.3103z" fill="#000141" opacity=".05"/><path d="m153.664 148.776c-2.818 4.608-6.753 8.326-11.265 11.03-.148.09-.3.181-.451.262-.924-1.613-1.674-3.056-1.832-3.602-.847-2.946 1.375-5.795 2.296-8.455 3.033-8.761-23.322-1.462-25.447 5.115-7.584 1.572-39.4845 6.402-43.091-1.375 5.9607-2.281 12.5432-.942 18.7425-.729 7.1361.148 15.2515.074 21.0775-4.609 4.447-4.172 6.521-13.659 4.978-19.468-1.822-4.26-7.529-3.431-11.107-5.192 8.116-4.244 7.185-7.555 17.348-10.52 5.359-2.188.658-8.536.233-12.453-.532-6.7189-1.939-14.3343 1.255-20.5691 2.918 14.4536 13.175 25.8611 20.765 37.9501 1.04 2.162 2.86 3.817 4.991 4.862.84 8.365 1.362 17.601 1.507 27.753z" fill="#000141" opacity=".25"/><path d="m41.2803 54.7455c0 .2949.2386.5346.5335.5346.2948 0 .5334-.2391.5334-.5346 0-.2949-.2386-.5346-.5334-.5346-.2949 0-.5335.2392-.5335.5346z" fill="#e7f0fe"/><path d="m37.1904 54.7455c0 .2949.2386.5346.5335.5346.2943 0 .5335-.2391.5335-.5346 0-.2949-.2386-.5346-.5335-.5346s-.5335.2392-.5335.5346z" fill="#e7f0fe"/><path d="m33.1016 54.7455c0 .2949.2386.5346.5334.5346.2943 0 .5335-.2391.5335-.5346 0-.2949-.2386-.5346-.5335-.5346-.2948 0-.5334.2392-.5334.5346z" fill="#e7f0fe"/><path d="m29.0127 54.7455c0 .2949.2386.5346.5335.5346.2943 0 .5335-.2391.5335-.5346 0-.2949-.2387-.5346-.5335-.5346-.2949 0-.5335.2392-.5335.5346z" fill="#e7f0fe"/><path d="m43.417 57.0502c0 .2949.2386.5346.5335.5346.2943 0 .5335-.2391.5335-.5346 0-.2949-.2387-.5346-.5335-.5346-.2943 0-.5335.2397-.5335.5346z" fill="#e7f0fe"/><path d="m39.3281 57.0502c0 .2949.2386.5346.5335.5346.2943 0 .5335-.2391.5335-.5346 0-.2949-.2386-.5346-.5335-.5346s-.5335.2397-.5335.5346z" fill="#e7f0fe"/><path d="m35.2393 57.0502c0 .2949.2386.5346.5334.5346.2943 0 .5335-.2391.5335-.5346 0-.2949-.2386-.5346-.5335-.5346-.2948 0-.5334.2397-.5334.5346z" fill="#e7f0fe"/><path d="m31.1504 57.0502c0 .2949.2386.5346.5335.5346.2943 0 .5335-.2391.5335-.5346 0-.2949-.2387-.5346-.5335-.5346-.2949 0-.5335.2397-.5335.5346z" fill="#e7f0fe"/><path d="m165.028 156.168c.258 0 .466-.209.466-.467s-.208-.467-.466-.467c-.257 0-.466.209-.466.467s.209.467.466.467z" fill="#e7f0fe"/><path d="m161.453 156.168c.258 0 .466-.209.466-.467s-.208-.467-.466-.467c-.257 0-.466.209-.466.467s.209.467.466.467z" fill="#e7f0fe"/><path d="m157.879 156.168c.257 0 .466-.209.466-.467s-.209-.467-.466-.467-.466.209-.466.467.209.467.466.467z" fill="#e7f0fe"/><path d="m153.838 155.701c0 .258.209.467.466.467.258 0 .466-.209.466-.467s-.209-.467-.466-.467c-.258 0-.466.209-.466.467z" fill="#e7f0fe"/><path d="m166.432 157.717c0 .258.209.467.466.467s.466-.21.466-.467c0-.258-.209-.467-.466-.467-.258-.001-.466.209-.466.467z" fill="#e7f0fe"/><path d="m162.856 157.717c0 .258.209.467.466.467.258 0 .466-.21.466-.467 0-.258-.209-.467-.466-.467-.257-.001-.466.209-.466.467z" fill="#e7f0fe"/><path d="m159.281 157.717c0 .258.209.467.466.467.258 0 .466-.21.466-.467 0-.258-.209-.467-.466-.467-.257-.001-.466.209-.466.467z" fill="#e7f0fe"/><path d="m155.707 157.717c0 .258.209.467.466.467.258 0 .466-.21.466-.467 0-.258-.209-.467-.466-.467-.258-.001-.466.209-.466.467z" fill="#e7f0fe"/><path d="m170.819 74.6635c.231 0 .417-.1869.417-.4177s-.186-.4177-.417-.4177c-.23 0-.417.1869-.417.4177.001.2308.187.4177.417.4177z" fill="#fff"/><path d="m170.819 77.8667c.231 0 .417-.1869.417-.4177s-.186-.4178-.417-.4178c-.23 0-.417.187-.417.4178.001.2308.187.4177.417.4177z" fill="#fff"/><path d="m170.819 81.0698c.231 0 .417-.1869.417-.4177s-.186-.4177-.417-.4177c-.23 0-.417.1869-.417.4177.001.2308.187.4177.417.4177z" fill="#fff"/><path d="m170.819 84.2729c.231 0 .417-.1869.417-.4177s-.186-.4177-.417-.4177c-.23 0-.417.1869-.417.4177.001.2308.187.4177.417.4177z" fill="#fff"/><path d="m172.617 72.9917c.23 0 .417-.1869.417-.4177s-.187-.4178-.417-.4178-.417.187-.417.4178c.001.2308.187.4177.417.4177z" fill="#fff"/><path d="m172.617 76.1948c.23 0 .417-.1869.417-.4177s-.187-.4177-.417-.4177-.417.1869-.417.4177c.001.2308.187.4177.417.4177z" fill="#fff"/><path d="m172.617 79.3979c.23 0 .417-.1869.417-.4177s-.187-.4177-.417-.4177-.417.1869-.417.4177c.001.2308.187.4177.417.4177z" fill="#fff"/><path d="m172.617 82.5932c.23 0 .417-.1869.417-.4177s-.187-.4177-.417-.4177-.417.1869-.417.4177c.001.2308.187.4177.417.4177z" fill="#fff"/><path d="m30.5586 89.1733s.5939-.3726 2.0274-1.1831c1.4334-.8105 2.739-3.6449 3.4839-3.2206.7449.4242.4038 4.5989-1.3239 6.0021-1.7272 1.4027-4.0388-.3269-4.1874-1.5984z" fill="#eab2b2"/><path d="m118.941 138.467s-.109-.694-.44-2.31c-.331-1.615.946-4.463.138-4.748-.809-.284-3.728 2.714-3.65 4.941.077 2.227 2.896 2.839 3.952 2.117z" fill="#eab2b2"/><path d="m123.967 109.57c-.15 49.338-65.2862 65.163-88.4618 23.027-7.9739-13.907-7.6826-33.3045.8461-46.9779 23.4918-40.5514 87.8517-23.3008 87.6157 23.9509z" fill="#a0c5ff"/><path d="m116.026 83.2656c-.615 2.352-.073 4.7099.739 6.948.409 1.1303.864 2.2451 1.23 3.3915.343 1.0745.622 2.1751.884 3.2722.525 2.2007.979 4.5717.438 6.8117-.463 1.914-1.559 3.547-2.31 5.344-.412.985-.687 2.015-.762 3.082-.082 1.166.105 2.356.237 3.513.259 2.256.562 4.572.126 6.826-.419 2.173-1.585 4.219-3.354 5.57-1.714 1.307-3.812 1.945-5.83 2.61-.533.175-1.086.329-1.593.568-.429.204-.86.406-1.287.614-.722.35-1.45.711-2.111 1.169-1.149.796-1.81 1.869-1.935 3.272-.159 1.799.324 3.56.633 5.315.199 1.134.279 2.301-.48 3.253-.447.561-1.0461.982-1.6506 1.355-.8449.522-1.7378.979-2.639 1.395-1.71.79-3.5213 1.437-5.0832 2.51-1.5922 1.094-2.7208 2.651-3.031 4.582-.0409.256-.0658.512-.0841.769 19.2899-4.791 35.7289-21.109 35.8049-45.866.051-10.2856-2.96-19.1488-7.942-26.3044z" fill="#000141" opacity=".1"/><path d="m105.104 138.189c15.618-15.651 15.618-41.0255 0-56.6761-15.6182-15.6505-40.9404-15.6503-56.5588.0004-15.6184 15.6508-15.6186 41.0257-.0004 56.6757 15.6181 15.651 40.9404 15.651 56.5592 0z" fill="#5d74e4"/><path d="m40.4674 110.119c-.0698-12.047 5.7008-22.7591 14.6499-29.4436 2.6656-1.9936 5.6137-3.6247 8.7691-4.8267 1.4151-.5459 2.8687-.9963 4.362-1.357 2.6858-.6556 5.4817-1.0057 8.3623-1.0223 3.7628-.022 7.3948.5269 10.8119 1.5699 14.8344 4.5218 25.6664 18.299 25.7614 34.6547.034 5.691-1.238 11.075-3.529 15.884-2.808 5.9-7.155 10.924-12.5255 14.554-1.2606.852-2.5715 1.628-3.9416 2.315-2.9428 1.489-6.1242 2.596-9.4678 3.237-2.1635.416-4.3981.64-6.6854.654-20.0771.117-36.45-16.099-36.5673-36.219z" fill="#fff"/><path d="m113.184 109.691c.033 5.693-1.238 11.077-3.53 15.884-2.809 5.9-7.155 10.925-12.5234 14.557-1.26.85-2.5739 1.628-3.9422 2.311-2.9422 1.491-6.126 2.598-9.469 3.238-.1332.026-.267.05-.4044.072 1.1369-.6 2.2346-1.266 3.2957-1.982 5.3716-3.632 9.7182-8.657 12.5265-14.557 2.2888-4.808 3.5638-10.19 3.5268-15.88-.094-16.3585-10.9269-30.1339-25.7603-34.6557-3.4188-1.0419-7.0502-1.5919-10.8118-1.57-2.1334.0142-4.22.2065-6.2491.5714 1.2996-.6912 2.6532-1.3059 4.0435-1.834 1.4151-.5423 2.8699-.9944 4.3608-1.3564 2.6858-.6544 5.4835-1.0057 8.3641-1.0199 3.7616-.022 7.3936.5245 10.8118 1.57 14.834 4.5212 25.667 18.2966 25.761 34.6516z" fill="#e7f0fe"/><g fill="#a0c5ff"><path d="m44.0595 113.687c-.0071-.062-.016-.124-.0231-.187-.0071-.062-.0118-.125-.0184-.188l-.8881.099.0414.374z"/><path d="m96.2236 136.599.5252.716.3032-.223-.5264-.717c-.1001.075-.2007.15-.302.224z"/><path d="m45.2247 110.221-.0023-.377-2.279.013.0023.377z"/><path d="m98.9072 134.419.5969.657.2783-.254-.5987-.658c-.0911.086-.1835.171-.2765.255z"/><path d="m44.5511 102.977-.8698-.18-.0758.369.8686.18c.0243-.123.0509-.246.077-.369z"/><path d="m44.6388 117.095c-.0136-.061-.029-.122-.0426-.183-.0136-.062-.0249-.124-.0379-.185l-.8728.191.08.368z"/><path d="m49.4199 129.815.2227.304.7152-.527c-.0752-.101-.1504-.201-.2238-.303z"/><path d="m56.918 137.324.3061.219.5181-.723c-.1025-.072-.2049-.145-.3067-.218z"/><path d="m59.8714 80.4503-.3245.1903 1.1514 1.9714.3245-.1903z"/><path d="m54.1611 135.085.2813.251.5903-.665c-.0941-.082-.1883-.165-.2818-.249z"/><path d="m51.6523 132.575.2535.279.6566-.6c-.0853-.092-.1705-.184-.2546-.277z"/><path d="m101.349 131.971.662.59.251-.281-.664-.592c-.083.094-.165.189-.249.283z"/><path d="m44.0112 106.4-.8841-.088-.0373.375.8829.088c.0118-.125.0254-.249.0385-.375z"/><path d="m45.3293 99.9961c.0373-.1198.0764-.2397.1155-.3583 0-.0006 0-.0006 0-.0006l-.8461-.27-.1143.359z"/><path d="m103.521 129.276.721.518.22-.306-.722-.519c-.073.102-.145.206-.219.307z"/><path d="m49.2716 94.3406.1865-.3275-1.9806-1.1303-.1178.2077-.0687.1198z"/><path d="m108.142 99.452c.019.0599.037.1199.056.1798l.848-.2818-.118-.3578-.848.2812c.02.06.042.1187.062.1786z"/><path d="m46.6823 96.4041-.8135-.3572-.151.3453.8123.3566c.0498-.1157.1013-.2302.1522-.3447z"/><path d="m109.013 102.605c.013.061.029.122.042.184s.025.123.038.185l.872-.191-.08-.369z"/><path d="m60.6078 138-.7152 1.258.3268.186 1.128-1.984-.3269-.187z"/><path d="m66.6337 141.297-.2694.848.3582.114.2694-.846c-.1196-.038-.2392-.078-.3582-.116z"/><path d="m62.8173 78.9344-.1249.0564.3683.8158c.0574-.0261.1131-.054.1705-.0795.0574-.0261.1149-.0498.1723-.0753l-.3683-.8159z"/><path d="m109.592 106.013c.007.063.016.125.023.187.007.063.012.125.018.188l.888-.099-.041-.375z"/><path d="m57.427 83.1062-.5252-.7156-.3032.2231.5264.7174c.1001-.0754.2001-.1513.302-.2249z"/><path d="m63.4098 140.055-.3571.815.3446.152v-.001l.1978-.451.1587-.363c-.1155-.05-.2297-.102-.344-.152z"/><path d="m49.6443 126.005-.19-.325-1.967 1.154.1895.325h.0006z"/><path d="m50.1287 90.4164-.7206-.518-.2196.3062.7218.5186c.0734-.1021.145-.2053.2184-.3068z"/><path d="m52.3021 87.7316-.6626-.591-.2499.2813.6638.5921c.0823-.0943.1646-.1887.2487-.2824z"/><path d="m65.9883 77.6812.2806.8496c.0598-.0201.1185-.0421.1783-.0617.0598-.0202.1196-.0374.1794-.0569l-.2813-.8497z"/><path d="m45.5092 120.25c-.0195-.06-.0373-.12-.0568-.18l-.8479.282.1184.358.8479-.281c-.0207-.06-.042-.119-.0616-.179z"/><path d="m46.7653 123.47c-.026-.057-.0497-.115-.0752-.173l-.8141.369.1551.343.8142-.369c-.0267-.056-.0533-.112-.08-.17z"/><path d="m54.7443 85.2818-.5969-.6568-.2783.2539.5987.6581c.0911-.0855.1829-.1709.2765-.2552z"/><path d="m108.322 119.703c-.038.121-.077.239-.116.359l.846.27.114-.359z"/><path d="m104.379 125.359-.187.328 1.982 1.131.086-.152.099-.176z"/><path d="m104.231 89.8819-.222-.3038-.716.5275c.075.1009.15.2011.224.3032z"/><path d="m90.2523 78.6797-.039.089-.3168.7244c.1149.0499.2291.1015.344.1525l.3564-.8152z"/><path d="m69.791 143.06.3683.076.1794-.871c-.1231-.025-.2457-.051-.3683-.077z"/><path d="m92.9442 137.091-.3251.19 1.1512 1.972.3251-.191z"/><path d="m95.9092 82.8789c.1024.0724.2048.1448.3067.219l.5169-.7221-.3055-.2196z"/><path d="m98.6182 85.0245c.0941.0831.1883.1655.2818.2498l.5897-.6639-.2812-.251z"/><path d="m109.639 113.297.884.088.037-.375-.883-.088c-.012.125-.025.25-.038.375z"/><path d="m108.426 109.474v.001l.002.376 2.279-.013-.002-.377z"/><path d="m109.1 116.721.869.179.077-.369-.869-.179c-.025.123-.051.245-.077.369z"/><path d="m106.969 123.29.813.357.151-.345-.812-.357c-.049.115-.101.231-.152.345z"/><path d="m105.973 92.5391-1.967 1.1534.19.3257 1.967-1.154z"/><path d="m106.806 96.0566c.026.0575.054.1133.079.1708.025.0576.05.1151.075.1727l.814-.3691-.155-.3435z"/><path d="m101.088 87.443c.085.0926.17.1845.254.2777l.656-.5981-.253-.2788z"/><path d="m83.4919 76.5625-.1794.8704c.1232.0249.2457.0516.3683.0777l.1794-.8716z"/><path d="m80.4654 142.703c-.0621.007-.1249.012-.1871.018l.0983.89.3742-.042-.0989-.889c-.0621.007-.1243.016-.1865.023z"/><path d="m90.5899 139.891c-.0568.026-.1131.054-.1699.079-.0575.026-.1155.05-.1729.075l.3683.816.1314-.06.2114-.095z"/><path d="m73.3816 142.734-.0877.886.3743.038.0876-.884c-.1249-.012-.2493-.027-.3742-.04z"/><path d="m83.8732 142.144c-.0616.014-.1231.025-.1847.038l.1906.875.3677-.081-.1906-.874c-.0616.014-.122.029-.183.042z"/><path d="m86.6582 78.292c.1196.0374.2386.0771.3582.1157l.2694-.8479-.3582-.1145z"/><path d="m69.771 76.6406-.3677.0807.1907.8746c.061-.0142.1214-.0291.1829-.0427.0616-.0137.1226-.0249.1842-.038z"/><path d="m87.3805 141.172c-.0598.02-.1179.042-.1777.062-.0598.019-.1196.037-.1794.057l.2807.849.357-.118z"/><path d="m72.8994 76.1281.0983.8894c.0622-.0071.1243-.016.1865-.0232.0622-.0071.125-.0118.1871-.0184l-.0983-.89z"/><path d="m79.8945 76.9315c.125.0119.2499.0255.3742.0386h.0006l.0877-.8858-.3742-.0374z"/><path d="m92.3027 82.2425.3269.1863.2522-.4444.8757-1.5403-.3268-.1863z"/><path d="m77.1992 141.521-.376.002.0131 2.285.376-.002z"/><path d="m76.817 75.8962-.3766.0022.0135 2.2844.3766-.0023z"/></g><path d="m79.2419 109.835c.0071 1.283-1.0255 2.33-2.3068 2.338s-2.3264-1.027-2.3335-2.311c-.0077-1.284 1.0249-2.331 2.3068-2.339 1.2814-.007 2.3258 1.028 2.3335 2.312z" fill="#5d74e4"/><path d="m92.5598 90.0193-15.6262 18.5967 1.2576 1.243 18.3896-15.8667.9468-4.9923z" fill="#5d74e4"/><path d="m77.3473 111.604c.6211-.127 1.1475-.592 1.3121-1.249.2291-.913-.3233-1.839-1.2339-2.069-.9107-.229-1.835.324-2.0641 1.237-.1682.669.087 1.344.5933 1.747l-5.5475 16.017 1.2328 3.513 2.7746-2.477z" fill="#a0c5ff"/><path d="m151.528 100.625s13.408 30.766.02 33.15c-13.387 2.384-19.898-25.266-19.898-25.266z" fill="#fececc"/><path d="m116.964 146.551c1.509.831 26.492-3.89 37.481-13.987 10.989-10.098-9.512-16.575-16.782-12.23s-20.432 17.425-20.432 17.425-4.973 6.203-.267 8.792z" fill="#fececc"/><path d="m137.258 141.531c-.436-.038-.875.044-1.299.14-.567.13-1.122.285-1.702.353-1.389.164-2.791.028-4.183.136-.69.054-1.353.186-2.014.39-.552.17-1.095.368-1.644.544-1.094.35-2.281.669-3.434.462-.549-.098-1.101-.321-1.517-.703-.34-.312-.536-.726-.587-1.183-.104-.929.261-1.859-.005-2.777-.272-.937-1.027-1.596-1.846-2.067-.178-.103-.361-.197-.546-.287-.791.767-1.248 1.222-1.248 1.222s-4.975 6.202-.268 8.792c.937.515 10.91-1.107 20.971-4.825-.208-.109-.437-.175-.678-.197z" fill="#eab2b2" opacity=".5"/><path d="m154.173 109.269c-.529 2.078-1.943 3.76-3.826 4.761-1.829.973-3.896 1.127-5.927 1.183-.745.021-1.492.019-2.236.074-.394.03-.791.073-1.175.167-.298.073-.627.175-.85.397-.434.432-.303 1.056.177 1.372.503.333 1.148.443 1.732.536.903.146 1.814.276 2.703.49 1.077.257 2.243.668 3.023 1.495.608.643.878 1.501.843 2.373-.014.347-.036.719-.164 1.046-.024.062-.052.131-.099.18-.037.038-.033.033-.061.032-.133-.006-.3-.144-.406-.213-.288-.19-.55-.415-.832-.613-.437-.309-.985-.514-1.475-.719-1.188-.498-2.41-.958-3.658-1.278-1.216-.313-2.462-.511-3.716-.588-.883-.054-1.768-.038-2.653-.063-2.625-5.886-3.923-11.392-3.923-11.392l19.878-7.884s1.397 3.207 2.839 7.628c-.047.342-.108.682-.194 1.016z" fill="#eab2b2" opacity=".5"/><path d="m131.81 62.938s30.154 35.6653 23.902 44.179c-6.252 8.514-19.988 8.326-24.85 4.544-4.863-3.783-9.636-54.3608.948-48.723z" fill="#274675"/><path d="m127.272 81.7509c.853 2.3775 1.863 4.7063 3.089 6.9165.569 1.0271 1.187 2.0286 1.865 2.9874.617.8734 1.308 1.6756 2.009 2.4814.565.6497 1.099 1.3243 1.42 2.133.4 1.0116.498 2.1538.393 3.2295-.122 1.2433-.445 2.4623-.472 3.7163-.013.615.045 1.234.226 1.825.143.469.397.908.658 1.32 1.131 1.779 2.847 3.168 4.653 4.216.908.527 1.863.978 2.854 1.326.787.276 1.615.512 2.449.586.728.065 1.462.06 2.196.033-6.511 2.681-14.328 1.805-17.75-.858-2.885-2.244-5.579-21.0198-5.084-34.7489.428 1.6328.925 3.2485 1.494 4.8368z" fill="#000141" opacity=".1"/><path d="m29.9018 88.0938s13.2862 2.6949 13.0666 5.2296c-.1031 1.1855-4.6652.6705-8.2025.0943 4.2993.8621 7.949 2.0987 7.2433 3.2829-.543.9108-4.4254.4237-7.9674-.0094 2.401.5185 7.306 1.7307 7.0342 2.7696-.4618 1.7622-5.3941.7772-8.7099.0398 1.9439.5734 6.9454 2.0264 6.7068 2.9794-.2114.843-1.3701 1.348-5.5362.404-2.4312-.55-2.459-.066-3.5153-.534-.8153-.361-1.6999-.645-2.2139-1.259-2.4774-2.9592.0421-12.4781 2.0943-12.9972z" fill="#fececc"/><path d="m38.703 102.543c.0349-.461-1.2772-1.094-1.4353-1.049 0 0-.3097 1.145-.2736 1.364.0356.219 1.6739.145 1.7089-.315z" fill="#e7f0fe" opacity=".5"/><path d="m40.7401 99.5825c.0355-.4604-1.2778-1.0935-1.4359-1.049 0 0-.3091 1.1445-.2729 1.3635.0361.219 1.6744.146 1.7088-.3145z" fill="#e7f0fe" opacity=".5"/><path d="m41.6907 96.3091c.035-.4604-1.2777-1.0941-1.4352-1.049 0 0-.3097 1.1445-.273 1.3635.0355.2189 1.6733.1453 1.7082-.3145z" fill="#e7f0fe" opacity=".5"/><path d="m42.5506 93.0663c.0355-.4604-1.2772-1.0935-1.4352-1.0484 0 0-.3097 1.1445-.2736 1.3635.0355.2189 1.6745.1454 1.7088-.3151z" fill="#e7f0fe" opacity=".5"/><path d="m32.8833 99.6532-4.018-1.7592s-1.2316 1.1463-.3896 2.819c0 0-1.919-1.5303-.6667-6.3832 1.2535-4.8529 1.9652-5.3376 1.9652-5.3376s-.3807 1.5118.4322 2.6231c.1812.2486 4.4988 1.7753 4.2223 1.7106-.2759-.0647-4.2939-.8182-4.2939-.8182l-.5151 2.0577 3.8824 1.9224-4.1376-1.1244-.3677 1.7723z" fill="#eab2b2" opacity=".25"/><path d="m118.269 136.799s-13.351-2.35-14.069.091c-.336 1.141 4.099 2.33 7.602 3.088-4.317-.77-8.165-.953-7.939.408.175 1.046 3.966 2.012 7.422 2.905-2.424-.395-7.433-1.061-7.558.006-.212 1.81 4.74 2.696 8.094 3.222-2.018-.176-7.204-.653-7.329.321-.11.862.785 1.756 5.008 2.402 2.464.376 2.313.837 3.467.788.891-.038 1.817.021 2.52-.363 3.383-1.85 4.504-11.634 2.782-12.868z" fill="#fececc"/><path d="m104.811 147.032c.135-.441 1.588-.55 1.719-.451 0 0-.129 1.178-.243 1.369-.112.191-1.611-.476-1.476-.918z" fill="#e7f0fe" opacity=".5"/><path d="m103.996 143.532c.135-.441 1.587-.55 1.719-.451 0 0-.129 1.179-.243 1.369-.113.191-1.612-.477-1.476-.918z" fill="#e7f0fe" opacity=".5"/><path d="m104.302 140.134c.135-.441 1.588-.551 1.718-.451 0 0-.129 1.178-.243 1.369-.112.191-1.61-.477-1.475-.918z" fill="#e7f0fe" opacity=".5"/><path d="m104.682 136.805c.135-.441 1.587-.55 1.718-.451 0 0-.129 1.179-.242 1.37-.113.19-1.612-.478-1.476-.919z" fill="#e7f0fe" opacity=".5"/><path d="m111.285 146.469 4.382-.169s.729 1.518-.665 2.768c0 0 2.345-.724 2.946-5.7s.114-5.688.114-5.688-.196 1.547-1.357 2.283c-.26.165-4.835.008-4.555.049s4.296.809 4.296.809l-.27 2.104-4.315.371 4.262.466-.303 1.784z" fill="#eab2b2" opacity=".25"/><path d="m175.183 65.626-7.767-10.009-18.584-26.7967h26.351z" fill="#5d74e4"/><path d="m172.373 28.0625h-26.352v3.9955h26.352z" fill="#5d74e4"/><path d="m172.373 66.2782s1.406-2.5667 2.811-.6538c0-1.6904-2.811-14.9603-2.811-14.9603z" fill="#5d74e4"/><path d="m172.373 32.0547h-26.352v34.2217h26.352z" fill="#a0c5ff"/><path d="m172.373 28.0625-.117 3.9955 2.928.5933v-3.8311z" fill="#1732ac"/><path d="m172.373 32.0547h-26.352s.373 15.8289-7.357 26.611c4.447 4.2666 16.854 5.6901 26.893 3.077 3.576-.9309 6.816-29.688 6.816-29.688z" fill="#fff"/><path d="m151.176 36.0473h1.328v.6029h-1.328v1.189h-.774v-2.972h2.231v.6028h-1.457z" fill="#5d74e4"/><path d="m155.821 37.8392h-.843c-.068-.2112-.112-.3833-.137-.5945-.039-.3275-.168-.5168-.366-.5299-.085-.0041-.159-.0041-.245-.0041h-.172v1.1285h-.774v-2.972h1.178c.185 0 .305.0041.464.0213.43.0517.804.2629.804.7886 0 .375-.202.6248-.597.7405.309.1121.421.3405.464.6977.039.3364.108.5477.224.7239zm-1.483-1.6886c.081 0 .15 0 .206-.0042.197-.0172.378-.086.378-.3358s-.159-.3186-.357-.3358c-.056-.0042-.124-.0042-.206-.0042h-.301v.6806h.28z" fill="#5d74e4"/><path d="m156.454 37.8392v-2.972h.774v2.972z" fill="#5d74e4"/><path d="m160.798 36.3143c0 .9304-.568 1.43-1.256 1.5077-.15.0172-.219.0172-.378.0172h-1.122v-2.972h1.122c.159 0 .228 0 .378.0172.688.0771 1.256.4996 1.256 1.4299zm-.809.0131c0-.5299-.266-.8141-.653-.8485-.099-.0089-.168-.0089-.28-.0089h-.241v1.7658h.241c.112 0 .181 0 .28-.0089.386-.0338.653-.3697.653-.8995z" fill="#5d74e4"/><path d="m162.166 37.0679-.249.7713h-.821l1.07-2.972h.946l1.07 2.972h-.842l-.249-.7713zm.189-.6035h.55l-.275-.9131z" fill="#5d74e4"/><path d="m165.817 37.8392h-.774v-1.1368l-1.044-1.8352h.869l.584 1.176.563-1.176h.847l-1.045 1.8352z" fill="#5d74e4"/><path d="m155.819 51.0445v1.907h-7.271v-1.0621l2.949-2.7785c1.4-1.3214 1.875-1.9753 1.875-2.8736 0-.7084-.394-1.1036-1.06-1.1036-.707 0-1.06.4498-1.155 1.43l-.013.1358h-2.447l.014-.1358c.203-2.0702 1.508-3.2278 3.805-3.2278 2.189 0 3.411 1.049 3.411 2.8059 0 1.103-.502 1.9479-2.31 3.6911l-1.251 1.2122h3.453z" fill="#000141"/><path d="m165.754 50.156c0 1.7978-1.468 2.9827-3.833 2.9827-2.378 0-3.765-1.1576-3.955-3.0373l-.014-.1364h2.447l.027.1364c.136.6539.598 1.2395 1.4 1.2395.843 0 1.373-.4765 1.373-1.1167 0-.8039-.585-1.2121-1.563-1.2531l-.367-.0136v-1.5801l.367-.0273c.897-.0682 1.345-.5583 1.345-1.1985 0-.6129-.367-.9944-1.046-.9944-.721 0-1.02.5856-1.074 1.1985l-.014.1365h-2.447l.014-.1365c.163-1.58 1.332-2.9963 3.765-2.9963 2.298 0 3.357 1.1712 3.357 2.5062 0 1.103-.557 1.8388-1.78 2.1384 1.332.2587 1.998.9398 1.998 2.152z" fill="#000141"/><path d="m41.1744 47.0627c-2.8421 0-5.1549-2.317-5.1549-5.1656v-12.1847c0-2.848 2.3122-5.1655 5.1549-5.1655h44.4588c2.8421 0 5.1549 2.3169 5.1549 5.1655v12.1847c0 2.848-2.3122 5.1656-5.1549 5.1656z" fill="#e7f0fe"/><path d="m41.1747 25.6328h44.4588c2.2494 0 4.0731 1.8275 4.0731 4.0816v12.1846c0 2.2541-1.8237 4.0816-4.0731 4.0816h-44.4588c-2.2495 0-4.0731-1.8275-4.0731-4.0816v-12.1846c0-2.2541 1.8236-4.0816 4.0731-4.0816z" fill="#fff"/><path d="m37.1016 32.5742v-2.8598c0-2.2541 1.8236-4.0816 4.0731-4.0816h44.4588c2.2494 0 4.0731 1.8275 4.0731 4.0816v2.8598z" fill="#5d74e4"/><path d="m46.9097 30.1048-.2517.7791h-.8289l1.0806-3.0011h.9551l1.0811 3.0011h-.8508l-.2517-.7785h-.9337zm.1906-.6087h.5554l-.2777-.9221z" fill="#fff"/><path d="m51.8923 28.8565c0 .5915-.395.9007-.829.9529-.1604.0172-.2824.0219-.4689.0219h-.347v1.0526h-.7816v-3.0011h1.1286c.1865 0 .3085.0042.4689.022.434.0516.829.3601.829.9517zm-.816 0c0-.2261-.1172-.3436-.3167-.3608-.0563-.0041-.1261-.0041-.2084-.0041h-.3038v.731h.3038c.0823 0 .1521 0 .2084-.0042.1995-.0178.3167-.1359.3167-.3619z" fill="#fff"/><path d="m54.9264 28.8565c0 .5915-.3949.9007-.8289.9529-.1605.0172-.2824.0219-.4689.0219h-.347v1.0526h-.7816v-3.0011h1.1286c.1865 0 .3084.0042.4689.022.434.0516.8289.3601.8289.9517zm-.8159 0c0-.2261-.1172-.3436-.3167-.3608-.0563-.0041-.1262-.0041-.2085-.0041h-.3037v.731h.3037c.0823 0 .1522 0 .2085-.0042.1995-.0178.3167-.1359.3167-.3619z" fill="#fff"/><path d="m58.4856 29.382c0 .9612-.5992 1.5616-1.5323 1.5616-.9332 0-1.5324-.6004-1.5324-1.5616 0-.9654.5992-1.5617 1.5324-1.5617.9331 0 1.5323.5957 1.5323 1.5617zm-.7981 0c0-.6396-.2825-.9873-.7336-.9873-.4512 0-.7337.3477-.7337.9873 0 .6348.2825.9873.7337.9873.4511 0 .7336-.3525.7336-.9873z" fill="#fff"/><path d="m59.1943 30.8839v-3.0011h.7816v3.0011z" fill="#fff"/><path d="m62.6403 30.8845-1.0895-1.9835c.0261.3044.0261.5696.0261.7434v1.2395h-.781v-3.0011h.9722l1.1375 2.0707c-.0219-.3043-.0261-.6135-.0261-.7873v-1.2834h.7816v3.0011h-1.0208z" fill="#fff"/><path d="m65.9476 28.4916v2.3923h-.781v-2.3923h-.9723v-.6088h2.7261v.6088z" fill="#fff"/><path d="m70.8876 30.8839h-.781v-1.2614c0-.2611 0-.648.0089-.9529-.0521.3044-.1391.6871-.2084.9529l-.3298 1.2614h-.8029l-.3345-1.2614c-.0693-.2611-.1563-.648-.2043-.9529.0089.3044.0089.6912.0089.9529v1.2614h-.7816v-3.0011h1.2197l.5081 2.2398.5074-2.2398h1.1895z" fill="#fff"/><path d="m74.0042 30.8839h-2.2962v-3.0011h2.253v.6088h-1.4714v.5826h1.3843v.6088h-1.3843v.5915h1.5146z" fill="#fff"/><path d="m76.5657 30.8845-1.0895-1.9835c.0261.3044.0261.5696.0261.7434v1.2395h-.7816v-3.0011h.9722l1.1369 2.0707c-.0219-.3043-.0261-.6135-.0261-.7873v-1.2834h.7816v3.0011h-1.0196z" fill="#fff"/><path d="m79.873 28.4916v2.3923h-.7816v-2.3923h-.9723v-.6088h2.7261v.6088z" fill="#fff"/><path d="m47.8739 35.3516c-2.0451 0-3.703 1.6613-3.703 3.7107 0 2.0493 1.6579 3.7107 3.703 3.7107 2.0452 0 3.7031-1.6614 3.7031-3.7107 0-2.0494-1.6579-3.7107-3.7031-3.7107zm0 6.8108c-1.7094 0-3.0973-1.3872-3.0973-3.1001 0-1.713 1.3879-3.1002 3.0973-3.1002s3.0938 1.3872 3.0938 3.1002c0 1.7129-1.3844 3.1001-3.0938 3.1001z" fill="#a0c5ff"/><path d="m48.359 39.0586c0 .27-.2179.4883-.4873.4883s-.4879-.2183-.4879-.4883c0-.2699.2185-.4883.4879-.4883s.4873.2184.4873.4883z" fill="#a0c5ff"/><path d="m47.8722 36.4375c-.1723 0-.3126.14-.3126.3133v2.1757c0 .1733.1397.3133.3126.3133s.3126-.14.3126-.3133v-2.1757c0-.1733-.1397-.3133-.3126-.3133z" fill="#a0c5ff"/><path d="m49.6994 37.3339c-.122-.1223-.3198-.1223-.4417 0l-1.5354 1.5385c-.1219.1222-.1219.3204 0 .4426.122.1222.3198.1222.4418 0l1.5353-1.5385c.1225-.1222.1225-.3204 0-.4426z" fill="#a0c5ff"/><path d="m65.6205 36.2109h-9.7425c-.2398 0-.4618.1644-.5003.4011-.0491.302.1824.5631.4749.5631h9.7685c.2659 0 .4814-.216.4814-.4824-.0006-.2658-.2161-.4818-.482-.4818z" fill="#a0c5ff"/><path d="m84.2277 36.2109h-16.9905c-.2658 0-.4813.216-.4813.4824s.2155.4824.4813.4824h17.0165c.2925 0 .5235-.2611.4749-.5631-.0391-.2373-.2611-.4017-.5009-.4017z" fill="#a0c5ff"/><path d="m69.8203 38.5781h-13.9423c-.2398 0-.4618.1644-.5003.4011-.0491.302.1824.5631.4749.5631h13.9683c.2659 0 .4814-.216.4814-.4824-.0006-.2658-.2161-.4818-.482-.4818z" fill="#a0c5ff"/><path d="m69.8203 40.9453h-13.9423c-.2398 0-.4618.1638-.5003.4011-.0491.302.1824.5631.4749.5631h13.9683c.2659 0 .4814-.216.4814-.4824-.0006-.2658-.2161-.4818-.482-.4818z" fill="#a0c5ff"/><path d="m84.2271 38.5781h-12.7906c-.2659 0-.4814.216-.4814.4824s.2155.4824.4814.4824h12.8167c.2925 0 .524-.2611.4748-.5631-.0384-.2373-.2611-.4017-.5009-.4017z" fill="#a0c5ff"/></svg>