<svg fill="none" height="70" viewBox="0 0 69 70" width="69" xmlns="http://www.w3.org/2000/svg"><path d="m68.824 20.3918v25.2928c-.998-.4818-2.0992-.8259-3.338-1.0324l-1.0668-.172-.8947-1.8583c-1.8926-3.8541-4.9897-6.0909-8.4653-6.0909s-6.5727 2.2368-8.4654 6.0909l-.9291 1.8583-1.0324.172c-4.095.6883-7.0544 2.9595-8.1212 6.1942-1.0324 3.2691.0344 6.848 2.9594 9.8074l1.0668 1.0668-.1032.4129c-.6883 3.0627-.413 5.4027.2409 7.0889h-20.6816c-12.526 0-19.9934-7.4674-19.9934-19.9934v-28.8372c0-12.52596 7.4674-19.993362 19.9934-19.993362h28.8372c12.526 0 19.9934 7.467402 19.9934 19.993362z" fill="#7e92ee" opacity=".4"/><path d="m58.9136 44.9214 1.1011 2.2368c.5506 1.1012 1.9615 2.1336 3.1315 2.34l1.4797.2409c4.508.7571 5.5404 4.0606 2.3401 7.2954l-1.3765 1.3764c-.9291.9292-1.4109 2.7186-1.1356 4.0262l.172.8259c1.2389 5.4371-1.6517 7.5362-6.3662 4.6801l-.9979-.6195c-1.2044-.7226-3.2003-.7226-4.4048 0l-.9979.6195c-4.7489 2.8561-7.605.757-6.3662-4.6801l.172-.8259c.2753-1.2732-.2064-3.097-1.1356-4.0262l-1.3764-1.3764c-3.2003-3.2692-2.168-6.5383 2.34-7.2954l1.4797-.2409c1.2044-.2064 2.5809-1.2388 3.1315-2.34l1.1012-2.2368c2.1335-4.3015 5.5747-4.3015 7.7083 0z" fill="#6258a6"/><path clip-rule="evenodd" d="m48.6233 20.7522c1.1267.8732 1.3321 2.4944.4587 3.621l-7.9643 10.2744c-2.0472 2.5888-5.8218 3.0609-8.4547 1.0265l-.0182-.0141-6.2855-4.9461c-.3883-.2949-.9299-.2216-1.2249.159-.0002.0004.0003-.0003 0 0l-8.1884 10.6313c-.8697 1.129-2.4903 1.3393-3.6195.4697-1.1293-.87-1.3396-2.4904-.4699-3.6198l8.1926-10.6363c2.0438-2.6449 5.8332-3.123 8.4724-1.0836l.0179.0139 6.2856 4.9461c.3923.298.9453.2213 1.2382-.1418l7.9392-10.2416c.8734-1.1266 2.4945-1.3319 3.6208-.4586z" fill="#292d32" fill-rule="evenodd"/></svg>