<svg fill="none" height="25" viewBox="0 0 25 25" width="25" xmlns="http://www.w3.org/2000/svg"><path d="m11.8685 12.0168c-.2802-.7143-.3209-1.4694-.1185-2.1983.519 0 .4695 1.7292.1185 2.1983zm-.1065 2.2129c-.4931 1.0113-1.0863 1.9935-1.7745 2.9385 1.2664-.4307 2.5823-.7745 3.9315-1.0271-.8882-.5179-1.6228-1.1688-2.157-1.9114zm-5.8815 5.8501c0 .0371.825-.2531 2.181-1.8844-.88279.5159-1.62351 1.1555-2.181 1.8833zm10.119-12.56759h8.5005v15.37449c0 .2984-.158.5845-.4393.7955s-.6629.3295-1.0607.3295h-21c-.39782 0-.77936-.1185-1.06066-.3295-.281305-.211-.43934-.4971-.43934-.7955v-21.74996c0-.298375.158035-.584528.43934-.795509.2813-.210982.66284-.3295105 1.06066-.3295105h12.4995v6.3754695c0 .29838.158.58453.4393.79551s.6629.32951 1.0607.32951zm-.4995 8.05289c-1.2573-.5792-2.2022-1.4723-2.6685-2.5223.4313-.9682.5636-1.9972.387-3.0094-.0442-.25465-.1985-.49139-.4391-.67401-.2407-.18262-.5546-.30105-.8935-.33717-.339-.03612-.6844.01207-.9833.13719-.299.12512-.5351.32027-.6721.55559-.212 1.2162-.0383 2.4527.507 3.6091-.75897 1.372-1.61006 2.7144-2.55 4.0219 0 0 0 0-.012 0-1.6935.6514-4.6005 2.0858-3.4065 3.1872.34964.284.83502.4527 1.35.4691 1.119 0 2.232-.8438 3.819-2.8969 1.6089-.4515 3.2592-.815 4.938-1.0879 1.226.5246 2.5928.8371 4.0005.9146.3174.0057.6299-.0587.8989-.1852.2689-.1266.4822-.3096.6135-.5264.1312-.2168.1746-.4578.1246-.6929-.0499-.2351-.1909-.454-.4055-.6295-.8685-.6379-3.3945-.45-4.6005-.3375zm8.562-10.63143-6.1245-4.593444c-.1396-.104406-.3052-.187158-.4874-.2435252s-.3775-.0852443-.5746-.0849803h-.375v5.9997195h7.9995v-.28576c-.0009-.29701-.1583-.58172-.438-.79201zm-4.6305 11.96793c.2565-.1271-.15-.5625-2.6745-.4219 2.3175.7448 2.6745.4219 2.6745.4219z" fill="#252f6b"/></svg>