<svg fill="none" height="73" viewBox="0 0 69 73" width="69" xmlns="http://www.w3.org/2000/svg"><path d="m54.4025 39.6562c-3.3889 0-6.5255 1.1898-9.0132 3.1727-3.3168 2.6318-5.4079 6.7058-5.4079 11.2484 0 2.704.7572 5.2637 2.0911 7.4269 2.4876 4.1821 7.0663 6.9942 12.33 6.9942 3.6413 0 6.9582-1.334 9.4819-3.6053 1.1176-.9374 2.091-2.091 2.8481-3.3889 1.334-2.1632 2.0911-4.7229 2.0911-7.4269 0-7.9676-6.4534-14.4211-14.4211-14.4211zm7.4629 12.8709-7.6792 7.1023c-.5047.4687-1.1897.7211-1.8387.7211-.685 0-1.37-.2524-1.9108-.7932l-3.5692-3.5692c-1.0455-1.0455-1.0455-2.776 0-3.8216 1.0455-1.0455 2.7761-1.0455 3.8216 0l1.7305 1.7306 5.7684-5.3358c1.0816-1.0095 2.8122-.9374 3.8216.1442 1.0095 1.0816.9374 2.776-.1442 3.8216z" fill="#292d32"/><path d="m65.5435 70.2973c0 1.0095-.7931 1.8026-1.8026 1.8026h-61.93827c-1.009471 0-1.80263-.7931-1.80263-1.8026 0-14.9258 14.7095-27.0395 32.772-27.0395 3.7134 0 7.3187.5047 10.6356 1.4782-2.1272 2.5237-3.425 5.8045-3.425 9.3376 0 2.704.7567 5.2637 2.0906 7.4269.7211 1.2258 1.6585 2.3434 2.74 3.2808 2.5237 2.3073 5.877 3.7134 9.5904 3.7134 4.0379 0 7.6792-1.6584 10.275-4.3263.5769 1.9468.8649 4.0018.8649 6.1289z" fill="#7e92ee" opacity=".4"/><path d="m32.7715 36.0527c9.9555 0 18.0263-8.0707 18.0263-18.0264 0-9.95562-8.0708-18.0263-18.0263-18.0263-9.9557 0-18.0264 8.07068-18.0264 18.0263 0 9.9557 8.0707 18.0264 18.0264 18.0264z" fill="#6258a6"/></svg>