<svg fill="none" height="28" viewBox="0 0 25 28" width="25" xmlns="http://www.w3.org/2000/svg"><path d="m13.9268 14.0113h-6.66664c-.35363 0-.69276.1405-.94281.3905-.25005.2501-.39053.5892-.39053.9428 0 .3537.14048.6928.39053.9429.25005.25.58918.3905.94281.3905h6.66664c.3536 0 .6928-.1405.9428-.3905.2501-.2501.3906-.5892.3906-.9429 0-.3536-.1405-.6927-.3906-.9428-.25-.25-.5892-.3905-.9428-.3905zm1.3334 10.6667h-10.66671c-.35362 0-.69276-.1405-.94281-.3905-.25005-.2501-.39052-.5892-.39052-.9429v-18.66662c0-.35362.14047-.69276.39052-.94281s.58919-.39052.94281-.39052h6.66671v4c0 1.06086.4214 2.07828 1.1715 2.82845.7502.7501 1.7676 1.1715 2.8285 1.1715h4v1.3334c0 .3536.1404.6927.3905.9428.25.25.5892.3905.9428.3905s.6927-.1405.9428-.3905c.25-.2501.3905-.5892.3905-.9428v-2.6667c.0058-.02634.0058-.05364 0-.07999-.0113-.12428-.0428-.24588-.0933-.36v-.12c-.0641-.13709-.1496-.26311-.2533-.37333l-8-8c-.1132-.106315-.2441-.192048-.3867-.253335 0 0-.0667 0-.1067 0-.1314-.07603-.2763-.125839-.4266-.146666h-8.00004c-1.06087 0-2.07829.421431-2.82843 1.171571-.75015.75015-1.171574 1.76756-1.171574 2.82843v18.66662c0 1.0609.421424 2.0783 1.171574 2.8285.75014.7501 1.76756 1.1715 2.82843 1.1715h10.66664c.3536 0 .6928-.1404.9428-.3905.2501-.25.3906-.5892.3906-.9428s-.1405-.6927-.3906-.9428c-.25-.25-.5892-.3905-.9428-.3905zm-1.3334-19.45335 3.44 3.45333h-2.1066c-.3537 0-.6928-.14048-.9429-.39053-.25-.25004-.3905-.58918-.3905-.9428zm7.4267 19.83995c-.0634-.0573-.1302-.1107-.2-.16-.1465-.0952-.3092-.163-.48-.2-.2142-.0428-.4357-.0324-.6449.0303-.2093.0628-.3999.176-.5551.3297-.125.124-.2242.2715-.2919.4339-.0677.1625-.1025.3368-.1025.5128s.0348.3503.1025.5128.1669.3099.2919.4339c.2483.2463.5835.3852.9333.3866.2195.0011.4359-.052.63-.1546.194-.1026.3597-.2515.4824-.4335.1227-.1821.1985-.3916.2208-.6099.0222-.2184-.0098-.4389-.0932-.642-.0725-.162-.1716-.3107-.2933-.44zm-7.4267-5.72h-6.66664c-.35363 0-.69276.1405-.94281.3906-.25005.25-.39053.5892-.39053.9428s.14048.6927.39053.9428c.25005.25.58918.3905.94281.3905h6.66664c.3536 0 .6928-.1405.9428-.3905.2501-.2501.3906-.5892.3906-.9428s-.1405-.6928-.3906-.9428c-.25-.2501-.5892-.3906-.9428-.3906zm6.48-4c-.7026-.0004-1.3929.1842-2.0014.5353-.6086.3511-1.114.8563-1.4652 1.4647-.0876.1524-.1443.3205-.1669.4947s-.0106.3512.0352.5209c.0458.1696.1246.3285.2318.4677.1073.1392.2409.2559.3932.3434.1523.0876.3204.1442.4946.1668.1743.0226.3513.0107.5209-.0351s.3286-.1246.4677-.2319c.1392-.1072.2559-.2408.3435-.3931.1172-.203.2858-.3715.4889-.4885.203-.1171.4334-.1785.6678-.1782.2344.0004.4645.0625.6672.1802.2027.1176.3709.2867.4874.49.1166.2033.1776.4338.1767.6682s-.0636.4644-.1817.6668c-.1181.2025-.2875.3702-.4911.4864-.2036.1161-.4342.1765-.6686.1751-.3536 0-.6927.1405-.9428.3905-.25.2501-.3905.5892-.3905.9428s.1405.6928.3905.9428c.2501.2501.5892.3905.9428.3905 1.0609 0 2.0783-.4214 2.8284-1.1715.7502-.7502 1.1716-1.7676 1.1716-2.8285 0-1.0608-.4214-2.0782-1.1716-2.8284-.7501-.7501-1.7675-1.1716-2.8284-1.1716zm-13.14664-4h1.33333c.35362 0 .69276-.1404.94281-.3905.25005-.25.39052-.5892.39052-.9428 0-.35361-.14047-.69275-.39052-.9428s-.58919-.39052-.94281-.39052h-1.33333c-.35363 0-.69276.14047-.94281.39052s-.39053.58919-.39053.9428c0 .3536.14048.6928.39053.9428.25005.2501.58918.3905.94281.3905z" fill="#6cf"/></svg>