<svg width="297" height="244" viewBox="0 0 297 244" fill="none" xmlns="http://www.w3.org/2000/svg">
<path d="M10.0605 111.937V114.455" stroke="#9392BD" stroke-width="2.921" stroke-linecap="round"/>
<path d="M4.40625 113.301L6.46353 115.419" stroke="#9392BD" stroke-width="2.921" stroke-linecap="round"/>
<path d="M2 118.938H4.90896" stroke="#9392BD" stroke-width="2.921" stroke-linecap="round"/>
<path d="M4.16992 124.676L6.2272 122.558" stroke="#9392BD" stroke-width="2.921" stroke-linecap="round"/>
<path d="M10.0605 125.364V122.847" stroke="#9392BD" stroke-width="2.921" stroke-linecap="round"/>
<path d="M14.2566 123.686L12.5781 122.007" stroke="#9392BD" stroke-width="2.921" stroke-linecap="round"/>
<path d="M17.6133 119.49H15.0957" stroke="#9392BD" stroke-width="2.921" stroke-linecap="round"/>
<path d="M15.9362 113.615L14.2578 115.294" stroke="#9392BD" stroke-width="2.921" stroke-linecap="round"/>
<path d="M145.174 2V3.67843" stroke="#9392BD" stroke-width="2.921" stroke-linecap="round"/>
<path d="M140.139 7.03516H141.817" stroke="#9392BD" stroke-width="2.921" stroke-linecap="round"/>
<path d="M145.174 12.0705V10.3921" stroke="#9392BD" stroke-width="2.921" stroke-linecap="round"/>
<path d="M149.37 7.03516H147.691" stroke="#9392BD" stroke-width="2.921" stroke-linecap="round"/>
<path d="M47.8262 72.4937V75.0113" stroke="#9392BD" stroke-width="2.921" stroke-linecap="round"/>
<path d="M40.2734 80.0469H42.7911" stroke="#9392BD" stroke-width="2.921" stroke-linecap="round"/>
<path d="M47.8262 86.7603V84.2427" stroke="#9392BD" stroke-width="2.921" stroke-linecap="round"/>
<path d="M54.5391 80.0469H52.0215" stroke="#9392BD" stroke-width="2.921" stroke-linecap="round"/>
<path d="M228.47 164.001C230.476 164.001 232.102 165.628 232.102 167.634C232.102 169.641 230.476 171.267 228.47 171.267C226.464 171.267 224.838 169.641 224.838 167.634" stroke="#9392BD" stroke-width="2.921" stroke-linecap="round"/>
<path fill-rule="evenodd" clip-rule="evenodd" d="M245.092 131.04C247.248 130.367 250.554 127.73 251.319 124.892C252.013 127.401 254.922 130.367 257.547 130.592C254.592 131.638 251.768 134.746 251.319 137.187C251.014 134.699 247.107 131.403 245.092 131.04Z" fill="#4B4A91"/>
<path fill-rule="evenodd" clip-rule="evenodd" d="M23.7168 162.882C24.7955 162.545 26.4477 161.227 26.8302 159.808C27.1772 161.062 28.6313 162.545 29.9437 162.658C28.4668 163.18 27.0547 164.735 26.8302 165.955C26.6778 164.711 24.7242 163.063 23.7168 162.882Z" fill="#4B4A91"/>
<path fill-rule="evenodd" clip-rule="evenodd" d="M43.7343 46.1398C43.7343 47.6963 42.4732 48.9569 40.9179 48.9569C39.3619 48.9569 38.1016 47.6963 38.1016 46.1398C38.1016 44.5841 39.3619 43.3228 40.9179 43.3228C42.4732 43.3228 43.7343 44.5841 43.7343 46.1398Z" fill="#4B4A91"/>
<path fill-rule="evenodd" clip-rule="evenodd" d="M231.798 53.704C231.798 56.3045 229.69 58.4125 227.091 58.4125C224.49 58.4125 222.383 56.3045 222.383 53.704C222.383 51.1036 224.49 48.9956 227.091 48.9956C229.69 48.9956 231.798 51.1036 231.798 53.704Z" fill="#4B4A91"/>
<path fill-rule="evenodd" clip-rule="evenodd" d="M297 40.9469C297 43.01 295.329 44.6819 293.267 44.6819C291.205 44.6819 289.533 43.01 289.533 40.9469C289.533 38.8838 291.205 37.2119 293.267 37.2119C295.329 37.2119 297 38.8838 297 40.9469Z" fill="#4B4A91"/>
<path fill-rule="evenodd" clip-rule="evenodd" d="M96.3693 215.385C96.3693 216.685 95.3156 217.739 94.0154 217.739C92.7158 217.739 91.6621 216.685 91.6621 215.385C91.6621 214.084 92.7158 213.03 94.0154 213.03C95.3156 213.03 96.3693 214.084 96.3693 215.385Z" stroke="#9392BD" stroke-width="2.921" stroke-linecap="round"/>
<path fill-rule="evenodd" clip-rule="evenodd" d="M94.9686 28.0417C94.9686 29.5981 93.7076 30.8588 92.1523 30.8588C90.597 30.8588 89.3359 29.5981 89.3359 28.0417C89.3359 26.486 90.597 25.2246 92.1523 25.2246C93.7076 25.2246 94.9686 26.486 94.9686 28.0417Z" stroke="#9392BD" stroke-width="2.921" stroke-linecap="round"/>
<path fill-rule="evenodd" clip-rule="evenodd" d="M166.807 241.457C165.008 242.142 162.994 241.238 162.309 239.439C161.624 237.638 162.528 235.623 164.328 234.939C166.127 234.254 168.141 235.158 168.826 236.958C169.511 238.758 168.607 240.773 166.807 241.457Z" stroke="#9392BD" stroke-width="2.921" stroke-linecap="round"/>
<path fill-rule="evenodd" clip-rule="evenodd" d="M165.734 174.878H96.9143C92.0704 174.878 88.1055 170.901 88.1055 166.041V67.9012C88.1055 63.0411 92.0704 59.0664 96.9143 59.0664H165.734C170.58 59.0664 174.545 63.0411 174.545 67.9012V166.041C174.545 170.901 170.58 174.878 165.734 174.878Z" fill="#DBDBE9"/>
<path fill-rule="evenodd" clip-rule="evenodd" d="M159.861 179.074H91.0412C86.1974 179.074 82.2324 175.098 82.2324 170.238V72.0975C82.2324 67.2374 86.1974 63.2627 91.0412 63.2627H159.861C164.707 63.2627 168.672 67.2374 168.672 72.0975V170.238C168.672 175.098 164.707 179.074 159.861 179.074Z" fill="#E8EBF2"/>
<path fill-rule="evenodd" clip-rule="evenodd" d="M154.146 182.387H85.1844C80.3306 182.387 76.3574 178.427 76.3574 173.587V75.8529C76.3574 71.0129 80.3306 67.0547 85.1844 67.0547H154.146C159.002 67.0547 162.975 71.0129 162.975 75.8529V173.587C162.975 178.427 159.002 182.387 154.146 182.387Z" fill="#2D2C57"/>
<path fill-rule="evenodd" clip-rule="evenodd" d="M154.146 182.387H85.1844C80.3306 182.387 76.3574 178.427 76.3574 173.587V75.8529C76.3574 71.0129 80.3306 67.0547 85.1844 67.0547H154.146C159.002 67.0547 162.975 71.0129 162.975 75.8529V173.587C162.975 178.427 159.002 182.387 154.146 182.387Z" fill="#DBDBE9"/>
<path fill-rule="evenodd" clip-rule="evenodd" d="M144.207 96.8312H93.2704C91.8157 96.8312 90.625 95.6984 90.625 94.3145C90.625 92.9287 91.8157 91.7959 93.2704 91.7959H144.207C145.662 91.7959 146.852 92.9287 146.852 94.3145C146.852 95.6984 145.662 96.8312 144.207 96.8312Z" fill="#6F6EA7"/>
<path fill-rule="evenodd" clip-rule="evenodd" d="M144.207 111.937H93.2704C91.8157 111.937 90.625 110.804 90.625 109.42C90.625 108.035 91.8157 106.902 93.2704 106.902H144.207C145.662 106.902 146.852 108.035 146.852 109.42C146.852 110.804 145.662 111.937 144.207 111.937Z" fill="#6F6EA7"/>
<path fill-rule="evenodd" clip-rule="evenodd" d="M144.207 127.043H93.2704C91.8157 127.043 90.625 125.91 90.625 124.526C90.625 123.142 91.8157 122.007 93.2704 122.007H144.207C145.662 122.007 146.852 123.142 146.852 124.526C146.852 125.91 145.662 127.043 144.207 127.043Z" fill="#6F6EA7"/>
<path fill-rule="evenodd" clip-rule="evenodd" d="M144.207 142.149H93.2704C91.8157 142.149 90.625 141.016 90.625 139.632C90.625 138.246 91.8157 137.113 93.2704 137.113H144.207C145.662 137.113 146.852 138.246 146.852 139.632C146.852 141.016 145.662 142.149 144.207 142.149Z" fill="#6F6EA7"/>
<path fill-rule="evenodd" clip-rule="evenodd" d="M119.858 157.255H93.2817C91.8208 157.255 90.625 156.122 90.625 154.738C90.625 153.352 91.8208 152.219 93.2817 152.219H119.858C121.319 152.219 122.515 153.352 122.515 154.738C122.515 156.122 121.319 157.255 119.858 157.255Z" fill="#6F6EA7"/>
<g filter="url(#filter0_f_12150_35425)">
<circle cx="178.386" cy="115.464" r="25.3864" fill="#FF4F75"/>
</g>
<circle cx="178.386" cy="110.386" r="25.3864" fill="#FF4F75"/>
<path d="M175.71 115.811L174.41 98.7106L174.16 91.2606H182.41L182.16 98.7106L180.86 115.811H175.71ZM178.31 129.161C175.71 129.161 173.86 127.311 173.86 124.711C173.86 122.111 175.76 120.311 178.31 120.311C180.81 120.311 182.71 122.111 182.71 124.711C182.71 127.311 180.81 129.161 178.31 129.161Z" fill="white"/>
<defs>
<filter id="filter0_f_12150_35425" x="123" y="60.0771" width="110.773" height="110.773" filterUnits="userSpaceOnUse" color-interpolation-filters="sRGB">
<feFlood flood-opacity="0" result="BackgroundImageFix"/>
<feBlend mode="normal" in="SourceGraphic" in2="BackgroundImageFix" result="shape"/>
<feGaussianBlur stdDeviation="15" result="effect1_foregroundBlur_12150_35425"/>
</filter>
</defs>
</svg>
