<svg fill="none" height="24" viewBox="0 0 24 24" width="24" xmlns="http://www.w3.org/2000/svg"><path d="m6.08 12.3798c.04759.1228.11896.2349.21.33l5 5c.0932.0933.2039.1672.3258.2177.1218.0504.2523.0764.3842.0764.2663 0 .5217-.1058.71-.2941.0932-.0932.1672-.2039.2177-.3257.0504-.1219.0764-.2524.0764-.3843 0-.2663-.1058-.5217-.2941-.71l-3.3-3.29h7.59c.2652 0 .5196-.1053.7071-.2929.1875-.1875.2929-.4419.2929-.7071s-.1054-.5196-.2929-.7071-.4419-.2929-.7071-.2929h-7.59l3.3-3.28999c.0937-.09296.1681-.20356.2189-.32542s.0769-.25256.0769-.38458c0-.13201-.0261-.26271-.0769-.38457s-.1252-.23246-.2189-.32542c-.093-.09373-.2036-.16813-.3254-.2189-.1219-.05077-.2526-.0769-.3846-.0769s-.2627.02613-.3846.0769c-.1218.05077-.2324.12517-.3254.2189l-5 4.99998c-.09104.0951-.16241.2073-.21.33-.10002.2435-.10002.5166 0 .76z" fill="#6258a6"/></svg>