<svg fill="none" height="20" viewBox="0 0 20 20" width="20" xmlns="http://www.w3.org/2000/svg"><g fill="#fff"><path d="m1.21094 19.4141c0 .3236.2623.5859.58594.5859h3.51562c.56335 0 1.06537-.2667 1.38733-.6802 1.42822.4512 2.91077.6802 4.41037.6802h4.7492c.9692 0 1.7578-.7886 1.7578-1.7578 0-.2287-.0444-.4472-.1242-.6479.7458-.2032 1.2961-.8864 1.2961-1.6959 0-.4498-.1702-.8606-.4491-1.1718.2791-.3113.4491-.7221.4491-1.1719s-.1702-.8606-.4491-1.1719c.2791-.3113.4491-.722.4491-1.1719 0-.9692-.7886-1.75778-1.7579-1.75778h-3.2072c.0455-.10772.0925-.21697.1404-.32806.3555-.82443.7231-1.67694.7231-2.60162 0-1.61957-1.31-2.96875-2.9297-2.96875-.2792 0-.5197.19714-.5745.47104l-.2992 1.49612c-.3931 1.96503-.8272 2.1875-2.44233 3.01514-.42694.21866-.92849.47577-1.51382.80948-.26947-.62577-.89203-1.06522-1.61545-1.06522h-3.51562c-.32364 0-.58594.2623-.58594.58594zm7.76504-9.83417c.87464-.44816 1.50632-.77179 2.00102-1.31974.5058-.56045.8119-1.28723 1.0562-2.50854l.1915-.95795c.7349.21515 1.2909.92026 1.2909 1.72974 0 .68268-.3189 1.42227-.6274 2.1376-.1119.25955-.226.5249-.3276.79208h-.8028c-.3236 0-.5859.2623-.5859.58598 0 .3236.2623.5859.5859.5859h5.2734c.3231 0 .586.2629.586.5859 0 .3231-.2629.586-.586.586h-1.1718c-.3237 0-.586.2623-.586.5859 0 .3237.2623.586.586.586h1.1718c.3231 0 .586.2629.586.5859s-.2629.5859-.586.5859h-1.1718c-.3237 0-.586.2623-.586.586 0 .3236.2623.5859.586.5859h1.1718c.3231 0 .586.2629.586.5859 0 .3231-.2629.586-.586.586h-1.1718c-.3237 0-.586.2623-.586.5859 0 .3237.2623.5859.586.5859.323 0 .5859.263.5859.586s-.2629.5859-.5859.5859h-4.7492c-1.37341 0-2.73129-.2087-4.03989-.6201v-7.588c.75547-.4505 1.38733-.77442 1.90567-1.04007zm-6.59317-.12681h2.92969c.32303 0 .58594.26291.58594.58598v8.2031c0 .323-.26291.5859-.58594.5859h-2.92969z"/><path d="m4.72656 17.0703c0 .3237-.2623.5859-.58594.5859-.32363 0-.58593-.2622-.58593-.5859 0-.3236.2623-.5859.58593-.5859.32364 0 .58594.2623.58594.5859z"/><path d="m11.7578.585938v1.210942c0 .32363.2623.58593.586.58593.3236 0 .5859-.2623.5859-.58593v-1.210942c0-.323639-.2623-.585938-.5859-.585938-.3237 0-.586.262299-.586.585938z"/><path d="m15.4447 1.55436-.8287.8287c-.2289.22889-.2289.59983 0 .82871.2289.22873.5998.22873.8287 0l.8286-.82871c.2288-.22888.2288-.59982 0-.8287-.2289-.22873-.5999-.22873-.8286 0z"/><path d="m8.41385 1.55436c-.22888.22888-.22888.59982 0 .8287l.82855.82871c.22888.22873.59982.22873.8287 0 .2287-.22888.2287-.59982 0-.82871l-.8287-.8287c-.22873-.22873-.59982-.22873-.82855 0z"/></g></svg>