<svg height="217.542" viewBox="0 0 235.537 217.542" width="235.537" xmlns="http://www.w3.org/2000/svg" xmlns:xlink="http://www.w3.org/1999/xlink"><linearGradient id="a" gradientUnits="objectBoundingBox" x1="-1.133" x2="3.383" y1="4.665" y2="-.426"><stop offset="0" stop-color="#6cf"/><stop offset=".5" stop-color="#6258a6"/><stop offset=".99" stop-color="#273470"/></linearGradient><linearGradient id="b" x1="-.835" x2="3.68" xlink:href="#a" y1="2.573" y2="-2.517"/><linearGradient id="c" x1="-1.182" x2="3.318" xlink:href="#a" y1="2.903" y2="-2.145"/><linearGradient id="d" x1="-3.753" x2=".749" xlink:href="#a" y1=".546" y2="-4.502"/><linearGradient id="e" x1="-2.862" x2="1.638" xlink:href="#a" y1="2.193" y2="-2.926"/><linearGradient id="f" x1="-2.085" x2="2.417" xlink:href="#a" y1="-.956" y2="-6.004"/><linearGradient id="g" x1="-.859" x2="3.643" xlink:href="#a" y1="-.588" y2="-5.707"/><linearGradient id="h" x1="-.819" x2="2.756" xlink:href="#a" y1="5.019" y2=".983"/><linearGradient id="i" x1="-.181" x2="3.432" xlink:href="#a" y1="5.83" y2="1.758"/><linearGradient id="j" x1=".097" x2="3.708" xlink:href="#a" y1="2.506" y2="-1.566"/><linearGradient id="k" x1=".011" x2="3.585" xlink:href="#a" y1="3.587" y2="-.448"/><linearGradient id="l" x1=".496" x2=".496" xlink:href="#a" y1="5.711" y2=".192"/><linearGradient id="m" x1=".501" x2=".501" xlink:href="#a" y1="5.086" y2="-.433"/><linearGradient id="n" x1=".497" x2=".497" xlink:href="#a" y1="5.086" y2="-.433"/><linearGradient id="o" x1=".501" x2=".501" xlink:href="#a" y1="4.461" y2="-1.058"/><linearGradient id="p" x1=".497" x2=".497" xlink:href="#a" y1="4.461" y2="-1.058"/><linearGradient id="q" x1=".499" x2=".499" xlink:href="#a" y1="3.836" y2="-1.683"/><linearGradient id="r" x1=".503" x2=".503" xlink:href="#a" y1="5.711" y2=".192"/><linearGradient id="s" x1=".501" x2=".501" xlink:href="#a" y1="3.836" y2="-1.683"/><linearGradient id="t" x1=".499" x2=".499" xlink:href="#a" y1="4.461" y2="-1.058"/><linearGradient id="u" x1=".496" x2=".496" xlink:href="#a" y1="5.086" y2="-.433"/><linearGradient id="v" x1=".501" x2=".501" xlink:href="#a" y1="1.039" y2="-4.432"/><linearGradient id="w" x1=".498" x2=".498" xlink:href="#a" y1="2.34" y2="-3.21"/><linearGradient id="x" x1=".506" x2=".506" xlink:href="#a" y1="1.9" y2="-3.572"/><linearGradient id="y" x1=".496" x2=".496" xlink:href="#a" y1="1.227" y2="-4.324"/><linearGradient id="z" x1=".503" x2=".503" xlink:href="#a" y1="2.941" y2="-2.61"/><linearGradient id="A" x1=".493" x2=".493" xlink:href="#a" y1="2.941" y2="-2.61"/><linearGradient id="B" x1=".496" x2=".496" xlink:href="#a" y1="4.536" y2="-1.014"/><linearGradient id="C" x1=".497" x2=".497" xlink:href="#a" y1="5.751" y2="1.335"/><linearGradient id="D" x1=".501" x2=".501" xlink:href="#a" y1="5.204" y2=".827"/><linearGradient id="E" x1=".499" x2=".499" xlink:href="#a" y1="5.204" y2=".828"/><linearGradient id="F" x1=".498" x2=".498" xlink:href="#a" y1="5.204" y2=".828"/><linearGradient id="G" x1=".5" x2=".5" xlink:href="#a" y1="4.708" y2=".332"/><linearGradient id="H" x1=".5" x2=".5" xlink:href="#a" y1="4.242" y2="-.174"/><linearGradient id="I" x1=".497" x2=".497" xlink:href="#a" y1="5.204" y2=".828"/><path d="m195.835 44.981-39.256-22.49-38.847-22.491-39.256 22.491-39.256 22.49-38.848 22.899v44.981l38.848-22.49 39.256-22.491 39.256-22.9 38.847 22.9 39.256 22.491 38.847 22.491v-44.982z" fill="#6cf" transform="translate(.855)"/><path d="m68.2 22.967v35.984l-31.081-17.992z" fill="url(#a)" transform="translate(85.148 52.683)"/><path d="m13.408 29.794 31.077 17.993-31.077 17.992z" fill="url(#b)" transform="translate(30.756 68.344)"/><path d="m51.138 34.14v29.033l-24.944-14.312z" fill="url(#c)" transform="translate(60.087 78.313)"/><path d="m86.768 57.23v29.033l-24.944-14.721z" fill="url(#d)" transform="translate(141.818 131.279)"/><path d="m49.906 43.574 24.944 14.313-24.944 14.313z" fill="url(#e)" transform="translate(114.479 99.956)"/><path d="m16.884 53.382 24.944 14.312-24.944 14.721z" fill="url(#f)" transform="translate(38.729 122.454)"/><path d="m24.944 47.919v28.625l-24.944-14.312z" fill="url(#g)" transform="translate(0 109.923)"/><path d="m87.051 13.656v45.39l-39.251-22.491z" fill="url(#h)" transform="translate(109.639 31.324)"/><path d="m36 0 38.849 22.491-38.849 22.49z" fill="url(#i)" transform="translate(82.585)"/><path d="m.372 20.608 38.848 22.492-38.848 22.489z" fill="url(#j)" transform="translate(.855 47.272)"/><path d="m12.166 13.656 39.256 22.9-39.256 22.49z" fill="url(#k)" transform="translate(27.908 31.324)"/><path d="m56.4 16.139v35.984l-31.075-17.992z" fill="url(#l)" transform="translate(58.094 37.021)"/><path d="m44.485 22.967v35.984l-31.077-17.992z" fill="url(#m)" transform="translate(30.756 52.683)"/><path d="m49.037 22.967 31.078 17.992-31.078 17.992z" fill="url(#n)" transform="translate(112.486 52.683)"/><path d="m32.976 29.794v35.985l-31.486-17.992z" fill="url(#o)" transform="translate(3.417 68.344)"/><path d="m80.115 29.794v35.985l-31.078-17.992z" fill="url(#p)" transform="translate(112.486 68.344)"/><path d="m92.317 36.622v35.985l-31.487-17.992z" fill="url(#q)" transform="translate(139.54 84.01)"/><path d="m37.119 16.139 31.081 17.992-31.081 17.992z" fill="url(#r)" transform="translate(85.148 37.021)"/><path d="m1.49 36.622 31.486 17.993-31.486 17.992z" fill="url(#s)" transform="translate(3.417 84.01)"/><path d="m60.83 29.794 31.487 17.993-31.487 17.992z" fill="url(#t)" transform="translate(139.54 68.344)"/><path d="m25.325 22.967 31.075 17.992-31.075 17.992z" fill="url(#u)" transform="translate(58.094 52.683)"/><path d="m2.483 57.23 24.944 14.312-24.944 14.721z" fill="url(#v)" transform="translate(5.695 131.279)"/><path d="m61.824 47.919 24.944 14.313-24.944 14.312z" fill="url(#w)" transform="translate(141.818 109.923)"/><path d="m74.85 50.9v29.032l-24.944-14.721z" fill="url(#x)" transform="translate(114.479 116.76)"/><path d="m63.056 55.989v28.624l-24.944-14.313z" fill="url(#y)" transform="translate(87.426 128.434)"/><path d="m26.194 43.574 24.944 14.313-24.944 14.313z" fill="url(#z)" transform="translate(60.087 99.956)"/><path d="m39.345 43.574v28.626l-24.945-14.313z" fill="url(#A)" transform="translate(33.034 99.956)"/><path d="m38.112 32.029 24.944 14.312-24.944 14.312z" fill="url(#B)" transform="translate(87.426 73.472)"/><path d="m63.34 0v44.981l-39.256-22.49z" fill="url(#C)" transform="translate(55.246)"/><path d="m51.422 6.828v45.39l-39.256-22.9z" fill="url(#D)" transform="translate(27.908 15.662)"/><path d="m47.8 6.828 39.251 22.49-39.251 22.9z" fill="url(#E)" transform="translate(109.639 15.662)"/><path d="m74.849 6.828v45.39l-38.849-22.9z" fill="url(#F)" transform="translate(82.585 15.662)"/><path d="m39.22 13.656v45.39l-38.848-22.491z" fill="url(#G)" transform="translate(.855 31.324)"/><path d="m98.56 20.608v44.981l-38.847-22.489z" fill="url(#H)" transform="translate(136.977 47.272)"/><path d="m59.713 13.656v45.39l38.847-22.491z" fill="url(#G)" transform="translate(136.977 31.324)"/><path d="m24.084 6.828 39.256 22.49-39.256 22.9z" fill="url(#I)" transform="translate(55.246 15.662)"/></svg>