<svg width="297" height="244" viewBox="0 0 297 244" fill="none" xmlns="http://www.w3.org/2000/svg">
    <circle cx="146.378" cy="127.378" r="75.3783" fill="url(#paint0_linear_12107_19796)"/>
    <circle cx="146.378" cy="127.378" r="69.3783" fill="#EFF2FF" stroke="white" stroke-width="12"/>
    <circle cx="130.512" cy="49.5115" r="2.51153" fill="white" stroke="#6258A6" stroke-width="4"/>
    <circle cx="168.119" cy="187.95" r="2.51153" fill="white" stroke="#6258A6" stroke-width="4"/>
    <g filter="url(#filter0_f_12107_19796)">
    <path d="M91.8266 132.681L93.1054 136.137L96.5614 137.416L93.1054 138.695L91.8266 142.151L90.5478 138.695L87.0918 137.416L90.5478 136.137L91.8266 132.681Z" fill="#6258A6"/>
    </g>
    <path d="M212.122 153.894L214.023 159.031L219.16 160.932L214.023 162.832L212.122 167.97L210.221 162.832L205.084 160.932L210.221 159.031L212.122 153.894Z" fill="#6258A6"/>
    <path d="M176.606 104.237C176.682 104.201 176.756 104.167 176.828 104.135L176.905 104.102C176.974 104.073 177.044 104.047 177.113 104.023L177.16 104.006C177.243 103.977 177.327 103.952 177.409 103.929C177.456 103.916 177.502 103.905 177.549 103.895L177.621 103.878C177.687 103.863 177.752 103.851 177.817 103.841H177.83C177.936 103.825 178.037 103.816 178.139 103.81H178.515C178.585 103.815 178.654 103.823 178.722 103.834L178.786 103.844C178.864 103.859 178.941 103.875 179.015 103.897H179.028C179.098 103.918 179.167 103.943 179.233 103.969L179.293 103.994C179.351 104.019 179.407 104.047 179.462 104.077L179.518 104.106L168.29 97.584L168.265 97.5691L168.234 97.5542C168.179 97.5245 168.123 97.497 168.065 97.4718L168.033 97.4558L168.005 97.4455C167.939 97.418 167.87 97.394 167.801 97.3734H167.789C167.715 97.3517 167.637 97.3345 167.56 97.3208L167.534 97.315H167.496C167.428 97.3044 167.359 97.2964 167.289 97.291H166.914C166.812 97.291 166.71 97.3059 166.605 97.3219H166.591C166.526 97.3318 166.461 97.344 166.395 97.3585L166.323 97.3757C166.282 97.386 166.24 97.3951 166.197 97.4066H166.184C166.101 97.4295 166.018 97.4547 165.934 97.4833L165.887 97.5004C165.819 97.5245 165.749 97.5508 165.679 97.5794L165.653 97.5897L165.602 97.6126C165.526 97.6438 165.452 97.6778 165.38 97.7144L165.297 97.7556C165.2 97.8048 165.101 97.8563 165.003 97.9135L116.736 125.777C116.613 125.848 116.492 125.926 116.371 126.006L116.311 126.046C116.196 126.122 116.081 126.205 115.967 126.293L115.902 126.345C115.788 126.434 115.673 126.527 115.566 126.624L115.533 126.654C115.426 126.748 115.321 126.846 115.217 126.948L115.187 126.975L115.17 126.992C115.094 127.069 115.015 127.149 114.934 127.234L114.901 127.27C114.835 127.341 114.769 127.414 114.704 127.488L114.68 127.514L114.654 127.546C114.539 127.679 114.427 127.815 114.317 127.956L114.305 127.971L114.277 128.008C114.19 128.122 114.104 128.237 114.021 128.352L113.999 128.381L113.991 128.394C113.911 128.509 113.835 128.625 113.762 128.744L113.738 128.781L113.709 128.83C113.646 128.929 113.585 129.03 113.524 129.131L113.5 129.17L113.493 129.183C113.428 129.295 113.364 129.41 113.302 129.526L113.284 129.559L113.254 129.616C113.206 129.708 113.16 129.8 113.115 129.892L113.085 129.949L113.071 129.979C113.016 130.096 112.962 130.213 112.91 130.331L112.902 130.347L112.882 130.395C112.838 130.498 112.796 130.602 112.755 130.706L112.734 130.76L112.719 130.802C112.671 130.929 112.625 131.055 112.583 131.183V131.194L112.573 131.226C112.531 131.355 112.493 131.484 112.459 131.612C112.459 131.628 112.449 131.645 112.444 131.661L112.438 131.686C112.396 131.839 112.358 131.991 112.324 132.144C112.324 132.158 112.317 132.171 112.314 132.185C112.31 132.199 112.307 132.223 112.302 132.242C112.29 132.302 112.278 132.357 112.268 132.421C112.26 132.463 112.253 132.504 112.245 132.546C112.235 132.607 112.226 132.669 112.218 132.731C112.218 132.761 112.208 132.789 112.204 132.819V132.841C112.187 132.972 112.174 133.104 112.165 133.233V133.317C112.157 133.449 112.153 133.581 112.152 133.714L112.255 170.072C112.255 171.515 112.77 172.531 113.593 173.009L124.821 179.531C123.997 179.053 123.487 178.037 123.483 176.594L123.38 140.236C123.38 140.106 123.38 139.973 123.393 139.839V139.756C123.402 139.625 123.414 139.495 123.432 139.363C123.432 139.327 123.442 139.29 123.447 139.249C123.456 139.187 123.464 139.125 123.474 139.063C123.481 139.022 123.489 138.98 123.497 138.939C123.507 138.879 123.519 138.824 123.531 138.76L123.552 138.662C123.585 138.509 123.624 138.357 123.666 138.204L123.687 138.131C123.723 138.002 123.762 137.873 123.801 137.745L123.815 137.702C123.857 137.575 123.903 137.448 123.951 137.321L123.988 137.226C124.028 137.122 124.071 137.019 124.115 136.916L124.142 136.852C124.193 136.733 124.247 136.616 124.304 136.499L124.347 136.411C124.392 136.319 124.439 136.227 124.487 136.135L124.534 136.045C124.595 135.93 124.659 135.815 124.725 135.702L124.756 135.65C124.815 135.549 124.877 135.448 124.94 135.349L124.995 135.263C125.071 135.145 125.147 135.028 125.224 134.913L125.255 134.871C125.338 134.753 125.423 134.639 125.511 134.528L125.551 134.474C125.66 134.333 125.772 134.197 125.887 134.064L125.938 134.006C126.003 133.929 126.068 133.857 126.134 133.788L126.168 133.752C126.244 133.669 126.323 133.589 126.403 133.51L126.45 133.466C126.554 133.364 126.659 133.266 126.766 133.172L126.799 133.142C126.914 133.044 127.028 132.953 127.136 132.863L127.201 132.811C127.313 132.725 127.428 132.642 127.544 132.564L127.605 132.524C127.725 132.444 127.847 132.366 127.97 132.295L176.228 104.436C176.327 104.379 176.425 104.322 176.522 104.278L176.606 104.237Z" fill="url(#paint1_linear_12107_19796)"/>
    <path d="M176.227 104.436C178.777 102.964 180.848 104.135 180.856 107.048L180.959 143.406C180.967 146.321 178.91 149.875 176.36 151.346L128.095 179.213C125.547 180.684 123.474 179.514 123.466 176.601L123.363 140.243C123.355 137.329 125.414 133.773 127.962 132.303L176.227 104.436Z" fill="url(#paint2_linear_12107_19796)"/>
    <path d="M162.712 99.6139C162.702 95.9636 161.407 93.3923 159.325 92.176L153.711 88.9136C155.795 90.1242 157.088 92.6897 157.098 96.3515L157.124 105.83L162.738 109.092L162.712 99.6139Z" fill="#3149B7"/>
    <path d="M151.873 82.6223C152.035 82.5361 152.197 82.4526 152.358 82.3717L152.527 82.287C152.737 82.1833 152.946 82.0837 153.153 81.9884L153.25 81.9449C153.428 81.8648 153.605 81.7885 153.781 81.716L153.981 81.6325C154.102 81.5829 154.223 81.5348 154.343 81.4883L154.548 81.4094C154.678 81.3602 154.809 81.3132 154.939 81.2675L155.103 81.2091C155.286 81.1465 155.469 81.087 155.651 81.0306L155.729 81.0077C155.881 80.9604 156.036 80.9154 156.193 80.8727L156.46 80.8029L156.653 80.7537C156.752 80.7296 156.849 80.7079 156.946 80.6862L157.117 80.6473C157.231 80.6221 157.346 80.5992 157.467 80.5775L157.581 80.5557C157.734 80.5275 157.885 80.5019 158.033 80.479C158.262 80.4436 158.491 80.4161 158.711 80.3932L158.846 80.3795C159.064 80.3589 159.28 80.3433 159.494 80.3326H159.615C159.788 80.3257 159.96 80.3227 160.13 80.3234H160.244C160.439 80.3234 160.632 80.3303 160.823 80.344L160.955 80.3532C161.107 80.3639 161.257 80.3772 161.405 80.3932L161.528 80.407C161.707 80.4283 161.885 80.4539 162.06 80.4836L162.175 80.5042C162.314 80.5294 162.453 80.5572 162.59 80.5878L162.727 80.6186C162.896 80.6587 163.063 80.701 163.226 80.748L163.258 80.7583C163.412 80.8029 163.563 80.8521 163.716 80.9036L163.85 80.9516C163.98 80.9989 164.109 81.0485 164.237 81.1004L164.328 81.137C164.481 81.2019 164.633 81.2709 164.786 81.3441L164.9 81.3991C165.02 81.4586 165.138 81.5207 165.255 81.5856C165.317 81.6199 165.379 81.6519 165.439 81.6874L159.812 78.417L159.697 78.3529L159.624 78.3152C159.507 78.2503 159.389 78.1882 159.269 78.1287L159.155 78.0737C159.002 77.9974 158.85 77.9284 158.697 77.8666L158.674 77.8563L158.606 77.83C158.478 77.7781 158.349 77.7285 158.219 77.6812L158.084 77.6332C157.934 77.5817 157.783 77.5325 157.626 77.4879L157.6 77.4798C157.435 77.432 157.268 77.3889 157.101 77.3505L156.962 77.3196C156.825 77.2891 156.687 77.2613 156.547 77.2361L156.468 77.2201H156.436C156.261 77.1903 156.083 77.1648 155.904 77.1434L155.78 77.1297C155.628 77.1137 155.478 77.1003 155.331 77.0896L155.246 77.0816H155.199C155.008 77.0702 154.815 77.0633 154.62 77.061H154.506C154.335 77.061 154.164 77.0641 153.991 77.0702H153.869C153.655 77.0801 153.439 77.0957 153.222 77.1171L153.087 77.1308C152.858 77.1549 152.637 77.1823 152.409 77.2167H152.402C152.255 77.2395 152.107 77.2647 151.957 77.2922L151.843 77.3139C151.728 77.3368 151.614 77.3586 151.493 77.3837L151.322 77.4226C151.225 77.4444 151.128 77.4661 151.029 77.4901L150.836 77.5393L150.621 77.5943L150.569 77.6092C150.417 77.6519 150.262 77.6969 150.105 77.7442L150.027 77.7671C149.845 77.8228 149.663 77.8823 149.479 77.9456L149.315 78.0039C149.185 78.0497 149.054 78.0966 148.924 78.1458L148.719 78.2248C148.598 78.2713 148.478 78.3194 148.357 78.369L148.243 78.4147L148.156 78.4525C147.98 78.5288 147.803 78.6051 147.625 78.6814L147.528 78.7248C147.32 78.8202 147.112 78.9198 146.902 79.0235L146.732 79.1082C146.571 79.189 146.41 79.2726 146.247 79.3588L146.063 79.4572C145.85 79.5716 145.637 79.686 145.422 79.8142L142.343 81.5924C142.075 81.7469 141.81 81.9083 141.542 82.073L141.406 82.1577C141.152 82.3172 140.901 82.4812 140.65 82.6498L140.504 82.7493C140.249 82.9233 139.994 83.1018 139.741 83.2849L139.679 83.3306C139.435 83.5091 139.192 83.6918 138.95 83.8787L138.836 83.9657C138.591 84.1564 138.347 84.3517 138.106 84.5516L137.961 84.666C137.72 84.8674 137.479 85.0726 137.239 85.2816L137.143 85.3663C136.914 85.5708 136.685 85.7787 136.457 85.99L136.378 86.0632C136.142 86.2837 135.908 86.5079 135.676 86.736L135.603 86.807L135.518 86.8917C135.398 87.0114 135.278 87.1324 135.158 87.2544L134.995 87.4192C134.824 87.5962 134.653 87.7747 134.483 87.9547L134.475 87.9627C134.308 88.1405 134.142 88.3201 133.978 88.5017L133.817 88.6813L133.473 89.0658L133.391 89.1585L133.332 89.2283C133.086 89.5113 132.843 89.7986 132.604 90.09L132.5 90.217C132.259 90.5115 132.021 90.8094 131.787 91.1107L131.749 91.1576L131.681 91.2469C131.479 91.5085 131.279 91.7728 131.082 92.0399L131.06 92.0696C130.859 92.3427 130.66 92.6181 130.465 92.8958L130.4 92.9862L130.352 93.056C130.176 93.307 130.003 93.5599 129.832 93.8147L129.743 93.9497C129.59 94.1785 129.441 94.4074 129.296 94.6363L129.228 94.7392L129.191 94.7976C129.034 95.0455 128.878 95.295 128.723 95.546L128.63 95.7004C128.501 95.9125 128.374 96.1254 128.249 96.339L128.18 96.4534L128.138 96.5278C127.993 96.7765 127.85 97.0267 127.71 97.2784L127.649 97.3929C127.527 97.6133 127.406 97.8346 127.287 98.0566L127.228 98.171L127.175 98.2728C127.053 98.5017 126.933 98.7336 126.815 98.9686L126.777 99.0429C126.648 99.2977 126.521 99.5537 126.397 99.8108L126.356 99.8943L126.298 100.018C126.197 100.228 126.098 100.438 126.001 100.648L125.921 100.822C125.803 101.081 125.688 101.341 125.578 101.602L125.555 101.652L125.506 101.766C125.41 101.988 125.317 102.209 125.225 102.431L125.142 102.634C125.033 102.901 124.927 103.168 124.824 103.435L124.812 103.463L124.78 103.549C124.685 103.799 124.592 104.05 124.501 104.301L124.43 104.499C124.33 104.778 124.233 105.058 124.139 105.338L124.127 105.374L124.099 105.46C124.006 105.741 123.917 106.022 123.83 106.303L123.785 106.452C123.694 106.751 123.607 107.05 123.524 107.349C123.516 107.378 123.507 107.407 123.499 107.435C123.491 107.464 123.483 107.496 123.475 107.527C123.382 107.866 123.293 108.205 123.209 108.544C123.198 108.591 123.187 108.637 123.176 108.684C123.091 109.034 123.01 109.384 122.936 109.734V109.754C122.923 109.811 122.913 109.868 122.901 109.925C122.869 110.082 122.836 110.239 122.806 110.395C122.79 110.479 122.775 110.564 122.759 110.647C122.733 110.786 122.708 110.925 122.684 111.064C122.668 111.154 122.653 111.245 122.638 111.334C122.616 111.466 122.595 111.597 122.574 111.729C122.56 111.822 122.545 111.915 122.532 112.008C122.513 112.137 122.494 112.267 122.477 112.396C122.47 112.447 122.462 112.499 122.455 112.549C122.455 112.579 122.449 112.607 122.445 112.637C122.407 112.929 122.374 113.219 122.345 113.509C122.345 113.551 122.337 113.594 122.334 113.636C122.309 113.904 122.287 114.171 122.268 114.437C122.268 114.486 122.26 114.537 122.258 114.586C122.24 114.872 122.226 115.157 122.216 115.441V115.624C122.208 115.914 122.202 116.205 122.203 116.493L122.23 125.972L127.843 129.234L127.821 119.754C127.821 119.465 127.821 119.176 127.833 118.884V118.701C127.843 118.417 127.857 118.132 127.876 117.846C127.876 117.797 127.882 117.746 127.886 117.697C127.904 117.431 127.926 117.164 127.951 116.896C127.951 116.854 127.958 116.812 127.963 116.769C127.991 116.479 128.025 116.189 128.062 115.897C128.072 115.817 128.083 115.737 128.094 115.656C128.112 115.526 128.13 115.397 128.149 115.268C128.163 115.175 128.177 115.082 128.191 114.989C128.212 114.857 128.233 114.725 128.255 114.594C128.27 114.503 128.285 114.413 128.301 114.324C128.325 114.185 128.352 114.047 128.377 113.907C128.393 113.824 128.408 113.739 128.424 113.656C128.455 113.499 128.487 113.342 128.519 113.185C128.532 113.121 128.544 113.058 128.558 112.994C128.632 112.644 128.713 112.294 128.798 111.944L128.831 111.804C128.915 111.465 129.003 111.126 129.097 110.787L129.146 110.609C129.23 110.31 129.317 110.011 129.407 109.712L129.452 109.564C129.539 109.282 129.629 109.001 129.721 108.72L129.761 108.597C129.855 108.317 129.952 108.037 130.052 107.758L130.123 107.56C130.214 107.309 130.307 107.058 130.402 106.808L130.446 106.694C130.549 106.426 130.655 106.159 130.764 105.893L130.847 105.69C130.939 105.468 131.032 105.247 131.128 105.025L131.2 104.857C131.313 104.597 131.427 104.337 131.543 104.078L131.623 103.904C131.72 103.693 131.819 103.483 131.919 103.273L132.019 103.066C132.143 102.809 132.27 102.553 132.399 102.298L132.437 102.224C132.555 101.995 132.675 101.763 132.797 101.528L132.912 101.317C133.031 101.095 133.151 100.873 133.273 100.653L133.334 100.539C133.474 100.287 133.617 100.037 133.762 99.7879L133.876 99.5979C134.001 99.3843 134.128 99.1715 134.257 98.9594L134.351 98.8049C134.504 98.5539 134.66 98.3045 134.819 98.0566L134.923 97.8952C135.07 97.6663 135.22 97.4375 135.371 97.2086L135.46 97.0736C135.631 96.8188 135.804 96.5659 135.979 96.3149L136.094 96.1536C136.29 95.8759 136.488 95.6005 136.689 95.3274L136.711 95.2977C136.907 95.0307 137.107 94.7663 137.31 94.5047L137.416 94.3685C137.65 94.0633 137.887 93.7654 138.128 93.4748L138.233 93.3478C138.472 93.0571 138.715 92.7699 138.96 92.4861L139.102 92.3236C139.215 92.1947 139.33 92.0665 139.446 91.9392L139.607 91.7595C139.772 91.5779 139.937 91.3983 140.103 91.2205L140.111 91.2125C140.281 91.0317 140.452 90.8532 140.624 90.677L140.787 90.5122C140.906 90.3902 141.027 90.2692 141.147 90.1495L141.305 89.9939C141.534 89.765 141.768 89.5407 142.006 89.321L142.085 89.2478C142.314 89.0365 142.543 88.8286 142.772 88.6241L142.868 88.5395C143.107 88.3297 143.348 88.1245 143.59 87.9238L143.734 87.8094C143.976 87.6103 144.219 87.415 144.464 87.2235L144.579 87.1365C144.821 86.9496 145.064 86.7669 145.308 86.5884L145.37 86.5427C145.622 86.3596 145.876 86.1811 146.133 86.0071L146.279 85.9076C146.529 85.739 146.781 85.575 147.034 85.4155L147.171 85.3309C147.435 85.1661 147.7 85.0047 147.972 84.8502L151.051 83.072C151.265 82.9484 151.479 82.8306 151.692 82.715L151.873 82.6223Z" fill="url(#paint3_linear_12107_19796)"/>
    <path d="M151.048 83.0764C162.196 76.6409 171.292 81.8245 171.329 94.6338L171.355 104.112L162.74 109.086L162.712 99.6137C162.692 92.2651 157.471 89.291 151.076 92.9825L147.997 94.7608C141.602 98.4534 136.416 107.436 136.439 114.786L136.466 124.264L127.848 129.24L127.82 119.753C127.783 106.944 136.823 91.2901 147.969 84.8523L151.048 83.0764Z" fill="#273470"/>
    <g clip-path="url(#clip0_12107_19796)">
    <path d="M156.075 139.743C156.733 139.641 157.335 139.673 157.881 139.84C158.427 140.007 158.9 140.294 159.302 140.702C159.703 141.11 160.012 141.636 160.229 142.28C160.445 142.924 160.554 143.664 160.554 144.498C160.554 145.592 160.377 146.713 160.024 147.863C159.671 149.012 159.185 150.117 158.567 151.179C157.949 152.24 157.23 153.211 156.412 154.092C155.593 154.972 154.718 155.681 153.787 156.219C152.856 156.756 151.981 157.058 151.162 157.123C150.343 157.187 149.624 157.046 149.006 156.699C148.388 156.351 147.903 155.806 147.549 155.065C147.196 154.323 147.02 153.406 147.02 152.312C147.02 151.459 147.132 150.583 147.357 149.684C147.581 148.785 147.895 147.9 148.296 147.028C148.697 146.157 149.175 145.32 149.729 144.519C150.283 143.717 150.889 142.987 151.547 142.329V130.649C151.547 130.316 151.599 129.961 151.704 129.586C151.808 129.21 151.956 128.842 152.149 128.48C152.342 128.119 152.571 127.783 152.835 127.472C153.1 127.162 153.385 126.918 153.69 126.742C153.995 126.566 154.292 126.474 154.581 126.464C154.87 126.455 155.127 126.511 155.352 126.631C155.577 126.752 155.753 126.932 155.882 127.173C156.01 127.414 156.075 127.702 156.075 128.035V139.743ZM153.835 151.074C154.477 150.704 155.023 150.129 155.472 149.35C155.922 148.572 156.147 147.802 156.147 147.042C156.147 146.301 155.922 145.8 155.472 145.541C155.023 145.281 154.477 145.337 153.835 145.707C153.177 146.087 152.623 146.667 152.173 147.445C151.724 148.224 151.499 148.984 151.499 149.726C151.499 150.486 151.724 150.996 152.173 151.255C152.623 151.515 153.177 151.454 153.835 151.074ZM159.037 127.159C160.064 126.566 160.578 126.826 160.578 127.938V129.746C160.578 130.394 160.437 130.925 160.157 131.338C159.876 131.75 159.566 132.054 159.229 132.248L157.568 133.208V128.008L159.037 127.159Z" fill="white"/>
    </g>
    <path d="M10.0605 111.937V114.455" stroke="#9392BD" stroke-width="2.921" stroke-linecap="round"/>
    <path d="M4.40625 113.301L6.46353 115.419" stroke="#9392BD" stroke-width="2.921" stroke-linecap="round"/>
    <path d="M2 118.938H4.90896" stroke="#9392BD" stroke-width="2.921" stroke-linecap="round"/>
    <path d="M4.16992 124.676L6.2272 122.558" stroke="#9392BD" stroke-width="2.921" stroke-linecap="round"/>
    <path d="M10.0605 125.364V122.847" stroke="#9392BD" stroke-width="2.921" stroke-linecap="round"/>
    <path d="M14.2566 123.686L12.5781 122.007" stroke="#9392BD" stroke-width="2.921" stroke-linecap="round"/>
    <path d="M17.6133 119.49H15.0957" stroke="#9392BD" stroke-width="2.921" stroke-linecap="round"/>
    <path d="M15.9362 113.615L14.2578 115.294" stroke="#9392BD" stroke-width="2.921" stroke-linecap="round"/>
    <path d="M145.174 2V3.67843" stroke="#9392BD" stroke-width="2.921" stroke-linecap="round"/>
    <path d="M140.139 7.03516H141.817" stroke="#9392BD" stroke-width="2.921" stroke-linecap="round"/>
    <path d="M145.174 12.0705V10.3921" stroke="#9392BD" stroke-width="2.921" stroke-linecap="round"/>
    <path d="M149.37 7.03516H147.691" stroke="#9392BD" stroke-width="2.921" stroke-linecap="round"/>
    <path d="M47.8262 72.4937V75.0113" stroke="#9392BD" stroke-width="2.921" stroke-linecap="round"/>
    <path d="M40.2734 80.0469H42.7911" stroke="#9392BD" stroke-width="2.921" stroke-linecap="round"/>
    <path d="M47.8262 86.7603V84.2427" stroke="#9392BD" stroke-width="2.921" stroke-linecap="round"/>
    <path d="M54.5391 80.0469H52.0215" stroke="#9392BD" stroke-width="2.921" stroke-linecap="round"/>
    <path d="M228.47 164.001C230.476 164.001 232.102 165.628 232.102 167.634C232.102 169.641 230.476 171.267 228.47 171.267C226.464 171.267 224.838 169.641 224.838 167.634" stroke="#9392BD" stroke-width="2.921" stroke-linecap="round"/>
    <path fill-rule="evenodd" clip-rule="evenodd" d="M245.092 131.04C247.248 130.367 250.554 127.73 251.319 124.892C252.013 127.401 254.922 130.367 257.547 130.592C254.592 131.638 251.768 134.746 251.319 137.187C251.014 134.699 247.107 131.403 245.092 131.04Z" fill="#4B4A91"/>
    <path fill-rule="evenodd" clip-rule="evenodd" d="M23.7168 162.882C24.7955 162.545 26.4477 161.227 26.8302 159.808C27.1772 161.062 28.6313 162.545 29.9437 162.658C28.4668 163.18 27.0547 164.735 26.8302 165.955C26.6778 164.711 24.7242 163.063 23.7168 162.882Z" fill="#4B4A91"/>
    <path fill-rule="evenodd" clip-rule="evenodd" d="M43.7343 46.1398C43.7343 47.6963 42.4732 48.9569 40.9179 48.9569C39.3619 48.9569 38.1016 47.6963 38.1016 46.1398C38.1016 44.5841 39.3619 43.3228 40.9179 43.3228C42.4732 43.3228 43.7343 44.5841 43.7343 46.1398Z" fill="#4B4A91"/>
    <path fill-rule="evenodd" clip-rule="evenodd" d="M73.4151 156.708C73.4151 159.309 71.307 161.417 68.7079 161.417C66.1075 161.417 64 159.309 64 156.708C64 154.108 66.1075 152 68.7079 152C71.307 152 73.4151 154.108 73.4151 156.708Z" fill="#4B4A91"/>
    <path fill-rule="evenodd" clip-rule="evenodd" d="M297 40.9469C297 43.01 295.329 44.6819 293.267 44.6819C291.205 44.6819 289.533 43.01 289.533 40.9469C289.533 38.8838 291.205 37.2119 293.267 37.2119C295.329 37.2119 297 38.8838 297 40.9469Z" fill="#4B4A91"/>
    <path fill-rule="evenodd" clip-rule="evenodd" d="M96.3693 215.385C96.3693 216.685 95.3156 217.739 94.0154 217.739C92.7158 217.739 91.6621 216.685 91.6621 215.385C91.6621 214.084 92.7158 213.03 94.0154 213.03C95.3156 213.03 96.3693 214.084 96.3693 215.385Z" stroke="#9392BD" stroke-width="2.921" stroke-linecap="round"/>
    <path fill-rule="evenodd" clip-rule="evenodd" d="M94.9686 28.0417C94.9686 29.5981 93.7076 30.8588 92.1523 30.8588C90.597 30.8588 89.3359 29.5981 89.3359 28.0417C89.3359 26.486 90.597 25.2246 92.1523 25.2246C93.7076 25.2246 94.9686 26.486 94.9686 28.0417Z" stroke="#9392BD" stroke-width="2.921" stroke-linecap="round"/>
    <path fill-rule="evenodd" clip-rule="evenodd" d="M166.807 241.457C165.008 242.142 162.994 241.238 162.309 239.439C161.624 237.638 162.528 235.623 164.328 234.939C166.127 234.254 168.141 235.158 168.826 236.958C169.511 238.758 168.607 240.773 166.807 241.457Z" stroke="#9392BD" stroke-width="2.921" stroke-linecap="round"/>
    <defs>
    <filter id="filter0_f_12107_19796" x="83.0918" y="128.681" width="17.4688" height="17.4697" filterUnits="userSpaceOnUse" color-interpolation-filters="sRGB">
    <feFlood flood-opacity="0" result="BackgroundImageFix"/>
    <feBlend mode="normal" in="SourceGraphic" in2="BackgroundImageFix" result="shape"/>
    <feGaussianBlur stdDeviation="2" result="effect1_foregroundBlur_12107_19796"/>
    </filter>
    <linearGradient id="paint0_linear_12107_19796" x1="146.378" y1="52" x2="146.378" y2="202.757" gradientUnits="userSpaceOnUse">
    <stop stop-color="#EFF2FF"/>
    <stop offset="1" stop-color="#C8D2FF"/>
    </linearGradient>
    <linearGradient id="paint1_linear_12107_19796" x1="145.835" y1="97.291" x2="145.835" y2="179.531" gradientUnits="userSpaceOnUse">
    <stop stop-color="#273470"/>
    <stop offset="1" stop-color="#3B57D7"/>
    </linearGradient>
    <linearGradient id="paint2_linear_12107_19796" x1="152.161" y1="103.8" x2="152.161" y2="179.848" gradientUnits="userSpaceOnUse">
    <stop stop-color="#4557AC"/>
    <stop offset="1" stop-color="#5A6FCC"/>
    </linearGradient>
    <linearGradient id="paint3_linear_12107_19796" x1="143.821" y1="77.061" x2="143.821" y2="129.234" gradientUnits="userSpaceOnUse">
    <stop stop-color="#273470"/>
    <stop offset="1" stop-color="#5366BF"/>
    </linearGradient>
    <clipPath id="clip0_12107_19796">
    <rect width="29.5321" height="29.5321" fill="white" transform="matrix(0.866025 -0.5 0 1 140.832 134.166)"/>
    </clipPath>
    </defs>
    </svg>