<svg fill="none" viewBox="0 0 18 22" xmlns="http://www.w3.org/2000/svg"><path d="m.649902 18.175v-2.275h2.074998v-6.77498c0-1.43333.42934-2.71266 1.288-3.838.858-1.12466 1.97034-1.862 3.337-2.212v-.675c0-.45.16267-.83333.488-1.15.32467-.316662.712-.474996 1.162-.474996s.83767.158334 1.163.474996c.3247.31667.487.7.487 1.15v.675c1.3833.35 2.5 1.08334 3.35 2.2.85 1.11667 1.275 2.4 1.275 3.85v6.77498h2.075v2.275zm8.349998 3.025c-.56666 0-1.054-.2-1.462-.6-.40866-.4-.613-.8833-.613-1.45h4.15c0 .5667-.204 1.05-.612 1.45-.4087.4-.89633.6-1.463.6zm-4-5.3h8v-6.77498c0-1.1-.3917-2.04166-1.175-2.825-.7833-.78333-1.725-1.175-2.825-1.175s-2.04166.39167-2.825 1.175c-.78333.78334-1.175 1.725-1.175 2.825z" fill="#6e77a5"/></svg>