<svg width="1280" height="1280" viewBox="0 0 1280 1280" fill="none" xmlns="http://www.w3.org/2000/svg">
<g clip-path="url(#clip0_12570_91012)">
<path d="M795.011 341.66C796.021 341.65 797.031 341.65 798.081 341.64C800.201 341.63 802.331 341.63 804.461 341.63C807.661 341.62 810.861 341.58 814.071 341.55C826.081 341.48 836.511 342.44 848.001 346C849.561 346.35 851.121 346.69 852.691 347C866.441 350.04 878.491 355.71 891.001 362C891.001 362.66 891.001 363.32 891.001 364C893.471 364.49 893.471 364.49 896.001 365C896.001 365.66 896.001 366.32 896.001 367C896.581 367.11 897.161 367.23 897.751 367.35C906.381 369.84 913.771 377.86 920.431 383.66C921.511 384.58 922.611 385.49 923.731 386.38C925.181 387.54 926.601 388.77 928.001 390C928.001 390.66 928.001 391.32 928.001 392C928.661 392 929.321 392 930.001 392C931.581 393.57 931.581 393.57 933.371 395.68C934.301 396.78 934.301 396.78 935.241 397.89C935.821 398.59 936.401 399.28 937.001 400C937.801 400.94 938.611 401.89 939.441 402.87C941.001 405 941.001 405 941.001 407C941.661 407 942.321 407 943.001 407C944.641 409.17 946.141 411.34 947.621 413.62C948.071 414.3 948.511 414.97 948.971 415.67C955.061 425.05 960.721 434.63 965.001 445C965.491 446.05 965.991 447.1 966.501 448.18C968.931 453.91 970.391 460 972.001 466C972.181 466.65 972.351 467.3 972.531 467.97C973.081 469.98 973.601 471.99 974.121 474C974.441 475.19 974.751 476.39 975.071 477.62C975.391 479.08 975.701 480.54 976.001 482C976.171 482.82 976.341 483.65 976.521 484.5C978.781 497.57 978.311 510.82 978.301 524.04C978.301 526.08 978.301 528.13 978.311 530.17C978.321 536.58 978.321 543 978.311 549.41C978.311 555.98 978.321 562.54 978.341 569.1C978.361 574.78 978.371 580.47 978.361 586.15C978.361 589.52 978.361 592.89 978.381 596.27C978.451 617.03 976.491 636 971.001 656C970.741 656.96 970.481 657.93 970.221 658.93C968.901 663.62 967.241 667.83 964.971 672.13C963.471 675.01 962.251 678 961.001 681C960.441 682.31 959.871 683.62 959.311 684.93C958.661 686.45 958.661 686.45 958.001 688C957.341 688 956.681 688 956.001 688C955.891 688.57 955.781 689.14 955.671 689.73C954.901 692.33 953.751 694.08 952.191 696.31C949.571 700.11 947.231 703.96 945.001 708C944.341 708 943.681 708 943.001 708C942.811 708.67 942.611 709.34 942.421 710.04C940.431 714.19 937.491 717.08 934.311 720.37C933.711 721.01 933.111 721.64 932.491 722.29C930.671 724.21 928.841 726.1 927.001 728C926.121 728.91 926.121 728.91 925.221 729.85C921.441 733.73 917.491 737.1 913.121 740.31C908.971 743.12 908.971 743.12 906.001 747C907.011 746.96 908.021 746.92 909.061 746.88C913.041 747 916.141 747.69 919.941 748.81C926.681 750.73 933.431 752.09 940.341 753.28C944.001 754 944.001 754 947.431 754.99C952.191 756.33 956.981 757.08 961.861 757.85C965.841 758.52 969.251 759.44 973.001 761C975.401 761.4 975.401 761.4 977.751 761.56C981.901 761.9 981.901 761.9 983.001 763C984.781 763.32 986.581 763.61 988.371 763.87C993.501 764.69 998.381 765.85 1003.37 767.28C1005.8 767.94 1008.2 768.43 1010.69 768.87C1022.17 771.08 1033.37 775.18 1044 780C1044.8 780.35 1045.6 780.7 1046.43 781.07C1057.35 786.18 1069.26 793.66 1078 802C1078 802.66 1078 803.32 1078 804C1078.56 804.23 1079.12 804.47 1079.7 804.71C1082.52 806.29 1084.48 808.21 1086.75 810.5C1087.55 811.29 1088.35 812.08 1089.17 812.9C1091 815 1091 815 1091 817C1091.66 817 1092.32 817 1093 817C1094.94 819.11 1094.94 819.11 1097.12 821.87C1097.85 822.78 1098.57 823.68 1099.32 824.61C1101 827 1101 827 1101 829C1101.81 828.99 1102.63 828.99 1103.47 828.98C1123.33 828.87 1143.2 828.79 1163.06 828.74C1172.67 828.71 1182.28 828.68 1191.88 828.62C1200.26 828.57 1208.64 828.54 1217.01 828.53C1221.44 828.52 1225.88 828.5 1230.31 828.47C1234.49 828.43 1238.66 828.42 1242.84 828.43C1244.37 828.43 1245.9 828.42 1247.43 828.4C1257.55 828.28 1265.58 829.25 1273.44 836.13C1274.21 837.11 1274.21 837.11 1275 838.12C1275.53 838.78 1276.07 839.45 1276.62 840.13C1279.78 844.42 1280.25 846.58 1280.26 851.9C1280.27 852.97 1280.27 852.97 1280.27 854.05C1280.28 856.45 1280.28 858.85 1280.28 861.25C1280.28 862.98 1280.29 864.71 1280.3 866.44C1280.31 871.2 1280.32 875.97 1280.32 880.73C1280.32 885.87 1280.34 891.01 1280.35 896.14C1280.38 907.38 1280.39 918.61 1280.4 929.85C1280.4 936.86 1280.41 943.87 1280.42 950.89C1280.45 970.29 1280.47 989.7 1280.47 1009.11C1280.47 1010.35 1280.47 1011.6 1280.47 1012.88C1280.48 1014.12 1280.48 1015.37 1280.48 1016.65C1280.48 1019.18 1280.48 1021.7 1280.48 1024.23C1280.48 1025.48 1280.48 1026.73 1280.48 1028.02C1280.49 1048.31 1280.52 1068.61 1280.57 1088.9C1280.62 1109.72 1280.64 1130.55 1280.64 1151.37C1280.65 1163.07 1280.66 1174.76 1280.69 1186.46C1280.72 1196.42 1280.73 1206.38 1280.72 1216.34C1280.71 1221.42 1280.71 1226.5 1280.74 1231.58C1280.77 1236.24 1280.76 1240.89 1280.74 1245.54C1280.74 1247.23 1280.74 1248.91 1280.76 1250.59C1280.91 1265.8 1280.91 1265.8 1275.6 1271.55C1275.07 1272.02 1274.54 1272.5 1274 1273C1273.47 1273.51 1272.93 1274.03 1272.38 1274.57C1269.79 1276.92 1268.58 1278 1265 1278C1265 1278.66 1265 1279.32 1265 1280C852.501 1280 440.001 1280 15.0011 1280C15.0011 1279.34 15.0011 1278.68 15.0011 1278C14.3211 1277.98 13.6411 1277.95 12.9411 1277.93C8.52111 1276.52 5.8211 1273.61 3.0011 1270C2.0611 1267.06 2.0611 1267.06 2.0011 1265C1.3411 1265 0.681104 1265 0.00110358 1265C-0.118896 1249.49 -0.208906 1233.98 -0.258906 1218.47C-0.288906 1211.27 -0.318901 1204.07 -0.378901 1196.87C-0.428901 1190.59 -0.458867 1184.31 -0.468867 1178.03C-0.478867 1174.71 -0.498865 1171.39 -0.528865 1168.07C-0.568865 1164.35 -0.568904 1160.64 -0.568904 1156.92C-0.588904 1155.83 -0.608892 1154.73 -0.618892 1153.61C-0.578892 1147.03 0.311103 1141.91 5.0011 1137C5.6611 1137 6.3211 1137 7.0011 1137C7.0011 1136.34 7.0011 1135.68 7.0011 1135C15.3211 1130.1 21.7611 1128.12 31.3811 1128.31C33.1311 1128.31 33.1311 1128.31 34.9311 1128.31C38.7611 1128.32 42.5911 1128.36 46.4211 1128.41C49.0911 1128.42 51.7711 1128.43 54.4411 1128.44C60.7311 1128.45 67.0211 1128.5 73.3111 1128.56C80.4811 1128.63 87.6411 1128.66 94.8111 1128.69C109.541 1128.76 124.271 1128.86 139.001 1129C138.991 1128.34 138.991 1127.68 138.981 1127C138.951 1123.99 138.941 1120.97 138.921 1117.96C138.911 1116.93 138.901 1115.89 138.891 1114.83C138.851 1104.72 140.051 1095.72 145.041 1086.75C146.171 1084.76 146.171 1084.76 147.371 1081.56C149.421 1077.07 151.871 1072.83 155.001 1069C155.661 1069 156.321 1069 157.001 1069C157.991 1066.52 157.991 1066.52 159.001 1064C159.661 1064 160.321 1064 161.001 1064C161.331 1063.01 161.661 1062.02 162.001 1061C162.661 1061 163.321 1061 164.001 1061C164.001 1060.34 164.001 1059.68 164.001 1059C165.651 1058.34 167.301 1057.68 169.001 1057C169.001 1056.34 169.001 1055.68 169.001 1055C176.031 1049.33 183.431 1045.64 192.001 1043C193.621 1042.43 195.251 1041.87 196.871 1041.31C204.521 1038.7 210.491 1039 219.001 1039C219.001 1023.82 219.001 1008.64 219.001 993C212.931 993.03 206.861 993.06 200.611 993.09C180.581 993.19 160.541 993.26 140.501 993.31C128.351 993.34 116.211 993.38 104.061 993.45C93.4711 993.51 82.8711 993.55 72.2811 993.56C66.6811 993.57 61.0711 993.59 55.4711 993.63C50.1811 993.67 44.9011 993.68 39.6211 993.67C37.6911 993.68 35.7511 993.69 33.8211 993.71C22.5211 993.84 13.9311 993.75 5.38111 985.42C0.881108 980.37 -0.248906 976.68 -0.258906 969.99C-0.268906 969.28 -0.268865 968.57 -0.278865 967.84C-0.288865 965.45 -0.288865 963.06 -0.278865 960.67C-0.288865 958.94 -0.288884 957.22 -0.298884 955.49C-0.318884 950.74 -0.318904 945.99 -0.318904 941.24C-0.328904 936.12 -0.338872 931 -0.348872 925.88C-0.378872 914.68 -0.38886 903.48 -0.39886 892.28C-0.40886 885.29 -0.418889 878.29 -0.428889 871.3C-0.448889 851.95 -0.468877 832.6 -0.478877 813.24C-0.478877 812 -0.478877 810.76 -0.478877 809.49C-0.478877 808.24 -0.478877 807 -0.478877 805.72C-0.478877 803.21 -0.478877 800.69 -0.478877 798.17C-0.478877 796.92 -0.478877 795.68 -0.478877 794.39C-0.488877 774.16 -0.528904 753.93 -0.568904 733.7C-0.618904 712.93 -0.64886 692.17 -0.64886 671.4C-0.64886 659.74 -0.658909 648.08 -0.698909 636.42C-0.728909 626.49 -0.738867 616.56 -0.718867 606.63C-0.708867 601.57 -0.718887 596.5 -0.738887 591.44C-0.768887 586.8 -0.768887 582.16 -0.738887 577.52C-0.738887 575.84 -0.738906 574.16 -0.758906 572.49C-0.848906 563.35 -0.728897 555.96 6.0011 549C8.4811 546.84 8.4811 546.84 10.7511 545.5C11.5111 545.03 12.2611 544.57 13.0511 544.09C16.8911 541.93 19.8911 541.84 24.2311 541.84C25.3611 541.83 25.3611 541.83 26.5211 541.82C29.0611 541.8 31.6011 541.8 34.1411 541.79C35.9611 541.78 37.7711 541.77 39.5911 541.76C45.5711 541.73 51.5511 541.71 57.5311 541.69C58.5511 541.68 59.5611 541.68 60.6111 541.68C70.2111 541.65 79.8011 541.62 89.4011 541.6C101.671 541.58 113.941 541.54 126.211 541.47C134.841 541.42 143.471 541.4 152.101 541.39C157.251 541.39 162.401 541.37 167.561 541.33C172.411 541.29 177.261 541.29 182.111 541.3C183.891 541.3 185.671 541.29 187.441 541.27C198.221 541.14 206.321 541.82 214.591 549.47C220.501 555.9 221.631 562.25 221.411 570.71C220.461 578.33 216.851 583.97 210.941 588.74C166.141 617.68 104.331 593 51.0011 593C51.0011 708.17 51.0011 823.34 51.0011 942C106.441 942 161.881 942 219.001 942C218.881 898.2 218.881 898.2 218.731 854.4C218.711 845.89 218.711 845.89 218.711 841.9C218.711 839.14 218.701 836.37 218.681 833.61C218.661 830.06 218.651 826.52 218.661 822.97C218.661 821.08 218.641 819.19 218.621 817.3C218.671 805.97 220.291 794.8 225.751 784.75C226.271 783.75 226.271 783.75 226.801 782.74C229.721 777.24 232.851 771.66 237.001 767C237.661 767 238.321 767 239.001 767C239.331 766.01 239.661 765.02 240.001 764C240.661 764 241.321 764 242.001 764C242.001 763.34 242.001 762.68 242.001 762C243.921 760.29 245.831 758.73 247.871 757.18C248.771 756.51 248.771 756.51 249.681 755.82C254.551 752.2 259.381 749.32 265.001 747C265.951 746.53 266.911 746.07 267.901 745.59C276.901 741.81 285.611 741.51 295.311 741.5C296.601 741.49 297.891 741.48 299.211 741.48C309.971 741.62 318.541 743.88 328.061 748.75C328.751 749.09 329.431 749.44 330.141 749.79C335.601 752.63 340.311 756.01 345.001 760C345.991 760.66 346.981 761.32 348.001 762C348.001 762.66 348.001 763.32 348.001 764C348.991 764.33 349.981 764.66 351.001 765C351.001 765.66 351.001 766.32 351.001 767C351.661 767 352.321 767 353.001 767C354.701 769.23 356.271 771.46 357.811 773.81C358.261 774.49 358.711 775.17 359.171 775.87C364.111 783.52 368.111 790.8 369.001 800C369.331 800.95 369.661 801.9 370.001 802.87C371.651 808.51 371.261 814.36 371.231 820.18C371.221 821.54 371.221 822.89 371.231 824.24C371.231 827.85 371.211 831.45 371.201 835.06C371.191 838.45 371.191 841.84 371.191 845.23C371.181 855.13 371.151 865.03 371.121 874.93C371.081 897.06 371.041 919.19 371.001 942C426.441 942 481.881 942 539.001 942C539.001 826.83 539.001 711.66 539.001 593C488.841 593 438.681 593 387.001 593C372.661 584.39 372.661 584.39 369.511 576.17C367.601 568.04 368.281 560.39 372.441 553.15C376.281 547.82 380.991 544.58 387.001 542C389.651 541.71 392.071 541.58 394.711 541.59C395.471 541.59 396.231 541.58 397.011 541.57C399.541 541.56 402.071 541.56 404.591 541.56C406.411 541.55 408.231 541.54 410.051 541.53C414.981 541.5 419.911 541.5 424.841 541.49C427.921 541.49 431.001 541.49 434.081 541.48C444.851 541.45 455.611 541.44 466.371 541.44C476.391 541.44 486.411 541.41 496.431 541.36C505.041 541.32 513.651 541.31 522.261 541.31C527.401 541.31 532.541 541.3 537.681 541.27C542.511 541.24 547.351 541.24 552.191 541.26C553.961 541.27 555.731 541.26 557.501 541.24C568.251 541.14 576.341 541.84 584.591 549.47C590.221 555.6 591.451 561.89 591.361 569.85C591.361 570.72 591.361 571.58 591.371 572.48C591.371 575.37 591.361 578.27 591.341 581.16C591.341 583.24 591.341 585.32 591.341 587.4C591.341 593.04 591.321 598.67 591.301 604.31C591.281 610.21 591.281 616.1 591.281 622C591.271 633.16 591.241 644.32 591.211 655.48C591.181 668.18 591.161 680.89 591.151 693.59C591.121 719.73 591.071 745.86 591.001 772C592.441 771.68 593.881 771.36 595.321 771.04C596.121 770.87 596.921 770.69 597.751 770.51C600.321 769.92 602.841 769.23 605.371 768.5C609.951 767.22 614.501 766.33 619.181 765.53C623.201 764.77 627.141 763.73 631.101 762.71C634.501 761.87 637.931 761.19 641.371 760.53C645.441 759.7 649.481 758.74 653.531 757.78C657.111 756.97 660.691 756.25 664.291 755.54C668.991 754.59 673.681 753.58 678.371 752.56C679.381 752.34 680.391 752.12 681.431 751.9C686.641 750.77 691.791 749.56 696.941 748.18C701.431 747.01 705.361 746.73 710.001 747C707.421 744.35 705.081 742.05 702.001 740C702.001 739.34 702.001 738.68 702.001 738C701.261 737.74 700.521 737.49 699.751 737.23C696.831 735.92 695.181 734.57 692.921 732.32C691.811 731.21 691.811 731.21 690.671 730.08C689.891 729.29 689.111 728.5 688.311 727.68C687.511 726.87 686.711 726.06 685.881 725.23C679.651 718.84 674.151 712.28 669.001 705C668.361 704.14 667.721 703.28 667.061 702.4C663.181 697.11 660.171 691.64 657.331 685.73C656.291 683.58 655.191 681.59 653.941 679.56C638.151 652.36 637.841 619.26 637.831 588.89C637.831 586.47 637.821 584.06 637.821 581.64C637.811 576.6 637.811 571.56 637.811 566.52C637.811 560.12 637.801 553.71 637.781 547.31C637.771 542.33 637.771 537.34 637.771 532.36C637.771 530 637.761 527.64 637.761 525.28C637.691 504.39 638.731 484.28 644.001 464C644.261 462.99 644.521 461.98 644.781 460.94C646.061 456.35 647.731 452.26 649.971 448.05C651.111 445.77 652.021 443.45 652.941 441.06C654.891 436.09 657.271 431.58 660.001 427C660.611 425.96 661.221 424.93 661.851 423.86C665.441 417.89 669.161 412.21 673.551 406.8C675.161 404.85 675.161 404.85 677.001 402C677.661 402 678.321 402 679.001 402C679.271 401.42 679.531 400.84 679.811 400.25C681.031 397.94 682.301 395.98 684.001 394C684.661 394 685.321 394 686.001 394C686.351 393.14 686.351 393.14 686.721 392.26C688.271 389.51 690.121 387.83 692.501 385.75C693.291 385.04 694.091 384.33 694.901 383.61C697.001 382 697.001 382 699.001 382C699.001 381.34 699.001 380.68 699.001 380C702.461 377 702.461 377 705.001 377C705.001 376.34 705.001 375.68 705.001 375C709.381 372 709.381 372 712.001 372C712.001 371.34 712.001 370.68 712.001 370C729.201 357.25 752.131 348.17 773.001 344C773.761 343.84 774.531 343.68 775.311 343.51C781.941 342.2 788.271 341.68 795.011 341.66ZM735.001 418C735.001 418.66 735.001 419.32 735.001 420C734.401 420.28 733.801 420.57 733.191 420.87C730.811 422.04 730.811 422.04 728.001 424C728.001 424.66 728.001 425.32 728.001 426C727.341 426 726.681 426 726.001 426C726.001 426.66 726.001 427.32 726.001 428C725.011 428.33 724.021 428.66 723.001 429C723.001 429.66 723.001 430.32 723.001 431C722.341 431 721.681 431 721.001 431C718.951 433.17 718.951 433.17 716.871 435.87C715.791 437.23 715.791 437.23 714.681 438.61C712.811 440.78 712.811 440.78 713.001 443C712.341 443 711.681 443 711.001 443C708.961 445.9 708.001 447.4 708.001 451C707.341 451 706.681 451 706.001 451C703.211 454.8 701.661 459.15 699.971 463.52C699.181 465.53 698.321 467.52 697.441 469.5C692.381 481.81 690.671 493.93 690.871 507.18C690.881 508.33 690.891 509.47 690.901 510.65C690.921 513.43 690.961 516.21 691.001 519C698.741 519.04 706.491 519.08 714.241 519.1C717.831 519.11 721.431 519.12 725.031 519.15C728.511 519.17 731.991 519.18 735.481 519.19C737.431 519.19 739.381 519.21 741.341 519.22C752.371 519.22 762.591 517.84 773.001 514.18C773.761 513.92 774.531 513.66 775.321 513.39C784.501 510.19 793.371 506.48 802.001 502C802.001 501.34 802.001 500.68 802.001 500C802.711 499.75 803.421 499.5 804.151 499.24C807.321 497.86 809.791 496.13 812.561 494.06C813.951 493.02 813.951 493.02 815.381 491.97C816.241 491.32 817.111 490.67 818.001 490C818.771 489.46 819.541 488.92 820.341 488.37C820.891 487.91 821.431 487.46 822.001 487C822.001 486.34 822.001 485.68 822.001 485C822.801 484.69 822.801 484.69 823.621 484.37C826.921 482.46 829.591 479.95 832.001 477C832.001 476.34 832.001 475.68 832.001 475C832.991 474.67 833.981 474.34 835.001 474C835.001 473.34 835.001 472.68 835.001 472C835.661 472 836.321 472 837.001 472C837.581 471.4 838.151 470.8 838.751 470.18C843.541 465.53 848.791 464.24 855.251 463.75C862.151 464.21 867.891 466.87 874.001 470C874.661 470 875.321 470 876.001 470C876.001 470.66 876.001 471.32 876.001 472C877.431 472.84 878.871 473.67 880.311 474.5C881.111 474.96 881.911 475.42 882.741 475.9C885.031 477.21 885.031 477.21 888.001 477C888.001 477.66 888.001 478.32 888.001 479C889.651 479.33 891.301 479.66 893.001 480C893.001 480.66 893.001 481.32 893.001 482C893.701 482.32 894.411 482.65 895.131 482.99C901.821 486.22 908.031 489.78 914.191 493.92C917.361 496.04 920.401 497.73 924.001 499C924.381 489.07 922.951 480.63 919.051 471.48C918.381 469.89 917.751 468.29 917.171 466.67C912.661 454.23 904.051 438.65 894.001 430C893.341 430 892.681 430 892.001 430C892.001 429.34 892.001 428.68 892.001 428C891.341 428 890.681 428 890.001 428C889.671 427.01 889.341 426.02 889.001 425C888.341 425 887.681 425 887.001 425C887.001 424.34 887.001 423.68 887.001 423C885.121 421.34 883.251 419.82 881.251 418.31C880.661 417.86 880.071 417.42 879.471 416.96C870.631 410.36 861.151 405.28 851.001 401C850.361 400.71 849.721 400.42 849.061 400.13C843.501 397.8 837.621 396.78 831.721 395.69C829.541 395.28 827.371 394.85 825.221 394.36C793.121 387.33 761.231 400.51 735.001 418ZM858.001 523C858.001 523.66 858.001 524.32 858.001 525C857.011 525.33 856.021 525.66 855.001 526C855.001 526.66 855.001 527.32 855.001 528C854.441 528.26 853.881 528.53 853.311 528.81C850.791 530.1 848.361 531.42 846.001 533C846.001 533.66 846.001 534.32 846.001 535C845.481 535.24 844.971 535.49 844.441 535.75C841.231 537.39 838.121 539.19 835.001 541C835.001 541.66 835.001 542.32 835.001 543C834.431 543.11 833.861 543.23 833.281 543.35C830.781 544.06 828.811 545.08 826.561 546.37C825.771 546.82 824.991 547.26 824.181 547.72C822.501 548.7 820.841 549.72 819.191 550.75C817.091 551.94 815.351 552.56 813.001 553C813.001 553.66 813.001 554.32 813.001 555C812.311 555.17 811.621 555.34 810.911 555.51C806.411 556.67 802.121 557.82 797.941 559.87C783.031 566.8 765.321 569.81 749.011 570.54C748.151 570.58 747.301 570.62 746.421 570.66C735.371 571.15 724.311 571.35 713.251 571.56C711.081 571.6 708.901 571.65 706.731 571.69C701.491 571.79 696.241 571.9 691.001 572C690.951 579.04 690.911 586.08 690.891 593.13C690.881 595.52 690.861 597.91 690.851 600.3C690.821 603.76 690.811 607.21 690.801 610.67C690.791 611.72 690.781 612.78 690.771 613.86C690.771 630.04 695.021 643.56 702.001 658C702.451 659 702.901 660 703.371 661.04C707.211 669.28 712.331 675.97 718.001 683C718.831 684.17 718.831 684.17 719.671 685.37C720.111 685.91 720.551 686.44 721.001 687C721.661 687 722.321 687 723.001 687C723.001 687.66 723.001 688.32 723.001 689C724.611 690.67 724.611 690.67 726.691 692.37C727.411 692.99 728.141 693.61 728.891 694.24C729.591 694.82 730.281 695.4 731.001 696C732.421 697.2 732.421 697.2 733.871 698.43C735.831 700.19 735.831 700.19 738.001 700C738.001 700.66 738.001 701.32 738.001 702C740.431 703.72 742.841 705.32 745.371 706.87C746.101 707.32 746.831 707.78 747.591 708.24C752.881 711.46 758.151 713.95 764.001 716C765.171 716.53 766.351 717.07 767.561 717.62C771.091 719.03 774.461 719.85 778.181 720.57C780.001 721 780.001 721 781.001 722C789.991 723.93 798.901 724.31 808.061 724.25C809.241 724.25 810.411 724.26 811.631 724.27C827.121 724.24 841.111 721.13 855.051 714.4C858.001 713 858.001 713 860.491 712.03C863.581 710.75 866.411 709.17 869.311 707.5C870.381 706.89 871.451 706.28 872.551 705.65C873.361 705.11 874.171 704.56 875.001 704C875.001 703.34 875.001 702.68 875.001 702C875.781 701.69 876.571 701.38 877.371 701.06C879.921 700.07 879.921 700.07 882.001 699C882.001 698.34 882.001 697.68 882.001 697C882.541 696.78 883.081 696.56 883.641 696.34C886.811 694.53 889.211 692.08 891.751 689.5C892.251 689 892.761 688.5 893.281 687.98C896.131 685.47 896.131 685.47 897.001 682C897.661 682 898.321 682 899.001 682C903.621 676.46 907.691 670.4 911.001 664C911.461 663.14 911.921 662.28 912.391 661.39C921.781 643.38 925.131 626.42 925.201 606.32C925.211 605.03 925.211 603.74 925.221 602.41C925.231 599.7 925.241 596.99 925.241 594.27C925.241 590.8 925.271 587.33 925.301 583.85C925.321 580.53 925.321 577.2 925.331 573.88C925.341 572.01 925.341 572.01 925.361 570.1C925.361 568.37 925.361 568.37 925.351 566.61C925.361 565.6 925.361 564.58 925.371 563.54C924.941 560.57 924.351 559.78 922.001 558C919.851 556.69 917.701 555.45 915.501 554.25C910.001 551.17 904.671 547.93 899.381 544.52C896.311 542.56 893.171 540.78 890.001 539C884.751 535.75 884.751 535.75 882.231 534.17C879.981 532.76 879.981 532.76 877.001 533C877.001 532.34 877.001 531.68 877.001 531C876.241 530.59 875.481 530.18 874.701 529.75C873.701 529.21 872.711 528.68 871.691 528.12C870.701 527.59 869.711 527.05 868.701 526.5C866.001 525 866.001 525 863.001 523C860.371 522.83 860.371 522.83 858.001 523ZM771.001 773C772.281 781.74 775.361 789.8 779.061 797.78C780.401 800.96 781.281 804.23 782.221 807.54C782.971 809.92 783.881 812.1 784.941 814.37C787.001 818.82 788.491 823.37 790.001 828.03C791.181 831.54 792.541 834.96 793.941 838.39C798.311 849.14 802.181 860.05 806.001 871C806.991 871 807.981 871 809.001 871C810.751 867.16 812.211 863.42 813.371 859.37C814.841 854.32 816.681 849.47 818.601 844.57C820.411 839.95 822.131 835.3 823.851 830.64C825.021 827.52 826.241 824.45 827.561 821.39C828.861 818.32 829.931 815.29 830.941 812.12C832.391 807.67 834.081 803.47 836.061 799.23C837.441 795.96 838.361 792.59 839.291 789.16C840.001 787 840.001 787 842.001 784C843.491 780.18 844.241 777.09 844.001 773C840.031 772.83 836.681 772.99 832.821 773.99C828.071 775.08 823.581 775.29 818.721 775.26C817.871 775.26 817.021 775.27 816.141 775.27C814.351 775.27 812.571 775.27 810.781 775.26C808.071 775.25 805.361 775.26 802.661 775.27C786.971 775.28 786.971 775.28 779.881 773.44C776.891 772.74 774.061 772.86 771.001 773ZM283.001 796C283.001 796.66 283.001 797.32 283.001 798C282.281 798.18 281.551 798.37 280.811 798.56C276.181 800.93 273.901 804.81 271.941 809.54C270.751 813.88 270.731 817.82 270.761 822.3C270.761 823.23 270.751 824.15 270.751 825.11C270.751 828.21 270.761 831.32 270.771 834.42C270.771 836.65 270.771 838.88 270.771 841.11C270.771 847.15 270.781 853.2 270.801 859.24C270.811 865.56 270.811 871.88 270.811 878.19C270.821 888.8 270.831 899.4 270.851 910.01C270.871 920.93 270.881 931.85 270.891 942.77C270.891 943.44 270.891 944.11 270.891 944.81C270.891 948.19 270.901 951.57 270.901 954.95C270.921 982.96 270.961 1010.98 271.001 1039C286.841 1039 302.681 1039 319.001 1039C319.091 1010.36 319.161 981.72 319.201 953.08C319.211 949.7 319.211 946.32 319.221 942.93C319.221 941.92 319.221 941.92 319.221 940.89C319.241 930 319.271 919.1 319.311 908.2C319.341 897.02 319.371 885.83 319.371 874.64C319.381 868.36 319.391 862.08 319.421 855.8C319.451 849.89 319.461 843.97 319.451 838.06C319.451 835.89 319.461 833.72 319.481 831.56C319.501 828.59 319.491 825.62 319.481 822.66C319.501 821.38 319.501 821.38 319.511 820.07C319.441 812.61 317.301 806.69 312.441 801C310.091 798.83 310.091 798.83 307.001 798C307.001 797.34 307.001 796.68 307.001 796C297.831 792.57 292.161 792.57 283.001 796ZM707.001 800C703.641 800.67 700.291 801.27 696.921 801.85C693.861 802.39 690.951 803.01 688.001 804C684.381 805.2 680.751 805.78 677.001 806.37C670.161 807.5 663.721 809.14 657.091 811.15C653.731 812.07 650.541 812.54 647.061 812.72C644.861 812.95 644.861 812.95 642.331 813.89C638.191 815.26 634.021 816.13 629.751 817C628.481 817.26 628.481 817.26 627.191 817.53C622.901 818.42 618.611 819.26 614.311 820.06C609.991 820.92 606.061 822.32 602.001 824C600.671 824.51 600.671 824.51 599.311 825.04C594.841 826.5 594.841 826.5 591.001 829C590.901 830.85 590.871 832.7 590.871 834.55C590.871 835.76 590.871 836.97 590.871 838.21C590.871 839.56 590.871 840.91 590.871 842.26C590.871 843.67 590.871 845.09 590.871 846.5C590.861 849.55 590.861 852.6 590.861 855.65C590.861 860.48 590.851 865.31 590.831 870.14C590.831 870.95 590.831 871.77 590.821 872.61C590.821 874.27 590.811 875.94 590.811 877.61C590.771 888.85 590.751 900.1 590.751 911.35C590.751 918.93 590.731 926.51 590.701 934.09C590.681 938.1 590.671 942.11 590.681 946.12C590.691 949.9 590.681 953.68 590.651 957.45C590.641 959.49 590.661 961.53 590.671 963.56C590.591 971.35 589.661 977.57 585.001 984C582.491 986.33 579.951 988.26 577.001 990C576.451 990.34 575.911 990.69 575.351 991.04C572.081 992.37 568.901 992.33 565.421 992.37C564.341 992.4 564.341 992.4 563.231 992.43C560.921 992.48 558.621 992.52 556.311 992.56C553.991 992.6 551.681 992.65 549.361 992.7C547.921 992.73 546.481 992.76 545.041 992.78C541.741 992.57 541.741 992.57 539.001 994C539.001 1038.55 539.001 1083.1 539.001 1129C661.101 1129 783.201 1129 909.001 1129C909.131 1037.3 909.131 1037.3 909.211 945.6C909.251 927.87 909.251 927.87 909.271 919.57C909.291 913.77 909.291 907.98 909.281 902.18C909.281 895.48 909.291 888.79 909.321 882.1C909.331 878.68 909.341 875.26 909.321 871.84C909.311 868.17 909.331 864.5 909.361 860.83C909.341 859.24 909.341 859.24 909.331 857.62C909.411 851.1 910.681 846.62 913.931 840.96C915.161 839.08 915.161 839.08 915.001 837C915.661 837 916.321 837 917.001 837C917.001 836.34 917.001 835.68 917.001 835C917.681 834.73 918.361 834.46 919.061 834.18C922.061 833.02 922.061 833.02 925.091 831.45C929.531 829.55 933.731 829.56 938.511 829.56C939.441 829.55 940.371 829.54 941.321 829.53C944.371 829.5 947.421 829.49 950.461 829.48C952.581 829.47 954.701 829.45 956.821 829.43C962.391 829.38 967.951 829.35 973.521 829.33C979.201 829.3 984.891 829.25 990.571 829.2C1001.71 829.12 1012.86 829.05 1024 829C1023.4 828.7 1022.81 828.41 1022.2 828.11C1020.37 827.18 1018.58 826.16 1016.81 825.12C1010.64 822.02 1003.75 820.92 997.051 819.45C994.271 818.83 991.511 818.14 988.751 817.43C979.941 815.22 971.131 813.17 962.191 811.56C955.941 810.43 949.821 809.01 943.681 807.41C938.831 806.17 933.981 805.19 929.041 804.39C927.001 804 927.001 804 925.001 803C923.141 802.84 923.141 802.84 921.251 802.68C917.001 802.27 913.201 801.2 909.121 799.93C902.911 798.06 897.451 797.52 891.001 798C888.791 802.84 887.151 807.63 885.741 812.76C885.001 815 885.001 815 883.001 818C882.541 819.38 882.131 820.78 881.751 822.18C880.381 826.94 878.741 831.55 877.001 836.18C876.751 836.85 876.501 837.51 876.241 838.2C874.201 843.59 871.971 848.88 869.561 854.12C868.131 857.44 867.101 860.84 866.061 864.31C864.341 870.02 862.311 875.5 860.001 881C857.241 887.58 854.841 894.26 852.501 901C849.911 908.46 847.171 915.82 844.121 923.11C841.351 929.84 838.981 936.71 836.641 943.6C829.141 965.41 829.141 965.41 819.301 971.06C814.971 972.82 810.631 972.99 806.001 973C804.931 973.01 804.931 973.01 803.831 973.03C797.951 972.74 793.291 969.84 789.001 966C785.691 961.66 783.791 957.32 782.001 952.25C781.481 950.82 780.961 949.39 780.441 947.96C780.071 946.93 780.071 946.93 779.691 945.89C778.821 943.51 777.891 941.16 776.941 938.81C773.101 929.31 769.531 919.75 766.161 910.08C764.581 905.57 762.881 901.14 761.061 896.72C759.611 892.99 758.311 889.21 757.001 885.43C755.171 880.17 753.221 875.08 750.861 870.03C749.541 866.92 748.701 863.7 747.781 860.46C746.781 857.31 745.421 854.4 744.031 851.41C742.431 847.66 741.251 843.79 740.001 839.91C739.111 837.31 738.091 834.86 736.941 832.37C735.511 829.29 734.431 826.26 733.501 823C732.341 818.93 730.831 815.21 729.051 811.38C727.121 807.01 725.581 802.5 724.001 798C722.291 797.94 720.581 797.9 718.871 797.87C717.921 797.85 716.971 797.82 715.991 797.8C712.681 798.02 710.131 798.91 707.001 800ZM961.001 881C961.001 896.84 961.001 912.68 961.001 929C1049.44 929 1137.88 929 1229 929C1229 913.16 1229 897.32 1229 881C1140.56 881 1052.12 881 961.001 881ZM961.001 981C961.001 996.84 961.001 1012.68 961.001 1029C1049.44 1029 1137.88 1029 1229 1029C1229 1013.16 1229 997.32 1229 981C1140.56 981 1052.12 981 961.001 981ZM371.001 993C371.001 1008.18 371.001 1023.36 371.001 1039C376.941 1039.66 382.881 1040.32 389.001 1041C404.281 1044.89 416.211 1051.7 428.001 1062C428.331 1062.66 428.661 1063.32 429.001 1064C429.661 1064 430.321 1064 431.001 1064C431.661 1065.65 432.321 1067.3 433.001 1069C433.661 1069 434.321 1069 435.001 1069C435.281 1069.58 435.561 1070.17 435.851 1070.77C436.911 1072.82 438.081 1074.65 439.371 1076.56C442.441 1081.42 444.201 1086.57 446.001 1092C446.431 1093.23 446.431 1093.23 446.881 1094.49C449.641 1102.43 450.231 1110.01 450.561 1118.37C450.781 1123.63 450.781 1123.63 451.001 1129C462.881 1129 474.761 1129 487.001 1129C487.001 1084.12 487.001 1039.24 487.001 993C448.721 993 410.441 993 371.001 993ZM961.001 1081C961.001 1096.84 961.001 1112.68 961.001 1129C1049.44 1129 1137.88 1129 1229 1129C1229 1113.16 1229 1097.32 1229 1081C1140.56 1081 1052.12 1081 961.001 1081ZM205.001 1094C204.171 1094.39 203.351 1094.78 202.501 1095.18C202.001 1095.45 201.511 1095.72 201.001 1096C201.001 1096.66 201.001 1097.32 201.001 1098C200.011 1098.33 199.021 1098.66 198.001 1099C198.001 1099.66 198.001 1100.32 198.001 1101C197.341 1101 196.681 1101 196.001 1101C189.701 1109.66 191.001 1118.38 191.001 1129C259.641 1129 328.281 1129 399.001 1129C399.641 1115.81 399.641 1115.81 396.001 1105C395.411 1103.76 395.411 1103.76 394.811 1102.5C394.411 1101.75 394.411 1101.75 394.001 1101C393.341 1101 392.681 1101 392.001 1101C391.671 1100.01 391.341 1099.02 391.001 1098C390.341 1098 389.681 1098 389.001 1098C389.001 1097.34 389.001 1096.68 389.001 1096C383.231 1091.8 376.981 1090.75 369.981 1090.74C368.981 1090.73 368.981 1090.73 367.951 1090.72C365.731 1090.71 363.501 1090.72 361.281 1090.72C359.671 1090.72 358.071 1090.71 356.461 1090.71C352.121 1090.69 347.781 1090.69 343.441 1090.69C339.801 1090.7 336.171 1090.69 332.541 1090.69C323.981 1090.67 315.411 1090.67 306.841 1090.68C298.011 1090.69 289.191 1090.67 280.361 1090.65C272.771 1090.64 265.181 1090.63 257.591 1090.63C253.061 1090.63 248.531 1090.63 244.001 1090.62C239.741 1090.61 235.481 1090.61 231.221 1090.62C229.671 1090.62 228.111 1090.62 226.551 1090.61C218.841 1090.57 212.051 1090.54 205.001 1094ZM51.0011 1181C51.0011 1196.84 51.0011 1212.68 51.0011 1229C439.741 1229 828.481 1229 1229 1229C1229 1213.16 1229 1197.32 1229 1181C840.261 1181 451.521 1181 51.0011 1181Z" fill="#6258A6"/>
<path d="M206.703 -0.130625C207.893 -0.130625 209.093 -0.140625 210.323 -0.140625C211.623 -0.140625 212.913 -0.140625 214.253 -0.130625C215.583 -0.130625 216.923 -0.140625 218.263 -0.140625C221.063 -0.140625 223.873 -0.140625 226.673 -0.130625C230.273 -0.130625 233.873 -0.130625 237.473 -0.130625C240.233 -0.140625 242.993 -0.140625 245.753 -0.130625C247.733 -0.130625 249.703 -0.140625 251.673 -0.140625C252.873 -0.140625 254.063 -0.130625 255.293 -0.130625C256.353 -0.130625 257.403 -0.130625 258.493 -0.130625C261.003 -0.000625005 261.003 -0.000625014 263.003 0.999375C264.563 1.12937 266.123 1.22938 267.683 1.30938C273.833 1.80938 279.523 3.35938 285.423 5.05938C288.983 6.06938 288.983 6.06938 292.653 6.50938C295.713 6.95938 298.003 7.63938 300.813 8.86938C304.223 10.3094 307.563 11.4994 311.123 12.4994C315.013 13.6194 318.413 15.0894 321.973 16.9894C324.073 18.0394 326.173 18.8194 328.373 19.6194C345.703 26.4194 361.373 37.7194 376.003 48.9994C376.983 49.7494 377.963 50.4994 378.973 51.2794C379.893 51.9894 380.803 52.6994 381.753 53.4394C382.573 54.0694 383.393 54.7094 384.233 55.3694C385.113 56.1794 385.113 56.1794 386.003 56.9994C386.003 57.6594 386.003 58.3194 386.003 58.9994C386.593 59.2594 387.173 59.5294 387.783 59.7994C390.083 61.0394 391.613 62.3494 393.453 64.1894C394.073 64.7994 394.693 65.4194 395.323 66.0494C395.963 66.6994 396.593 67.3394 397.253 67.9994C397.903 68.6394 398.553 69.2794 399.223 69.9394C400.143 70.8694 400.143 70.8694 401.083 71.8094C401.643 72.3794 402.203 72.9394 402.783 73.5194C404.003 74.9994 404.003 74.9994 404.003 76.9994C404.663 76.9994 405.323 76.9994 406.003 76.9994C411.003 82.4794 411.003 82.4794 411.003 84.9994C411.663 84.9994 412.323 84.9994 413.003 84.9994C414.343 86.6294 414.343 86.6294 415.863 88.9094C416.423 89.7394 416.983 90.5594 417.553 91.4094C418.133 92.2894 418.713 93.1594 419.313 94.0594C420.453 95.7594 421.593 97.4594 422.743 99.1594C423.293 99.9794 423.843 100.809 424.413 101.659C425.823 103.739 427.263 105.779 428.743 107.809C431.943 112.329 434.453 117.089 437.003 121.999C437.313 122.599 437.623 123.199 437.953 123.819C444.853 137.079 450.353 150.519 454.753 164.809C455.043 165.769 455.333 166.719 455.643 167.699C457.453 173.759 458.873 179.779 460.003 185.999C460.253 187.199 460.513 188.409 460.773 189.649C463.363 202.449 463.423 215.119 463.333 228.139C463.313 231.819 463.313 235.499 463.323 239.179C463.313 241.569 463.313 243.949 463.303 246.329C463.303 247.409 463.303 248.489 463.303 249.599C463.213 259.709 461.853 269.299 459.003 278.999C458.813 280.329 458.643 281.659 458.503 282.999C457.903 288.399 456.423 293.159 454.003 297.999C453.033 301.259 452.123 304.529 451.233 307.819C445.933 326.189 436.183 345.429 425.003 360.999C424.343 360.999 423.683 360.999 423.003 360.999C422.913 361.539 422.833 362.069 422.753 362.619C421.723 365.869 420.033 368.289 418.003 370.999C417.343 370.999 416.683 370.999 416.003 370.999C415.633 371.799 415.633 371.799 415.253 372.619C413.693 375.579 411.963 378.299 410.003 380.999C409.343 380.999 408.683 380.999 408.003 380.999C407.593 381.869 407.593 381.869 407.183 382.749C405.973 385.049 404.693 387.019 403.003 388.999C402.343 388.999 401.683 388.999 401.003 388.999C400.753 389.569 400.503 390.139 400.253 390.729C398.803 393.349 397.113 395.149 395.003 397.249C394.303 397.959 393.593 398.659 392.873 399.389C391.003 400.999 391.003 400.999 389.003 400.999C389.003 401.659 389.003 402.319 389.003 402.999C383.523 407.999 383.523 407.999 381.003 407.999C381.003 408.659 381.003 409.319 381.003 409.999C379.323 411.509 379.323 411.509 377.123 413.119C376.403 413.659 375.683 414.199 374.943 414.759C373.003 415.999 373.003 415.999 371.003 415.999C371.003 416.659 371.003 417.319 371.003 417.999C369.573 419.289 369.573 419.289 367.683 420.619C367.073 421.069 366.453 421.519 365.823 421.979C364.003 422.999 364.003 422.999 361.003 422.999C361.003 423.659 361.003 424.319 361.003 424.999C358.473 426.779 355.953 428.409 353.313 429.999C352.513 430.479 351.713 430.969 350.883 431.469C329.503 444.169 304.733 454.869 280.193 459.399C277.943 459.819 275.713 460.269 273.473 460.749C260.713 463.299 248.113 463.459 235.133 463.389C231.503 463.369 227.883 463.389 224.253 463.409C206.843 463.419 190.803 461.669 174.003 456.999C172.853 456.689 172.853 456.689 171.693 456.379C155.093 451.909 139.853 446.309 124.793 437.959C122.893 436.939 120.973 435.989 119.033 435.049C115.003 433.039 111.183 430.779 107.373 428.369C106.693 427.949 106.013 427.519 105.313 427.079C100.463 423.999 95.7033 420.809 91.0033 417.499C90.3933 417.079 89.7933 416.659 89.1633 416.219C87.7333 415.199 86.3633 414.109 85.0033 412.999C85.0033 412.339 85.0033 411.679 85.0033 410.999C84.0133 410.669 83.0233 410.339 82.0033 409.999C82.0033 409.339 82.0033 408.679 82.0033 407.999C80.3533 407.339 78.7033 406.679 77.0033 405.999C77.0033 405.339 77.0033 404.679 77.0033 403.999C76.4133 403.739 75.8233 403.469 75.2133 403.199C72.9233 401.959 71.3933 400.649 69.5433 398.809C68.9233 398.199 68.3133 397.579 67.6733 396.939C67.0333 396.299 66.4033 395.659 65.7533 394.999C65.1033 394.359 64.4533 393.719 63.7833 393.049C63.1633 392.439 62.5533 391.819 61.9233 391.189C61.3633 390.619 60.8033 390.059 60.2233 389.479C59.0033 387.999 59.0033 387.999 59.0033 385.999C58.3433 385.999 57.6833 385.999 57.0033 385.999C46.4033 374.999 37.5833 361.189 30.0033 347.999C29.5233 347.239 29.0533 346.479 28.5633 345.699C21.9433 335.119 17.0533 323.779 13.0033 311.999C12.4833 310.619 11.9633 309.249 11.4333 307.869C8.57327 300.239 6.25328 292.559 4.37328 284.619C4.15328 283.709 3.93327 282.789 3.71327 281.839C2.39327 276.159 1.39328 270.609 1.14328 264.769C1.19328 262.969 1.19328 262.969 0.00328064 261.999C-0.0967194 260.109 -0.126724 258.209 -0.126724 256.319C-0.136724 255.099 -0.136719 253.889 -0.136719 252.639C-0.136719 251.299 -0.136719 249.959 -0.136719 248.629C-0.136719 247.269 -0.136719 245.909 -0.136719 244.539C-0.136719 241.689 -0.136724 238.829 -0.126724 235.969C-0.126724 232.309 -0.126719 228.639 -0.136719 224.969C-0.136719 222.159 -0.136719 219.349 -0.136719 216.529C-0.136719 215.179 -0.136719 213.829 -0.136719 212.479C-0.136719 210.589 -0.136724 208.699 -0.126724 206.809C-0.126724 205.729 -0.126724 204.659 -0.126724 203.549C0.00327575 200.999 0.00328064 200.999 1.00328 198.999C1.13328 197.419 1.23328 195.829 1.31328 194.249C1.78328 188.349 3.29328 182.999 5.06328 177.359C6.08328 173.989 6.08328 173.989 6.50328 170.379C6.95328 167.299 7.63328 165.009 8.87328 162.189C10.6033 158.089 11.9433 154.009 13.0933 149.709C14.4433 145.679 16.2433 141.869 18.0033 137.999C18.6333 136.559 19.2733 135.109 19.9033 133.669C27.9333 115.789 38.8433 99.9394 50.8433 84.5094C51.8333 83.2194 52.7733 81.8894 53.7133 80.5594C54.1333 80.0494 54.5633 79.5294 55.0033 78.9994C55.6633 78.9994 56.3233 78.9994 57.0033 78.9994C57.0033 78.3394 57.0033 77.6794 57.0033 76.9994C57.6633 76.9994 58.3233 76.9994 59.0033 76.9994C59.3833 76.1294 59.3833 76.1294 59.7733 75.2394C61.1233 72.7694 62.6333 71.0994 64.6233 69.1094C65.6833 68.0494 65.6833 68.0494 66.7633 66.9594C67.5033 66.2294 68.2433 65.4994 69.0033 64.7494C69.7333 63.9994 70.4733 63.2594 71.2333 62.4894C71.9433 61.7894 72.6433 61.0794 73.3733 60.3594C74.0233 59.7094 74.6733 59.0694 75.3333 58.3994C77.0033 56.9994 77.0033 56.9994 79.0033 56.9994C79.0033 56.3394 79.0033 55.6794 79.0033 54.9994C80.3233 53.7394 80.3233 53.7394 82.1933 52.3094C82.8833 51.7794 83.5733 51.2494 84.2833 50.7094C85.0333 50.1394 85.7833 49.5794 86.5633 48.9994C87.3333 48.4194 88.1033 47.8394 88.8933 47.2394C107.213 33.5194 126.743 21.3794 148.493 13.8894C150.883 13.0394 153.173 12.0694 155.503 11.0594C167.383 6.22937 181.623 2.39938 194.433 1.43938C198.783 1.09938 202.273 -0.130625 206.703 -0.130625ZM185.003 56.9994C183.603 57.3394 182.213 57.6794 180.813 57.9994C173.283 59.9794 165.873 62.2394 159.013 65.9694C157.273 66.8594 155.473 67.6394 153.673 68.3994C137.673 75.1894 122.733 85.8894 110.253 97.8794C108.003 99.9994 108.003 99.9994 106.003 100.999C106.003 101.659 106.003 102.319 106.003 102.999C105.013 103.329 104.023 103.659 103.003 103.999C103.003 104.659 103.003 105.319 103.003 105.999C102.343 105.999 101.683 105.999 101.003 105.999C101.003 106.659 101.003 107.319 101.003 107.999C100.343 107.999 99.6833 107.999 99.0033 107.999C87.1633 120.499 76.2333 136.439 69.0033 151.999C68.5233 152.979 68.0533 153.949 67.5633 154.959C62.2733 166.079 58.7933 177.299 55.9333 189.239C55.3233 191.669 54.6733 194.089 53.9533 196.499C47.3333 220.839 48.8533 251.879 56.0033 275.999C56.3333 276.329 56.6633 276.659 57.0033 276.999C57.1033 277.989 57.2033 278.979 57.3133 279.999C57.8233 283.999 59.3233 287.259 61.0233 290.879C62.2433 293.529 63.0933 296.239 64.0033 298.999C66.6733 306.399 70.1033 313.169 74.0033 319.999C74.6133 321.109 75.2333 322.219 75.8733 323.359C76.4933 324.459 77.1133 325.559 77.7533 326.689C78.3233 327.699 78.8933 328.719 79.4833 329.759C79.9833 330.499 80.4833 331.239 81.0033 331.999C81.6633 331.999 82.3233 331.999 83.0033 331.999C83.0033 332.989 83.0033 333.979 83.0033 334.999C83.6633 334.999 84.3233 334.999 85.0033 334.999C85.3133 335.779 85.6233 336.569 85.9333 337.369C86.9333 339.919 86.9333 339.919 88.0033 341.999C88.6633 341.999 89.3233 341.999 90.0033 341.999C90.2333 342.539 90.4733 343.079 90.7233 343.639C92.3433 346.629 94.3533 349.109 96.5033 351.749C97.2933 352.729 98.0833 353.719 98.9033 354.729C99.5933 355.479 100.293 356.229 101.003 356.999C101.663 356.999 102.323 356.999 103.003 356.999C103.003 357.659 103.003 358.319 103.003 358.999C104.343 360.439 104.343 360.439 106.183 361.939C106.913 362.549 107.633 363.169 108.383 363.799C109.243 364.529 110.113 365.249 111.003 365.999C112.063 366.909 113.123 367.819 114.183 368.729C121.153 374.709 127.993 380.449 136.083 384.909C137.463 385.689 138.823 386.519 140.173 387.369C146.113 391.109 152.213 393.949 158.693 396.619C161.323 397.719 163.873 398.889 166.433 400.119C171.123 402.249 176.053 403.449 181.033 404.689C185.913 405.909 185.913 405.909 187.003 406.999C189.913 407.519 192.823 407.999 195.753 408.439C197.513 408.699 199.273 408.969 201.043 409.229C201.903 409.359 202.763 409.489 203.643 409.629C205.533 409.919 207.403 410.269 209.273 410.639C231.443 414.889 255.433 412.039 277.003 405.999C278.863 405.539 278.863 405.539 280.773 405.059C286.853 403.549 292.633 402.039 298.133 398.989C300.253 397.869 302.393 397.039 304.623 396.189C311.303 393.589 317.633 390.269 324.003 386.999C324.003 386.339 324.003 385.679 324.003 384.999C326.653 383.919 329.283 382.899 332.003 381.999C332.003 381.339 332.003 380.679 332.003 379.999C334.333 378.789 336.493 377.829 339.003 376.999C339.003 376.339 339.003 375.679 339.003 374.999C339.553 374.749 340.113 374.499 340.683 374.249C349.383 369.559 357.523 361.429 364.003 353.999C364.003 353.339 364.003 352.679 364.003 351.999C364.993 351.669 365.983 351.339 367.003 350.999C369.123 348.749 369.123 348.749 371.183 346.059C371.903 345.169 372.623 344.269 373.353 343.349C375.193 341.199 375.193 341.199 375.003 338.999C375.663 338.999 376.323 338.999 377.003 338.999C377.573 337.969 378.153 336.939 378.753 335.869C380.153 333.399 381.633 331.029 383.253 328.689C385.183 326.249 385.183 326.249 385.003 323.999C385.663 323.999 386.323 323.999 387.003 323.999C389.213 319.339 391.423 314.689 393.613 310.029C394.973 307.149 396.353 304.289 397.753 301.439C404.353 287.889 407.533 273.829 409.693 258.999C409.953 257.279 410.283 255.559 410.623 253.849C414.783 232.269 413.933 202.469 405.003 181.999C404.523 180.259 404.063 178.509 403.623 176.749C402.453 172.349 400.963 168.349 399.023 164.239C397.943 161.879 397.033 159.489 396.123 157.059C393.993 151.659 391.063 146.909 388.003 141.999C387.363 140.869 386.723 139.729 386.063 138.559C381.883 131.239 377.533 124.279 371.833 118.049C369.003 114.879 366.413 111.539 363.793 108.199C362.273 106.329 360.823 104.579 359.003 102.999C358.343 102.999 357.683 102.999 357.003 102.999C357.003 102.339 357.003 101.679 357.003 100.999C355.303 99.4394 353.543 97.9494 351.753 96.4994C350.773 95.7094 349.803 94.9094 348.793 94.0894C346.553 92.4094 344.553 91.1194 342.003 89.9994C342.003 89.3394 342.003 88.6794 342.003 87.9994C338.783 85.6794 338.783 85.6794 335.003 84.9994C335.003 84.3394 335.003 83.6794 335.003 82.9994C334.013 82.9994 333.023 82.9994 332.003 82.9994C332.003 82.3394 332.003 81.6794 332.003 80.9994C319.923 72.2794 305.353 65.0494 291.123 60.8694C285.103 59.1094 285.103 59.1094 284.003 57.9994C282.973 57.8594 281.933 57.7094 280.873 57.5594C275.993 56.8494 271.463 55.4494 266.763 53.9994C240.843 47.0894 210.513 49.4994 185.003 56.9994Z" fill="#6258A6"/>
<path d="M243.625 86.3106C246.485 87.8906 248.885 89.4806 251.005 92.0006C251.005 92.6606 251.005 93.3206 251.005 94.0006C251.655 94.0006 252.315 94.0006 253.005 94.0006C257.245 101.851 258.715 108.111 258.565 116.991C258.565 118.131 258.565 119.271 258.565 120.451C258.565 124.191 258.525 127.931 258.485 131.671C258.475 134.271 258.475 136.881 258.465 139.491C258.455 145.631 258.415 151.761 258.365 157.901C258.305 164.891 258.275 171.891 258.255 178.881C258.195 193.251 258.115 207.631 258.005 222.001C258.635 222.271 259.275 222.531 259.935 222.811C262.005 224.001 262.005 224.001 263.005 227.001C263.655 227.331 264.315 227.661 265.005 228.001C265.655 228.331 266.315 228.661 267.005 229.001C267.325 229.991 267.655 230.981 268.005 232.001C268.655 232.331 269.315 232.661 270.005 233.001C270.655 233.331 271.315 233.661 272.005 234.001C272.325 234.991 272.655 235.981 273.005 237.001C273.655 237.331 274.315 237.661 275.005 238.001C275.655 238.331 276.315 238.661 277.005 239.001C277.325 239.991 277.655 240.981 278.005 242.001C278.655 242.331 279.315 242.661 280.005 243.001C280.655 243.331 281.315 243.661 282.005 244.001C282.325 244.991 282.655 245.981 283.005 247.001C283.655 247.331 284.315 247.661 285.005 248.001C285.655 248.331 286.315 248.661 287.005 249.001C287.325 249.991 287.655 250.981 288.005 252.001C288.655 252.001 289.315 252.001 290.005 252.001C294.805 258.811 295.955 265.821 295.005 274.001C293.955 277.181 292.605 280.061 291.005 283.001C290.675 283.661 290.345 284.321 290.005 285.001C289.345 285.001 288.685 285.001 288.005 285.001C287.675 285.991 287.345 286.981 287.005 288.001C286.345 288.001 285.685 288.001 285.005 288.001C285.005 288.661 285.005 289.321 285.005 290.001C279.125 294.271 272.195 295.891 265.005 295.001C256.695 292.861 250.635 287.941 244.755 281.911C244.175 281.331 243.605 280.751 243.015 280.161C241.195 278.321 239.375 276.471 237.565 274.621C235.755 272.781 233.935 270.951 232.125 269.111C230.995 267.971 229.875 266.831 228.755 265.691C225.435 262.331 221.995 259.251 218.305 256.281C217.875 255.861 217.445 255.431 217.005 255.001C217.005 254.341 217.005 253.681 217.005 253.001C216.345 253.001 215.685 253.001 215.005 253.001C213.565 251.351 213.565 251.351 212.005 249.191C211.485 248.481 210.965 247.771 210.435 247.041C204.715 238.901 204.705 231.241 204.725 221.571C204.725 220.351 204.715 219.121 204.705 217.861C204.695 214.521 204.695 211.181 204.695 207.841C204.695 205.041 204.695 202.241 204.685 199.441C204.675 192.841 204.675 186.231 204.685 179.631C204.695 172.831 204.675 166.041 204.655 159.241C204.635 153.391 204.635 147.541 204.635 141.691C204.635 138.201 204.635 134.711 204.625 131.221C204.605 127.331 204.615 123.441 204.625 119.551C204.625 118.411 204.615 117.271 204.605 116.091C204.665 106.931 206.225 99.2706 212.005 92.0006C212.655 92.0006 213.315 92.0006 214.005 92.0006C214.335 91.0106 214.655 90.0206 215.005 89.0006C223.485 82.5606 234.105 81.7406 243.625 86.3106Z" fill="#6258A6"/>
<path d="M294.75 541.438C295.8 541.438 295.8 541.438 296.88 541.448C304.28 541.708 309.22 544.498 314.61 549.488C320.37 555.778 321.53 561.828 321.28 570.068C320.47 578.508 316.54 584.158 310.17 589.548C303.17 594.308 295.09 594.148 287 592.998C279.14 590.078 274.38 585.018 270.19 577.938C267.81 571.718 267.94 564.448 269.88 558.148C274.61 547.808 283.18 541.398 294.75 541.438Z" fill="#6258A6"/>
</g>
<defs>
<clipPath id="clip0_12570_91012">
<rect width="1280" height="1280" fill="white"/>
</clipPath>
</defs>
</svg>
