<svg fill="none" height="80" viewBox="0 0 80 80" width="80" xmlns="http://www.w3.org/2000/svg"><g fill="#6258a6"><path d="m18.75 26.25h42.5c.6912 0 1.25-.56 1.25-1.25v-22.5c0-.69-.5588-1.25-1.25-1.25h-42.5c-.6912 0-1.25.56-1.25 1.25v22.5c0 .69.5588 1.25 1.25 1.25zm27.5-2.5h-1.25v-2.5h-2.5v2.5h-5v-2.5h-2.5v2.5h-1.25v-3.75c0-.6887.56-1.25 1.25-1.25h10c.69 0 1.25.5613 1.25 1.25zm-26.25-20h20 20v20h-11.25v-3.75c0-2.0675-1.6825-3.75-3.75-3.75h-5-5c-2.0675 0-3.75 1.6825-3.75 3.75v3.75h-11.25z"/><path d="m1.79875 31.035c.21.1425.455.215.70125.215.1575 0 .315-.0287.46375-.0887l12.50005-5c.475-.1913.7862-.65.7862-1.1613v-22.49999c0-.415-.2063-.8025-.5487-1.035-.3451-.23375-.7826-.28-1.1651-.12625l-12.49995 5c-.475.19125-.78625.65-.78625 1.16125v22.49999c0 .415.20625.8025.54875 1.035zm1.95125-22.68874 10-4v19.80754l-10 4z"/><path d="m77.9637 6.3387-12.5-5c-.3825-.1525-.82-.1075-1.165.12625-.3425.2325-.5487.62-.5487 1.035v22.50005c0 .5112.3113.97.7863 1.1612l12.5 5c.1487.06.3062.0888.4637.0888.2463 0 .4913-.0725.7013-.215.3425-.2325.5487-.62.5487-1.035v-22.50005c0-.51125-.3113-.97-.7863-1.16125zm-1.7137 21.815-10-4v-19.8075l10 4z"/><path d="m35 8.75v2.5c0 2.7575 2.2425 5 5 5s5-2.2425 5-5v-2.5c0-2.7575-2.2425-5-5-5s-5 2.2425-5 5zm2.5 0c0-1.37875 1.1212-2.5 2.5-2.5 1.3787 0 2.5 1.12125 2.5 2.5v2.5c0 1.3787-1.1213 2.5-2.5 2.5-1.3788 0-2.5-1.1213-2.5-2.5z"/><path d="m45.425 53.915c1.2825-1.3462 2.075-3.1625 2.075-5.165v-2.5c0-4.1363-3.3638-7.5-7.5-7.5s-7.5 3.3637-7.5 7.5v2.5c0 2.0025.7925 3.8188 2.075 5.165-4.025.7837-7.075 4.3338-7.075 8.585v5c0 .6912.5588 1.25 1.25 1.25h22.5c.6912 0 1.25-.5588 1.25-1.25v-5c0-4.2512-3.05-7.8013-7.075-8.585zm-10.425-7.665c0-2.7575 2.2425-5 5-5s5 2.2425 5 5v2.5c0 2.7575-2.2425 5-5 5s-5-2.2425-5-5zm15 20h-2.5v-5h-2.5v5h-10v-5h-2.5v5h-2.5v-3.75c0-3.4463 2.8038-6.25 6.25-6.25h7.5c3.4463 0 6.25 2.8037 6.25 6.25z"/><path d="m71.675 63.915c1.2825-1.3462 2.075-3.1625 2.075-5.165v-2.5c0-4.1363-3.3638-7.5-7.5-7.5s-7.5 3.3637-7.5 7.5v2.5c0 2.0025.7925 3.8188 2.075 5.165-4.025.7837-7.075 4.3338-7.075 8.585v5c0 .6912.5588 1.25 1.25 1.25h22.5c.6912 0 1.25-.5588 1.25-1.25v-5c0-4.2512-3.05-7.8013-7.075-8.585zm-10.425-7.665c0-2.7575 2.2425-5 5-5s5 2.2425 5 5v2.5c0 2.7575-2.2425 5-5 5s-5-2.2425-5-5zm15 20h-2.5v-5h-2.5v5h-10v-5h-2.5v5h-2.5v-3.75c0-3.4463 2.8038-6.25 6.25-6.25h7.5c3.4463 0 6.25 2.8037 6.25 6.25z"/><path d="m19.175 63.915c1.2825-1.3462 2.075-3.1625 2.075-5.165v-2.5c0-4.1363-3.3638-7.5-7.5-7.5-4.13625 0-7.5 3.3637-7.5 7.5v2.5c0 2.0025.7925 3.8188 2.075 5.165-4.025.7837-7.075 4.3338-7.075 8.585v5c0 .6912.55875 1.25 1.25 1.25h22.5c.6912 0 1.25-.5588 1.25-1.25v-5c0-4.2512-3.05-7.8013-7.075-8.585zm-10.425-7.665c0-2.7575 2.2425-5 5-5s5 2.2425 5 5v2.5c0 2.7575-2.2425 5-5 5s-5-2.2425-5-5zm15 20h-2.5v-5h-2.5v5h-10v-5h-2.5v5h-2.5v-3.75c0-3.4463 2.80375-6.25 6.25-6.25h7.5c3.4463 0 6.25 2.8037 6.25 6.25z"/><path d="m17.5 33.75h2.5v2.5h-2.5z"/><path d="m21.25 33.75h2.5v2.5h-2.5z"/><path d="m25 33.75h2.5v2.5h-2.5z"/><path d="m27.5 41.25h1.25c2.0675 0 3.75-1.6825 3.75-3.75v-5c0-2.0675-1.6825-3.75-3.75-3.75h-12.5c-2.0675 0-3.75 1.6825-3.75 3.75v5c0 2.0675 1.6825 3.75 3.75 3.75h4.5837l4.6663 3.5c.22.1662.485.25.75.25.19 0 .3825-.0437.5588-.1312.4237-.2125.6912-.645.6912-1.1188zm-1.25-2.5c-.6912 0-1.25.56-1.25 1.25v1.25l-3-2.25c-.2162-.1625-.4788-.25-.75-.25h-5c-.69 0-1.25-.5612-1.25-1.25v-5c0-.6888.56-1.25 1.25-1.25h12.5c.69 0 1.25.5612 1.25 1.25v5c0 .6888-.56 1.25-1.25 1.25z"/><path d="m60 37.5h2.5v2.5h-2.5z"/><path d="m56.25 37.5h2.5v2.5h-2.5z"/><path d="m52.5 37.5h2.5v2.5h-2.5z"/><path d="m54.5 29c-.3788-.285-.8862-.3313-1.3087-.1188-.4238.2125-.6913.645-.6913 1.1188v2.5h-1.25c-2.0675 0-3.75 1.6825-3.75 3.75v5c0 2.0675 1.6825 3.75 3.75 3.75h12.5c2.0675 0 3.75-1.6825 3.75-3.75v-5c0-2.0675-1.6825-3.75-3.75-3.75h-4.5837zm10.5 7.25v5c0 .69-.56 1.25-1.25 1.25h-12.5c-.69 0-1.25-.56-1.25-1.25v-5c0-.6888.56-1.25 1.25-1.25h2.5c.6912 0 1.25-.56 1.25-1.25v-1.25l3 2.25c.2163.1625.4788.25.75.25h5c.69 0 1.25.5612 1.25 1.25z"/></g></svg>