<svg fill="none" viewBox="0 0 22 22" xmlns="http://www.w3.org/2000/svg"><path d="m20.1696.948955c-.7168-.12373-1.4427-.187419-2.17-.190406-2.4816-.002039-4.9115.711091-7 2.054381-2.09386-1.32565-4.52335-2.021279-7-2.004274-.72736.002987-1.4532.066676-2.17.190406-.2348.040568-.44742.163808-.59959.347538-.15217.18372-.233877.41586-.230414.6546v12.0256c-.002141.1473.028124.2932.088654.4274.06052.1342.14981.2534.26152.349.11171.0957.24308.1656.38478.2046s.29024.0462.43505.0212c1.43302-.2487 2.9012-.2074 4.31806.1213 1.41687.3287 2.75376.9383 3.93194 1.7928l.12.0701h.11c.1109.0463.2299.0702.35.0702s.2391-.0239.35-.0702h.11l.12-.0701c1.17-.8736 2.503-1.5029 3.9201-1.8506 1.4172-.3478 2.8896-.4068 4.3299-.1738.1448.0251.2933.0179.435-.0212.1417-.039.2731-.1088.3848-.2045s.201-.2148.2615-.349c.0606-.1342.0908-.2801.0887-.4274v-12.02564c-.0104-.22833-.0984-.44624-.2494-.61758-.1509-.17133-.3558-.285806-.5806-.324425zm-10.17 13.318445c-1.85012-.9754-3.90949-1.4845-6-1.4832-.33 0-.66 0-1 0v-10.02138c.33305-.01923.66694-.01923 1 0 2.13338-.00236 4.22021.62503 6 1.80385zm9-1.4431c-.34 0-.67 0-1 0-2.0905-.0013-4.1499.5077-6 1.4831v-9.74073c1.7798-1.17882 3.8666-1.80621 6-1.80385.3331-.01923.6669-.01923 1 0zm1.17 4.1588c-.7168-.1237-1.4427-.1874-2.17-.1904-2.4816-.002-4.9115.7111-7 2.0544-2.08849-1.3433-4.51837-2.0564-7-2.0544-.72736.003-1.4532.0667-2.17.1904-.13018.0207-.25498.067-.36724.1362s-.20976.16-.2869.2671c-.07713.1071-.13238.2284-.16256.357-.030182.1286-.034703.2619-.013304.3922.050824.2602.202494.4897.421794.6381s.48835.2036.74821.1536c1.43302-.2487 2.9012-.2074 4.31806.1213 1.41687.3288 2.75376.9383 3.93194 1.7928.1694.1208.3721.1858.58.1858s.4106-.065.58-.1858c1.1782-.8545 2.5151-1.464 3.9319-1.7928 1.4169-.3287 2.8851-.37 4.3181-.1213.2599.05.5289-.0052.7482-.1536s.371-.3779.4218-.6381c.0214-.1303.0169-.2636-.0133-.3922s-.0854-.2499-.1626-.357c-.0771-.1071-.1746-.1979-.2869-.2671-.1122-.0692-.237-.1155-.3672-.1362z" fill="#6e77a5"/></svg>