 <svg xmlns="http://www.w3.org/2000/svg" width="54.363" height="54.362" viewBox="0 0 54.363 54.362">
                  <path
                    d="M2183.672,10287.863v-16.478l-8.489-8.489-8.49,8.489v16.478H2148.5v-47.3a6.07,6.07,0,0,1,6.062-6.064H2195.8a6.072,6.072,0,0,1,6.065,6.064v41.233a6.071,6.071,0,0,1-6.065,6.064Zm2.427-17.479v15.053h9.7a3.642,3.642,0,0,0,3.641-3.638v-41.233a3.645,3.645,0,0,0-3.641-3.641h-41.236a3.642,3.642,0,0,0-3.638,3.641v44.871h13.341v-15.053l10.917-10.916Zm-14.554-18.9v-7.276h7.276v7.276Z"
                    transform="translate(-2148.001 -10234.001)" fill="#6e86bb" stroke="rgba(0,0,0,0)" stroke-width="1">
                  </path>                  
                </svg>