<svg fill="none" height="15" viewBox="0 0 25 25" width="15" xmlns="http://www.w3.org/2000/svg"><path d="m1.32254 24.9926c-.18276-.0003-.363459-.0387-.530601-.1126-.167142-.074-.31707-.1819-.440252-.3169-.12541-.1338-.221106-.2927-.2808125-.4661-.0597066-.1735-.0820752-.3576-.06563938-.5403l.32273988-3.5422 14.909225-14.91062 4.6594 4.65799-14.91195 14.90273-3.54882.3227c-.03425.004-.07509.0053-.11329.0053zm19.50406-16.16206-4.658-4.658 2.794-2.794c.1223-.12248.2676-.21965.4275-.28594s.3314-.100412.5045-.100412.3445.034122.5044.100412.3052.16346.4276.28594l2.794 2.794c.1225.12234.2196.26763.2859.42755s.1004.33133.1004.50445c0 .17311-.0341.34453-.1004.50445-.0663.15991-.1634.3052-.2859.42754l-2.7927 2.79269z" fill="#6cf"/></svg>