<svg fill="none" height="70" viewBox="0 0 71 70" width="71" xmlns="http://www.w3.org/2000/svg" xmlns:xlink="http://www.w3.org/1999/xlink"><clipPath id="a"><path d="m.5 0h70v70h-70z"/></clipPath><g clip-path="url(#a)"><path d="m33.0016 32.6256c1.3578-.294 1.9433.0905 1.9486.0907.0675.0745.1497.1344.2413.1758.0916.0415.1908.0637.2913.0652.2001-.005.3914-.083.538-.2192.0057-.0041.5879-.4126 1.9751-.1125.5849.1568 1.2076.0858 1.7422-.1987.5346-.2846.9412-.7614 1.1378-1.3343.0333-.1042.0457-.214.0366-.3231-.0092-.109-.0397-.2152-.0899-.3124-.0502-.0973-.119-.1837-.2026-.2543-.0836-.0707-.1803-.1242-.2845-.1575-.1043-.0332-.2141-.0457-.3231-.0365-.1091.0091-.2152.0397-.3125.0898-.0972.0502-.1837.1191-.2543.2027-.0706.0835-.1241.1802-.1574.2845-.0309.096-.2206.5673-.9391.4113-.9415-.2528-1.9385-.2034-2.8504.1411-.9119-.3443-1.9089-.3936-2.8503-.1411-.6027.1301-.8464-.1595-.9392-.4113-.0672-.2106-.2153-.3858-.4117-.4872-.1964-.1013-.425-.1205-.6356-.0533-.2105.0673-.3857.2154-.4871.4118-.1013.1964-.1205.425-.0533.6355.1963.573.603 1.0501 1.1376 1.3346.5347.2846 1.1575.3555 1.7425.1984z" fill="#6258a6"/><path d="m1.33333 63.3327c.46024 0 .83334-.3731.83334-.8334 0-.4602-.3731-.8333-.83334-.8333-.460234 0-.83333.3731-.83333.8333 0 .4603.373096.8334.83333.8334z" fill="#8696de"/><path d="m5.08333 61.666h-1.25c-.22101 0-.43297.0878-.58925.2441s-.24408.3682-.24408.5892c0 .2211.0878.433.24408.5893s.36824.2441.58925.2441h1.25c.22102 0 .43298-.0878.58926-.2441s.24408-.3682.24408-.5893c0-.221-.0878-.4329-.24408-.5892s-.36824-.2441-.58926-.2441zm62.08337 0h-1.25c-.221 0-.433.0878-.5893.2441s-.2441.3682-.2441.5892c0 .2211.0878.433.2441.5893s.3683.2441.5893.2441h1.25c.221 0 .4329-.0878.5892-.2441s.2441-.3682.2441-.5893c0-.221-.0878-.4329-.2441-.5892s-.3682-.2441-.5892-.2441z" fill="#8696de"/><path d="m69.6654 63.3327c.4602 0 .8333-.3731.8333-.8334 0-.4602-.3731-.8333-.8333-.8333-.4603 0-.8334.3731-.8334.8333 0 .4603.3731.8334.8334.8334z" fill="#8696de"/><path d="m49.7308 65h-3.4616c-.2095.0168-.4049.1119-.5475.2663-.1425.1544-.2217.3569-.2217.567 0 .2102.0792.4127.2217.5671.1426.1544.338.2495.5475.2663h3.4616c.2095-.0168.405-.1119.5475-.2663.1426-.1544.2217-.3569.2217-.5671 0-.2101-.0791-.4126-.2217-.567-.1425-.1544-.338-.2495-.5475-.2663zm-25 0h-3.4616c-.2095.0168-.4049.1119-.5475.2663-.1425.1544-.2217.3569-.2217.567 0 .2102.0792.4127.2217.5671.1426.1544.338.2495.5475.2663h3.4616c.2095-.0168.405-.1119.5475-.2663.1426-.1544.2217-.3569.2217-.5671 0-.2101-.0791-.4126-.2217-.567-.1425-.1544-.338-.2495-.5475-.2663zm19.1025 0h-16.6666c-.221 0-.433.0878-.5893.2441s-.2441.3682-.2441.5892.0878.433.2441.5893.3683.2441.5893.2441h6.6416v.8333h-3.3083c-.221 0-.433.0878-.5892.2441-.1563.1563-.2441.3682-.2441.5892s.0878.433.2441.5893c.1562.1563.3682.2441.5892.2441h10.4167c.221 0 .433-.0878.5892-.2441.1563-.1563.2441-.3683.2441-.5893s-.0878-.4329-.2441-.5892c-.1562-.1563-.3682-.2441-.5892-.2441h-3.725v-.8333h6.6416c.2211 0 .433-.0878.5893-.2441s.2441-.3683.2441-.5893-.0878-.4329-.2441-.5892-.3682-.2441-.5893-.2441z" fill="#6258a6"/><path d="m63.3 61.6673h-5.4458c.0952-.2676.1445-.5493.1458-.8333v-15.625c-.0021-.4668-.1342-.9238-.3815-1.3197-.2473-.396-.6-.7152-1.0185-.922-.0125-.0083-.025-.0125-.0375-.0208l-12.8-5.4875c-.1099-.0475-.2082-.1182-.2881-.2075-.0798-.0892-.1393-.1947-.1744-.3092l-1.0833-3.4333c2.0055-2.6142 3.2603-5.7258 3.6292-9 .0214-.045.0368-.0926.0458-.1417.4746-1.9189.7606-3.8796.8542-5.8542.1166-3.0791-1.6625-6.1125-4.225-7.2083-6.8292-2.92082-10.9459-.1708-12.1542.8542-.5599-.1337-1.1431-.1352-1.7037-.0043-.5605.1309-1.0828.3906-1.5255.7584-2.775 2.3667-2.1375 8.925-2.05 9.6834 0 .0041-.0041.0083-.0041.0125.0328 3.9222 1.3369 7.7279 3.7166 10.8458l-1.1 3.4875c-.035.1145-.0945.22-.1744.3092-.0798.0893-.1781.16-.2881.2075l-12.8 5.4875c-.0125.0083-.025.0125-.0375.0208-.4185.2068-.7712.526-1.0184.922-.2473.3959-.3794.8529-.3816 1.3197v15.625c.0013.284.0506.5657.1459.8333h-5.44587c-.11861-.0156-.23918-.0057-.35365.0291-.11446.0347-.2202.0935-.31013.1724s-.16199.176-.21135.285-.0749.2272-.0749.3468c0 .1197.02554.2379.0749.3469s.12142.2061.21135.285.19567.1377.31013.1724c.11447.0348.23504.0447.35365.0291h55.59997c.1186.0156.2392.0057.3537-.0291.1144-.0347.2202-.0935.3101-.1724s.162-.176.2113-.285c.0494-.109.0749-.2272.0749-.3469 0-.1196-.0255-.2378-.0749-.3468-.0493-.109-.1214-.2061-.2113-.285s-.1957-.1377-.3101-.1724c-.1145-.0348-.2351-.0447-.3537-.0291zm-35.0791-47.4875c.5416-.4583 1.2458-.5625 2.1624-.3042.1474.0408.3031.0402.4501-.0017s.2796-.1234.3833-.2358c.0375-.0375 3.6541-3.79162 10.65-.8 1.9541.8334 3.3042 3.1959 3.2125 5.6125-.0292.725-.1042 1.4834-.2083 2.2667l-1.5875-2.4708c-.0623-.0958-.1437-.1778-.2389-.2408-.0953-.0631-.2025-.1059-.315-.1258-.1125-.02-.2279-.0166-.3391.0099-.1111.0266-.2156.0756-.307.1442-.1459.1041-3.5917 2.5708-8.0709-2-.1522-.1566-.3599-.2469-.5782-.2516s-.4297.0767-.5884.2266c-.4483.431-.7803.9683-.9653 1.562-.1851.5936-.2171 1.2245-.0931 1.8338-.9625-.4542-1.925-1.1333-2.1666-1.8167-.0526-.1447-.1437-.2723-.2633-.3692-.1197-.0969-.2634-.1594-.4159-.1808-.1524-.0202-.3075.0021-.448.0647-.1405.0625-.2609.1627-.3478.2895l-1.4959 2.1875c.0584-2.0458.4209-4.4167 1.5709-5.4zm11.0291 9.1625c-1.4791 0-2.4541.2042-2.9458.625h-1.6083c-.4917-.4208-1.4667-.625-2.9459-.625-.8332-.0388-1.6664.0756-2.4583.3375l-2.3167-1.1583-.0708-.3709 1.9167-2.7958c1.238 1.2009 2.817 1.9897 4.5208 2.2583.1643.0143.3291-.0203.4737-.0996s.2624-.1997.3386-.3459c.0763-.1462.1075-.3118.0897-.4757s-.0837-.3189-.1895-.4454c-.8333-.9875-.7542-1.8167-.5167-2.3625 3.9125 3.5041 7.2958 2.6083 8.7667 1.9208l1.7333 2.6958c-.075.0542-2.3291 1.1792-2.3291 1.1792-.7919-.2619-1.6252-.3763-2.4584-.3375zm1.6667 1.8208c.0256.6766-.172 1.3428-.5625 1.8959-.1344.1447-.2976.2595-.4792.3371-.1817.0775-.3775.116-.575.1129h-.075c-.2014.0056-.4018-.0317-.5878-.1092-.1861-.0776-.3535-.1937-.4913-.3408-.3905-.5531-.5882-1.2193-.5625-1.8959 1.1017-.2041 2.2316-.2041 3.3333 0zm-7.5 0c.0256.6766-.172 1.3428-.5625 1.8959-.1344.1447-.2976.2595-.4792.3371-.1817.0775-.3775.116-.575.1129h-.075c-.2014.0056-.4018-.0317-.5878-.1092-.1861-.0776-.3535-.1937-.4913-.3408-.3905-.5531-.5882-1.2193-.5625-1.8959 1.1017-.2041 2.2316-.2041 3.3333 0zm-6.5542-.8333 1.5542.775c-.0042.6917.1083 2.075.975 3.0542.2923.3214.6487.578 1.0463.7531s.8276.2649 1.262.2635h.125c.4304-.0012.8558-.0923 1.249-.2673.3931-.1751.7455-.4303 1.0344-.7493.5767-.7201.912-1.6036.9583-2.525h.8667c.0462.9214.3816 1.8049.9583 2.525.2923.3214.6487.578 1.0463.7531s.8276.2649 1.262.2635h.125c.4304-.0012.8558-.0923 1.249-.2673.3931-.1751.7455-.4303 1.0344-.7493.8666-.9792.9791-2.3625.975-3.0542l1.6083-.8c-.4125 3.65-1.9458 6.8792-4.6792 9.85-.512.5401-1.1301.9685-1.8156 1.2582-.6855.2896-1.4236.4344-2.1677.4251-.7569.0018-1.5064-.1484-2.2042-.4416-.6773-.2799-1.2858-.7035-1.7833-1.2417-2.7208-2.9583-4.2625-6.1875-4.6792-9.825zm2.4292 13.1125.7708-2.4458c.0834.0958.1667.1916.2542.2875.674.7021 1.483 1.2608 2.3784 1.6425.8954.3816 1.8587.5783 2.832.5783s1.9366-.1967 2.832-.5783c.8954-.3817 1.7044-.9404 2.3784-1.6425.075-.0792.1417-.1625.2125-.2417l.7584 2.4c.1897.5985.5971 1.104 1.1416 1.4167l-7.35 6.2958-7.35-6.2958c.5445-.3127.9519-.8182 1.1417-1.4167zm27.0417 23.3917c.0002.2204-.0869.4319-.2423.5881-.1555.1562-.3665.2444-.5869.2452h-40.0083c-.2204-.0008-.4315-.089-.5869-.2452-.1555-.1562-.2426-.3677-.2423-.5881v-15.625c.0005-.1523.0427-.3016.1221-.4316.0793-.13.1927-.2358.3279-.3059l11.3417-4.8667 8.2083 7.0333v7.1125c0 .2211.0878.433.2441.5893.1562.1563.3682.2441.5892.2441s.433-.0878.5893-.2441.2441-.3682.2441-.5893v-7.1125l8.2083-7.0333 11.3417 4.8667c.1352.0701.2486.1759.3279.3059s.1215.2793.1221.4316z" fill="#8696de"/><path d="m20.9167 57.0833v4.5834h-1.6667v-4.5834c0-.221.0878-.4329.2441-.5892s.3682-.2441.5892-.2441.433.0878.5893.2441.2441.3682.2441.5892zm30.4166 0v4.5834h-1.6666v-4.5834c0-.221.0878-.4329.244-.5892.1563-.1563.3683-.2441.5893-.2441s.433.0878.5893.2441c.1562.1563.244.3682.244.5892z" fill="#6258a6"/><path d="m28.9594 3.33399c.2473 0 .4889-.07332.6945-.21067s.3658-.33257.4604-.56098.1193-.47974.0711-.72222c-.0482-.24247-.1673-.4652-.3421-.64002-.1748-.17481-.3975-.293865-.64-.342097-.2425-.048231-.4938-.023477-.7222.071133-.2284.094614-.4237.254824-.561.460384-.1374.20556-.2107.44724-.2107.69447.0004.3314.1322.64912.3666.88346.2343.23434.552.36616.8834.36654zm0-1.875c.1236 0 .2445.03665.3473.10533.1027.06867.1828.16628.2302.28049.0473.1142.0596.23987.0355.36111-.0241.12123-.0836.2326-.171.32001-.0874.0874-.1988.14693-.32.17105-.1213.02411-.2469.01173-.3611-.03557-.1143-.0473-.2119-.12741-.2805-.23019-.0687-.10278-.1054-.22362-.1054-.34723.0002-.16572.0661-.32459.1833-.44177.1171-.11717.276-.18307.4417-.18323zm37.5 27.29171c-.1648 0-.3259.0488-.4629.1404-.1371.0916-.2439.2217-.307.374-.063.1523-.0795.3198-.0474.4815.0322.1616.1115.3101.2281.4266.1165.1166.265.196.4267.2281.1616.0322.3292.0157.4814-.0474.1523-.0631.2825-.1699.374-.3069.0916-.1371.1405-.2982.1405-.463-.0003-.2209-.0882-.4328-.2444-.589s-.368-.2441-.589-.2443zm0 1.25c-.0824 0-.1629-.0245-.2315-.0703-.0685-.0458-.1219-.1108-.1534-.187-.0316-.0761-.0398-.1599-.0237-.2407.016-.0808.0557-.1551.114-.2133.0583-.0583.1325-.098.2133-.1141.0809-.016.1646-.0078.2408.0237.0761.0316.1412.085.187.1535s.0702.1491.0702.2315c-.0001.1105-.044.2164-.1222.2945-.0781.0781-.184.122-.2945.1222zm-15.9603-2.0834c-.1648 0-.3259.0489-.4629.1405-.1371.0915-.2439.2217-.307.3739-.063.1523-.0795.3199-.0474.4815.0322.1617.1115.3102.2281.4267.1165.1166.265.1959.4267.2281.1616.0321.3292.0156.4814-.0475.1523-.063.2825-.1698.374-.3069.0916-.137.1405-.2981.1405-.4629-.0003-.221-.0882-.4328-.2444-.589-.1562-.1563-.368-.2441-.589-.2444zm0 1.25c-.0824 0-.1629-.0244-.2315-.0702-.0685-.0458-.1219-.1109-.1534-.187-.0316-.0761-.0398-.1599-.0237-.2407.0161-.0809.0557-.1551.114-.2134.0583-.0582.1325-.0979.2133-.114.0809-.0161.1646-.0078.2408.0237.0761.0315.1412.0849.187.1535.0458.0685.0702.149.0702.2315-.0001.1104-.044.2163-.1222.2945-.0781.0781-.184.122-.2945.1221zm9.1667-26.66665c-.1648 0-.3259.04888-.463.14044-.137.09157-.2438.22172-.3069.37399s-.0796.31983-.0474.48148c.0321.16165.1115.31014.228.42668.1166.11654.2651.19591.4267.22807.1617.03215.3292.01565.4815-.04743.1523-.06307.2824-.16988.374-.30692s.1404-.29816.1404-.46297c-.0002-.22094-.0881-.43276-.2443-.58898-.1563-.15623-.3681-.24411-.589-.24436zm0 1.25c-.0824 0-.163-.02444-.2315-.07022s-.1219-.11086-.1534-.18699c-.0316-.07614-.0398-.15992-.0238-.24074.0161-.08083.0558-.15507.1141-.21334.0582-.05827.1325-.09796.2133-.11404.0808-.01607.1646-.00782.2408.02372.0761.03153.1412.08494.1869.15346.0458.06852.0703.14908.0703.23149-.0001.11047-.0441.21638-.1222.2945s-.184.12205-.2945.12216zm-49.4444 25.83335c0-.1648-.0489-.3259-.1405-.463-.09156-.137-.2217-.2438-.37398-.3069-.15227-.0631-.31982-.0796-.48147-.0474-.16165.0321-.31014.1115-.42668.228-.11655.1166-.19592.2651-.22807.4267-.03215.1617-.01565.3292.04742.4815s.16988.2824.30693.374c.13704.0915.29815.1404.46297.1404.22094-.0002.43275-.0881.58898-.2443.1562-.1563.2441-.3681.2444-.589zm-1.25005 0c0-.0824.02444-.163.07023-.2315.04578-.0685.11085-.1219.18699-.1535.07614-.0315.15991-.0397.24074-.0237.08082.0161.15507.0558.21334.1141.05827.0582.09795.1325.11403.2133s.00783.1646-.02371.2407c-.03154.0762-.08494.1412-.15346.187s-.14908.0703-.23149.0703c-.11047-.0002-.21639-.0441-.2945-.1222-.07812-.0781-.12206-.184-.12217-.2945z" fill="#8696de"/><g fill="#6258a6"><path d="m2.33781 9.89409.61959-.815-.39125-.22167-.3975.9125h-.01334l-.40375-.90583-.39833.22792.61333.79541v.01334l-.95875-.12417v.44331l.965-.1237v.0129l-.61958.7954.37167.235.42416-.9196h.0125l.39125.9129.41084-.2345-.62584-.7825v-.0134l.98417.1175v-.44331l-.98417.13041z"/><path d="m19.9734 13.6935-.3567.4579.2142.1354.2442-.5296h.0075l.225.5259.2366-.135-.3604-.4509v-.0075l.5667.0675v-.255l-.5667.075v-.0075l.3567-.4691-.225-.1279-.2292.5258h-.0075l-.2325-.5221-.2296.1317.3534.4579v.0075l-.5521-.0713v.255l.5554-.0712z"/><path d="m67.1802 16.4163v-.435l-.9655.1279v-.0125l.6075-.7995-.3837-.2171-.39.895h-.0129l-.3963-.8888-.3904.2238.6013.7804v.0125l-.94-.1217v.435l.9462-.1212v.0125l-.6075.78.3646.2304.4158-.9017h.0125l.3838.8954.4029-.2304-.6138-.7675v-.0125z"/><path d="m49.1449 8.16029.5242-.68959-.3312-.1875-.3363.77209h-.0112l-.3417-.76667-.3371.19333.5188.67292v.01083l-.8109-.10458v.375l.8163-.105v.01125l-.5242.67292.3146.19875.3587-.77792h.0109l.3312.77208.3475-.19833-.5296-.66208v-.01125l.8326.09958v-.375l-.8326.11z"/></g></g></svg>