<svg fill="none" height="50" viewBox="0 0 50 50" width="50" xmlns="http://www.w3.org/2000/svg" xmlns:xlink="http://www.w3.org/1999/xlink"><clipPath id="a"><path d="m0 0h50v50h-50z"/></clipPath><g clip-path="url(#a)" fill="#fff"><path d="m23.2182 23.3048c.9699-.2099 1.3881.0647 1.3919.0648.0482.0533.1069.096.1723.1256.0655.0296.1363.0455.2081.0466.1429-.0036.2796-.0593.3843-.1566.004-.0029.4199-.2947 1.4107-.0804.4179.112.8626.0613 1.2445-.1419.3818-.2033.6723-.5439.8127-.953.0238-.0745.0327-.1529.0261-.2308-.0065-.0779-.0283-.1538-.0642-.2232-.0358-.0695-.085-.1312-.1447-.1817-.0597-.0504-.1287-.0886-.2032-.1124s-.1529-.0327-.2308-.0261c-.0779.0065-.1537.0283-.2232.0642-.0694.0358-.1312.085-.1816.1447-.0505.0597-.0887.1287-.1125.2032-.0221.0686-.1575.4052-.6708.2938-.6724-.1805-1.3846-.1453-2.0359.1008-.6514-.2459-1.3635-.2812-2.036-.1008-.4304.093-.6045-.1139-.6708-.2938-.048-.1504-.1538-.2755-.2941-.3479s-.3036-.0861-.454-.0381-.2755.1538-.3479.2941-.0861.3036-.0381.454c.1403.4092.4307.75.8126.9533.3819.2032.8268.2539 1.2446.1416z"/><path d="m.595238 45.2374c.328741 0 .595242-.2665.595242-.5953 0-.3287-.266501-.5952-.595242-.5952s-.595238.2665-.595238.5952c0 .3288.266497.5953.595238.5953z"/><path d="m3.27325 44.0469h-.89286c-.15786 0-.30926.0627-.42089.1743s-.17434.263-.17434.4209.06271.3093.17434.4209.26303.1744.42089.1744h.89286c.15787 0 .30927-.0628.4209-.1744s.17434-.263.17434-.4209-.06271-.3093-.17434-.4209-.26303-.1743-.4209-.1743zm44.34525 0h-.8929c-.1578 0-.3092.0627-.4209.1743-.1116.1116-.1743.263-.1743.4209s.0627.3093.1743.4209c.1117.1116.2631.1744.4209.1744h.8929c.1579 0 .3093-.0628.4209-.1744s.1743-.263.1743-.4209-.0627-.3093-.1743-.4209-.263-.1743-.4209-.1743z"/><path d="m49.4038 45.2374c.3288 0 .5953-.2665.5953-.5953 0-.3287-.2665-.5952-.5953-.5952-.3287 0-.5952.2665-.5952.5952 0 .3288.2665.5953.5952.5953z"/><path d="m35.1643 46.4277h-2.4726c-.1496.012-.2892.0799-.391.1902-.1019.1103-.1584.255-.1584.4051s.0565.2947.1584.405c.1018.1103.2414.1782.391.1902h2.4726c.1496-.012.2893-.0799.3911-.1902s.1583-.2549.1583-.405-.0565-.2948-.1583-.4051-.2415-.1782-.3911-.1902zm-17.8572 0h-2.4725c-.1496.012-.2893.0799-.3911.1902s-.1583.255-.1583.4051.0565.2947.1583.405.2415.1782.3911.1902h2.4725c.1497-.012.2893-.0799.3911-.1902.1019-.1103.1584-.2549.1584-.405s-.0565-.2948-.1584-.4051c-.1018-.1103-.2414-.1782-.3911-.1902zm13.6447 0h-11.9047c-.1579 0-.3093.0627-.4209.1744-.1117.1116-.1744.263-.1744.4209 0 .1578.0627.3092.1744.4209.1116.1116.263.1743.4209.1743h4.744v.5952h-2.3631c-.1578 0-.3092.0628-.4209.1744-.1116.1116-.1743.263-.1743.4209s.0627.3093.1743.4209c.1117.1116.2631.1743.4209.1743h7.4405c.1579 0 .3093-.0627.4209-.1743s.1743-.263.1743-.4209-.0627-.3093-.1743-.4209-.263-.1744-.4209-.1744h-2.6607v-.5952h4.744c.1579 0 .3093-.0627.4209-.1743.1117-.1117.1744-.2631.1744-.4209 0-.1579-.0627-.3093-.1744-.4209-.1116-.1117-.263-.1744-.4209-.1744z"/><path d="m44.8577 44.0478h-3.8899c.068-.1911.1033-.3924.1042-.5952v-11.1608c-.0015-.3334-.0959-.6598-.2725-.9426s-.4286-.5109-.7275-.6585c-.0089-.006-.0179-.009-.0268-.0149l-9.1428-3.9197c-.0786-.0339-.1488-.0844-.2058-.1481-.0571-.0638-.0996-.1391-.1246-.2209l-.7738-2.4524c1.4325-1.8673 2.3288-4.0899 2.5923-6.4286.0153-.0321.0263-.0661.0327-.1012.339-1.3706.5433-2.7711.6101-4.1815.0833-2.1994-1.1875-4.36608-3.0178-5.14881-4.878-2.08631-7.8185-.12203-8.6816.61012-.3999-.09551-.8165-.09655-1.2169-.00305-.4003.09351-.7734.27899-1.0896.54174-1.9822 1.6905-1.5268 6.375-1.4643 6.9167 0 .0029-.003.0059-.003.0089.0234 2.8015.955 5.5199 2.6548 7.747l-.7858 2.4911c-.025.0818-.0675.1571-.1245.2209-.0571.0637-.1273.1142-.2058.1481l-9.14287 3.9197c-.00893.0059-.01785.0089-.02678.0149-.29895.1476-.55085.3757-.72748.6585-.17662.2828-.27099.6092-.27252.9426v11.1608c.00094.2028.03616.4041.10416.5952h-3.88988c-.08471-.0111-.17083-.0041-.2526.0208-.08176.0248-.15729.0668-.22152.1231-.06424.0564-.11571.1258-.15097.2036s-.0535.1623-.0535.2477c0 .0855.01824.1699.0535.2478.03526.0778.08673.1472.15097.2036.06423.0563.13976.0983.22152.1231.08177.0248.16789.0319.2526.0208h39.71427c.0847.0111.1709.004.2526-.0208.0818-.0248.1573-.0668.2215-.1231.0643-.0564.1157-.1258.151-.2036.0353-.0779.0535-.1623.0535-.2478 0-.0854-.0182-.1699-.0535-.2477s-.0867-.1472-.151-.2036c-.0642-.0563-.1397-.0983-.2215-.1231-.0817-.0249-.1679-.0319-.2526-.0208zm-25.0565-33.9196c.3869-.32742.8899-.40183 1.5446-.2173.1052.02912.2164.0287.3214-.00123.105-.02992.1998-.0882.2738-.16842.0268-.02678 2.6102-2.70833 7.6072-.57143 1.3958.59524 2.3601 2.28278 2.2946 4.00898-.0208.5178-.0744 1.0595-.1488 1.619l-1.1339-1.7649c-.0445-.0684-.1026-.1269-.1706-.172-.0681-.045-.1447-.0756-.225-.0898-.0804-.0143-.1628-.0119-.2422.0071-.0794.0189-.1541.054-.2193.1029-.1042.0744-2.5655 1.8363-5.7649-1.4285-.1088-.1119-.2571-.1764-.413-.1797-.156-.0034-.3069.0548-.4204.1618-.3201.3079-.5573.6917-.6895 1.1157-.1321.4241-.155.8746-.0664 1.3099-.6875-.3244-1.375-.8095-1.5476-1.2976-.0376-.1034-.1026-.1946-.1881-.2638-.0854-.0692-.1881-.1138-.297-.1291-.1089-.0145-.2197.0015-.32.0462-.1004.0446-.1864.1162-.2485.2068l-1.0685 1.5625c.0417-1.4613.3006-3.1548 1.1221-3.8571zm7.8779 6.5446c-1.0565 0-1.7529.1458-2.1041.4464h-1.1488c-.3512-.3006-1.0476-.4464-2.1042-.4464-.5951-.0277-1.1903.054-1.7559.2411l-1.6548-.8274-.0506-.2649 1.369-1.997c.8843.8578 2.0122 1.4212 3.2292 1.6131.1174.0102.2351-.0146.3384-.0712.1032-.0567.1874-.1426.2419-.2471.0544-.1044.0767-.2226.064-.3397s-.0598-.2279-.1354-.3182c-.5952-.7054-.5387-1.2976-.369-1.6875 2.7946 2.503 5.2113 1.8631 6.2619 1.372l1.2381 1.9256c-.0536.0387-1.6637.8423-1.6637.8423-.5656-.1871-1.1608-.2688-1.756-.2411zm1.1905 1.3006c.0183.4832-.1229.9591-.4018 1.3542-.0959.1033-.2126.1854-.3423.2407-.1297.0554-.2696.0829-.4106.0807h-.0536c-.1439.004-.287-.0226-.4199-.078s-.2525-.1384-.3509-.2434c-.2789-.3951-.4201-.871-.4018-1.3542.7869-.1459 1.594-.1459 2.3809 0zm-5.3571 0c.0183.4832-.1229.9591-.4018 1.3542-.096.1033-.2126.1854-.3423.2407-.1297.0554-.2697.0829-.4107.0807h-.0536c-.1439.004-.287-.0226-.4199-.078-.1328-.0554-.2524-.1384-.3509-.2434-.2789-.3951-.4201-.871-.4018-1.3542.787-.1459 1.594-.1459 2.381 0zm-4.6816-.5952 1.1102.5535c-.003.4941.0773 1.4822.6964 2.1816.2088.2296.4634.4129.7474.5379.284.1251.5911.1892.9014.1883h.0893c.3074-.0009.6112-.066.8921-.191.2808-.1251.5325-.3074.7388-.5352.412-.5144.6515-1.1454.6846-1.8036h.619c.0331.6582.2726 1.2892.6845 1.8036.2088.2296.4634.4129.7474.5379.284.1251.5911.1892.9014.1883h.0893c.3074-.0009.6113-.066.8921-.191.2809-.1251.5325-.3074.7389-.5352.619-.6994.6994-1.6875.6964-2.1816l1.1488-.5714c-.2946 2.6071-1.3899 4.9137-3.3423 7.0357-.3657.3858-.8072.6918-1.2969.8987-.4896.2069-1.0168.3103-1.5483.3037-.5406.0012-1.076-.1061-1.5744-.3155-.4838-.1999-.9184-.5025-1.2738-.8869-1.9435-2.1131-3.0446-4.4196-3.3423-7.0178zm1.7352 9.366.5505-1.747c.0596.0685.1191.1369.1816.2054.4815.5015 1.0593.9006 1.6989 1.1732.6395.2726 1.3276.4131 2.0228.4131.6953 0 1.3833-.1405 2.0229-.4131.6395-.2726 1.2174-.6717 1.6988-1.1732.0536-.0566.1012-.1161.1518-.1727l.5417 1.7143c.1356.4275.4266.7886.8155 1.0119l-5.25 4.4971-5.25-4.4971c.3889-.2233.6799-.5844.8155-1.0119zm19.3154 16.7084c.0002.1574-.062.3085-.173.42-.1111.1116-.2618.1746-.4192.1752h-28.5774c-.1574-.0006-.3082-.0636-.4192-.1752-.111-.1115-.1733-.2626-.1731-.42v-11.1608c.0004-.1087.0306-.2153.0872-.3082.0567-.0929.1377-.1684.2343-.2185l8.1011-3.4762 5.8631 5.0238v5.0803c0 .1579.0628.3093.1744.4209.1116.1117.263.1744.4209.1744.1578 0 .3092-.0627.4209-.1744.1116-.1116.1743-.263.1743-.4209v-5.0803l5.8631-5.0238 8.1012 3.4762c.0966.0501.1776.1256.2342.2185.0567.0929.0869.1995.0872.3082z"/><path d="m14.585 40.773v3.2738h-1.1905v-3.2738c0-.1579.0627-.3093.1744-.4209.1116-.1117.263-.1744.4209-.1744.1578 0 .3092.0627.4209.1744.1116.1116.1743.263.1743.4209zm21.7262 0v3.2738h-1.1905v-3.2738c0-.1579.0627-.3093.1744-.4209.1116-.1117.263-.1744.4209-.1744.1578 0 .3092.0627.4209.1744.1116.1116.1743.263.1743.4209z"/><path d="m20.3287 2.38142c.1766 0 .3492-.05237.4961-.15048.1468-.0981.2612-.23755.3288-.4007s.0853-.34267.0508-.51587c-.0344-.17319-.1195-.332286-.2443-.457155-.1249-.124868-.284-.209904-.4572-.244355-.1732-.034452-.3527-.01677-.5159.050808-.1631.067578-.3026.182018-.4007.328848-.0981.146834-.1504.319454-.1504.496044.0002.23672.0944.46366.2618.63105.1674.16738.3943.26154.631.26181zm0-1.33929c.0883 0 .1746.02618.248.07524.0735.04905.1307.11878.1645.20035s.0426.17134.0254.25793c-.0173.0866-.0598.16615-.1222.22858-.0624.06244-.142.10496-.2286.12218-.0866.01723-.1763.00839-.2579-.0254s-.1513-.09101-.2004-.16443c-.049-.07341-.0752-.15972-.0752-.24802.0001-.11836.0472-.23185.1309-.31554.0837-.0837.1972-.13077.3155-.13089zm26.7857 19.49407c-.1177 0-.2328.0349-.3307.1003-.0978.0654-.1741.1584-.2192.2671-.045.1088-.0568.2285-.0339.3439.023.1155.0797.2216.1629.3048.0833.0833.1893.14.3048.1629.1155.023.2352.0112.3439-.0339.1088-.045.2018-.1213.2672-.2192s.1003-.213.1003-.3307c-.0002-.1578-.063-.3091-.1746-.4207s-.2629-.1743-.4207-.1745zm0 .8928c-.0588 0-.1164-.0174-.1653-.0501-.049-.0327-.0871-.0792-.1096-.1336-.0226-.0544-.0284-.1142-.017-.1719.0115-.0578.0399-.1108.0815-.1524.0416-.0417.0946-.07.1524-.0815.0577-.0115.1175-.0056.1719.017.0544.0225.1009.0606.1336.1096.0327.0489.0502.1065.0502.1653-.0001.0789-.0315.1546-.0873.2104s-.1315.0872-.2104.0872zm-11.4002-1.4881c-.1177 0-.2328.035-.3307.1004s-.1741.1583-.2192.2671-.0568.2284-.0339.3439c.023.1155.0797.2215.1629.3048.0833.0832.1893.1399.3048.1629.1155.0229.2351.0112.3439-.0339.1088-.045.2017-.1213.2671-.2192.0655-.0979.1004-.213.1004-.3307-.0002-.1578-.063-.3091-.1746-.4207s-.2629-.1744-.4207-.1746zm0 .8929c-.0588 0-.1164-.0175-.1653-.0502-.049-.0327-.0871-.0791-.1096-.1335-.0226-.0544-.0285-.1143-.017-.172s.0399-.1107.0815-.1524c.0416-.0416.0946-.0699.1524-.0814.0577-.0115.1175-.0056.1719.0169s.1009.0607.1336.1096c.0327.049.0501.1065.0501.1654 0 .0789-.0314.1545-.0872.2103s-.1315.0872-.2104.0873zm6.5476-19.04762c-.1177 0-.2328.03491-.3307.10032-.0978.0654-.1741.15836-.2192.26713-.045.10877-.0568.22845-.0339.34391.023.11547.0797.22153.1629.30477.0833.08325.1894.13994.3048.16291.1155.02297.2352.01118.3439-.03387.1088-.04506.2018-.12135.2672-.21924.0654-.09788.1003-.21297.1003-.33069-.0002-.15781-.063-.30911-.1746-.4207-.1115-.11159-.2628-.17436-.4207-.17454zm0 .89286c-.0588 0-.1164-.01746-.1653-.05016s-.0871-.07919-.1096-.13357-.0284-.11422-.017-.17195c.0115-.05774.0399-.11077.0815-.15239s.0946-.06997.1524-.08145c.0577-.01149.1176-.00559.1719.01693.0544.02253.1009.06068.1336.10962s.0502.10648.0502.16535c-.0001.07891-.0315.15456-.0873.21036s-.1314.08718-.2104.08726zm-35.31742 18.45236c0-.1177-.03491-.2328-.10031-.3307-.06541-.0979-.15837-.1742-.26714-.2192-.10876-.0451-.22845-.0569-.34391-.0339-.11547.023-.22153.0797-.30477.1629-.08325.0833-.13994.1893-.16291.3048-.02296.1155-.01118.2351.03388.3439.04505.1088.12134.2017.21923.2671.09788.0654.21297.1004.33069.1004.15782-.0002.30911-.063.4207-.1746s.17436-.2629.17454-.4207zm-.89285 0c0-.0588.01745-.1164.05015-.1653.03271-.049.07919-.0871.13357-.1096.05438-.0226.11422-.0285.17196-.017.05773.0115.11076.0398.15238.0815.04163.0416.06997.0946.08146.1524.01148.0577.00558.1175-.01694.1719-.02253.0544-.06067.1009-.10962.1336-.04894.0327-.10648.0501-.16535.0501-.0789 0-.15456-.0314-.21036-.0872-.05579-.0558-.08718-.1315-.08725-.2104z"/><path d="m1.31328 7.0686.44256-.58214-.27946-.15834-.28393.65179h-.00953l-.288389-.64702-.284524.16279.438093.56816v.00952l-.684819-.08869v.31667l.689289-.08839v.00922l-.442563.56816.265477.16785.302976-.65684h.00893l.27946.65208.29345-.16756-.44702-.55893v-.00952l.70298.08393v-.31667l-.70298.09316z"/><path d="m13.9084 9.78246-.2547.32704.153.0968.1744-.3783h.0053l.1607.3756.1691-.0964-.2575-.32206v-.00536l.4048.04822v-.18215l-.4048.05357v-.00535l.2548-.33512-.1607-.09137-.1637.37559h-.0054l-.166-.37291-.164.09404.2524.32709v.00535l-.3944-.05089v.18215l.3967-.0509z"/><path d="m47.6292 11.7259v-.3107l-.6895.0914v-.0089l.4339-.5712-.2741-.155-.2786.6393h-.0092l-.2831-.6349-.2788.1599.4294.5574v.0089l-.6714-.0869v.3107l.6759-.0866v.009l-.4339.5571.2604.1646.297-.6441h.0089l.2742.6396.2878-.1646-.4384-.5482v-.0089z"/><path d="m34.7453 5.82961.3744-.49256-.2366-.13393-.2402.55149h-.008l-.2441-.54762-.2408.1381.3706.48065v.00774l-.5792-.0747v.26786l.583-.075v.00803l-.3744.48066.2247.14196.2563-.55565h.0077l.2366.55148.2482-.14166-.3782-.47292v-.00803l.5946.07113v-.26786l-.5946.07857z"/></g></svg>