<svg fill="none" height="80" viewBox="0 0 82 80" width="82" xmlns="http://www.w3.org/2000/svg"><g fill="#6258a6"><path d="m43.4144 75v-28.75c0-.9946-.4035-1.9484-1.1219-2.6517-.7184-.7032-1.6928-1.0983-2.7087-1.0983h-25.5376v-11.875c-.0024-1.9722.7282-3.8779 2.0553-5.3617s3.1602-2.4444 5.1575-2.7027 4.0223.2034 5.6975 1.299c1.6751 1.0956 2.8861 2.7502 3.4069 4.6554.1913.6701.5697 1.2747 1.0926 1.7458.523.4712 1.1697.7903 1.8677.9214.698.1312 1.4195.0692 2.0835-.179.6639-.2481 1.2441-.6726 1.6752-1.2257.3643-.4667.6127-1.0099.7255-1.5868s.0869-1.1716-.0756-1.737c-1.0273-3.6461-3.3708-6.8037-6.5957-8.8868-3.2248-2.0832-7.112-2.9505-10.9405-2.4411-3.8284.5094-7.3381 2.361-9.878 5.2113-2.53981 2.8502-3.93732 6.5056-3.93323 10.2879v11.875h-1.27688c-1.01595 0-1.99029.3951-2.70868 1.0983-.71838.7033-1.12197 1.6571-1.12197 2.6517v28.75c0 .9946.40359 1.9484 1.12197 2.6516.71839.7033 1.69273 1.0984 2.70868 1.0984h34.47581c1.0159 0 1.9903-.3951 2.7087-1.0984.7184-.7032 1.1219-1.657 1.1219-2.6516zm-34.47577-44.375c-.00248-3.1768 1.17207-6.2467 3.30587-8.6402s5.0819-3.9481 8.2975-4.3755c3.2157-.4274 6.4805.3014 9.1889 2.0513 2.7085 1.7498 4.6767 4.402 5.5396 7.4644.0566.1943.0661.3989.0278.5975-.0384.1985-.1235.3856-.2487.5462-.1417.1815-.3318.3212-.5493.4036-.2176.0824-.4542.1044-.6838.0636-.2295-.0409-.443-.143-.6171-.2951-.174-.1522-.3017-.3484-.369-.5671-.681-2.4906-2.2638-4.6539-4.4536-6.0866-2.1897-1.4327-4.8369-2.0371-7.4482-1.7004-2.6112.3367-5.0083 1.5914-6.7444 3.5303-1.7362 1.9389-2.6929 4.4297-2.6918 7.008v11.875h-2.55377zm-5.10752 44.375v-28.75c0-.3315.13453-.6495.37399-.8839s.56424-.3661.90289-.3661h34.47581c.3386 0 .6634.1317.9029.3661s.374.5524.374.8839v28.75c0 .3315-.1345.6495-.374.8839s-.5643.3661-.9029.3661h-34.47581c-.33865 0-.66343-.1317-.90289-.3661s-.37399-.5524-.37399-.8839z"/><path d="m38.3066 33.75v5c0 .3315.1346.6495.374.8839.2395.2344.5643.3661.9029.3661h5.1075c.3387 0 .6635-.1317.9029-.3661.2395-.2344.374-.5524.374-.8839v-5c0-.3315-.1345-.6495-.374-.8839-.2394-.2344-.5642-.3661-.9029-.3661h-5.1075c-.3386 0-.6634.1317-.9029.3661-.2394.2344-.374.5524-.374.8839zm2.5538 1.25h2.5538v2.5h-2.5538z"/><path d="m49.7988 32.5v5c0 .3315.1346.6495.374.8839.2395.2344.5643.3661.9029.3661h5.1075c.3387 0 .6635-.1317.9029-.3661.2395-.2344.374-.5524.374-.8839v-5c0-.3315-.1345-.6495-.374-.8839-.2394-.2344-.5642-.3661-.9029-.3661h-5.1075c-.3386 0-.6634.1317-.9029.3661-.2394.2344-.374.5524-.374.8839zm2.5538 1.25h2.5538v2.5h-2.5538z"/><path d="m49.7985 21.25h-5.1076c-.3386 0-.6634.1317-.9028.3661-.2395.2344-.374.5524-.374.8839v5c0 .3315.1345.6495.374.8839.2394.2344.5642.3661.9028.3661h5.1076c.3386 0 .6634-.1317.9029-.3661.2394-.2344.374-.5524.374-.8839v-5c0-.3315-.1346-.6495-.374-.8839-.2395-.2344-.5643-.3661-.9029-.3661zm-1.2769 5h-2.5538v-2.5h2.5538z"/><path d="m62.5676 20v-7.5c0-.3315-.1345-.6495-.374-.8839s-.5642-.3661-.9029-.3661h-7.6613c-.3386 0-.6634.1317-.9029.3661-.2394.2344-.374.5524-.374.8839v7.5c0 .3315.1346.6495.374.8839.2395.2344.5643.3661.9029.3661h7.6613c.3387 0 .6634-.1317.9029-.3661s.374-.5524.374-.8839zm-2.5538-1.25h-5.1075v-5h5.1075z"/><path d="m79.1668 1.25h-12.7688c-.3387 0-.6635.1317-.9029.36612-.2395.23442-.374.55236-.374.88388v12.5c0 .3315.1345.6495.374.8839.2394.2344.5642.3661.9029.3661h12.7688c.3386 0 .6634-.1317.9029-.3661.2394-.2344.374-.5524.374-.8839v-12.5c0-.33152-.1346-.64946-.374-.88388-.2395-.23442-.5643-.36612-.9029-.36612zm-1.2769 12.5h-10.215v-10h10.215z"/><path d="m71.5056 22.5h-10.215c-.3387 0-.6635.1317-.9029.3661-.2395.2344-.374.5524-.374.8839v10c0 .3315.1345.6495.374.8839.2394.2344.5642.3661.9029.3661h10.215c.3387 0 .6634-.1317.9029-.3661s.374-.5524.374-.8839v-10c0-.3315-.1345-.6495-.374-.8839s-.5642-.3661-.9029-.3661zm-1.2769 10h-7.6613v-7.5h7.6613z"/><path d="m48.5211 10h-5.1075c-.3386 0-.6634.1317-.9029.3661s-.374.5524-.374.8839v5c0 .3315.1345.6495.374.8839s.5643.3661.9029.3661h5.1075c.3387 0 .6635-.1317.9029-.3661.2395-.2344.374-.5524.374-.8839v-5c0-.3315-.1345-.6495-.374-.8839-.2394-.2344-.5642-.3661-.9029-.3661zm-1.2769 5h-2.5537v-2.5h2.5537z"/><path d="m22.3455 49.375c-2.2729 0-4.4948.6598-6.3846 1.896-1.8899 1.2361-3.3628 2.9931-4.2326 5.0488s-1.0974 4.3177-.654 6.5c.4435 2.1823 1.538 4.1868 3.1451 5.7602 1.6072 1.5733 3.6549 2.6448 5.8841 3.0788 2.2292.4341 4.5399.2113 6.6397-.6402 2.0999-.8514 3.8947-2.2934 5.1575-4.1434 1.2627-1.8501 1.9367-4.0252 1.9367-6.2502-.0034-2.9827-1.2152-5.8422-3.3696-7.9513-2.1545-2.1091-5.0755-3.2954-8.1223-3.2987zm3.2637 19.3875c-2.0959.8167-4.4316.8167-6.5275 0v-4.3875c0-.3315.1346-.6495.374-.8839.2395-.2344.5643-.3661.9029-.3661h3.9737c.3386 0 .6634.1317.9029.3661.2394.2344.374.5524.374.8839zm-4.8598-10.9162c0-.3091.0936-.6112.2689-.8681.1754-.257.4247-.4572.7164-.5755.2916-.1183.6125-.1492.9221-.0889.3097.0603.5941.2091.8173.4276s.3752.4969.4368.8.03.6173-.0908.9028-.3254.5295-.5879.7012-.5711.2634-.8867.2634c-.4231-.0007-.8287-.1655-1.1279-.4584s-.4676-.69-.4682-1.1041zm7.4135 9.4037v-2.875c-.0038-.8362-.2931-1.6471-.8217-2.3039-.5287-.6568-1.2664-1.1218-2.0959-1.3211.5901-.5643.995-1.2879 1.163-2.0785.168-.7907.0916-1.6123-.2196-2.3602s-.8431-1.388-1.5276-1.8386-1.4907-.6913-2.3156-.6913c-.825 0-1.6311.2407-2.3157.6913-.6845.4506-1.2164 1.0907-1.5276 1.8386s-.3876 1.5695-.2196 2.3602c.168.7906.573 1.5142 1.1631 2.0785-.8296.1993-1.5673.6643-2.096 1.3211-.5286.6568-.8179 1.4677-.8217 2.3039v2.875c-1.3865-1.1636-2.3756-2.715-2.8342-4.4455-.4587-1.7305-.3649-3.5569.2688-5.2336s1.7768-3.1232 3.2755-4.1447c1.4987-1.0216 3.2811-1.5692 5.1074-1.5692 1.8262 0 3.6086.5476 5.1073 1.5692 1.4987 1.0215 2.6418 2.468 3.2755 4.1447s.7275 3.5031.2689 5.2336c-.4587 1.7305-1.4478 3.2819-2.8343 4.4455z"/><path d="m53.6294 8.75h5.1075c.3387 0 .6635-.1317.9029-.36612.2395-.23442.374-.55236.374-.88388v-5c0-.33152-.1345-.64946-.374-.88388-.2394-.23442-.5642-.36612-.9029-.36612h-5.1075c-.3386 0-.6634.1317-.9029.36612-.2394.23442-.374.55236-.374.88388v5c0 .33152.1346.64946.374.88388.2395.23442.5643.36612.9029.36612zm1.2769-5h2.5538v2.5h-2.5538z"/></g></svg>