<svg fill="#fff" height="12.402" viewBox="0 0 45.402 45.402" width="12.402" xmlns="http://www.w3.org/2000/svg"><path d="m41.267 18.557h-14.435v-14.423c0-2.283-1.842-4.134-4.125-4.134s-4.124 1.851-4.124 4.135v14.432h-14.442c-2.283 0-4.139 1.851-4.138 4.135-.001 1.141.46 2.187 1.207 2.934.748.749 1.78 1.222 2.92 1.222h14.453v14.412c0 1.142.453 2.176 1.201 2.922.748.748 1.777 1.211 2.919 1.211 2.282 0 4.129-1.851 4.129-4.133v-14.413h14.435c2.283 0 4.134-1.867 4.133-4.15-.001-2.282-1.852-4.15-4.133-4.15z"/></svg>