<svg height="32.027" viewBox="0 0 28.023 32.027" width="28.023" xmlns="http://www.w3.org/2000/svg"><path d="m36.874-160.987a5.64 5.64 0 0 1 5.9 5.338v5.338a5.64 5.64 0 0 1 -5.9 5.338h-22.124v-10.676a5.64 5.64 0 0 1 5.9-5.338zm.206 2.669h-16.636a2.864 2.864 0 0 0 -3.025 2.669v8.007h19.661a2.864 2.864 0 0 0 3.025-2.669v-5.338a2.864 2.864 0 0 0 -3.025-2.669zm-8.318-18.682a7.339 7.339 0 0 1 7.339 7.339 7.339 7.339 0 0 1 -7.339 7.339 7.339 7.339 0 0 1 -7.339-7.339 7.339 7.339 0 0 1 7.339-7.339zm0 2.669a4.671 4.671 0 0 0 -4.671 4.671 4.671 4.671 0 0 0 4.671 4.671 4.671 4.671 0 0 0 4.671-4.671 4.671 4.671 0 0 0 -4.671-4.671z" fill="#5758a1" fill-rule="evenodd" transform="translate(-14.75 177)"/></svg>