<svg fill="none" height="27" viewBox="0 0 24 27" width="24" xmlns="http://www.w3.org/2000/svg"><path d="m14.6619 13.329h-7.99738c-.35351 0-.69254.1405-.94251.3904-.24996.25-.39039.589-.39039.9425 0 .3536.14043.6926.39039.9425.24997.25.589.3904.94251.3904h7.99738c.3536 0 .6926-.1404.9425-.3904.25-.2499.3904-.5889.3904-.9425 0-.3535-.1404-.6925-.3904-.9425-.2499-.2499-.5889-.3904-.9425-.3904zm7.2111 9.3304 1.7327-1.7195c.251-.251.392-.5914.392-.9463 0-.355-.141-.6954-.392-.9464s-.5914-.392-.9463-.392c-.355 0-.6954.141-.9464.392l-1.7194 1.7328-1.7195-1.7328c-.251-.251-.5914-.392-.9463-.392-.355 0-.6954.141-.9464.392s-.392.5914-.392.9464c0 .3549.141.6953.392.9463l1.7328 1.7195-1.7328 1.7194c-.1249.1239-.2241.2713-.2918.4338-.0676.1624-.1025.3366-.1025.5126 0 .1759.0349.3502.1025.5126.0677.1624.1669.3098.2918.4337.1239.125.2713.2241.4337.2918.1625.0677.3367.1025.5127.1025.1759 0 .3501-.0348.5126-.1025.1624-.0677.3098-.1668.4337-.2918l1.7195-1.7327 1.7194 1.7327c.1239.125.2713.2241.4338.2918.1624.0677.3366.1025.5126.1025.1759 0 .3501-.0348.5126-.1025.1624-.0677.3098-.1668.4337-.2918.125-.1239.2241-.2713.2918-.4337s.1025-.3367.1025-.5126c0-.176-.0348-.3502-.1025-.5126-.0677-.1625-.1668-.3099-.2918-.4338zm-9.8769 1.3329h-7.99739c-.35351 0-.69254-.1405-.9425-.3904-.24997-.25-.3904-.589-.3904-.9425v-18.66069c0-.35351.14043-.69254.3904-.9425.24996-.24997.58899-.3904.9425-.3904h6.66449v3.99871c0 1.06052.4213 2.07761 1.1712 2.82752.7499.74986 1.767 1.17116 2.8275 1.17116h3.9988v3.9987c0 .3536.1404.6926.3904.9425.2499.25.589.3904.9425.3904s.6925-.1404.9425-.3904c.2499-.2499.3904-.5889.3904-.9425v-5.33157s0 0 0-.07998c-.0139-.12244-.0407-.24308-.08-.35988v-.11996c-.0641-.13705-.1496-.26303-.2533-.37322l-7.9974-7.997419c-.1102-.103678-.2361-.189164-.3732-.253252-.0441-.007718-.0892-.007718-.1333 0-.1296-.0693065-.2689-.118732-.4132-.146619h-8.07739c-1.06052 0-2.07761.421292-2.82751 1.1712-.749908.7499-1.1712 1.76699-1.1712 2.82751v18.66069c0 1.0605.421292 2.0776 1.1712 2.8275.7499.7499 1.76699 1.1712 2.82751 1.1712h7.99739c.3535 0 .6926-.1404.9425-.3904.25-.25.3904-.589.3904-.9425s-.1404-.6926-.3904-.9425c-.2499-.25-.589-.3904-.9425-.3904zm1.3329-19.4471 3.4523 3.45222h-2.1194c-.3535 0-.6925-.14043-.9425-.39039-.2499-.24997-.3904-.589-.3904-.94251zm-6.66448 3.45222c-.35351 0-.69254.14043-.94251.3904-.24996.24997-.39039.589-.39039.94251s.14043.69257.39039.94247c.24997.25.589.3904.94251.3904h1.3329c.35351 0 .69254-.1404.94251-.3904.24997-.2499.3904-.58896.3904-.94247s-.14043-.69254-.3904-.94251-.589-.3904-.94251-.3904zm5.33158 10.66328h-5.33158c-.35351 0-.69254.1404-.94251.3904-.24996.2499-.39039.589-.39039.9425s.14043.6925.39039.9425c.24997.2499.589.3904.94251.3904h5.33158c.3535 0 .6926-.1405.9425-.3904.25-.25.3904-.589.3904-.9425s-.1404-.6926-.3904-.9425c-.2499-.25-.589-.3904-.9425-.3904z" fill="#f2786b"/></svg>