<svg height="21.939" viewBox="0 0 21.939 21.939" width="21.939" xmlns="http://www.w3.org/2000/svg"><path d="m936.344 10236.315a10.97 10.97 0 1 1 10.971 10.969 10.968 10.968 0 0 1 -10.971-10.969zm4.256-6.715a9.5 9.5 0 1 0 6.715-2.779 9.434 9.434 0 0 0 -6.715 2.779zm2.772 10.717a.818.818 0 0 1 0-1.193c.355-.353 2.78-2.78 2.78-2.78s-2.461-2.461-2.78-2.777a.817.817 0 0 1 0-1.193.808.808 0 0 1 1.193 0l2.78 2.78 2.777-2.78a.844.844 0 0 1 1.193 1.193l-2.78 2.777 2.78 2.78a.84.84 0 0 1 0 1.193.854.854 0 0 1 -1.193 0l-2.777-2.78-2.78 2.78a.851.851 0 0 1 -.6.248.84.84 0 0 1 -.593-.248z" fill="#e81111" transform="translate(-936.344 -10225.345)"/></svg>