<svg fill="none" height="20" viewBox="0 0 22 20" width="22" xmlns="http://www.w3.org/2000/svg"><path d="m11.1245 0c-5.39059 0-9.78575 4.29458-9.87778 9.60632l-1.24281375.05492 2.67945375 4.22876 2.28847-4.44743-1.23424.05487c.14817-3.90493 3.40438-7.03643 7.38691-7.03643 4.0772 0 7.3934 3.28195 7.3934 7.31561 0 4.03358-3.3162 7.31548-7.3934 7.31548-1.86275 0-3.64213-.6873-5.0099-1.9368l-1.68512 1.8097c1.82774 1.6688 4.20584 2.5867 6.69502 2.5867 5.4475 0 9.8794-4.3846 9.8794-9.77502 0-5.39064-4.4319-9.77668-9.8794-9.77668z" fill="#273470"/></svg>