<svg fill="none" height="28" viewBox="0 0 27 28" width="27" xmlns="http://www.w3.org/2000/svg"><path d="m7.50016 11.3446h1.33334c.35362 0 .69276-.1404.9428-.3905.2501-.25.3905-.5892.3905-.9428 0-.35361-.1404-.69275-.3905-.9428-.25004-.25005-.58918-.39052-.9428-.39052h-1.33334c-.35362 0-.69276.14047-.94281.39052-.25004.25005-.39052.58919-.39052.9428 0 .3536.14048.6928.39052.9428.25005.2501.58919.3905.94281.3905zm5.33334 8h-5.33334c-.35362 0-.69276.1405-.94281.3906-.25004.25-.39052.5892-.39052.9428s.14048.6927.39052.9428c.25005.25.58919.3905.94281.3905h5.33334c.3536 0 .6928-.1405.9428-.3905.2501-.2501.3905-.5892.3905-.9428s-.1404-.6928-.3905-.9428c-.25-.2501-.5892-.3906-.9428-.3906zm0-5.3333h-5.33334c-.35362 0-.69276.1405-.94281.3905-.25004.2501-.39052.5892-.39052.9428 0 .3537.14048.6928.39052.9429.25005.25.58919.3905.94281.3905h5.33334c.3536 0 .6928-.1405.9428-.3905.2501-.2501.3905-.5892.3905-.9429 0-.3536-.1404-.6927-.3905-.9428-.25-.25-.5892-.3905-.9428-.3905zm9.2267-3.4933c.1021-.2428.13-.5105.0801-.76911-.0498-.25865-.1751-.49675-.3601-.68424l-8-8c-.1103-.103717-.2363-.18923-.3734-.253338-.0398-.005653-.0802-.005653-.12 0l-.3733-.133333h-8.08c-1.06087 0-2.07829.421431-2.82843 1.171571-.75015.75015-1.171574 1.76756-1.171574 2.82843v18.66662c0 1.0609.421424 2.0783 1.171574 2.8285.75014.7501 1.76756 1.1715 2.82843 1.1715h8c.3536 0 .6928-.1404.9428-.3905.2501-.25.3905-.5892.3905-.9428s-.1404-.6927-.3905-.9428c-.25-.25-.5892-.3905-.9428-.3905h-8c-.35363 0-.69276-.1405-.94281-.3905-.25005-.2501-.39053-.5892-.39053-.9429v-18.66662c0-.35362.14048-.69276.39053-.94281s.58918-.39052.94281-.39052h6.6667v4c0 1.06086.4214 2.07828 1.1715 2.82845.7502.7501 1.7676 1.1715 2.8285 1.1715h5.3333c.2632-.0013.5202-.0805.7385-.2276s.3881-.3555.4882-.599zm-6.56-1.84002c-.3537 0-.6928-.14048-.9428-.39053-.2501-.25004-.3906-.58918-.3906-.9428v-2.12l3.4534 3.45333zm9.3333 5.33332h-6.6667c-.3536 0-.6927.1405-.9428.3905-.25.2501-.3905.5892-.3905.9428v10.6667c.0006.2412.0667.4777.1911.6844.1245.2066.3027.3756.5156.4889.2085.1071.4415.1573.6756.1456s.4609-.0849.6577-.2122l2.6267-1.7334 2.6666 1.7334c.1992.1152.4248.1769.6549.179.2301.0022.4569-.0552.6582-.1666s.3704-.273.4908-.4691c.1203-.1961.1879-.42.1961-.65v-10.6667c0-.3536-.1404-.6927-.3905-.9428-.25-.25-.5892-.3905-.9428-.3905zm-1.3333 9.4933-1.2534-.84c-.2205-.149-.4805-.2286-.7466-.2286-.2662 0-.5262.0796-.7467.2286l-1.2533.84v-6.8266h4z" fill="#fcbd4c"/></svg>