<svg fill="none" height="26" viewBox="0 0 26 26" width="26" xmlns="http://www.w3.org/2000/svg"><path d="m13 0c-7.16813 0-13 5.83187-13 13 0 7.1681 5.83187 13 13 13 7.1681 0 13-5.8319 13-13 0-7.16813-5.8319-13-13-13zm7.5 11.3844c0 .1429-.0568.2799-.1578.3809-.101.1011-.2381.1578-.3809.1578h-3.7213c-.1066.0002-.2108-.0313-.2995-.0905-.0887-.0591-.1578-.1433-.1986-.2418-.0407-.0984-.0513-.2068-.0304-.3113.0209-.1046.0724-.2005.1479-.2758l1.3856-1.38558-.35-.40687c-.626-.64993-1.4034-1.13459-2.2625-1.41066-.8592-.27607-1.7734-.33494-2.6608-.17135-.8875.16359-1.7206.54455-2.4248 1.10881-.70424.56427-1.25768 1.29425-1.61084 2.12465-.35316.8305-.49503 1.7355-.41293 2.6341.08209.8987.38561 1.763.88339 2.5157.49779.7527 1.17434 1.3703 1.96918 1.7977.7948.4273 1.6831.651 2.5856.6511 1.1293-.0011 2.2307-.3516 3.153-1.0034.9222-.6518 1.6202-1.573 1.9982-2.6373.0438-.1239.1116-.238.1994-.3358.0879-.0977.1942-.1772.3128-.2338.1186-.0567.2472-.0895.3784-.0964.1313-.007.2627.0119.3866.0557s.238.1116.3358.1995c.0977.0878.1772.1941.2339.3127.0566.1186.0894.2472.0964.3785.0069.1312-.012.2626-.0558.3865-.4558 1.2899-1.2574 2.4297-2.3172 3.2948s-2.337 1.4222-3.6921 1.6105c-1.355.1882-2.7358.0003-3.99125-.5431-1.25549-.5434-2.33743-1.4216-3.12758-2.5384-.79014-1.1168-1.25808-2.4293-1.35267-3.7941-.09458-1.3648.18782-2.7293.81635-3.94444s1.57899-2.23411 2.74751-2.94555c1.16854-.71145 2.51014-1.08798 3.87824-1.08846 1.0096-.00386 2.0094.19905 2.9376.59622.9283.39717 1.7654.98019 2.4598 1.71316l.035.03875.2694.3125.9175-.91751c.0489-.04999.1072-.08976.1716-.11701.0644-.02726.1335-.04144.2034-.04173.0712-.00058.1417.01295.2076.03981s.1258.06652.1762.11668c.0505.05016.0905.10983.1177.17555.0273.06572.0412.13619.041.20733z" fill="#263570"/></svg>