<svg fill="none" height="27" viewBox="0 0 24 27" width="24" xmlns="http://www.w3.org/2000/svg"><path d="m14.6667 14.6667c0-.3537-.1405-.6928-.3906-.9428-.25-.2501-.5891-.3906-.9428-.3906h-6.66663c-.35362 0-.69276.1405-.94281.3906-.25005.25-.39053.5891-.39053.9428 0 .3536.14048.6927.39053.9428.25005.25.58919.3905.94281.3905h6.66663c.3537 0 .6928-.1405.9428-.3905.2501-.2501.3906-.5892.3906-.9428zm-4 9.3333h-6.6667c-.35362 0-.69276-.1405-.94281-.3905-.25005-.2501-.39052-.5892-.39052-.9428v-18.6667c0-.35362.14047-.69276.39052-.94281s.58919-.39052.94281-.39052h6.6667v4c0 1.06086.4214 2.07828 1.1715 2.82842.7502.75011 1.7676 1.17161 2.8285 1.17161h4v1.3333c0 .3536.1404.6928.3905.9428.25.2501.5892.3905.9428.3905s.6928-.1404.9428-.3905c.2501-.25.3905-.5892.3905-.9428v-2.66667s0 0 0-.08c-.0124-.12272-.0393-.24355-.08-.36v-.12c-.0606-.13903-.1465-.26562-.2533-.37333l-8-8c-.1102-.103712-.2362-.189225-.3733-.253333h-.12c-.1311-.0766626-.2762-.1265162-.4267-.146667h-8.08c-1.06087 0-2.07828.421427-2.82843 1.17157-.750143.75015-1.17157 1.76756-1.17157 2.82843v18.6667c0 1.0608.421427 2.0782 1.17157 2.8284.75015.7501 1.76756 1.1716 2.82843 1.1716h6.6667c.3536 0 .6927-.1405.9428-.3906.25-.25.3905-.5891.3905-.9428 0-.3536-.1405-.6927-.3905-.9428-.2501-.25-.5892-.3905-.9428-.3905zm2.6666-19.45333 3.4534 3.45333h-2.12c-.3537 0-.6928-.14048-.9428-.39052-.2501-.25005-.3906-.58919-.3906-.94281zm9.3334 11.45333c-.258.0017-.5099.0782-.7253.2202-.2153.142-.3849.3434-.4881.5798-.8391-.5145-1.8024-.791-2.7866-.8-.8633-.0012-1.714.2071-2.479.6071-.7649.4-1.4214.9797-1.913 1.6894-.4915.7096-.8035 1.528-.909 2.3847-.1056.8568-.0016 1.7264.3031 2.5342.3046.8077.8007 1.5294 1.4458 2.1031.645.5737 1.4197.9823 2.2575 1.1906.8377.2083 1.7135.2101 2.5521.0053s1.615-.6101 2.2625-1.1811c.267-.2334.4303-.5632.454-.9171.0238-.3538-.094-.7025-.3274-.9695s-.5632-.4304-.9171-.4541c-.3538-.0238-.7025.094-.9695.3274-.4842.4336-1.1101.6754-1.76.68-.4051-.0065-.8034-.1053-1.1646-.2887-.3612-.1835-.6759-.4468-.9201-.7701-.2443-.3232-.4116-.6979-.4894-1.0955s-.064-.8077.0404-1.1991c.1044-.3915.2966-.754.562-1.0601.2655-.306.5972-.5476.9699-.7063.3728-.1587.7768-.2304 1.1814-.2097.4046.0208.7992.1335 1.1537.3295h-.2933c-.3537 0-.6928.1405-.9428.3905-.2501.2501-.3906.5892-.3906.9428 0 .3537.1405.6928.3906.9428.25.2501.5891.3906.9428.3906h2.96c.3536 0 .6927-.1405.9428-.3906.25-.25.3905-.5891.3905-.9428v-3c0-.3536-.1405-.6927-.3905-.9428-.2501-.25-.5892-.3905-.9428-.3905zm-16.00003-5.3333h1.33333c.35362 0 .69276-.1405.94281-.3906.25005-.25.39052-.58914.39052-.94277 0-.35362-.14047-.69276-.39052-.94281-.25005-.25004-.58919-.39052-.94281-.39052h-1.33333c-.35362 0-.69276.14048-.94281.39052-.25005.25005-.39053.58919-.39053.94281 0 .35363.14048.69277.39053.94277.25005.2501.58919.3906.94281.3906zm0 8c-.35362 0-.69276.1404-.94281.3905-.25005.25-.39053.5892-.39053.9428s.14048.6928.39053.9428c.25005.2501.58919.3905.94281.3905h2.66666c.35363 0 .69277-.1404.94277-.3905.2501-.25.3906-.5892.3906-.9428s-.1405-.6928-.3906-.9428c-.25-.2501-.58914-.3905-.94277-.3905z" fill="#063bcc"/></svg>