<svg width="26" height="28" viewBox="0 0 26 28" fill="none" xmlns="http://www.w3.org/2000/svg">
<path d="M14.6667 14.6667C14.6667 14.313 14.5262 13.9739 14.2761 13.7239C14.0261 13.4738 13.687 13.3333 13.3333 13.3333H6.66667C6.31304 13.3333 5.97391 13.4738 5.72386 13.7239C5.47381 13.9739 5.33333 14.313 5.33333 14.6667C5.33333 15.0203 5.47381 15.3594 5.72386 15.6095C5.97391 15.8595 6.31304 16 6.66667 16H13.3333C13.687 16 14.0261 15.8595 14.2761 15.6095C14.5262 15.3594 14.6667 15.0203 14.6667 14.6667ZM10.6667 24H4C3.64638 24 3.30724 23.8595 3.05719 23.6095C2.80714 23.3594 2.66667 23.0203 2.66667 22.6667V4C2.66667 3.64638 2.80714 3.30724 3.05719 3.05719C3.30724 2.80714 3.64638 2.66667 4 2.66667H10.6667V6.66667C10.6667 7.72753 11.0881 8.74495 11.8382 9.49509C12.5884 10.2452 13.6058 10.6667 14.6667 10.6667H18.6667V12C18.6667 12.3536 18.8071 12.6928 19.0572 12.9428C19.3072 13.1929 19.6464 13.3333 20 13.3333C20.3536 13.3333 20.6928 13.1929 20.9428 12.9428C21.1929 12.6928 21.3333 12.3536 21.3333 12V9.33333C21.3333 9.33333 21.3333 9.33333 21.3333 9.25333C21.3209 9.13061 21.294 9.00978 21.2533 8.89333V8.77333C21.1927 8.6343 21.1068 8.50771 21 8.4L13 0.4C12.8898 0.296288 12.7638 0.210775 12.6267 0.146667H12.5067C12.3756 0.0700043 12.2305 0.0201508 12.08 0H4C2.93913 0 1.92172 0.421427 1.17157 1.17157C0.421427 1.92172 0 2.93913 0 4V22.6667C0 23.7275 0.421427 24.7449 1.17157 25.4951C1.92172 26.2452 2.93913 26.6667 4 26.6667H10.6667C11.0203 26.6667 11.3594 26.5262 11.6095 26.2761C11.8595 26.0261 12 25.687 12 25.3333C12 24.9797 11.8595 24.6406 11.6095 24.3905C11.3594 24.1405 11.0203 24 10.6667 24ZM13.3333 4.54667L16.7867 8H14.6667C14.313 8 13.9739 7.85952 13.7239 7.60948C13.4738 7.35943 13.3333 7.02029 13.3333 6.66667V4.54667ZM6.66667 10.6667H8C8.35362 10.6667 8.69276 10.5262 8.94281 10.2761C9.19286 10.0261 9.33333 9.68696 9.33333 9.33333C9.33333 8.97971 9.19286 8.64057 8.94281 8.39052C8.69276 8.14048 8.35362 8 8 8H6.66667C6.31304 8 5.97391 8.14048 5.72386 8.39052C5.47381 8.64057 5.33333 8.97971 5.33333 9.33333C5.33333 9.68696 5.47381 10.0261 5.72386 10.2761C5.97391 10.5262 6.31304 10.6667 6.66667 10.6667ZM6.66667 18.6667C6.31304 18.6667 5.97391 18.8071 5.72386 19.0572C5.47381 19.3072 5.33333 19.6464 5.33333 20C5.33333 20.3536 5.47381 20.6928 5.72386 20.9428C5.97391 21.1929 6.31304 21.3333 6.66667 21.3333H9.33333C9.68696 21.3333 10.0261 21.1929 10.2761 20.9428C10.5262 20.6928 10.6667 20.3536 10.6667 20C10.6667 19.6464 10.5262 19.3072 10.2761 19.0572C10.0261 18.8071 9.68696 18.6667 9.33333 18.6667H6.66667Z" fill="#063BCC"/>
<path d="M19.5146 15.4757L19.5146 15.4757C19.9862 14.882 20.7365 14.6193 21.4534 14.8126L21.4535 14.8127L21.4823 14.8205C22.785 15.1719 23.3379 16.7826 22.6173 17.949L21.849 19.1925H23.3246C24.5604 19.1925 25.4442 20.4007 25.2127 21.6497L24.9805 21.6067L25.2127 21.6497L24.4819 25.5927L24.2361 25.5472L24.4819 25.5928C24.3058 26.5427 23.5256 27.25 22.5937 27.25H14.4568C14.0489 27.25 13.75 26.8991 13.75 26.5071V19.9354C13.75 19.7442 13.8202 19.5575 13.9504 19.4169M19.5146 15.4757L14.1338 19.5869M19.5146 15.4757L16.5621 19.1925M19.5146 15.4757L16.6828 19.4425M13.9504 19.4169L14.1338 19.5869M13.9504 19.4169C13.9504 19.4169 13.9504 19.4169 13.9504 19.4169L14.1338 19.5869M13.9504 19.4169C14.0812 19.2758 14.2629 19.1925 14.4568 19.1925L16.5621 19.1925M14.1338 19.5869C14.2194 19.4944 14.3356 19.4425 14.4568 19.4425L16.6828 19.4425M16.5621 19.1925L16.4871 19.287L16.6828 19.4425M16.5621 19.1925L16.6828 19.1925L16.6828 19.4425M22.5937 25.7642H17.5997V20.205L20.5998 16.4282L20.5998 16.4282C20.7287 16.2659 20.9232 16.2036 21.1016 16.2517L21.1305 16.2595L21.1305 16.2595C21.4622 16.349 21.6456 16.7932 21.4318 17.1394L21.4318 17.1394L19.9544 19.5305C19.8152 19.7558 19.8029 20.042 19.9204 20.279L19.9204 20.2791C20.0389 20.5178 20.2765 20.6783 20.5471 20.6783H23.3246C23.6261 20.6783 23.8953 20.9877 23.8253 21.3653L23.0944 25.3083L23.0944 25.3084C23.0428 25.587 22.8232 25.7642 22.5937 25.7642ZM15.1636 25.7642V20.6783H16.1861V25.7642H15.1636Z" fill="#063BCC" stroke="#063BCC" stroke-width="0.5"/>
</svg>
