<svg width="78" height="81" viewBox="0 0 78 81" fill="none" xmlns="http://www.w3.org/2000/svg">
<path d="M76.9999 21.4495V29.595L69.6045 25.5285L76.9999 21.4495Z" fill="url(#paint0_linear_6_1746)"/>
<path d="M76.6273 50.2784V58.4114L69.2188 54.3449L76.6273 50.2784Z" fill="url(#paint1_linear_6_1746)"/>
<path d="M73.37 47.5674L65.9746 51.6339V43.4884L73.37 47.5674Z" fill="url(#paint2_linear_6_1746)"/>
<path d="M77.9999 36.2844V44.4299L70.6045 40.3634L77.9999 36.2844Z" fill="url(#paint3_linear_6_1746)"/>
<path d="M61.0331 58.3237V66.4566L53.6377 62.3902L61.0331 58.3237Z" fill="url(#paint4_linear_6_1746)"/>
<path d="M62.2741 52.9897L52.4004 47.5677L62.2741 42.1332V52.9897Z" fill="url(#paint5_linear_6_1746)"/>
<path d="M62.2741 54.3451L52.4004 59.7671V48.9232L62.2741 54.3451Z" fill="url(#paint6_linear_6_1746)"/>
<path d="M62.2741 40.7778L52.4004 46.1997V35.3558L62.2741 40.7778Z" fill="url(#paint7_linear_6_1746)"/>
<path d="M63.0272 72.1422L55.6318 76.2086V68.0757L63.0272 72.1422Z" fill="url(#paint8_linear_6_1746)"/>
<path d="M49.9343 62.6664L40.0605 68.0884V57.2444L49.9343 62.6664Z" fill="url(#paint9_linear_6_1746)"/>
<path d="M48.6952 75.9579L41.2998 80.0244V71.8914L48.6952 75.9579Z" fill="url(#paint10_linear_6_1746)"/>
<path d="M75.4432 63.3817L68.0479 67.4482V59.3152L75.4432 63.3817Z" fill="url(#paint11_linear_6_1746)"/>
<path d="M73.37 34.0001L65.9746 38.0666V29.9337L73.37 34.0001Z" fill="url(#paint12_linear_6_1746)"/>
<path d="M62.2741 28.5784V39.4223L52.4004 34.0003L62.2741 28.5784Z" fill="url(#paint13_linear_6_1746)"/>
<path d="M48.6952 64.524V72.657L41.2998 68.5905L48.6952 64.524Z" fill="url(#paint14_linear_6_1746)"/>
<path d="M49.9343 61.3108L40.0605 55.8762L49.9343 50.4543V61.3108Z" fill="url(#paint15_linear_6_1746)"/>
<path d="M74.702 17.4708L67.3066 21.5373V13.4044L74.702 17.4708Z" fill="url(#paint16_linear_6_1746)"/>
<path d="M62.578 5.59788L55.1826 9.6769V1.5314L62.578 5.59788Z" fill="url(#paint17_linear_6_1746)"/>
<path d="M62.2741 27.2227L52.4004 32.6447V21.7882L62.2741 27.2227Z" fill="url(#paint18_linear_6_1746)"/>
<path d="M48.6952 14.9229L41.2998 10.8565L48.6952 6.77744V14.9229Z" fill="url(#paint19_linear_6_1746)"/>
<path d="M49.9343 20.2567V31.1132L40.0605 25.6786L49.9343 20.2567Z" fill="url(#paint20_linear_6_1746)"/>
<path d="M37.5934 24.3236L27.7197 18.9017L37.5934 13.4672V24.3236Z" fill="url(#paint21_linear_6_1746)"/>
<path d="M36.3563 8.13294L28.9609 4.06647L36.3563 0V8.13294Z" fill="url(#paint22_linear_6_1746)"/>
<path d="M25.2575 32.6449L15.3838 27.2104L25.2575 21.7885V32.6449Z" fill="url(#paint23_linear_6_1746)"/>
<path d="M21.2894 6.18759V14.3331L13.8809 10.2666L21.2894 6.18759Z" fill="url(#paint24_linear_6_1746)"/>
<path d="M61.0331 23.2442L53.6377 19.1652L61.0331 15.0988V23.2442Z" fill="url(#paint25_linear_6_1746)"/>
<path d="M48.695 4.06647L41.2996 8.13294V0L48.695 4.06647Z" fill="url(#paint26_linear_6_1746)"/>
<path d="M49.9343 18.9016L40.0605 24.3235V13.4796L49.9343 18.9016Z" fill="url(#paint27_linear_6_1746)"/>
<path d="M36.3695 13.1405L28.9609 17.2195V9.07401L36.3695 13.1405Z" fill="url(#paint28_linear_6_1746)"/>
<path d="M37.5934 25.6788L27.7197 31.1133V20.2568L37.5934 25.6788Z" fill="url(#paint29_linear_6_1746)"/>
<path d="M24.0165 19.1652L16.6211 23.2317V15.0988L24.0165 19.1652Z" fill="url(#paint30_linear_6_1746)"/>
<path d="M8.13465 25.2775L0.739258 21.211L8.13465 17.132V25.2775Z" fill="url(#paint31_linear_6_1746)"/>
<path d="M36.3563 80.0242L28.9609 75.9578L36.3563 71.8913V80.0242Z" fill="url(#paint32_linear_6_1746)"/>
<path d="M24.0165 68.4901V76.6355L16.6211 72.5691L24.0165 68.4901Z" fill="url(#paint33_linear_6_1746)"/>
<path d="M25.2575 47.568L15.3838 52.99V42.1335L25.2575 47.568Z" fill="url(#paint34_linear_6_1746)"/>
<path d="M25.2575 34.0003L15.3838 39.4223V28.5784L25.2575 34.0003Z" fill="url(#paint35_linear_6_1746)"/>
<path d="M10.3485 60.9472V69.0801L2.95312 65.0136L10.3485 60.9472Z" fill="url(#paint36_linear_6_1746)"/>
<path d="M11.6918 29.6453V37.7908L4.2832 33.7243L11.6918 29.6453Z" fill="url(#paint37_linear_6_1746)"/>
<path d="M7.39539 41.1291L0 45.1956V37.0627L7.39539 41.1291Z" fill="url(#paint38_linear_6_1746)"/>
<path d="M37.5934 68.0885L27.7197 62.6665L37.5934 57.232V68.0885Z" fill="url(#paint39_linear_6_1746)"/>
<path d="M36.3563 69.1677L28.9609 73.2468V65.1013L36.3563 69.1677Z" fill="url(#paint40_linear_6_1746)"/>
<path d="M37.5934 55.8762L27.7197 61.3108V50.4543L37.5934 55.8762Z" fill="url(#paint41_linear_6_1746)"/>
<path d="M24.0165 62.3902L16.6211 66.4566V58.3237L24.0165 62.3902Z" fill="url(#paint42_linear_6_1746)"/>
<path d="M25.2575 48.9232V59.7671L15.3838 54.3451L25.2575 48.9232Z" fill="url(#paint43_linear_6_1746)"/>
<path d="M25.2575 35.3557V46.1996L15.3838 40.7776L25.2575 35.3557Z" fill="url(#paint44_linear_6_1746)"/>
<path d="M11.6918 51.6345L4.2832 47.568L11.6918 43.5015V51.6345Z" fill="url(#paint45_linear_6_1746)"/>
<path d="M7.69861 27.2228L0.290039 31.2892V23.1437L7.69861 27.2228Z" fill="url(#paint46_linear_6_1746)"/>
<path d="M8.13465 54.8343L0.739258 58.9133V50.7678L8.13465 54.8343Z" fill="url(#paint47_linear_6_1746)"/>
<path d="M51.1626 47.5678L38.8369 40.7779L51.1626 34.0004V47.5678Z" fill="url(#paint48_linear_6_1746)"/>
<path d="M38.8369 40.7776L51.1626 47.5676L38.8369 54.345V40.7776Z" fill="url(#paint49_linear_6_1746)"/>
<path d="M38.833 27.2228V40.7777L26.4941 34.0003L38.833 27.2228Z" fill="url(#paint50_linear_6_1746)"/>
<path d="M51.1626 34.0004L38.8369 40.7779V27.223L51.1626 34.0004Z" fill="url(#paint51_linear_6_1746)"/>
<path d="M38.833 40.7775V54.3449L26.4941 47.5675L38.833 40.7775Z" fill="url(#paint52_linear_6_1746)"/>
<path d="M38.833 40.7777L26.4941 47.5677V34.0003L38.833 40.7777Z" fill="url(#paint53_linear_6_1746)"/>
<defs>
<linearGradient id="paint0_linear_6_1746" x1="73.3022" y1="21.4495" x2="73.3022" y2="29.595" gradientUnits="userSpaceOnUse">
<stop stop-color="#6258A6"/>
<stop offset="1" stop-color="#7E92EE"/>
</linearGradient>
<linearGradient id="paint1_linear_6_1746" x1="72.923" y1="50.2784" x2="72.923" y2="58.4114" gradientUnits="userSpaceOnUse">
<stop stop-color="#6258A6"/>
<stop offset="1" stop-color="#7E92EE"/>
</linearGradient>
<linearGradient id="paint2_linear_6_1746" x1="69.6723" y1="43.4884" x2="69.6723" y2="51.6339" gradientUnits="userSpaceOnUse">
<stop stop-color="#6258A6"/>
<stop offset="1" stop-color="#7E92EE"/>
</linearGradient>
<linearGradient id="paint3_linear_6_1746" x1="74.3022" y1="36.2844" x2="74.3022" y2="44.4299" gradientUnits="userSpaceOnUse">
<stop stop-color="#6258A6"/>
<stop offset="1" stop-color="#7E92EE"/>
</linearGradient>
<linearGradient id="paint4_linear_6_1746" x1="57.3354" y1="58.3237" x2="57.3354" y2="66.4566" gradientUnits="userSpaceOnUse">
<stop stop-color="#6258A6"/>
<stop offset="1" stop-color="#7E92EE"/>
</linearGradient>
<linearGradient id="paint5_linear_6_1746" x1="57.3372" y1="42.1332" x2="57.3372" y2="52.9897" gradientUnits="userSpaceOnUse">
<stop stop-color="#6258A6"/>
<stop offset="1" stop-color="#7E92EE"/>
</linearGradient>
<linearGradient id="paint6_linear_6_1746" x1="57.3372" y1="48.9232" x2="57.3372" y2="59.7671" gradientUnits="userSpaceOnUse">
<stop stop-color="#6258A6"/>
<stop offset="1" stop-color="#7E92EE"/>
</linearGradient>
<linearGradient id="paint7_linear_6_1746" x1="57.3372" y1="35.3558" x2="57.3372" y2="46.1997" gradientUnits="userSpaceOnUse">
<stop stop-color="#6258A6"/>
<stop offset="1" stop-color="#7E92EE"/>
</linearGradient>
<linearGradient id="paint8_linear_6_1746" x1="59.3295" y1="68.0757" x2="59.3295" y2="76.2086" gradientUnits="userSpaceOnUse">
<stop stop-color="#6258A6"/>
<stop offset="1" stop-color="#7E92EE"/>
</linearGradient>
<linearGradient id="paint9_linear_6_1746" x1="44.9974" y1="57.2444" x2="44.9974" y2="68.0884" gradientUnits="userSpaceOnUse">
<stop stop-color="#6258A6"/>
<stop offset="1" stop-color="#7E92EE"/>
</linearGradient>
<linearGradient id="paint10_linear_6_1746" x1="44.9975" y1="71.8914" x2="44.9975" y2="80.0244" gradientUnits="userSpaceOnUse">
<stop stop-color="#6258A6"/>
<stop offset="1" stop-color="#7E92EE"/>
</linearGradient>
<linearGradient id="paint11_linear_6_1746" x1="71.7455" y1="59.3152" x2="71.7455" y2="67.4482" gradientUnits="userSpaceOnUse">
<stop stop-color="#6258A6"/>
<stop offset="1" stop-color="#7E92EE"/>
</linearGradient>
<linearGradient id="paint12_linear_6_1746" x1="69.6723" y1="29.9337" x2="69.6723" y2="38.0666" gradientUnits="userSpaceOnUse">
<stop stop-color="#6258A6"/>
<stop offset="1" stop-color="#7E92EE"/>
</linearGradient>
<linearGradient id="paint13_linear_6_1746" x1="57.3372" y1="28.5784" x2="57.3372" y2="39.4223" gradientUnits="userSpaceOnUse">
<stop stop-color="#6258A6"/>
<stop offset="1" stop-color="#7E92EE"/>
</linearGradient>
<linearGradient id="paint14_linear_6_1746" x1="44.9975" y1="64.524" x2="44.9975" y2="72.657" gradientUnits="userSpaceOnUse">
<stop stop-color="#6258A6"/>
<stop offset="1" stop-color="#7E92EE"/>
</linearGradient>
<linearGradient id="paint15_linear_6_1746" x1="44.9974" y1="50.4543" x2="44.9974" y2="61.3108" gradientUnits="userSpaceOnUse">
<stop stop-color="#6258A6"/>
<stop offset="1" stop-color="#7E92EE"/>
</linearGradient>
<linearGradient id="paint16_linear_6_1746" x1="71.0043" y1="13.4044" x2="71.0043" y2="21.5373" gradientUnits="userSpaceOnUse">
<stop stop-color="#6258A6"/>
<stop offset="1" stop-color="#7E92EE"/>
</linearGradient>
<linearGradient id="paint17_linear_6_1746" x1="58.8803" y1="1.5314" x2="58.8803" y2="9.6769" gradientUnits="userSpaceOnUse">
<stop stop-color="#6258A6"/>
<stop offset="1" stop-color="#7E92EE"/>
</linearGradient>
<linearGradient id="paint18_linear_6_1746" x1="57.3372" y1="21.7882" x2="57.3372" y2="32.6447" gradientUnits="userSpaceOnUse">
<stop stop-color="#6258A6"/>
<stop offset="1" stop-color="#7E92EE"/>
</linearGradient>
<linearGradient id="paint19_linear_6_1746" x1="44.9975" y1="6.77744" x2="44.9975" y2="14.9229" gradientUnits="userSpaceOnUse">
<stop stop-color="#6258A6"/>
<stop offset="1" stop-color="#7E92EE"/>
</linearGradient>
<linearGradient id="paint20_linear_6_1746" x1="44.9974" y1="20.2567" x2="44.9974" y2="31.1132" gradientUnits="userSpaceOnUse">
<stop stop-color="#6258A6"/>
<stop offset="1" stop-color="#7E92EE"/>
</linearGradient>
<linearGradient id="paint21_linear_6_1746" x1="32.6566" y1="13.4672" x2="32.6566" y2="24.3236" gradientUnits="userSpaceOnUse">
<stop stop-color="#6258A6"/>
<stop offset="1" stop-color="#7E92EE"/>
</linearGradient>
<linearGradient id="paint22_linear_6_1746" x1="32.6586" y1="0" x2="32.6586" y2="8.13294" gradientUnits="userSpaceOnUse">
<stop stop-color="#6258A6"/>
<stop offset="1" stop-color="#7E92EE"/>
</linearGradient>
<linearGradient id="paint23_linear_6_1746" x1="20.3206" y1="21.7885" x2="20.3206" y2="32.6449" gradientUnits="userSpaceOnUse">
<stop stop-color="#6258A6"/>
<stop offset="1" stop-color="#7E92EE"/>
</linearGradient>
<linearGradient id="paint24_linear_6_1746" x1="17.5851" y1="6.18759" x2="17.5851" y2="14.3331" gradientUnits="userSpaceOnUse">
<stop stop-color="#6258A6"/>
<stop offset="1" stop-color="#7E92EE"/>
</linearGradient>
<linearGradient id="paint25_linear_6_1746" x1="57.3354" y1="15.0988" x2="57.3354" y2="23.2442" gradientUnits="userSpaceOnUse">
<stop stop-color="#6258A6"/>
<stop offset="1" stop-color="#7E92EE"/>
</linearGradient>
<linearGradient id="paint26_linear_6_1746" x1="44.9973" y1="0" x2="44.9973" y2="8.13294" gradientUnits="userSpaceOnUse">
<stop stop-color="#6258A6"/>
<stop offset="1" stop-color="#7E92EE"/>
</linearGradient>
<linearGradient id="paint27_linear_6_1746" x1="44.9974" y1="13.4796" x2="44.9974" y2="24.3235" gradientUnits="userSpaceOnUse">
<stop stop-color="#6258A6"/>
<stop offset="1" stop-color="#7E92EE"/>
</linearGradient>
<linearGradient id="paint28_linear_6_1746" x1="32.6652" y1="9.07401" x2="32.6652" y2="17.2195" gradientUnits="userSpaceOnUse">
<stop stop-color="#6258A6"/>
<stop offset="1" stop-color="#7E92EE"/>
</linearGradient>
<linearGradient id="paint29_linear_6_1746" x1="32.6566" y1="20.2568" x2="32.6566" y2="31.1133" gradientUnits="userSpaceOnUse">
<stop stop-color="#6258A6"/>
<stop offset="1" stop-color="#7E92EE"/>
</linearGradient>
<linearGradient id="paint30_linear_6_1746" x1="20.3188" y1="15.0988" x2="20.3188" y2="23.2317" gradientUnits="userSpaceOnUse">
<stop stop-color="#6258A6"/>
<stop offset="1" stop-color="#7E92EE"/>
</linearGradient>
<linearGradient id="paint31_linear_6_1746" x1="4.43695" y1="17.132" x2="4.43695" y2="25.2775" gradientUnits="userSpaceOnUse">
<stop stop-color="#6258A6"/>
<stop offset="1" stop-color="#7E92EE"/>
</linearGradient>
<linearGradient id="paint32_linear_6_1746" x1="32.6586" y1="71.8913" x2="32.6586" y2="80.0242" gradientUnits="userSpaceOnUse">
<stop stop-color="#6258A6"/>
<stop offset="1" stop-color="#7E92EE"/>
</linearGradient>
<linearGradient id="paint33_linear_6_1746" x1="20.3188" y1="68.4901" x2="20.3188" y2="76.6355" gradientUnits="userSpaceOnUse">
<stop stop-color="#6258A6"/>
<stop offset="1" stop-color="#7E92EE"/>
</linearGradient>
<linearGradient id="paint34_linear_6_1746" x1="20.3206" y1="42.1335" x2="20.3206" y2="52.99" gradientUnits="userSpaceOnUse">
<stop stop-color="#6258A6"/>
<stop offset="1" stop-color="#7E92EE"/>
</linearGradient>
<linearGradient id="paint35_linear_6_1746" x1="20.3206" y1="28.5784" x2="20.3206" y2="39.4223" gradientUnits="userSpaceOnUse">
<stop stop-color="#6258A6"/>
<stop offset="1" stop-color="#7E92EE"/>
</linearGradient>
<linearGradient id="paint36_linear_6_1746" x1="6.65082" y1="60.9472" x2="6.65082" y2="69.0801" gradientUnits="userSpaceOnUse">
<stop stop-color="#6258A6"/>
<stop offset="1" stop-color="#7E92EE"/>
</linearGradient>
<linearGradient id="paint37_linear_6_1746" x1="7.98749" y1="29.6453" x2="7.98749" y2="37.7908" gradientUnits="userSpaceOnUse">
<stop stop-color="#6258A6"/>
<stop offset="1" stop-color="#7E92EE"/>
</linearGradient>
<linearGradient id="paint38_linear_6_1746" x1="3.6977" y1="37.0627" x2="3.6977" y2="45.1956" gradientUnits="userSpaceOnUse">
<stop stop-color="#6258A6"/>
<stop offset="1" stop-color="#7E92EE"/>
</linearGradient>
<linearGradient id="paint39_linear_6_1746" x1="32.6566" y1="57.232" x2="32.6566" y2="68.0885" gradientUnits="userSpaceOnUse">
<stop stop-color="#6258A6"/>
<stop offset="1" stop-color="#7E92EE"/>
</linearGradient>
<linearGradient id="paint40_linear_6_1746" x1="32.6586" y1="65.1013" x2="32.6586" y2="73.2468" gradientUnits="userSpaceOnUse">
<stop stop-color="#6258A6"/>
<stop offset="1" stop-color="#7E92EE"/>
</linearGradient>
<linearGradient id="paint41_linear_6_1746" x1="32.6566" y1="50.4543" x2="32.6566" y2="61.3108" gradientUnits="userSpaceOnUse">
<stop stop-color="#6258A6"/>
<stop offset="1" stop-color="#7E92EE"/>
</linearGradient>
<linearGradient id="paint42_linear_6_1746" x1="20.3188" y1="58.3237" x2="20.3188" y2="66.4566" gradientUnits="userSpaceOnUse">
<stop stop-color="#6258A6"/>
<stop offset="1" stop-color="#7E92EE"/>
</linearGradient>
<linearGradient id="paint43_linear_6_1746" x1="20.3206" y1="48.9232" x2="20.3206" y2="59.7671" gradientUnits="userSpaceOnUse">
<stop stop-color="#6258A6"/>
<stop offset="1" stop-color="#7E92EE"/>
</linearGradient>
<linearGradient id="paint44_linear_6_1746" x1="20.3206" y1="35.3557" x2="20.3206" y2="46.1996" gradientUnits="userSpaceOnUse">
<stop stop-color="#6258A6"/>
<stop offset="1" stop-color="#7E92EE"/>
</linearGradient>
<linearGradient id="paint45_linear_6_1746" x1="7.98749" y1="43.5015" x2="7.98749" y2="51.6345" gradientUnits="userSpaceOnUse">
<stop stop-color="#6258A6"/>
<stop offset="1" stop-color="#7E92EE"/>
</linearGradient>
<linearGradient id="paint46_linear_6_1746" x1="3.99432" y1="23.1437" x2="3.99432" y2="31.2892" gradientUnits="userSpaceOnUse">
<stop stop-color="#6258A6"/>
<stop offset="1" stop-color="#7E92EE"/>
</linearGradient>
<linearGradient id="paint47_linear_6_1746" x1="4.43695" y1="50.7678" x2="4.43695" y2="58.9133" gradientUnits="userSpaceOnUse">
<stop stop-color="#6258A6"/>
<stop offset="1" stop-color="#7E92EE"/>
</linearGradient>
<linearGradient id="paint48_linear_6_1746" x1="44.9997" y1="34.0004" x2="44.9997" y2="47.5678" gradientUnits="userSpaceOnUse">
<stop stop-color="#6258A6"/>
<stop offset="1" stop-color="#7E92EE"/>
</linearGradient>
<linearGradient id="paint49_linear_6_1746" x1="44.9997" y1="40.7776" x2="44.9997" y2="54.345" gradientUnits="userSpaceOnUse">
<stop stop-color="#6258A6"/>
<stop offset="1" stop-color="#7E92EE"/>
</linearGradient>
<linearGradient id="paint50_linear_6_1746" x1="32.6636" y1="27.2228" x2="32.6636" y2="40.7777" gradientUnits="userSpaceOnUse">
<stop stop-color="#6258A6"/>
<stop offset="1" stop-color="#7E92EE"/>
</linearGradient>
<linearGradient id="paint51_linear_6_1746" x1="44.9997" y1="27.223" x2="44.9997" y2="40.7779" gradientUnits="userSpaceOnUse">
<stop stop-color="#6258A6"/>
<stop offset="1" stop-color="#7E92EE"/>
</linearGradient>
<linearGradient id="paint52_linear_6_1746" x1="32.6636" y1="40.7775" x2="32.6636" y2="54.3449" gradientUnits="userSpaceOnUse">
<stop stop-color="#6258A6"/>
<stop offset="1" stop-color="#7E92EE"/>
</linearGradient>
<linearGradient id="paint53_linear_6_1746" x1="32.6636" y1="34.0003" x2="32.6636" y2="47.5677" gradientUnits="userSpaceOnUse">
<stop stop-color="#6258A6"/>
<stop offset="1" stop-color="#7E92EE"/>
</linearGradient>
</defs>
</svg>
