<svg fill="none" height="185" viewBox="0 0 180 185" width="180" xmlns="http://www.w3.org/2000/svg"><path d="m19.6946 80.9845s31.4322-1.2587 38.2247-52.9264c6.0319-45.886 59.0347-25.00036 74.3557-6.7092 19.847 23.6948 9.267 64.4547 34.942 69.6038 25.675 5.1492 8.909 62.3983-30.064 56.9193-48.4808-6.817-36.751 21.513-51.3049 33.503-10.4448 8.606-53.2726.322-54.7-30.918-1.2011-26.287-12.2898-26.204-20.1496-29.185-11.335595-4.299-18.47826-35.4331 8.6961-40.2875z" fill="#dee9ff"/><path d="m126.546 138.365-30.8807-30.515-6.1149 6.188 30.8806 30.515z" fill="#699cff"/><path d="m138.343 146.564-24.026-23.74c-.133-.133-.349-.131-.481.002l-9.094 9.203c-.132.134-.131.35.003.482l24.026 23.74c.134.132.349.131.481-.003l9.094-9.202c.132-.134.131-.35-.003-.482z" fill="#0e84e5"/><path d="m68.2951 123.197c21.2453 0 38.4679-17.223 38.4679-38.4683s-17.2226-38.468-38.4679-38.468-38.468 17.2227-38.468 38.468 17.2227 38.4683 38.468 38.4683z" fill="#0e84e5"/><path d="m68.2952 116.92c17.7787 0 32.1908-14.412 32.1908-32.1911 0-17.7787-14.4121-32.1912-32.1908-32.1912s-32.1912 14.4125-32.1912 32.1912c0 17.7791 14.4125 32.1911 32.1912 32.1911z" fill="#d4e5ff"/><g fill="#418df9"><path d="m133.33 49.9534c-9.023-2.9248-18.775 2.0218-21.712 11.0822-2.924 9.0233 2.022 18.7746 11.083 21.7112 9.06 2.9366 18.786-2.0586 21.712-11.0823 2.925-9.0237-2.06-18.7865-11.083-21.7111zm-2.723 8.4001c1.01.3274 1.9.9474 2.557 1.7813s1.052 1.8442 1.134 2.9028c.082 1.0585-.152 2.1176-.672 3.0429-.521.9253-1.305 1.6752-2.252 2.1545-.948.4793-2.016.6664-3.07.5376s-2.046-.5677-2.85-1.261-1.384-1.6098-1.666-2.6333c-.283-1.0235-.255-2.1078.08-3.1154.903-2.7878 3.951-4.313 6.739-3.4094zm-6.812 21.0186c-2.998-.9667-5.567-2.9456-7.266-5.5977 3.18-1.8068 6.505-2.3101 9.513-1.3351s5.454 3.3079 6.92 6.6614c-2.931 1.1511-6.172 1.2471-9.167.2714z"/><path d="m58.2264 132.179c-1.5673.8-2.8622 2.046-3.7209 3.582s-1.2426 3.292-1.1033 5.046c.1393 1.755.7957 3.428 1.8861 4.809s2.5659 2.408 4.2398 2.95c1.674.543 3.4712.577 5.1645.098 1.6932-.479 3.2064-1.449 4.3483-2.788 1.1418-1.339 1.861-2.986 2.0665-4.734.2056-1.747-.1117-3.517-.9117-5.084-1.0747-2.1-2.9385-3.688-5.1824-4.415-2.244-.727-4.6848-.535-6.7869.536zm2.0723 4.059c.4881-.249 1.0393-.348 1.5836-.283.5442.064 1.0571.289 1.4734.645.4164.357.7176.829.8653 1.357.1477.527.1353 1.087-.0356 1.608s-.4926.979-.9243 1.317c-.4318.337-.954.539-1.5006.579-.5466.041-1.0929-.082-1.5695-.353-.4767-.27-.8622-.676-1.1078-1.166-.3254-.653-.3804-1.408-.1528-2.102.2275-.693.7191-1.269 1.3683-1.602zm5.185 10.158c-1.447.742-3.1067.957-4.6949.609.5011-1.82 1.531-3.217 2.985-3.959 1.4541-.742 3.198-.783 4.9574-.095-.6502 1.49-1.7982 2.708-3.2475 3.445z"/></g></svg>