<svg fill="none" height="80" viewBox="0 0 80 80" width="80" xmlns="http://www.w3.org/2000/svg" xmlns:xlink="http://www.w3.org/1999/xlink"><clipPath id="a"><path d="m0 0h80v80h-80z"/></clipPath><g clip-path="url(#a)"><g fill="#6258a6"><path d="m73.8079 72.6513h-67.61505c-3.01 0-5.457498-2.4488-5.457498-5.4588v-42.6262c0-3.01 2.448748-5.4588 5.457498-5.4588v2.0975c-1.8525 0-3.36125 1.5075-3.36125 3.3613v42.6262c0 1.8538 1.5075 3.3613 3.36125 3.3613h67.61375c1.8525 0 3.3613-1.5075 3.3613-3.3613v-42.6262c0-1.8538-1.5076-3.3613-3.3613-3.3613v-2.0975c3.01 0 5.4575 2.4488 5.4575 5.4588v42.6262c.0013 3.01-2.4475 5.4588-5.4562 5.4588z"/><path d="m54.699 77.9025h-27.9275v2.0975h27.9275z"/><path d="m51.3381 78.9512h-2.0975v-6.3012h-17.0113v6.3012h-2.0975v-7.3487c0-.5788.47-1.0488 1.0488-1.0488h19.1087c.5788 0 1.0488.47 1.0488 1.0488z"/><path d="m78.2167 60.3925h-76.43252v2.0975h76.43252z"/><path d="m68.3662 55.0125h-56.7325c-.5787 0-1.0487-.47-1.0487-1.0487v-51.4463c0-1.3875 1.13-2.5175 2.5187-2.5175h53.7925c1.3888 0 2.5188 1.13 2.5188 2.5175v51.4463c0 .5787-.47 1.0487-1.0488 1.0487zm-55.6837-2.0975h54.635v-50.3975c0-.2325-.1888-.42125-.4213-.42125h-53.7925c-.2325 0-.4212.18875-.4212.42125z"/><path d="m68.3663 9.30627h-56.7325v2.09753h56.7325z"/><path d="m18.9839 4.65247h-2.94v2.0975h2.94z"/><path d="m24.8629 4.65247h-2.94v2.0975h2.94z"/><path d="m30.7427 4.65247h-2.94v2.0975h2.94z"/></g><path d="m42.1101 36.7187c-.0322-.0991-.0814-.192-.1453-.2744l-.1938-.2422c-.1501-.1514-.3286-.2715-.5254-.3534-.1967-.082-.4078-.1242-.6209-.1242-.2132 0-.4242.0422-.6209.1242-.1968.0819-.3754.202-.5255.3534-.0769.07-.1423.1517-.1937.2422-.0639.0824-.1131.1753-.1453.2744-.0468.0972-.0794.2005-.0969.3068-.0079.1021-.0079.2047 0 .3068-.0056.217.0386.4324.1292.6297.1643.3926.477.7045.87.8678.3931.1633.8348.1647 1.2289.004.1962-.0877.3763-.2078.5328-.3552.1453-.1487.2604-.3242.3391-.5166.0848-.1991.1287-.4133.1292-.6297.0079-.1021.0079-.2047 0-.3068-.0378-.1099-.0922-.2134-.1615-.3068zm-1.4854-12.3354c-.4282 0-.8389.1701-1.1417.4729s-.4729.7135-.4729 1.1417v4.8438c0 .4282.1701.8388.4729 1.1416s.7135.4729 1.1417.4729.8389-.1701 1.1417-.4729.4729-.7134.4729-1.1416v-4.8438c0-.4282-.1701-.8389-.4729-1.1417s-.7135-.4729-1.1417-.4729zm12.3193-5.9901c-.1876-.1517-.4068-.2595-.6415-.3154s-.479-.0584-.7148-.0075c-1.7253.3616-3.5063.3662-5.2335.0135-1.7271-.3526-3.3638-1.055-4.8092-2.064-.2703-.1875-.5914-.288-.9203-.288-.329 0-.6501.1005-.9203.288-1.4455 1.009-3.0821 1.7114-4.8093 2.064-1.7271.3527-3.5082.3481-5.2334-.0135-.2359-.0509-.4801-.0484-.7148.0075s-.4539.1637-.6415.3154c-.1873.152-.3382.344-.4416.5619-.1034.218-.1566.4563-.1558.6975v12.0286c-.0014 2.3149.5502 4.5967 1.609 6.6553s2.5941 3.8344 4.478 5.1796l5.8932 4.198c.2735.1946.6008.2993.9365.2993s.663-.1047.9364-.2993l5.8933-4.198c1.8839-1.3452 3.4192-3.121 4.478-5.1796 1.0587-2.0586 1.6104-4.3404 1.6089-6.6553v-12.0286c.0009-.2412-.0524-.4795-.1557-.6975-.1034-.2179-.2543-.4099-.4416-.5619zm-2.6318 13.288c.0012 1.7999-.4274 3.574-1.2503 5.1748-.8228 1.6008-2.0161 2.9819-3.4804 4.0284l-4.9568 3.5359-4.9568-3.5359c-1.4644-1.0465-2.6576-2.4276-3.4805-4.0284-.8228-1.6008-1.2515-3.3749-1.2502-5.1748v-10.1718c3.3848.2897 6.7748-.4957 9.6875-2.2443 2.9126 1.7486 6.3026 2.534 9.6875 2.2443z" fill="#6459a7"/></g></svg>