<svg fill="none" height="76" viewBox="0 0 78 76" width="78" xmlns="http://www.w3.org/2000/svg"><path d="m2.70969 45.56h72.58061c.6903 0 1.25-.5597 1.25-1.25v-42.14188c0-1.178906-.959-2.1379686-2.1381-2.1379686h-70.80454c-1.17891 0-2.13797.9590626-2.13797 2.1379686v42.14188c0 .6903.55969 1.25 1.25 1.25zm1.25-43.02985h70.08061v40.52985h-70.08061zm26.51911 26.69845h-5.296c-.6903 0-1.25.5597-1.25 1.25v7.3651c0 .6904.5597 1.25 1.25 1.25h5.296c.6903 0 1.25-.5596 1.25-1.25v-7.3651c0-.6903-.5596-1.25-1.25-1.25zm-1.25 7.3651h-2.796v-4.8651h2.796zm12.6967-12.6107h-5.296c-.6903 0-1.25.5597-1.25 1.25v12.6107c0 .6904.5597 1.25 1.25 1.25h5.296c.6903 0 1.25-.5596 1.25-1.25v-12.6107c0-.6903-.5597-1.25-1.25-1.25zm-1.25 12.6107h-2.796v-10.1107h2.796zm12.6964-17.8565h-5.296c-.6903 0-1.25.5597-1.25 1.25v17.8565c0 .6904.5597 1.25 1.25 1.25h5.296c.6903 0 1.25-.5596 1.25-1.25v-17.8565c0-.6903-.5597-1.25-1.25-1.25zm-1.25 17.8565h-2.796v-15.3565h2.796zm12.6965-23.1021h-5.2959c-.6903 0-1.25.5596-1.25 1.25v23.1021c0 .6904.5597 1.25 1.25 1.25h5.2959c.6904 0 1.25-.5596 1.25-1.25v-23.1021c0-.6904-.5595-1.25-1.25-1.25zm-1.25 23.1021h-2.7959v-20.6021h2.7959zm-35.2265-20.3818c0-5.9003-4.8003-10.7005-10.7006-10.7005-5.9004 0-10.70067 4.8002-10.70067 10.7005s4.80027 10.7004 10.70067 10.7004c5.9003 0 10.7006-4.8003 10.7006-10.7004zm-5.5182 6.3497-2.9971-5.0988 5.9195.0027c-.315 2.0447-1.3883 3.8418-2.9224 5.0961zm2.9236-7.5961-6.856-.0032v-6.8559c3.5243.54141 6.3164 3.3344 6.856 6.8591zm-16.30667 1.2464c0-4.0969 3.01987-7.50175 6.95067-8.1055v8.1055c0 .2228.0595.4414.1724.6334l4.1061 6.9852c-.9376.374-1.9589.582-3.0284.582-4.522-.0002-8.20077-3.6789-8.20077-8.2006zm23.06267-6.59956c0-.69031.5597-1.25 1.25-1.25h3.1869c.6903 0 1.25.55969 1.25 1.25 0 .69036-.5597 1.24996-1.25 1.24996h-3.1869c-.6905 0-1.25-.5596-1.25-1.24996zm8.3787 0c0-.69031.5597-1.25 1.25-1.25h6.9053c.6904 0 1.25.55969 1.25 1.25 0 .69036-.5596 1.24996-1.25 1.24996h-6.9053c-.6904 0-1.25-.5596-1.25-1.24996zm0 4.00176c0-.6904.5597-1.25 1.25-1.25h6.9053c.6904 0 1.25.5596 1.25 1.25 0 .6903-.5596 1.25-1.25 1.25h-6.9053c-.6904 0-1.25-.5597-1.25-1.25zm-3.9418 1.25h-3.1869c-.6903 0-1.25-.5597-1.25-1.25 0-.6904.5597-1.25 1.25-1.25h3.1869c.6903 0 1.25.5596 1.25 1.25 0 .6903-.5596 1.25-1.25 1.25zm-20.7179 49.0573c1.33-1.1914 2.1688-2.9206 2.1688-4.8425 0-3.5853-2.9169-6.5023-6.5023-6.5023-3.58552 0-6.50255 2.917-6.50255 6.5023 0 1.9219.83875 3.6509 2.16875 4.8425-4.27688 1.7227-7.305 5.9122-7.305 10.7984 0 .6903.559687 1.25 1.25 1.25h20.7772c.6903 0 1.25-.5597 1.25-1.25 0-4.8861-3.028-9.0757-7.3049-10.7984zm-4.3335-8.8448c2.207 0 4.0023 1.7954 4.0023 4.0023s-1.7955 4.0023-4.0023 4.0023c-2.20692 0-4.00255-1.7954-4.00255-4.0023s1.79547-4.0023 4.00255-4.0023zm-9.05364 18.3932c.61109-4.4498 4.43812-7.8884 9.05344-7.8884 4.6153 0 8.4423 3.4386 9.0534 7.8884zm40.49854-9.5484c1.33-1.1914 2.1688-2.9206 2.1688-4.8425 0-3.5853-2.9169-6.5023-6.5023-6.5023-3.5855 0-6.5025 2.917-6.5025 6.5023 0 1.9219.8387 3.6509 2.1687 4.8425-4.277 1.7227-7.305 5.9122-7.305 10.7984 0 .6903.5597 1.25 1.25 1.25h20.7772c.6903 0 1.25-.5597 1.25-1.25 0-4.8861-3.028-9.0757-7.3049-10.7984zm-4.3335-8.8448c2.207 0 4.0023 1.7954 4.0023 4.0023s-1.7955 4.0023-4.0023 4.0023c-2.2069 0-4.0025-1.7954-4.0025-4.0023s1.7954-4.0023 4.0025-4.0023zm-9.0536 18.3932c.6111-4.4498 4.4382-7.8884 9.0534-7.8884s8.4423 3.4386 9.0534 7.8884zm40.4986-9.5484c1.33-1.1914 2.1689-2.9206 2.1689-4.8425 0-3.5853-2.9171-6.5023-6.5025-6.5023-3.5855 0-6.5025 2.917-6.5025 6.5023 0 1.9219.8387 3.6509 2.1687 4.8425-4.2769 1.7227-7.305 5.9122-7.305 10.7984 0 .6903.5597 1.25 1.25 1.25h20.7772c.6903 0 1.25-.5597 1.25-1.25 0-4.8861-3.028-9.0757-7.3048-10.7984zm-4.3338-8.8448c2.207 0 4.0025 1.7954 4.0025 4.0023s-1.7955 4.0023-4.0025 4.0023-4.0025-1.7954-4.0025-4.0023 1.7956-4.0023 4.0025-4.0023zm-9.0534 18.3932c.6111-4.4498 4.4383-7.8884 9.0534-7.8884 4.6153 0 8.4423 3.4386 9.0534 7.8884z" fill="#6258a6"/></svg>