<svg fill="none" height="84" viewBox="0 0 80 84" width="80" xmlns="http://www.w3.org/2000/svg"><path d="m78.4173 8.2361-15.8785-7.935673c-.8013-.400569-1.758-.400569-2.5593 0l-15.8788 7.935673c-.0002 0-.0002 0-.0002 0-.9762.48791-1.5827 1.46897-1.5827 2.5604v2.2829h-17.2385c-.6777 0-1.2268.5493-1.2268 1.2267 0 .6775.5491 1.2268 1.2268 1.2268h17.2387v3.7307c0 1.7894.1341 3.4905.4025 5.1118h-20.5785c-.6777 0-1.2268.5492-1.2268 1.2267s.5491 1.2267 1.2268 1.2267h21.1036c.3215 1.2104.7282 2.3729 1.2193 3.4918h-22.3229c-.6777 0-1.2268.5493-1.2268 1.2267 0 .6775.5491 1.2268 1.2268 1.2268h23.5772c.4308.7323.9027 1.4446 1.4169 2.1381.3386.4567.6965.9073 1.0751 1.3537h-14.1359c-.6776 0-1.2267.5492-1.2267 1.2267s.5491 1.2267 1.2267 1.2267h16.4762c2.3128 2.1766 5.2361 4.3194 9.0106 6.6293.4616.2825.9791.4236 1.4968.4236s1.0352-.1411 1.497-.4236c.1254-.0767.2484-.1531.3719-.2293v29.7907h-32.0963v-2.2873c0-.6775-.5491-1.2267-1.2267-1.2267-.6777 0-1.2268.5492-1.2268 1.2267v8.26c0 .2254-.1833.4089-.4089.4089h-25.30672c-.22555 0-.40891-.1835-.40891-.4089v-17.6694c0-.2254.18336-.4089.40891-.4089h25.30672c.2256 0 .4089.1835.4089.4089v3.6846c0 .6775.5491 1.2268 1.2268 1.2268.6776 0 1.2267-.5493 1.2267-1.2268v-3.6846c0-.2465-.0347-.4846-.0936-.713h19.9412c.6776 0 1.2267-.5492 1.2267-1.2267s-.5491-1.2267-1.2267-1.2267h-23.7895v-3.4918h23.7893c.6777 0 1.2268-.5493 1.2268-1.2268 0-.6774-.5491-1.2267-1.2268-1.2267h-23.8407c-.1133-1.2292-.4187-2.4033-.8875-3.4918h12.7044c.6777 0 1.2268-.5492 1.2268-1.2267s-.5491-1.2267-1.2268-1.2267h-14.1429c-2.1167-2.768-5.4508-4.5581-9.1965-4.5581-1.9586 0-3.8041.4907-5.4229 1.3532v-29.4186h9.4617c.6776 0 1.2267-.5493 1.2267-1.2268 0-.6774-.5491-1.2267-1.2267-1.2267h-9.87065c-1.12745 0-2.04456.9171-2.04456 2.0446v31.5784c-2.2724 2.1146-3.69738 5.1283-3.69738 8.4697v5.1787h-1.07953c-1.57823 0-2.86238 1.2841-2.86238 2.8623v17.6696c0 1.5782 1.28415 2.8624 2.86238 2.8624h25.30672c1.5783 0 2.8624-1.2842 2.8624-2.8624v-3.5194h32.5054c1.1274 0 2.0445-.9171 2.0445-2.0446v-31.7754c4.3666-2.922 7.3897-5.6496 9.6005-8.6311 3.242-4.3721 4.8181-9.4908 4.8181-15.6484v-8.4673c.0002-1.09126-.6063-2.07233-1.5827-2.5604zm-58.688 52.1148h-8.427v-5.1786c0-2.3234 1.8903-4.2136 4.2136-4.2136s4.2136 1.8902 4.2136 4.2136v5.1786zm-13.33392-5.1786c0-5.0291 4.09162-9.1205 9.12052-9.1205 5.029 0 9.1204 4.0914 9.1204 9.1205v5.1786h-2.4533v-5.1786c0-3.6763-2.9908-6.6671-6.6671-6.6671s-6.66705 2.9908-6.66705 6.6671v5.1786h-2.45347zm71.15132-35.9085c0 11.7891-6.1494 17.9205-16.0712 23.992-.1319.0806-.3016.0805-.4328 0-9.922-6.0717-16.0714-12.2029-16.0714-23.992v-8.4673c0-.156.0867-.2962.2262-.3659l15.8787-7.93579c.1143-.05725.2509-.05725.3656 0l15.8785 7.93569c.1395.0697.2262.2098.2262.3659v8.4674z" fill="#6258a6"/></svg>