<svg fill="none" height="74" viewBox="0 0 74 74" width="74" xmlns="http://www.w3.org/2000/svg"><path d="m69.5 10.75h-1.25v-6.25c0-.99456-.3951-1.94839-1.0984-2.65165-.7032-.70326-1.657-1.09835-2.6516-1.09835s-1.9484.39509-2.6516 1.09835c-.7033.70326-1.0984 1.65709-1.0984 2.65165v6.25h-10v-6.25c0-.99456-.3951-1.94839-1.0984-2.65165-.7032-.70326-1.657-1.09835-2.6516-1.09835s-1.9484.39509-2.6516 1.09835c-.7033.70326-1.0984 1.65709-1.0984 2.65165v6.25h-12.5v-6.25c0-.99456-.3951-1.94839-1.0983-2.65165-.7033-.70326-1.6571-1.09835-2.6517-1.09835s-1.9484.39509-2.6517 1.09835c-.7032.70326-1.0983 1.65709-1.0983 2.65165v6.25h-10v-6.25c0-.99456-.3951-1.94839-1.0983-2.65165-.7033-.70326-1.6571-1.09835-2.6517-1.09835-.99456 0-1.94839.39509-2.65165 1.09835s-1.09835 1.65709-1.09835 2.65165v6.25h-1.25c-.99456 0-1.94839.3951-2.65165 1.0983-.70326.7033-1.09835 1.6571-1.09835 2.6517v55c0 .9946.39509 1.9484 1.09835 2.6516.70326.7033 1.65709 1.0984 2.65165 1.0984h50c4.9711-.0056 9.7369-1.9829 13.252-5.498s5.4924-8.2809 5.498-13.252v-40c0-.9946-.3951-1.9484-1.0984-2.6517-.7032-.7032-1.657-1.0983-2.6516-1.0983zm-6.25-6.25c0-.33152.1317-.64946.3661-.88388s.5524-.36612.8839-.36612.6495.1317.8839.36612.3661.55236.3661.88388v6.25h-2.5zm-17.5 0c0-.33152.1317-.64946.3661-.88388s.5524-.36612.8839-.36612.6495.1317.8839.36612.3661.55236.3661.88388v6.25h-2.5zm-20 0c0-.33152.1317-.64946.3661-.88388s.5524-.36612.8839-.36612.6495.1317.8839.36612.3661.55236.3661.88388v6.25h-2.5zm-17.5 0c0-.33152.1317-.64946.36612-.88388s.55236-.36612.88388-.36612.6495.1317.8839.36612.3661.55236.3661.88388v6.25h-2.5zm46.25 66.25c-3.2139 0-6.3557-.953-9.028-2.7386s-4.7551-4.3235-5.985-7.2928c-1.23-2.9693-1.5518-6.2366-.9248-9.3888s2.1747-6.0477 4.4473-8.3203 5.1681-3.8203 8.3203-4.4473 6.4195-.3052 9.3888.9248c2.9693 1.2299 5.5072 3.3127 7.2928 5.985s2.7386 5.8141 2.7386 9.028c-.005 4.3082-1.7186 8.4386-4.765 11.485s-7.1768 4.76-11.485 4.765zm16.25-25.5638c-1.4298-2.5003-3.4168-4.6374-5.8067-6.245-2.3898-1.6077-5.1182-2.6427-7.9731-3.0246-2.8548-.3819-5.7593-.1004-8.4877.8226s-5.2073 2.4627-7.2439 4.4994c-2.0367 2.0366-3.5764 4.5155-4.4994 7.2439s-1.2045 5.6329-.8226 8.4877c.3819 2.8549 1.4169 5.5833 3.0246 7.9731 1.6076 2.3899 3.7447 4.3769 6.245 5.8067h-40.6862c-.33152 0-.64946-.1317-.88388-.3661s-.36612-.5524-.36612-.8839v-41.25h67.5zm-67.5-19.4362v-11.25c0-.3315.1317-.6495.36612-.8839s.55236-.3661.88388-.3661h6.25v3.75c0 .3315-.1317.6495-.3661.8839s-.55238.3661-.8839.3661h-2.5v2.5h2.5c.9946 0 1.9484-.3951 2.6517-1.0983.7032-.7033 1.0983-1.6571 1.0983-2.6517v-3.75h15v3.75c0 .3315-.1317.6495-.3661.8839s-.5524.3661-.8839.3661h-2.5v2.5h2.5c.9946 0 1.9484-.3951 2.6517-1.0983.7032-.7033 1.0983-1.6571 1.0983-2.6517v-3.75h17.5v3.75c0 .3315-.1317.6495-.3661.8839s-.5524.3661-.8839.3661h-2.5v2.5h2.5c.9946 0 1.9484-.3951 2.6516-1.0983.7033-.7033 1.0984-1.6571 1.0984-2.6517v-3.75h15v3.75c0 .3315-.1317.6495-.3661.8839s-.5524.3661-.8839.3661h-2.5v2.5h2.5c.9946 0 1.9484-.3951 2.6516-1.0983.7033-.7033 1.0984-1.6571 1.0984-2.6517v-3.75h1.25c.3315 0 .6495.1317.8839.3661s.3661.5524.3661.8839v11.25z" fill="#6258a6"/></svg>