<svg fill="none" viewBox="0 0 20 18" xmlns="http://www.w3.org/2000/svg"><path d="m17 0h-14c-.79565 0-1.55871.316071-2.12132.87868-.562609.56261-.87868 1.32567-.87868 2.12132v8c0 .7956.316071 1.5587.87868 2.1213.56261.5626 1.32567.8787 2.12132.8787h6v2h-4c-.26522 0-.51957.1054-.70711.2929-.18753.1875-.29289.4419-.29289.7071s.10536.5196.29289.7071c.18754.1875.44189.2929.70711.2929h10c.2652 0 .5196-.1054.7071-.2929s.2929-.4419.2929-.7071-.1054-.5196-.2929-.7071-.4419-.2929-.7071-.2929h-4v-2h6c.7956 0 1.5587-.3161 2.1213-.8787s.8787-1.3257.8787-2.1213v-8c0-.79565-.3161-1.55871-.8787-2.12132-.5626-.562609-1.3257-.87868-2.1213-.87868zm1 11c0 .2652-.1054.5196-.2929.7071s-.4419.2929-.7071.2929h-14c-.26522 0-.51957-.1054-.70711-.2929-.18753-.1875-.29289-.4419-.29289-.7071v-8c0-.26522.10536-.51957.29289-.70711.18754-.18753.44189-.29289.70711-.29289h14c.2652 0 .5196.10536.7071.29289.1875.18754.2929.44189.2929.70711z" fill="#6e77a5"/></svg>