<svg fill="none" height="80" viewBox="0 0 80 80" width="80" xmlns="http://www.w3.org/2000/svg"><path d="m9.19891 46.4031v-6.7398c0-.6903.55968-1.25 1.24999-1.25h28.3011v-5.1066c0-.6903.5597-1.25 1.25-1.25s1.25.5597 1.25 1.25v5.1066h28.3011c.6903 0 1.25.5597 1.25 1.25v6.7398c0 .6903-.5597 1.25-1.25 1.25s-1.25-.5597-1.25-1.25v-5.4898h-27.0511v5.49c0 .6903-.5597 1.25-1.25 1.25s-1.25-.5597-1.25-1.25v-5.49h-27.0511v5.4898c0 .6903-.5597 1.25-1.25 1.25-.69031 0-1.24999-.5597-1.24999-1.25zm14.39489 22.7661v9.5808c0 .6903-.5597 1.25-1.25 1.25-.6904 0-1.25-.5597-1.25-1.25v-9.5808c0-1.8998-2.2054-2.7306-3.5199-3.0567-3.9022-.9678-7.78593-.9688-11.54359-.0027-1.61062.4141-3.53031 1.2808-3.53031 3.0594v9.5808c0 .6903-.55969 1.25-1.25 1.25-.690313 0-1.25-.5597-1.25-1.25v-9.5808c0-2.5995 1.97109-4.597 5.40781-5.4804 1.02641-.264 2.06094-.4622 3.10156-.5961-1.62984-1.3399-2.70859-3.6438-2.70859-6.2575 0-2.4811.97109-3.9111 1.78578-4.6739 1.0586-.9911 2.51454-1.5151 4.21034-1.5151s3.1515.524 4.2103 1.5151c.8147.7626 1.7858 2.1926 1.7858 4.6739 0 2.6201-1.0843 4.9289-2.7208 6.2671 1.0326.1333 2.0676.3269 3.1034.5838 3.4433.8541 5.4182 2.8525 5.4182 5.4831zm-15.29302-12.3342c0 2.7037 1.60109 4.9878 3.49612 4.9878 1.8951 0 3.4961-2.2842 3.4961-4.9878 0-3.0489-1.9013-3.6888-3.4961-3.6888-1.5949 0-3.49612.6399-3.49612 3.6888zm-2.25828 13.2866c-.69031 0-1.25.5597-1.25 1.25v7.3784c0 .6903.55969 1.25 1.25 1.25s1.25-.5597 1.25-1.25v-7.3784c0-.6903-.55953-1.25-1.25-1.25zm11.5086 0c-.6903 0-1.25.5597-1.25 1.25v7.3784c0 .6903.5597 1.25 1.25 1.25s1.25-.5597 1.25-1.25v-7.3784c0-.6903-.5595-1.25-1.25-1.25zm62.4489-.9524v9.5808c0 .6903-.5597 1.25-1.25 1.25s-1.25-.5597-1.25-1.25v-9.5808c0-1.8998-2.2053-2.7306-3.5198-3.0567-3.9025-.968-7.7861-.9689-11.5436-.0027-1.6107.4141-3.5304 1.2808-3.5304 3.0594v9.5808c0 .6903-.5596 1.25-1.25 1.25-.6903 0-1.25-.5597-1.25-1.25v-9.5808c0-2.5995 1.9711-4.597 5.4079-5.4804 1.0264-.264 2.0609-.4622 3.1015-.5961-1.63-1.3399-2.7087-3.6438-2.7087-6.2575 0-2.4811.9711-3.9111 1.7858-4.6739 1.0587-.9911 2.5146-1.5151 4.2103-1.5151 1.6956 0 3.1515.524 4.2103 1.5151.8147.7626 1.7859 2.1926 1.7859 4.6739 0 2.6201-1.0842 4.9289-2.7208 6.2671 1.0327.1333 2.0677.3269 3.1035.5838 3.4433.8541 5.4181 2.8526 5.4181 5.4831zm-15.293-12.3342c0 2.7037 1.6011 4.9878 3.4961 4.9878s3.4961-2.2842 3.4961-4.9878c0-3.0489-1.9012-3.6888-3.4961-3.6888-1.5948 0-3.4961.6399-3.4961 3.6888zm-2.2583 13.2866c-.6903 0-1.25.5597-1.25 1.25v7.3784c0 .6903.5597 1.25 1.25 1.25.6904 0 1.25-.5597 1.25-1.25v-7.3784c0-.6903-.5595-1.25-1.25-1.25zm11.5086 0c-.6903 0-1.25.5597-1.25 1.25v7.3784c0 .6903.5597 1.25 1.25 1.25.6904 0 1.25-.5597 1.25-1.25v-7.3784c0-.6903-.5595-1.25-1.25-1.25zm-22.1604-.9524v9.5808c0 .6903-.5597 1.25-1.25 1.25s-1.25-.5597-1.25-1.25v-9.5808c0-1.8998-2.2053-2.7306-3.5199-3.0567-3.9025-.968-7.7861-.9689-11.5436-.0027-1.6106.414-3.5303 1.2808-3.5303 3.0593v9.5809c0 .6903-.5597 1.25-1.25 1.25s-1.25-.5597-1.25-1.25v-9.5808c0-2.5995 1.9711-4.597 5.4078-5.4804 1.0264-.264 2.061-.4622 3.1016-.5961-1.63-1.3399-2.7088-3.6438-2.7088-6.2575 0-2.4811.9711-3.9111 1.7858-4.6739 1.0588-.9911 2.5147-1.5151 4.2103-1.5151 1.6957 0 3.1516.524 4.2104 1.5151.8146.7626 1.7859 2.1926 1.7859 4.6739 0 2.6201-1.0842 4.9289-2.7208 6.2671 1.0327.1333 2.0677.3269 3.1034.5838 3.4433.8541 5.4182 2.8526 5.4182 5.4831zm-15.293-12.3342c0 2.7037 1.6011 4.9878 3.4961 4.9878s3.4961-2.2842 3.4961-4.9878c0-3.0489-1.9013-3.6889-3.4961-3.6889s-3.4961.64-3.4961 3.6889zm-2.2583 13.2866c-.6903 0-1.25.5597-1.25 1.25v7.3784c0 .6903.5597 1.25 1.25 1.25s1.25-.5597 1.25-1.25v-7.3784c0-.6903-.5595-1.25-1.25-1.25zm11.5086 0c-.6903 0-1.25.5597-1.25 1.25v7.3784c0 .6903.5597 1.25 1.25 1.25s1.25-.5597 1.25-1.25v-7.3784c0-.6903-.5595-1.25-1.25-1.25zm-13.4295-55.1997c0-4.2322 3.4431-7.67549 7.6755-7.67549 4.2323 0 7.6754 3.44309 7.6754 7.67549 0 4.2323-3.4433 7.6754-7.6756 7.6754s-7.6753-3.4432-7.6753-7.6754zm2.5 0c0 2.8537 2.3217 5.1754 5.1755 5.1754 2.8537 0 5.1754-2.3217 5.1754-5.1754 0-2.8538-2.3219-5.17549-5.1756-5.17549s-5.1753 2.32169-5.1753 5.17549zm-9.7466 1.3664v-2.7327c0-.517.3185-.9808.801-1.1665l1.6668-.6418c.3024-1.1923.7725-2.32652 1.4036-3.38558l-.7256-1.63375c-.2098-.4725-.1072-1.02547.2586-1.39125l1.9322-1.93234c.3656-.36563.9186-.46844 1.3912-.2586l1.6341.72578c1.0592-.63109 2.1934-1.10109 3.3855-1.40344l.6415-1.667026c.186-.482657.6496-.801094 1.1668-.801094h2.7326c.5172 0 .9808.318437 1.1666.800937l.6417 1.667033c1.1922.3025 2.3261.7725 3.3855 1.40359l1.634-.72578c.4725-.20984 1.0256-.10703 1.3913.2586l1.9323 1.93218c.3656.36563.4684.9186.2586 1.39125l-.7255 1.63328c.6311 1.05907 1.1013 2.19341 1.4038 3.38641l1.6664.6414c.4826.1856.8009.6494.8009 1.1666v2.7326c0 .5172-.3184.9808-.8009 1.1666l-1.667.6417c-.3025 1.1922-.7725 2.3263-1.4036 3.3855l.7258 1.634c.21.4727.1071 1.0257-.2585 1.3913l-1.9322 1.9323c-.3656.3657-.9186.4685-1.3912.2585l-1.6333-.7255c-1.0592.6311-2.1934 1.1014-3.3864 1.4039l-.6413 1.6664c-.1857.4825-.6495.801-1.1665.801h-2.7327c-.5172 0-.9808-.3185-1.1665-.801l-.6418-1.667c-1.1921-.3025-2.3262-.7725-3.3854-1.4036l-1.6339.7258c-.4725.21-1.0255.1072-1.3913-.2585l-1.9323-1.9322c-.3657-.3656-.4685-.9186-.2586-1.3912l.7254-1.6333c-.631-1.0592-1.1012-2.1936-1.4037-3.3864l-1.6664-.6412c-.483-.1861-.8016-.6499-.8016-1.1669zm2.5-.8585 1.4888.573c.4011.1544.6947.5039.7776.9256.2647 1.3477.7883 2.6107 1.5561 3.7541.2396.3567.2791.8116.1047 1.2042l-.6481 1.4596.7184.7184 1.4602-.6484c.3925-.1746.8473-.135 1.2042.1045 1.1441.7681 2.4067 1.2915 3.7531 1.5559.4217.0828.7713.3766.9257.7775l.5732 1.4896h1.0161l.573-1.489c.1544-.4011.5041-.6946.9256-.7776 1.3475-.2647 2.6106-.7881 3.7539-1.5561.3567-.2397.8114-.2792 1.2044-.1047l1.4594.6481.7184-.7184-.6484-1.4603c-.1744-.3927-.135-.8474.1045-1.2042.768-1.1438 1.2914-2.4064 1.5559-3.753.0829-.4217.3766-.7713.7775-.9256l1.4896-.5733v-1.0161l-1.4889-.5731c-.4011-.1544-.6947-.5039-.7777-.9257-.2647-1.3475-.7881-2.6104-1.5559-3.75386-.2397-.35672-.2792-.81157-.1047-1.20422l.6481-1.45953-.7186-.7186-1.4601.6486c-.3927.17422-.8474.13484-1.2041-.10453-1.1439-.76813-2.4067-1.29157-3.7531-1.55594-.4217-.08281-.7713-.37656-.9256-.7775l-.5732-1.48922h-1.0161l-.5732 1.48937c-.1544.4011-.504.69469-.9257.77766-1.3464.26438-2.6092.78781-3.7533 1.55594-.3567.23953-.8114.27891-1.204.10453l-1.4602-.64844-.7184.71844.6484 1.46c.1744.39266.1349.8475-.1047 1.20422-.7681 1.14358-1.2915 2.40638-1.5559 3.75308-.0828.4218-.3764.7713-.7775.9257l-1.4894.5732z" fill="#6258a6"/></svg>