<svg fill="none" height="78" viewBox="0 0 78 78" width="78" xmlns="http://www.w3.org/2000/svg"><path d="m77.75 37.75v-37.5h-52.5v12.5h-6.925c1.1925-1.3287 1.925-3.0775 1.925-5 0-4.13625-3.3638-7.5-7.5-7.5-4.13625 0-7.5 3.36375-7.5 7.5 0 2.245.99625 4.2575 2.56375 5.6325-4.395 1.5312-7.56375 5.7063-7.56375 10.6175v3.75c0 2.7575 2.2425 5 5 5v13.125c0 .6738.16625 1.305.43875 1.875h-5.43875v10h5.4375c-.2775.7837-.4375 1.6225-.4375 2.5 0 2.245.99625 4.2575 2.56375 5.6325-4.395 1.5312-7.56375 5.7063-7.56375 10.6175v1.25h22.5 2.5 20 2.5 22.5v-1.25c0-4.9112-3.1687-9.0863-7.5637-10.6175 1.5675-1.375 2.5637-3.3875 2.5637-5.6325 0-.8775-.16-1.7163-.4375-2.5h12.9375v-10h-8.0425l-6-10zm-50-35h47.5v32.5h-47.5v-15h3.75c1.6275 0 3.0025-1.0487 3.52-2.5h15.23v-12.5h-20v7.5h-2.5zm-7.9387 45c.2724-.57.4387-1.2012.4387-1.875v-25.625h5v17.5h14.0425l-6 10zm22.3962-10h3.335l-6 10h-3.335zm5.5425 1.18v8.82h-5.2925zm2.5-1.18h2.5v10h-2.5zm5 1.18 5.2925 8.82h-5.2925zm-20.23-23.68c-.3775-1.0588-1.2112-1.8925-2.27-2.27v-5.23h15v7.5zm-22.27-12.5c2.7575 0 5 2.2425 5 5s-2.2425 5-5 5-5-2.2425-5-5 2.2425-5 5-5zm-5 43.125v-21.875h-2.5v6.25c-1.37875 0-2.5-1.1213-2.5-2.5v-3.75c0-4.825 3.925-8.75 8.75-8.75h20c.6887 0 1.25.5612 1.25 1.25 0 .6887-.5613 1.25-1.25 1.25h-13.75v28.125c0 1.0337-.8412 1.875-1.875 1.875-1.0337 0-1.875-.8413-1.875-1.875v-16.875h-2.5v16.875c0 1.0337-.8413 1.875-1.875 1.875-1.03375 0-1.875-.8413-1.875-1.875zm5 9.375c2.7575 0 5 2.2425 5 5s-2.2425 5-5 5-5-2.2425-5-5 2.2425-5 5-5zm-9.91125 20c.60875-4.235 4.26-7.5 8.66125-7.5h2.5c4.4012 0 8.0525 3.265 8.6613 7.5zm14.84755-9.3675c1.5674-1.375 2.5637-3.3875 2.5637-5.6325 0-.8775-.16-1.7163-.4375-2.5h8.375c-.2775.7837-.4375 1.6225-.4375 2.5 0 2.245.9963 4.2575 2.5638 5.6325-2.7413.955-5.0001 2.935-6.3138 5.4863-1.315-2.5513-3.5737-4.5313-6.3137-5.4863zm22.5637-5.6325c0 2.7575-2.2425 5-5 5s-5-2.2425-5-5 2.2425-5 5-5 5 2.2425 5 5zm-14.9113 15c.6088-4.235 4.2601-7.5 8.6613-7.5h2.5c4.4012 0 8.0525 3.265 8.6613 7.5zm14.8476-9.3675c1.5674-1.375 2.5637-3.3875 2.5637-5.6325 0-.8775-.16-1.7163-.4375-2.5h8.375c-.2775.7837-.4375 1.6225-.4375 2.5 0 2.245.9963 4.2575 2.5637 5.6325-2.7412.955-4.9999 2.935-6.3137 5.4863-1.315-2.5513-3.5737-4.5313-6.3137-5.4863zm18.8137 1.8675c4.4012 0 8.0525 3.265 8.6613 7.5h-19.8226c.6088-4.235 4.2601-7.5 8.6613-7.5zm-1.25-2.5c-2.7575 0-5-2.2425-5-5s2.2425-5 5-5 5 2.2425 5 5-2.2425 5-5 5zm17.5-10h-11.925c-1.3738-1.53-3.36-2.5-5.575-2.5s-4.2.97-5.575 2.5h-11.35c-1.3738-1.53-3.36-2.5-5.575-2.5s-4.2.97-5.575 2.5h-11.35c-1.3737-1.53-3.36-2.5-5.575-2.5s-4.2.97-5.575 2.5h-4.425v-5h72.5zm-8.4575-7.5h-3.335l-6-10h3.335z" fill="#6258a6"/></svg>