<svg fill="none" height="80" viewBox="0 0 80 80" width="80" xmlns="http://www.w3.org/2000/svg"><path d="m79.9921 22.6779c.0039-5.2296-3.7849-9.6905-8.9461-10.5331-5.1612-.8427-10.172 2.1814-11.8317 7.1406s.5214 10.3903 5.1502 12.8239c-.5896.3704-1.1355.8059-1.6276 1.2983-1.4401 1.4254-2.368 3.287-2.6395 5.2949-.7542-.8576-1.8387-1.3527-2.9808-1.3611h-3.786v-9.3315c-.0069-4.1532-2.7546-7.8031-6.744-8.9582 3.5759-2.8082 4.9781-7.5747 3.4925-11.87202-1.4855-4.29697-5.5324-7.17968-10.0792-7.17968-4.5467 0-8.5936 2.88271-10.0792 7.17999-1.4857 4.29731-.0834 9.06381 3.4924 11.87201-3.9893 1.1551-6.7371 4.805-6.744 8.9583v9.3314h-3.7859c-1.1417.0086-2.2255.5036-2.9794 1.3611-.3814-2.7185-1.9422-5.1304-4.2659-6.5919 4.3441-2.281 6.5713-7.2314 5.3967-11.9953-1.1746-4.7638-5.448-8.1116-10.3545-8.1116-4.90653 0-9.17959 3.3477-10.354201 8.1114-1.174612 4.7638 1.052761 9.7143 5.396751 11.9953-2.72197 1.7031-4.37711 4.6861-4.38179 7.897v18.6631c-.00235 2.5262 1.19866 4.9024 3.23404 6.3987l-4.017796 6.9666c-.36196.6108-.55176664 1.3082-.54926713 2.0182v1.9463c0 2.2087 1.79058313 3.9992 3.99921313 3.9992h71.98585c2.2086 0 3.9992-1.7905 3.9992-3.9992v-1.9463c.005-.7024-.1792-1.393-.5332-1.9996l-4.0325-6.9853c2.0343-1.4971 3.2347-3.873 3.2326-6.3988v-18.6627c-.0046-3.2092-1.6581-6.1908-4.3777-7.8944 3.5084-1.8404 5.7075-5.4738 5.7108-9.4356zm-47.9906-11.9977c0-4.41737 3.581-7.99839 7.9984-7.99839 4.4175 0 7.9985 3.58102 7.9985 7.99839 0 4.4174-3.581 7.9985-7.9985 7.9985-4.4155-.0044-7.994-3.5829-7.9984-7.9985zm-2.6662 17.3301c.0044-3.6793 2.986-6.6609 6.6654-6.6654h7.9985c3.6792.0043 6.6608 2.9859 6.6654 6.6654v9.3314h-2.6662v-9.3314c0-.7363-.5969-1.3331-1.333-1.3331-.7363 0-1.3331.597-1.3331 1.3331v9.3314h-10.6646v-9.3314c0-.7363-.5969-1.3331-1.333-1.3331s-1.333.597-1.333 1.3331v9.3314h-2.6662zm-7.6197 12.664c.2404-.4166.6867-.6713 1.1677-.6666h34.2333c.48-.0037.9251.2508 1.1651.6666l2.922 5.0657-.5331.9331h-7.0986c-2.4407-.0318-4.5181 1.7694-4.8324 4.1898-.1346 1.3135.2934 2.6225 1.1782 3.6025.8847.9799 2.1434 1.5393 3.4636 1.5392h9.3595c1.3226-.0035 2.6036-.4615 3.6287-1.2971l9.9766 17.2939h-72.69236l9.97666-17.2939c1.0251.8356 2.3061 1.2935 3.6286 1.2971h9.3596c1.3203.0001 2.5788-.5593 3.4635-1.5392.8847-.98 1.3129-2.2891 1.1782-3.6025-.3143-2.4204-2.3919-4.2216-4.8323-4.1898h-7.0986l-.5332-.9331zm-19.04157-17.9964c0-4.4174 3.58101-7.9985 7.99847-7.9985 4.4174 0 7.9984 3.5811 7.9984 7.9985s-3.581 7.9984-7.9984 7.9984c-4.41574-.0044-7.9941-3.5829-7.99847-7.9984zm1.33302 35.9929v-18.6629c.00437-3.6793 2.98597-6.6609 6.66545-6.6654 3.6784.0065 6.6586 2.9869 6.6654 6.6654v2.9327l-.0733.1267-1.9263-3.374c-.374-.6199-1.1744-.828-1.8028-.4689-.6286.3592-.8556 1.1544-.5113 1.7913l3.9886 6.98c.4749.8314 1.3592 1.3444 2.3169 1.3438h7.0985c1.0742-.0411 2.0098.7263 2.1796 1.7876.0609.5663-.1234 1.1317-.5066 1.553-.3768.4219-.9167.6619-1.4824.6584h-9.3597c-1.1118-.0017-2.138-.5969-2.6915-1.5611l-4.92041-8.6115c-.37399-.6199-1.1743-.828-1.80277-.4689-.62847.3592-.85562 1.1544-.51131 1.7913l4.53239 7.9398-5.9468 10.3139c-1.21132-1.005-1.91196-2.4973-1.91165-4.0712zm71.98585 18.663h-71.98585c-.73626 0-1.33302-.5969-1.33302-1.333v-1.333h74.65197v1.333c-.0001.7361-.5969 1.333-1.3331 1.333zm0-37.3259v18.663c.0003 1.5739-.7004 3.0663-1.9117 4.0713l-5.9535-10.314 4.5324-7.9398c.3441-.6369.1171-1.432-.5113-1.7912-.6285-.3591-1.429-.1511-1.8028.4688l-4.9204 8.6116c-.5523.9621-1.5755 1.557-2.6848 1.5611h-9.3596c-.5657.0033-1.1055-.2365-1.4824-.6585-.3832-.4214-.5675-.9866-.5066-1.5529.1698-1.0614 1.1054-1.8289 2.1796-1.7877h7.0986c.9564 0 1.8393-.5122 2.3142-1.3423l3.9886-6.9813c.3442-.6369.1172-1.4321-.5113-1.7912-.6286-.3592-1.4289-.1511-1.8028.4688l-1.9236 3.3673-.0733-.12v-2.9327c.0066-3.6785 2.9869-6.6587 6.6654-6.6654 3.6793.0041 6.6609 2.9857 6.6653 6.6651zm-6.6655-9.3316c-4.4174 0-7.9984-3.581-7.9984-7.9984s3.581-7.9985 7.9984-7.9985c4.4175 0 7.9985 3.5811 7.9985 7.9985-.0044 4.4155-3.5828 7.994-7.9985 7.9984z" fill="#6258a6"/></svg>