<svg fill="none" height="14" viewBox="0 0 21 14" width="21" xmlns="http://www.w3.org/2000/svg"><path d="m1 12h18c.2652 0 .5196.1054.7071.2929s.2929.4419.2929.7071-.1054.5196-.2929.7071-.4419.2929-.7071.2929h-18c-.265216 0-.51957-.1054-.707107-.2929-.187536-.1875-.29289287-.4419-.29289283-.7071.00000005-.2652.10535683-.5196.29289283-.7071.187537-.1875.441891-.2929.707107-.2929zm0-4h10c.2652 0 .5196.10536.7071.2929.1875.18753.2929.44189.2929.7071 0 .26522-.1054.51957-.2929.70711-.1875.18753-.4419.29289-.7071.29289h-10c-.265216 0-.51957-.10536-.707106-.29289-.187536-.18754-.29289317-.44189-.29289313-.70711.00000005-.26522.10535713-.51957.29289313-.70711.187537-.18753.441891-.29289.707106-.29289zm18.77 1.31c-.0847.10054-.1883.18339-.305.24384s-.2442.0973-.3751.10844c-.131.01115-.2628-.00363-.3881-.04349-.1252-.03985-.2414-.10401-.3418-.18879l-2-1.66c-.1132-.09383-.2044-.21149-.267-.34458-.0625-.1331-.095-.27835-.095-.42542 0-.14706.0325-.29232.095-.42541.0626-.1331.1538-.25075.267-.34459l2-1.66c.1785-.15269.4051-.23765.64-.24.1469-.00024.2921.0319.4252.09412.133.06222.2508.153.3448.26588.0842.10105.1476.21772.1867.34332.039.12561.0529.25768.0408.38865-.012.13098-.0498.25829-.1112.37464-.0613.11634-.145.21944-.2463.30339l-1.08.9 1.08.9c.1013.08395.185.18705.2463.3034.0614.11635.0992.24366.1112.37463.0121.13098-.0018.26305-.0408.38865-.0391.12561-.1025.24228-.1867.34332zm-.77-7.31h-18c-.265214 0-.519568-.10536-.707105-.29289-.187536-.18754-.29289277-.44189-.29289273-.70711.00000005-.265217.10535673-.519571.29289373-.707107.187536-.187537.44189-.29289287.707104-.29289283l18 .00000315c.2652.00000005.5196.10535668.7071.29289268s.2929.441891.2929.707104c0 .26522-.1054.51957-.2929.70711s-.4419.29289-.7071.29289zm-18 2h10c.2652 0 .5196.10536.7071.2929.1875.18753.2929.44189.2929.7071 0 .26522-.1054.51957-.2929.70711-.1875.18753-.4419.29289-.7071.29289h-10c-.265215 0-.519569-.10536-.707105-.29289-.187537-.18754-.29289347-.44189-.29289343-.70711.00000005-.26522.10535643-.51957.29289343-.70711.187536-.18753.44189-.29289.707105-.29289z" fill="#fff"/></svg>