<svg fill="none" height="21" viewBox="0 0 20 21" width="20" xmlns="http://www.w3.org/2000/svg"><path d="m.500397 7.0541 9.000003 5.2c.15202.0878.32446.134.5.134.1755 0 .348-.0462.5-.134l9-5.2c.1511-.08726.2768-.21255.3645-.36342s.1344-.32207.1355-.49658c.0007-.17621-.0452-.34948-.133-.50226s-.2144-.27964-.367-.36774l-9-5.190003c-.152-.0877686-.3245-.13397493-.5-.13397493-.17554 0-.34798.04620633-.5.13397493l-9.000003 5.190003c-.152605.0881-.279219.21496-.367022.36774-.0878034.15278-.13367786.32605-.13297829.50226.00105337.17451.04775889.34571.13547429.49658.087716.15087.213388.27616.364526.36342zm9.500003-4.86 7 4-7 4-7-4zm8.5 7.17-8.5 4.83-8.5-4.87c-.11414-.06612-.24022-.10901-.371-.12619-.130781-.01718-.263667-.00833-.391007.02607-.12734.03439-.246618.09363-.350965.17431-.104347.08069-.191701.18122-.257031.29581-.13037267.22961-.1646389.5015-.0953221.7563.0693171.2547.2365901.4718.4653221.6037l9.000003 5.2c.15202.0878.32446.134.5.134.1755 0 .348-.0462.5-.134l9-5.2c.2287-.1319.396-.349.4653-.6037.0693-.2548.0351-.52669-.0953-.7563-.0653-.11459-.1527-.21512-.257-.29581-.1044-.08068-.2237-.13992-.351-.17431-.1273-.0344-.2602-.04325-.391-.02607s-.2569.06007-.371.12619zm0 4-8.5 4.83-8.5-4.87c-.11414-.0661-.24022-.109-.371-.1262-.130781-.0172-.263667-.0083-.391007.0261s-.246618.0936-.350965.1743-.191701.1812-.257031.2958c-.13037267.2296-.1646389.5015-.0953221.7563.0693171.2547.2365901.4718.4653221.6037l9.000003 5.2c.15202.0878.32446.134.5.134.1755 0 .348-.0462.5-.134l9-5.2c.2287-.1319.396-.349.4653-.6037.0693-.2548.0351-.5267-.0953-.7563-.0653-.1146-.1527-.2151-.257-.2958-.1044-.0807-.2237-.1399-.351-.1743s-.2602-.0433-.391-.0261-.2569.0601-.371.1262z" fill="#6e77a5"/></svg>