<svg fill="none" height="21" viewBox="0 0 20 21" width="20" xmlns="http://www.w3.org/2000/svg"><path d="m.500397 7.05397 9.000003 5.20003c.15202.0877.32446.1339.5.1339.1755 0 .348-.0462.5-.1339l9-5.20003c.1511-.08725.2768-.21254.3645-.36341s.1344-.32207.1355-.49659c.0007-.17621-.0452-.34947-.133-.50225s-.2144-.27964-.367-.36775l-9-5.189995c-.152-.0877687-.3245-.133975-.5-.133975-.17554 0-.34798.0462063-.5.133975l-9.000003 5.189995c-.152605.08811-.279219.21497-.367022.36775-.0878034.15278-.13367786.32604-.13297829.50225.00105337.17452.04775889.34572.13547429.49659.087716.15087.213388.27616.364526.36341zm9.500003-4.86 7 4-7 4.00003-7-4.00003zm8.5 7.17-8.5 4.83003-8.5-4.87003c-.11414-.06611-.24022-.109-.371-.12618-.130781-.01719-.263667-.00833-.391007.02606s-.246618.09364-.350965.17432c-.104347.08069-.191701.18122-.257031.2958-.13037267.22962-.1646389.50153-.0953221.75623.0693171.2548.2365901.4719.4653221.6038l9.000003 5.2c.15202.0877.32446.134.5.134.1755 0 .348-.0463.5-.134l9-5.2c.2287-.1319.396-.349.4653-.6038.0693-.2547.0351-.52661-.0953-.75623-.0653-.11458-.1527-.21511-.257-.2958-.1044-.08068-.2237-.13993-.351-.17432s-.2602-.04325-.391-.02606c-.1308.01718-.2569.06007-.371.12618zm0 4.00003-8.5 4.83-8.5-4.87c-.11414-.0661-.24022-.109-.371-.1262-.130781-.0172-.263667-.0083-.391007.0261-.12734.0343-.246618.0936-.350965.1743s-.191701.1812-.257031.2958c-.13037267.2296-.1646389.5015-.0953221.7562.0693171.2548.2365901.4719.4653221.6038l9.000003 5.2c.15202.0877.32446.134.5.134.1755 0 .348-.0463.5-.134l9-5.2c.2287-.1319.396-.349.4653-.6038.0693-.2547.0351-.5266-.0953-.7562-.0653-.1146-.1527-.2151-.257-.2958-.1044-.0807-.2237-.14-.351-.1743-.1273-.0344-.2602-.0433-.391-.0261s-.2569.0601-.371.1262z" fill="#6cf"/></svg>