<svg fill="none" height="21" viewBox="0 0 18 21" width="18" xmlns="http://www.w3.org/2000/svg"><path d="m17.5909 5.76166c-.0059-.02747-.0059-.05587 0-.08334-.005-.02404-.005-.04887 0-.07291v-.09375l-.0625-.15625c-.0254-.04264-.057-.08126-.0937-.11459l-.0938-.08333h-.0521l-4.1041-2.59375-3.87503-2.395835c-.08965-.0711143-.19224-.1241764-.30208-.1562496h-.08334c-.0931-.01554052-.18814-.01554052-.28125 0h-.10416c-.121.0267627-.23701.0724645-.34375.1354166l-7.781252 4.843748-.093749.07292-.093751.08333-.104166.07292-.0520834.0625-.06250023.15625v.09375.0625c-.01011783.06907-.01011783.13926 0 .20833v9.09378c-.00035425.177.04441263.3512.13007463.5061.085661.1549.209391.2855.359509.3793l7.812498 4.8333.15625.0625h.08333c.17623.0559.36544.0559.54167 0h.08333l.15625-.0625 7.75-4.7604c.1501-.0938.2739-.2244.3595-.3793.0857-.1549.1304-.3291.1301-.5061v-9.09376s.0208-.07292.0208-.11458zm-8.84373-3.48959 1.85413 1.14584-5.82288 3.60416-1.86458-1.14583zm-1.04167 15.62503-5.72916-3.5v-6.65628l5.72916 3.54168zm1.04167-8.44794-1.98958-1.19792 5.82291-3.61458 2 1.23958zm6.77083 4.91664-5.72916 3.5625v-6.6458l5.72916-3.54168z" fill="#6e77a5"/></svg>