<svg fill="none" height="81" viewBox="0 0 78 81" width="78" xmlns="http://www.w3.org/2000/svg" xmlns:xlink="http://www.w3.org/1999/xlink"><linearGradient id="a"><stop offset="0" stop-color="#6258a6"/><stop offset="1" stop-color="#7e92ee"/></linearGradient><linearGradient id="b" gradientUnits="userSpaceOnUse" x1="73.3022" x2="73.3022" xlink:href="#a" y1="21.4495" y2="29.595"/><linearGradient id="c" gradientUnits="userSpaceOnUse" x1="72.923" x2="72.923" xlink:href="#a" y1="50.2784" y2="58.4114"/><linearGradient id="d" gradientUnits="userSpaceOnUse" x1="69.6723" x2="69.6723" xlink:href="#a" y1="43.4884" y2="51.6339"/><linearGradient id="e" gradientUnits="userSpaceOnUse" x1="74.3022" x2="74.3022" xlink:href="#a" y1="36.2844" y2="44.4299"/><linearGradient id="f" gradientUnits="userSpaceOnUse" x1="57.3354" x2="57.3354" xlink:href="#a" y1="58.3237" y2="66.4567"/><linearGradient id="g" gradientUnits="userSpaceOnUse" x1="57.3372" x2="57.3372" xlink:href="#a" y1="42.1333" y2="52.9898"/><linearGradient id="h" gradientUnits="userSpaceOnUse" x1="57.3372" x2="57.3372" xlink:href="#a" y1="48.9231" y2="59.767"/><linearGradient id="i" gradientUnits="userSpaceOnUse" x1="57.3372" x2="57.3372" xlink:href="#a" y1="35.3558" y2="46.1998"/><linearGradient id="j" gradientUnits="userSpaceOnUse" x1="59.3295" x2="59.3295" xlink:href="#a" y1="68.0757" y2="76.2086"/><linearGradient id="k" gradientUnits="userSpaceOnUse" x1="44.9974" x2="44.9974" xlink:href="#a" y1="57.2445" y2="68.0884"/><linearGradient id="l" gradientUnits="userSpaceOnUse" x1="44.9975" x2="44.9975" xlink:href="#a" y1="71.8915" y2="80.0244"/><linearGradient id="m" gradientUnits="userSpaceOnUse" x1="71.7455" x2="71.7455" xlink:href="#a" y1="59.3152" y2="67.4481"/><linearGradient id="n" gradientUnits="userSpaceOnUse" x1="69.6723" x2="69.6723" xlink:href="#a" y1="29.9336" y2="38.0665"/><linearGradient id="o" gradientUnits="userSpaceOnUse" x1="57.3372" x2="57.3372" xlink:href="#a" y1="28.5784" y2="39.4223"/><linearGradient id="p" gradientUnits="userSpaceOnUse" x1="44.9975" x2="44.9975" xlink:href="#a" y1="64.524" y2="72.657"/><linearGradient id="q" gradientUnits="userSpaceOnUse" x1="44.9974" x2="44.9974" xlink:href="#a" y1="50.4543" y2="61.3108"/><linearGradient id="r" gradientUnits="userSpaceOnUse" x1="71.0043" x2="71.0043" xlink:href="#a" y1="13.4043" y2="21.5372"/><linearGradient id="s" gradientUnits="userSpaceOnUse" x1="58.8803" x2="58.8803" xlink:href="#a" y1="1.53137" y2="9.67687"/><linearGradient id="t" gradientUnits="userSpaceOnUse" x1="57.3372" x2="57.3372" xlink:href="#a" y1="21.7882" y2="32.6447"/><linearGradient id="u" gradientUnits="userSpaceOnUse" x1="44.9975" x2="44.9975" xlink:href="#a" y1="6.77747" y2="14.923"/><linearGradient id="v" gradientUnits="userSpaceOnUse" x1="44.9974" x2="44.9974" xlink:href="#a" y1="20.2567" y2="31.1132"/><linearGradient id="w" gradientUnits="userSpaceOnUse" x1="32.6566" x2="32.6566" xlink:href="#a" y1="13.4672" y2="24.3236"/><linearGradient id="x" gradientUnits="userSpaceOnUse" x1="32.6586" x2="32.6586" xlink:href="#a" y1="0" y2="8.13294"/><linearGradient id="y" gradientUnits="userSpaceOnUse" x1="20.3206" x2="20.3206" xlink:href="#a" y1="21.7885" y2="32.6449"/><linearGradient id="z" gradientUnits="userSpaceOnUse" x1="17.5851" x2="17.5851" xlink:href="#a" y1="6.18762" y2="14.3331"/><linearGradient id="A" gradientUnits="userSpaceOnUse" x1="57.3354" x2="57.3354" xlink:href="#a" y1="15.0988" y2="23.2442"/><linearGradient id="B" gradientUnits="userSpaceOnUse" x1="44.9975" x2="44.9975" xlink:href="#a" y1="0" y2="8.13294"/><linearGradient id="C" gradientUnits="userSpaceOnUse" x1="44.9974" x2="44.9974" xlink:href="#a" y1="13.4796" y2="24.3235"/><linearGradient id="D" gradientUnits="userSpaceOnUse" x1="32.6652" x2="32.6652" xlink:href="#a" y1="9.07397" y2="17.2195"/><linearGradient id="E" gradientUnits="userSpaceOnUse" x1="32.6566" x2="32.6566" xlink:href="#a" y1="20.2568" y2="31.1133"/><linearGradient id="F" gradientUnits="userSpaceOnUse" x1="20.3188" x2="20.3188" xlink:href="#a" y1="15.0988" y2="23.2317"/><linearGradient id="G" gradientUnits="userSpaceOnUse" x1="4.43695" x2="4.43695" xlink:href="#a" y1="17.132" y2="25.2775"/><linearGradient id="H" gradientUnits="userSpaceOnUse" x1="32.6586" x2="32.6586" xlink:href="#a" y1="71.8914" y2="80.0243"/><linearGradient id="I" gradientUnits="userSpaceOnUse" x1="20.3188" x2="20.3188" xlink:href="#a" y1="68.4901" y2="76.6356"/><linearGradient id="J" gradientUnits="userSpaceOnUse" x1="20.3206" x2="20.3206" xlink:href="#a" y1="42.1335" y2="52.99"/><linearGradient id="K" gradientUnits="userSpaceOnUse" x1="20.3206" x2="20.3206" xlink:href="#a" y1="28.5784" y2="39.4223"/><linearGradient id="L" gradientUnits="userSpaceOnUse" x1="6.65082" x2="6.65082" xlink:href="#a" y1="60.9471" y2="69.0801"/><linearGradient id="M" gradientUnits="userSpaceOnUse" x1="7.98749" x2="7.98749" xlink:href="#a" y1="29.6453" y2="37.7908"/><linearGradient id="N" gradientUnits="userSpaceOnUse" x1="3.6977" x2="3.6977" xlink:href="#a" y1="37.0626" y2="45.1956"/><linearGradient id="O" gradientUnits="userSpaceOnUse" x1="32.6566" x2="32.6566" xlink:href="#a" y1="57.2319" y2="68.0884"/><linearGradient id="P" gradientUnits="userSpaceOnUse" x1="32.6586" x2="32.6586" xlink:href="#a" y1="65.1013" y2="73.2468"/><linearGradient id="Q" gradientUnits="userSpaceOnUse" x1="32.6566" x2="32.6566" xlink:href="#a" y1="50.4543" y2="61.3108"/><linearGradient id="R" gradientUnits="userSpaceOnUse" x1="20.3188" x2="20.3188" xlink:href="#a" y1="58.3237" y2="66.4567"/><linearGradient id="S" gradientUnits="userSpaceOnUse" x1="20.3206" x2="20.3206" xlink:href="#a" y1="48.9231" y2="59.767"/><linearGradient id="T" gradientUnits="userSpaceOnUse" x1="20.3206" x2="20.3206" xlink:href="#a" y1="35.3557" y2="46.1996"/><linearGradient id="U" gradientUnits="userSpaceOnUse" x1="7.98749" x2="7.98749" xlink:href="#a" y1="43.5015" y2="51.6344"/><linearGradient id="V" gradientUnits="userSpaceOnUse" x1="3.99432" x2="3.99432" xlink:href="#a" y1="23.1438" y2="31.2893"/><linearGradient id="W" gradientUnits="userSpaceOnUse" x1="4.43695" x2="4.43695" xlink:href="#a" y1="50.7678" y2="58.9133"/><linearGradient id="X" gradientUnits="userSpaceOnUse" x1="44.9997" x2="44.9997" xlink:href="#a" y1="34.0004" y2="47.5678"/><linearGradient id="Y" gradientUnits="userSpaceOnUse" x1="44.9997" x2="44.9997" xlink:href="#a" y1="40.7776" y2="54.345"/><linearGradient id="Z" gradientUnits="userSpaceOnUse" x1="32.6636" x2="32.6636" xlink:href="#a" y1="27.2228" y2="40.7777"/><linearGradient id="aa" gradientUnits="userSpaceOnUse" x1="44.9997" x2="44.9997" xlink:href="#a" y1="27.2229" y2="40.7778"/><linearGradient id="ab" gradientUnits="userSpaceOnUse" x1="32.6636" x2="32.6636" xlink:href="#a" y1="40.7775" y2="54.3449"/><linearGradient id="ac" gradientUnits="userSpaceOnUse" x1="32.6636" x2="32.6636" xlink:href="#a" y1="34.0002" y2="47.5677"/><path d="m76.9999 21.4495v8.1455l-7.3954-4.0665z" fill="url(#b)"/><path d="m76.6273 50.2784v8.133l-7.4085-4.0665z" fill="url(#c)"/><path d="m73.37 47.5674-7.3954 4.0665v-8.1455z" fill="url(#d)"/><path d="m77.9999 36.2844v8.1455l-7.3954-4.0665z" fill="url(#e)"/><path d="m61.0331 58.3237v8.133l-7.3954-4.0665z" fill="url(#f)"/><path d="m62.2741 52.9898-9.8737-5.422 9.8737-5.4345z" fill="url(#g)"/><path d="m62.2741 54.3451-9.8737 5.4219v-10.8439z" fill="url(#h)"/><path d="m62.2741 40.7778-9.8737 5.422v-10.844z" fill="url(#i)"/><path d="m63.0272 72.1422-7.3954 4.0664v-8.1329z" fill="url(#j)"/><path d="m49.9343 62.6665-9.8738 5.4219v-10.8439z" fill="url(#k)"/><path d="m48.6952 75.9579-7.3954 4.0665v-8.1329z" fill="url(#l)"/><path d="m75.4432 63.3817-7.3953 4.0664v-8.1329z" fill="url(#m)"/><path d="m73.37 34.0001-7.3954 4.0664v-8.1329z" fill="url(#n)"/><path d="m62.2741 28.5784v10.8439l-9.8737-5.422z" fill="url(#o)"/><path d="m48.6952 64.524v8.133l-7.3954-4.0665z" fill="url(#p)"/><path d="m49.9343 61.3108-9.8738-5.4345 9.8738-5.422z" fill="url(#q)"/><path d="m74.702 17.4708-7.3954 4.0664v-8.1329z" fill="url(#r)"/><path d="m62.578 5.59785-7.3954 4.07902v-8.1455z" fill="url(#s)"/><path d="m62.2741 27.2227-9.8737 5.422v-10.8565z" fill="url(#t)"/><path d="m48.6952 14.923-7.3954-4.0665 7.3954-4.07903z" fill="url(#u)"/><path d="m49.9343 20.2567v10.8565l-9.8738-5.4345z" fill="url(#v)"/><path d="m37.5934 24.3236-9.8737-5.4219 9.8737-5.4345z" fill="url(#w)"/><path d="m36.3563 8.13294-7.3954-4.06647 7.3954-4.06647z" fill="url(#x)"/><path d="m25.2575 32.6449-9.8737-5.4345 9.8737-5.4219z" fill="url(#y)"/><path d="m21.2894 6.18762v8.14548l-7.4085-4.0665z" fill="url(#z)"/><path d="m61.0331 23.2442-7.3954-4.079 7.3954-4.0664z" fill="url(#A)"/><path d="m48.6952 4.06647-7.3954 4.06647v-8.13294z" fill="url(#B)"/><path d="m49.9343 18.9016-9.8738 5.4219v-10.8439z" fill="url(#C)"/><path d="m36.3695 13.1404-7.4086 4.0791v-8.14553z" fill="url(#D)"/><path d="m37.5934 25.6788-9.8737 5.4345v-10.8565z" fill="url(#E)"/><path d="m24.0165 19.1652-7.3954 4.0665v-8.1329z" fill="url(#F)"/><path d="m8.13465 25.2775-7.395392-4.0665 7.395392-4.079z" fill="url(#G)"/><path d="m36.3563 80.0243-7.3954-4.0665 7.3954-4.0664z" fill="url(#H)"/><path d="m24.0165 68.4901v8.1455l-7.3954-4.0665z" fill="url(#I)"/><path d="m25.2575 47.5681-9.8737 5.4219v-10.8565z" fill="url(#J)"/><path d="m25.2575 34.0003-9.8737 5.422v-10.8439z" fill="url(#K)"/><path d="m10.3485 60.9471v8.133l-7.39538-4.0665z" fill="url(#L)"/><path d="m11.6918 29.6453v8.1455l-7.4086-4.0665z" fill="url(#M)"/><path d="m7.39539 41.1291-7.39539 4.0665v-8.133z" fill="url(#N)"/><path d="m37.5934 68.0884-9.8737-5.422 9.8737-5.4345z" fill="url(#O)"/><path d="m36.3563 69.1678-7.3954 4.079v-8.1455z" fill="url(#P)"/><path d="m37.5934 55.8763-9.8737 5.4345v-10.8565z" fill="url(#Q)"/><path d="m24.0165 62.3902-7.3954 4.0665v-8.133z" fill="url(#R)"/><path d="m25.2575 48.9231v10.8439l-9.8737-5.4219z" fill="url(#S)"/><path d="m25.2575 35.3557v10.8439l-9.8737-5.4219z" fill="url(#T)"/><path d="m11.6918 51.6344-7.4086-4.0665 7.4086-4.0664z" fill="url(#U)"/><path d="m7.69861 27.2228-7.408571 4.0665v-8.1455z" fill="url(#V)"/><path d="m8.13465 54.8343-7.395392 4.079v-8.1455z" fill="url(#W)"/><path d="m51.1626 47.5678-12.3257-6.79 12.3257-6.7774z" fill="url(#X)"/><path d="m38.8369 40.7776 12.3257 6.79-12.3257 6.7774z" fill="url(#Y)"/><path d="m38.833 27.2228v13.5549l-12.3389-6.7775z" fill="url(#Z)"/><path d="m51.1626 34.0004-12.3257 6.7774v-13.5549z" fill="url(#aa)"/><path d="m38.833 40.7775v13.5674l-12.3389-6.7774z" fill="url(#ab)"/><path d="m38.833 40.7777-12.3389 6.79v-13.5675z" fill="url(#ac)"/></svg>