<svg width="20" height="10" viewBox="0 0 20 10" fill="none" xmlns="http://www.w3.org/2000/svg">
<path d="M17.8015 0.0145267C17.5476 0.0145657 17.2976 0.0766317 17.0731 0.195306C16.8486 0.313981 16.6565 0.485638 16.5135 0.695423C16.3704 0.905209 16.2808 1.14673 16.2523 1.39905C16.2238 1.65133 16.2574 1.90677 16.35 2.14318L13.0686 5.42466C12.7028 5.28065 12.296 5.28065 11.9302 5.42466L9.58435 3.07885C9.67725 2.8424 9.71098 2.58685 9.68259 2.33441C9.65421 2.08197 9.56458 1.84026 9.4215 1.63036C9.27846 1.42045 9.08626 1.24864 8.8617 1.12993C8.6371 1.01121 8.38692 0.949146 8.13289 0.949146C7.87885 0.949146 7.62868 1.01121 7.40408 1.12993C7.17951 1.24864 6.98731 1.42045 6.84427 1.63036C6.70119 1.84026 6.61156 2.08197 6.58318 2.33441C6.55484 2.58685 6.58852 2.8424 6.68142 3.07885L2.77616 6.98412C2.44264 6.85328 2.07425 6.84127 1.73292 6.95008C1.39159 7.05893 1.09814 7.28197 0.90192 7.58174C0.705697 7.88147 0.618668 8.23967 0.655467 8.59601C0.692263 8.95238 0.850645 9.28521 1.10397 9.53854C1.3573 9.79188 1.69013 9.95028 2.0465 9.98704C2.40287 10.0238 2.76104 9.93683 3.06079 9.74061C3.36054 9.54439 3.58358 9.25094 3.69242 8.90962C3.80126 8.56829 3.78926 8.19987 3.65843 7.86638L7.56369 3.96112C7.92949 4.10509 8.33628 4.10509 8.70209 3.96112L11.0479 6.30692C10.955 6.54334 10.9213 6.79889 10.9496 7.05133C10.978 7.30377 11.0677 7.54548 11.2107 7.75538C11.3538 7.96529 11.546 8.1371 11.7705 8.25581C11.9951 8.37453 12.2453 8.43659 12.4994 8.43659C12.7534 8.43659 13.0036 8.37453 13.2282 8.25581C13.4527 8.1371 13.6449 7.96529 13.788 7.75538C13.9311 7.54548 14.0207 7.30377 14.0491 7.05133C14.0774 6.79889 14.0437 6.54334 13.9508 6.30692L17.2323 3.02544C17.4458 3.1093 17.6753 3.14505 17.9042 3.13008C18.1331 3.11515 18.3559 3.04985 18.5567 2.93889C18.7576 2.82794 18.9314 2.67406 19.0659 2.48817C19.2004 2.30232 19.2922 2.08907 19.3348 1.86365C19.3774 1.63823 19.3698 1.40614 19.3125 1.18404C19.2551 0.961895 19.1494 0.75515 19.0029 0.578542C18.8565 0.401934 18.6729 0.259829 18.4652 0.162324C18.2576 0.0648191 18.0309 0.0143708 17.8015 0.0145267Z" fill="white"/>
</svg>
