<svg height="20" viewBox="0 0 16.363 20" width="16.363" xmlns="http://www.w3.org/2000/svg"><path d="m11.809 20h-7.255a3.561 3.561 0 0 1 -3.645-3.463v-10.174a.909.909 0 1 1 1.818 0v10.174a1.745 1.745 0 0 0 1.827 1.644h7.255a1.746 1.746 0 0 0 1.827-1.644v-10.174a.909.909 0 1 1 1.818 0v10.174a3.561 3.561 0 0 1 -3.554 3.463zm-2.718-5.455v-6.364a.909.909 0 0 1 1.818 0v6.364a.909.909 0 1 1 -1.818 0zm-3.637 0v-6.364a.909.909 0 0 1 1.818 0v6.364a.909.909 0 1 1 -1.818 0zm-4.545-10a.909.909 0 1 1 0-1.818h3.636v-1.818a.909.909 0 0 1 .909-.909h5.455a.909.909 0 0 1 .909.909v1.818h3.636a.909.909 0 0 1 0 1.818zm5.454-1.818h3.637v-.909h-3.637z" fill="#d60000"/></svg>