<svg fill="none" height="25" viewBox="0 0 24 25" width="24" xmlns="http://www.w3.org/2000/svg"><g fill="#ff375e"><path d="m21 2.75h-18c-.82843 0-1.5.67157-1.5 1.5v.75c0 .82843.67157 1.5 1.5 1.5h18c.8284 0 1.5-.67157 1.5-1.5v-.75c0-.82843-.6716-1.5-1.5-1.5z"/><path d="m3.48982 8.00001c-.0527-.00029-.10487.01054-.1531.03177s-.09145.05238-.12683.09144c-.03538.03905-.06214.08512-.07852.13521s-.02202.10307-.01655.15548l1.23328 11.83879c-.00025.0034-.00025.0068 0 .0103.06444.5475.32769 1.0524.73978 1.4187s.94433.5685 1.49569.5683h10.83233c.5512 0 1.0832-.2023 1.4951-.5686s.675-.871.7394-1.4184v-.0099l1.2314-11.83919c.0055-.05241-.0001-.10539-.0165-.15548s-.0431-.09616-.0785-.13521c-.0354-.03906-.0786-.07021-.1269-.09144-.0482-.02123-.1004-.03206-.1531-.03177zm11.66528 8.46979c.0713.0693.1281.1521.1672.2435.039.0915.0595.1897.0602.2891.0007.0995-.0184.198-.0561.29s-.0934.1755-.1637.2458-.1539.1259-.2459.1636-.1905.0567-.29.0559c-.0994-.0007-.1976-.0212-.2891-.0603-.0914-.0391-.1741-.0959-.2434-.1672l-2.0943-2.0944-2.09487 2.0944c-.1413.1373-.33095.2134-.52796.212s-.38556-.0802-.5249-.2195-.21828-.3278-.21976-.5248.07461-.3867.21184-.5281l2.09485-2.0948-2.09485-2.0948c-.13723-.1414-.21332-.3311-.21184-.5281s.08042-.3855.21976-.5248.32789-.2181.5249-.2195.38666.0748.52796.212l2.09487 2.0944 2.0943-2.0944c.1413-.1372.331-.2134.528-.212s.3856.0802.5249.2195.2183.3278.2198.5248-.0746.3867-.2119.5281l-2.0948 2.0948z"/></g></svg>