<svg fill="none" height="25" viewBox="0 0 25 25" width="25" xmlns="http://www.w3.org/2000/svg"><path d="m21.548 18.7186-7.9889-14.83594c-.5662-1.05188-2.0747-1.05188-2.6414 0l-7.98844 14.83594c-.12294.2283-.18458.4847-.1789.744.00568.2592.0785.5126.21133.7354.13284.2227.32116.4072.54658.5355.22542.1282.48024.1958.73959.1962h15.97924c.2595 0 .5146-.0673.7404-.1954.2257-.128.4144-.3125.5475-.5353s.2061-.4764.2119-.7359c.0058-.2594-.0558-.516-.1789-.7445zm-9.3094-.0858c-.1854 0-.3666-.055-.5208-.158s-.2743-.2494-.3453-.4207-.0895-.3598-.0533-.5417c.0361-.1818.1254-.3489.2565-.48s.2982-.2204.48-.2566c.1819-.0361.3704-.0176.5417.0534.1713.0709.3177.1911.4207.3453.1031.1541.158.3354.158.5208 0 .1231-.0242.245-.0713.3588-.0471.1137-.1162.2171-.2032.3041-.0871.0871-.1905.1561-.3042.2033-.1137.0471-.2356.0713-.3588.0713zm1.0182-9.42889-.2691 5.71879c0 .1989-.079.3896-.2197.5303-.1406.1406-.3314.2197-.5303.2197s-.3897-.0791-.5303-.2197c-.1407-.1407-.2197-.3314-.2197-.5303l-.2691-5.71645c-.006-.1366.0155-.27302.0633-.40112.0478-.12811.1209-.24528.215-.34453.094-.09925.2071-.17856.3324-.23318.1254-.05462.2604-.08345.3972-.08476h.0098c.1377-.00007.2739.02774.4005.08178.1266.05403.241.13315.3362.23259s.1692.21714.2177.34599c.0484.12885.0703.26618.0642.4037z" fill="#d9a342"/></svg>