<svg fill="none" height="136" viewBox="0 0 96 136" width="96" xmlns="http://www.w3.org/2000/svg" xmlns:xlink="http://www.w3.org/1999/xlink"><linearGradient id="a"><stop offset="0" stop-color="#6cf"/><stop offset=".5" stop-color="#6258a6"/><stop offset=".99" stop-color="#273470"/></linearGradient><linearGradient id="b" gradientUnits="userSpaceOnUse" x1="75.8712" x2="-25.8394" xlink:href="#a" y1="121.309" y2="-1.76538"/><linearGradient id="c" gradientUnits="userSpaceOnUse" x1="48.7386" x2="-33.1551" xlink:href="#a" y1="125.114" y2="27.0202"/><linearGradient id="d" gradientUnits="userSpaceOnUse" x1="86.0804" x2="4.14727" xlink:href="#a" y1="99.715" y2="1.61784"/><linearGradient id="e" gradientUnits="userSpaceOnUse" x1="91.8593" x2="11.3795" xlink:href="#a" y1="94.5903" y2="-4.5184"/><linearGradient id="f" gradientUnits="userSpaceOnUse" x1="3.10156" x2="104.782" xlink:href="#a" y1="177.261" y2="54.1906"/><linearGradient id="g" gradientUnits="userSpaceOnUse" x1="71.1906" x2="-30.3275" xlink:href="#a" y1="137.721" y2="14.5293"/><linearGradient id="h" gradientUnits="userSpaceOnUse" x1="12.4579" x2="12.4579" xlink:href="#a" y1="164.304" y2="38.6148"/><linearGradient id="i" gradientUnits="userSpaceOnUse" x1="43.2134" x2="43.2134" xlink:href="#a" y1="164.305" y2="38.6154"/><linearGradient id="j" gradientUnits="userSpaceOnUse" x1="73.9295" x2="73.9295" xlink:href="#a" y1="164.307" y2="38.6159"/><linearGradient id="k" gradientUnits="userSpaceOnUse" x1="73.9295" x2="73.9295" xlink:href="#a" y1="164.308" y2="38.6163"/><linearGradient id="l" gradientUnits="userSpaceOnUse" x1="13.1952" x2="13.1952" xlink:href="#a" y1="164.305" y2="38.6154"/><linearGradient id="m" gradientUnits="userSpaceOnUse" x1="86.2097" x2="86.2097" xlink:href="#a" y1="58.9349" y2="-41.5924"/><linearGradient id="n" gradientUnits="userSpaceOnUse" x1="15.6789" x2="15.6789" xlink:href="#a" y1="144.716" y2="44.1556"/><linearGradient id="o" gradientUnits="userSpaceOnUse" x1="46.4309" x2="46.4309" xlink:href="#a" y1="144.716" y2="44.1556"/><linearGradient id="p" gradientUnits="userSpaceOnUse" x1="15.67" x2="15.67" xlink:href="#a" y1="164.319" y2="38.6059"/><linearGradient id="q" gradientUnits="userSpaceOnUse" x1="46.4231" x2="46.4231" xlink:href="#a" y1="164.328" y2="38.5926"/><linearGradient id="r" gradientUnits="userSpaceOnUse" x1="80.6079" x2="80.6079" xlink:href="#a" y1="137.908" y2="12.2012"/><linearGradient id="s" gradientUnits="userSpaceOnUse" x1="15.67" x2="15.67" xlink:href="#a" y1="164.328" y2="38.6214"/><g opacity=".1"><path d="m55.4602 62.7109-24.4446 11.3873 24.4446 11.3867z" fill="url(#b)"/><path d="m5.92773 71.7734v18.3745l19.62007-9.0579z" fill="url(#c)"/><path d="m45.1727 117.281-19.62 9.058 19.62 9.317z" fill="url(#d)"/><path d="m55.3857 105.242v18.116l19.6202-9.058z" fill="url(#e)"/><path d="m.137695 105.922 30.555405 14.234-30.555405 14.233z" fill="url(#f)"/><path d="m71.5302 34.6797-30.8769 14.4925 30.8769 14.2336z" fill="url(#g)"/><path d="m.137695 34.2422v22.774l24.444705-11.387z" fill="url(#h)"/><path d="m31.0156 48.4766v22.7741l24.4446-11.3878z" fill="url(#i)"/><path d="m61.5713 62.7109v22.774l24.7662-11.3867z" fill="url(#j)"/><path d="m86.3375 76.9453-24.7662 11.3873 24.7662 11.3873z" fill="url(#k)"/><path d="m25.3197 48.4766-24.4447 11.3863 24.4447 11.3878z" fill="url(#l)"/><path d="m76.3799 39.8438 19.62 9.0579-19.62 9.3166z" fill="url(#m)"/><path d="m25.5478 91.4375-19.62007 9.0575 19.62007 9.058z" fill="url(#n)"/><path d="m36.4834 91.4375v18.1155l19.6202-9.058z" fill="url(#o)"/><path d="m.138672.601562v28.467638l30.877428-14.2338z" fill="url(#p)"/><g fill-opacity=".5"><path d="m31.0156 14.8359v28.7264l30.8766-14.4925z" fill="url(#q)"/><path d="m65.3301 2.66406v28.72634l30.5556-14.2338z" fill="url(#r)"/><path d="m31.0161 14.8359-30.877428 14.2339 30.877428 14.4925z" fill="url(#s)"/></g></g></svg>