<svg fill="none" height="248" viewBox="0 0 781 248" width="781" xmlns="http://www.w3.org/2000/svg" xmlns:xlink="http://www.w3.org/1999/xlink"><linearGradient id="a"><stop offset=".18" stop-color="#fff"/><stop offset="1" stop-color="#dde2f8"/></linearGradient><linearGradient id="b" gradientUnits="userSpaceOnUse" x1="617.175" x2="617.175" xlink:href="#a" y1="189.607" y2="34.5312"/><linearGradient id="c"><stop offset=".18" stop-color="#fff"/><stop offset="1" stop-color="#ced3f8"/></linearGradient><linearGradient id="d" gradientUnits="userSpaceOnUse" x1="651.325" x2="651.325" xlink:href="#c" y1="34.5312" y2="34.5312"/><linearGradient id="e" gradientUnits="userSpaceOnUse" x1="696.38" x2="696.38" xlink:href="#a" y1="242.366" y2="87.2891"/><linearGradient id="f" gradientUnits="userSpaceOnUse" x1="572.12" x2="572.12" xlink:href="#c" y1="87.2891" y2="87.2891"/><linearGradient id="g" gradientUnits="userSpaceOnUse" x1="559.042" x2="559.042" xlink:href="#a" y1="193.662" y2="77.8594"/><linearGradient id="h" gradientUnits="userSpaceOnUse" x1="723.71" x2="723.71" xlink:href="#c" y1="77.8594" y2="77.8594"/><linearGradient id="i" gradientUnits="userSpaceOnUse" x1="167.898" x2="167.898" xlink:href="#a" y1="193.424" y2="34.4062"/><linearGradient id="j" gradientUnits="userSpaceOnUse" x1="132.881" x2="132.881" xlink:href="#c" y1="34.4062" y2="34.4062"/><linearGradient id="k" gradientUnits="userSpaceOnUse" x1="86.6791" x2="86.6791" xlink:href="#a" y1="247.534" y2="88.5156"/><linearGradient id="l" gradientUnits="userSpaceOnUse" x1="214.099" x2="214.099" xlink:href="#c" y1="88.5156" y2="88.5156"/><linearGradient id="m" gradientUnits="userSpaceOnUse" x1="227.51" x2="227.51" xlink:href="#a" y1="197.59" y2="78.8438"/><linearGradient id="n" gradientUnits="userSpaceOnUse" x1="58.6622" x2="58.6622" xlink:href="#c" y1="78.8438" y2="78.8438"/><linearGradient id="o" gradientUnits="userSpaceOnUse" x1="366.143" x2="366.143" xlink:href="#a" y1="142.325" y2="29.0781"/><linearGradient id="p" gradientUnits="userSpaceOnUse" x1="391.035" x2="391.035" xlink:href="#c" y1="142.325" y2="29.0781"/><linearGradient id="q" gradientUnits="userSpaceOnUse" x1="423.878" x2="423.878" xlink:href="#a" y1="180.858" y2="67.6094"/><linearGradient id="r" gradientUnits="userSpaceOnUse" x1="333.305" x2="333.305" xlink:href="#c" y1="67.6094" y2="67.6094"/><linearGradient id="s" gradientUnits="userSpaceOnUse" x1="323.772" x2="323.772" xlink:href="#a" y1="145.294" y2="60.7266"/><linearGradient id="t" gradientUnits="userSpaceOnUse" x1="443.793" x2="443.793" xlink:href="#c" y1="60.7266" y2="60.7266"/><path d="m645.352 25.3516-56.354 9.176 56.354 9.176 56.351-9.176z" fill="#f6f6fb"/><path d="m588.998 180.431 56.354 9.176v-145.8987l-56.354-9.1771z" fill="url(#b)"/><path d="m701.703 180.431-56.351 9.176v-145.8987l56.351-9.1771z" fill="url(#d)"/><path d="m724.56 78.1172-56.357 9.177 56.357 9.179 56.35-9.179z" fill="#f6f6fb"/><path d="m668.203 233.19 56.357 9.176v-145.898l-56.357-9.1789z" fill="url(#e)"/><path d="m780.91 233.19-56.35 9.178v-145.9l56.35-9.1789z" fill="url(#f)"/><path d="m580.083 71.0078-42.083 6.854 42.083 6.852 42.081-6.852z" fill="#f6f6fb"/><path d="m538 186.811 42.083 6.851v-108.9506l-42.083-6.852z" fill="url(#g)"/><path d="m622.165 186.811-42.081 6.851v-108.9506l42.081-6.852z" fill="url(#h)"/><path d="m139.005 25 57.786 9.41-57.786 9.409-57.7843-9.409z" fill="#f6f6fb"/><path d="m196.791 184.014-57.786 9.41v-149.6077l57.786-9.4101z" fill="url(#i)"/><path d="m81.2217 184.014 57.7843 9.41v-149.6077l-57.7843-9.4101z" fill="url(#j)"/><path d="m57.786 79.1016 57.786 9.409-57.786 9.412-57.786-9.412z" fill="#f6f6fb"/><path d="m115.572 238.124-57.7859 9.41v-149.6064l57.7859-9.412z" fill="url(#k)"/><path d="m.00097656 238.124 57.78602344 9.412v-149.6084l-57.78602344-9.412z" fill="url(#l)"/><path d="m205.933 71.8203 43.153 7.029-43.153 7.026-43.15-7.026z" fill="#f6f6fb"/><path d="m249.086 190.564-43.153 7.026v-111.7202l43.153-7.026z" fill="url(#m)"/><path d="m162.783 190.564 43.151 7.026v-111.7202l-43.151-7.026z" fill="url(#n)"/><path d="m478.301 107.505c4.716 16.637 20.413 20.54 39.039 12.324-7.256-14.165-24.743-24.6888-39.039-12.324z" fill="#6b67e9"/><path d="m477.457 104.936c19.986 10.388 37.721-1.004 46.573-26.0059-19.905-5.774-45.516 1.408-46.573 26.0059z" fill="#807dfb"/><path d="m477.456 105.428c-.103-.003-.202-.039-.284-.102s-.143-.151-.172-.25c-.03-.099-.026-.205.008-.303.035-.097.1-.181.185-.24 3.646-2.325 10.061-5.6673 16.851-9.2133 8.215-4.293 17.533-9.155 24.172-13.341.054-.038.115-.065.18-.079.065-.013.133-.013.198 0s.125.039.18.077c.055.037.101.086.136.142.036.056.059.119.07.184.01.066.008.133-.009.197-.016.064-.045.125-.085.177-.04.053-.091.097-.149.13-6.676 4.207-16.008 9.08-24.242 13.381-6.77 3.537-13.166 6.8763-16.776 9.1723-.079.047-.171.07-.263.068zm-160.789-39.8573c-15.44 1.209-25.005-4.151-29.396-20.712 13.122-2.671 30.003 4.821 29.396 20.712z" fill="#6b67e9"/><path d="m315.339 64.201c-13.985-12.796-10.104-30.104 7.103-44.326 10.314 14.072 12.037 36.383-7.103 44.326z" fill="#807dfb"/><path d="m315.342 64.6921c-.035 0-.071-.0029-.105-.0099-.127-.028-.238-.105-.308-.215-.07-.109-.094-.242-.066-.368.771-3.514 1.563-9.532 2.403-15.904 1.021-7.751 2.177-16.537 3.578-23.032.01-.066.034-.129.07-.185.035-.056.082-.105.137-.142.055-.038.117-.064.182-.077s.133-.0121.198.0019.126.0411.181.0801c.054.038.1.0869.134.1439.035.057.058.1201.067.1861s.005.1329-.012.1979c-1.388 6.458-2.542 15.2211-3.56 22.9531-.843 6.394-1.637 12.431-2.417 15.986-.025.109-.086.207-.173.277-.088.07-.197.1079-.309.1069z" fill="#6b67e9"/><path d="m386.682 22.3828-41.077 6.701 41.077 6.701 41.073-6.701z" fill="#f6f6fb"/><path d="m345.605 135.624 41.077 6.701v-106.5459l-41.077-6.701z" fill="url(#o)"/><path d="m427.755 135.624-41.073 6.701v-106.5459l41.073-6.701z" fill="url(#p)"/><path d="m444.415 60.9141-41.075 6.701 41.075 6.703 41.076-6.703z" fill="#f6f6fb"/><path d="m403.34 174.157 41.075 6.701v-106.5456l-41.075-6.703z" fill="url(#q)"/><path d="m485.49 174.157-41.076 6.701v-106.5456l41.076-6.703z" fill="url(#r)"/><path d="m339.109 55.7188-30.673 5.005 30.673 5.004 30.672-5.004z" fill="#f6f6fb"/><path d="m308.436 140.29 30.673 5.004v-79.5644l-30.673-5.003z" fill="url(#s)"/><path d="m369.781 140.29-30.672 5.004v-79.5644l30.672-5.003z" fill="url(#t)"/><path d="m354.651 211.279-7.965-4.283c-15.98-8.587-21.968-28.514-13.374-44.49l12.932-24.045 63.378 30.542 2.455 4.868-12.932 24.043c-8.593 15.971-28.514 21.957-44.494 13.365z" fill="#bbc0e6"/><path d="m352.198 206.417-7.963-4.282c-15.98-8.587-21.969-28.512-13.374-44.49l12.932-24.043 65.838 35.4-12.932 24.043c-8.6 15.979-28.521 21.97-44.501 13.372z" fill="#e9edf7"/><path d="m405.115 166.577-5.767-3.1 2.986-5.546c1.416-2.631 2.299-5.515 2.599-8.488.301-2.973.013-5.976-.847-8.837s-2.276-5.525-4.165-7.84c-1.89-2.314-4.217-4.234-6.849-5.649l3.101-5.765c6.844 3.68 11.945 9.928 14.182 17.369 2.237 7.442 1.426 15.467-2.254 22.31z" fill="#5652cc"/><path d="m409.623 169.002-65.838-35.4-2.646 4.923 5.294 2.848-.219.406c-.114.211-.185.444-.209.683s-.001.481.068.711c.07.23.184.445.336.631s.339.34.551.454l6.176 3.315c.428.23.93.28 1.395.141.465-.14.856-.458 1.087-.885l.218-.408 36.447 19.599-.218.406c-.114.212-.185.444-.209.684-.025.239-.001.481.068.711.069.231.183.445.335.632.153.186.34.341.552.455l6.17 3.318c.212.114.445.185.684.209s.481.001.712-.068c.23-.069.445-.183.631-.336.186-.152.341-.339.455-.551l.218-.406 5.294 2.848z" fill="#ced3f8"/><path d="m350.227 141.54c.211-.391.55-.697.96-.865.411-.169.867-.19 1.291-.059.424.13.79.403 1.036.772.245.37.355.813.31 1.254-.045.442-.241.854-.556 1.167-.314.312-.728.507-1.169.549-.442.042-.884-.07-1.253-.317-.368-.248-.639-.615-.767-1.04-.072-.241-.097-.495-.071-.745.025-.251.1-.494.219-.716z" fill="#e9edf7"/><path d="m369.98 177.133c.53-.986.788-2.095.748-3.213-.04-1.119-.377-2.207-.977-3.153-.599-.945-1.439-1.714-2.434-2.228-.994-.513-2.108-.753-3.226-.694-1.118.058-2.2.413-3.135 1.028-.936.615-1.691 1.468-2.188 2.471s-.718 2.12-.641 3.237.45 2.193 1.081 3.118l-6.262 9.035c-.06.088-.102.188-.121.293-.019.104-.016.212.009.316.025.103.071.2.136.285.065.084.147.154.241.205l5.966 3.209c.094.051.198.081.304.089s.213-.007.314-.043c.1-.036.192-.093.268-.168.077-.074.137-.163.177-.263l4.09-10.196c1.156.016 2.295-.285 3.291-.872.997-.587 1.812-1.436 2.359-2.456z" fill="#362e94"/><path d="m350.034 142.774h3.768c.037-.214.037-.434 0-.649h-3.757c-.04.214-.044.434-.011.649z" fill="#dde2f8"/><path d="m396.072 166.191c.18-.335.455-.609.79-.787.336-.178.716-.253 1.094-.215s.736.188 1.029.429c.293.242.507.565.617.928.109.364.108.752-.003 1.115s-.327.685-.621.925-.653.388-1.031.424-.758-.04-1.093-.22c-.448-.241-.782-.651-.929-1.138s-.093-1.013.147-1.461z" fill="#e9edf7"/><path d="m395.886 167.432h3.757c.037-.215.037-.435 0-.651h-3.757c-.038.216-.038.436 0 .651z" fill="#dde2f8"/><path d="m496.773 216.493c-23.501-9.998-45.385-14.187-63.779-32.987-15.804-16.154-33.307-32.632-54.066-42.218-19.003-8.782-40.505-9.278-59.778-17.235-22.956-9.481-43.217-26.8334-55.177-48.5474 1.587-3.399 2.381-5.095 3.97-8.49 13.987 20.198 32.103 38.9264 55.177 48.5474 19.25 8.027 40.766 8.465 59.778 17.231 20.754 9.572 38.36 25.891 54.072 42.143 18.363 18.997 40.173 23.048 63.773 33.066-1.589 3.396-2.381 5.093-3.97 8.49z" fill="#e9edf7"/><path d="m413.469 152.714c-4.682.494-7.972.956-12.733 1.7 3.126 2.308 6.174 4.733 9.155 7.247 4.734-.462 8.094-.655 12.703-.895-2.976-2.76-6.012-5.454-9.125-8.052zm28.561 27.013c-1.714-1.488-3.399-3.079-5.059-4.794-1.312-1.359-2.64-2.716-3.983-4.074-4.938.027-7.464.092-12.47.315 2.918 2.757 5.774 5.56 8.573 8.372.097.095.188.179.287.287 4.986-.047 7.872-.179 12.727-.038zm-45.668-39.574c-.81-.505-1.675-1.032-2.653-1.628-.111-.068-.222-.133-.335-.199-4.896 1.229-7.986 2.202-12.681 3.798 3.119 1.512 6.164 3.178 9.139 4.972 4.818-1.18 7.824-1.874 12.797-2.745-2.055-1.456-4.144-2.855-6.267-4.198zm-22.813-11.005c-4.896 2.079-8.304 3.579-13.183 5.817 3.231.823 6.44 1.732 9.596 2.791 4.702-1.984 8.026-3.358 12.703-5.063-2.971-1.349-6.014-2.533-9.116-3.545zm116.486 74.599c-5.16 2.091-7.457 3.055-12.687 5.227 3.807 1.252 5.368 2.002 9.114 3.343 5.167-2.089 7.75-3.115 12.729-4.963-3.086-1.283-6.14-2.47-9.156-3.607zm-15.639-5.849c-1.383-.537-2.755-1.083-4.115-1.64l-.064-.024c-5.172 2.075-7.076 3.042-12.055 4.869l.213.103c.727.331 1.362.632 1.947.909 2.147.981 4.308 1.907 6.499 2.802 5.173-2.077 7.262-2.957 12.524-5.144-2.083-.678-3.487-1.262-4.949-1.875zm-20.316-9.52c-.95-.564-1.895-1.14-2.831-1.745-4.582 1.29-7.285 2.308-11.48 3.041 1.24 1.006 2.492 1.963 3.757 2.873 1.198.841 2.453 1.665 4.006 2.711l.053.033c4.62-1.319 7.065-2.147 11.987-3.888-1.886-.904-3.72-1.914-5.492-3.025zm-101.669-64.626c-5.081 2.42-8.381 4.07-13.296 6.385 3.245.758 6.509 1.459 9.768 2.17 5.03-2.398 8.243-3.965 13.345-6.337-3.263-.789-6.543-1.506-9.817-2.218zm-59.361-27.6605c-5.135.64-7.827.894-12.912 1.293 2.524 2.6395 5.176 5.1535 7.956 7.5435 4.577-.589 8.713-1.172 13.218-2.01-2.85-2.146-5.602-4.4315-8.262-6.8265zm38.186 22.4085c-5.188 2.252-7.777 3.328-12.803 5.247.24.102.478.208.716.306 2.091.864 4.211 1.638 6.349 2.347.655.209 1.356.427 2.147.669 5.201-2.265 7.863-3.483 13.137-5.938-3.209-.782-6.399-1.642-9.546-2.631zm-15.88-6.619c-1.27-.673-2.523-1.372-3.757-2.099-4.788 1.328-8.149 2.133-13.084 3.12 2.942 2 5.969 3.858 9.082 5.574 4.712-1.309 8.131-2.352 12.851-4.084-2.076-.942-3.535-1.656-5.092-2.504zm-38.685-33.1935c-4.398.105-7.369.11-10.855.01 1.839 3.06 3.835 6.023 5.98 8.877 4.259-.104 7.439-.218 12.104-.523-2.506-2.706-4.914-5.504-7.229-8.364z" fill="#fcba06"/><path d="m359.272 141.926-5.766-3.1 2.986-5.546c3.68-6.843 9.929-11.944 17.37-14.18 7.442-2.237 15.468-1.426 22.312 2.254l-3.101 5.765c-5.316-2.853-11.547-3.48-17.325-1.745-5.779 1.735-10.633 5.692-13.497 11.001z" fill="#5652cc"/><path d="m438.966 1.65963 3.077 8.151c.076.20097.204.37897.37.51597.167.136.367.226.58.261.212.034.43.012.632-.064.201-.077.379-.205.515-.372l5.517-6.74597c.137-.166.227-.366.261-.578.035-.213.013-.42999-.063-.63199-.076-.201-.204-.37902-.371-.51502-.166-.136-.366-.22601-.578-.26001l-8.604-1.4059707c-.212-.033-.429-.01001389-.629.0669861-.2.0769996-.377.2050096-.512.3720096-.135.166-.224.364996-.258.576995-.035.212-.013.429.063.629z" fill="#fcba06"/></svg>